<svg width="64" height="64" viewBox="0 0 64 64" fill="none" xmlns="http://www.w3.org/2000/svg">
<g clip-path="url(#clip0_238_2357)">
<rect width="64" height="64" fill="white"/>
<path d="M59.1058 44.5039C59.1642 44.399 59.2212 44.2931 59.2765 44.1866C59.302 44.1385 59.3323 44.078 59.3681 44.0005C59.4016 43.9292 59.4342 43.8575 59.4659 43.7853C59.4976 43.7131 59.5284 43.6405 59.5583 43.5677C59.5846 43.504 59.6258 43.3959 59.6258 43.3962L59.6698 43.2664L59.7543 43.0251L59.808 42.8464C59.8418 42.7277 59.8784 42.6056 59.9045 42.4884C59.9324 42.3702 59.9586 42.2516 59.983 42.1327C60.0045 42.0163 60.0238 41.9003 60.0419 41.7836C60.1091 41.3233 60.1364 40.8761 60.131 40.4624C60.1252 40.05 60.0935 39.6588 60.0436 39.2979C59.9428 38.5767 59.7814 37.9545 59.6052 37.4016C59.5167 37.125 59.4238 36.8628 59.3288 36.6171C59.234 36.3687 59.1372 36.1358 59.0402 35.9127C58.6527 35.023 58.2599 34.2865 57.9754 33.7204C57.7955 33.3656 57.6157 33.0111 57.4362 32.657C57.255 32.3044 57.0659 31.9581 56.8812 31.6092C56.132 30.2221 55.3467 28.8741 54.5354 27.5615C54.3305 27.2352 54.1258 26.9094 53.9215 26.5839C53.7084 26.255 53.4954 25.9264 53.2828 25.5983L53.1239 25.3547L52.9722 25.1293C52.8711 24.9791 52.7701 24.829 52.6693 24.6791C52.5608 24.5185 52.4524 24.3581 52.3441 24.1978C52.2333 24.0402 52.1225 23.8827 52.0117 23.7253C51.8622 23.51 51.712 23.297 51.5614 23.0849C51.4924 23.0128 51.4243 22.94 51.3589 22.865C51.0774 22.5422 50.7959 22.2195 50.5166 21.8948C49.8308 21.0978 49.0736 20.3695 48.4028 19.556C47.8244 18.8546 47.2637 18.1392 46.6923 17.4323C46.6847 17.4228 46.6979 17.4114 46.7062 17.4202C47.3822 18.1351 48.0301 18.8761 48.7068 19.5904C49.0616 19.965 49.411 20.3483 49.7811 20.708C50.1041 21.0217 50.4363 21.3202 50.736 21.6565C51.1044 22.0697 51.4609 22.4904 51.8566 22.8775C52.1775 23.1914 52.4874 23.5172 52.7765 23.8608C52.94 24.0552 53.0991 24.2528 53.2553 24.4524C53.264 24.4619 53.2728 24.4714 53.2813 24.4808C54.4968 25.8125 55.6213 27.0745 56.6543 28.2481C57.6876 29.4213 58.6289 30.5072 59.4721 31.4931C60.3163 32.4783 61.0637 33.3632 61.7076 34.1354C62.3532 34.9072 62.8941 35.5669 63.3274 36.1004C63.7608 36.6342 64.0816 37.041 64.2825 37.3008C64.294 37.3156 64.3053 37.3299 64.316 37.3438C64.3195 37.3476 64.323 37.3514 64.3262 37.355C64.333 37.362 64.3399 37.3683 64.3467 37.3739C64.3535 37.3796 64.36 37.3845 64.3662 37.3889C64.3694 37.3911 64.3724 37.3931 64.3753 37.3951C64.376 37.3942 64.3803 37.4015 64.3836 37.4063C64.3869 37.4114 65.3397 38.6725 65.3428 38.6773C65.3931 38.7544 66.4235 39.2355 66.4235 39.2355L68.2437 35.4782C68.2437 35.4782 68.2209 35.4376 68.1757 35.3576C68.1729 35.3525 68.17 35.3474 68.167 35.3421C68.1632 35.3354 68.1591 35.3286 68.155 35.3216C68.1432 35.3023 68.1308 35.282 68.1177 35.2607C68.0911 35.2182 68.0619 35.1715 68.0301 35.1207C67.9975 35.0703 67.9622 35.0158 67.9244 34.9572C67.8922 34.9092 67.8578 34.8578 67.8212 34.8031C67.6002 34.4752 67.2839 34.0172 66.8707 33.4354C66.457 32.8532 65.9465 32.1419 65.3403 31.3143C64.7348 30.4854 64.0343 29.5386 63.2423 28.4842C62.4513 27.4289 61.5681 26.2668 60.596 25.0084C59.6242 23.7498 58.5646 22.3945 57.4133 20.9576C56.2625 19.5204 55.0232 17.9996 53.687 16.4117C52.3497 14.8241 50.918 13.1688 49.3574 11.4691C49.1617 11.2568 48.9649 11.0434 48.7671 10.829C48.5687 10.6148 48.363 10.4021 48.1596 10.1868C47.9543 9.97233 47.7527 9.75489 47.5411 9.53973C47.3295 9.32451 47.1168 9.10827 46.9031 8.89106C46.7955 8.78264 46.6904 8.67311 46.58 8.56484C46.4692 8.45668 46.3582 8.34832 46.2469 8.23974C46.0233 8.02277 45.8025 7.80369 45.5734 7.58558C45.1047 7.15184 44.6436 6.71186 44.1338 6.27704C44.0087 6.16791 43.8833 6.05852 43.7576 5.94893C43.6964 5.89388 43.6278 5.83976 43.5612 5.7854L43.36 5.62217C43.2255 5.5134 43.0907 5.40437 42.9556 5.29514L42.7524 5.13129L42.5319 4.96842C42.384 4.86008 42.2359 4.75148 42.0874 4.64271L41.8637 4.47991L41.8022 4.43577L41.7547 4.40275L41.6465 4.32856C41.3496 4.12663 41.0527 3.93163 40.7387 3.7369C40.4259 3.54263 40.1005 3.35092 39.7521 3.16175C39.4037 2.97277 39.0319 2.78609 38.6099 2.60482C38.3961 2.51429 38.1693 2.42513 37.9197 2.33964C37.6652 2.2543 37.3874 2.17175 37.058 2.10177C36.7268 2.0338 36.3472 1.97163 35.8389 1.97312C35.7022 1.97598 35.5713 1.98108 35.4299 1.99313C35.3531 2.00085 35.2763 2.01 35.1998 2.02045C35.2864 1.99747 34.8077 2.09126 34.852 2.08347L34.7941 2.09499C34.8154 2.08874 34.7042 2.11395 34.5551 2.1575C34.4273 2.19513 34.3008 2.23807 34.177 2.28586C34.0681 2.32942 33.9712 2.37328 33.8699 2.42206C33.7716 2.46915 33.6722 2.52116 33.5638 2.5871C33.4587 2.65031 33.3561 2.71711 33.256 2.78798C33.0458 2.94439 32.8482 3.11083 32.6648 3.31012C32.4787 3.50623 32.3221 3.71631 32.1798 3.93877C32.1124 4.04688 32.0533 4.15432 31.9958 4.2659C31.9364 4.3803 31.8898 4.48555 31.8479 4.5902C31.8062 4.69397 31.7628 4.80927 31.7325 4.90725C31.702 5.00508 31.6743 5.10409 31.6492 5.20385C31.6224 5.30891 31.6083 5.38793 31.591 5.48029C31.5757 5.56674 31.559 5.66665 31.5507 5.74312C31.5327 5.89939 31.5184 6.07169 31.5165 6.20414C31.5146 6.27473 31.5138 6.34548 31.514 6.41616C31.5152 6.47902 31.5173 6.54127 31.5201 6.60396C31.5449 7.09944 31.6177 7.4673 31.6926 7.78926C31.7693 8.10929 31.854 8.37992 31.9402 8.6297C32.0266 8.87877 32.1152 9.10595 32.2045 9.31824C32.294 9.53079 32.3846 9.73377 32.4757 9.92604C32.6581 10.312 32.8435 10.6695 33.0313 11.0131C33.4068 11.6994 33.7925 12.335 34.1859 12.9535C34.3825 13.2624 34.5813 13.5659 34.7799 13.8642C34.8782 14.0108 34.9767 14.1577 35.0753 14.3047L35.217 14.5151C35.2617 14.5816 35.3067 14.6489 35.3333 14.6913C35.7042 15.2542 36.0772 15.8202 36.4521 16.3891C36.5001 16.4609 36.5435 16.5297 36.5953 16.6042L36.7473 16.8255C36.8488 16.973 36.9504 17.1209 37.0522 17.2689C37.2559 17.5649 37.4602 17.8616 37.665 18.1591C38.4757 19.3239 39.2815 20.4627 40.0877 21.6027C41.6943 23.8793 43.2678 26.1402 44.6498 28.4366C44.7376 28.5799 44.8255 28.7233 44.9134 28.8667C44.998 29.0112 45.0826 29.156 45.1673 29.3007C45.2583 29.4568 45.3494 29.6129 45.4405 29.7693L45.5773 30.0039L45.7011 30.2242C45.8641 30.5156 46.0273 30.8075 46.1908 31.0998C46.3538 31.401 46.517 31.7026 46.6804 32.0046C47.3244 33.215 47.9351 34.4405 48.5036 35.6783C48.6424 35.9887 48.7868 36.2977 48.9219 36.609C49.0552 36.9205 49.1886 37.2322 49.3221 37.5442C49.435 37.8077 49.5396 38.0498 49.635 38.2735C49.7103 38.311 49.7863 38.3463 49.8642 38.3777C50.084 38.4662 50.4725 38.3819 50.5317 38.1052C50.5794 37.883 50.4416 37.7036 50.3591 37.5102C50.347 37.4816 50.3881 37.4667 50.4022 37.4931C50.5286 37.7299 50.7492 37.8642 50.7269 38.1495C50.7084 38.386 50.4685 38.6762 50.2485 38.7512C50.0504 38.8187 49.8378 38.7309 49.6445 38.6351L49.5968 38.6254L49.5287 38.6115C49.496 38.6056 49.5025 38.6046 49.5058 38.6034C49.51 38.6009 49.5143 38.5989 49.5184 38.5978C49.5225 38.5965 49.5265 38.5961 49.5304 38.5964C49.5361 38.5979 49.5261 38.5938 49.5194 38.591L49.4987 38.5824C49.4705 38.5703 49.444 38.5637 49.414 38.5502C49.3838 38.5364 49.3536 38.5239 49.3231 38.5122C49.197 38.4554 49.0554 38.3856 48.9006 38.3001C48.5887 38.124 48.2241 37.8814 47.8314 37.5728C47.4386 37.2658 47.0196 36.898 46.5856 36.4845C46.369 36.2793 46.1473 36.0593 45.9223 35.8318C45.6974 35.6048 45.4676 35.3656 45.2327 35.1181C44.9982 34.8711 44.7584 34.6146 44.5094 34.3476C44.2508 34.0713 43.9924 33.795 43.7341 33.5189C43.7059 33.4896 43.7984 33.5816 43.7369 33.5183L43.6898 33.4668L43.5955 33.3639L43.407 33.1581L43.03 32.7466C42.7823 32.4748 42.5134 32.1887 42.309 31.9459C42.0902 31.6938 41.8716 31.4421 41.6531 31.1905L41.4892 31.0022L41.4482 30.9551L41.4053 30.9044L41.3195 30.8028L40.9765 30.3966C40.7478 30.1258 40.5192 29.8552 40.291 29.5849C40.0611 29.3071 39.8313 29.0296 39.6017 28.7523C39.1458 28.2039 38.676 27.6282 38.2133 27.0654C37.7402 26.4911 37.2681 25.9179 36.797 25.3459C36.5542 25.0556 36.3118 24.7657 36.0696 24.4761C35.9485 24.3313 35.8274 24.1865 35.7064 24.0419C35.5864 23.8975 35.4576 23.7508 35.3337 23.6056C34.8332 23.0241 34.3368 22.439 33.8279 21.8682C33.6963 21.7211 33.5648 21.5741 33.4334 21.4272C33.3003 21.2806 33.1673 21.134 33.0343 20.9876C32.8984 20.8405 32.7625 20.6936 32.6267 20.5467C32.4877 20.3994 32.3488 20.2523 32.2101 20.1051C31.086 18.9276 29.8649 17.7489 28.4737 16.6222C27.7775 16.0594 27.0373 15.5099 26.2387 14.9873C25.4403 14.465 24.5827 13.969 23.6529 13.5248C22.7237 13.0812 21.7203 12.6896 20.6472 12.391C19.5755 12.0922 18.4329 11.8892 17.265 11.8196C16.9726 11.8036 16.681 11.7874 16.3866 11.7918L15.9462 11.7948L15.8363 11.7964C15.4183 11.8234 15.684 11.8056 15.5744 11.8125L15.448 11.8186L15.3217 11.8247C15.2917 11.8268 15.2998 11.8242 15.2384 11.8302L15.0695 11.8469C14.8444 11.8705 14.6197 11.8986 14.3961 11.9314C14.3359 11.9398 14.292 11.9477 14.2479 11.9556L14.1128 11.98L13.8432 12.0314C13.7534 12.0493 13.664 12.0668 13.5742 12.0867L13.3039 12.1535C13.124 12.2007 12.945 12.244 12.7662 12.3008C12.5874 12.3568 12.4092 12.4153 12.2321 12.476C12.0553 12.538 11.8804 12.6093 11.7059 12.6792C11.619 12.7151 11.5315 12.7495 11.4458 12.7882L11.1899 12.9068C10.8472 13.0637 10.5203 13.245 10.1965 13.4313C10.0386 13.5281 9.88197 13.6269 9.72679 13.7277C9.56931 13.8271 9.42504 13.9355 9.2759 14.042C8.68858 14.4721 8.1487 14.9452 7.67876 15.4403C7.2069 15.9349 6.78513 16.4508 6.42125 16.9721C6.05815 17.4932 5.73986 18.0216 5.46454 18.5488C5.19261 19.0753 4.95621 19.6025 4.75387 20.1269C4.55481 20.6504 4.38337 21.1731 4.24119 21.693C4.10139 22.2127 3.9836 22.7316 3.89306 23.2501C3.80382 23.7689 3.73355 24.2878 3.69025 24.8104C3.6775 24.9407 3.67088 25.0725 3.6618 25.2033L3.6497 25.4001C3.64157 25.7469 3.64607 25.5305 3.64357 25.6234L3.64119 25.6831C3.6347 25.8422 3.62832 26.0011 3.62192 26.1596C3.61551 26.3183 3.60912 26.4766 3.60271 26.6346L3.59314 26.8714C3.59173 26.9124 3.58954 26.947 3.58874 26.9931L3.589 27.1508C3.59004 27.5711 3.59332 27.9906 3.59906 28.4089C3.59984 28.8436 3.62538 29.2041 3.64386 29.5869C3.65397 29.7766 3.66421 29.9658 3.67433 30.1547C3.68473 30.3437 3.69355 30.5327 3.71333 30.7191C3.74858 31.0933 3.78367 31.466 3.81883 31.8372L3.84587 32.1156C3.85498 32.2084 3.86924 32.2993 3.88074 32.3911C3.90524 32.5744 3.92967 32.7573 3.95406 32.9399C3.97893 33.1226 4.00374 33.3048 4.02851 33.4867L4.066 33.7594C4.07934 33.8498 4.09606 33.9388 4.11108 34.0285C4.1733 34.3866 4.23538 34.7432 4.29708 35.0984L4.34416 35.3645C4.36031 35.4529 4.38003 35.5394 4.3979 35.6268C4.43457 35.8012 4.47116 35.9752 4.50773 36.1488C4.54464 36.3225 4.58142 36.4957 4.61818 36.6687C4.65478 36.8418 4.69116 37.0147 4.73454 37.183C4.90266 37.8594 5.06086 38.538 5.25199 39.1869C5.34488 39.5132 5.43404 39.8413 5.53008 40.162C5.62972 40.4802 5.72889 40.7968 5.82758 41.1118C5.87726 41.2694 5.92682 41.4265 5.97627 41.5832C6.02895 41.737 6.08151 41.8904 6.13395 42.0435C6.23945 42.3495 6.34429 42.6542 6.44866 42.9571C7.30709 45.3604 8.25061 47.5464 9.18065 49.555C9.2389 49.6806 9.2969 49.8058 9.35482 49.9306C9.38371 49.993 9.41266 50.0552 9.44152 50.1175L9.46321 50.1641C9.49966 50.2367 9.48489 50.2087 9.49828 50.236L9.5387 50.3214C9.64643 50.5489 9.75354 50.7749 9.85985 50.9995C10.0725 51.4484 10.2823 51.8913 10.4889 52.3279C10.5406 52.4371 10.5921 52.5458 10.6434 52.6542C10.6695 52.7089 10.6955 52.7636 10.7216 52.8181C10.7492 52.8746 10.777 52.9311 10.8046 52.9875C10.915 53.2131 11.0247 53.4369 11.1335 53.6591C11.3514 54.1036 11.5659 54.5413 11.7772 54.9722C11.8841 55.1876 11.9851 55.4015 12.0945 55.6134C12.2034 55.8252 12.3113 56.0352 12.4183 56.2436C12.6328 56.6602 12.8437 57.07 13.0508 57.4723C13.1545 57.6736 13.2573 57.8732 13.3591 58.0707C13.3847 58.1201 13.4102 58.1693 13.4357 58.2187C13.4628 58.268 13.4899 58.3174 13.5167 58.3667C13.5708 58.4651 13.6245 58.5631 13.6779 58.6607C13.8922 59.0508 14.1021 59.4334 14.3081 59.8084C14.5145 60.1836 14.7167 60.551 14.9147 60.9106C14.9506 60.9697 14.8603 60.826 15 61.0516L15.0179 61.0821L15.0537 61.1428C15.0775 61.1833 15.1011 61.2237 15.1248 61.2639C15.1721 61.3446 15.2191 61.4245 15.2659 61.5041C15.3594 61.6633 15.452 61.8208 15.5434 61.9764C15.5892 62.0543 15.6346 62.1316 15.6798 62.2086L15.7138 62.2662L15.7558 62.3339C15.7849 62.3803 15.8139 62.4265 15.8428 62.4726C15.9589 62.657 16.0735 62.839 16.1868 63.0188C16.3007 63.1985 16.4131 63.376 16.524 63.5511C16.552 63.5949 16.5797 63.6385 16.6073 63.682C16.6341 63.7235 16.6609 63.7649 16.6876 63.8062C16.7382 63.8831 16.7885 63.9593 16.8385 64.0351C17.0387 64.3382 17.2337 64.6333 17.4231 64.92C17.5185 65.0659 17.6103 65.1991 17.7012 65.3328C17.7922 65.4663 17.8818 65.5976 17.97 65.7271C18.0584 65.8563 18.1452 65.9839 18.2307 66.1091C18.3154 66.2325 18.3989 66.3539 18.4809 66.4733C18.6426 66.7061 18.7988 66.9309 18.9492 67.1476C19.5289 67.9807 20.0221 68.6893 20.422 69.2638C20.5182 69.4028 20.6088 69.5337 20.6937 69.6564C20.7361 69.7177 20.7772 69.777 20.8168 69.8342C20.8543 69.8896 20.8906 69.9429 20.9254 69.9944C21.0644 70.1996 21.1815 70.3724 21.2757 70.5115C21.4642 70.7895 21.5614 70.933 21.5614 70.933L38.6399 65.758C38.6399 65.758 34.9586 61.144 34.7207 60.8375C34.6018 60.6843 34.454 60.4939 34.2784 60.2678C34.2345 60.2113 34.189 60.1526 34.1416 60.0917C34.0954 60.0333 34.0473 59.9727 33.9977 59.91C33.8984 59.7846 33.7924 59.6508 33.6799 59.5087C33.243 58.9599 32.7043 58.283 32.0709 57.4872C31.9191 57.2962 31.7615 57.098 31.5984 56.8927C31.5193 56.7922 31.4388 56.6899 31.3571 56.5858C31.2768 56.483 31.1953 56.3787 31.1125 56.2726C31.0296 56.1666 30.9454 56.0588 30.8599 55.9495C30.7745 55.8402 30.6858 55.7281 30.6052 55.6198C30.4391 55.4009 30.2682 55.1755 30.0926 54.944C30.0486 54.8861 30.0044 54.828 29.9598 54.7693C29.936 54.7384 29.9178 54.7133 29.8993 54.6878C29.8805 54.6621 29.8617 54.6363 29.8428 54.6105C29.767 54.5071 29.69 54.4023 29.6122 54.2964C29.5338 54.1905 29.4543 54.0833 29.3738 53.9748C29.3536 53.9477 29.3334 53.9206 29.313 53.8933C29.3024 53.8787 29.2938 53.8683 29.2813 53.8501L29.2439 53.7947C29.1939 53.7209 29.1434 53.6464 29.0928 53.5717C28.9915 53.4222 28.889 53.271 28.7854 53.118C28.7335 53.0415 28.6814 52.9645 28.629 52.8872C28.6028 52.8485 28.5765 52.8097 28.5501 52.7708L28.5106 52.7125L28.4908 52.6831C28.6176 52.8888 28.516 52.7245 28.5399 52.7634C28.3549 52.4725 28.1659 52.1753 27.973 51.8719C27.7795 51.5684 27.5822 51.2587 27.3808 50.943C27.3305 50.8641 27.2798 50.7847 27.2289 50.7051C27.2035 50.6653 27.178 50.6252 27.1524 50.5852C27.1274 50.5437 27.1024 50.5021 27.0772 50.4603C26.977 50.2929 26.876 50.124 26.7739 49.9535C26.5695 49.6124 26.3614 49.2652 26.1497 48.912C26.0436 48.7353 25.9369 48.5572 25.829 48.3776C25.7209 48.1982 25.6172 48.0103 25.5097 47.8247C25.2959 47.4517 25.0787 47.0726 24.858 46.6878C24.7476 46.4953 24.6364 46.3013 24.5242 46.106C24.4963 46.0571 24.4681 46.0082 24.44 45.9592C24.4112 45.9075 24.3822 45.8557 24.3533 45.8039C24.2951 45.699 24.2366 45.5937 24.1779 45.488C23.9433 45.0654 23.7054 44.6366 23.4641 44.202C23.3435 43.9846 23.222 43.7657 23.0998 43.5456L23.0538 43.4628C23.0529 43.4621 23.0236 43.4062 23.0458 43.4506L23.0251 43.4126L22.9422 43.2602C22.8867 43.1584 22.8312 43.0563 22.7754 42.9538C21.8822 41.3142 21.0149 39.6082 20.2512 37.8456C20.159 37.6257 20.0663 37.4046 19.9732 37.1824C19.9263 37.0714 19.8793 36.9599 19.8323 36.8482C19.7892 36.7371 19.7462 36.6255 19.7029 36.5137C19.6159 36.29 19.5284 36.0653 19.4406 35.8394C19.3562 35.614 19.2802 35.3882 19.1982 35.1609C19.0277 34.7058 18.8941 34.2498 18.7427 33.7881C18.7032 33.6726 18.672 33.5575 18.6399 33.4421C18.6073 33.3266 18.5747 33.211 18.5419 33.095C18.5089 32.9789 18.4758 32.8627 18.4426 32.7462C18.4264 32.6879 18.4081 32.6295 18.3935 32.5712L18.3514 32.3965C18.2941 32.1631 18.2367 31.9288 18.179 31.6935C18.1649 31.6346 18.1486 31.5757 18.1361 31.5167L18.1005 31.3401C18.0765 31.2222 18.0524 31.1042 18.0284 30.9858C18.0038 30.8673 17.9793 30.7487 17.9546 30.6298C17.9428 30.5703 17.9281 30.5106 17.9186 30.4512L17.8901 30.2728C17.8509 30.0344 17.8115 29.7951 17.772 29.5548C17.749 29.4345 17.7368 29.3145 17.7226 29.1941C17.7081 29.0736 17.6936 28.953 17.6789 28.832C17.6506 28.5938 17.6122 28.3315 17.6019 28.1393C17.5847 27.9312 17.5651 27.7218 17.543 27.5113L17.5347 27.4322C17.5328 27.3994 17.5324 27.3551 17.5312 27.317L17.5283 27.2033C17.4266 26.7726 17.42 26.3134 17.4318 25.879C17.4471 25.3194 17.4922 24.7411 17.6776 24.2128C17.8634 23.6834 18.3633 22.8544 19.0197 23.3079C19.0517 23.3299 19.0215 23.3721 18.9888 23.3561C18.2297 22.9847 17.9636 23.945 17.8749 25.0293C18.0992 25.0767 18.3506 25.1498 18.6264 25.254C19.3111 25.5105 20.1324 25.9622 20.9943 26.5677C21.8588 27.1727 22.7638 27.9235 23.6877 28.7743C23.8037 28.8821 23.9198 28.9901 24.0359 29.0981C24.1528 29.209 24.2697 29.3201 24.3867 29.4312C24.5045 29.5453 24.6215 29.656 24.7404 29.7733C24.8582 29.8891 24.976 30.0048 25.0941 30.1206C25.583 30.602 26.06 31.0974 26.5441 31.5908C26.6651 31.7155 26.7854 31.8353 26.9072 31.9642C27.0288 32.092 27.1506 32.2199 27.2724 32.3479C27.5161 32.6039 27.7602 32.8603 28.0045 33.1168C28.5002 33.6455 28.9969 34.1751 29.4947 34.7058C30.0026 35.2483 30.5004 35.7843 31.0254 36.3392C31.2851 36.6147 31.545 36.8905 31.8051 37.1664C32.0725 37.4447 32.3402 37.7232 32.608 38.0018L33.0103 38.42L33.1109 38.5245L33.1613 38.5768L33.2151 38.6313L33.4309 38.8494C33.7188 39.1395 34.0069 39.4299 34.2951 39.7204C34.5925 40.025 34.8493 40.2641 35.12 40.5252C35.4049 40.7995 35.6903 41.074 35.9756 41.3486C36.2425 41.5996 36.5097 41.8506 36.777 42.1018C37.0536 42.3625 37.3407 42.6328 37.6382 42.9079C37.9351 43.1826 38.2409 43.4623 38.5604 43.7452C38.8791 44.0279 39.2069 44.3128 39.5519 44.5988C39.8962 44.8845 40.2508 45.1707 40.627 45.4551C41.0027 45.7394 41.3902 46.022 41.8054 46.2992C42.6295 46.853 43.5428 47.3891 44.5745 47.8547C45.093 48.0861 45.64 48.2987 46.2169 48.4811L46.6569 48.6107C46.8036 48.6528 46.9577 48.6888 47.108 48.7264L47.2216 48.7539C47.2595 48.763 47.2942 48.7716 47.3452 48.7822L47.6284 48.8405L47.9121 48.8946C47.9607 48.9035 48.0122 48.9128 48.0253 48.9137L48.094 48.9232L48.2313 48.9421L48.5157 48.9827C48.6749 49.0013 48.8349 49.0191 48.9892 49.031C49.3013 49.0578 49.6034 49.07 49.9039 49.0744C50.5033 49.0803 51.0903 49.0502 51.6836 48.9776C52.2769 48.9046 52.8757 48.7926 53.4907 48.6253C54.1068 48.455 54.7406 48.2293 55.3913 47.9135C56.0422 47.5943 56.7157 47.1778 57.3647 46.6198C58.0124 46.0564 58.6336 45.3434 59.1058 44.5039Z" fill="black"/>
<path d="M24.9863 20.9948C25.1086 21.133 25.2562 21.1955 25.4189 21.2782C25.6263 21.3836 25.7629 21.6095 25.9136 21.779C26.0381 21.919 26.1922 22.0367 26.3431 22.1466C26.375 22.1698 26.7813 22.4346 26.7827 22.4071C26.7767 22.5294 26.9098 22.6312 27.0188 22.5472C27.4559 22.2105 26.6456 21.9127 26.4371 21.7734C26.2237 21.6308 26.0539 21.4476 25.868 21.2731C25.6296 21.0492 25.3299 21.0691 25.0809 20.8792C25.0102 20.8252 24.9316 20.933 24.9863 20.9948Z" fill="white"/>
<path d="M29.2365 24.8012C29.4002 24.8656 29.5008 25.0357 29.6097 25.1628C29.7202 25.2918 29.8554 25.4007 29.9802 25.5153C30.0996 25.625 30.1869 25.7626 30.3113 25.8672C30.3912 25.9344 30.4507 25.9372 30.5207 26.0049C30.5706 26.0532 30.6538 26.049 30.713 26.0276C30.7671 26.008 30.7883 25.9728 30.8137 25.9241C30.8448 25.8644 30.8248 25.7834 30.786 25.7329C30.7317 25.6624 30.6743 25.5884 30.581 25.5745C30.418 25.5501 30.2362 25.2907 30.1088 25.192C29.8685 25.0061 29.6145 24.6603 29.3058 24.6121C29.1984 24.5953 29.123 24.7566 29.2365 24.8012Z" fill="white"/>
<path d="M32.5757 27.9271C32.6237 28.1029 32.7101 28.2784 32.8569 28.3944C33.1071 28.5922 33.291 28.8589 33.5139 29.0864C33.613 29.1876 33.7442 29.2672 33.8329 29.3756C33.9746 29.5487 34.0926 29.7586 34.3071 29.8414C34.4189 29.8846 34.5315 29.7641 34.5046 29.6555C34.422 29.3228 34.0492 29.0897 33.7963 28.8845C33.6414 28.7588 33.5031 28.6119 33.3647 28.4688C33.156 28.2528 32.8826 28.1434 32.7535 27.8578C32.7082 27.7576 32.5475 27.8236 32.5757 27.9271Z" fill="white"/>
<path d="M36.0986 31.6611C36.3714 32.028 36.6896 32.3411 37.0227 32.6525C37.3142 32.9249 37.5266 33.356 37.9352 33.4195C38.0164 33.4321 38.1203 33.3785 38.1091 33.2814C38.0949 33.1583 38.0646 33.1062 37.9541 33.0459C37.7481 32.9336 37.6223 32.7405 37.4377 32.5914C37.0226 32.2564 36.599 31.9292 36.2075 31.5663C36.1395 31.5033 36.0422 31.5851 36.0986 31.6611Z" fill="white"/>
<path d="M39.7095 34.9489C39.6766 35.3572 40.0327 35.6623 40.3242 35.8931C40.6946 36.1862 41.0321 36.671 41.4977 36.8148C41.6058 36.8482 41.7262 36.7101 41.6538 36.6112C41.5379 36.4529 41.3776 36.3593 41.2214 36.243C41.0437 36.1105 40.8907 35.8844 40.7048 35.7758C40.385 35.5891 39.9192 35.3319 39.8562 34.9355C39.8427 34.8495 39.7161 34.8683 39.7095 34.9489Z" fill="white"/>
<path d="M43.4527 38.6736C43.4553 39.0175 43.817 39.2463 44.0847 39.3964C44.4458 39.5989 44.7016 40.0421 45.1654 40.0075C45.293 39.9981 45.3347 39.832 45.2057 39.7826C44.8709 39.6544 44.6249 39.471 44.3404 39.2592C44.115 39.0915 43.6468 39.0048 43.5896 38.6704C43.5769 38.5958 43.452 38.5935 43.4527 38.6736Z" fill="white"/>
<path d="M47.5473 41.9881C47.5531 42.2394 47.8405 42.4041 48.0263 42.5233C48.3578 42.7357 48.7243 42.8799 49.079 43.0468C49.1158 43.0641 49.1651 43.0682 49.1997 43.0426C49.2422 43.011 49.2607 42.9751 49.289 42.9296C49.3474 42.8359 49.2319 42.7588 49.1501 42.796C49.1108 42.8137 49.0766 42.8262 49.0459 42.857C49.0946 42.8487 49.1431 42.8403 49.1917 42.832C48.873 42.7105 48.5524 42.5943 48.2461 42.4431C48.0765 42.3594 47.6851 42.19 47.6489 41.9818C47.6391 41.9255 47.5459 41.9291 47.5473 41.9881Z" fill="white"/>
<path d="M51.4498 43.643C51.8869 43.6407 52.4391 43.657 52.8005 43.3715C52.8977 43.2948 52.8114 43.1505 52.6976 43.1861C52.5064 43.2458 52.3299 43.3339 52.1337 43.3822C51.9042 43.4386 51.6657 43.4623 51.4316 43.4924C51.345 43.5034 51.3652 43.6433 51.4498 43.643Z" fill="white"/>
<path d="M54.0956 42.8755C54.5672 42.8243 54.7185 41.9807 54.8726 41.6392C54.918 41.5386 54.7774 41.4759 54.7216 41.5658C54.6103 41.7453 54.5442 41.9474 54.4705 42.1441C54.3996 42.3334 54.2989 42.6937 54.0826 42.7661C54.0271 42.7847 54.0292 42.8827 54.0956 42.8755Z" fill="white"/>
<path d="M55.1672 40.4655C55.1395 40.3281 55.2594 40.1703 55.2666 40.0322C55.2745 39.8815 55.2966 39.7103 55.2744 39.5629C55.217 39.1808 55.1157 38.8095 55.0736 38.424C55.0604 38.3037 54.8792 38.2971 54.8618 38.418C54.822 38.6929 54.8862 38.9517 54.9513 39.2186C55.0034 39.4323 55.0342 39.6289 55.0498 39.8493C55.0653 40.0685 54.9537 40.3126 55.0608 40.5123C55.0943 40.5747 55.1797 40.5272 55.1672 40.4655Z" fill="white"/>
<path d="M54.4775 36.5879C54.3684 36.4102 54.399 36.1171 54.3455 35.9128C54.2936 35.7153 54.2095 35.5243 54.1301 35.3368C53.9583 34.9312 53.9379 34.4065 53.6339 34.0657C53.5538 33.9759 53.4267 34.0407 53.4504 34.1579C53.5235 34.5181 53.7346 34.8699 53.8489 35.2229C53.9011 35.3838 53.9733 35.5298 54.0471 35.6822C54.1925 35.9823 54.1764 36.3807 54.3913 36.6457C54.4284 36.6915 54.5089 36.6391 54.4775 36.5879Z" fill="white"/>
<path d="M52.0113 31.3759C51.7976 31.0722 51.6101 30.7439 51.4076 30.4325C51.1737 30.0731 50.9089 29.7713 50.7686 29.3576C50.7398 29.2724 50.5967 29.2937 50.6095 29.3873C50.6686 29.8173 50.9459 30.1243 51.2081 30.4523C51.4617 30.7697 51.6746 31.1213 51.9545 31.4178C51.9817 31.4465 52.035 31.4095 52.0113 31.3759Z" fill="white"/>
<path d="M49.1844 27.33C48.8459 26.7914 48.4187 26.3209 48.0905 25.7709C48.0522 25.7068 47.9297 25.7325 47.9563 25.8147C48.1477 26.4067 48.6509 26.9919 49.1217 27.3844C49.1584 27.415 49.2098 27.3706 49.1844 27.33Z" fill="white"/>
<path d="M46.4818 23.7997C46.3389 23.5774 46.1527 23.3755 45.9824 23.1741C45.745 22.8933 45.4263 22.6614 45.2295 22.3495C45.1795 22.2701 45.0486 22.3348 45.0828 22.4227C45.1795 22.6706 45.368 22.8491 45.5542 23.032C45.835 23.3079 46.0769 23.6334 46.3768 23.8888C46.4297 23.9338 46.5203 23.8596 46.4818 23.7997Z" fill="white"/>
<path d="M43.632 20.3077C43.3931 20.2258 43.2131 19.7482 43.0985 19.5433C42.912 19.21 42.734 18.8699 42.497 18.5691C42.4408 18.4977 42.3471 18.5813 42.3767 18.6541C42.5357 19.0464 42.7729 19.4033 42.9913 19.7644C43.137 20.0054 43.2901 20.3869 43.6051 20.424C43.6814 20.433 43.7056 20.3329 43.632 20.3077Z" fill="white"/>
<path d="M41.1162 16.7703C40.8576 16.4238 40.6589 16.0549 40.4272 15.6928C40.1778 15.3032 39.9231 14.9241 39.7593 14.4886C39.7253 14.3981 39.5712 14.4343 39.5925 14.5314C39.692 14.985 39.9397 15.3537 40.2013 15.73C40.4736 16.1218 40.709 16.4902 41.0527 16.827C41.0877 16.8613 41.1451 16.8091 41.1162 16.7703Z" fill="white"/>
<path d="M38.4149 12.3437C38.1653 12.2687 38.0892 11.7692 37.9958 11.5545C37.8363 11.1878 37.8265 10.7632 37.6936 10.3835C37.6619 10.2926 37.5116 10.3274 37.5282 10.4236C37.6103 10.8964 37.7193 11.3439 37.9103 11.7795C38.0055 11.9966 38.1179 12.3792 38.3902 12.4295C38.4393 12.4385 38.4641 12.3584 38.4149 12.3437Z" fill="white"/>
<path d="M37.1301 8.83465C37.1092 8.51036 36.9317 8.10903 37.1337 7.81468C37.183 7.74284 37.0987 7.62982 37.0171 7.67946C36.6211 7.92038 36.9036 8.51963 36.9954 8.85423C37.0184 8.93814 37.1359 8.92381 37.1301 8.83465Z" fill="white"/>
<path d="M37.9342 7.07068C38.2491 6.99454 38.5768 7.28088 38.8024 7.4643C38.8832 7.52989 38.9804 7.42057 38.9253 7.34061C38.7362 7.06642 38.2259 6.79576 37.8972 6.94067C37.8286 6.97081 37.8572 7.08927 37.9342 7.07068Z" fill="white"/>
<path d="M40.0593 7.9122C40.199 8.06485 40.3798 8.16973 40.5448 8.29172C40.8705 8.53258 41.1908 8.79979 41.4935 9.07036C41.5841 9.15139 41.7067 9.04104 41.6325 8.94329C41.4258 8.67114 41.1593 8.47859 40.8788 8.2886C40.6495 8.13325 40.3478 8.01139 40.1398 7.83582C40.0862 7.79061 40.0099 7.85815 40.0593 7.9122Z" fill="white"/>
<path d="M42.6604 10.0975C42.931 10.4752 43.2929 10.8002 43.6936 11.0356C43.7792 11.0859 43.8933 10.9777 43.8152 10.8994C43.4879 10.571 43.1032 10.3 42.7555 9.99327C42.6908 9.93623 42.6164 10.0361 42.6604 10.0975Z" fill="white"/>
<path d="M44.5772 11.8525C44.5878 12.0177 44.7082 12.1094 44.8254 12.2171C45.0256 12.401 45.171 12.6301 45.3862 12.8026C45.439 12.845 45.5277 12.7775 45.4908 12.7164C45.3849 12.5414 45.2563 12.389 45.122 12.2352C45.0401 12.1415 44.7509 11.9682 44.7201 11.8433C44.7016 11.7679 44.5717 11.7678 44.5772 11.8525Z" fill="white"/>
<path d="M46.151 13.5105C46.1998 13.8877 46.4985 14.1289 46.7619 14.37C46.8197 14.4229 46.9006 14.3366 46.8565 14.2768C46.6657 14.0183 46.3521 13.8116 46.2694 13.4888C46.2524 13.4223 46.142 13.4421 46.151 13.5105Z" fill="white"/>
<path d="M47.7854 15.3336C47.6829 15.6043 48.1152 15.8027 48.2651 15.9483C48.3179 15.9996 48.4091 15.9149 48.3592 15.8605C48.2936 15.7889 48.2096 15.7335 48.1322 15.6756C48.0457 15.6108 47.8471 15.4812 47.8735 15.358C47.8846 15.3069 47.8037 15.2855 47.7854 15.3336Z" fill="white"/>
<path d="M49.2806 17.2107C49.4325 17.4039 49.5762 17.6069 49.7537 17.7778C49.803 17.8253 49.8869 17.7569 49.8459 17.7005C49.7003 17.5002 49.5155 17.3317 49.3441 17.1541C49.3102 17.1189 49.2507 17.1726 49.2806 17.2107Z" fill="white"/>
<path d="M50.7152 18.8549C50.8742 19.0782 51.0366 19.3217 51.2501 19.4968C51.3013 19.5388 51.3908 19.4736 51.3543 19.4132C51.2102 19.1748 50.9843 18.9765 50.7814 18.7891C50.7406 18.7513 50.6853 18.8129 50.7152 18.8549Z" fill="white"/>
<path d="M51.9147 20.0583C51.8963 20.2122 51.9746 20.3587 52.0996 20.4463C52.1484 20.4806 52.2026 20.4172 52.1777 20.37C52.1196 20.2595 52.005 20.1961 51.9977 20.0632C51.995 20.0164 51.9204 20.0105 51.9147 20.0583Z" fill="white"/>
<path d="M52.7556 21.0512C52.8905 21.2308 53.0002 21.4079 53.1708 21.5563C53.2348 21.612 53.305 21.5189 53.2657 21.4576C53.1453 21.2699 52.9798 21.1396 52.8218 20.9853C52.7825 20.947 52.7245 21.0097 52.7556 21.0512Z" fill="white"/>
<path d="M54.1279 22.4625C54.1127 22.7767 54.4393 23.0975 54.6797 23.2574C54.7289 23.2901 54.783 23.2289 54.7578 23.181C54.6238 22.9269 54.2484 22.7683 54.2255 22.4592C54.2214 22.4032 54.1306 22.4073 54.1279 22.4625Z" fill="white"/>
<path d="M55.3977 23.9262C55.5627 24.1395 55.7099 24.4078 55.9304 24.5697C55.9806 24.6065 56.0673 24.5543 56.0335 24.4914C55.902 24.2462 55.6527 24.0651 55.4611 23.8696C55.4268 23.8346 55.368 23.8879 55.3977 23.9262Z" fill="white"/>
<path d="M56.8187 25.5522C56.857 25.8809 57.1175 26.0201 57.3536 26.2095C57.4148 26.2586 57.5307 26.1959 57.475 26.1188C57.3141 25.8964 57.006 25.8095 56.9212 25.5308C56.9015 25.466 56.8108 25.4848 56.8187 25.5522Z" fill="white"/>
<path d="M58.0836 26.9688C58.0751 27.0886 58.1126 27.1737 58.2043 27.252C58.3723 27.3956 58.491 27.5926 58.67 27.7247C58.7313 27.7698 58.8469 27.7114 58.8036 27.6297C58.7322 27.4951 58.626 27.3874 58.523 27.2762C58.492 27.2426 58.4552 27.2012 58.4176 27.1748C58.3001 27.0924 58.181 27.1251 58.1686 26.9726C58.1648 26.9253 58.0871 26.9192 58.0836 26.9688Z" fill="white"/>
<path d="M59.2872 28.3666C59.451 28.5823 59.5864 28.8972 59.8368 29.0242C59.8994 29.056 59.9436 28.9775 59.9254 28.9266C59.8333 28.6695 59.5362 28.4961 59.3507 28.3099C59.3161 28.2753 59.2579 28.3281 59.2872 28.3666Z" fill="white"/>
<path d="M60.6626 29.7807C60.6445 30.0681 60.9128 30.366 61.1368 30.5179C61.1923 30.5556 61.276 30.4966 61.2415 30.4317C61.1146 30.1931 60.7732 30.0782 60.7498 29.7835C60.7459 29.7347 60.6657 29.7301 60.6626 29.7807Z" fill="white"/>
<path d="M62.0471 31.3816C62.2147 31.6055 62.3749 31.8366 62.5795 32.0289C62.6392 32.085 62.7189 31.9905 62.6744 31.9302C62.5102 31.7069 62.3062 31.5212 62.1098 31.3272C62.0759 31.2937 62.0187 31.3435 62.0471 31.3816Z" fill="white"/>
<path d="M63.9053 33.3847C64.0443 33.5859 64.1812 33.7961 64.3686 33.9559C64.4372 34.0144 64.5429 33.9326 64.4914 33.8535C64.3558 33.646 64.1668 33.481 63.9841 33.3158C63.9336 33.2702 63.8667 33.3288 63.9053 33.3847Z" fill="white"/>
<path d="M21.9889 18.6508C21.6746 18.3213 21.0023 17.8342 20.5222 18.0287C20.4541 18.0562 20.4499 18.165 20.5226 18.1909C20.7395 18.2681 20.96 18.3172 21.1711 18.4128C21.4183 18.5248 21.6374 18.6848 21.8739 18.816C21.9797 18.8747 22.0657 18.7314 21.9889 18.6508Z" fill="white"/>
<path d="M18.3629 17.5461C18.0674 17.4927 17.7836 17.3856 17.4904 17.3208C17.2459 17.2668 16.9251 17.2245 16.7469 17.4371C16.6763 17.5211 16.7769 17.6175 16.8617 17.6115C16.9876 17.6026 17.1074 17.5591 17.2349 17.5551C17.3431 17.5517 17.4525 17.5685 17.5591 17.5844C17.826 17.624 18.0837 17.6881 18.3549 17.6926C18.4519 17.6942 18.454 17.5625 18.3629 17.5461Z" fill="white"/>
<path d="M15.1562 17.8079C14.621 17.9399 13.9284 17.8628 13.7257 18.5067C13.6751 18.6675 13.9084 18.7347 13.9885 18.6057C14.2734 18.147 14.7355 18.1189 15.2005 17.9423C15.276 17.9137 15.2342 17.7888 15.1562 17.8079Z" fill="white"/>
<path d="M12.5412 20.1756C12.4637 20.3027 12.3676 20.415 12.281 20.5359C12.1703 20.6903 12.1094 20.9007 12.0384 21.0755C11.9676 21.25 11.9051 21.4266 11.8495 21.6065C11.7925 21.791 11.6788 21.9381 11.6688 22.1321C11.6622 22.2618 11.8044 22.3164 11.9062 22.2717C12.1299 22.1737 12.1495 21.9237 12.1933 21.7062C12.3007 21.1734 12.5451 20.7484 12.7275 20.2472C12.7685 20.1348 12.5974 20.0832 12.5412 20.1756Z" fill="white"/>
<path d="M11.3078 24.0101C11.114 24.2686 11.0769 24.5753 11.0552 24.8904C11.0201 25.3988 10.9053 25.8707 10.9438 26.3855C11.0682 26.323 11.1927 26.2606 11.3171 26.1982C11.2931 26.1742 11.2683 26.1512 11.2426 26.1289C11.0616 25.9632 10.8111 26.2265 10.9436 26.4163C10.9593 26.4408 10.9763 26.4643 10.9947 26.4868C11.1426 26.6747 11.3849 26.4926 11.3681 26.2995C11.3369 25.9403 11.3416 25.6015 11.395 25.2448C11.4536 24.8533 11.3444 24.4843 11.5153 24.1067C11.5726 23.9803 11.381 23.9126 11.3078 24.0101Z" fill="white"/>
<path d="M10.885 28.1904C10.918 28.6172 10.8466 29.0491 10.8082 29.4732C10.7612 29.9913 10.9371 30.4964 10.8997 31.0051C10.8753 31.338 11.4057 31.3647 11.4165 31.0306C11.4333 30.5088 11.2417 29.9968 11.2545 29.467C11.2657 29.0022 11.276 28.5681 11.0946 28.131C11.0449 28.0112 10.8758 28.0708 10.885 28.1904Z" fill="white"/>
<path d="M11.4882 32.7965C11.3007 33.0709 11.3129 33.3938 11.3479 33.7123C11.3938 34.1287 11.4752 34.5407 11.546 34.9534C11.6217 35.3947 11.7169 35.8315 11.8549 36.2579C12.0039 36.7188 12.071 37.2217 12.3872 37.6046C12.5223 37.7682 12.7776 37.5783 12.7203 37.397C12.4783 36.6313 12.167 35.8941 11.9771 35.1112C11.8868 34.739 11.798 34.3642 11.721 33.9891C11.6537 33.6608 11.5068 33.2267 11.6603 32.9098C11.7102 32.8068 11.5561 32.6971 11.4882 32.7965Z" fill="white"/>
<path d="M58.4906 32.3029C58.8579 32.3513 59.1406 32.515 59.253 32.889C59.3427 33.1872 59.1961 33.423 59.0985 33.6896C59.0722 33.7614 59.1625 33.8126 59.217 33.7678C59.5134 33.5248 59.5285 33.0839 59.4205 32.7433C59.3643 32.566 59.2043 32.4198 59.0643 32.3062C58.8929 32.1674 58.7068 32.1825 58.4987 32.1806C58.4291 32.18 58.4215 32.2938 58.4906 32.3029Z" fill="black"/>
<path d="M59.3571 33.3118C59.3476 33.3075 59.3382 33.3032 59.3287 33.2989C59.3293 33.3268 59.3298 33.3546 59.3304 33.3825C59.4763 33.1955 59.9213 33.8405 59.9509 33.978C59.9638 34.0375 60.0543 34.0297 60.0661 33.9741C60.1307 33.6723 59.4244 32.8658 59.2362 33.3126C59.2243 33.3407 59.2279 33.3781 59.2592 33.393C59.3097 33.417 59.3916 33.4337 59.4225 33.3662C59.4481 33.3101 59.3578 33.2969 59.3571 33.3118Z" fill="black"/>
<path d="M60.4325 34.4632C60.4933 34.5878 60.52 34.72 60.516 34.8582C60.5119 35.0041 60.4299 35.121 60.393 35.2571C60.3814 35.2997 60.4286 35.3481 60.4708 35.3212C60.7683 35.1314 60.7009 34.6473 60.5679 34.3796C60.522 34.2874 60.3878 34.3717 60.4325 34.4632Z" fill="black"/>
<path d="M60.5418 35.3841C60.7091 35.503 60.8159 35.6411 60.8974 35.8292C60.9318 35.9086 60.9678 35.9587 60.977 36.0493C60.9851 36.13 60.9918 36.1944 61.0425 36.2592C61.0809 36.3082 61.1463 36.2841 61.1608 36.2301C61.2661 35.8387 60.923 35.4455 60.6089 35.267C60.541 35.2284 60.4798 35.3401 60.5418 35.3841Z" fill="black"/>
<path d="M61.2133 35.4869C61.3344 35.19 61.6957 35.4866 61.8364 35.615C62.0304 35.7921 62.1598 36.0015 62.1964 36.2614C62.2064 36.3324 62.3021 36.3693 62.3487 36.3068C62.7509 35.7664 61.3 34.6962 61.0768 35.4387C61.0499 35.5283 61.1782 35.573 61.2133 35.4869Z" fill="black"/>
<path d="M62.1813 36.8461C62.2517 36.8644 62.3043 36.8788 62.3775 36.8619C62.6183 36.8058 62.7856 36.9171 62.9536 37.0735C63.1489 37.2555 63.4334 37.5235 63.3246 37.8207C63.2865 37.9251 63.433 37.9859 63.4935 37.9017C63.6961 37.6197 63.4634 37.283 63.2574 37.0755C63.1363 36.9536 62.9781 36.8169 62.8209 36.7442C62.7291 36.7018 62.6485 36.6752 62.5495 36.6608C62.4334 36.6438 62.3484 36.7214 62.2212 36.6942C62.1224 36.6731 62.0827 36.8206 62.1813 36.8461Z" fill="black"/>
<path d="M57.0156 30.5468C57.1365 30.4433 57.2268 30.301 57.3891 30.4316C57.4888 30.5117 57.5045 30.7223 57.4796 30.8385C57.4628 30.9173 57.5787 30.9388 57.6103 30.873C57.6981 30.6896 57.6079 30.4264 57.4385 30.3192C57.2323 30.1886 57.1126 30.3751 56.9803 30.5024C56.9545 30.5272 56.9875 30.5708 57.0156 30.5468Z" fill="black"/>
<path d="M57.9327 30.6481C58.1444 30.6854 58.1912 30.9487 58.179 31.121C58.1755 31.1717 58.2337 31.2247 58.2811 31.1844C58.5212 30.9798 58.186 30.5479 57.9423 30.528C57.8736 30.5223 57.8661 30.6363 57.9327 30.6481Z" fill="black"/>
<path d="M58.4104 31.1063C58.7659 31.2585 58.7709 31.6913 58.7746 32.026C58.7756 32.1242 58.9152 32.1265 58.9253 32.0306C58.967 31.6384 58.8884 31.1415 58.4658 30.9936C58.3913 30.9675 58.3343 31.0738 58.4104 31.1063Z" fill="black"/>
<path d="M34.2398 21.1025C34.3334 21.1665 34.4211 21.2356 34.5043 21.3127C34.5749 21.3781 34.6428 21.6613 34.6014 21.638C34.6051 21.668 34.609 21.698 34.6128 21.728C34.9251 21.4329 35.2692 22.0838 35.037 22.183C34.9743 22.2098 34.9892 22.287 35.0481 22.3059C35.3742 22.4104 35.2723 21.9616 35.2004 21.8125C35.1337 21.6743 34.9927 21.5875 34.8542 21.5341C34.7113 21.479 34.6359 21.5621 34.5322 21.6466C34.508 21.6662 34.5116 21.7068 34.5319 21.7274C34.6405 21.8377 34.7682 21.7674 34.7986 21.6208C34.8603 21.3227 34.5271 21.1071 34.3074 20.9881C34.2404 20.9518 34.1774 21.0598 34.2398 21.1025Z" fill="black"/>
<path d="M42.2434 52.9096C42.4224 52.782 42.6327 53.0143 42.7187 53.1549C42.7666 53.2335 42.7938 53.3203 42.8004 53.4116C42.8068 53.4988 42.7586 53.5759 42.7554 53.6611C42.7538 53.7016 42.8001 53.7261 42.8349 53.7159C43.326 53.5711 42.6547 52.3835 42.1621 52.8026C42.0965 52.8584 42.1725 52.9599 42.2434 52.9096Z" fill="black"/>
<path d="M36.2419 49.0212C36.4485 48.9446 36.6372 49.0857 36.7658 49.2348C36.971 49.4727 36.9715 49.7196 36.877 50.0024C36.8338 50.1318 37.0512 50.1767 37.0652 50.0339C37.0669 50.0234 37.0686 50.0131 37.0703 50.0027C37.0802 49.9603 37.0492 49.9302 37.0077 49.9341C36.9959 49.9342 36.984 49.9342 36.9722 49.9342C36.9985 49.9831 37.0247 50.0319 37.051 50.0808C37.2564 49.7375 37.152 49.3142 36.8576 49.0539C36.6886 48.9044 36.3788 48.7365 36.1989 48.9547C36.1741 48.9847 36.2015 49.0361 36.2419 49.0212Z" fill="black"/>
<path d="M37.2057 49.8287C37.3442 49.9232 37.4466 50.1087 37.5093 50.2592C37.5233 50.2931 37.5318 50.327 37.5342 50.3635C37.5368 50.4027 37.508 50.4306 37.5218 50.4727C37.5438 50.5397 37.7166 50.579 37.7105 50.4876C37.7094 50.4701 37.7435 50.4184 37.746 50.3912C37.7497 50.3526 37.7405 50.3162 37.7288 50.2797C37.7016 50.1951 37.6431 50.1236 37.5862 50.0573C37.4926 49.9484 37.3664 49.827 37.2246 49.7863C37.2016 49.7796 37.1864 49.8156 37.2057 49.8287Z" fill="black"/>
<path d="M37.9261 49.4508C38.3896 49.3865 38.9131 49.4781 39.2837 49.7875C39.5367 49.9986 39.7739 50.3184 39.5875 50.6447C39.5259 50.7527 39.6854 50.8398 39.7628 50.7569C40.1074 50.3877 39.8087 49.9375 39.4979 49.6597C39.0729 49.2798 38.4381 49.1989 37.9017 49.3125C37.8134 49.3311 37.8363 49.4633 37.9261 49.4508Z" fill="black"/>
<path d="M38.0323 46.6669C37.3306 47.1678 38.5191 48.0305 39.0264 47.9897C39.6079 47.9429 39.4234 47.3795 39.2047 47.034C38.9605 46.6483 38.1225 46.2222 37.78 46.7089C37.7168 46.7987 37.8337 46.8955 37.9105 46.8177C38.2614 46.4624 38.8367 46.851 39.0655 47.1497C39.1504 47.2607 39.2086 47.4165 39.2424 47.551C39.3268 47.8868 38.8699 47.815 38.6942 47.7604C38.3211 47.6443 37.5756 47.0953 38.0525 46.6933C38.067 46.6811 38.0475 46.656 38.0323 46.6669Z" fill="black"/>
<path d="M38.1962 46.6689C38.2174 46.6576 38.2384 46.6459 38.2598 46.635C38.2401 46.6311 38.2204 46.6272 38.2007 46.6234C38.2345 46.6693 38.2723 46.6934 38.3206 46.7232C38.3879 46.7648 38.386 46.8727 38.3778 46.9404C38.3584 47.1011 38.24 47.2452 38.1005 47.3191C38.1357 47.3277 38.1709 47.3365 38.2062 47.3451C38.1425 47.2524 38.0539 46.749 38.2751 46.819C38.2491 46.7735 38.2233 46.7281 38.1974 46.6825C38.1719 46.8193 38.0032 46.9124 37.9289 47.0259C37.8644 47.1245 37.9364 47.2623 38.0541 47.2665C38.1529 47.27 38.2371 47.2479 38.3155 47.1876C38.2421 47.111 38.1687 47.0345 38.0953 46.958C38.0528 46.995 38.0168 47.03 37.9792 47.073C37.857 47.2131 38.0706 47.3664 38.2023 47.2791C38.2432 47.2521 38.2789 47.2199 38.3155 47.1876C38.4714 47.0498 38.2529 46.8347 38.0953 46.958C38.128 46.9324 38.0918 46.9526 38.0667 46.9544C38.1143 47.022 38.162 47.0896 38.2096 47.1572C38.2354 47.0961 38.2931 47.0472 38.3338 46.9959C38.3998 46.9128 38.4433 46.8262 38.4515 46.7188C38.4573 46.6438 38.4135 46.5911 38.3422 46.5737C37.834 46.4489 37.8155 47.1982 38.0672 47.4565C38.0931 47.4832 38.1363 47.5034 38.1728 47.4825C38.356 47.3774 38.4862 47.2147 38.5338 47.0067C38.556 46.9098 38.544 46.8061 38.5091 46.714C38.4653 46.5984 38.3487 46.6109 38.2544 46.5614C38.2392 46.5534 38.2142 46.5566 38.204 46.5716C38.1911 46.5905 38.1772 46.6088 38.1638 46.6273C38.1489 46.6479 38.1712 46.6822 38.1962 46.6689Z" fill="black"/>
<path d="M38.238 47.058C38.39 47.1255 38.5525 47.1534 38.7081 47.2099C38.9489 47.2973 39.1022 47.4852 39.2692 47.6687C39.3164 47.7206 39.4072 47.6424 39.362 47.5889C39.2223 47.423 39.0742 47.2679 38.8855 47.1584C38.6978 47.0494 38.4695 47.0503 38.2657 46.9954C38.2294 46.9856 38.2012 47.0417 38.238 47.058Z" fill="black"/>
<path d="M38.7236 47.3278C38.7373 47.348 38.688 47.3587 38.6783 47.3615C38.6273 47.3763 38.6076 47.4408 38.6358 47.4839C38.6678 47.5325 38.752 47.5344 38.7767 47.4769C38.8049 47.4115 38.8598 47.3392 38.7976 47.273C38.7574 47.2304 38.6894 47.2775 38.7236 47.3278Z" fill="black"/>
<path d="M38.9406 47.5977C38.9924 47.6568 39.074 47.5668 39.0229 47.5084C38.971 47.4493 38.8895 47.5393 38.9406 47.5977Z" fill="black"/>
<path d="M38.8768 47.027C38.9351 46.9757 38.952 46.8715 38.8806 46.8217C38.8225 46.7812 38.7579 46.8415 38.7677 46.9022C38.7697 46.9147 38.7764 46.9249 38.7818 46.9359C38.779 46.9303 38.7745 46.9255 38.7818 46.9179C38.7548 46.9464 38.7471 46.9879 38.7749 47.0199C38.8007 47.0495 38.8473 47.053 38.8768 47.027Z" fill="black"/>
<path d="M37.7734 46.538C37.5257 46.4817 37.6154 46.1567 37.3725 46.1144C37.2636 46.0955 37.1556 46.2634 37.1293 46.3439C36.9546 46.8779 37.0688 47.3808 37.3324 47.8672C37.5996 48.3603 38.1537 48.7455 38.6974 48.8521C38.9607 48.9037 39.275 48.8491 39.5316 48.7866C39.854 48.7081 40.0528 48.4309 40.2811 48.2154C40.3114 48.1869 40.3111 48.1345 40.2811 48.1057C40.2623 48.087 40.2428 48.069 40.2228 48.0515C40.1591 47.9937 40.0837 48.0945 40.1277 48.1558C40.1516 48.189 40.0715 48.1992 40.0148 48.2567C39.9204 48.3522 39.8356 48.4391 39.7258 48.52C39.497 48.6888 39.1658 48.6917 38.8935 48.6946C38.3703 48.7002 37.7872 48.308 37.5047 47.8733C37.2589 47.4952 37.0911 47.0324 37.1782 46.5806C37.1969 46.4843 37.2754 46.2928 37.3168 46.248C37.3912 46.1677 37.523 46.4526 37.5554 46.5087C37.5989 46.5837 37.6868 46.5908 37.7617 46.5992C37.7967 46.6031 37.8085 46.5459 37.7734 46.538Z" fill="black"/>
<path d="M39.4201 47.793C39.5556 47.9713 39.7833 48.1131 40.0145 48.0441C40.0574 48.0314 40.0488 47.9614 40.0048 47.9576C39.9301 47.9509 39.8579 47.9552 39.7838 47.9391C39.6648 47.9131 39.5439 47.8281 39.4597 47.7505C39.4344 47.7272 39.401 47.7677 39.4201 47.793Z" fill="black"/>
<path d="M37.4795 48.3984C37.6765 48.2775 37.8241 48.4633 37.9184 48.6242C37.9771 48.7243 37.9975 48.9302 38.0958 48.9911C38.1241 49.0085 38.1709 49.0031 38.192 48.9763C38.3159 48.8187 38.0551 48.4986 37.952 48.3844C37.8137 48.2314 37.5859 48.154 37.4262 48.314C37.3888 48.3514 37.4275 48.4303 37.4795 48.3984Z" fill="black"/>
<path d="M37.3596 47.6509C37.2379 47.4588 37.1828 47.2271 36.9713 47.1072C36.7825 47.0001 36.5289 46.9152 36.3254 47.0279C36.2626 47.0626 36.2797 47.1679 36.3602 47.1563C36.5536 47.1286 36.7639 47.1816 36.9277 47.2862C37.0809 47.3841 37.1479 47.5853 37.2707 47.7158C37.3134 47.761 37.394 47.7052 37.3596 47.6509Z" fill="black"/>
<path d="M40.1604 48.0839C40.2482 48.0179 40.3299 47.9454 40.4151 47.8763C40.4682 47.8332 40.7313 47.663 40.6553 47.8337C40.5726 48.0196 40.208 48.0842 40.0292 48.0818C39.9549 48.0807 39.9534 48.2084 40.0273 48.2126C40.2861 48.2274 40.7637 48.0999 40.7999 47.7902C40.819 47.6274 40.6554 47.6157 40.5378 47.6569C40.3623 47.7184 40.2351 47.9033 40.1152 48.0343C40.0859 48.0662 40.1259 48.1099 40.1604 48.0839Z" fill="black"/>
<path d="M37.4311 46.4972C37.4278 46.5622 37.4264 46.6163 37.4528 46.6766C37.5019 46.7888 37.4588 46.8641 37.4614 46.9781C37.4657 47.1713 37.7298 47.4545 37.8729 47.5597C37.9051 47.5833 37.9404 47.5378 37.9238 47.5077C37.826 47.331 37.6742 47.1815 37.5622 47.0118C37.5105 46.9334 37.5843 46.8726 37.549 46.8115C37.4893 46.7084 37.4394 46.6185 37.4393 46.4975C37.4393 46.4926 37.4313 46.4925 37.4311 46.4972Z" fill="black"/>
<path d="M38.3813 47.9007C38.5768 48.1181 38.8245 48.1461 39.0967 48.2108C39.247 48.2465 39.4046 48.2555 39.5579 48.2673C39.6927 48.2776 39.8549 48.1682 39.9938 48.1554C40.0684 48.1485 40.0669 48.0374 39.9906 48.0381C39.9038 48.0387 39.8247 48.0646 39.7423 48.0908C39.6038 48.1348 39.4881 48.1494 39.3427 48.1371C39.1617 48.1219 38.9841 48.0813 38.8042 48.0574C38.6475 48.0366 38.5183 47.9873 38.3961 47.8835C38.3861 47.8748 38.3728 47.8914 38.3813 47.9007Z" fill="black"/>
<path d="M39.5783 48.1476C39.4232 48.4147 39.1723 48.5428 38.9736 48.7643C38.9491 48.7916 38.9785 48.8427 39.0136 48.8202C39.2709 48.6552 39.4975 48.4597 39.6373 48.1838C39.6571 48.1446 39.6008 48.1086 39.5783 48.1476Z" fill="black"/>
<path d="M38.0107 47.8497C37.9165 47.8445 37.8221 47.8367 37.7277 47.8356C37.7114 47.8355 37.7107 47.8588 37.7266 47.8608C37.8211 47.8725 37.9165 47.8776 38.0114 47.8852C38.0342 47.8871 38.0336 47.8509 38.0107 47.8497Z" fill="black"/>
<path d="M37.3032 47.6847C37.3123 47.6951 37.3285 47.6811 37.3194 47.6707C37.3102 47.6603 37.2941 47.6743 37.3032 47.6847Z" fill="black"/>
<path d="M43.4292 49.6934C43.6606 49.5607 43.8539 49.7049 44.0219 49.851C44.2631 50.0605 44.3743 50.3424 44.2496 50.6512C44.2401 50.6747 44.2507 50.7013 44.274 50.7117C44.521 50.8213 44.8647 50.8407 45.0016 51.1111C45.093 51.2916 45.1646 51.6733 44.9432 51.7914C44.8804 51.8249 44.8975 51.9226 44.9705 51.9283C45.2718 51.952 45.2881 51.6067 45.2629 51.3871C45.2211 51.0236 44.9985 50.8065 44.6531 50.7111C44.616 50.7009 44.3403 50.6746 44.3742 50.5992C44.4158 50.5067 44.4229 50.412 44.4269 50.313C44.4343 50.1292 44.3115 49.92 44.1746 49.8049C43.9498 49.6159 43.6622 49.4029 43.3849 49.6245C43.3443 49.6571 43.3829 49.72 43.4292 49.6934Z" fill="black"/>
<path d="M44.87 50.759C45.1153 50.6907 45.314 50.5267 45.5612 50.4656C45.7435 50.4205 45.9436 50.4605 46.1149 50.5255C46.3577 50.6176 46.4188 50.8153 46.5473 51.0074C46.5834 51.0612 46.6783 51.0254 46.6659 50.9605C46.5949 50.5885 46.3642 50.408 46.0072 50.3182C45.5282 50.1978 45.2458 50.5111 44.8358 50.6608C44.7799 50.6812 44.8131 50.7749 44.87 50.759Z" fill="black"/>
<path d="M46.7121 50.9312C47.0278 50.8271 47.3046 50.9852 47.3475 51.3198C47.3618 51.4313 47.5305 51.4111 47.5201 51.2995C47.4799 50.8689 47.0569 50.6699 46.678 50.8329C46.6239 50.8562 46.6554 50.9499 46.7121 50.9312Z" fill="black"/>
<path d="M41.4879 50.2767C41.7725 49.8072 41.3681 49.2916 40.8746 49.2299C40.8018 49.2208 40.765 49.3348 40.8393 49.3579C41.1892 49.4673 41.576 49.8059 41.357 50.1972C41.3088 50.2832 41.4368 50.3611 41.4879 50.2767Z" fill="black"/>
<path d="M35.7279 42.9551C35.7341 42.8748 35.9995 43.0205 36.0316 43.0369C36.1358 43.0898 36.1791 43.2062 36.2245 43.3087C36.3542 43.6013 36.3302 43.8254 36.2069 44.1082C36.1893 44.1486 36.2218 44.2165 36.2747 44.1933C36.6943 44.0091 36.4656 43.3031 36.2847 43.0254C36.1811 42.8668 35.5703 42.585 35.6107 42.9579C35.6188 43.0339 35.722 43.0301 35.7279 42.9551Z" fill="black"/>
<path d="M36.6351 44.0325C37.0052 44.0946 37.2516 44.3902 37.3462 44.7429C37.4233 45.0306 37.2513 45.2682 37.0645 45.4708C36.9978 45.5431 37.0972 45.6464 37.1711 45.5807C37.4638 45.3211 37.5935 45.0102 37.5016 44.6283C37.4062 44.2314 37.0385 43.9448 36.6447 43.9124C36.5761 43.9068 36.5682 44.0214 36.6351 44.0325Z" fill="black"/>
<path d="M36.2223 20.9634C36.2555 20.7424 36.3385 20.6716 36.4713 20.7509C36.5419 20.7813 36.6016 20.8322 36.6602 20.8803C36.7557 20.9587 36.8374 21.0544 36.918 21.1478C37.0148 21.26 37.0879 21.3922 37.1306 21.5341C37.1965 21.7529 37.0067 21.8667 36.8866 22.0075C36.8528 22.0471 36.9039 22.0989 36.9466 22.0817C37.5381 21.8434 37.299 21.2897 36.9612 20.9281C36.8115 20.7679 36.5737 20.5213 36.3288 20.5605C36.0777 20.6008 35.9833 20.8196 36.1505 21.0138C36.187 21.0563 36.2542 21.0116 36.2223 20.9634Z" fill="black"/>
<path d="M37.25 22.3573C37.3227 22.5239 37.4456 22.6579 37.5494 22.8049C37.6168 22.9004 37.6817 23.0259 37.5659 23.1034C37.5148 23.1375 37.463 23.1619 37.4194 23.2069C37.3671 23.2608 37.4215 23.3693 37.4964 23.3257C37.626 23.2501 37.8227 23.182 37.7902 22.9925C37.7418 22.71 37.4458 22.5657 37.3202 22.3264C37.2998 22.2876 37.2322 22.3169 37.25 22.3573Z" fill="black"/>
<path d="M38.9384 25.2757C38.9671 25.3071 39.0766 25.3574 39.0793 25.3929C39.0849 25.4627 38.9931 25.4867 38.9402 25.4929C38.8901 25.4987 38.8238 25.4798 38.776 25.4644C38.7678 25.4618 38.7508 25.4557 38.7452 25.4482C38.7491 25.4533 38.7452 25.461 38.7501 25.4546C38.7949 25.3971 38.8918 25.3704 38.9572 25.347C39.0276 25.3219 39.1086 25.2979 39.1843 25.3022C39.1711 25.2605 39.1579 25.2189 39.1447 25.1772C39.0605 25.2486 38.9354 25.3332 38.8226 25.2968C38.8331 25.3581 38.8436 25.4193 38.854 25.4806C38.8644 25.4743 38.8783 25.4768 38.8908 25.4767C38.9252 25.4764 38.9483 25.4577 38.9754 25.4391C38.9978 25.4238 39.0163 25.3902 39.0104 25.3623C38.9873 25.2527 38.819 25.2548 38.7452 25.3098C38.6743 25.3626 38.6897 25.468 38.7766 25.4936C38.9734 25.5516 39.1048 25.4041 39.2359 25.2859C39.279 25.2471 39.2612 25.1627 39.1963 25.1609C39.0669 25.1575 38.9293 25.2045 38.8157 25.2631C38.7386 25.3029 38.5812 25.3926 38.6406 25.5033C38.6655 25.5495 38.7171 25.5691 38.7643 25.5838C38.8563 25.6125 38.9431 25.6406 39.0389 25.6091C39.1175 25.5833 39.1764 25.5258 39.1953 25.4444C39.2328 25.2828 39.0506 25.3153 38.963 25.2501C38.9449 25.2365 38.9226 25.2583 38.9384 25.2757Z" fill="black"/>
<path d="M39.0307 25.2869C39.1874 25.4544 39.5834 25.2517 39.6369 25.5317C39.6571 25.6377 39.4026 25.5452 39.3556 25.5288C39.2776 25.5016 39.156 25.4599 39.1026 25.4046C39.0255 25.3246 38.8876 25.4254 38.9638 25.5124C38.9892 25.5414 39.0145 25.5537 39.0504 25.568C39.1051 25.5897 39.1552 25.5412 39.1381 25.4858C39.1289 25.456 39.124 25.429 39.1026 25.4046C39.0564 25.4405 39.0101 25.4764 38.9638 25.5124C39.0932 25.6464 39.6443 25.9067 39.7646 25.6566C39.8271 25.5268 39.7114 25.3604 39.5887 25.3187C39.4333 25.266 39.1873 25.3696 39.0603 25.2516C39.038 25.2309 39.0109 25.2658 39.0307 25.2869Z" fill="black"/>
<path d="M39.095 25.4848C39.1584 25.5729 39.3458 25.869 39.1045 25.8601C39.0092 25.8565 38.7881 25.7272 38.8522 25.6099C38.8873 25.5456 38.7948 25.4917 38.7446 25.5303C38.499 25.7185 38.8805 26.0012 39.0625 26.0325C39.1988 26.056 39.3675 25.96 39.3749 25.811C39.3825 25.6562 39.2588 25.5355 39.155 25.4368C39.1239 25.4072 39.0688 25.4483 39.095 25.4848Z" fill="black"/>
<path d="M39.0725 25.3064C39.1641 25.2262 39.1599 25.1036 39.1443 24.9917C39.1376 24.9433 39.1464 24.8793 39.1139 24.8405C39.0807 24.8009 39.0449 24.7702 39 24.7449C38.8954 24.686 38.7724 24.7636 38.7353 24.8647C38.6981 24.9662 38.7251 25.1199 38.7568 25.2205C38.774 25.2752 38.8482 25.2751 38.866 25.2213C38.8847 25.1647 38.7961 24.82 38.9323 24.8625C39.0131 24.8877 39.0035 24.9337 39.0167 25.0038C39.0309 25.0789 39.0645 25.1756 39.0089 25.2407C38.9753 25.28 39.033 25.3411 39.0725 25.3064Z" fill="black"/>
<path d="M38.8604 25.1805C38.7942 25.0796 38.6781 24.9019 38.5379 24.9792C38.5591 24.975 38.5802 24.9706 38.6013 24.9664C38.481 24.9309 38.376 24.9721 38.3355 25.0946C38.2981 25.2077 38.3381 25.3343 38.3723 25.4428C38.4095 25.5607 38.586 25.5201 38.5596 25.3976C38.5474 25.3408 38.5384 25.2842 38.5288 25.227C38.524 25.1983 38.5219 25.1692 38.5229 25.1402C38.5237 25.1189 38.5246 25.1251 38.5464 25.1263C38.5771 25.128 38.6045 25.1374 38.6321 25.1169C38.5999 25.117 38.5964 25.1206 38.6217 25.1278C38.6356 25.1348 38.6482 25.1445 38.6608 25.1536C38.6994 25.1816 38.7363 25.2119 38.7724 25.243C38.8155 25.2799 38.8974 25.2367 38.8604 25.1805Z" fill="black"/>
<path d="M40.8041 29.6227C40.7985 29.6799 40.8084 29.7357 40.8335 29.7876C40.8649 29.8523 40.9211 29.9462 40.9973 29.9602C41.0817 29.9756 41.1168 29.906 41.1129 29.8279C41.1108 29.7883 41.074 29.7539 41.0487 29.7265C41.014 29.6888 41.0002 29.6733 40.999 29.6264C40.9956 29.4993 40.8161 29.4989 40.8041 29.6227Z" fill="black"/>
<path d="M41.2024 30.1182C41.1992 30.1657 41.2095 30.2055 41.2187 30.2514C41.2208 30.2371 41.223 30.2229 41.2251 30.2086C41.2211 30.2145 41.2172 30.2204 41.2131 30.2263C41.1871 30.2648 41.2013 30.3114 41.2277 30.3444C41.2413 30.3613 41.2543 30.377 41.2737 30.3879C41.3547 30.4333 41.4476 30.3576 41.4084 30.2692C41.4022 30.255 41.3854 30.2333 41.3814 30.2278C41.3533 30.1894 41.3201 30.1745 41.2727 30.1817C41.2681 30.1824 41.2635 30.1831 41.2589 30.1838C41.2769 30.189 41.2949 30.1943 41.3129 30.1995C41.2984 30.1821 41.2982 30.1499 41.2983 30.1287C41.2985 30.0679 41.2068 30.055 41.2024 30.1182Z" fill="black"/>
<path d="M41.8465 30.5874C41.8957 30.6436 41.9766 30.5616 41.9279 30.506C41.8786 30.4498 41.7978 30.5317 41.8465 30.5874Z" fill="black"/>
<path d="M42.249 30.945C42.2425 31.0821 42.3155 31.2132 42.4487 31.2603C42.4731 31.2689 42.5021 31.2532 42.514 31.2321C42.5191 31.2227 42.5216 31.2126 42.5214 31.2019C42.5211 31.188 42.5034 31.1706 42.5036 31.1613C42.5052 31.0889 42.4209 31.0431 42.4233 30.9693C42.4248 30.9214 42.3992 30.877 42.348 30.8699C42.3038 30.8638 42.2512 30.897 42.249 30.945Z" fill="black"/>
<path d="M44.2692 32.4815C44.3079 32.4566 44.3454 32.437 44.3883 32.4204C44.47 32.3888 44.5306 32.4224 44.6102 32.4355C44.759 32.46 44.8115 32.6115 44.8832 32.7269C44.9107 32.7711 44.9856 32.7606 44.9858 32.7029C44.9863 32.5181 44.9002 32.3595 44.7288 32.2798C44.5519 32.1974 44.328 32.2281 44.1895 32.362C44.1336 32.4162 44.1971 32.5282 44.2692 32.4815Z" fill="black"/>
<path d="M44.9671 32.8182C45.1644 32.8427 45.432 32.954 45.4546 33.1755C45.4615 33.2425 45.5488 33.2507 45.5783 33.196C45.7407 32.8944 45.1901 32.6987 44.985 32.6853C44.8997 32.6797 44.8804 32.8075 44.9671 32.8182Z" fill="black"/>
<path d="M45.7468 33.3952C45.7825 33.4846 45.8304 33.5687 45.8626 33.6596C45.9023 33.772 45.886 33.8745 45.8464 33.9843C45.8308 34.0276 45.8866 34.0756 45.9235 34.0403C46.1415 33.8311 45.9355 33.5716 45.8338 33.359C45.8076 33.3043 45.7242 33.3383 45.7468 33.3952Z" fill="black"/>
<path d="M45.9701 34.2317C45.926 34.3364 45.8569 34.4109 45.7797 34.4919C45.7469 34.5262 45.7958 34.5826 45.8342 34.5548C45.9438 34.4754 46.0142 34.3912 46.067 34.2657C46.0928 34.2047 45.9957 34.171 45.9701 34.2317Z" fill="black"/>
<path d="M45.3471 31.9049C45.5276 31.3933 44.9945 30.8352 44.5578 30.6527C44.4744 30.6178 44.4279 30.7456 44.4969 30.7914C44.8137 31.0023 45.3215 31.4272 45.1866 31.8537C45.1577 31.9452 45.3152 31.995 45.3471 31.9049Z" fill="black"/>
<path d="M43.0534 29.576C43.0885 29.1651 43.0132 28.7459 42.6234 28.5329C42.5357 28.485 42.4654 28.6061 42.5444 28.6637C42.852 28.8879 42.9433 29.213 42.9382 29.5773C42.937 29.6528 43.0471 29.6486 43.0534 29.576Z" fill="black"/>
<path d="M31.1802 14.5896C30.8818 13.9125 29.8739 13.5979 29.442 14.3274C29.4107 14.3804 29.4787 14.4387 29.5251 14.3967C29.7617 14.1828 29.9764 14.0042 30.3128 14.0545C30.6556 14.1058 30.9365 14.3251 31.089 14.632C31.118 14.6901 31.2064 14.6491 31.1802 14.5896Z" fill="black"/>
<path d="M28.846 13.1671C28.829 12.9229 29.3926 13.095 29.4898 13.1364C29.65 13.2046 29.7989 13.2968 29.9593 13.3644C30.0445 13.4003 30.0918 13.2672 30.0081 13.2306C29.741 13.1139 29.5101 12.9473 29.211 12.9216C29.0246 12.9056 28.7089 12.9257 28.7645 13.1836C28.7748 13.2311 28.8492 13.2133 28.846 13.1671Z" fill="black"/>
<path d="M32.3351 14.4333C32.6203 13.9498 33.1604 14.5826 33.352 14.8451C33.4678 15.0037 33.423 15.1697 33.5718 15.305C33.7167 15.4368 33.8475 15.5117 33.907 15.7229C33.9642 15.9258 33.9248 16.1571 33.9227 16.3653C33.9215 16.4818 34.089 16.5013 34.1041 16.3834C34.1558 15.9811 34.1886 15.6335 33.9265 15.2958C33.8856 15.2432 33.8255 15.2072 33.7702 15.1725C33.6513 15.0977 33.6504 15.0001 33.6181 14.8727C33.5862 14.7466 33.4402 14.6154 33.3543 14.523C33.0728 14.22 32.4918 13.8392 32.2405 14.3749C32.2107 14.4381 32.2979 14.4963 32.3351 14.4333Z" fill="black"/>
<path d="M33.8393 17.3258C34.1055 17.5924 33.9792 18.06 33.8257 18.3538C33.7637 18.4722 33.921 18.5957 34.0159 18.4955C34.3406 18.1526 34.3321 17.5051 33.9619 17.1989C33.8847 17.1351 33.7673 17.2536 33.8393 17.3258Z" fill="black"/>
<path d="M10.602 14.4345L10.5197 14.4029C10.4516 14.4022 10.3839 14.3677 10.3159 14.367C10.2819 14.3667 10.2479 14.3663 10.1802 14.3318C10.1122 14.3311 10.0444 14.2965 9.97642 14.2958C9.9084 14.2951 9.84034 14.2945 9.80667 14.2602L9.75331 14.2662C9.73958 14.1422 9.73717 14.019 9.7463 13.8995C9.78446 13.959 10.0837 13.9917 10.1155 13.992C10.2172 14.0268 10.3526 14.096 10.4546 14.097L10.5171 14.0899C10.5186 14.1038 10.5205 14.1177 10.5224 14.1316C10.5395 14.2358 10.5664 14.3371 10.602 14.4345Z" fill="#FF004A"/>
<path d="M12.6555 12.0215L12.6525 12.0502C12.555 12.2398 12.4579 12.3998 12.3883 12.5861C12.3486 12.5873 12.3077 12.5916 12.2659 12.5994C12.2403 12.5958 12.2141 12.5932 12.188 12.5914C12.2182 12.487 12.2522 12.4026 12.3097 12.3181C12.3447 12.2167 12.4141 12.0817 12.4151 11.98L12.4248 11.9468C12.5007 11.9684 12.5791 11.994 12.6555 12.0215Z" fill="#FF004A"/>
<path d="M10.5174 14.0901L10.4549 14.0971C10.3529 14.0961 10.2175 14.0269 10.1158 13.9921C10.084 13.9918 9.7848 13.9592 9.74658 13.8996C9.75284 13.8148 9.76499 13.7317 9.78276 13.6515C9.91684 13.7188 10.0518 13.7203 10.1861 13.7553C10.316 13.7892 10.3834 13.8534 10.508 13.8894C10.5062 13.9554 10.5094 14.0223 10.5174 14.0901Z" fill="#FF004A"/>
<path d="M12.3879 12.5862C12.3832 12.5985 12.3788 12.6112 12.3743 12.624C12.3409 12.6126 12.3037 12.6047 12.2655 12.5994C12.3073 12.5917 12.3482 12.5873 12.3879 12.5862Z" fill="#FF004A"/>
<path d="M12.1872 12.5914C12.2133 12.5932 12.2396 12.5958 12.2652 12.5994C12.237 12.6045 12.2086 12.6112 12.1794 12.6193C12.1821 12.6099 12.1847 12.6004 12.1872 12.5914Z" fill="#FF004A"/>
<path d="M10.5083 13.8895C10.5171 13.5429 10.6567 13.2284 10.9084 12.9827C11.1145 12.7811 11.3886 12.5804 11.6611 12.5492C11.7975 12.5166 11.9332 12.5518 12.0349 12.5867C12.0812 12.5872 12.1343 12.5877 12.188 12.5914C12.1854 12.6004 12.1828 12.6099 12.1801 12.6193C12.2093 12.6112 12.2377 12.6045 12.2659 12.5994C12.3041 12.6047 12.3413 12.6125 12.3747 12.6239C12.3792 12.6111 12.3836 12.5985 12.3883 12.5861C12.6308 12.5783 12.8354 12.6888 13.0184 12.9016C13.3216 13.2096 13.4196 13.6175 13.3812 14.058C13.3779 14.3971 13.2719 14.8031 13.0311 15.0721C12.8247 15.3074 12.4832 15.4397 12.1427 15.4703C11.4346 15.5221 10.8338 15.0656 10.6025 14.4346C10.5669 14.3372 10.5401 14.2359 10.5229 14.1317C10.521 14.1179 10.5191 14.1039 10.5176 14.0901C10.5097 14.0223 10.5065 13.9554 10.5083 13.8895Z" fill="white"/>
<path d="M11.9399 11.8396C12.042 11.8406 12.1777 11.8758 12.2794 11.9108C12.3256 11.9205 12.3745 11.9327 12.4245 11.9468L12.4148 11.9799C12.4138 12.0817 12.3445 12.2166 12.3095 12.3181C12.2519 12.4025 12.218 12.487 12.1877 12.5914C12.134 12.5877 12.0809 12.5872 12.0346 12.5867C11.9329 12.5518 11.7972 12.5166 11.6608 12.5491C11.3884 12.5804 11.1142 12.7811 10.9081 12.9826C10.6565 13.2284 10.5168 13.5429 10.508 13.8894C10.3834 13.8534 10.316 13.7892 10.1862 13.7553C10.0518 13.7203 9.91686 13.7188 9.78278 13.6514C9.80633 13.544 9.84022 13.4413 9.88399 13.3454C10.0584 12.9065 10.3002 12.5358 10.6773 12.2343C10.8484 12.1342 11.0199 12.0002 11.2246 11.9344C11.3613 11.868 11.4974 11.8693 11.6338 11.8367C11.7583 11.838 11.8463 11.8388 11.9378 11.8533L11.9399 11.8396Z" fill="#FF004A"/>
<path d="M9.75366 14.2664L9.80702 14.2604C9.84069 14.2946 9.90875 14.2953 9.97677 14.2959C10.0448 14.2966 10.1125 14.3312 10.1805 14.3319C10.2482 14.3665 10.2823 14.3668 10.3163 14.3671C10.3843 14.3678 10.452 14.4024 10.52 14.403L10.6023 14.4347C10.8336 15.0657 11.4344 15.5222 12.1425 15.4703C12.483 15.4398 12.8244 15.3074 13.0309 15.0721C13.2717 14.8032 13.3777 14.3972 13.381 14.0581C13.4193 13.6176 13.3214 13.2096 13.0182 12.9017C12.8352 12.6889 12.6306 12.5784 12.3881 12.5862C12.4577 12.3998 12.5548 12.2398 12.6523 12.0502L12.6553 12.0215C12.5789 11.9941 12.5005 11.9684 12.4245 11.9469C12.3745 11.9329 12.3256 11.9206 12.2795 11.9109C12.1778 11.876 12.042 11.8407 11.94 11.8397L11.9378 11.8533C11.8463 11.8388 11.7584 11.8379 11.6338 11.8367C11.4974 11.8693 11.3614 11.8679 11.2247 11.9344C11.0199 12.0002 10.8485 12.1342 10.6774 12.2343C10.3003 12.5358 10.0584 12.9065 9.88402 13.3454C9.84026 13.4413 9.80637 13.544 9.78282 13.6514C9.76505 13.7317 9.7529 13.8148 9.74665 13.8995C9.73752 14.0191 9.73993 14.1423 9.75366 14.2664ZM11.762 19.57C11.3578 19.159 11.0563 18.6812 10.7889 18.2038C10.3877 17.4877 10.0545 16.7724 9.72135 16.057C9.52148 15.648 9.32171 15.2052 9.22401 14.7634C9.15933 14.4236 9.19666 14.0848 9.23434 13.7121C9.27301 13.2377 9.38007 12.7303 9.65595 12.326C9.93239 11.8878 10.3439 11.5527 10.7884 11.3197C11.0959 11.1871 11.4027 11.1223 11.7089 11.1253C11.8014 11.1262 11.8939 11.1271 11.9807 11.1336L11.981 11.1279C12.2191 11.1303 12.4905 11.2008 12.728 11.2709C13.4739 11.5157 14.2161 12.1334 14.4809 12.8821C14.7797 13.6309 14.702 14.6137 14.3886 15.3567C14.2141 15.7959 13.9726 16.1666 13.7645 16.5715C13.5221 17.01 13.314 17.4147 13.0719 17.8193C12.7954 18.2575 12.553 18.6959 12.3109 19.1005C12.1728 19.3027 12.0348 19.5048 11.7963 19.5363C11.7962 19.5479 11.7961 19.5592 11.796 19.5703L11.762 19.57Z" fill="#FF004A"/>
<path d="M12.197 11.1161C11.7721 10.956 11.2509 11.0283 10.8342 11.1733C10.4321 11.3133 10.0604 11.6238 9.78184 11.9369C9.18608 12.6065 9.06154 13.5189 9.05174 14.3831C9.04635 14.8588 9.23079 15.3169 9.41868 15.7459C9.62163 16.2094 9.84348 16.6667 10.0645 17.1218C10.2898 17.5857 10.5294 18.041 10.7926 18.4846C11.0469 18.9132 11.3474 19.2792 11.6973 19.633C11.7793 19.7158 11.906 19.5915 11.8263 19.5069C11.2211 18.864 10.8219 17.9983 10.4328 17.2158C10.2442 16.8367 10.0655 16.4528 9.88516 16.0697C9.69964 15.6757 9.51143 15.2886 9.3913 14.8684C9.27304 14.455 9.33884 14.0147 9.38113 13.5948C9.42161 13.1933 9.52426 12.7997 9.73234 12.4512C9.92503 12.1286 10.1952 11.8644 10.4967 11.6429C10.9924 11.2787 11.5859 11.1772 12.1846 11.213C12.2447 11.2166 12.2459 11.1345 12.197 11.1161Z" fill="black"/>
<path d="M11.9781 11.1368C12.7583 11.3843 13.4808 11.6454 14.0154 12.3026C14.5616 12.9742 14.6352 13.8962 14.4648 14.7152C14.2863 15.573 13.7484 16.3491 13.3374 17.1109C13.1128 17.527 12.8646 17.9278 12.6263 18.336C12.5171 18.523 12.4096 18.7111 12.3004 18.8981C12.1782 19.1073 12.0325 19.3769 11.7781 19.438C11.6533 19.4678 11.6851 19.6565 11.8134 19.6346C12.2238 19.5646 12.415 19.1454 12.6046 18.822C12.8872 18.3398 13.1858 17.8668 13.457 17.3782C13.711 16.9204 13.9594 16.4595 14.2107 16.0003C14.4477 15.567 14.6333 15.1144 14.7255 14.6283C14.8904 13.758 14.7455 12.8207 14.1761 12.1226C13.6967 11.5348 12.775 10.9304 11.9777 11.1191C11.9683 11.1213 11.9701 11.1342 11.9781 11.1368Z" fill="black"/>
<path d="M11.7197 18.4616C11.7774 18.5954 11.7386 18.822 11.7495 18.9663C11.7645 19.1652 11.749 19.3693 11.735 19.5677C11.7293 19.6464 11.8601 19.65 11.8562 19.5727C11.846 19.3663 11.8516 19.1593 11.836 18.9532C11.8244 18.7983 11.8451 18.5763 11.7574 18.4394C11.7418 18.4151 11.7088 18.4364 11.7197 18.4616Z" fill="black"/>
<path d="M11.6963 18.2175C11.7159 18.2366 11.7361 18.2617 11.7588 18.2769C11.8128 18.3129 11.8742 18.2504 11.8379 18.1971C11.824 18.1767 11.8035 18.159 11.7866 18.1411C11.7645 18.1176 11.7285 18.1126 11.703 18.1342C11.6802 18.1536 11.6731 18.195 11.6963 18.2175Z" fill="black"/>
<path d="M11.7714 18.0519C11.8253 18.0524 11.8371 17.9688 11.7826 17.9682C11.7287 17.9677 11.7168 18.0514 11.7714 18.0519Z" fill="black"/>
<path d="M11.7214 16.4505C11.7059 16.7031 11.7367 16.9502 11.7319 17.2011C11.7282 17.3955 11.7173 17.6155 11.8059 17.7933C11.8303 17.8423 11.8967 17.8145 11.8922 17.7647C11.8527 17.3263 11.814 16.8909 11.7949 16.4493C11.7928 16.4015 11.7243 16.4039 11.7214 16.4505Z" fill="black"/>
<path d="M11.703 17.9933C11.7182 18.0297 11.7366 18.0631 11.7597 18.0952C11.7857 18.1315 11.8186 18.1754 11.8626 18.1893C11.8926 18.1988 11.9311 18.173 11.922 18.1388C11.9111 18.0983 11.88 18.0713 11.8506 18.0429C11.8243 18.0176 11.802 17.9899 11.7832 17.9585C11.7551 17.9116 11.6806 17.9399 11.703 17.9933Z" fill="black"/>
<path d="M12.0466 11.8637C11.5663 11.634 11.0448 11.9267 10.6389 12.1677C10.269 12.3873 10.0108 12.8662 9.84206 13.2422C9.45291 14.1093 9.67609 15.1714 10.4537 15.7515C10.5238 15.8039 10.6292 15.7257 10.574 15.647C10.3602 15.3421 10.0955 15.0963 9.9487 14.7466C9.75181 14.2776 9.81765 13.7084 10.0052 13.2544C10.1526 12.8977 10.3845 12.5875 10.6753 12.3346C10.8213 12.2077 11.0119 12.1103 11.1834 12.023C11.4657 11.8795 11.7396 11.8856 12.0423 11.8865C12.0546 11.8865 12.0569 11.8686 12.0466 11.8637Z" fill="black"/>
<path d="M10.835 15.7601C10.8326 15.7924 10.8304 15.8247 10.828 15.857C10.8252 15.8944 10.8228 15.9374 10.8535 15.9635C10.865 15.9733 10.8905 15.978 10.9022 15.9654C10.9512 15.9133 10.9299 15.8193 10.9258 15.7544C10.9225 15.7013 10.8387 15.7099 10.835 15.7601Z" fill="black"/>
<path d="M11.0166 15.8573C11.0399 15.8901 11.0508 15.9315 11.0682 15.9674C11.0882 16.0088 11.1633 16.047 11.1938 15.9936C11.212 15.9616 11.188 15.9196 11.1508 15.92C11.1752 15.9307 11.1823 15.9322 11.172 15.9242C11.1761 15.9288 11.176 15.9282 11.1718 15.9227C11.1663 15.9148 11.1611 15.9076 11.1548 15.9001C11.1271 15.8673 11.1072 15.8297 11.0757 15.7999C11.0405 15.7666 10.9904 15.8205 11.0166 15.8573Z" fill="black"/>
<path d="M11.3377 15.9968C11.5222 16.1216 11.7226 16.0649 11.9194 16.1416C12.0714 16.2008 12.3244 16.1378 12.479 16.1051C12.8482 16.0269 13.2846 15.818 13.5019 15.5004C13.5536 15.4247 13.4608 15.3191 13.3843 15.3827C13.2618 15.4845 13.1545 15.5977 13.0211 15.6868C12.8687 15.7885 12.6699 15.8454 12.4987 15.909C12.3215 15.9749 12.0831 15.9996 11.8964 15.9817C11.7141 15.9642 11.5435 16.0199 11.3659 15.9422C11.3331 15.9278 11.3089 15.9773 11.3377 15.9968Z" fill="black"/>
<path d="M13.5358 15.3268C13.5412 15.3275 13.5465 15.3281 13.5518 15.3288C13.5539 15.329 13.556 15.3293 13.5581 15.3295C13.5448 15.3267 13.5461 15.3276 13.562 15.3323C13.5749 15.3355 13.5894 15.3343 13.6027 15.3344C13.632 15.3347 13.6541 15.3039 13.6519 15.2768C13.6493 15.2458 13.6233 15.2281 13.5941 15.2278C13.5716 15.2276 13.5512 15.2328 13.5288 15.235C13.5083 15.2371 13.4928 15.2589 13.4917 15.278C13.4904 15.3046 13.5107 15.3238 13.5358 15.3268Z" fill="black"/>
<path d="M13.7167 15.1333C13.7243 15.1326 13.736 15.1358 13.7443 15.135C13.7593 15.1337 13.7708 15.1279 13.7831 15.1199C13.8047 15.1058 13.8144 15.0817 13.8244 15.0592C13.8421 15.0192 13.7906 14.9879 13.7574 15.0036C13.7439 15.0099 13.7309 15.015 13.7183 15.0231C13.7295 15.0158 13.7192 15.0216 13.7166 15.0229C13.7067 15.0279 13.731 15.0199 13.7185 15.0224C13.714 15.0233 13.7094 15.0236 13.7049 15.0242C13.6343 15.0326 13.646 15.1393 13.7167 15.1333Z" fill="black"/>
<path d="M11.9341 11.8622C12.115 11.8893 12.2925 11.9655 12.4655 12.0254C12.6922 12.1038 12.9307 12.2174 13.1035 12.3875C13.2531 12.5347 13.4075 12.7373 13.5096 12.9203C13.6137 13.1068 13.6543 13.3196 13.7285 13.5178C13.7537 13.5851 13.8707 13.5623 13.8677 13.4901C13.8473 12.995 13.5641 12.597 13.2297 12.2514C12.9323 11.9441 12.3525 11.8132 11.9391 11.8164C11.9131 11.8166 11.9076 11.8582 11.9341 11.8622Z" fill="black"/>
<path d="M13.8638 13.8069C13.9091 13.8911 13.8713 14.0633 13.8701 14.1576C13.869 14.2514 13.8735 14.3446 13.8828 14.438C13.8869 14.4788 13.9527 14.4892 13.9582 14.4444C13.9739 14.3158 13.9792 14.1866 13.9768 14.057C13.9749 13.9586 13.9833 13.8497 13.9175 13.7692C13.8936 13.7399 13.8464 13.7745 13.8638 13.8069Z" fill="black"/>
<path d="M12.38 12.6067C12.2895 12.5642 12.1967 12.5437 12.0969 12.5363C11.9406 12.5246 11.8194 12.4577 11.6564 12.4701C11.4153 12.4885 11.2082 12.612 11.0207 12.7564C10.6508 13.0412 10.4253 13.4378 10.4073 13.9055C10.3769 14.6939 10.9996 15.3963 11.7501 15.559C12.1315 15.6416 12.5814 15.5557 12.9016 15.3339C13.2784 15.0727 13.4442 14.639 13.4886 14.1971C13.5338 13.7469 13.4736 13.3077 13.1987 12.9374C12.95 12.6022 12.5672 12.3824 12.1479 12.5223C12.0252 12.5633 12.0599 12.747 12.1921 12.7216C12.5858 12.6458 12.8378 12.8265 13.0649 13.1344C13.2877 13.4365 13.284 13.8236 13.2601 14.179C13.236 14.5387 13.0886 14.8968 12.8023 15.124C12.529 15.3409 12.1189 15.3923 11.7844 15.3411C11.168 15.2469 10.7316 14.6956 10.6217 14.1118C10.552 13.742 10.6903 13.3715 10.9319 13.0947C11.0698 12.9366 11.2494 12.8068 11.4343 12.7088C11.7004 12.5678 11.7317 12.6541 12.0403 12.6414C12.1518 12.6368 12.2615 12.6331 12.3727 12.6422C12.3949 12.644 12.3978 12.6151 12.38 12.6067Z" fill="black"/>
<path d="M12.3814 11.9783C12.3587 12.2241 12.1602 12.4099 12.1367 12.6541C12.1337 12.6855 12.1836 12.7041 12.1979 12.6735C12.251 12.5598 12.2758 12.4426 12.3437 12.3351C12.4009 12.2447 12.441 12.0881 12.4477 11.9816C12.4504 11.9388 12.3853 11.936 12.3814 11.9783Z" fill="black"/>
<path d="M12.621 12.0246C12.5495 12.1334 12.4844 12.2455 12.422 12.3597C12.3794 12.4375 12.3304 12.5246 12.3223 12.6139C12.3182 12.6598 12.381 12.7066 12.4142 12.6586C12.481 12.562 12.5132 12.4447 12.5637 12.3387C12.6067 12.2483 12.6515 12.1598 12.6887 12.0668C12.7047 12.0267 12.6472 11.9848 12.621 12.0246Z" fill="black"/>
<path d="M12.8406 12.1529C12.8318 12.2657 12.7683 12.3748 12.7329 12.4813C12.7147 12.5363 12.808 12.57 12.8291 12.5158C12.8745 12.3989 12.9347 12.2837 12.9365 12.1555C12.9374 12.0934 12.8454 12.0917 12.8406 12.1529Z" fill="black"/>
<path d="M9.76224 13.6862C9.87535 13.7501 9.99193 13.773 10.1177 13.8022C10.2547 13.8341 10.3817 13.9561 10.5243 13.943C10.561 13.9396 10.5965 13.8905 10.5598 13.8606C10.3395 13.6803 10.0509 13.7012 9.79575 13.6133C9.74686 13.5964 9.71679 13.6605 9.76224 13.6862Z" fill="black"/>
<path d="M9.69426 13.8862C9.6805 14.0315 9.95755 14.0697 10.052 14.0899C10.2093 14.1235 10.3564 14.2838 10.5159 14.1742C10.5559 14.1466 10.5689 14.0727 10.5324 14.0368C10.4646 13.9703 10.4015 13.967 10.3111 13.9394C10.2463 13.9197 10.1728 13.8827 10.1043 13.8852C10.0091 13.8887 9.85171 13.8957 9.76756 13.8449C9.73416 13.8247 9.69758 13.8511 9.69426 13.8862Z" fill="black"/>
<path d="M9.72908 14.3136C9.84192 14.4455 10.0109 14.4236 10.1564 14.5015C10.2227 14.5371 10.3068 14.5375 10.3784 14.556C10.465 14.5785 10.5178 14.567 10.5965 14.529C10.6786 14.4893 10.6924 14.3543 10.6225 14.2973C10.519 14.2127 10.4091 14.2021 10.2793 14.1959C10.2271 14.1933 10.1518 14.1722 10.0974 14.1624C10.0096 14.1466 9.90739 14.1906 9.82581 14.168C9.74937 14.1468 9.67563 14.2511 9.72908 14.3136Z" fill="black"/>
<path d="M9.95834 14.7834C9.97615 14.8472 10.0291 14.8742 10.092 14.8767C10.1622 14.8795 10.2179 14.8418 10.2833 14.8275C10.3393 14.8154 10.3533 14.7283 10.287 14.7201C10.238 14.714 10.1932 14.7272 10.1464 14.7392C10.1219 14.7456 10.0646 14.7763 10.0491 14.7466C10.023 14.6966 9.94342 14.7301 9.95834 14.7834Z" fill="black"/>
<path d="M10.3376 14.9843C10.3568 14.9854 10.3717 14.9961 10.3863 15.0078C10.4191 15.0339 10.4726 14.9928 10.4442 14.9572C10.4217 14.929 10.3873 14.9067 10.3507 14.9037C10.3285 14.9019 10.3075 14.9142 10.3038 14.9375C10.3005 14.9578 10.3153 14.983 10.3376 14.9843Z" fill="black"/>
<path d="M42.0311 40.1964L41.9789 40.1764C41.9357 40.1759 41.8927 40.154 41.8496 40.1536C41.828 40.1534 41.8064 40.1532 41.7634 40.1312C41.7202 40.1308 41.6772 40.1088 41.634 40.1084C41.5908 40.108 41.5477 40.1076 41.5263 40.0858L41.4924 40.0896C41.4837 40.0109 41.4822 39.9327 41.488 39.8568C41.5122 39.8946 41.7022 39.9153 41.7223 39.9155C41.7869 39.9377 41.8728 39.9816 41.9376 39.9822L41.9772 39.9777C41.9781 39.9865 41.9793 39.9954 41.9806 40.0041C41.9914 40.0703 42.0085 40.1346 42.0311 40.1964Z" fill="#FFC44A"/>
<path d="M43.3348 38.6646L43.3329 38.6828C43.2709 38.8032 43.2093 38.9048 43.1651 39.023C43.1399 39.0238 43.1139 39.0265 43.0874 39.0315C43.0712 39.0291 43.0545 39.0275 43.038 39.0264C43.0571 38.9601 43.0787 38.9065 43.1152 38.8529C43.1375 38.7885 43.1815 38.7029 43.1821 38.6383L43.1883 38.6173C43.2365 38.6309 43.2863 38.6472 43.3348 38.6646Z" fill="#FFC44A"/>
<path d="M41.977 39.9777L41.9373 39.9822C41.8726 39.9815 41.7867 39.9377 41.7221 39.9155C41.7019 39.9153 41.5119 39.8946 41.4877 39.8568C41.4917 39.803 41.4994 39.7503 41.5107 39.6993C41.5958 39.7421 41.6815 39.743 41.7668 39.7653C41.8491 39.7867 41.892 39.8275 41.9711 39.8504C41.9699 39.8922 41.9719 39.9347 41.977 39.9777Z" fill="#FFC44A"/>
<path d="M43.1645 39.023C43.1615 39.0308 43.1587 39.0389 43.1559 39.047C43.1347 39.0398 43.1111 39.0348 43.0868 39.0314C43.1133 39.0265 43.1392 39.0237 43.1645 39.023Z" fill="#FFC44A"/>
<path d="M43.038 39.0264C43.0545 39.0276 43.0712 39.0292 43.0874 39.0315C43.0696 39.0347 43.0516 39.039 43.033 39.0442C43.0347 39.0381 43.0363 39.0321 43.038 39.0264Z" fill="#FFC44A"/>
<path d="M41.9711 39.8503C41.9767 39.6304 42.0653 39.4308 42.2251 39.2747C42.3559 39.1468 42.5299 39.0194 42.7029 38.9996C42.7894 38.9788 42.8756 39.0013 42.9402 39.0234C42.9695 39.0237 43.0032 39.024 43.0374 39.0264C43.0357 39.0321 43.0341 39.0381 43.0323 39.0441C43.0509 39.039 43.0689 39.0347 43.0868 39.0315C43.111 39.0349 43.1346 39.0398 43.1559 39.0471C43.1586 39.0389 43.1615 39.0309 43.1644 39.023C43.3183 39.0181 43.4482 39.0883 43.5643 39.2233C43.7568 39.4188 43.8191 39.6777 43.7947 39.9573C43.7926 40.1726 43.7253 40.4303 43.5724 40.601C43.4414 40.7504 43.2247 40.8344 43.0085 40.8538C42.559 40.8867 42.1776 40.597 42.0308 40.1964C42.0082 40.1346 41.9912 40.0703 41.9803 40.0041C41.9791 39.9954 41.9779 39.9864 41.9769 39.9777C41.972 39.9348 41.97 39.8922 41.9711 39.8503Z" fill="white"/>
<path d="M42.8804 38.5492C42.9452 38.5499 43.0314 38.5722 43.0959 38.5944C43.1252 38.6006 43.1563 38.6083 43.188 38.6173L43.1818 38.6383C43.1812 38.7028 43.1372 38.7886 43.1149 38.8529C43.0784 38.9065 43.0568 38.9601 43.0376 39.0264C43.0035 39.024 42.9698 39.0237 42.9405 39.0234C42.8759 39.0012 42.7897 38.9789 42.7032 38.9995C42.5302 39.0194 42.3562 39.1468 42.2254 39.2747C42.0656 39.4307 41.977 39.6304 41.9714 39.8503C41.8923 39.8274 41.8494 39.7867 41.7671 39.7652C41.6818 39.743 41.5962 39.742 41.511 39.6993C41.5259 39.631 41.5474 39.5659 41.5752 39.505C41.686 39.2264 41.8394 38.9911 42.0788 38.7996C42.1875 38.7361 42.2963 38.6511 42.4262 38.6093C42.513 38.5671 42.5994 38.568 42.6859 38.5473C42.765 38.5481 42.8208 38.5486 42.8789 38.5578L42.8804 38.5492Z" fill="#FFC44A"/>
<path d="M41.4927 40.0897L41.5265 40.0859C41.5479 40.1076 41.591 40.108 41.6343 40.1085C41.6775 40.1089 41.7204 40.1308 41.7637 40.1312C41.8066 40.1532 41.8282 40.1534 41.8498 40.1536C41.893 40.154 41.936 40.176 41.9791 40.1764L42.0313 40.1965C42.1781 40.597 42.5595 40.8868 43.009 40.8539C43.2251 40.8345 43.442 40.7505 43.573 40.6011C43.7258 40.4304 43.7931 40.1727 43.7952 39.9574C43.8196 39.6778 43.7573 39.4189 43.5649 39.2234C43.4487 39.0883 43.3189 39.0182 43.165 39.0231C43.2091 38.9049 43.2707 38.8033 43.3327 38.6829L43.3346 38.6647C43.2861 38.6473 43.2363 38.631 43.1881 38.6173C43.1564 38.6084 43.1253 38.6006 43.096 38.5945C43.0314 38.5723 42.9453 38.5499 42.8805 38.5493L42.8791 38.5579C42.8211 38.5487 42.7652 38.5482 42.6862 38.5474C42.5997 38.5681 42.5133 38.5672 42.4265 38.6094C42.2966 38.6512 42.1877 38.7362 42.0791 38.7997C41.8397 38.9911 41.6862 39.2265 41.5755 39.5051C41.5477 39.5659 41.5262 39.6312 41.5113 39.6993C41.5 39.7503 41.4923 39.8031 41.4883 39.8568C41.4824 39.9327 41.4839 40.011 41.4927 40.0897ZM42.7675 43.4563C42.5109 43.1954 42.3195 42.8921 42.1498 42.5891C41.8951 42.1345 41.6836 41.6804 41.4721 41.2263C41.3453 40.9667 41.2185 40.6856 41.1564 40.4051C41.1153 40.1894 41.139 39.9744 41.163 39.7378C41.1875 39.4366 41.2555 39.1145 41.4306 38.8579C41.606 38.5798 41.8673 38.3671 42.1494 38.2191C42.3446 38.1349 42.5393 38.0938 42.7337 38.0957C42.7924 38.0963 42.8512 38.0969 42.9063 38.101L42.9064 38.0974C43.0576 38.0989 43.2299 38.1436 43.3806 38.1882C43.8541 38.3435 44.3252 38.7356 44.4933 39.2109C44.683 39.6862 44.6337 40.3101 44.4347 40.7817C44.324 41.0605 44.1707 41.2958 44.0386 41.5528C43.8847 41.8312 43.7526 42.088 43.5989 42.3449C43.4235 42.623 43.2696 42.9014 43.1159 43.1582C43.0282 43.2866 42.9406 43.4148 42.7892 43.4349C42.7891 43.4422 42.7891 43.4494 42.789 43.4564L42.7675 43.4563Z" fill="#FFC44A"/>
<path d="M43.045 38.0849C42.5227 37.8863 41.9525 38.1531 41.5792 38.5149C41.1608 38.9205 41.055 39.4933 41.0342 40.0521C41.0109 40.6774 41.363 41.2604 41.6256 41.8082C41.9219 42.4267 42.2348 43.012 42.7189 43.5039C42.7802 43.5663 42.8749 43.4732 42.8156 43.4094C42.4674 43.0344 42.2337 42.5363 42.0035 42.0848C41.7578 41.603 41.4952 41.1065 41.3167 40.5956C41.1472 40.1105 41.2311 39.413 41.4794 38.9665C41.7953 38.3985 42.4067 38.1477 43.0356 38.1576C43.0805 38.1582 43.0822 38.099 43.045 38.0849Z" fill="black"/>
<path d="M42.9047 38.1041C43.3562 38.2692 43.77 38.41 44.1136 38.7663C44.5166 39.1842 44.5795 39.8011 44.4754 40.3464C44.3665 40.9163 43.9974 41.4427 43.7245 41.9469C43.5909 42.1938 43.4422 42.4314 43.3008 42.6738C43.1772 42.8854 43.0351 43.2858 42.776 43.3611C42.6851 43.3875 42.7056 43.5283 42.8025 43.5087C43.0407 43.4602 43.1523 43.2614 43.2681 43.0657C43.4566 42.7472 43.6531 42.4325 43.8342 42.1097C44.152 41.5432 44.5388 40.9621 44.6634 40.3164C44.7673 39.7772 44.6764 39.1991 44.3407 38.7568C44.0365 38.3562 43.43 37.9605 42.9044 38.0908C42.8972 38.0926 42.8989 38.102 42.9047 38.1041Z" fill="black"/>
<path d="M42.9486 38.5634C42.6413 38.4155 42.3118 38.5931 42.05 38.7498C41.82 38.8876 41.6604 39.1805 41.5507 39.4129C41.2937 39.9575 41.4125 40.6827 41.9307 41.0394C41.9844 41.0763 42.0612 41.0221 42.021 40.961C41.8718 40.7344 41.6742 40.5637 41.5965 40.2953C41.5265 40.0536 41.537 39.7661 41.6275 39.533C41.7257 39.2804 41.8644 39.0686 42.0652 38.8857C42.3117 38.661 42.6218 38.5908 42.9454 38.5804C42.9545 38.5801 42.9565 38.5671 42.9486 38.5634Z" fill="black"/>
<path d="M43.8934 40.7682C43.9076 40.7702 43.9198 40.7736 43.9345 40.7738C43.9508 40.7739 43.97 40.7574 43.9709 40.7408C43.9712 40.7369 43.9712 40.7329 43.9709 40.729C43.97 40.7231 43.9677 40.7179 43.964 40.7133C43.9502 40.6997 43.9348 40.6932 43.9178 40.6937C43.9082 40.6936 43.8978 40.6982 43.8882 40.6993C43.8462 40.7044 43.8566 40.763 43.8934 40.7682Z" fill="black"/>
<path d="M44.0092 40.6463C44.0171 40.6478 44.025 40.648 44.033 40.647C44.0409 40.6455 44.0501 40.641 44.0562 40.6359C44.0691 40.6253 44.0749 40.6131 44.0804 40.5979C44.0902 40.5704 44.0565 40.544 44.0314 40.5527C44.0265 40.5545 44.0216 40.5562 44.0167 40.5578C44.0135 40.5598 44.0103 40.5617 44.0071 40.5636C44.01 40.5616 44.0096 40.5616 44.006 40.5636C44.0097 40.5629 44.0093 40.563 44.0047 40.5638C43.996 40.5653 43.9881 40.5665 43.9806 40.5719C43.9482 40.5952 43.9674 40.6532 44.0092 40.6463Z" fill="black"/>
<path d="M42.8761 38.5662C43.1543 38.6203 43.4845 38.7497 43.6674 38.9698C43.8366 39.1735 43.9158 39.375 44.0081 39.6182C44.0273 39.6686 44.1145 39.6517 44.1125 39.5975C44.0888 38.9521 43.4865 38.5359 42.8798 38.5319C42.8601 38.5318 42.8566 38.5624 42.8761 38.5662Z" fill="black"/>
<path d="M44.0982 39.7999C44.1254 39.8526 44.1002 39.9624 44.0994 40.0213C44.0986 40.0808 44.1021 40.1399 44.1093 40.1989C44.1129 40.2293 44.161 40.2377 44.1657 40.2037C44.1773 40.1218 44.1812 40.0393 44.1793 39.9566C44.1777 39.8927 44.1821 39.8231 44.1385 39.7717C44.1201 39.7499 44.0855 39.7754 44.0982 39.7999Z" fill="black"/>
<path d="M43.1601 39.034C42.8493 38.8969 42.5595 38.9194 42.2904 39.1221C42.0691 39.2888 41.9349 39.5189 41.8992 39.7917C41.8301 40.3193 42.2556 40.7999 42.7446 40.92C43.3863 41.0776 43.8575 40.5633 43.88 39.9646C43.8975 39.4988 43.6023 38.7833 43.0096 38.9711C42.916 39.0008 42.9439 39.1365 43.0427 39.1206C43.5205 39.0433 43.7345 39.5485 43.709 39.9504C43.6939 40.1888 43.6399 40.4092 43.467 40.5846C43.296 40.758 42.9987 40.7919 42.771 40.7572C42.3526 40.6933 42.0607 40.2742 42.0457 39.8729C42.0377 39.6603 42.1381 39.4713 42.2799 39.3206C42.5117 39.0741 42.8316 39.0515 43.1546 39.0608C43.1707 39.0612 43.1741 39.0403 43.1601 39.034Z" fill="black"/>
<path d="M43.1568 38.6371C43.142 38.7929 43.0121 38.9108 43.0014 39.0661C42.9998 39.0897 43.0359 39.1035 43.0473 39.0806C43.0789 39.0176 43.0922 38.9491 43.1271 38.8872C43.1667 38.8171 43.2015 38.7219 43.2065 38.6396C43.2084 38.6075 43.1598 38.6054 43.1568 38.6371Z" fill="black"/>
<path d="M43.3089 38.6637C43.2622 38.7322 43.2205 38.8032 43.1803 38.8756C43.1503 38.9296 43.1183 38.9874 43.1162 39.0497C43.1151 39.0837 43.1658 39.0997 43.1857 39.0731C43.2301 39.0136 43.2507 38.9357 43.2823 38.8684C43.3092 38.8109 43.3372 38.7548 43.3596 38.6954C43.3709 38.6654 43.3292 38.6339 43.3089 38.6637Z" fill="black"/>
<path d="M43.4468 38.7479C43.4408 38.8188 43.4001 38.8881 43.3782 38.9553C43.3647 38.9966 43.4342 39.0218 43.4503 38.9812C43.4799 38.9061 43.518 38.8324 43.5188 38.7498C43.5191 38.7032 43.4506 38.702 43.4468 38.7479Z" fill="black"/>
<path d="M41.8703 40.5502C41.91 40.5506 41.9035 40.4897 41.8644 40.4893C41.8247 40.4889 41.8312 40.5498 41.8703 40.5502Z" fill="black"/>
<path d="M42.7935 41.5631C42.7856 41.8691 42.7871 42.1748 42.7758 42.4809C42.764 42.7998 42.7384 43.1211 42.7502 43.4394C42.7525 43.5013 42.8474 43.4991 42.8465 43.4371C42.8373 42.8132 42.8312 42.1883 42.8083 41.5625C42.808 41.5529 42.7937 41.5537 42.7935 41.5631Z" fill="black"/>
<path d="M42.7744 41.4214C42.7775 41.4512 42.7968 41.4593 42.8199 41.4732C42.8444 41.4878 42.8678 41.4581 42.8513 41.4365C42.8463 41.4301 42.8416 41.4246 42.8354 41.4194C42.826 41.4115 42.8282 41.4122 42.8294 41.4206C42.8244 41.3863 42.7706 41.3857 42.7744 41.4214Z" fill="black"/>
<path d="M42.8352 41.4502C42.8416 41.4507 42.842 41.4502 42.8364 41.4488C42.8374 41.4492 42.8459 41.4578 42.846 41.4579C42.8724 41.4831 42.9084 41.4427 42.884 41.4167C42.8681 41.3997 42.8551 41.3932 42.8319 41.3922C42.7948 41.3907 42.7974 41.4507 42.8352 41.4502Z" fill="black"/>
<path d="M42.2823 41.0875C42.3955 41.1777 42.5234 41.2987 42.6776 41.3039C42.8886 41.3109 43.0891 41.273 43.2905 41.2136C43.5859 41.1266 44.0039 40.8552 44.1077 40.5556C44.1255 40.5043 44.0524 40.4498 44.0198 40.5024C43.6781 41.054 42.8903 41.401 42.2859 41.0823C42.2823 41.0804 42.2791 41.0849 42.2823 41.0875Z" fill="black"/>
<path d="M44.1012 40.4489C44.1216 40.4526 44.1384 40.4532 44.1561 40.4411C44.178 40.4261 44.1831 40.3958 44.1585 40.3797C44.1398 40.3674 44.1248 40.3658 44.1049 40.3694C44.0618 40.3773 44.0536 40.4401 44.1012 40.4489Z" fill="black"/>
<path d="M42.1228 41.0818C42.1245 41.1106 42.1416 41.1302 42.1711 41.1337C42.2157 41.139 42.2188 41.0722 42.1757 41.0653C42.1739 41.065 42.1721 41.0647 42.1703 41.0644C42.1759 41.0663 42.1815 41.0681 42.1871 41.07C42.1913 41.0721 42.1926 41.0817 42.1926 41.0855C42.192 41.0402 42.1202 41.0375 42.1228 41.0818Z" fill="black"/>
<path d="M42.7518 40.8845C42.7781 40.9264 42.7574 41.015 42.7566 41.0629C42.7554 41.129 42.7437 41.2055 42.7625 41.2693C42.7699 41.2942 42.8044 41.2955 42.8126 41.2704C42.838 41.1934 42.8227 41.095 42.8229 41.0145C42.823 40.9586 42.8388 40.9011 42.7998 40.8537C42.7771 40.8259 42.7318 40.8527 42.7518 40.8845Z" fill="black"/>
<path d="M42.8466 40.9163C42.8725 40.9721 42.8534 41.0283 42.864 41.0852C42.8739 41.1377 42.8674 41.2087 42.9057 41.2503C42.9225 41.2686 42.955 41.2666 42.9601 41.2382C42.9709 41.1777 42.939 41.1198 42.9375 41.06C42.9359 40.9989 42.9282 40.9389 42.8941 40.8866C42.8739 40.8556 42.8317 40.8845 42.8466 40.9163Z" fill="black"/>
<path d="M43.0164 40.8883C43.0206 40.9828 43.0396 41.1051 43.0897 41.1868C43.1084 41.2174 43.1671 41.2051 43.1544 41.1654C43.1369 41.1106 43.119 41.0571 43.1065 41.0009C43.0972 40.9594 43.0806 40.9203 43.0713 40.8794C43.0641 40.8481 43.015 40.857 43.0164 40.8883Z" fill="black"/>
<path d="M43.343 40.9231C43.3568 40.939 43.3624 40.957 43.3795 40.9706C43.3949 40.9829 43.4228 40.9649 43.412 40.946C43.401 40.9266 43.3944 40.9066 43.3795 40.8894C43.3584 40.8653 43.3219 40.899 43.343 40.9231Z" fill="black"/>
<path d="M43.5739 40.8185C43.5774 40.822 43.5812 40.8252 43.5854 40.828C43.5885 40.831 43.5921 40.8324 43.5964 40.8323C43.6256 40.8698 43.6796 40.8395 43.668 40.7954C43.6617 40.7717 43.6411 40.7619 43.6243 40.7467C43.6066 40.7306 43.5756 40.7397 43.5631 40.7575C43.5481 40.7789 43.5562 40.8024 43.5739 40.8185Z" fill="black"/>
<path d="M57.931 22.4217L57.9885 22.4009C58.0358 22.4014 58.0832 22.3783 58.1304 22.3788C58.1539 22.379 58.1775 22.3793 58.2249 22.3562C58.2722 22.3567 58.3195 22.3336 58.3667 22.3341C58.4139 22.3345 58.461 22.335 58.4849 22.3117L58.5219 22.3166C58.5332 22.2307 58.5365 22.1453 58.5319 22.0623C58.5045 22.103 58.2966 22.1215 58.2745 22.1213C58.2034 22.1441 58.1086 22.1903 58.0379 22.1896L57.9947 22.1838C57.9934 22.1934 57.9919 22.2031 57.9904 22.2126C57.9771 22.2848 57.957 22.3547 57.931 22.4217Z" fill="#00C84A"/>
<path d="M56.5395 20.7199L56.5411 20.7399C56.6062 20.8727 56.6714 20.985 56.7171 21.1152C56.7447 21.1165 56.7729 21.1201 56.8019 21.126C56.8196 21.1239 56.8379 21.1225 56.856 21.1215C56.8365 21.0487 56.814 20.9896 56.7752 20.9303C56.7524 20.8595 56.7061 20.7649 56.7068 20.6943L56.7005 20.6713C56.6477 20.6852 56.5929 20.7019 56.5395 20.7199Z" fill="#00C84A"/>
<path d="M57.9941 22.1837L58.0374 22.1895C58.1081 22.1902 58.2029 22.1441 58.274 22.1213C58.296 22.1215 58.5039 22.103 58.5313 22.0622C58.5281 22.0034 58.5208 21.9456 58.5096 21.8896C58.4156 21.9344 58.3221 21.9337 58.2284 21.9561C58.1378 21.9779 58.0903 22.0214 58.0033 22.0448C58.0037 22.0906 58.0006 22.1369 57.9941 22.1837Z" fill="#00C84A"/>
<path d="M56.7188 21.115C56.7217 21.1237 56.7246 21.1325 56.7276 21.1414C56.7509 21.1339 56.7768 21.1291 56.8035 21.1258C56.7745 21.12 56.7463 21.1164 56.7188 21.115Z" fill="#00C84A"/>
<path d="M56.8577 21.1214C56.8397 21.1223 56.8213 21.1237 56.8037 21.1259C56.823 21.1298 56.8427 21.1349 56.8627 21.1409C56.8611 21.1342 56.8594 21.1276 56.8577 21.1214Z" fill="#00C84A"/>
<path d="M58.0037 22.0446C58.0024 21.8041 57.9098 21.584 57.7385 21.4102C57.5984 21.2676 57.4109 21.1246 57.2223 21.0992C57.1282 21.0748 57.0335 21.0974 56.9625 21.1202C56.9304 21.1199 56.8936 21.1195 56.8563 21.1214C56.858 21.1277 56.8596 21.1342 56.8613 21.1409C56.8413 21.1349 56.8216 21.1298 56.8023 21.1259C56.7756 21.1291 56.7498 21.134 56.7264 21.1414C56.7234 21.1325 56.7205 21.1237 56.7175 21.115C56.5493 21.1063 56.406 21.1802 56.2761 21.3252C56.0617 21.5346 55.9882 21.8163 56.0087 22.1223C56.0064 22.3576 56.0744 22.6406 56.2378 22.8305C56.3777 22.9964 56.6129 23.0929 56.8486 23.1188C57.3391 23.1644 57.762 22.8559 57.9309 22.4214C57.957 22.3543 57.9769 22.2844 57.9903 22.2124C57.9919 22.2028 57.9933 22.1931 57.9946 22.1835C58.001 22.1367 58.0041 22.0904 58.0037 22.0446Z" fill="white"/>
<path d="M57.039 20.6034C56.9682 20.6027 56.8735 20.6253 56.8025 20.6481C56.7703 20.6543 56.7363 20.6621 56.7015 20.6712L56.7077 20.6943C56.707 20.7648 56.7533 20.8594 56.7761 20.9302C56.8149 20.9896 56.8373 21.0486 56.8569 21.1215C56.8943 21.1196 56.931 21.12 56.9631 21.1203C57.0342 21.0975 57.1287 21.0749 57.223 21.0993C57.4115 21.1247 57.599 21.2677 57.7391 21.4103C57.9103 21.5841 58.003 21.8042 58.0044 22.0447C58.0912 22.0213 58.1389 21.9778 58.2294 21.956C58.3231 21.9335 58.4166 21.9343 58.5106 21.8894C58.4958 21.8146 58.4736 21.7429 58.4446 21.6758C58.3296 21.369 58.1669 21.1086 57.9095 20.8943C57.7921 20.8225 57.675 20.7273 57.5339 20.6789C57.44 20.6309 57.3457 20.6299 57.2515 20.6055C57.165 20.6046 57.104 20.604 57.0404 20.6128L57.039 20.6034Z" fill="#00C84A"/>
<path d="M58.5325 22.0623C58.5292 22.0035 58.5219 21.9456 58.5107 21.8896C58.4959 21.8148 58.4737 21.7431 58.4447 21.676C58.3297 21.3692 58.167 21.1088 57.9096 20.8945C57.7922 20.8227 57.6751 20.7275 57.534 20.6791C57.4402 20.6311 57.3458 20.6301 57.2516 20.6057C57.1651 20.6048 57.1041 20.6042 57.0405 20.613L57.0391 20.6036C56.9683 20.6029 56.8736 20.6255 56.8026 20.6483C56.7704 20.6545 56.7364 20.6623 56.7016 20.6714C56.6486 20.6853 56.5938 20.702 56.5405 20.72L56.5421 20.74C56.6071 20.8728 56.6723 20.9851 56.7181 21.1153C56.5499 21.1066 56.4065 21.1804 56.2767 21.3255C56.0622 21.5349 55.9887 21.8166 56.0093 22.1226C56.0069 22.3579 56.075 22.6409 56.2384 22.8307C56.3783 22.9967 56.6134 23.0931 56.8491 23.1191C57.3397 23.1647 57.7625 22.8561 57.9315 22.4216L57.989 22.4009C58.0363 22.4013 58.0837 22.3783 58.1309 22.3787C58.1544 22.379 58.1781 22.3792 58.2254 22.3561C58.2727 22.3566 58.32 22.3335 58.3672 22.334C58.4144 22.3345 58.4615 22.3349 58.4855 22.3116L58.5224 22.3165C58.5338 22.2307 58.5372 22.1452 58.5325 22.0623ZM57.0337 25.9676C57.0338 25.96 57.0339 25.9521 57.034 25.9441C56.8691 25.919 56.776 25.7769 56.6831 25.6348C56.5206 25.3508 56.3584 25.0435 56.1727 24.7358C56.0102 24.4518 55.8714 24.1684 55.7092 23.8608C55.5703 23.5771 55.4078 23.3167 55.2928 23.0098C55.0856 22.4901 55.0451 21.8074 55.2626 21.292C55.4565 20.7763 55.9796 20.3579 56.5003 20.1983C56.6659 20.1529 56.8553 20.1077 57.0204 20.1093L57.0206 20.1132C57.0809 20.1099 57.1451 20.1105 57.2092 20.1112C57.4216 20.1133 57.6336 20.1624 57.845 20.2586C58.1503 20.4263 58.4311 20.6643 58.617 20.972C58.8028 21.2562 58.8701 21.6096 58.8905 21.9392C58.9115 22.1983 58.9329 22.4338 58.8833 22.6686C58.8095 22.9737 58.6649 23.2782 58.5207 23.5591C58.2799 24.0508 58.0391 24.5424 57.751 25.0336C57.5591 25.3611 57.3435 25.6884 57.0575 25.9679L57.0337 25.9676Z" fill="#00C84A"/>
<path d="M56.8781 20.1774C57.49 20.1879 57.9563 20.3782 58.3716 20.8412C58.7882 21.3055 58.8834 22.19 58.7193 22.7704C58.5699 23.299 58.252 23.8036 58.002 24.2918C57.72 24.8429 57.4241 25.4517 56.9971 25.9067C56.9224 25.9865 57.0382 26.1057 57.1164 26.028C57.6655 25.4823 58.0234 24.8521 58.3721 24.1654C58.7506 23.4206 59.0876 22.777 59.0178 21.9297C58.9707 21.3553 58.7856 20.8811 58.3644 20.4768C57.9806 20.1085 57.3842 19.9109 56.8662 20.086C56.8169 20.1027 56.8234 20.1765 56.8781 20.1774Z" fill="black"/>
<path d="M57.0233 20.1009C55.6788 19.8056 54.829 21.3978 55.0437 22.5237C55.1739 23.2067 55.5579 23.8113 55.8767 24.4205C56.0558 24.7626 56.258 25.0925 56.4468 25.4294C56.5886 25.6829 56.707 25.9426 57.0022 26.0325C57.1184 26.0679 57.1814 25.9 57.0673 25.8556C56.7771 25.7426 56.6386 25.3373 56.4985 25.0841C56.3567 24.8278 56.2071 24.5768 56.0709 24.3174C55.8211 23.8412 55.5412 23.3632 55.357 22.8575C55.1516 22.2935 55.1915 21.6402 55.4756 21.1138C55.7849 20.5402 56.4456 20.3109 57.0237 20.1175C57.0316 20.1149 57.0319 20.1028 57.0233 20.1009Z" fill="black"/>
<path d="M57.07 25.1816C57.0219 25.2491 57.0265 25.342 57.0174 25.4208C56.9963 25.6023 56.9924 25.7834 56.9758 25.9652C56.969 26.0397 57.0952 26.0426 57.0903 25.97C57.0833 25.8681 57.0798 25.7668 57.0791 25.6647C57.0787 25.6065 57.0844 25.5485 57.0896 25.4905C57.0969 25.41 57.0754 25.2747 57.1057 25.202C57.1159 25.1777 57.0856 25.1596 57.07 25.1816Z" fill="black"/>
<path d="M57.0546 24.9608C57.0286 24.9878 57.0041 25.0084 56.9992 25.0476C56.9955 25.0781 57.0259 25.0952 57.0521 25.0927C57.0845 25.0898 57.105 25.0661 57.127 25.0458C57.1805 24.9965 57.1039 24.9097 57.0546 24.9608Z" fill="black"/>
<path d="M57.0623 24.9249C57.1132 24.9254 57.1245 24.8464 57.0729 24.8459C57.0221 24.8455 57.0109 24.9244 57.0623 24.9249Z" fill="black"/>
<path d="M57.0684 23.8041C57.0426 24.1083 57.0003 24.4142 56.98 24.7175C56.9773 24.7587 57.0375 24.7829 57.0593 24.7441C57.1221 24.6326 57.1206 24.5045 57.1238 24.3788C57.1287 24.1855 57.1495 23.9967 57.1377 23.803C57.1348 23.7577 57.0721 23.7604 57.0684 23.8041Z" fill="black"/>
<path d="M57.0579 24.8385C57.033 24.8758 56.9998 24.9035 56.9688 24.9354C56.9227 24.9826 56.9997 25.0449 57.046 25.0007C57.0832 24.9653 57.1101 24.9241 57.13 24.8771C57.1483 24.8342 57.0839 24.7997 57.0579 24.8385Z" fill="black"/>
<path d="M56.966 20.6375C57.6566 20.6901 58.1289 21.0548 58.3735 21.6986C58.6121 22.3269 58.2627 22.7653 57.9237 23.2446C57.8772 23.3104 57.9474 23.4118 58.0226 23.3577C58.6269 22.9227 58.7421 22.1856 58.4621 21.5271C58.2431 21.012 57.5891 20.3351 56.9643 20.6157C56.9553 20.6199 56.9538 20.6365 56.966 20.6375Z" fill="black"/>
<path d="M57.6773 23.3365C57.6724 23.3876 57.6561 23.4459 57.6952 23.4862C57.7105 23.5021 57.7354 23.4943 57.7487 23.4811C57.7844 23.4453 57.7665 23.3762 57.763 23.3313C57.759 23.2807 57.6818 23.2897 57.6773 23.3365Z" fill="black"/>
<path d="M57.5787 23.3538C57.5489 23.3807 57.5292 23.4187 57.4994 23.4448C57.4612 23.4782 57.5067 23.5375 57.5501 23.5241C57.5418 23.5245 57.5336 23.5249 57.5253 23.5253C57.5337 23.527 57.5419 23.5267 57.5501 23.5241C57.5619 23.519 57.5725 23.5143 57.5826 23.5064C57.6132 23.4823 57.6188 23.4336 57.6383 23.4006C57.6579 23.3673 57.6067 23.3284 57.5787 23.3538Z" fill="black"/>
<path d="M57.383 23.4481C57.2159 23.4998 56.9492 23.466 56.7804 23.4367C56.4687 23.3823 56.2328 23.2281 56.0009 23.024C55.9309 22.9624 55.8393 23.0639 55.8896 23.1346C56.1792 23.5421 56.9512 23.7824 57.4004 23.5034C57.4258 23.4877 57.4173 23.4376 57.383 23.4481Z" fill="black"/>
<path d="M55.8964 22.9264C55.8586 22.9191 55.8299 22.9085 55.8022 22.9436C55.7906 22.9583 55.7929 22.9792 55.8035 22.9935C55.8287 23.0268 55.8571 23.0159 55.8918 23.011C55.9338 23.0051 55.9401 22.9347 55.8964 22.9264Z" fill="black"/>
<path d="M57.0381 20.5815C56.3821 20.5633 55.6836 21.006 55.6606 21.7156C55.658 21.7961 55.7647 21.8128 55.7952 21.7423C55.8988 21.5026 55.982 21.3089 56.142 21.099C56.3469 20.8303 56.7202 20.6869 57.0449 20.6244C57.0704 20.6195 57.0617 20.5821 57.0381 20.5815Z" fill="black"/>
<path d="M56.7252 21.1585C57.2225 21.1691 57.6218 21.254 57.8567 21.7558C58.056 22.1816 57.7549 22.6664 57.4115 22.8936C56.9345 23.209 56.309 22.9334 56.1533 22.4195C56.0019 21.9202 56.2186 21.1386 56.863 21.2388C56.972 21.2557 57.0017 21.0795 56.8976 21.0511C56.1801 20.8548 55.8874 21.647 55.9045 22.2172C55.9242 22.8743 56.4477 23.2715 57.0816 23.2193C57.7192 23.1669 58.1147 22.5275 58.0919 21.9416C58.0793 21.6218 57.8451 21.3668 57.6095 21.1803C57.3352 20.9632 57.0257 21.0136 56.7186 21.1257C56.7023 21.1319 56.7088 21.1582 56.7252 21.1585Z" fill="black"/>
<path d="M56.6775 20.6926C56.6804 20.7712 56.7091 20.8427 56.7345 20.9163C56.7495 20.9593 56.7744 20.9968 56.7919 21.0391C56.8113 21.0859 56.8187 21.1354 56.8416 21.1807C56.855 21.2075 56.901 21.1995 56.9006 21.168C56.8979 20.9954 56.7531 20.8601 56.7394 20.6878C56.7365 20.6525 56.6762 20.6575 56.6775 20.6926Z" fill="black"/>
<path d="M56.3306 20.808C56.3292 20.8976 56.3671 20.9775 56.3979 21.0593C56.4198 21.1174 56.5087 21.0912 56.4909 21.0309C56.4695 20.9591 56.4268 20.8855 56.4211 20.8103C56.4168 20.7535 56.3316 20.7486 56.3306 20.808Z" fill="black"/>
<path d="M58.4994 21.8525C58.3293 21.903 58.0932 21.8746 57.9595 22.0149C57.9361 22.0394 57.9443 22.083 57.9792 22.0918C58.0753 22.1163 58.1552 22.0433 58.2437 22.0132C58.3438 21.9793 58.4406 21.9733 58.534 21.9191C58.5727 21.8967 58.5384 21.841 58.4994 21.8525Z" fill="black"/>
<path d="M58.5238 22.0084C58.4596 22.0273 58.3839 22.0227 58.3174 22.0213C58.2179 22.0194 58.1221 22.0542 58.0262 22.0783C57.8966 22.1108 57.9467 22.3167 58.0753 22.3029C58.0404 22.2866 58.0054 22.2704 57.9705 22.2541C57.9927 22.2872 58.0356 22.3071 58.0753 22.3029C58.1513 22.2947 58.2193 22.2626 58.2865 22.2273C58.3156 22.212 58.3861 22.2023 58.427 22.1889C58.4877 22.1688 58.606 22.1258 58.5795 22.0418C58.5722 22.0188 58.5489 22.001 58.5238 22.0084Z" fill="black"/>
<path d="M58.0996 22.7399C58.0722 22.7441 58.046 22.7552 58.0282 22.7772C58.0027 22.8088 58.041 22.8553 58.076 22.8316C58.0858 22.8249 58.0947 22.8181 58.1069 22.8165C58.1567 22.8104 58.1486 22.7323 58.0996 22.7399Z" fill="black"/>
</g>
<defs>
<clipPath id="clip0_238_2357">
<rect width="64" height="64" fill="white"/>
</clipPath>
</defs>
</svg>
