<svg width="50" height="50" viewBox="0 0 50 50" fill="none" xmlns="http://www.w3.org/2000/svg">
<rect width="50" height="50" fill="white"/>
<path d="M9.52346 21.5685C9.51127 15.7616 13.9957 10.9773 20.0965 10.1642C30.7149 8.77533 37.8587 20.2604 31.3484 28.128C31.0315 28.5292 31.0724 28.7365 31.4319 29.0656C34.4012 31.7835 37.3569 34.5143 40.3062 37.251C41.2599 38.1359 40.8857 39.5355 39.6106 39.8825C38.905 40.0746 38.3161 39.8492 37.8081 39.3766C36.3764 38.0451 34.9363 36.7215 33.5007 35.3937C31.9409 33.9509 30.3742 32.5143 28.8306 31.0568C28.5291 30.7721 28.3205 30.7396 27.9452 30.956C20.2668 35.513 9.52545 30.2881 9.52346 21.5685ZM30.9781 21.3433C31.1058 16.8788 27.0789 12.8054 21.8793 12.7107C9.50178 12.8808 9.01983 29.4684 21.5712 29.9836C26.7697 30.0494 30.9676 26.1493 30.9781 21.3433Z" fill="black"/>
</svg>
