<svg width="11" height="10" viewBox="0 0 11 10" fill="none" xmlns="http://www.w3.org/2000/svg">
<path d="M5.2981 3.27032C6.40591 3.26278 7.60051 3.1553 8.70923 3.3338C8.73318 3.33774 8.74952 3.35235 8.75903 3.36505C8.76861 3.37789 8.77502 3.39317 8.77954 3.40704C8.78868 3.43519 8.7934 3.46982 8.79419 3.50177C8.79494 3.5335 8.7922 3.56739 8.78442 3.59552C8.78055 3.60949 8.77432 3.62517 8.76489 3.63849C8.75541 3.65182 8.73892 3.66715 8.71411 3.67072C8.42693 3.71075 8.12919 3.69413 7.83521 3.66779C7.53934 3.64127 7.24864 3.60535 6.96704 3.60431C6.36251 3.60199 5.75893 3.61116 5.15356 3.6131C4.54356 3.61495 3.93311 3.61223 3.32349 3.61115C3.05612 3.61072 2.78933 3.62947 2.52075 3.64825C2.25284 3.66699 1.98272 3.68613 1.71118 3.68341C1.68575 3.68318 1.66748 3.66894 1.65649 3.65607C1.6459 3.64364 1.63854 3.62905 1.63403 3.61603C1.62496 3.58976 1.62108 3.55779 1.62036 3.52814C1.61968 3.49846 1.62233 3.46593 1.63013 3.43927C1.634 3.42613 1.64066 3.41111 1.65063 3.39825C1.66102 3.38489 1.67869 3.37008 1.70435 3.36896L2.58423 3.31232C2.87881 3.29191 3.17439 3.2747 3.46997 3.27423C4.07951 3.27315 4.6889 3.27427 5.2981 3.27032Z" fill="#262626" stroke="black" stroke-width="0.1"/>
<path d="M5.16919 3.66582C6.5693 3.65884 7.96435 3.70563 9.3606 3.67363C9.39024 3.67291 9.41164 3.6894 9.42407 3.70488C9.43602 3.71989 9.44404 3.73855 9.44946 3.75566C9.4605 3.79074 9.46633 3.83523 9.46704 3.87675C9.46775 3.91826 9.4638 3.96196 9.45435 3.99687C9.44974 4.01386 9.44288 4.03236 9.43188 4.04765C9.42622 4.05546 9.41799 4.06458 9.40747 4.07109L9.36841 4.08183C7.97197 4.04573 6.57287 4.02761 5.17603 4.02715C4.43084 4.02699 3.69134 4.06767 2.9436 4.08281C2.60275 4.08962 2.26157 4.09011 1.92114 4.08965C1.78681 4.08939 1.64699 4.0738 1.51294 4.0623C1.37741 4.05068 1.24597 4.04338 1.12134 4.05644C1.09734 4.0589 1.07835 4.04767 1.06665 4.03593C1.05608 4.02523 1.04944 4.01242 1.04517 4.00175C1.03639 3.97971 1.03197 3.95242 1.03052 3.92754L1.02856 3.90117L1.04907 3.88554C1.1026 3.84352 1.15769 3.80249 1.21411 3.76347L1.22095 3.75761L1.23364 3.74785L1.24829 3.7459C1.38177 3.7322 1.52408 3.7389 1.66138 3.74785C1.80004 3.75689 1.93295 3.76883 2.05493 3.7664C2.39979 3.75927 2.74318 3.75637 3.08618 3.74101C3.77892 3.70989 4.47312 3.66931 5.16919 3.66582Z" fill="#262626" stroke="black" stroke-width="0.1"/>
<path d="M8.27026 7.52707C8.60469 7.52477 8.94058 7.54186 9.25757 7.61887L9.28003 7.62961C9.28628 7.63414 9.29196 7.63857 9.29565 7.64328C9.30299 7.65265 9.30711 7.66365 9.3103 7.67258C9.31664 7.69045 9.31956 7.71075 9.32007 7.72922C9.32057 7.7477 9.31885 7.7685 9.31323 7.78683C9.30888 7.80093 9.29581 7.83358 9.2605 7.8425C8.92221 7.92572 8.56029 7.9421 8.19995 7.9382C8.01982 7.93625 7.83924 7.92922 7.66187 7.92258C7.48405 7.91592 7.30875 7.91011 7.1394 7.90988C6.43186 7.90911 5.72275 7.91329 5.0144 7.90695C3.64763 7.89458 2.28005 7.88488 0.912842 7.85031C0.891307 7.84982 0.875149 7.83876 0.86499 7.82785C0.855394 7.81754 0.849193 7.80553 0.845459 7.79562C0.837978 7.77568 0.835135 7.75192 0.834717 7.73117C0.834343 7.71062 0.836041 7.68756 0.842529 7.66769C0.84581 7.65776 0.851867 7.64517 0.861084 7.63449C0.8709 7.62318 0.886985 7.6118 0.908936 7.61105L3.03394 7.56906C3.74258 7.55941 4.45128 7.55425 5.15991 7.55344C5.51375 7.55297 5.86761 7.55287 6.22144 7.55246C6.5754 7.55205 6.93 7.55195 7.28394 7.55148C7.44229 7.55131 7.60504 7.54542 7.77026 7.53976C7.93522 7.53412 8.10302 7.52822 8.27026 7.52707Z" fill="#262626" stroke="black" stroke-width="0.1"/>
<path d="M9.28491 7.61954L9.34741 7.63614L9.38062 7.64688L9.38257 7.68106V7.69571C9.37825 7.76476 9.38494 7.8307 9.38745 7.90665C9.38987 7.97999 9.38763 8.05854 9.36108 8.13809C9.35573 8.15402 9.3484 8.17017 9.33765 8.18301C9.32695 8.19569 9.30919 8.20979 9.28491 8.21133C9.25962 8.21286 9.23975 8.20033 9.22729 8.18692C9.21532 8.17397 9.20672 8.15758 9.20093 8.14102C9.17602 8.07041 9.17215 7.97893 9.19507 7.90567C9.20589 7.87117 9.21077 7.83417 9.21362 7.79239C9.21636 7.75233 9.21806 7.7056 9.22534 7.66055L9.23315 7.6088L9.28491 7.61954Z" fill="#262626" stroke="black" stroke-width="0.1"/>
<path d="M0.895752 7.66202L0.97583 7.6669L1.01978 7.66788L1.02466 7.71085C1.02819 7.74109 1.0265 7.77139 1.02563 7.78604L1.02759 7.78702C1.02686 7.8011 1.02442 7.8159 1.02173 7.82999V7.83292H1.02075C1.01946 7.83768 1.01769 7.84133 1.01685 7.84464L1.01782 7.84561L1.01489 7.85733L1.01587 7.85831C1.01414 7.87781 1.01236 7.89785 1.01099 7.91788V7.91885L1.00903 7.95206V7.98038L1.01001 8.07901C1.00615 8.1131 0.994812 8.15944 0.957275 8.18839C0.945986 8.19708 0.931033 8.20439 0.91333 8.20499C0.89548 8.20558 0.88036 8.19921 0.869385 8.19131C0.849901 8.17714 0.838398 8.15489 0.832275 8.14053C0.81896 8.10928 0.812303 8.07196 0.810791 8.05948C0.796809 7.94548 0.805458 7.81158 0.843994 7.6962L0.856689 7.65811L0.895752 7.66202Z" fill="#262626" stroke="black" stroke-width="0.1"/>
<path d="M2.86523 7.94057C3.6102 7.95931 4.34615 7.98865 5.09375 7.95912L5.125 7.96596C5.13377 7.97045 5.14048 7.97684 5.14551 7.98256C5.15489 7.99324 5.16046 8.00565 5.16406 8.01576C5.17141 8.03651 5.17514 8.06168 5.17578 8.08412C5.17639 8.10646 5.17422 8.13126 5.16797 8.15248C5.16488 8.16296 5.16029 8.17632 5.15137 8.18764C5.14194 8.19953 5.12507 8.21203 5.10156 8.21303C4.89893 8.2222 4.6967 8.20953 4.49805 8.19643C4.29861 8.18327 4.1028 8.17015 3.9082 8.1769C3.73428 8.1829 3.56185 8.19331 3.38965 8.20326C3.21781 8.2132 3.04513 8.22228 2.87012 8.22768C2.69206 8.23319 2.5065 8.24572 2.31641 8.25795C2.12658 8.27017 1.93206 8.28241 1.73828 8.28822C1.35082 8.29982 0.961048 8.28552 0.604492 8.19057C0.572256 8.18196 0.55859 8.15266 0.553711 8.13979C0.547389 8.12306 0.544568 8.10417 0.543945 8.08705C0.543336 8.07007 0.544863 8.04996 0.550781 8.03236C0.555737 8.01785 0.57073 7.98609 0.607422 7.98061L0.757812 7.964C0.908543 7.95099 1.06123 7.9498 1.21289 7.95229C1.41684 7.95563 1.61619 7.96475 1.8125 7.96205C2.15676 7.95747 2.51579 7.93198 2.86523 7.94057Z" fill="#262626" stroke="black" stroke-width="0.1"/>
<path d="M6.43457 7.94586C6.62338 7.9524 6.81294 7.9518 7.00293 7.95074C7.19261 7.94969 7.38339 7.94757 7.57422 7.95172C8.26965 7.96703 9.00561 8.02206 9.68945 7.95367L9.69043 7.9527C9.72903 7.949 9.75099 7.97632 9.75977 7.99176C9.76909 8.00827 9.77425 8.02795 9.77734 8.04352C9.78375 8.07585 9.78507 8.11028 9.78516 8.12067C9.78678 8.23654 9.78618 8.34714 9.7666 8.45953L9.75977 8.49957L9.71875 8.50055C9.68911 8.50122 9.66608 8.50178 9.6377 8.5025L9.58105 8.50348L9.58594 8.44781C9.59099 8.39182 9.5946 8.33569 9.59863 8.27985C8.92836 8.20082 8.25913 8.22315 7.57617 8.21344C7.22678 8.20844 6.85926 8.18046 6.5 8.16656C6.13832 8.15259 5.77965 8.15245 5.43848 8.20465C5.41202 8.20856 5.39296 8.19455 5.38379 8.18414C5.37512 8.17419 5.37035 8.16257 5.36719 8.15387C5.36057 8.13557 5.35656 8.11358 5.35547 8.09332C5.3544 8.073 5.35599 8.04921 5.36133 8.02887C5.36398 8.01887 5.36821 8.00659 5.37598 7.99567C5.38413 7.98426 5.39805 7.97117 5.41895 7.96735L5.67578 7.9361C5.93078 7.91853 6.18234 7.93724 6.43457 7.94586Z" fill="#262626" stroke="black" stroke-width="0.1"/>
<path d="M0.685303 8.09691C0.687463 8.14416 0.687374 8.196 0.688232 8.23851C0.689646 8.31256 0.694821 8.39773 0.685303 8.47874L0.684326 8.47972C0.683472 8.48675 0.681128 8.51442 0.674561 8.53831C0.671139 8.55067 0.665525 8.56723 0.655029 8.58128C0.643712 8.59639 0.624469 8.61188 0.596436 8.61253C0.568366 8.61319 0.548637 8.59829 0.536865 8.58421C0.52574 8.57091 0.518621 8.55545 0.514404 8.5432C0.505855 8.5183 0.502928 8.49151 0.501709 8.4807C0.490958 8.38827 0.495611 8.29362 0.497803 8.20726C0.498256 8.18617 0.498623 8.16477 0.498779 8.14281V8.11253L0.525146 8.09886C0.554415 8.08356 0.584402 8.06837 0.613037 8.05394L0.682373 8.01976L0.685303 8.09691Z" fill="#262626" stroke="black" stroke-width="0.1"/>
<path d="M4.3208 8.30486C4.32978 8.30969 4.33699 8.31622 4.34229 8.32243C4.35244 8.33439 4.35881 8.34861 4.36279 8.36052C4.3709 8.38484 4.37403 8.41465 4.37451 8.44157C4.37495 8.46843 4.37272 8.49751 4.36572 8.52165C4.3623 8.53342 4.35665 8.54754 4.34717 8.55974C4.33709 8.57262 4.31829 8.58808 4.2915 8.58708C3.60064 8.56208 2.90798 8.58155 2.21436 8.60857C1.52131 8.63556 0.826225 8.67033 0.132324 8.67595C0.109563 8.67612 0.0921317 8.66494 0.081543 8.65349C0.0716956 8.64277 0.0658735 8.62976 0.0620117 8.61931C0.0542142 8.59803 0.0507593 8.57261 0.050293 8.54997C0.0498384 8.5273 0.052238 8.50203 0.059082 8.48064C0.0624443 8.47013 0.0680915 8.45669 0.0776367 8.44548C0.0878859 8.43364 0.105132 8.42195 0.128418 8.42204L1.16748 8.41032C2.20692 8.38744 3.24761 8.33477 4.2876 8.29704L4.3208 8.30486Z" fill="#262626" stroke="black" stroke-width="0.1"/>
<path d="M5.60352 8.30858C5.7303 8.31317 5.85447 8.31724 5.97461 8.31737C6.47652 8.31783 6.97865 8.31834 7.48047 8.31834C8.33096 8.31865 9.19071 8.27967 10.043 8.35057C10.0836 8.35393 10.1033 8.38644 10.1113 8.40623C10.1197 8.42726 10.1235 8.45188 10.125 8.47264C10.128 8.51496 10.1241 8.55928 10.1221 8.57518C10.1189 8.60045 10.1171 8.63452 10.1152 8.67577C10.1135 8.71593 10.1108 8.76184 10.1055 8.80663C10.1002 8.85124 10.0916 8.89756 10.0762 8.93846C10.0608 8.97918 10.0374 9.01958 9.99902 9.04588C9.991 9.05136 9.98005 9.05645 9.9668 9.0576C9.9527 9.05875 9.93923 9.05528 9.92871 9.04881C9.91024 9.03739 9.90178 9.01842 9.89746 9.0078C9.88794 8.98431 9.88299 8.95339 9.88086 8.92577C9.87863 8.8968 9.87828 8.86583 9.87988 8.83983C9.88068 8.82702 9.88201 8.81446 9.88379 8.8037C9.88528 8.79477 9.88817 8.78026 9.89453 8.76854L9.92188 8.69627C9.92605 8.67995 9.92859 8.66258 9.93164 8.64452C9.77415 8.60319 9.60706 8.59488 9.43457 8.60057C9.33072 8.60401 9.22589 8.61147 9.12109 8.61913C9.01673 8.62675 8.91182 8.63416 8.80957 8.63573C8.31779 8.64331 7.8252 8.63432 7.33496 8.63084C7.08405 8.62918 6.83289 8.6268 6.58203 8.62498C6.33112 8.62317 6.07998 8.62176 5.8291 8.6201C5.72001 8.61935 5.60761 8.62194 5.49316 8.62498C5.37901 8.62802 5.26257 8.63134 5.14648 8.63182C4.91439 8.63277 4.68031 8.62199 4.45996 8.57323C4.44136 8.56917 4.42899 8.55796 4.42188 8.54881C4.41477 8.5396 4.41015 8.52895 4.40723 8.52049C4.40142 8.50355 4.39889 8.48409 4.39844 8.46678C4.39801 8.44959 4.39926 8.43028 4.4043 8.41307C4.40685 8.40443 4.41096 8.39345 4.41797 8.38377C4.42508 8.37397 4.43813 8.36272 4.45703 8.35838L4.6416 8.32518C4.82931 8.29969 5.0241 8.29435 5.21777 8.29686C5.3469 8.29854 5.47673 8.30399 5.60352 8.30858Z" fill="#262626" stroke="black" stroke-width="0.1"/>
<path d="M0.202637 8.498L0.206543 8.48726L0.199707 8.48628H0.194824L0.195801 8.48531H0.191895C0.188938 8.48476 0.186536 8.48344 0.186035 8.48335H0.179199C0.177904 8.48342 0.175533 8.48475 0.172363 8.48531L0.161621 8.48433C0.152838 8.48443 0.144404 8.48475 0.137207 8.48531L0.132324 8.48628L0.126465 8.48726L0.0883789 8.49409L0.0854492 8.53316C0.0755881 8.6848 0.0751969 8.8403 0.0805664 8.99019C0.0812409 9.00769 0.08245 9.03714 0.0883789 9.06538C0.0939292 9.09176 0.106145 9.12975 0.138184 9.15327C0.149379 9.16145 0.16505 9.16831 0.183105 9.16792C0.201315 9.16747 0.216091 9.15981 0.226074 9.15132C0.243578 9.13634 0.252489 9.11422 0.257324 9.10054C0.267853 9.0706 0.27236 9.03572 0.272949 9.02339V9.02242C0.278582 8.86871 0.277243 8.71162 0.268066 8.55659L0.269043 8.55269L0.274902 8.51167L0.234863 8.498L0.206543 8.48824L0.202637 8.498ZM0.202637 8.498C0.200391 8.49351 0.200606 8.48936 0.19873 8.48824C0.197579 8.48774 0.196038 8.48771 0.194824 8.48726L0.189941 8.53511L0.212402 8.54195C0.214018 8.52377 0.207693 8.50812 0.202637 8.498Z" fill="#262626" stroke="black" stroke-width="0.1"/>
<path d="M6.24854 8.78438C6.51868 8.78835 6.79018 8.8023 7.04932 8.85078L7.07568 8.86153C7.08304 8.86659 7.0889 8.87259 7.09326 8.87813C7.10185 8.8891 7.107 8.90217 7.11084 8.91328C7.11851 8.93552 7.12289 8.9614 7.12354 8.98555C7.12416 9.00968 7.12132 9.03619 7.11475 9.05879C7.11144 9.07005 7.10641 9.08351 7.09814 9.09492C7.08977 9.10642 7.07527 9.11886 7.0542 9.12325C6.77257 9.18217 6.47415 9.1847 6.17822 9.17012C5.8785 9.15534 5.5886 9.12502 5.30811 9.11836C4.72699 9.10446 4.14609 9.09901 3.56885 9.13887C2.72136 9.19736 1.86084 9.21944 1.00635 9.20821L0.153809 9.18575C0.131055 9.18478 0.113847 9.17324 0.103027 9.16133C0.0927761 9.15003 0.0858909 9.13682 0.081543 9.1252C0.0728112 9.10176 0.0694117 9.07353 0.0688477 9.04805C0.0683152 9.02249 0.0708703 8.99359 0.0786133 8.96992C0.0824489 8.95831 0.0881954 8.94444 0.0981445 8.93282C0.108788 8.92039 0.126546 8.90825 0.149902 8.90742C0.743731 8.88504 1.33756 8.89688 1.9292 8.9045C2.52157 8.91212 3.11257 8.91572 3.70264 8.87617C4.28592 8.83704 4.8536 8.75986 5.44971 8.77852C5.70957 8.78661 5.97586 8.78038 6.24854 8.78438Z" fill="#262626" stroke="black" stroke-width="0.1"/>
<path d="M10.0764 8.78218C10.0899 8.79317 10.1 8.80774 10.1057 8.81929L10.1194 8.85933L10.1292 8.90913V8.91011C10.1337 8.93271 10.1424 8.99283 10.1409 9.04976C10.1401 9.07772 10.1367 9.10902 10.1272 9.1357C10.1179 9.16151 10.0967 9.19726 10.053 9.20406C9.60848 9.27331 9.08069 9.20944 8.64282 9.19038C8.18183 9.17045 7.71017 9.14779 7.25024 9.08492C7.23067 9.08231 7.21741 9.07137 7.21021 9.06245C7.20315 9.05362 7.1991 9.04355 7.19653 9.03609C7.19135 9.02096 7.18909 9.00409 7.18872 8.98921C7.18836 8.97444 7.18932 8.95756 7.1936 8.94234C7.19575 8.93481 7.19993 8.92504 7.2063 8.91597C7.21275 8.90682 7.22495 8.89456 7.24438 8.89058L7.42017 8.86226C7.59678 8.84169 7.77301 8.84203 7.94751 8.84956C8.18221 8.8597 8.40996 8.88164 8.63989 8.87984C8.68054 8.87955 8.78616 8.88505 8.91724 8.89058C9.05015 8.89619 9.21267 8.90177 9.37134 8.9023C9.5305 8.90282 9.68395 8.89787 9.79907 8.88277C9.857 8.87515 9.90303 8.86528 9.93384 8.85347C9.94883 8.8477 9.95791 8.84201 9.96313 8.83784C9.96816 8.83377 9.96687 8.83323 9.96606 8.83687C9.96997 8.81924 9.97803 8.79378 9.99927 8.77827C10.0121 8.76889 10.028 8.76418 10.0442 8.76656C10.0587 8.76875 10.0695 8.77653 10.0764 8.78218Z" fill="#262626" stroke="black" stroke-width="0.1"/>
<path d="M1.57471 3.86588C1.59375 3.86236 1.61016 3.86805 1.62061 3.87466C1.63956 3.88672 1.65095 3.90694 1.65771 3.92252C1.66521 3.93985 1.67092 3.96057 1.67236 3.98209V3.98306C1.74912 5.18528 1.72934 6.44174 1.66357 7.64322V7.6442C1.66236 7.66417 1.65879 7.69339 1.64795 7.72037C1.63739 7.7466 1.61475 7.78171 1.5708 7.79166L1.55811 7.79459L1.54541 7.79068L1.52979 7.78677L1.52393 7.78482C1.50119 7.77486 1.48629 7.75678 1.47705 7.74088C1.46777 7.72485 1.4624 7.7069 1.4585 7.69107C1.45072 7.65953 1.44901 7.62688 1.44873 7.60806C1.43232 6.40163 1.45919 5.16844 1.51514 3.96353C1.51634 3.939 1.52025 3.91283 1.53369 3.89322C1.54149 3.88202 1.55524 3.86956 1.57471 3.86588Z" fill="#262626" stroke="black" stroke-width="0.1"/>
<path d="M2.82104 3.87584L2.83862 3.90904L2.87476 4.04478C2.90194 4.18157 2.90345 4.31966 2.89722 4.45787C2.88012 4.84105 2.8799 5.22179 2.89331 5.60533C2.89895 5.76523 2.90905 5.9306 2.9187 6.09947C2.92834 6.26815 2.93785 6.44039 2.94214 6.61217C2.9507 6.95567 2.93833 7.3012 2.86792 7.62291C2.86323 7.64433 2.85509 7.66896 2.83667 7.68541C2.82631 7.69462 2.81268 7.70109 2.79663 7.70201C2.78111 7.70286 2.76814 7.69791 2.75854 7.69225C2.74065 7.68163 2.72878 7.66483 2.72144 7.65123L2.70386 7.6024C2.64644 7.30266 2.65092 6.98659 2.66772 6.67369C2.68465 6.35869 2.7135 6.04882 2.70679 5.75279C2.70014 5.46231 2.71445 5.16337 2.72241 4.869C2.73039 4.57372 2.73256 4.28151 2.70288 3.99889C2.70156 3.98697 2.70307 3.96987 2.70483 3.95787C2.70687 3.9441 2.71004 3.92753 2.7146 3.91295C2.71688 3.9057 2.71997 3.89652 2.72437 3.88853C2.72745 3.88294 2.73733 3.86707 2.75659 3.85924C2.76849 3.85445 2.78241 3.85362 2.79565 3.85826C2.80771 3.86252 2.8162 3.87023 2.82104 3.87584Z" fill="#262626" stroke="black" stroke-width="0.1"/>
<path d="M4.50024 3.80876C4.52942 3.79874 4.55207 3.8152 4.56079 3.82341C4.56993 3.83214 4.57621 3.84277 4.58032 3.85075C4.58908 3.86782 4.59554 3.88909 4.59985 3.90837C4.604 3.92694 4.60779 3.9495 4.60571 3.96892C4.53662 4.61446 4.60498 5.27623 4.61646 5.93474C4.62646 6.4925 4.66165 7.06121 4.64673 7.62321V7.62419C4.64577 7.65732 4.63962 7.68696 4.62817 7.71013C4.61762 7.73141 4.59552 7.7586 4.55884 7.75993C4.52113 7.76127 4.49696 7.7344 4.4856 7.71306C4.47344 7.69014 4.46681 7.66047 4.46509 7.62712C4.43113 6.9647 4.4425 6.29823 4.44165 5.63786C4.44122 5.34869 4.42192 5.06123 4.41333 4.76775C4.40479 4.47586 4.40741 4.18149 4.45142 3.88884C4.45366 3.87399 4.4562 3.85977 4.46118 3.84782C4.46515 3.83835 4.47584 3.81715 4.50024 3.80876Z" fill="#262626" stroke="black" stroke-width="0.1"/>
<path d="M5.74634 3.84947C5.76758 3.84518 5.78475 3.85357 5.79517 3.86119C5.81384 3.87485 5.82434 3.89658 5.83032 3.91295C5.8371 3.93154 5.84197 3.95354 5.84302 3.97643C5.87547 4.65555 5.86304 5.34163 5.86743 6.01842C5.86917 6.28676 5.89603 6.57355 5.90747 6.869C5.91878 7.16107 5.91454 7.45613 5.85278 7.72545C5.84803 7.74613 5.83918 7.76557 5.82642 7.78111C5.81382 7.79643 5.79481 7.81041 5.76978 7.81236C5.74333 7.81429 5.72119 7.80189 5.7063 7.78502C5.6921 7.76891 5.68365 7.74814 5.67896 7.72643C5.61543 7.43308 5.60935 7.11419 5.61938 6.79771C5.62953 6.4779 5.65499 6.16636 5.65649 5.87291C5.6598 5.23755 5.64384 4.5912 5.68579 3.95299C5.68761 3.92577 5.69264 3.89855 5.70532 3.87877C5.71228 3.86795 5.72541 3.85379 5.74634 3.84947Z" fill="#262626" stroke="black" stroke-width="0.1"/>
<path d="M7.59619 3.85139L7.62354 3.8719C7.64768 3.89626 7.66002 3.93092 7.66748 3.95979C7.6783 4.00179 7.68405 4.05179 7.68604 4.10042C7.68804 4.14968 7.68723 4.20022 7.68604 4.243C7.68481 4.28673 7.68295 4.32018 7.68311 4.34065C7.68581 4.68653 7.69244 5.0326 7.69971 5.37874C7.70342 5.55703 7.71174 5.73992 7.72119 5.92561C7.73064 6.11116 7.74088 6.2999 7.74658 6.48811C7.75797 6.86449 7.7525 7.2429 7.69092 7.60237C7.68621 7.62981 7.67695 7.65947 7.65674 7.67854C7.64519 7.68934 7.62977 7.69667 7.61182 7.6971C7.5946 7.69738 7.57972 7.69095 7.56982 7.6844C7.55134 7.67206 7.53841 7.65295 7.52979 7.63655C7.52057 7.61897 7.51316 7.59842 7.50928 7.57796C7.45378 7.28357 7.49466 6.98257 7.50439 6.70003C7.51794 6.31268 7.51171 5.92504 7.50537 5.53596C7.49719 5.02774 7.443 4.46845 7.49072 3.95393C7.49126 3.94804 7.49315 3.92322 7.49951 3.90218C7.5025 3.89238 7.50885 3.87539 7.52295 3.86214C7.53104 3.85457 7.5423 3.84668 7.55713 3.84456L7.59619 3.85139Z" fill="#262626" stroke="black" stroke-width="0.1"/>
<path d="M8.823 3.86105C8.84198 3.87124 8.85057 3.88892 8.85327 3.89523C8.86058 3.91235 8.86443 3.9351 8.86694 3.95383C8.86964 3.97397 8.87134 3.99556 8.87183 4.0134C8.87206 4.02211 8.87215 4.03052 8.87183 4.03781C8.87158 4.04302 8.87028 4.05436 8.86694 4.06418C8.82645 4.18175 8.81809 4.31805 8.82007 4.46066C8.82106 4.53163 8.82472 4.60329 8.82788 4.67453C8.83102 4.74534 8.83361 4.81596 8.83276 4.88351C8.82874 5.21334 8.82456 5.54275 8.82788 5.8718C8.82922 6.00805 8.83606 6.15012 8.84351 6.29562C8.85093 6.44081 8.8592 6.58959 8.86304 6.73801C8.87071 7.03461 8.86136 7.33393 8.79468 7.6091C8.7903 7.62712 8.78501 7.64346 8.77808 7.65695C8.77144 7.66982 8.76108 7.68447 8.74487 7.69406C8.72595 7.70516 8.70454 7.70608 8.68628 7.69894C8.67044 7.69275 8.65949 7.68139 8.6521 7.67258C8.63727 7.65485 8.62617 7.63147 8.6189 7.61008C8.61141 7.58791 8.60535 7.5624 8.60425 7.53976C8.56563 6.74341 8.60489 5.92021 8.63354 5.12668C8.64431 4.83087 8.63403 4.51603 8.65796 4.21457C8.66175 4.16568 8.66365 4.10358 8.67456 4.04562C8.68575 3.98642 8.70732 3.92391 8.75366 3.87375C8.75886 3.86814 8.76787 3.86004 8.78101 3.85617C8.79585 3.85183 8.81086 3.85459 8.823 3.86105Z" fill="#262626" stroke="black" stroke-width="0.1"/>
<path d="M5.32593 0.0848389C5.34839 0.0793636 5.37065 0.0854917 5.38647 0.0994873C5.39941 0.111007 5.40602 0.125796 5.40991 0.136597C5.41787 0.158945 5.42096 0.187125 5.42163 0.210815C5.42231 0.235377 5.42127 0.260874 5.4187 0.282104C5.4174 0.292776 5.41493 0.303355 5.41284 0.312378C5.4112 0.319448 5.40791 0.332044 5.40112 0.342651C5.3325 0.448025 5.23718 0.518901 5.13745 0.57605C5.08764 0.604588 5.03549 0.630125 4.98511 0.655151C4.93433 0.680376 4.88482 0.704549 4.83765 0.731323C4.60758 0.862007 4.38507 1.00253 4.17358 1.16003C3.74922 1.47662 3.333 1.82086 2.88745 2.11707C2.48335 2.38565 2.06195 2.63325 1.65112 2.88855C1.23932 3.14447 0.836069 3.4095 0.4646 3.71667L0.423584 3.75085L0.392334 3.70789C0.375344 3.68475 0.359127 3.6632 0.341553 3.64343L0.335693 3.63757L0.315186 3.58972L0.310303 3.58191L0.288818 3.54675L0.320068 3.51843C0.71796 3.1687 1.15378 2.87741 1.59546 2.59949C2.03803 2.32101 2.48567 2.05634 2.91284 1.75671C3.13118 1.60354 3.34397 1.44215 3.5564 1.27917C3.76855 1.1164 3.9806 0.951575 4.198 0.793823C4.41027 0.639637 4.62559 0.483969 4.85425 0.348511C4.92657 0.305647 4.99408 0.255135 5.07495 0.203003C5.15188 0.153423 5.23593 0.107628 5.32593 0.0858154V0.0848389Z" fill="#262626" stroke="black" stroke-width="0.1"/>
<path d="M5.39893 0.0638885C5.57581 0.105313 5.72358 0.211064 5.85596 0.329514C5.93162 0.39725 6.00482 0.470735 6.07471 0.540451C6.14515 0.610719 6.21316 0.677494 6.28271 0.73381C6.6983 1.07012 7.10759 1.42844 7.5415 1.73186C8.39523 2.32903 9.31005 2.87216 10.0981 3.5717C10.1191 3.59024 10.1312 3.61589 10.1382 3.63908C10.1453 3.66295 10.1485 3.69002 10.1499 3.71623L10.1509 3.73772L10.1362 3.75334C10.1142 3.7762 10.0867 3.79935 10.0679 3.81682C10.0473 3.83593 10.0308 3.85333 10.019 3.87346L10.0181 3.87444C10.0164 3.87716 10.0148 3.88061 10.0132 3.88518L9.98877 3.95549L9.93311 3.90666C9.54838 3.56982 9.13693 3.26967 8.71826 2.976C8.30024 2.68278 7.8742 2.39518 7.46436 2.0844C7.04026 1.76296 6.59537 1.42136 6.20068 1.06096C5.89731 0.784081 5.64483 0.498262 5.28955 0.313889H5.28857C5.2714 0.304824 5.26223 0.289194 5.25732 0.279709C5.25198 0.269303 5.24821 0.25806 5.24561 0.247482C5.24033 0.225892 5.2378 0.200552 5.23779 0.17717C5.23781 0.15417 5.23974 0.128129 5.24658 0.106857C5.2499 0.0965504 5.25575 0.0831064 5.26611 0.071701C5.27784 0.0588258 5.29729 0.0472483 5.32178 0.0502167L5.39893 0.0638885Z" fill="#262626" stroke="black" stroke-width="0.1"/>
<path d="M10.104 3.62115C10.1195 3.63033 10.1276 3.64467 10.1313 3.6524C10.1396 3.66937 10.1442 3.69044 10.146 3.70807C10.1479 3.72659 10.1475 3.74717 10.145 3.76569C10.1438 3.77495 10.1417 3.78532 10.1382 3.79498C10.135 3.80377 10.1284 3.81584 10.1167 3.82623L10.1177 3.82721C9.98307 3.94613 9.87269 4.09519 9.76025 4.24615L9.72705 4.2901L9.68701 4.25397C9.65578 4.22594 9.6174 4.2067 9.57471 4.1983L9.52783 4.18854L9.53467 4.14166C9.53804 4.11946 9.54405 4.09274 9.55713 4.06842L9.60107 3.99615C9.64893 3.92602 9.70826 3.86079 9.76807 3.8067C9.85443 3.72868 9.9562 3.6784 10.0425 3.62311L10.0728 3.61334C10.0848 3.61291 10.0955 3.61619 10.104 3.62115Z" fill="#262626" stroke="black" stroke-width="0.1"/>
<path d="M5.26074 0.886719C5.31336 0.847707 5.37912 0.858652 5.43262 0.878906C5.48887 0.900213 5.54931 0.9382 5.60547 0.978516C5.6621 1.01918 5.71776 1.06473 5.76367 1.10352C5.81079 1.14333 5.84591 1.1735 5.86621 1.18848C6.22561 1.45325 6.5824 1.72187 6.93945 1.98926C7.84699 2.66856 8.78706 3.31636 9.77441 3.87109C9.79695 3.88375 9.81196 3.90385 9.82129 3.92285C9.83077 3.94219 9.8368 3.96438 9.84082 3.98633C9.84886 4.0303 9.84998 4.08143 9.8457 4.12793L9.84375 4.14844L9.82715 4.16211C9.80566 4.17946 9.78409 4.19688 9.7627 4.21387C9.74125 4.2309 9.71936 4.24759 9.69824 4.26465L9.67188 4.28613L9.6416 4.26855C8.6939 3.7071 7.78793 3.06428 6.91992 2.38867C6.36677 1.95822 5.76984 1.54194 5.25781 1.06152C5.24402 1.04851 5.23694 1.03104 5.2334 1.01953C5.22943 1.00653 5.22731 0.992222 5.22656 0.978516C5.22585 0.964851 5.22694 0.949168 5.23047 0.93457C5.23372 0.921303 5.24157 0.90085 5.26074 0.886719Z" fill="#262626" stroke="black" stroke-width="0.1"/>
<path d="M5.38403 0.77063L5.52661 0.873169L5.54614 0.886841L5.54712 0.909302C5.54948 0.938999 5.54992 0.970508 5.54517 0.999146C5.5405 1.02705 5.5308 1.05744 5.51001 1.08118C5.42116 1.18249 5.29733 1.26686 5.17407 1.3429C5.04817 1.42055 4.92468 1.48869 4.82251 1.56165C4.36619 1.8873 3.88741 2.18369 3.42505 2.49426C2.89786 2.84865 2.37114 3.20989 1.8313 3.54797C1.74912 3.59938 1.6632 3.64882 1.57739 3.69836C1.49125 3.7481 1.40428 3.79811 1.31958 3.84973C1.15027 3.95294 0.989887 4.06285 0.856689 4.19446C0.849064 4.20198 0.837364 4.20996 0.821533 4.21204C0.805316 4.21414 0.791185 4.20936 0.781494 4.20325C0.765005 4.19275 0.756078 4.17605 0.751221 4.16614C0.740064 4.14336 0.731497 4.11244 0.726807 4.08215C0.722009 4.0511 0.720278 4.01608 0.7229 3.9845C0.725239 3.95633 0.73214 3.91836 0.756104 3.8927L0.75708 3.89172C0.912718 3.72853 1.10166 3.59672 1.29517 3.47668C1.49217 3.3545 1.68652 3.24823 1.86938 3.12903C2.36287 2.8074 2.84604 2.47261 3.33618 2.14368C3.81562 1.82163 4.29601 1.50451 4.76978 1.1759C4.81429 1.14506 4.86229 1.11337 4.9104 1.08215C4.95858 1.0509 5.00767 1.01912 5.05591 0.98645C5.1527 0.920878 5.24527 0.852331 5.32056 0.776489L5.34985 0.746216L5.38403 0.77063Z" fill="#262626" stroke="black" stroke-width="0.1"/>
<path d="M0.442871 3.43173C0.482998 3.46091 0.52157 3.49929 0.555176 3.53525C0.590129 3.57266 0.618924 3.60619 0.645996 3.63193L0.92041 3.90244C0.954516 3.9362 0.969843 3.98182 0.976074 4.02158L0.97998 4.0499L0.95752 4.06747C0.908858 4.10709 0.861503 4.14838 0.814941 4.19052L0.778809 4.22275L0.745605 4.18857C0.658441 4.09978 0.570719 4.01043 0.486816 3.91708C0.43058 3.85414 0.375721 3.78943 0.32373 3.72177V3.72079C0.308158 3.70024 0.29626 3.6769 0.286621 3.65244L0.283691 3.65341C0.279853 3.64539 0.277541 3.63544 0.275879 3.62802L0.270996 3.61533L0.321777 3.60849L0.271973 3.61435L0.270996 3.60458L0.269043 3.58603L0.278809 3.57138C0.308613 3.52619 0.341199 3.4825 0.374512 3.44052L0.403809 3.40341L0.442871 3.43173Z" fill="#262626" stroke="black" stroke-width="0.1"/>
<path d="M5.88965 1.97678C6.31434 1.91032 6.74823 1.92424 7.10645 2.134C7.1196 2.14161 7.12672 2.15223 7.12988 2.15842C7.13334 2.16529 7.13552 2.17267 7.13672 2.17795C7.13907 2.18845 7.13986 2.19956 7.13965 2.2092C7.13943 2.21844 7.13769 2.23107 7.13379 2.2424C7.13196 2.24763 7.12781 2.25712 7.11914 2.26584C7.10802 2.27699 7.08885 2.2869 7.06641 2.28049L7.06543 2.27951C6.28654 2.04384 5.49706 2.2129 4.7334 2.47971C4.37169 2.6061 4.0469 2.79451 3.72168 2.99045C3.39765 3.18568 3.07206 3.38832 2.71289 3.53537V3.53635C2.69743 3.54255 2.67989 3.5414 2.66504 3.53342C2.65239 3.52661 2.64537 3.51641 2.6416 3.50998C2.63417 3.49725 2.63087 3.48323 2.62988 3.47287C2.62887 3.46188 2.62913 3.44775 2.63281 3.43478C2.63587 3.42416 2.64595 3.39928 2.67383 3.38986L2.8125 3.33713C2.94982 3.27721 3.08426 3.19859 3.21777 3.11349C3.39254 3.0021 3.57313 2.87394 3.74414 2.76974C4.05137 2.58259 4.35975 2.43295 4.69922 2.31271C5.041 2.19164 5.46455 2.0433 5.88965 1.97678Z" fill="#262626" stroke="black" stroke-width="0.1"/>
<path d="M2.36646 2.92699C2.39732 2.92124 2.4152 2.94341 2.41821 2.94749C2.42308 2.95415 2.42581 2.96077 2.427 2.9641C2.42847 2.96818 2.42914 2.97238 2.42993 2.97581C2.43147 2.98252 2.43235 2.98978 2.43286 2.99632C2.43311 2.99966 2.43398 3.00403 2.43384 3.00804C2.43374 3.01077 2.43286 3.01829 2.42993 3.0266V3.02757C2.39292 3.12743 2.33175 3.21173 2.27466 3.28929C2.21622 3.36869 2.16164 3.44075 2.12817 3.52367C2.12573 3.52974 2.12221 3.5385 2.11548 3.54613C2.10831 3.55416 2.09384 3.56561 2.07349 3.56566C2.05419 3.56564 2.04063 3.55506 2.03442 3.54906C2.02831 3.54305 2.02407 3.53678 2.02173 3.53246C2.01689 3.52343 2.01379 3.51341 2.01196 3.50609C2.01025 3.4992 2.00892 3.48893 2.00903 3.47972C2.01103 3.37814 2.0734 3.30537 2.12231 3.2473C2.201 3.15419 2.27802 3.05954 2.32837 2.95628C2.33001 2.95296 2.33325 2.94783 2.33813 2.94261C2.34316 2.93729 2.3526 2.92963 2.36646 2.92699Z" fill="#262626" stroke="black" stroke-width="0.1"/>
<path d="M2.72705 2.71875C2.75537 2.71736 2.77136 2.73709 2.7749 2.74219C2.78345 2.75451 2.78615 2.7697 2.7876 2.77734C2.78943 2.7871 2.79056 2.79845 2.79053 2.80859C2.79049 2.81373 2.7905 2.82021 2.78955 2.82617C2.78874 2.8312 2.787 2.84042 2.78174 2.84961C2.71795 2.96053 2.63478 3.08192 2.56592 3.19531C2.49499 3.31214 2.43322 3.42881 2.3999 3.54688C2.3981 3.55325 2.39472 3.56377 2.38721 3.57324C2.38308 3.57843 2.37621 3.58536 2.36572 3.58984C2.35427 3.59472 2.34174 3.59486 2.33057 3.5918C2.31217 3.58667 2.30239 3.57365 2.29932 3.56934C2.29509 3.56337 2.2915 3.55731 2.28955 3.55273C2.28556 3.54335 2.28267 3.53287 2.28076 3.52441C2.27936 3.51816 2.27693 3.50548 2.27783 3.49414V3.49316C2.28352 3.43115 2.30593 3.37672 2.33154 3.32812C2.34435 3.30384 2.35808 3.28016 2.37158 3.25781C2.3853 3.23511 2.39855 3.21397 2.41064 3.19238C2.49624 3.03972 2.59331 2.89225 2.68311 2.74609C2.68631 2.74087 2.6999 2.72027 2.72705 2.71875Z" fill="#262626" stroke="black" stroke-width="0.1"/>
<path d="M3.00049 2.61308C3.02967 2.61175 3.04518 2.63287 3.04834 2.6375C3.05708 2.65034 3.06118 2.66647 3.06299 2.67558C3.06522 2.68689 3.0658 2.69989 3.06592 2.71172C3.06597 2.71767 3.06588 2.72465 3.06494 2.73125C3.06412 2.73699 3.06214 2.74623 3.05713 2.75566V2.75664C2.97591 2.90643 2.89287 3.05531 2.80811 3.20293C2.78258 3.24743 2.75925 3.29926 2.729 3.3582C2.70197 3.41087 2.66863 3.4655 2.62842 3.50761C2.62731 3.50901 2.62775 3.51213 2.62646 3.51347L2.62354 3.51445V3.51543C2.61757 3.52133 2.60746 3.52766 2.59424 3.53008C2.58086 3.53242 2.56897 3.52982 2.56006 3.52519C2.54507 3.51726 2.53751 3.50405 2.53467 3.49883C2.52777 3.4861 2.52309 3.47033 2.521 3.45781C2.51884 3.44472 2.51774 3.42947 2.51904 3.41484C2.51933 3.4117 2.52113 3.40754 2.52197 3.40312C2.5224 3.40024 2.5212 3.39712 2.52197 3.39433L2.56299 3.29472C2.58027 3.26198 2.60068 3.23026 2.62061 3.2C2.66215 3.13689 2.70153 3.08286 2.73193 3.03105C2.80737 2.90218 2.88222 2.77263 2.95459 2.64238L2.96729 2.62675C2.97466 2.62008 2.98563 2.61384 3.00049 2.61308Z" fill="#262626" stroke="black" stroke-width="0.1"/>
<path d="M3.38428 2.3309C3.41264 2.33036 3.42738 2.35097 3.43018 2.35532C3.43722 2.3664 3.43983 2.37964 3.44092 2.38559C3.44235 2.39351 3.4438 2.40273 3.44385 2.41098C3.44386 2.41514 3.44356 2.42058 3.44287 2.42563C3.44228 2.42983 3.44056 2.43848 3.43604 2.44711C3.3832 2.54888 3.32798 2.64923 3.27295 2.74887C3.21771 2.84887 3.16236 2.94814 3.10986 3.04868C3.09594 3.07535 3.07629 3.10749 3.05615 3.14047C3.03571 3.17395 3.01378 3.20925 2.99365 3.24496C2.97341 3.2809 2.95569 3.31634 2.94287 3.34848C2.92982 3.3812 2.9235 3.40741 2.92334 3.42661L2.91553 3.46664C2.91144 3.4771 2.90341 3.49326 2.88721 3.50375C2.8781 3.50961 2.86375 3.51497 2.84717 3.51254C2.83067 3.50999 2.81834 3.50077 2.81104 3.49203C2.79847 3.47675 2.79509 3.45699 2.79346 3.44321C2.785 3.37103 2.80757 3.30447 2.83545 3.24692C2.84946 3.21801 2.86509 3.18977 2.88037 3.16391C2.89607 3.13734 2.91071 3.11296 2.92334 3.08969C3.05732 2.84265 3.20122 2.60073 3.33936 2.35825L3.35205 2.3436C3.35931 2.3373 3.36968 2.33129 3.38428 2.3309Z" fill="#262626" stroke="black" stroke-width="0.1"/>
<path d="M3.74023 2.09329C3.76938 2.09329 3.78284 2.11586 3.78516 2.11966C3.79232 2.13151 3.79496 2.14497 3.7959 2.15091C3.7972 2.15915 3.79786 2.1681 3.79785 2.1763C3.79784 2.18035 3.79745 2.18528 3.79688 2.18997C3.79641 2.19362 3.79532 2.20269 3.79102 2.21146C3.68861 2.42063 3.56821 2.62823 3.46289 2.83157C3.44557 2.86509 3.38597 2.95438 3.33594 3.03275C3.31009 3.07322 3.28663 3.11223 3.26953 3.14212C3.26092 3.15718 3.25471 3.16903 3.25098 3.17728C3.25009 3.17923 3.24949 3.18096 3.24902 3.18216L3.24805 3.18314L3.24902 3.18021L3.24707 3.16556L3.24902 3.20267C3.24809 3.21386 3.24582 3.22757 3.24219 3.23978C3.24042 3.24563 3.23841 3.25317 3.23438 3.26028C3.2309 3.26633 3.22139 3.28046 3.2041 3.28763C3.18171 3.29676 3.16034 3.28896 3.14746 3.27884C3.13707 3.27055 3.13082 3.25992 3.12695 3.25247C3.08721 3.17571 3.12238 3.09684 3.15625 3.04153C3.17422 3.01223 3.19472 2.98356 3.21289 2.9595C3.23189 2.93435 3.2473 2.91505 3.25684 2.89896C3.33186 2.77173 3.40162 2.64138 3.47266 2.51028C3.5435 2.37956 3.61545 2.24782 3.69434 2.11966C3.69677 2.11574 3.71135 2.09351 3.74023 2.09329Z" fill="#262626" stroke="black" stroke-width="0.1"/>
<path d="M4.04663 1.89906C4.07749 1.89766 4.09262 1.92145 4.09448 1.92445C4.10157 1.93589 4.10411 1.94942 4.10522 1.9557C4.10669 1.96404 4.10703 1.9736 4.10718 1.98207C4.10724 1.98638 4.10772 1.99176 4.10718 1.99672C4.10675 2.00066 4.10519 2.00867 4.10132 2.01723V2.0182C4.01281 2.20851 3.91736 2.3972 3.8269 2.58461C3.8113 2.617 3.79605 2.65227 3.78003 2.6891C3.76416 2.72558 3.74724 2.76385 3.72925 2.80141C3.69776 2.86712 3.65792 2.93117 3.61011 2.98695L3.59741 3.09828L3.55444 3.02895C3.55091 3.02942 3.5476 3.03208 3.5437 3.03188C3.52106 3.03057 3.50617 3.01748 3.49878 3.00844C3.48499 2.99154 3.4796 2.96933 3.47729 2.95375C3.47508 2.93863 3.47544 2.92035 3.47925 2.90297L3.47339 2.89418L3.49292 2.8727C3.49491 2.86986 3.49521 2.86562 3.4978 2.86293C3.49941 2.86126 3.50187 2.86053 3.50366 2.85902C3.55388 2.79998 3.59592 2.72899 3.63452 2.65199C3.65453 2.61206 3.67311 2.57089 3.69214 2.52992C3.71111 2.48907 3.73092 2.44719 3.75073 2.40785C3.83195 2.24635 3.91533 2.08604 4.00171 1.92738L4.01343 1.91273C4.02059 1.90604 4.03151 1.89978 4.04663 1.89906Z" fill="#262626" stroke="black" stroke-width="0.1"/>
<path d="M4.37256 1.7012C4.40114 1.70179 4.41422 1.72357 4.4165 1.72757C4.42254 1.73822 4.42462 1.75034 4.42529 1.75491C4.42626 1.76151 4.42725 1.76891 4.42725 1.77542C4.42724 1.77871 4.42673 1.78314 4.42627 1.78714L4.42139 1.80569C4.31437 2.04095 4.19387 2.25789 4.10889 2.49417C4.09933 2.52076 4.08969 2.55317 4.07764 2.59085C4.06583 2.62775 4.05181 2.66859 4.03564 2.70804C4.00458 2.78377 3.95952 2.86772 3.88623 2.90823C3.87214 2.91598 3.85364 2.91895 3.83545 2.91214C3.81939 2.9061 3.80948 2.89466 3.8042 2.88675C3.79395 2.87133 3.78939 2.85273 3.7876 2.8389C3.78569 2.824 3.78545 2.80682 3.78857 2.79105C3.79108 2.7785 3.79886 2.75217 3.82373 2.73734L3.86377 2.70511C3.90095 2.66642 3.93092 2.60889 3.95752 2.53909C3.97481 2.49373 3.98924 2.44631 4.00439 2.39944C4.01926 2.35348 4.03475 2.30716 4.05225 2.26761C4.13359 2.08386 4.22164 1.90061 4.32666 1.72659L4.33838 1.71292C4.34584 1.70663 4.35733 1.70098 4.37256 1.7012Z" fill="#262626" stroke="black" stroke-width="0.1"/>
<path d="M4.72192 1.47887C4.72812 1.48405 4.73258 1.49019 4.73462 1.49352C4.74154 1.50494 4.74493 1.51849 4.74634 1.52574C4.74816 1.53511 4.74902 1.54617 4.74927 1.55602C4.74937 1.56082 4.74889 1.56618 4.74829 1.57164L4.74243 1.5941C4.6653 1.76182 4.59742 1.93364 4.52661 2.1068C4.45601 2.27943 4.38302 2.45319 4.29517 2.62047C4.29159 2.62726 4.28477 2.63783 4.27368 2.64586C4.25958 2.65601 4.23861 2.66117 4.21802 2.65172C4.20228 2.6444 4.19392 2.63107 4.19067 2.62535C4.18685 2.61852 4.18448 2.61134 4.18286 2.60582C4.17959 2.59458 4.17759 2.58237 4.177 2.57164C4.17655 2.56305 4.17624 2.54617 4.18188 2.5316L4.40161 2.01012C4.47917 1.83715 4.56009 1.66581 4.64087 1.4984L4.65259 1.4818C4.65931 1.4753 4.67117 1.46749 4.68774 1.46715C4.70367 1.46687 4.71546 1.47358 4.72192 1.47887Z" fill="#262626" stroke="black" stroke-width="0.1"/>
<path d="M4.98218 1.30246C5.0102 1.3034 5.02383 1.32496 5.02612 1.32883C5.03259 1.34001 5.03428 1.35272 5.03491 1.35715C5.03585 1.36386 5.03601 1.37105 5.03589 1.37766C5.03582 1.38104 5.03552 1.38517 5.03491 1.38937C5.03448 1.39236 5.03343 1.40044 5.02905 1.40891C4.93961 1.58125 4.87839 1.77363 4.80933 1.96945C4.74101 2.16316 4.66529 2.35929 4.54663 2.52805C4.54212 2.53442 4.53121 2.54771 4.51245 2.55246C4.48969 2.55807 4.47143 2.54791 4.46167 2.53879C4.45335 2.53087 4.44836 2.52161 4.44604 2.51633C4.44345 2.51032 4.44145 2.50397 4.44019 2.49875C4.43766 2.48832 4.43661 2.47651 4.43628 2.46652C4.43614 2.46167 4.43572 2.45627 4.43628 2.4509C4.43675 2.44649 4.43838 2.43699 4.44312 2.42746C4.5282 2.25345 4.59373 2.06483 4.66772 1.87375C4.74111 1.68424 4.82251 1.49409 4.93726 1.3259L4.94995 1.31223C4.95741 1.3067 4.96811 1.30203 4.98218 1.30246Z" fill="#262626" stroke="black" stroke-width="0.1"/>
<path d="M5.31079 1.1297C5.31724 1.13474 5.3216 1.14044 5.32349 1.14337C5.32966 1.15314 5.33223 1.1643 5.33325 1.16876C5.33473 1.17524 5.33562 1.18267 5.33618 1.18927C5.33646 1.19261 5.33728 1.1969 5.33716 1.20099C5.33707 1.20397 5.33607 1.21135 5.33325 1.21954C5.25844 1.43864 5.16393 1.65797 5.08521 1.87091C5.05907 1.94153 5.02794 2.01097 4.99829 2.07794C4.96843 2.1454 4.94023 2.21146 4.91724 2.27814L4.89673 2.33966C4.89097 2.35502 4.88077 2.37237 4.86841 2.38947C4.86742 2.39154 4.86766 2.39428 4.86646 2.3963C4.86346 2.40129 4.85672 2.40693 4.84888 2.4129L4.84985 2.41388C4.83747 2.42433 4.81733 2.43195 4.79517 2.42462C4.77739 2.41869 4.76718 2.40573 4.76294 2.39923C4.75404 2.38548 4.75036 2.36876 4.74829 2.35626C4.74806 2.35486 4.74849 2.35282 4.74829 2.35138L4.74731 2.34943C4.7449 2.33731 4.74248 2.32019 4.74634 2.30353L4.79224 2.16583C4.8109 2.12088 4.83228 2.07651 4.85376 2.034C4.89753 1.94739 4.9411 1.86683 4.97192 1.78595C5.05318 1.57285 5.14669 1.36104 5.23071 1.15216C5.23207 1.14886 5.23527 1.14255 5.24048 1.13654C5.24585 1.13037 5.25685 1.12085 5.27368 1.11896C5.29081 1.1171 5.30392 1.12438 5.31079 1.1297Z" fill="#262626" stroke="black" stroke-width="0.1"/>
<path d="M5.53833 1.11235C5.56758 1.11287 5.58146 1.13575 5.58325 1.13872C5.58999 1.14999 5.59294 1.1628 5.59399 1.16899C5.59539 1.1773 5.59596 1.18681 5.59595 1.19536C5.59594 1.19964 5.59566 1.20493 5.59497 1.21001C5.59438 1.2142 5.59257 1.22289 5.58813 1.23149C5.48418 1.43395 5.40136 1.65522 5.34302 1.87602C5.30863 2.00656 5.27911 2.15335 5.19165 2.27837C5.1864 2.28586 5.17386 2.3009 5.15259 2.30473C5.12875 2.3089 5.11136 2.29675 5.10278 2.28813C5.09488 2.28007 5.0898 2.27086 5.08716 2.26469C5.08431 2.25797 5.08183 2.25063 5.08032 2.24419C5.07733 2.23124 5.07611 2.21582 5.07642 2.20219C5.07659 2.19554 5.07681 2.1881 5.07837 2.18071C5.07987 2.17369 5.08329 2.16324 5.09009 2.15337L5.15552 2.03227C5.17377 1.98957 5.1892 1.94445 5.20337 1.89751C5.23074 1.80682 5.2554 1.70084 5.28735 1.60844C5.34287 1.44798 5.4039 1.29048 5.49146 1.13969C5.49362 1.13599 5.50801 1.11204 5.53833 1.11235Z" fill="#262626" stroke="black" stroke-width="0.1"/>
<path d="M5.74487 1.27489C5.75959 1.28309 5.76603 1.29663 5.76733 1.2993C5.76957 1.30391 5.77139 1.30808 5.77222 1.31102C5.77389 1.31708 5.7746 1.32371 5.77515 1.3286C5.77545 1.3314 5.77673 1.34095 5.77515 1.35008L5.77417 1.35204C5.74192 1.50269 5.67754 1.65434 5.63354 1.79149C5.58961 1.92841 5.55473 2.08932 5.48413 2.22899C5.48074 2.23572 5.47475 2.247 5.46362 2.25536C5.45738 2.26001 5.44764 2.26468 5.43628 2.2661C5.42465 2.26746 5.41377 2.26468 5.40503 2.26024C5.38965 2.25235 5.38158 2.23935 5.37866 2.23387C5.37507 2.22705 5.37337 2.21989 5.37183 2.21434C5.36865 2.20289 5.36656 2.19008 5.36597 2.17918C5.36551 2.17058 5.36571 2.15422 5.37085 2.14012C5.47122 1.86509 5.56739 1.58224 5.66968 1.30614L5.67065 1.30516C5.67205 1.3015 5.67575 1.29201 5.68433 1.28368C5.68927 1.27889 5.69817 1.27246 5.71069 1.27C5.72384 1.26752 5.73588 1.26997 5.74487 1.27489Z" fill="#262626" stroke="black" stroke-width="0.1"/>
<path d="M5.95972 1.42545C5.97217 1.43434 5.97824 1.44638 5.98022 1.45084C5.98288 1.45684 5.98481 1.46333 5.98608 1.46841C5.98866 1.47877 5.9903 1.4905 5.99097 1.50064C5.9913 1.5058 5.99123 1.5118 5.99097 1.51724C5.99074 1.52177 5.98983 1.52953 5.98706 1.53775V1.53873C5.96681 1.59664 5.94728 1.65517 5.92749 1.71353C5.90775 1.77176 5.88726 1.83 5.86694 1.88834C5.85069 1.93511 5.83977 1.97898 5.823 2.03091C5.80724 2.07964 5.78845 2.13039 5.7605 2.1774C5.7568 2.18359 5.74597 2.199 5.72534 2.20474C5.69952 2.21188 5.6801 2.1987 5.67163 2.19009C5.66397 2.18227 5.65923 2.1738 5.65698 2.16861C5.65447 2.16274 5.6525 2.15639 5.65112 2.15103C5.64836 2.14019 5.64684 2.12752 5.64624 2.11685C5.64596 2.11166 5.6458 2.10594 5.64624 2.10025C5.64662 2.09551 5.64768 2.08553 5.6521 2.07584L5.71362 1.9274C5.73254 1.87658 5.74983 1.82459 5.76733 1.77213C5.80208 1.66802 5.83637 1.56035 5.87573 1.4567L5.89331 1.42935C5.89985 1.42362 5.91105 1.41665 5.92554 1.41568C5.94023 1.41472 5.95203 1.42 5.95972 1.42545Z" fill="#262626" stroke="black" stroke-width="0.1"/>
<path d="M6.125 1.51521C6.15418 1.50977 6.17174 1.52928 6.17676 1.53572C6.18256 1.5432 6.18588 1.55075 6.1875 1.55525C6.18938 1.56052 6.19137 1.56615 6.19238 1.57088C6.19437 1.58017 6.19582 1.59027 6.19629 1.5992C6.19652 1.6037 6.19659 1.60891 6.19629 1.61385C6.19607 1.6174 6.19507 1.62624 6.19141 1.63533C6.16114 1.70999 6.13778 1.7891 6.1123 1.87068C6.08718 1.95115 6.05979 2.03378 6.02344 2.11189C6.02036 2.11851 6.01488 2.12973 6.00488 2.13826C5.99234 2.14889 5.97031 2.15683 5.94727 2.14705C5.93067 2.13988 5.92193 2.12685 5.91895 2.12166C5.91509 2.11494 5.91275 2.10734 5.91113 2.10213C5.90791 2.09161 5.90631 2.08019 5.90527 2.07088C5.90444 2.06335 5.90305 2.05009 5.90527 2.03865L5.93555 1.9117C5.97136 1.78378 6.02382 1.65532 6.08691 1.54353L6.09766 1.52888C6.10379 1.52303 6.11292 1.51751 6.125 1.51521Z" fill="#262626" stroke="black" stroke-width="0.1"/>
<path d="M6.32007 1.69843C6.34712 1.68868 6.36836 1.7034 6.37671 1.7121C6.38404 1.71983 6.38775 1.72862 6.3894 1.7326C6.39142 1.7375 6.39324 1.74224 6.39429 1.74628C6.39644 1.75455 6.39739 1.7635 6.39819 1.77069C6.39858 1.77418 6.39906 1.77785 6.39917 1.78143C6.39922 1.78333 6.39927 1.79176 6.39722 1.79999C6.38481 1.85105 6.36647 1.90049 6.34741 1.94745C6.32765 1.99611 6.3078 2.04072 6.29077 2.08612C6.28822 2.09278 6.28418 2.10288 6.27612 2.11151C6.26645 2.12175 6.24678 2.13403 6.22241 2.12811C6.20351 2.12345 6.19288 2.10974 6.18921 2.10468C6.18465 2.09832 6.1814 2.09187 6.17944 2.0871C6.17542 2.07727 6.17333 2.06638 6.17163 2.0578C6.17024 2.05069 6.16783 2.03801 6.1687 2.02753L6.1853 1.94257C6.19367 1.91541 6.20509 1.88918 6.21655 1.86444C6.23903 1.81602 6.26671 1.76726 6.28882 1.72577L6.32007 1.69843Z" fill="#262626" stroke="black" stroke-width="0.1"/>
<path d="M2.38477 4.59244C2.65404 4.64618 2.79666 4.90386 2.81738 5.14127C2.81849 5.15423 2.81579 5.16801 2.81348 5.17838C2.81104 5.18929 2.80695 5.20303 2.80078 5.21451C2.79783 5.21992 2.79234 5.22795 2.78418 5.23502C2.77543 5.24254 2.75717 5.25408 2.7334 5.24771C2.71254 5.24194 2.70154 5.22597 2.69727 5.21841C2.69236 5.20968 2.68963 5.19962 2.6875 5.19107C2.65527 5.06233 2.5985 4.94766 2.51758 4.86685C2.43794 4.78733 2.33261 4.73891 2.19336 4.74478C2.05455 4.75078 1.95332 4.77873 1.86914 4.82974C1.82677 4.85547 1.78766 4.88787 1.74902 4.9274L1.63281 5.069C1.62905 5.07426 1.61829 5.08758 1.59863 5.09146C1.5742 5.09607 1.55634 5.08318 1.54883 5.07486C1.54193 5.06714 1.53866 5.05856 1.53711 5.05435C1.53529 5.04942 1.53398 5.04469 1.5332 5.04068C1.53166 5.03274 1.53112 5.02415 1.53125 5.01627C1.53133 5.01234 1.53141 5.00744 1.53223 5.00259C1.53293 4.99853 1.53499 4.98974 1.54004 4.98111L1.61328 4.87271C1.69115 4.77182 1.78345 4.69348 1.89062 4.64224C2.03391 4.57374 2.19955 4.5555 2.38477 4.59244Z" fill="#262626" stroke="black" stroke-width="0.1"/>
<path d="M5.25146 4.59418C5.36092 4.60532 5.48283 4.62678 5.58252 4.68011C5.68471 4.73486 5.76471 4.82389 5.78467 4.96429C5.78631 4.97597 5.78398 4.99048 5.78271 4.99847C5.78111 5.00846 5.77869 5.02078 5.7749 5.03168C5.77305 5.03697 5.77009 5.04365 5.76611 5.05023C5.76328 5.05489 5.7538 5.07004 5.73486 5.0766C5.72359 5.0805 5.71072 5.08092 5.69873 5.0766C5.68807 5.07274 5.68084 5.06601 5.67627 5.06097C5.66784 5.0515 5.66314 5.03987 5.66064 5.03265C5.62658 4.93388 5.55382 4.87364 5.46045 4.83636C5.36578 4.79857 5.25275 4.78564 5.146 4.78265C4.99017 4.77838 4.87869 4.80167 4.79248 4.85687C4.70641 4.91199 4.63774 5.00355 4.57666 5.15082C4.57442 5.15625 4.56978 5.16813 4.55908 5.17719C4.55297 5.18231 4.54324 5.18836 4.53076 5.18988C4.51768 5.19137 4.5059 5.18695 4.49756 5.18207C4.48382 5.17397 4.47736 5.16213 4.4751 5.15765C4.47211 5.15172 4.46957 5.14574 4.46826 5.14105C4.46563 5.13155 4.46402 5.12094 4.46338 5.11176C4.46306 5.10703 4.46308 5.10135 4.46338 5.09613C4.46364 5.09172 4.46427 5.08387 4.46729 5.07562L4.51709 4.94379C4.53426 4.90207 4.55274 4.86267 4.57568 4.8266C4.62346 4.75167 4.68903 4.691 4.79248 4.64301C4.93241 4.57803 5.11308 4.58014 5.25146 4.59418Z" fill="#262626" stroke="black" stroke-width="0.1"/>
<path d="M8.00342 4.57539C8.28457 4.50776 8.5743 4.63413 8.70557 4.88399L8.75146 4.99825C8.75367 5.00591 8.75422 5.01439 8.75439 5.01778C8.75463 5.0226 8.75449 5.02797 8.75439 5.0334C8.7542 5.04452 8.75307 5.05813 8.75146 5.07051C8.75066 5.07664 8.75005 5.08372 8.74854 5.09004C8.74719 5.09557 8.74469 5.10492 8.73975 5.11348C8.73675 5.11863 8.71895 5.14625 8.68408 5.14082C8.66961 5.13846 8.65906 5.13129 8.65381 5.12617C8.64846 5.12091 8.64539 5.11461 8.64307 5.11055H8.64209C8.52592 4.90733 8.37395 4.73768 8.13916 4.7541C8.05654 4.75992 7.93038 4.78816 7.83057 4.842C7.72889 4.8969 7.67228 4.96757 7.68408 5.05391C7.68556 5.06493 7.68441 5.07613 7.68311 5.08321C7.68169 5.09084 7.67858 5.10068 7.67432 5.10957C7.67232 5.1137 7.6686 5.12136 7.66162 5.12813C7.6545 5.13503 7.6353 5.14787 7.60986 5.14082C7.58918 5.13496 7.57977 5.11927 7.57666 5.11348C7.57285 5.10628 7.5702 5.0987 7.56885 5.09297C7.53497 4.94969 7.59077 4.83068 7.68018 4.74434C7.76826 4.65928 7.89099 4.60246 8.00342 4.57539Z" fill="#262626" stroke="black" stroke-width="0.1"/>
<path d="M1.85693 3.84248C1.88766 3.83759 1.90453 3.85941 1.90771 3.86397C1.91244 3.87082 1.91447 3.87829 1.91553 3.88155C1.91677 3.88542 1.91781 3.88909 1.91846 3.89229C1.91976 3.89877 1.92101 3.90571 1.92139 3.91182C1.92157 3.91493 1.92153 3.91892 1.92139 3.92256C1.92129 3.92494 1.92112 3.93226 1.91846 3.94014V3.94112C1.88397 4.03715 1.8257 4.13014 1.78467 4.21162C1.73636 4.30749 1.69791 4.40049 1.6499 4.50069C1.64822 4.50414 1.64553 4.50931 1.64111 4.51436C1.63669 4.51941 1.62738 4.52746 1.61377 4.53096C1.58091 4.53912 1.56147 4.51418 1.55811 4.50948C1.55296 4.5022 1.55058 4.49472 1.54932 4.49092C1.54775 4.48623 1.54628 4.48136 1.54541 4.47725C1.54369 4.46907 1.54211 4.46032 1.5415 4.45284C1.5412 4.44907 1.5415 4.44502 1.5415 4.44112C1.54151 4.43871 1.54139 4.43133 1.54346 4.42354V4.42256C1.5724 4.31842 1.6188 4.22343 1.66846 4.1335C1.69324 4.08862 1.71928 4.04416 1.74463 4.00069C1.77015 3.95693 1.79462 3.91352 1.81787 3.86983L1.82764 3.85713C1.83271 3.852 1.84295 3.84479 1.85693 3.84248Z" fill="#262626" stroke="black" stroke-width="0.1"/>
<path d="M2.12427 3.8631C2.15241 3.86242 2.16696 3.88262 2.17017 3.88751C2.17767 3.89918 2.18073 3.9133 2.18188 3.91974C2.18342 3.92837 2.1848 3.93822 2.18481 3.94708C2.18482 3.95146 2.18453 3.95656 2.18384 3.96173C2.18326 3.96597 2.18169 3.97523 2.177 3.98419C2.08583 4.15578 1.98006 4.31924 1.88208 4.48224C1.87339 4.49672 1.85578 4.52194 1.83716 4.54865C1.81775 4.57649 1.79534 4.60893 1.77466 4.64142C1.75381 4.67417 1.73548 4.70538 1.72388 4.73126C1.71807 4.74422 1.71474 4.75434 1.71313 4.76154L1.71118 4.76447L1.71509 4.78986C1.71542 4.79763 1.71534 4.80837 1.71411 4.81818C1.71311 4.82603 1.70999 4.84146 1.70044 4.85529C1.69486 4.86334 1.68489 4.87424 1.66821 4.87872C1.65119 4.88325 1.63628 4.87904 1.62622 4.87384L1.61743 4.86993L1.61646 4.86896C1.59002 4.85488 1.58263 4.82786 1.58032 4.81818C1.57721 4.80504 1.57659 4.79211 1.57642 4.78595C1.57415 4.72192 1.5958 4.66438 1.62231 4.61505C1.64803 4.56724 1.68356 4.51858 1.70728 4.48126C1.83296 4.28338 1.96117 4.09023 2.07935 3.89044C2.08182 3.88625 2.09542 3.86388 2.12427 3.8631Z" fill="#262626" stroke="black" stroke-width="0.1"/>
<path d="M2.28223 3.91579C2.31185 3.9151 2.32668 3.93734 2.3291 3.94118C2.33654 3.953 2.33937 3.96762 2.34082 3.97536C2.34262 3.98512 2.34361 3.9965 2.34375 4.00661C2.34381 4.01163 2.34444 4.01753 2.34375 4.02321C2.34315 4.02804 2.34143 4.03751 2.33691 4.04665C2.25328 4.21375 2.15042 4.37705 2.06348 4.5359C2.05414 4.55294 2.04523 4.57202 2.03516 4.59352C2.02533 4.61451 2.01415 4.63761 2.00195 4.65993C1.97791 4.70389 1.94535 4.7516 1.89453 4.78102C1.88006 4.7894 1.86076 4.79191 1.8418 4.78395C1.82569 4.77713 1.81613 4.76517 1.81152 4.75758C1.80234 4.74235 1.79847 4.72428 1.79688 4.71071C1.79515 4.69598 1.79514 4.67922 1.79785 4.66383C1.79921 4.65616 1.80168 4.64709 1.80566 4.63844C1.80952 4.63014 1.81661 4.61873 1.8291 4.61012C1.86484 4.58528 1.89444 4.54267 1.92383 4.48903C1.93833 4.46256 1.95184 4.43491 1.96582 4.407C1.97944 4.37982 1.99363 4.352 2.00879 4.32692L2.23535 3.94606C2.23739 3.94227 2.25145 3.91666 2.28223 3.91579Z" fill="#262626" stroke="black" stroke-width="0.1"/>
<path d="M2.56299 3.91153C2.59108 3.91187 2.60517 3.93261 2.60791 3.93692C2.61556 3.94905 2.61849 3.96333 2.61963 3.97012C2.62114 3.97915 2.62167 3.98921 2.62158 3.99844C2.62153 4.00306 2.62143 4.00867 2.62061 4.01407C2.61993 4.01844 2.61786 4.02741 2.61279 4.03653C2.55253 4.14414 2.49566 4.25396 2.43896 4.36465C2.38239 4.4751 2.32616 4.5869 2.26611 4.69669L2.18506 4.84415L2.17529 4.70547C2.17021 4.70002 2.16469 4.69642 2.1626 4.69278C2.15838 4.68542 2.15523 4.67762 2.15283 4.67032C2.14799 4.65541 2.14452 4.63748 2.14404 4.62051C2.14362 4.60536 2.14452 4.58188 2.15674 4.56192C2.15895 4.5583 2.16137 4.55481 2.16357 4.55118L2.15771 4.49063L2.18799 4.50821C2.23786 4.42381 2.28645 4.33841 2.33447 4.25137C2.39243 4.14633 2.45171 4.03983 2.51709 3.93692L2.52979 3.92227C2.53735 3.91631 2.54852 3.91139 2.56299 3.91153Z" fill="#262626" stroke="black" stroke-width="0.1"/>
<path d="M2.7915 3.9521C2.82078 3.95091 2.83532 3.97258 2.83838 3.97749C2.84585 3.98952 2.84833 4.00328 2.84912 4.00874C2.85027 4.01671 2.85018 4.02556 2.8501 4.03316C2.85006 4.03697 2.85063 4.04151 2.8501 4.04585C2.8497 4.04906 2.84796 4.05724 2.84424 4.06538C2.79554 4.17159 2.73954 4.27422 2.68604 4.37495L2.58838 4.54878C2.55722 4.60674 2.53155 4.66309 2.51807 4.7187L2.48291 4.86324L2.44482 4.77632C2.42824 4.7723 2.41681 4.76447 2.4126 4.75972C2.40571 4.75192 2.40129 4.74246 2.39795 4.73531C2.39117 4.72072 2.38585 4.70336 2.3833 4.68648C2.38134 4.6733 2.38301 4.65646 2.38623 4.6396L2.38232 4.63277L2.39014 4.61812C2.43009 4.50042 2.50369 4.39198 2.55908 4.29585C2.61953 4.19089 2.6797 4.08044 2.74854 3.97652L2.76123 3.96382C2.76819 3.95825 2.77818 3.95273 2.7915 3.9521Z" fill="#262626" stroke="black" stroke-width="0.1"/>
<path d="M2.79907 4.30997C2.83108 4.30631 2.84848 4.33087 2.85083 4.33438C2.85904 4.34668 2.86185 4.36227 2.86353 4.37051C2.86562 4.38095 2.86707 4.39292 2.86743 4.40372C2.8676 4.40907 2.86799 4.41543 2.86743 4.4213L2.86157 4.44473C2.83234 4.51036 2.79825 4.57516 2.76782 4.63712C2.741 4.69173 2.71775 4.74611 2.69751 4.80118C2.69509 4.81343 2.69224 4.82566 2.68677 4.83536C2.682 4.84634 2.67039 4.86864 2.64478 4.87637C2.61242 4.88593 2.58937 4.86484 2.58228 4.85684C2.57395 4.84741 2.5689 4.83645 2.56567 4.82852C2.56223 4.81998 2.55926 4.80999 2.55786 4.80118C2.55396 4.77616 2.55746 4.7523 2.56274 4.72989L2.4895 4.63126L2.58716 4.66348C2.59986 4.637 2.61395 4.61025 2.62329 4.59219C2.66944 4.50286 2.71387 4.42832 2.7561 4.34219C2.75806 4.33821 2.76209 4.33143 2.76782 4.32559C2.7737 4.31968 2.78408 4.3118 2.79907 4.30997Z" fill="#262626" stroke="black" stroke-width="0.1"/>
<path d="M2.80444 4.7896C2.82566 4.79369 2.83688 4.80821 2.84058 4.81401C2.84821 4.82606 2.85031 4.84009 2.85132 4.84624C2.85267 4.85448 2.85321 4.86329 2.85327 4.87065C2.8533 4.87427 2.85367 4.87833 2.85327 4.88237L2.84741 4.90288C2.83492 4.9294 2.81953 4.95523 2.80737 4.97612C2.79442 4.99838 2.78348 5.01763 2.7771 5.03764C2.7717 5.05484 2.75451 5.08229 2.71948 5.08159C2.68905 5.08096 2.67152 5.05897 2.66479 5.04448V5.0435C2.65198 5.01487 2.6552 4.98522 2.66187 4.96342C2.67969 4.90493 2.71133 4.84842 2.75659 4.80424L2.77417 4.79253C2.78232 4.78911 2.79252 4.7873 2.80444 4.7896Z" fill="#262626" stroke="black" stroke-width="0.1"/>
<path d="M4.72827 3.82011C4.75556 3.82005 4.7698 3.83947 4.77319 3.84453C4.78141 3.85688 4.78472 3.87189 4.78589 3.87871C4.78741 3.88773 4.78803 3.89775 4.78784 3.90703C4.78774 3.91168 4.78684 3.91712 4.78589 3.92265L4.77808 3.94609C4.70662 4.06392 4.64381 4.18619 4.57788 4.31035C4.57593 4.31403 4.56262 4.33922 4.53198 4.34062C4.501 4.342 4.48614 4.31745 4.48413 4.31425C4.47644 4.30197 4.4729 4.28701 4.47144 4.2791C4.46957 4.26892 4.46868 4.25731 4.46851 4.24687C4.46843 4.24169 4.46882 4.236 4.46948 4.23027C4.47005 4.22538 4.471 4.21597 4.47534 4.20683L4.573 4.02226C4.6078 3.9619 4.64473 3.90242 4.68335 3.84453L4.69702 3.83086C4.70443 3.82527 4.71459 3.82016 4.72827 3.82011Z" fill="#262626" stroke="black" stroke-width="0.1"/>
<path d="M4.93921 3.85989C4.96536 3.86128 4.97883 3.88006 4.98218 3.88528C4.98975 3.89731 4.99262 3.91192 4.9939 3.91946C4.99547 3.92896 4.99703 3.93993 4.99683 3.94974C4.99672 3.95467 4.99588 3.96055 4.99487 3.96634C4.99404 3.97109 4.99188 3.98035 4.98608 3.98978C4.82823 4.24584 4.67689 4.5018 4.56128 4.77591C4.55804 4.78363 4.55186 4.79648 4.53979 4.80618C4.53299 4.81165 4.52307 4.81753 4.5105 4.81888C4.49789 4.8202 4.48675 4.81665 4.47827 4.81204C4.46343 4.80384 4.45502 4.79048 4.4519 4.7847C4.44809 4.77753 4.44602 4.76969 4.44409 4.76321C4.44015 4.74991 4.43713 4.73486 4.43628 4.72122C4.43586 4.71436 4.43567 4.70697 4.43628 4.69974C4.43684 4.69316 4.43883 4.68323 4.44312 4.67337L4.54077 4.46732C4.64498 4.26484 4.76552 4.07233 4.89136 3.88431L4.90601 3.86966C4.91385 3.86395 4.92484 3.85923 4.93921 3.85989Z" fill="#262626" stroke="black" stroke-width="0.1"/>
<path d="M5.19727 3.87683C5.20837 3.88579 5.21355 3.89718 5.21484 3.90027C5.21865 3.9095 5.2206 3.91972 5.22168 3.92761C5.22286 3.93624 5.22334 3.947 5.22266 3.95691C5.2223 3.96173 5.22134 3.96745 5.21973 3.97351C5.21822 3.97912 5.21542 3.98889 5.20801 3.99792C5.0926 4.13572 5.01577 4.29778 4.93848 4.46667C4.86204 4.63373 4.78435 4.80908 4.66797 4.96179C4.66275 4.96865 4.65007 4.98283 4.62891 4.98621C4.60368 4.99021 4.58541 4.97615 4.57715 4.96667C4.56972 4.95798 4.56561 4.94827 4.56348 4.94226C4.56108 4.93546 4.55973 4.92808 4.55859 4.92175C4.55634 4.90908 4.55527 4.89516 4.55566 4.88269C4.55586 4.87648 4.55643 4.86977 4.55762 4.86316C4.55866 4.85744 4.56077 4.84732 4.56641 4.83777L4.69238 4.59949C4.73236 4.51729 4.77174 4.43258 4.81445 4.34753C4.89854 4.18013 4.99387 4.01398 5.12793 3.87976L5.16309 3.86511C5.17908 3.86453 5.19071 3.87156 5.19727 3.87683Z" fill="#262626" stroke="black" stroke-width="0.1"/>
<path d="M5.40039 3.86368C5.42907 3.86331 5.44355 3.88483 5.44629 3.88907C5.45399 3.90117 5.45681 3.91544 5.45801 3.92227C5.45961 3.93147 5.461 3.94212 5.46094 3.95157C5.46089 3.9562 5.45979 3.96183 5.45898 3.96719C5.45827 3.97183 5.45708 3.98074 5.45215 3.98965C5.32303 4.22501 5.1946 4.46006 5.07617 4.69962L5.01758 4.81778L4.99414 4.72989C4.98552 4.72502 4.97879 4.71996 4.97559 4.71622C4.96886 4.70835 4.96416 4.69922 4.96094 4.6918C4.95448 4.67683 4.95028 4.65878 4.94922 4.64102C4.94845 4.62747 4.95084 4.61019 4.95703 4.59317L4.94922 4.5668L4.97363 4.55801C5.09834 4.3362 5.21986 4.10903 5.35449 3.89005L5.36816 3.8754C5.37558 3.86936 5.3861 3.86388 5.40039 3.86368Z" fill="#262626" stroke="black" stroke-width="0.1"/>
<path d="M5.69312 3.88098C5.70086 3.88893 5.70469 3.8978 5.70581 3.90051C5.70912 3.90854 5.71112 3.91801 5.71265 3.9259C5.71424 3.93423 5.71644 3.94453 5.71655 3.95422C5.7166 3.95902 5.7156 3.96476 5.7146 3.97083L5.70581 3.99524C5.56227 4.22285 5.45207 4.4749 5.32983 4.7218L5.24878 4.88489L5.23804 4.73254C5.23305 4.72694 5.22705 4.724 5.22534 4.72083C5.22148 4.71362 5.21855 4.70594 5.21655 4.69934C5.2125 4.68591 5.2098 4.67016 5.20874 4.65637C5.20789 4.64517 5.20707 4.62532 5.21362 4.60852L5.22632 4.58411L5.22046 4.51477L5.25073 4.5343C5.26694 4.50129 5.28189 4.46775 5.29956 4.43665C5.33097 4.38137 5.36181 4.33051 5.3894 4.27747C5.45725 4.14705 5.52448 4.01011 5.61499 3.88586L5.63062 3.87219C5.63772 3.86797 5.64681 3.865 5.65796 3.86536C5.67714 3.86602 5.68926 3.87708 5.69312 3.88098Z" fill="#262626" stroke="black" stroke-width="0.1"/>
<path d="M5.80664 4.06528C5.81284 4.07043 5.81621 4.07643 5.81836 4.07993C5.82557 4.09179 5.82959 4.10624 5.83105 4.11411C5.83288 4.12395 5.83371 4.13522 5.83398 4.14536C5.8341 4.15039 5.83356 4.15639 5.83301 4.16196C5.83252 4.16667 5.83113 4.17548 5.82715 4.18442V4.18539C5.77788 4.29299 5.72374 4.39774 5.66797 4.50082C5.65683 4.52146 5.64408 4.54254 5.63184 4.56332C5.61935 4.58451 5.60723 4.60572 5.5957 4.6268C5.57236 4.66948 5.55361 4.70966 5.5459 4.74692C5.54398 4.75614 5.54124 4.7667 5.53613 4.77621C5.53182 4.78423 5.51927 4.80389 5.49316 4.80746C5.46671 4.81106 5.44911 4.79511 5.44336 4.78891C5.43663 4.7816 5.43249 4.77329 5.42969 4.76743C5.42382 4.75504 5.41948 4.74027 5.41699 4.72739C5.41471 4.71546 5.41234 4.69802 5.41504 4.68246C5.42426 4.62932 5.44601 4.58058 5.46973 4.53696C5.48159 4.51516 5.49465 4.49359 5.50684 4.47348C5.5193 4.45291 5.53117 4.43292 5.54199 4.41391C5.60494 4.30319 5.66829 4.19533 5.72461 4.08383L5.73633 4.06821C5.74299 4.06191 5.7551 4.05397 5.77148 4.05356C5.78771 4.05316 5.79997 4.05975 5.80664 4.06528Z" fill="#262626" stroke="black" stroke-width="0.1"/>
<path d="M5.71875 4.57764C5.74426 4.57685 5.76002 4.59306 5.76465 4.59814C5.77587 4.6105 5.78249 4.62652 5.78516 4.63623L5.78613 4.63721C5.78861 4.64704 5.79098 4.66098 5.79102 4.67627L5.78125 4.72412C5.77496 4.73789 5.76797 4.75144 5.76172 4.76416C5.75541 4.777 5.74964 4.78917 5.74414 4.80127V4.80225C5.73982 4.81166 5.7369 4.81994 5.73145 4.8335C5.72651 4.84574 5.71962 4.861 5.70996 4.87549C5.70553 4.88214 5.69627 4.89353 5.68066 4.8999C5.66057 4.90793 5.64041 4.90366 5.62695 4.89404C5.61614 4.8863 5.61032 4.87603 5.60742 4.87061C5.60411 4.86439 5.60127 4.85823 5.59961 4.85303C5.59627 4.84258 5.59404 4.8315 5.59277 4.82275C5.59213 4.81824 5.59207 4.81318 5.5918 4.80908C5.59161 4.80618 5.59091 4.7999 5.5918 4.79346L5.60547 4.73975C5.61122 4.72312 5.61787 4.70746 5.625 4.69287C5.6322 4.67816 5.64018 4.66323 5.64746 4.6499C5.65477 4.63653 5.66166 4.62425 5.66797 4.61182C5.67337 4.60119 5.68874 4.57857 5.71875 4.57764Z" fill="#262626" stroke="black" stroke-width="0.1"/>
<path d="M7.81152 3.84589C7.82035 3.85461 7.824 3.86532 7.8252 3.86835C7.82881 3.87755 7.83157 3.88837 7.83301 3.89764C7.83449 3.9073 7.83542 3.91877 7.83496 3.92987C7.83462 3.938 7.83328 3.95738 7.82129 3.97382C7.74228 4.08087 7.67561 4.19675 7.6084 4.31561C7.60571 4.32038 7.59245 4.34321 7.56348 4.34491C7.53277 4.34655 7.51748 4.32302 7.51465 4.31854C7.50642 4.3055 7.50253 4.2894 7.50098 4.28046C7.49903 4.26924 7.49815 4.25664 7.49805 4.2453C7.49801 4.23958 7.49828 4.23287 7.49902 4.22675C7.49964 4.22168 7.50054 4.21246 7.50488 4.20331L7.60938 4.01874C7.64807 3.96 7.69074 3.90397 7.73535 3.84979L7.75 3.8371C7.75689 3.83324 7.76586 3.83097 7.77637 3.83124C7.79486 3.83173 7.80688 3.84133 7.81152 3.84589Z" fill="#262626" stroke="black" stroke-width="0.1"/>
<path d="M8.04883 3.84984C8.05802 3.85805 8.06219 3.86841 8.06348 3.87132C8.06724 3.87985 8.07066 3.88953 8.07227 3.89769C8.07395 3.90631 8.07517 3.91691 8.0752 3.92699C8.0752 3.932 8.07445 3.93815 8.07324 3.94456C8.07215 3.95035 8.06942 3.9602 8.0625 3.96996C7.97775 4.08978 7.90396 4.21699 7.83105 4.34691C7.75843 4.47634 7.68634 4.60978 7.60645 4.73753C7.60348 4.74227 7.59322 4.75853 7.57227 4.7639C7.5443 4.77106 7.52489 4.75419 7.51758 4.74535C7.51105 4.73727 7.50739 4.72839 7.50586 4.72386C7.50408 4.71852 7.50281 4.71279 7.50195 4.70824C7.50023 4.69907 7.49938 4.68895 7.49902 4.68089C7.49886 4.67704 7.49888 4.67302 7.49902 4.66917C7.49912 4.66674 7.49946 4.65856 7.50195 4.65062C7.55277 4.48606 7.65795 4.3394 7.74023 4.20531C7.81236 4.08773 7.88612 3.96903 7.97363 3.85765C7.97971 3.84987 7.99349 3.83762 8.01367 3.83714C8.03153 3.83683 8.0437 3.84532 8.04883 3.84984Z" fill="#262626" stroke="black" stroke-width="0.1"/>
<path d="M8.2749 3.84848C8.30117 3.84909 8.31513 3.86727 8.31885 3.87289C8.3269 3.88529 8.32948 3.90032 8.33057 3.90707C8.33202 3.91615 8.33278 3.92615 8.33252 3.93539C8.33239 3.94002 8.33252 3.94553 8.33154 3.95102C8.33075 3.95542 8.3283 3.96434 8.32275 3.97348C8.13905 4.27249 7.95491 4.59157 7.73389 4.87192C7.72729 4.88028 7.71397 4.89493 7.69189 4.89731C7.66772 4.89992 7.65046 4.88685 7.64209 4.87778C7.62775 4.86219 7.62222 4.84038 7.61963 4.82797C7.6165 4.81287 7.61501 4.79574 7.61572 4.78012C7.61608 4.77245 7.61668 4.76398 7.61865 4.75571C7.62056 4.74788 7.62513 4.73593 7.6333 4.72543C7.84541 4.4518 8.0262 4.15954 8.229 3.87192L8.24365 3.85825C8.25117 3.8529 8.26138 3.8482 8.2749 3.84848Z" fill="#262626" stroke="black" stroke-width="0.1"/>
<path d="M8.53149 3.89487C8.53959 3.90279 8.544 3.91169 8.54517 3.9144C8.5486 3.92241 8.55044 3.93196 8.552 3.93979C8.55364 3.94799 8.55485 3.95836 8.55493 3.96811C8.55496 3.97287 8.55503 3.97863 8.55396 3.98471C8.55293 3.9904 8.55076 4.00048 8.54419 4.0101L8.54321 4.00912C8.39018 4.2371 8.22562 4.46534 8.10669 4.70541C8.10372 4.71139 8.09367 4.73152 8.06958 4.73764C8.04082 4.74492 8.02106 4.72691 8.01489 4.72006C8.00801 4.7124 8.00354 4.70397 8.00122 4.69858C7.99865 4.69257 7.99696 4.68587 7.99536 4.68002C7.99219 4.66834 7.98948 4.65494 7.98853 4.64291C7.98807 4.63694 7.98812 4.6299 7.98853 4.62338C7.9889 4.61771 7.98993 4.60709 7.99438 4.59702L8.04321 4.50229C8.09726 4.40892 8.16338 4.32106 8.21704 4.23959C8.29296 4.12428 8.3723 4.01163 8.45435 3.90073L8.46997 3.88705C8.47689 3.88296 8.48563 3.88004 8.49634 3.88022C8.51525 3.88068 8.52751 3.89097 8.53149 3.89487Z" fill="#262626" stroke="black" stroke-width="0.1"/>
<path d="M8.70508 3.92862C8.73268 3.92914 8.74678 3.94899 8.75 3.95401C8.75793 3.96651 8.76129 3.98199 8.7627 3.99014C8.76444 4.00031 8.76474 4.01189 8.76465 4.02237C8.76459 4.02761 8.76461 4.03399 8.76367 4.03995C8.76287 4.04497 8.76134 4.05486 8.75586 4.06436C8.694 4.17118 8.62058 4.27775 8.55469 4.38174C8.48795 4.48708 8.42684 4.59206 8.38281 4.70108C8.38008 4.70782 8.37501 4.71921 8.36523 4.72842C8.35984 4.73351 8.35074 4.7394 8.33887 4.7421C8.32638 4.74483 8.31447 4.74274 8.30469 4.73819C8.28812 4.73042 8.27994 4.71655 8.27734 4.71182C8.2738 4.70529 8.27115 4.69851 8.26953 4.69327C8.26623 4.68252 8.26393 4.67078 8.2627 4.66104C8.26173 4.65334 8.26069 4.63937 8.2627 4.62784L8.29199 4.53214C8.30483 4.50214 8.31971 4.47379 8.33594 4.44717L8.43555 4.29776C8.47226 4.23996 8.50959 4.18261 8.54688 4.12589C8.58433 4.0689 8.62224 4.01223 8.6582 3.95499C8.66178 3.94935 8.67618 3.92808 8.70508 3.92862Z" fill="#262626" stroke="black" stroke-width="0.1"/>
<path d="M8.72534 4.29675C8.75304 4.29456 8.76939 4.31355 8.77417 4.32019C8.7796 4.3279 8.7824 4.33586 8.78394 4.3407C8.78573 4.34635 8.78695 4.35212 8.78784 4.3573C8.7896 4.36759 8.79095 4.37924 8.79077 4.38953C8.79067 4.3946 8.78973 4.40045 8.78882 4.40613C8.78804 4.41092 8.78621 4.42037 8.78101 4.42957C8.70558 4.56471 8.62071 4.6845 8.56519 4.81726C8.56194 4.82501 8.55702 4.8372 8.54663 4.84656C8.54098 4.85163 8.53224 4.85662 8.52124 4.85925C8.50958 4.86194 8.49773 4.86114 8.48804 4.8573C8.47098 4.85045 8.46224 4.8366 8.45874 4.83093C8.45434 4.8238 8.45107 4.8165 8.44897 4.81042C8.44472 4.79808 8.44164 4.78423 8.44019 4.77234C8.43945 4.7663 8.43923 4.7599 8.43921 4.75378C8.43919 4.74848 8.43973 4.74008 8.44214 4.73132C8.46439 4.6494 8.51311 4.58631 8.55151 4.52917C8.5736 4.49625 8.59442 4.4624 8.61597 4.42761C8.63743 4.39296 8.65964 4.357 8.68335 4.32214L8.69604 4.30847C8.70292 4.30298 8.71267 4.2978 8.72534 4.29675Z" fill="#262626" stroke="black" stroke-width="0.1"/>
<path d="M8.72925 4.65546C8.7521 4.65402 8.76744 4.66632 8.77417 4.67303L8.79565 4.71112V4.7121C8.802 4.73672 8.80396 4.77218 8.78687 4.80292C8.75995 4.85113 8.73344 4.89873 8.70874 4.94745L8.70288 4.95819L8.69312 4.966L8.68335 4.97284L8.6687 4.9826L8.65112 4.98163H8.64526C8.62454 4.98009 8.60962 4.96851 8.60132 4.95819C8.59368 4.94858 8.58975 4.9378 8.58765 4.93085C8.58341 4.91682 8.58263 4.9021 8.58276 4.89374C8.58373 4.84569 8.60155 4.80535 8.62183 4.77167C8.64034 4.74094 8.66731 4.70613 8.68335 4.6828V4.68182C8.69007 4.67211 8.70515 4.65698 8.72925 4.65546Z" fill="#262626" stroke="black" stroke-width="0.1"/>
</svg>
