<svg width="16" height="14" viewBox="0 0 16 14" fill="none" xmlns="http://www.w3.org/2000/svg">
<rect width="16" height="14" fill="white"/>
<path d="M8.198 5.17032C9.30581 5.16278 10.5004 5.05529 11.6091 5.2338C11.6331 5.23773 11.6494 5.25235 11.6589 5.26505C11.6685 5.27788 11.6749 5.29316 11.6794 5.30704C11.6886 5.33518 11.6933 5.36982 11.6941 5.40176C11.6948 5.4335 11.6921 5.46739 11.6843 5.49551C11.6805 5.50949 11.6742 5.52517 11.6648 5.53848C11.6553 5.55181 11.6388 5.56715 11.614 5.57071C11.3268 5.61075 11.0291 5.59412 10.7351 5.56778C10.4392 5.54127 10.1485 5.50534 9.86694 5.5043C9.26241 5.50198 8.65884 5.51115 8.05347 5.51309C7.44346 5.51495 6.83301 5.51222 6.22339 5.51114C5.95602 5.51072 5.68924 5.52946 5.42065 5.54825C5.15275 5.56699 4.88262 5.58612 4.61108 5.5834C4.58565 5.58318 4.56739 5.56894 4.5564 5.55606C4.54581 5.54364 4.53844 5.52905 4.53394 5.51602C4.52486 5.48975 4.52098 5.45778 4.52026 5.42813C4.51959 5.39846 4.52223 5.36592 4.53003 5.33926C4.53391 5.32612 4.54056 5.31111 4.55054 5.29825C4.56092 5.28488 4.57859 5.27008 4.60425 5.26895L5.48413 5.21231C5.77872 5.1919 6.0743 5.17469 6.36987 5.17422C6.97942 5.17314 7.5888 5.17426 8.198 5.17032Z" fill="#262626" stroke="black" stroke-width="0.1"/>
<path d="M8.06909 5.56582C9.46921 5.55884 10.8643 5.60563 12.2605 5.57363C12.2901 5.57291 12.3115 5.5894 12.324 5.60488C12.3359 5.61989 12.3439 5.63855 12.3494 5.65566C12.3604 5.69074 12.3662 5.73523 12.3669 5.77676C12.3676 5.81826 12.3637 5.86196 12.3542 5.89687C12.3496 5.91386 12.3428 5.93236 12.3318 5.94765C12.3261 5.95547 12.3179 5.96459 12.3074 5.97109L12.2683 5.98183C10.8719 5.94573 9.47277 5.92761 8.07593 5.92715C7.33074 5.92699 6.59124 5.96767 5.84351 5.98281C5.50266 5.98962 5.16147 5.99011 4.82104 5.98965C4.68671 5.98939 4.54689 5.9738 4.41284 5.9623C4.27731 5.95068 4.14587 5.94338 4.02124 5.95644C3.99724 5.9589 3.97825 5.94767 3.96655 5.93594C3.95598 5.92523 3.94934 5.91242 3.94507 5.90176C3.93629 5.87972 3.93187 5.85242 3.93042 5.82754L3.92847 5.80117L3.94897 5.78555C4.0025 5.74352 4.05759 5.70249 4.11401 5.66348L4.12085 5.65762L4.13354 5.64785L4.14819 5.6459C4.28167 5.6322 4.42398 5.6389 4.56128 5.64785C4.69994 5.65689 4.83285 5.66883 4.95483 5.6664C5.2997 5.65927 5.64308 5.65637 5.98608 5.64101C6.67882 5.6099 7.37302 5.56931 8.06909 5.56582Z" fill="#262626" stroke="black" stroke-width="0.1"/>
<path d="M11.1702 9.42706C11.5046 9.42476 11.8405 9.44185 12.1575 9.51886L12.1799 9.5296C12.1862 9.53413 12.1919 9.53856 12.1956 9.54327C12.2029 9.55265 12.207 9.56364 12.2102 9.57257C12.2165 9.59044 12.2195 9.61074 12.22 9.62921C12.2205 9.64769 12.2187 9.6685 12.2131 9.68683C12.2088 9.70092 12.1957 9.73358 12.1604 9.74249C11.8221 9.82571 11.4602 9.8421 11.0999 9.8382C10.9197 9.83624 10.7391 9.82921 10.5618 9.82257C10.384 9.81592 10.2087 9.81011 10.0393 9.80988C9.33176 9.80911 8.62265 9.81328 7.91431 9.80695C6.54754 9.79458 5.17995 9.78488 3.81274 9.75031C3.79121 9.74981 3.77505 9.73876 3.76489 9.72784C3.7553 9.71753 3.7491 9.70552 3.74536 9.69562C3.73788 9.67568 3.73504 9.65192 3.73462 9.63116C3.73424 9.61061 3.73594 9.58755 3.74243 9.56769C3.74571 9.55776 3.75177 9.54517 3.76099 9.53448C3.7708 9.52318 3.78689 9.5118 3.80884 9.51105L5.93384 9.46906C6.64248 9.4594 7.35119 9.45424 8.05981 9.45343C8.41366 9.45297 8.76751 9.45286 9.12134 9.45245C9.4753 9.45205 9.82991 9.45194 10.1838 9.45148C10.3422 9.4513 10.5049 9.44541 10.6702 9.43976C10.8351 9.43411 11.0029 9.42822 11.1702 9.42706Z" fill="#262626" stroke="black" stroke-width="0.1"/>
<path d="M12.1848 9.51953L12.2473 9.53613L12.2805 9.54688L12.2825 9.58105V9.5957C12.2781 9.66475 12.2848 9.7307 12.2874 9.80664C12.2898 9.87999 12.2875 9.95854 12.261 10.0381C12.2556 10.054 12.2483 10.0702 12.2375 10.083C12.2269 10.0957 12.2091 10.1098 12.1848 10.1113C12.1595 10.1128 12.1397 10.1003 12.1272 10.0869C12.1152 10.074 12.1066 10.0576 12.1008 10.041C12.0759 9.9704 12.0721 9.87893 12.095 9.80566C12.1058 9.77117 12.1107 9.73416 12.1135 9.69238C12.1163 9.65232 12.118 9.6056 12.1252 9.56055L12.1331 9.50879L12.1848 9.51953Z" fill="#262626" stroke="black" stroke-width="0.1"/>
<path d="M3.79565 9.56201L3.87573 9.56689L3.91968 9.56787L3.92456 9.61084C3.92809 9.64108 3.9264 9.67139 3.92554 9.68604L3.92749 9.68701C3.92676 9.70109 3.92432 9.71589 3.92163 9.72998V9.73291H3.92065C3.91936 9.73768 3.91759 9.74133 3.91675 9.74463L3.91772 9.74561L3.91479 9.75732L3.91577 9.7583C3.91405 9.7778 3.91227 9.79784 3.91089 9.81787V9.81885L3.90894 9.85205V9.88037L3.90991 9.979C3.90605 10.0131 3.89471 10.0594 3.85718 10.0884C3.84589 10.0971 3.83093 10.1044 3.81323 10.105C3.79538 10.1056 3.78026 10.0992 3.76929 10.0913C3.7498 10.0771 3.7383 10.0549 3.73218 10.0405C3.71886 10.0093 3.71221 9.97196 3.71069 9.95947C3.69671 9.84548 3.70536 9.71157 3.7439 9.59619L3.75659 9.55811L3.79565 9.56201Z" fill="#262626" stroke="black" stroke-width="0.1"/>
<path d="M5.76514 9.84056C6.5101 9.8593 7.24605 9.88864 7.99365 9.85912L8.0249 9.86595C8.03368 9.87044 8.04038 9.87684 8.04541 9.88255C8.0548 9.89324 8.06037 9.90565 8.06396 9.91576C8.07131 9.9365 8.07504 9.96167 8.07568 9.98412C8.0763 10.0065 8.07412 10.0312 8.06787 10.0525C8.06478 10.063 8.06019 10.0763 8.05127 10.0876C8.04184 10.0995 8.02497 10.112 8.00146 10.113C7.79884 10.1222 7.5966 10.1095 7.39795 10.0964C7.19851 10.0833 7.0027 10.0701 6.80811 10.0769C6.63419 10.0829 6.46176 10.0933 6.28955 10.1033C6.11771 10.1132 5.94503 10.1223 5.77002 10.1277C5.59196 10.1332 5.4064 10.1457 5.21631 10.1579C5.02649 10.1702 4.83197 10.1824 4.63818 10.1882C4.25072 10.1998 3.86095 10.1855 3.50439 10.0906C3.47216 10.082 3.45849 10.0527 3.45361 10.0398C3.44729 10.023 3.44447 10.0042 3.44385 9.98705C3.44324 9.97006 3.44477 9.94996 3.45068 9.93236C3.45564 9.91784 3.47063 9.88608 3.50732 9.8806L3.65771 9.864C3.80845 9.85099 3.96113 9.84979 4.11279 9.85228C4.31674 9.85562 4.51609 9.86474 4.7124 9.86205C5.05667 9.85747 5.41569 9.83198 5.76514 9.84056Z" fill="#262626" stroke="black" stroke-width="0.1"/>
<path d="M9.33447 9.84586C9.52328 9.85239 9.71284 9.85179 9.90283 9.85074C10.0925 9.84969 10.2833 9.84756 10.4741 9.85172C11.1696 9.86702 11.9055 9.92206 12.5894 9.85367L12.5903 9.85269C12.6289 9.84899 12.6509 9.87631 12.6597 9.89175C12.669 9.90826 12.6741 9.92794 12.6772 9.94351C12.6836 9.97584 12.685 10.0103 12.6851 10.0207C12.6867 10.1365 12.6861 10.2471 12.6665 10.3595L12.6597 10.3996L12.6187 10.4005C12.589 10.4012 12.566 10.4018 12.5376 10.4025L12.481 10.4035L12.4858 10.3478C12.4909 10.2918 12.4945 10.2357 12.4985 10.1798C11.8283 10.1008 11.159 10.1231 10.4761 10.1134C10.1267 10.1084 9.75916 10.0804 9.3999 10.0666C9.03822 10.0526 8.67955 10.0524 8.33838 10.1046C8.31192 10.1086 8.29286 10.0945 8.28369 10.0841C8.27502 10.0742 8.27025 10.0626 8.26709 10.0539C8.26047 10.0356 8.25646 10.0136 8.25537 9.99332C8.2543 9.97299 8.2559 9.9492 8.26123 9.92886C8.26388 9.91886 8.26812 9.90659 8.27588 9.89566C8.28403 9.88426 8.29795 9.87116 8.31885 9.86734L8.57568 9.83609C8.83068 9.81852 9.08224 9.83724 9.33447 9.84586Z" fill="#262626" stroke="black" stroke-width="0.1"/>
<path d="M3.58521 9.9969C3.58737 10.0442 3.58728 10.096 3.58813 10.1385C3.58955 10.2126 3.59472 10.2977 3.58521 10.3787L3.58423 10.3797C3.58337 10.3867 3.58103 10.4144 3.57446 10.4383C3.57104 10.4507 3.56543 10.4672 3.55493 10.4813C3.54361 10.4964 3.52437 10.5119 3.49634 10.5125C3.46827 10.5132 3.44854 10.4983 3.43677 10.4842C3.42564 10.4709 3.41852 10.4554 3.41431 10.4432C3.40576 10.4183 3.40283 10.3915 3.40161 10.3807C3.39086 10.2883 3.39551 10.1936 3.39771 10.1073C3.39816 10.0862 3.39853 10.0648 3.39868 10.0428V10.0125L3.42505 9.99886C3.45432 9.98355 3.4843 9.96836 3.51294 9.95393L3.58228 9.91975L3.58521 9.9969Z" fill="#262626" stroke="black" stroke-width="0.1"/>
<path d="M7.2207 10.2048C7.22969 10.2097 7.23689 10.2162 7.24219 10.2224C7.25234 10.2344 7.25871 10.2486 7.2627 10.2605C7.2708 10.2848 7.27394 10.3146 7.27441 10.3416C7.27486 10.3684 7.27262 10.3975 7.26562 10.4216C7.2622 10.4334 7.25655 10.4475 7.24707 10.4597C7.23699 10.4726 7.21819 10.4881 7.19141 10.4871C6.50054 10.4621 5.80788 10.4815 5.11426 10.5086C4.42121 10.5356 3.72613 10.5703 3.03223 10.5759C3.00947 10.5761 2.99203 10.5649 2.98145 10.5535C2.9716 10.5428 2.96578 10.5298 2.96191 10.5193C2.95412 10.498 2.95066 10.4726 2.9502 10.45C2.94974 10.4273 2.95214 10.402 2.95898 10.3806C2.96235 10.3701 2.96799 10.3567 2.97754 10.3455C2.98779 10.3336 3.00503 10.3219 3.02832 10.322L4.06738 10.3103C5.10682 10.2874 6.14751 10.2348 7.1875 10.197L7.2207 10.2048Z" fill="#262626" stroke="black" stroke-width="0.1"/>
<path d="M8.50342 10.2086C8.6302 10.2132 8.75437 10.2172 8.87451 10.2174C9.37642 10.2178 9.87855 10.2183 10.3804 10.2183C11.2309 10.2186 12.0906 10.1797 12.9429 10.2506C12.9835 10.2539 13.0032 10.2864 13.0112 10.3062C13.0196 10.3273 13.0234 10.3519 13.0249 10.3726C13.0279 10.415 13.024 10.4593 13.022 10.4752C13.0188 10.5004 13.017 10.5345 13.0151 10.5758C13.0134 10.6159 13.0107 10.6618 13.0054 10.7066C13.0001 10.7512 12.9915 10.7976 12.9761 10.8385C12.9607 10.8792 12.9373 10.9196 12.8989 10.9459C12.8909 10.9514 12.88 10.9564 12.8667 10.9576C12.8526 10.9587 12.8391 10.9553 12.8286 10.9488C12.8101 10.9374 12.8017 10.9184 12.7974 10.9078C12.7878 10.8843 12.7829 10.8534 12.7808 10.8258C12.7785 10.7968 12.7782 10.7658 12.7798 10.7398C12.7806 10.727 12.7819 10.7145 12.7837 10.7037C12.7852 10.6948 12.7881 10.6803 12.7944 10.6685L12.8218 10.5963C12.826 10.5799 12.8285 10.5626 12.8315 10.5445C12.6741 10.5032 12.507 10.4949 12.3345 10.5006C12.2306 10.504 12.1258 10.5115 12.021 10.5191C11.9166 10.5267 11.8117 10.5341 11.7095 10.5357C11.2177 10.5433 10.7251 10.5343 10.2349 10.5308C9.98396 10.5292 9.73279 10.5268 9.48193 10.525C9.23102 10.5232 8.97988 10.5218 8.729 10.5201C8.61991 10.5193 8.50751 10.5219 8.39307 10.525C8.27891 10.528 8.16247 10.5313 8.04639 10.5318C7.81429 10.5328 7.58021 10.522 7.35986 10.4732C7.34126 10.4692 7.32889 10.458 7.32178 10.4488C7.31467 10.4396 7.31005 10.4289 7.30713 10.4205C7.30132 10.4035 7.2988 10.3841 7.29834 10.3668C7.29791 10.3496 7.29917 10.3303 7.3042 10.3131C7.30675 10.3044 7.31086 10.2934 7.31787 10.2838C7.32498 10.274 7.33803 10.2627 7.35693 10.2584L7.5415 10.2252C7.72921 10.1997 7.924 10.1943 8.11768 10.1969C8.24681 10.1985 8.37663 10.204 8.50342 10.2086Z" fill="#262626" stroke="black" stroke-width="0.1"/>
<path d="M3.10254 10.398L3.10645 10.3873L3.09961 10.3863H3.09473L3.0957 10.3853H3.0918C3.08884 10.3848 3.08644 10.3834 3.08594 10.3833H3.0791C3.07781 10.3834 3.07544 10.3847 3.07227 10.3853L3.06152 10.3843C3.05274 10.3844 3.04431 10.3847 3.03711 10.3853L3.03223 10.3863L3.02637 10.3873L2.98828 10.3941L2.98535 10.4332C2.97549 10.5848 2.9751 10.7403 2.98047 10.8902C2.98114 10.9077 2.98235 10.9371 2.98828 10.9654C2.99383 10.9918 3.00605 11.0297 3.03809 11.0533C3.04928 11.0614 3.06495 11.0683 3.08301 11.0679C3.10122 11.0675 3.11599 11.0598 3.12598 11.0513C3.14348 11.0363 3.15239 11.0142 3.15723 11.0005C3.16776 10.9706 3.17226 10.9357 3.17285 10.9234V10.9224C3.17848 10.7687 3.17715 10.6116 3.16797 10.4566L3.16895 10.4527L3.1748 10.4117L3.13477 10.398L3.10645 10.3882L3.10254 10.398ZM3.10254 10.398C3.10029 10.3935 3.10051 10.3894 3.09863 10.3882C3.09748 10.3877 3.09594 10.3877 3.09473 10.3873L3.08984 10.4351L3.1123 10.4419C3.11392 10.4238 3.1076 10.4081 3.10254 10.398Z" fill="#262626" stroke="black" stroke-width="0.1"/>
<path d="M9.14844 10.6844C9.41858 10.6883 9.69008 10.7023 9.94922 10.7508L9.97559 10.7615C9.98294 10.7666 9.9888 10.7726 9.99316 10.7781C10.0017 10.7891 10.0069 10.8022 10.0107 10.8133C10.0184 10.8355 10.0228 10.8614 10.0234 10.8855C10.0241 10.9097 10.0212 10.9362 10.0146 10.9588C10.0113 10.97 10.0063 10.9835 9.99805 10.9949C9.98967 11.0064 9.97517 11.0189 9.9541 11.0232C9.67247 11.0822 9.37406 11.0847 9.07812 11.0701C8.7784 11.0553 8.4885 11.025 8.20801 11.0184C7.62689 11.0044 7.04599 10.999 6.46875 11.0389C5.62126 11.0974 4.76074 11.1194 3.90625 11.1082L3.05371 11.0857C3.03096 11.0848 3.01375 11.0732 3.00293 11.0613C2.99268 11.05 2.98579 11.0368 2.98145 11.0252C2.97271 11.0017 2.96931 10.9735 2.96875 10.948C2.96822 10.9225 2.97077 10.8936 2.97852 10.8699C2.98235 10.8583 2.9881 10.8444 2.99805 10.8328C3.00869 10.8204 3.02645 10.8082 3.0498 10.8074C3.64363 10.785 4.23746 10.7969 4.8291 10.8045C5.42147 10.8121 6.01247 10.8157 6.60254 10.7762C7.18582 10.737 7.75351 10.6599 8.34961 10.6785C8.60948 10.6866 8.87576 10.6804 9.14844 10.6844Z" fill="#262626" stroke="black" stroke-width="0.1"/>
<path d="M12.9763 10.6822C12.9898 10.6932 12.9999 10.7077 13.0056 10.7193L13.0193 10.7593L13.0291 10.8091V10.8101C13.0336 10.8327 13.0423 10.8928 13.0408 10.9498C13.04 10.9777 13.0366 11.009 13.0271 11.0357C13.0178 11.0615 12.9966 11.0973 12.9529 11.104C12.5084 11.1733 11.9806 11.1094 11.5427 11.0904C11.0817 11.0704 10.6101 11.0478 10.1501 10.9849C10.1306 10.9823 10.1173 10.9714 10.1101 10.9624C10.1031 10.9536 10.099 10.9435 10.0964 10.9361C10.0912 10.921 10.089 10.9041 10.0886 10.8892C10.0883 10.8744 10.0892 10.8576 10.0935 10.8423C10.0957 10.8348 10.0998 10.825 10.1062 10.816C10.1127 10.8068 10.1248 10.7946 10.1443 10.7906L10.3201 10.7623C10.4967 10.7417 10.6729 10.742 10.8474 10.7496C11.0821 10.7597 11.3099 10.7816 11.5398 10.7798C11.5804 10.7795 11.6861 10.785 11.8171 10.7906C11.9501 10.7962 12.1126 10.8018 12.2712 10.8023C12.4304 10.8028 12.5839 10.7979 12.699 10.7828C12.7569 10.7751 12.8029 10.7653 12.8337 10.7535C12.8487 10.7477 12.8578 10.742 12.863 10.7378C12.8681 10.7338 12.8668 10.7332 12.866 10.7369C12.8699 10.7192 12.8779 10.6938 12.8992 10.6783C12.912 10.6689 12.9279 10.6642 12.9441 10.6665C12.9586 10.6687 12.9694 10.6765 12.9763 10.6822Z" fill="#262626" stroke="black" stroke-width="0.1"/>
<path d="M4.47461 5.76587C4.49366 5.76235 4.51006 5.76804 4.52051 5.77466C4.53947 5.78672 4.55085 5.80693 4.55762 5.82251C4.56511 5.83985 4.57082 5.86056 4.57227 5.88208V5.88306C4.64902 7.08528 4.62925 8.34174 4.56348 9.54321V9.54419C4.56226 9.56416 4.55869 9.59339 4.54785 9.62036C4.53729 9.64659 4.51465 9.68171 4.4707 9.69165L4.45801 9.69458L4.44531 9.69067L4.42969 9.68677L4.42383 9.68481C4.40109 9.67486 4.38619 9.65677 4.37695 9.64087C4.36767 9.62485 4.3623 9.6069 4.3584 9.59106C4.35062 9.55952 4.34891 9.52688 4.34863 9.50806C4.33222 8.30163 4.35909 7.06843 4.41504 5.86353C4.41624 5.83899 4.42015 5.81282 4.43359 5.79321C4.4414 5.78201 4.45514 5.76956 4.47461 5.76587Z" fill="#262626" stroke="black" stroke-width="0.1"/>
<path d="M5.72095 5.77583L5.73853 5.80904L5.77466 5.94478C5.80185 6.08157 5.80335 6.21966 5.79712 6.35786C5.78002 6.74104 5.7798 7.12178 5.79321 7.50533C5.79885 7.66522 5.80895 7.83059 5.8186 7.99947C5.82824 8.16815 5.83775 8.34038 5.84204 8.51216C5.8506 8.85566 5.83823 9.2012 5.76782 9.5229C5.76314 9.54432 5.75499 9.56895 5.73657 9.5854C5.72621 9.59461 5.71258 9.60109 5.69653 9.60201C5.68101 9.60286 5.66804 9.5979 5.65845 9.59224C5.64055 9.58163 5.62868 9.56482 5.62134 9.55122L5.60376 9.5024C5.54634 9.20265 5.55082 8.88659 5.56763 8.57368C5.58456 8.25868 5.61341 7.94882 5.60669 7.65279C5.60004 7.3623 5.61436 7.06336 5.62231 6.769C5.6303 6.47372 5.63246 6.1815 5.60278 5.89888C5.60146 5.88696 5.60297 5.86986 5.60474 5.85786C5.60678 5.8441 5.60995 5.82752 5.6145 5.81294C5.61678 5.8057 5.61987 5.79651 5.62427 5.78853C5.62735 5.78293 5.63724 5.76706 5.65649 5.75923C5.66839 5.75444 5.68232 5.75361 5.69556 5.75826C5.70761 5.76252 5.7161 5.77022 5.72095 5.77583Z" fill="#262626" stroke="black" stroke-width="0.1"/>
<path d="M7.40015 5.70876C7.42932 5.69874 7.45197 5.71519 7.46069 5.7234C7.46983 5.73213 7.47612 5.74277 7.48022 5.75075C7.48898 5.76781 7.49545 5.78908 7.49976 5.80836C7.5039 5.82693 7.50769 5.84949 7.50562 5.86891C7.43653 6.51445 7.50489 7.17623 7.51636 7.83473C7.52636 8.39249 7.56156 8.9612 7.54663 9.52321V9.52419C7.54567 9.55731 7.53952 9.58695 7.52808 9.61012C7.51752 9.6314 7.49543 9.6586 7.45874 9.65993C7.42103 9.66126 7.39687 9.6344 7.3855 9.61305C7.37334 9.59013 7.36671 9.56046 7.36499 9.52711C7.33104 8.86469 7.3424 8.19822 7.34155 7.53786C7.34112 7.24869 7.32183 6.96123 7.31323 6.66774C7.3047 6.37585 7.30731 6.08148 7.35132 5.78883C7.35356 5.77398 7.3561 5.75976 7.36108 5.74782C7.36505 5.73835 7.37575 5.71714 7.40015 5.70876Z" fill="#262626" stroke="black" stroke-width="0.1"/>
<path d="M8.64624 5.74947C8.66749 5.74517 8.68465 5.75356 8.69507 5.76118C8.71374 5.77485 8.72425 5.79658 8.73022 5.81294C8.737 5.83154 8.74187 5.85353 8.74292 5.87642C8.77537 6.55555 8.76294 7.24163 8.76733 7.91841C8.76907 8.18676 8.79593 8.47354 8.80737 8.769C8.81868 9.06107 8.81444 9.35612 8.75269 9.62544C8.74793 9.64613 8.73909 9.66557 8.72632 9.68111C8.71372 9.69643 8.69472 9.7104 8.66968 9.71236C8.64324 9.71429 8.62109 9.70189 8.6062 9.68501C8.59201 9.6689 8.58356 9.64813 8.57886 9.62642C8.51533 9.33308 8.50925 9.01418 8.51929 8.69771C8.52943 8.37789 8.55489 8.06635 8.5564 7.7729C8.5597 7.13755 8.54374 6.4912 8.58569 5.85298C8.58752 5.82576 8.59254 5.79855 8.60522 5.77876C8.61218 5.76794 8.62531 5.75378 8.64624 5.74947Z" fill="#262626" stroke="black" stroke-width="0.1"/>
<path d="M10.4961 5.75139L10.5234 5.7719C10.5476 5.79626 10.5599 5.83092 10.5674 5.85979C10.5782 5.90178 10.584 5.95178 10.5859 6.00041C10.5879 6.04967 10.5871 6.10022 10.5859 6.14299C10.5847 6.18673 10.5828 6.22017 10.583 6.24065C10.5857 6.58652 10.5923 6.9326 10.5996 7.27873C10.6033 7.45703 10.6116 7.63991 10.6211 7.82561C10.6305 8.01116 10.6408 8.19989 10.6465 8.38811C10.6579 8.76449 10.6524 9.14289 10.5908 9.50237C10.5861 9.52981 10.5769 9.55946 10.5566 9.57854C10.5451 9.58933 10.5297 9.59667 10.5117 9.59709C10.4945 9.59738 10.4796 9.59094 10.4697 9.5844C10.4512 9.57205 10.4383 9.55294 10.4297 9.53654C10.4205 9.51897 10.4131 9.49841 10.4092 9.47795C10.3537 9.18357 10.3946 8.88257 10.4043 8.60002C10.4178 8.21268 10.4116 7.82504 10.4053 7.43596C10.3971 6.92774 10.3429 6.36844 10.3906 5.85393C10.3912 5.84803 10.3931 5.82322 10.3994 5.80217C10.4024 5.79237 10.4088 5.77538 10.4229 5.76213C10.4309 5.75456 10.4422 5.74668 10.457 5.74455L10.4961 5.75139Z" fill="#262626" stroke="black" stroke-width="0.1"/>
<path d="M11.7229 5.76105C11.7419 5.77124 11.7505 5.78891 11.7532 5.79523C11.7605 5.81235 11.7643 5.83509 11.7668 5.85382C11.7695 5.87396 11.7712 5.89555 11.7717 5.91339C11.772 5.92211 11.7721 5.93051 11.7717 5.93781C11.7715 5.94301 11.7702 5.95435 11.7668 5.96417C11.7264 6.08175 11.718 6.21805 11.72 6.36066C11.721 6.43162 11.7246 6.50328 11.7278 6.57452C11.7309 6.64534 11.7335 6.71595 11.7327 6.78351C11.7286 7.11334 11.7245 7.44275 11.7278 7.77179C11.7291 7.90804 11.736 8.05011 11.7434 8.19562C11.7508 8.3408 11.7591 8.48958 11.7629 8.638C11.7706 8.9346 11.7613 9.23392 11.6946 9.50909C11.6902 9.52711 11.6849 9.54345 11.678 9.55695C11.6713 9.56981 11.661 9.58446 11.6448 9.59406C11.6259 9.60516 11.6044 9.60607 11.5862 9.59894C11.5703 9.59275 11.5594 9.58139 11.552 9.57257C11.5372 9.55485 11.5261 9.53146 11.5188 9.51007C11.5113 9.48791 11.5053 9.4624 11.5042 9.43976C11.4655 8.6434 11.5048 7.8202 11.5334 7.02667C11.5442 6.73087 11.5339 6.41602 11.5579 6.11456C11.5617 6.06568 11.5636 6.00357 11.5745 5.94562C11.5857 5.88642 11.6072 5.8239 11.6536 5.77374C11.6588 5.76813 11.6678 5.76004 11.6809 5.75616C11.6958 5.75182 11.7108 5.75459 11.7229 5.76105Z" fill="#262626" stroke="black" stroke-width="0.1"/>
<path d="M8.22583 1.98483C8.24829 1.97936 8.27055 1.98549 8.28638 1.99948C8.29931 2.011 8.30592 2.02579 8.30981 2.03659C8.31777 2.05894 8.32086 2.08712 8.32153 2.11081C8.32221 2.13537 8.32117 2.16087 8.3186 2.1821C8.31731 2.19277 8.31483 2.20335 8.31274 2.21237C8.31111 2.21944 8.30781 2.23204 8.30103 2.24265C8.23241 2.34802 8.13708 2.4189 8.03735 2.47604C7.98755 2.50458 7.93539 2.53012 7.88501 2.55515C7.83423 2.58037 7.78473 2.60454 7.73755 2.63132C7.50749 2.762 7.28497 2.90252 7.07349 3.06003C6.64912 3.37661 6.2329 3.72085 5.78735 4.01706C5.38325 4.28564 4.96185 4.53324 4.55103 4.78854C4.13923 5.04446 3.73597 5.30949 3.3645 5.61667L3.32349 5.65085L3.29224 5.60788C3.27525 5.58474 3.25903 5.56319 3.24146 5.54343L3.2356 5.53757L3.21509 5.48972L3.21021 5.4819L3.18872 5.44675L3.21997 5.41843C3.61786 5.0687 4.05368 4.77741 4.49536 4.49948C4.93794 4.221 5.38558 3.95633 5.81274 3.65671C6.03108 3.50353 6.24387 3.34215 6.4563 3.17917C6.66846 3.0164 6.88051 2.85157 7.0979 2.69382C7.31018 2.53963 7.5255 2.38396 7.75415 2.2485C7.82647 2.20564 7.89398 2.15513 7.97485 2.103C8.05178 2.05342 8.13584 2.00762 8.22583 1.98581V1.98483Z" fill="#262626" stroke="black" stroke-width="0.1"/>
<path d="M8.29883 1.96389C8.47572 2.00531 8.62348 2.11107 8.75586 2.22952C8.83153 2.29725 8.90472 2.37074 8.97461 2.44045C9.04505 2.51072 9.11307 2.5775 9.18262 2.63381C9.5982 2.97012 10.0075 3.32844 10.4414 3.63186C11.2951 4.22903 12.21 4.77216 12.998 5.4717C13.019 5.49024 13.0311 5.51589 13.0381 5.53909C13.0452 5.56295 13.0484 5.59002 13.0498 5.61623L13.0508 5.63772L13.0361 5.65334C13.0142 5.6762 12.9866 5.69935 12.9678 5.71682C12.9472 5.73594 12.9307 5.75333 12.9189 5.77346L12.918 5.77444C12.9163 5.77716 12.9147 5.78061 12.9131 5.78518L12.8887 5.85549L12.833 5.80666C12.4483 5.46982 12.0368 5.16967 11.6182 4.876C11.2001 4.58278 10.7741 4.29518 10.3643 3.9844C9.94016 3.66296 9.49527 3.32136 9.10059 2.96096C8.79722 2.68408 8.54473 2.39826 8.18945 2.21389H8.18848C8.1713 2.20483 8.16213 2.1892 8.15723 2.17971C8.15188 2.1693 8.14811 2.15806 8.14551 2.14748C8.14023 2.12589 8.1377 2.10055 8.1377 2.07717C8.13772 2.05417 8.13964 2.02813 8.14648 2.00686C8.1498 1.99655 8.15565 1.98311 8.16602 1.9717C8.17775 1.95883 8.19719 1.94725 8.22168 1.95022L8.29883 1.96389Z" fill="#262626" stroke="black" stroke-width="0.1"/>
<path d="M13.0039 5.52114C13.0194 5.53031 13.0275 5.54466 13.0312 5.55239C13.0395 5.56936 13.0441 5.59043 13.0459 5.60806C13.0478 5.62658 13.0474 5.64716 13.0449 5.66567C13.0437 5.67494 13.0416 5.6853 13.0381 5.69497C13.0349 5.70375 13.0283 5.71583 13.0166 5.72622L13.0176 5.7272C12.883 5.84612 12.7726 5.99518 12.6602 6.14614L12.627 6.19009L12.5869 6.15395C12.5557 6.12593 12.5173 6.10669 12.4746 6.09829L12.4277 6.08852L12.4346 6.04165C12.4379 6.01945 12.444 5.99272 12.457 5.96841L12.501 5.89614C12.5488 5.826 12.6082 5.76078 12.668 5.70669C12.7543 5.62867 12.8561 5.57839 12.9424 5.52309L12.9727 5.51333C12.9847 5.5129 12.9954 5.51617 13.0039 5.52114Z" fill="#262626" stroke="black" stroke-width="0.1"/>
<path d="M8.16064 2.78671C8.21326 2.7477 8.27902 2.75865 8.33252 2.7789C8.38877 2.80021 8.44921 2.83819 8.50537 2.87851C8.562 2.91918 8.61767 2.96472 8.66357 3.00351C8.71069 3.04332 8.74581 3.07349 8.76611 3.08847C9.12551 3.35324 9.4823 3.62187 9.83936 3.88925C10.7469 4.56855 11.687 5.21635 12.6743 5.77109C12.6968 5.78374 12.7119 5.80384 12.7212 5.82285C12.7307 5.84218 12.7367 5.86437 12.7407 5.88632C12.7488 5.9303 12.7499 5.98142 12.7456 6.02792L12.7437 6.04843L12.7271 6.0621C12.7056 6.07946 12.684 6.09687 12.6626 6.11386C12.6412 6.13089 12.6193 6.14759 12.5981 6.16464L12.5718 6.18613L12.5415 6.16855C11.5938 5.60709 10.6878 4.96428 9.81982 4.28867C9.26667 3.85821 8.66974 3.44193 8.15771 2.96152C8.14392 2.9485 8.13684 2.93103 8.1333 2.91953C8.12933 2.90652 8.12721 2.89222 8.12646 2.87851C8.12575 2.86485 8.12684 2.84916 8.13037 2.83456C8.13362 2.8213 8.14148 2.80084 8.16064 2.78671Z" fill="#262626" stroke="black" stroke-width="0.1"/>
<path d="M8.28394 2.67062L8.42651 2.77316L8.44604 2.78683L8.44702 2.8093C8.44939 2.83899 8.44983 2.8705 8.44507 2.89914C8.44041 2.92704 8.4307 2.95743 8.40991 2.98117C8.32106 3.08248 8.19724 3.16685 8.07397 3.24289C7.94807 3.32055 7.82459 3.38869 7.72241 3.46164C7.26609 3.7873 6.78731 4.08369 6.32495 4.39426C5.79777 4.74865 5.27104 5.10988 4.7312 5.44797C4.64902 5.49938 4.56311 5.54882 4.47729 5.59836C4.39115 5.64809 4.30418 5.69811 4.21948 5.74973C4.05017 5.85293 3.88979 5.96284 3.75659 6.09445C3.74897 6.10198 3.73727 6.10995 3.72144 6.11203C3.70522 6.11413 3.69109 6.10935 3.6814 6.10324C3.66491 6.09274 3.65598 6.07604 3.65112 6.06613C3.63997 6.04335 3.6314 6.01243 3.62671 5.98215C3.62191 5.9511 3.62018 5.91608 3.6228 5.88449C3.62514 5.85632 3.63204 5.81835 3.65601 5.79269L3.65698 5.79172C3.81262 5.62852 4.00156 5.49671 4.19507 5.37668C4.39207 5.2545 4.58642 5.14823 4.76929 5.02902C5.26278 4.7074 5.74594 4.3726 6.23608 4.04367C6.71552 3.72162 7.19592 3.4045 7.66968 3.0759C7.71419 3.04506 7.7622 3.01336 7.8103 2.98215C7.85848 2.95089 7.90757 2.91912 7.95581 2.88644C8.0526 2.82087 8.14517 2.75232 8.22046 2.67648L8.24976 2.64621L8.28394 2.67062Z" fill="#262626" stroke="black" stroke-width="0.1"/>
<path d="M3.34277 5.33173C3.3829 5.36091 3.42147 5.39928 3.45508 5.43524C3.49003 5.47265 3.51883 5.50618 3.5459 5.53192L3.82031 5.80243C3.85442 5.83619 3.86975 5.88181 3.87598 5.92157L3.87988 5.94989L3.85742 5.96747C3.80876 6.00708 3.76141 6.04838 3.71484 6.09052L3.67871 6.12274L3.64551 6.08856C3.55834 5.99977 3.47062 5.91042 3.38672 5.81708C3.33048 5.75413 3.27562 5.68942 3.22363 5.62177V5.62079C3.20806 5.60024 3.19616 5.5769 3.18652 5.55243L3.18359 5.55341C3.17976 5.54538 3.17744 5.53544 3.17578 5.52802L3.1709 5.51532L3.22168 5.50848L3.17188 5.51434L3.1709 5.50458L3.16895 5.48602L3.17871 5.47137C3.20852 5.42619 3.2411 5.38249 3.27441 5.34052L3.30371 5.30341L3.34277 5.33173Z" fill="#262626" stroke="black" stroke-width="0.1"/>
<path d="M8.78955 3.87677C9.21424 3.81032 9.64813 3.82423 10.0063 4.034C10.0195 4.0416 10.0266 4.05223 10.0298 4.05841C10.0332 4.06528 10.0354 4.07266 10.0366 4.07794C10.039 4.08845 10.0398 4.09955 10.0396 4.10919C10.0393 4.11843 10.0376 4.13106 10.0337 4.1424C10.0319 4.14762 10.0277 4.15712 10.019 4.16583C10.0079 4.17698 9.98876 4.18689 9.96631 4.18048L9.96533 4.1795C9.18645 3.94384 8.39696 4.1129 7.6333 4.3797C7.2716 4.50609 6.9468 4.6945 6.62158 4.89044C6.29755 5.08567 5.97197 5.28831 5.61279 5.43536V5.43634C5.59734 5.44255 5.57979 5.44139 5.56494 5.43341C5.55229 5.42661 5.54527 5.4164 5.5415 5.40997C5.53407 5.39724 5.53077 5.38322 5.52979 5.37286C5.52877 5.36187 5.52904 5.34775 5.53271 5.33478C5.53578 5.32416 5.54585 5.29928 5.57373 5.28986L5.7124 5.23712C5.84972 5.17721 5.98416 5.09858 6.11768 5.01349C6.29244 4.90209 6.47303 4.77393 6.64404 4.66974C6.95127 4.48258 7.25965 4.33295 7.59912 4.21271C7.94091 4.09164 8.36445 3.9433 8.78955 3.87677Z" fill="#262626" stroke="black" stroke-width="0.1"/>
<path d="M5.26636 4.82698C5.29722 4.82124 5.3151 4.84341 5.31812 4.84749C5.32298 4.85414 5.32571 4.86076 5.3269 4.86409C5.32837 4.86818 5.32905 4.87238 5.32983 4.87581C5.33137 4.88252 5.33225 4.88978 5.33276 4.89632C5.33301 4.89965 5.33388 4.90402 5.33374 4.90804C5.33364 4.91076 5.33276 4.91828 5.32983 4.92659V4.92757C5.29282 5.02743 5.23165 5.11172 5.17456 5.18929C5.11612 5.26868 5.06154 5.34074 5.02808 5.42366C5.02563 5.42973 5.02211 5.43849 5.01538 5.44612C5.00821 5.45416 4.99374 5.46561 4.97339 5.46565C4.95409 5.46563 4.94054 5.45505 4.93433 5.44905C4.92821 5.44304 4.92397 5.43678 4.92163 5.43245C4.91679 5.42342 4.91369 5.4134 4.91187 5.40608C4.91015 5.39919 4.90882 5.38892 4.90894 5.37971C4.91093 5.27814 4.97331 5.20536 5.02222 5.14729C5.1009 5.05418 5.17792 4.95953 5.22827 4.85628C5.22991 4.85295 5.23315 4.84782 5.23804 4.84261C5.24306 4.83728 5.25251 4.82962 5.26636 4.82698Z" fill="#262626" stroke="black" stroke-width="0.1"/>
<path d="M5.62695 4.61874C5.65528 4.61735 5.67126 4.63708 5.6748 4.64218C5.68335 4.6545 5.68605 4.6697 5.6875 4.67734C5.68933 4.68709 5.69046 4.69844 5.69043 4.70859C5.6904 4.71373 5.6904 4.7202 5.68945 4.72617C5.68864 4.73119 5.6869 4.74041 5.68164 4.7496C5.61786 4.86052 5.53469 4.98191 5.46582 5.09531C5.39489 5.21213 5.33312 5.32881 5.2998 5.44687C5.29801 5.45324 5.29463 5.46377 5.28711 5.47324C5.28298 5.47842 5.27611 5.48535 5.26562 5.48984C5.25417 5.49471 5.24164 5.49486 5.23047 5.49179C5.21207 5.48666 5.20229 5.47365 5.19922 5.46933C5.19499 5.46336 5.1914 5.4573 5.18945 5.45273C5.18546 5.44335 5.18257 5.43286 5.18066 5.42441C5.17926 5.41815 5.17683 5.40547 5.17773 5.39413V5.39316C5.18342 5.33114 5.20583 5.27671 5.23145 5.22812C5.24425 5.20384 5.25798 5.18015 5.27148 5.15781C5.2852 5.13511 5.29846 5.11396 5.31055 5.09238C5.39614 4.93971 5.49321 4.79225 5.58301 4.64609C5.58621 4.64086 5.5998 4.62026 5.62695 4.61874Z" fill="#262626" stroke="black" stroke-width="0.1"/>
<path d="M5.90039 4.51308C5.92958 4.51175 5.94508 4.53286 5.94824 4.53749C5.95699 4.55033 5.96108 4.56647 5.96289 4.57558C5.96512 4.58688 5.96571 4.59989 5.96582 4.61171C5.96587 4.61766 5.96578 4.62464 5.96484 4.63124C5.96402 4.63699 5.96205 4.64623 5.95703 4.65565V4.65663C5.87581 4.80642 5.79277 4.95531 5.70801 5.10292C5.68248 5.14742 5.65915 5.19925 5.62891 5.25819C5.60187 5.31087 5.56853 5.3655 5.52832 5.40761C5.52721 5.409 5.52765 5.41213 5.52637 5.41347L5.52344 5.41444V5.41542C5.51747 5.42132 5.50736 5.42765 5.49414 5.43007C5.48077 5.43242 5.46887 5.42981 5.45996 5.42519C5.44497 5.41726 5.43741 5.40404 5.43457 5.39882C5.42768 5.38609 5.42299 5.37033 5.4209 5.3578C5.41875 5.34471 5.41764 5.32946 5.41895 5.31483C5.41924 5.31169 5.42104 5.30753 5.42188 5.30312C5.4223 5.30024 5.4211 5.29712 5.42188 5.29433L5.46289 5.19472C5.48018 5.16198 5.50058 5.13025 5.52051 5.09999C5.56205 5.03689 5.60143 4.98285 5.63184 4.93105C5.70728 4.80217 5.78212 4.67262 5.85449 4.54237L5.86719 4.52675C5.87457 4.52008 5.88553 4.51383 5.90039 4.51308Z" fill="#262626" stroke="black" stroke-width="0.1"/>
<path d="M6.28418 4.23089C6.31254 4.23035 6.32729 4.25096 6.33008 4.2553C6.33712 4.26638 6.33973 4.27962 6.34082 4.28558C6.34225 4.29349 6.3437 4.30272 6.34375 4.31097C6.34377 4.31513 6.34346 4.32056 6.34277 4.32561C6.34219 4.32981 6.34047 4.33847 6.33594 4.3471C6.2831 4.44887 6.22789 4.54922 6.17285 4.64886C6.11762 4.74886 6.06226 4.84813 6.00977 4.94866C5.99584 4.97533 5.97619 5.00748 5.95605 5.04046C5.93561 5.07394 5.91368 5.10923 5.89355 5.14495C5.87331 5.18088 5.8556 5.21632 5.84277 5.24847C5.82972 5.28118 5.8234 5.3074 5.82324 5.32659L5.81543 5.36663C5.81134 5.37708 5.80331 5.39325 5.78711 5.40374C5.778 5.40959 5.76365 5.41495 5.74707 5.41253C5.73057 5.40997 5.71824 5.40076 5.71094 5.39202C5.69837 5.37674 5.69499 5.35697 5.69336 5.34319C5.68491 5.27101 5.70748 5.20445 5.73535 5.1469C5.74936 5.118 5.765 5.08976 5.78027 5.0639C5.79597 5.03732 5.81061 5.01294 5.82324 4.98968C5.95723 4.74264 6.10113 4.50071 6.23926 4.25823L6.25195 4.24358C6.25921 4.23729 6.26958 4.23127 6.28418 4.23089Z" fill="#262626" stroke="black" stroke-width="0.1"/>
<path d="M6.64014 3.99329C6.66929 3.99329 6.68274 4.01586 6.68506 4.01966C6.69223 4.03151 6.69486 4.04497 6.6958 4.05091C6.6971 4.05915 6.69776 4.0681 6.69775 4.0763C6.69774 4.08036 6.69736 4.08528 6.69678 4.08997C6.69631 4.09362 6.69523 4.10269 6.69092 4.11146C6.58851 4.32063 6.46811 4.52823 6.36279 4.73158C6.34547 4.76509 6.28587 4.85438 6.23584 4.93275C6.20999 4.97323 6.18653 5.01223 6.16943 5.04212C6.16082 5.05718 6.15462 5.06903 6.15088 5.07728C6.14999 5.07923 6.14939 5.08096 6.14893 5.08216L6.14795 5.08314L6.14893 5.08021L6.14697 5.06556L6.14893 5.10267C6.14799 5.11386 6.14573 5.12757 6.14209 5.13978C6.14033 5.14563 6.13831 5.15317 6.13428 5.16029C6.1308 5.16634 6.12129 5.18046 6.104 5.18763C6.08161 5.19676 6.06024 5.18896 6.04736 5.17884C6.03698 5.17055 6.03072 5.15992 6.02686 5.15247C5.98711 5.07571 6.02229 4.99684 6.05615 4.94154C6.07412 4.91223 6.09462 4.88356 6.11279 4.8595C6.13179 4.83435 6.1472 4.81506 6.15674 4.79896C6.23176 4.67173 6.30152 4.54138 6.37256 4.41029C6.4434 4.27956 6.51536 4.14782 6.59424 4.01966C6.59667 4.01574 6.61126 3.99351 6.64014 3.99329Z" fill="#262626" stroke="black" stroke-width="0.1"/>
<path d="M6.94653 3.79906C6.97739 3.79766 6.99252 3.82145 6.99438 3.82446C7.00147 3.83589 7.00401 3.84942 7.00513 3.85571C7.0066 3.86404 7.00693 3.8736 7.00708 3.88207C7.00714 3.88638 7.00762 3.89176 7.00708 3.89672C7.00665 3.90066 7.0051 3.90867 7.00122 3.91723V3.91821C6.91271 4.10851 6.81726 4.2972 6.72681 4.48461C6.7112 4.517 6.69595 4.55228 6.67993 4.5891C6.66406 4.62558 6.64714 4.66385 6.62915 4.70141C6.59767 4.76712 6.55782 4.83117 6.51001 4.88696L6.49731 4.99828L6.45435 4.92895C6.45081 4.92942 6.4475 4.93208 6.4436 4.93188C6.42096 4.93057 6.40607 4.91748 6.39868 4.90844C6.38489 4.89154 6.3795 4.86933 6.3772 4.85375C6.37499 4.83863 6.37535 4.82035 6.37915 4.80297L6.37329 4.79418L6.39282 4.7727C6.39481 4.76986 6.39511 4.76562 6.39771 4.76293C6.39931 4.76126 6.40178 4.76053 6.40356 4.75903C6.45378 4.69998 6.49583 4.62899 6.53442 4.55199C6.55444 4.51206 6.57301 4.47089 6.59204 4.42992C6.61101 4.38907 6.63083 4.3472 6.65063 4.30785C6.73186 4.14635 6.81523 3.98604 6.90161 3.82738L6.91333 3.81274C6.92049 3.80604 6.93141 3.79978 6.94653 3.79906Z" fill="#262626" stroke="black" stroke-width="0.1"/>
<path d="M7.27246 3.60119C7.30104 3.60177 7.31412 3.62356 7.31641 3.62756C7.32245 3.6382 7.32452 3.65033 7.3252 3.6549C7.32617 3.6615 7.32715 3.6689 7.32715 3.67541C7.32714 3.67869 7.32663 3.68313 7.32617 3.68713L7.32129 3.70568C7.21427 3.94094 7.09378 4.15788 7.00879 4.39416C6.99923 4.42074 6.98959 4.45315 6.97754 4.49084C6.96573 4.52774 6.95172 4.56858 6.93555 4.60802C6.90448 4.68376 6.85942 4.7677 6.78613 4.80822C6.77205 4.81597 6.75354 4.81893 6.73535 4.81213C6.71929 4.80608 6.70938 4.79464 6.7041 4.78674C6.69385 4.77131 6.68929 4.75272 6.6875 4.73888C6.68559 4.72399 6.68536 4.70681 6.68848 4.69103C6.69098 4.67849 6.69877 4.65215 6.72363 4.63732L6.76367 4.60509C6.80086 4.56641 6.83082 4.50888 6.85742 4.43908C6.87471 4.39372 6.88914 4.34629 6.9043 4.29943C6.91917 4.25346 6.93465 4.20715 6.95215 4.16759C7.0335 3.98385 7.12154 3.8006 7.22656 3.62658L7.23828 3.61291C7.24574 3.60662 7.25723 3.60096 7.27246 3.60119Z" fill="#262626" stroke="black" stroke-width="0.1"/>
<path d="M7.62183 3.37886C7.62803 3.38405 7.63249 3.39019 7.63452 3.39351C7.64144 3.40493 7.64483 3.41849 7.64624 3.42574C7.64806 3.4351 7.64892 3.44617 7.64917 3.45601C7.64928 3.46081 7.6488 3.46617 7.64819 3.47163L7.64233 3.49409C7.5652 3.66181 7.49732 3.83363 7.42651 4.00679C7.35591 4.17943 7.28292 4.35319 7.19507 4.52046C7.19149 4.52725 7.18467 4.53782 7.17358 4.54585C7.15948 4.556 7.13851 4.56116 7.11792 4.55171C7.10218 4.54439 7.09382 4.53107 7.09058 4.52534C7.08675 4.51851 7.08438 4.51133 7.08276 4.50581C7.07949 4.49458 7.07749 4.48237 7.0769 4.47163C7.07645 4.46304 7.07615 4.44616 7.08179 4.43159L7.30151 3.91011C7.37908 3.73714 7.45999 3.5658 7.54077 3.39839L7.55249 3.38179C7.55922 3.3753 7.57107 3.36748 7.58765 3.36714C7.60358 3.36686 7.61536 3.37358 7.62183 3.37886Z" fill="#262626" stroke="black" stroke-width="0.1"/>
<path d="M7.88208 3.20246C7.9101 3.2034 7.92373 3.22496 7.92603 3.22883C7.93249 3.24001 7.93418 3.25272 7.93481 3.25715C7.93575 3.26386 7.93592 3.27105 7.93579 3.27766C7.93572 3.28104 7.93542 3.28517 7.93481 3.28938C7.93438 3.29236 7.93334 3.30044 7.92896 3.30891C7.83951 3.48125 7.77829 3.67363 7.70923 3.86945C7.64091 4.06316 7.56519 4.25929 7.44653 4.42805C7.44202 4.43442 7.43111 4.44771 7.41235 4.45246C7.3896 4.45807 7.37134 4.44791 7.36157 4.43879C7.35325 4.43087 7.34826 4.42161 7.34595 4.41633C7.34335 4.41033 7.34135 4.40397 7.34009 4.39875C7.33756 4.38832 7.33651 4.37651 7.33618 4.36652C7.33604 4.36167 7.33562 4.35627 7.33618 4.3509C7.33665 4.3465 7.33829 4.33699 7.34302 4.32746C7.42811 4.15346 7.49364 3.96483 7.56763 3.77375C7.64101 3.58424 7.72241 3.39409 7.83716 3.2259L7.84985 3.21223C7.85731 3.2067 7.86801 3.20203 7.88208 3.20246Z" fill="#262626" stroke="black" stroke-width="0.1"/>
<path d="M8.21069 3.02969C8.21714 3.03473 8.2215 3.04043 8.22339 3.04337C8.22956 3.05314 8.23213 3.0643 8.23315 3.06876C8.23463 3.07523 8.23553 3.08266 8.23608 3.08926C8.23636 3.0926 8.23718 3.0969 8.23706 3.10098C8.23697 3.10396 8.23597 3.11134 8.23315 3.11954C8.15834 3.33863 8.06383 3.55797 7.98511 3.7709C7.95897 3.84152 7.92784 3.91096 7.89819 3.97794C7.86834 4.04539 7.84014 4.11145 7.81714 4.17813L7.79663 4.23965C7.79087 4.25502 7.78068 4.27236 7.76831 4.28946C7.76732 4.29154 7.76756 4.29427 7.76636 4.2963C7.76336 4.30129 7.75662 4.30692 7.74878 4.3129L7.74976 4.31387C7.73737 4.32432 7.71723 4.33195 7.69507 4.32462C7.67729 4.31869 7.66709 4.30573 7.66284 4.29922C7.65394 4.28548 7.65027 4.26876 7.64819 4.25626C7.64797 4.25486 7.64839 4.25281 7.64819 4.25137L7.64722 4.24942C7.64481 4.2373 7.64238 4.22018 7.64624 4.20352L7.69214 4.06583C7.7108 4.02087 7.73218 3.97651 7.75366 3.93399C7.79743 3.84738 7.84101 3.76682 7.87183 3.68594C7.95308 3.47284 8.04659 3.26103 8.13062 3.05215C8.13197 3.04886 8.13518 3.04255 8.14038 3.03653C8.14575 3.03037 8.15675 3.02084 8.17358 3.01895C8.19071 3.01709 8.20382 3.02438 8.21069 3.02969Z" fill="#262626" stroke="black" stroke-width="0.1"/>
<path d="M8.43823 3.01234C8.46748 3.01286 8.48136 3.03574 8.48315 3.03871C8.4899 3.04998 8.49285 3.06279 8.4939 3.06898C8.4953 3.07729 8.49586 3.0868 8.49585 3.09535C8.49584 3.09963 8.49557 3.10492 8.49487 3.11C8.49429 3.1142 8.49247 3.12289 8.48804 3.13148C8.38409 3.33395 8.30126 3.55521 8.24292 3.77602C8.20853 3.90655 8.17901 4.05334 8.09155 4.17836C8.0863 4.18586 8.07377 4.20089 8.05249 4.20473C8.02865 4.2089 8.01126 4.19674 8.00269 4.18813C7.99478 4.18007 7.98971 4.17085 7.98706 4.16469C7.98421 4.15797 7.98173 4.15062 7.98022 4.14418C7.97723 4.13123 7.97601 4.11581 7.97632 4.10219C7.97649 4.09553 7.97672 4.0881 7.97827 4.0807C7.97977 4.07369 7.98319 4.06323 7.98999 4.05336L8.05542 3.93227C8.07367 3.88956 8.0891 3.84444 8.10327 3.7975C8.13064 3.70681 8.15531 3.60083 8.18726 3.50844C8.24277 3.34797 8.30381 3.19047 8.39136 3.03969C8.39352 3.03598 8.40791 3.01203 8.43823 3.01234Z" fill="#262626" stroke="black" stroke-width="0.1"/>
<path d="M8.64478 3.17488C8.65949 3.18309 8.66593 3.19663 8.66724 3.1993C8.66947 3.2039 8.67129 3.20807 8.67212 3.21101C8.67379 3.21707 8.6745 3.22371 8.67505 3.22859C8.67536 3.2314 8.67663 3.24095 8.67505 3.25008L8.67407 3.25203C8.64182 3.40268 8.57744 3.55434 8.53345 3.69148C8.48952 3.82841 8.45463 3.98931 8.38403 4.12898C8.38064 4.13571 8.37465 4.147 8.36353 4.15535C8.35728 4.16 8.34754 4.16468 8.33618 4.16609C8.32456 4.16746 8.31367 4.16468 8.30493 4.16023C8.28955 4.15235 8.28148 4.13934 8.27856 4.13387C8.27497 4.12705 8.27327 4.11989 8.27173 4.11433C8.26855 4.10288 8.26646 4.09007 8.26587 4.07918C8.26542 4.07057 8.26561 4.05421 8.27075 4.04012C8.37112 3.76509 8.46729 3.48224 8.56958 3.20613L8.57056 3.20515C8.57196 3.2015 8.57565 3.19201 8.58423 3.18367C8.58917 3.17888 8.59807 3.17246 8.6106 3.17C8.62375 3.16752 8.63578 3.16997 8.64478 3.17488Z" fill="#262626" stroke="black" stroke-width="0.1"/>
<path d="M8.85962 3.32545C8.87207 3.33434 8.87814 3.34638 8.88013 3.35084C8.88279 3.35684 8.88471 3.36333 8.88599 3.36842C8.88857 3.37877 8.8902 3.3905 8.89087 3.40064C8.89121 3.4058 8.89113 3.4118 8.89087 3.41724C8.89064 3.42177 8.88973 3.42953 8.88696 3.43775V3.43873C8.86671 3.49664 8.84718 3.55517 8.82739 3.61353C8.80765 3.67176 8.78717 3.73 8.76685 3.78834C8.75059 3.83511 8.73968 3.87898 8.7229 3.93092C8.70714 3.97964 8.68835 4.03039 8.6604 4.0774C8.6567 4.08359 8.64588 4.099 8.62524 4.10474C8.59942 4.11188 8.58001 4.0987 8.57153 4.0901C8.56387 4.08227 8.55913 4.0738 8.55688 4.06861C8.55437 4.06274 8.5524 4.05639 8.55103 4.05103C8.54826 4.04019 8.54675 4.02752 8.54614 4.01685C8.54586 4.01166 8.5457 4.00594 8.54614 4.00025C8.54652 3.99551 8.54758 3.98554 8.552 3.97584L8.61353 3.8274C8.63244 3.77658 8.64973 3.72459 8.66724 3.67213C8.70198 3.56802 8.73628 3.46035 8.77563 3.3567L8.79321 3.32935C8.79975 3.32362 8.81095 3.31665 8.82544 3.31568C8.84013 3.31472 8.85193 3.32 8.85962 3.32545Z" fill="#262626" stroke="black" stroke-width="0.1"/>
<path d="M9.0249 3.41521C9.05409 3.40977 9.07164 3.42928 9.07666 3.43571C9.08246 3.4432 9.08579 3.45075 9.0874 3.45525C9.08928 3.46051 9.09127 3.46615 9.09229 3.47087C9.09427 3.48017 9.09572 3.49026 9.09619 3.49919C9.09642 3.50369 9.09649 3.50891 9.09619 3.51384C9.09597 3.5174 9.09497 3.52623 9.09131 3.53532C9.06104 3.60998 9.03768 3.68909 9.01221 3.77068C8.98708 3.85115 8.95969 3.93378 8.92334 4.01189C8.92026 4.0185 8.91478 4.02972 8.90479 4.03825C8.89224 4.04889 8.87021 4.05682 8.84717 4.04704C8.83057 4.03987 8.82183 4.02684 8.81885 4.02165C8.81499 4.01493 8.81265 4.00733 8.81104 4.00212C8.80782 3.99161 8.80621 3.98019 8.80518 3.97087C8.80434 3.96335 8.80295 3.95008 8.80518 3.93864L8.83545 3.81169C8.87126 3.68377 8.92373 3.55531 8.98682 3.44353L8.99756 3.42888C9.0037 3.42303 9.01282 3.4175 9.0249 3.41521Z" fill="#262626" stroke="black" stroke-width="0.1"/>
<path d="M9.21997 3.59842C9.24702 3.58868 9.26826 3.60339 9.27661 3.61209C9.28394 3.61982 9.28765 3.62861 9.28931 3.6326C9.29132 3.6375 9.29314 3.64223 9.29419 3.64627C9.29634 3.65454 9.29729 3.6635 9.2981 3.67068C9.29848 3.67417 9.29896 3.67785 9.29907 3.68143C9.29913 3.68332 9.29918 3.69176 9.29712 3.69998C9.28471 3.75105 9.26637 3.80049 9.24731 3.84744C9.22755 3.89611 9.2077 3.94071 9.19067 3.98611C9.18812 3.99277 9.18408 4.00288 9.17603 4.01151C9.16635 4.02175 9.14668 4.03402 9.12231 4.02811C9.10341 4.02344 9.09279 4.00973 9.08911 4.00467C9.08455 3.99831 9.0813 3.99186 9.07935 3.98709C9.07532 3.97727 9.07324 3.96638 9.07153 3.95779C9.07014 3.95069 9.06773 3.93801 9.0686 3.92752L9.08521 3.84256C9.09357 3.81541 9.10499 3.78917 9.11646 3.76443C9.13893 3.71601 9.16661 3.66726 9.18872 3.62576L9.21997 3.59842Z" fill="#262626" stroke="black" stroke-width="0.1"/>
<path d="M5.28467 6.49243C5.55394 6.54618 5.69656 6.80386 5.71729 7.04126C5.71839 7.05423 5.71569 7.068 5.71338 7.07837C5.71094 7.08928 5.70685 7.10303 5.70068 7.1145C5.69774 7.11991 5.69224 7.12794 5.68408 7.13501C5.67533 7.14253 5.65707 7.15408 5.6333 7.14771C5.61244 7.14194 5.60144 7.12597 5.59717 7.11841C5.59226 7.10967 5.58953 7.09962 5.5874 7.09106C5.55518 6.96233 5.49841 6.84766 5.41748 6.76685C5.33784 6.68732 5.23251 6.6389 5.09326 6.64478C4.95445 6.65078 4.85322 6.67872 4.76904 6.72974C4.72667 6.75546 4.68757 6.78786 4.64893 6.82739L4.53271 6.96899C4.52895 6.97425 4.51819 6.98757 4.49854 6.99146C4.4741 6.99607 4.45624 6.98318 4.44873 6.97485C4.44183 6.96713 4.43857 6.95855 4.43701 6.95435C4.43519 6.94941 4.43389 6.94468 4.43311 6.94067C4.43156 6.93274 4.43102 6.92415 4.43115 6.91626C4.43123 6.91233 4.43131 6.90743 4.43213 6.90259C4.43283 6.89852 4.4349 6.88973 4.43994 6.8811L4.51318 6.77271C4.59105 6.67182 4.68335 6.59348 4.79053 6.54224C4.93381 6.47374 5.09945 6.45549 5.28467 6.49243Z" fill="#262626" stroke="black" stroke-width="0.1"/>
<path d="M8.15137 6.49417C8.26083 6.50531 8.38274 6.52677 8.48242 6.58011C8.58462 6.63485 8.66461 6.72389 8.68457 6.86429C8.68621 6.87596 8.68388 6.89048 8.68262 6.89847C8.68101 6.90846 8.67859 6.92078 8.6748 6.93167C8.67296 6.93696 8.66999 6.94364 8.66602 6.95023C8.66318 6.95488 8.65371 6.97003 8.63477 6.97659C8.6235 6.98049 8.61062 6.98091 8.59863 6.97659C8.58797 6.97273 8.58074 6.96601 8.57617 6.96097C8.56775 6.95149 8.56304 6.93986 8.56055 6.93265C8.52648 6.83388 8.45372 6.77363 8.36035 6.73636C8.26568 6.69857 8.15265 6.68563 8.0459 6.68265C7.89007 6.67838 7.77859 6.70166 7.69238 6.75687C7.60631 6.81199 7.53764 6.90355 7.47656 7.05081C7.47432 7.05624 7.46968 7.06812 7.45898 7.07718C7.45287 7.0823 7.44314 7.08835 7.43066 7.08987C7.41758 7.09137 7.40581 7.08695 7.39746 7.08206C7.38372 7.07397 7.37727 7.06212 7.375 7.05765C7.37202 7.05172 7.36947 7.04574 7.36816 7.04105C7.36553 7.03155 7.36392 7.02094 7.36328 7.01175C7.36296 7.00703 7.36298 7.00135 7.36328 6.99612C7.36354 6.99171 7.36417 6.98387 7.36719 6.97562L7.41699 6.84378C7.43416 6.80206 7.45265 6.76266 7.47559 6.72659C7.52336 6.65166 7.58893 6.591 7.69238 6.543C7.83231 6.47802 8.01298 6.48013 8.15137 6.49417Z" fill="#262626" stroke="black" stroke-width="0.1"/>
<path d="M10.9033 6.47539C11.1845 6.40775 11.4742 6.53412 11.6055 6.78398L11.6514 6.89824C11.6536 6.90591 11.6541 6.91439 11.6543 6.91777C11.6545 6.9226 11.6544 6.92797 11.6543 6.9334C11.6541 6.94451 11.653 6.95812 11.6514 6.9705C11.6506 6.97663 11.65 6.98372 11.6484 6.99004C11.6471 6.99556 11.6446 7.00492 11.6396 7.01347C11.6367 7.01862 11.6188 7.04625 11.584 7.04082C11.5695 7.03846 11.559 7.03129 11.5537 7.02617C11.5484 7.0209 11.5453 7.0146 11.543 7.01054H11.542C11.4258 6.80732 11.2738 6.63768 11.0391 6.6541C10.9564 6.65991 10.8303 6.68815 10.7305 6.74199C10.6288 6.79689 10.5722 6.86756 10.584 6.9539C10.5855 6.96493 10.5843 6.97612 10.583 6.9832C10.5816 6.99083 10.5785 7.00068 10.5742 7.00957C10.5722 7.0137 10.5685 7.02136 10.5615 7.02812C10.5544 7.03503 10.5352 7.04786 10.5098 7.04082C10.4891 7.03495 10.4797 7.01926 10.4766 7.01347C10.4727 7.00627 10.4701 6.99869 10.4688 6.99297C10.4349 6.84968 10.4907 6.73068 10.5801 6.64433C10.6682 6.55927 10.7909 6.50245 10.9033 6.47539Z" fill="#262626" stroke="black" stroke-width="0.1"/>
<path d="M4.75684 5.74248C4.78757 5.73759 4.80443 5.75941 4.80762 5.76396C4.81234 5.77082 4.81437 5.77828 4.81543 5.78154C4.81667 5.78541 4.81771 5.78908 4.81836 5.79228C4.81966 5.79877 4.82092 5.80571 4.82129 5.81181C4.82147 5.81492 4.82143 5.81891 4.82129 5.82256C4.8212 5.82493 4.82102 5.83226 4.81836 5.84013V5.84111C4.78388 5.93715 4.7256 6.03013 4.68457 6.11162C4.63626 6.20748 4.59781 6.30048 4.5498 6.40068C4.54812 6.40414 4.54544 6.40931 4.54102 6.41435C4.53659 6.4194 4.52728 6.42746 4.51367 6.43095C4.48081 6.43912 4.46138 6.41418 4.45801 6.40947C4.45286 6.40219 4.45049 6.39471 4.44922 6.39091C4.44765 6.38622 4.44618 6.38136 4.44531 6.37724C4.4436 6.36906 4.44202 6.36031 4.44141 6.35283C4.4411 6.34907 4.4414 6.34501 4.44141 6.34111C4.44141 6.3387 4.4413 6.33132 4.44336 6.32353V6.32256C4.4723 6.21842 4.51871 6.12342 4.56836 6.03349C4.59314 5.98862 4.61918 5.94415 4.64453 5.90068C4.67005 5.85693 4.69452 5.81351 4.71777 5.76982L4.72754 5.75713C4.73262 5.752 4.74285 5.74479 4.75684 5.74248Z" fill="#262626" stroke="black" stroke-width="0.1"/>
<path d="M5.02417 5.76309C5.05232 5.76241 5.06686 5.78261 5.07007 5.78751C5.07758 5.79917 5.08063 5.8133 5.08179 5.81973C5.08332 5.82837 5.0847 5.83821 5.08472 5.84708C5.08472 5.85146 5.08443 5.85656 5.08374 5.86172C5.08316 5.86597 5.08159 5.87522 5.0769 5.88419C4.98573 6.05577 4.87996 6.21923 4.78198 6.38223C4.77329 6.39672 4.75568 6.42193 4.73706 6.44864C4.71765 6.47648 4.69524 6.50893 4.67456 6.54141C4.65371 6.57417 4.63538 6.60538 4.62378 6.63126C4.61797 6.64421 4.61465 6.65434 4.61304 6.66153L4.61108 6.66446L4.61499 6.68985C4.61532 6.69762 4.61524 6.70836 4.61401 6.71817C4.61301 6.72602 4.60989 6.74145 4.60034 6.75528C4.59476 6.76334 4.58479 6.77423 4.56812 6.77872C4.55109 6.78324 4.53618 6.77904 4.52612 6.77383L4.51733 6.76993L4.51636 6.76895C4.48993 6.75488 4.48253 6.72786 4.48022 6.71817C4.47711 6.70504 4.47649 6.69211 4.47632 6.68594C4.47405 6.62192 4.49571 6.56438 4.52222 6.51505C4.54793 6.46723 4.58346 6.41857 4.60718 6.38126C4.73286 6.18337 4.86107 5.99022 4.97925 5.79044C4.98172 5.78625 4.99532 5.76387 5.02417 5.76309Z" fill="#262626" stroke="black" stroke-width="0.1"/>
<path d="M5.18213 5.81578C5.21176 5.81509 5.22659 5.83733 5.229 5.84117C5.23644 5.85299 5.23928 5.86762 5.24072 5.87535C5.24253 5.88511 5.24351 5.89649 5.24365 5.9066C5.24372 5.91162 5.24434 5.91753 5.24365 5.9232C5.24306 5.92803 5.24133 5.93751 5.23682 5.94664C5.15318 6.11375 5.05032 6.27704 4.96338 6.4359C4.95404 6.45294 4.94513 6.47201 4.93506 6.49352C4.92523 6.5145 4.91405 6.53761 4.90186 6.55992C4.87782 6.60389 4.84526 6.6516 4.79443 6.68102C4.77997 6.6894 4.76066 6.69191 4.7417 6.68394C4.72559 6.67712 4.71603 6.66517 4.71143 6.65758C4.70224 6.64234 4.69838 6.62428 4.69678 6.6107C4.69505 6.59598 4.69504 6.57922 4.69775 6.56383C4.69912 6.55615 4.70158 6.54709 4.70557 6.53844C4.70943 6.53013 4.71652 6.51872 4.729 6.51012C4.76474 6.48527 4.79435 6.44266 4.82373 6.38902C4.83823 6.36255 4.85174 6.3349 4.86572 6.30699C4.87934 6.27981 4.89354 6.252 4.90869 6.22691L5.13525 5.84605C5.13729 5.84227 5.15135 5.81665 5.18213 5.81578Z" fill="#262626" stroke="black" stroke-width="0.1"/>
<path d="M5.46289 5.81152C5.49098 5.81186 5.50508 5.8326 5.50781 5.83691C5.51547 5.84905 5.51839 5.86332 5.51953 5.87012C5.52105 5.87915 5.52158 5.8892 5.52148 5.89844C5.52143 5.90306 5.52133 5.90866 5.52051 5.91406C5.51983 5.91844 5.51777 5.92741 5.5127 5.93652C5.45243 6.04414 5.39557 6.15396 5.33887 6.26465C5.2823 6.37509 5.22606 6.4869 5.16602 6.59668L5.08496 6.74414L5.0752 6.60547C5.07011 6.60001 5.0646 6.59642 5.0625 6.59277C5.05829 6.58541 5.05513 6.57761 5.05273 6.57031C5.04789 6.5554 5.04442 6.53747 5.04395 6.52051C5.04353 6.50535 5.04442 6.48187 5.05664 6.46191C5.05886 6.45829 5.06127 6.4548 5.06348 6.45117L5.05762 6.39062L5.08789 6.4082C5.13776 6.3238 5.18635 6.2384 5.23438 6.15137C5.29233 6.04633 5.35162 5.93982 5.41699 5.83691L5.42969 5.82227C5.43726 5.8163 5.44842 5.81139 5.46289 5.81152Z" fill="#262626" stroke="black" stroke-width="0.1"/>
<path d="M5.69141 5.8521C5.72068 5.8509 5.73522 5.87257 5.73828 5.87749C5.74576 5.88952 5.74823 5.90328 5.74902 5.90874C5.75017 5.9167 5.75008 5.92555 5.75 5.93315C5.74996 5.93696 5.75053 5.9415 5.75 5.94585C5.7496 5.94905 5.74786 5.95723 5.74414 5.96538C5.69544 6.07158 5.63945 6.17421 5.58594 6.27495L5.48828 6.44878C5.45712 6.50673 5.43145 6.56309 5.41797 6.6187C5.41621 6.62828 5.41332 6.63933 5.4082 6.64897C5.40274 6.65909 5.38782 6.67913 5.35938 6.68022C5.33408 6.68107 5.31787 6.66577 5.3125 6.65971C5.30561 6.65191 5.30119 6.64245 5.29785 6.6353C5.29108 6.62071 5.28575 6.60336 5.2832 6.58647C5.28124 6.57329 5.28291 6.55646 5.28613 6.5396L5.28223 6.53276L5.29004 6.51811C5.32999 6.40041 5.4036 6.29197 5.45898 6.19585C5.51943 6.09088 5.5796 5.98043 5.64844 5.87651L5.66113 5.86382C5.66809 5.85825 5.67809 5.85272 5.69141 5.8521Z" fill="#262626" stroke="black" stroke-width="0.1"/>
<path d="M5.69897 6.20996C5.73098 6.2063 5.74838 6.23086 5.75073 6.23438C5.75894 6.24668 5.76176 6.26227 5.76343 6.27051C5.76553 6.28094 5.76697 6.29292 5.76733 6.30371C5.7675 6.30907 5.7679 6.31542 5.76733 6.32129L5.76147 6.34473C5.73224 6.41035 5.69815 6.47515 5.66772 6.53711C5.64091 6.59173 5.61765 6.64611 5.59741 6.70117C5.59499 6.71343 5.59214 6.72566 5.58667 6.73535C5.5819 6.74633 5.57029 6.76863 5.54468 6.77637C5.51232 6.78593 5.48927 6.76483 5.48218 6.75684C5.47385 6.7474 5.46881 6.73645 5.46558 6.72852C5.46213 6.71998 5.45916 6.70998 5.45776 6.70117C5.45386 6.67615 5.45737 6.65229 5.46265 6.62988L5.3894 6.53125L5.48706 6.56348C5.49976 6.53699 5.51386 6.51025 5.52319 6.49219C5.56935 6.40286 5.61377 6.32832 5.65601 6.24219C5.65796 6.2382 5.662 6.23142 5.66772 6.22559C5.6736 6.21967 5.68398 6.21179 5.69897 6.20996Z" fill="#262626" stroke="black" stroke-width="0.1"/>
<path d="M5.70435 6.68959C5.72556 6.69369 5.73679 6.7082 5.74048 6.714C5.74811 6.72606 5.75021 6.74009 5.75122 6.74623C5.75258 6.75448 5.75311 6.76328 5.75317 6.77065C5.7532 6.77426 5.75357 6.77833 5.75317 6.78236L5.74731 6.80287C5.73482 6.8294 5.71944 6.85523 5.70728 6.87611C5.69432 6.89837 5.68338 6.91763 5.677 6.93764C5.67161 6.95483 5.65441 6.98229 5.61938 6.98158C5.58895 6.98095 5.57142 6.95896 5.5647 6.94447V6.9435C5.55188 6.91487 5.5551 6.88521 5.56177 6.86342C5.5796 6.80492 5.61123 6.74841 5.65649 6.70424L5.67407 6.69252C5.68223 6.6891 5.69242 6.6873 5.70435 6.68959Z" fill="#262626" stroke="black" stroke-width="0.1"/>
<path d="M7.62817 5.72012C7.65546 5.72005 7.66971 5.73947 7.6731 5.74453C7.68132 5.75688 7.68462 5.77189 7.68579 5.77871C7.68731 5.78773 7.68793 5.79776 7.68774 5.80703C7.68765 5.81168 7.68674 5.81712 7.68579 5.82265L7.67798 5.84609C7.60652 5.96392 7.54371 6.08619 7.47778 6.21035C7.47584 6.21403 7.46252 6.23922 7.43188 6.24062C7.40091 6.24201 7.38604 6.21745 7.38403 6.21426C7.37635 6.20198 7.3728 6.18701 7.37134 6.1791C7.36947 6.16892 7.36858 6.15731 7.36841 6.14687C7.36833 6.14169 7.36872 6.136 7.36938 6.13027C7.36995 6.12538 7.3709 6.11597 7.37524 6.10683L7.4729 5.92226C7.5077 5.8619 7.54463 5.80242 7.58325 5.74453L7.59692 5.73086C7.60434 5.72527 7.61449 5.72016 7.62817 5.72012Z" fill="#262626" stroke="black" stroke-width="0.1"/>
<path d="M7.83911 5.7599C7.86527 5.76128 7.87874 5.78006 7.88208 5.78529C7.88965 5.79731 7.89253 5.81193 7.8938 5.81947C7.89538 5.82896 7.89693 5.83994 7.89673 5.84974C7.89662 5.85467 7.89579 5.86055 7.89478 5.86634C7.89394 5.87109 7.89178 5.88035 7.88599 5.88978C7.72813 6.14585 7.57679 6.4018 7.46118 6.67591C7.45794 6.68363 7.45176 6.69648 7.4397 6.70618C7.43289 6.71165 7.42298 6.71753 7.4104 6.71888C7.39779 6.7202 7.38665 6.71665 7.37817 6.71204C7.36333 6.70384 7.35492 6.69049 7.35181 6.6847C7.348 6.67753 7.34592 6.66969 7.34399 6.66322C7.34005 6.64991 7.33703 6.63486 7.33618 6.62122C7.33576 6.61436 7.33558 6.60697 7.33618 6.59974C7.33674 6.59316 7.33873 6.58324 7.34302 6.57337L7.44067 6.36732C7.54488 6.16484 7.66543 5.97233 7.79126 5.78431L7.80591 5.76966C7.81375 5.76395 7.82474 5.75923 7.83911 5.7599Z" fill="#262626" stroke="black" stroke-width="0.1"/>
<path d="M8.09717 5.77683C8.10827 5.7858 8.11346 5.79719 8.11475 5.80027C8.11855 5.8095 8.1205 5.81972 8.12158 5.82761C8.12276 5.83624 8.12324 5.847 8.12256 5.85691C8.1222 5.86173 8.12124 5.86745 8.11963 5.87351C8.11812 5.87912 8.11533 5.88889 8.10791 5.89793C7.9925 6.03572 7.91567 6.19778 7.83838 6.36668C7.76194 6.53373 7.68425 6.70908 7.56787 6.86179C7.56265 6.86865 7.54997 6.88283 7.52881 6.88621C7.50358 6.89021 7.48531 6.87615 7.47705 6.86668C7.46962 6.85798 7.46551 6.84827 7.46338 6.84226C7.46099 6.83546 7.45963 6.82808 7.4585 6.82175C7.45625 6.80909 7.45517 6.79516 7.45557 6.78269C7.45577 6.77649 7.45633 6.76977 7.45752 6.76316C7.45856 6.75745 7.46068 6.74732 7.46631 6.73777L7.59229 6.49949C7.63226 6.41729 7.67164 6.33258 7.71436 6.24754C7.79844 6.08013 7.89377 5.91398 8.02783 5.77976L8.06299 5.76511C8.07899 5.76453 8.09062 5.77156 8.09717 5.77683Z" fill="#262626" stroke="black" stroke-width="0.1"/>
<path d="M8.30029 5.76368C8.32897 5.76331 8.34345 5.78483 8.34619 5.78907C8.35389 5.80117 8.35672 5.81544 8.35791 5.82227C8.35951 5.83147 8.3609 5.84213 8.36084 5.85157C8.3608 5.8562 8.35969 5.86184 8.35889 5.8672C8.35817 5.87183 8.35698 5.88074 8.35205 5.88966C8.22293 6.12501 8.09451 6.36007 7.97607 6.59962L7.91748 6.71778L7.89404 6.62989C7.88542 6.62502 7.87869 6.61996 7.87549 6.61622C7.86877 6.60835 7.86406 6.59922 7.86084 6.5918C7.85438 6.57684 7.85018 6.55878 7.84912 6.54102C7.84835 6.52747 7.85075 6.51019 7.85693 6.49317L7.84912 6.4668L7.87354 6.45802C7.99824 6.2362 8.11976 6.00903 8.25439 5.79005L8.26807 5.7754C8.27548 5.76936 8.286 5.76388 8.30029 5.76368Z" fill="#262626" stroke="black" stroke-width="0.1"/>
<path d="M8.59302 5.78098C8.60076 5.78894 8.60459 5.7978 8.60571 5.80051C8.60903 5.80854 8.61103 5.81801 8.61255 5.8259C8.61414 5.83423 8.61635 5.84453 8.61646 5.85423C8.6165 5.85902 8.6155 5.86476 8.6145 5.87083L8.60571 5.89524C8.46217 6.12285 8.35198 6.3749 8.22974 6.6218L8.14868 6.78489L8.13794 6.63255C8.13295 6.62694 8.12695 6.624 8.12524 6.62083C8.12138 6.61362 8.11846 6.60594 8.11646 6.59934C8.1124 6.58591 8.1097 6.57016 8.10864 6.55637C8.10779 6.54517 8.10697 6.52532 8.11353 6.50852L8.12622 6.48411L8.12036 6.41477L8.15063 6.4343C8.16685 6.40129 8.18179 6.36775 8.19946 6.33665C8.23087 6.28138 8.26171 6.23052 8.28931 6.17747C8.35715 6.04706 8.42438 5.91011 8.51489 5.78587L8.53052 5.77219C8.53762 5.76797 8.54671 5.765 8.55786 5.76536C8.57705 5.76602 8.58916 5.77708 8.59302 5.78098Z" fill="#262626" stroke="black" stroke-width="0.1"/>
<path d="M8.70654 5.96527C8.71274 5.97042 8.71611 5.97643 8.71826 5.97992C8.72547 5.99178 8.72949 6.00623 8.73096 6.0141C8.73278 6.02395 8.73362 6.03522 8.73389 6.04535C8.73401 6.05038 8.73347 6.05638 8.73291 6.06195C8.73242 6.06666 8.73103 6.07547 8.72705 6.08441V6.08539C8.67778 6.19299 8.62364 6.29774 8.56787 6.40082C8.55673 6.42145 8.54399 6.44253 8.53174 6.46332C8.51925 6.48451 8.50714 6.50572 8.49561 6.52679C8.47226 6.56947 8.45351 6.60966 8.4458 6.64691C8.44388 6.65613 8.44115 6.66669 8.43604 6.67621C8.43172 6.68422 8.41917 6.70388 8.39307 6.70746C8.36661 6.71105 8.34901 6.6951 8.34326 6.6889C8.33654 6.68159 8.33239 6.67329 8.32959 6.66742C8.32373 6.65503 8.31939 6.64026 8.31689 6.62738C8.31461 6.61545 8.31224 6.59801 8.31494 6.58246C8.32417 6.52931 8.34592 6.48057 8.36963 6.43695C8.3815 6.41515 8.39456 6.39359 8.40674 6.37347C8.4192 6.3529 8.43107 6.33291 8.44189 6.3139C8.50484 6.20318 8.56819 6.09533 8.62451 5.98383L8.63623 5.9682C8.64289 5.9619 8.655 5.95396 8.67139 5.95355C8.68761 5.95315 8.69987 5.95974 8.70654 5.96527Z" fill="#262626" stroke="black" stroke-width="0.1"/>
<path d="M8.61865 6.47763C8.64416 6.47685 8.65992 6.49306 8.66455 6.49814C8.67578 6.51049 8.6824 6.52652 8.68506 6.53622L8.68604 6.5372C8.68851 6.54703 8.69088 6.56098 8.69092 6.57626L8.68115 6.62411C8.67486 6.63789 8.66788 6.65143 8.66162 6.66415C8.65531 6.67699 8.64954 6.68916 8.64404 6.70126V6.70224C8.63972 6.71166 8.6368 6.71993 8.63135 6.73349C8.62641 6.74574 8.61952 6.761 8.60986 6.77548C8.60543 6.78214 8.59617 6.79352 8.58057 6.7999C8.56047 6.80792 8.54031 6.80365 8.52686 6.79404C8.51604 6.78629 8.51022 6.77602 8.50732 6.7706C8.50401 6.76438 8.50118 6.75823 8.49951 6.75302C8.49617 6.74257 8.49394 6.73149 8.49268 6.72275C8.49203 6.71823 8.49197 6.71318 8.4917 6.70908C8.49151 6.70617 8.49081 6.69989 8.4917 6.69345L8.50537 6.63974C8.51112 6.62312 8.51777 6.60745 8.5249 6.59286C8.5321 6.57815 8.54008 6.56323 8.54736 6.5499C8.55467 6.53652 8.56156 6.52425 8.56787 6.51181C8.57327 6.50119 8.58864 6.47856 8.61865 6.47763Z" fill="#262626" stroke="black" stroke-width="0.1"/>
<path d="M10.7114 5.74587C10.7203 5.75459 10.7239 5.7653 10.7251 5.76833C10.7287 5.77753 10.7315 5.78836 10.7329 5.79763C10.7344 5.80729 10.7353 5.81876 10.7349 5.82986C10.7345 5.83798 10.7332 5.85737 10.7212 5.8738C10.6422 5.98086 10.5755 6.09674 10.5083 6.2156C10.5056 6.22037 10.4924 6.2432 10.4634 6.2449C10.4327 6.24653 10.4174 6.22301 10.4146 6.21853C10.4063 6.20548 10.4024 6.18939 10.4009 6.18044C10.3989 6.16922 10.3981 6.15662 10.3979 6.14529C10.3979 6.13957 10.3982 6.13286 10.3989 6.12673C10.3995 6.12167 10.4004 6.11245 10.4048 6.10329L10.5093 5.91872C10.548 5.85999 10.5906 5.80395 10.6353 5.74978L10.6499 5.73708C10.6568 5.73323 10.6658 5.73096 10.6763 5.73122C10.6948 5.73171 10.7068 5.74131 10.7114 5.74587Z" fill="#262626" stroke="black" stroke-width="0.1"/>
<path d="M10.9487 5.74983C10.9579 5.75804 10.9621 5.76841 10.9634 5.77132C10.9671 5.77984 10.9706 5.78952 10.9722 5.79768C10.9739 5.80631 10.9751 5.81691 10.9751 5.82698C10.9751 5.83199 10.9743 5.83814 10.9731 5.84456C10.9721 5.85034 10.9693 5.8602 10.9624 5.86995C10.8777 5.98977 10.8039 6.11698 10.731 6.2469C10.6583 6.37634 10.5862 6.50978 10.5063 6.63753C10.5034 6.64227 10.4931 6.65853 10.4722 6.66389C10.4442 6.67105 10.4248 6.65419 10.4175 6.64534C10.411 6.63726 10.4073 6.62838 10.4058 6.62386C10.404 6.61851 10.4027 6.61278 10.4019 6.60823C10.4001 6.59907 10.3993 6.58895 10.3989 6.58089C10.3988 6.57703 10.3988 6.57302 10.3989 6.56917C10.399 6.56674 10.3994 6.55856 10.4019 6.55061C10.4527 6.38605 10.5579 6.2394 10.6401 6.1053C10.7123 5.98773 10.786 5.86902 10.8735 5.75764C10.8796 5.74987 10.8934 5.73762 10.9136 5.73714C10.9314 5.73682 10.9436 5.74532 10.9487 5.74983Z" fill="#262626" stroke="black" stroke-width="0.1"/>
<path d="M11.1748 5.74848C11.2011 5.7491 11.215 5.76727 11.2188 5.7729C11.2268 5.7853 11.2294 5.80032 11.2305 5.80708C11.2319 5.81615 11.2327 5.82615 11.2324 5.8354C11.2323 5.84002 11.2324 5.84553 11.2314 5.85102C11.2307 5.85543 11.2282 5.86434 11.2227 5.87348C11.0389 6.17249 10.8548 6.49157 10.6338 6.77192C10.6272 6.78028 10.6139 6.79493 10.5918 6.79731C10.5676 6.79992 10.5504 6.78686 10.542 6.77778C10.5277 6.7622 10.5221 6.74038 10.5195 6.72797C10.5164 6.71287 10.5149 6.69574 10.5156 6.68012C10.516 6.67245 10.5166 6.66398 10.5186 6.65571C10.5205 6.64788 10.525 6.63593 10.5332 6.62543C10.7453 6.3518 10.9261 6.05954 11.1289 5.77192L11.1436 5.75825C11.1511 5.7529 11.1613 5.7482 11.1748 5.74848Z" fill="#262626" stroke="black" stroke-width="0.1"/>
<path d="M11.4314 5.79486C11.4395 5.80278 11.4439 5.81168 11.4451 5.81439C11.4485 5.8224 11.4503 5.83195 11.4519 5.83978C11.4535 5.84798 11.4547 5.85835 11.4548 5.8681C11.4549 5.87286 11.4549 5.87862 11.4539 5.8847C11.4528 5.8904 11.4507 5.90048 11.4441 5.9101L11.4431 5.90912C11.2901 6.1371 11.1255 6.36534 11.0066 6.60541C11.0036 6.61138 10.9936 6.63152 10.9695 6.63763C10.9407 6.64492 10.921 6.6269 10.9148 6.62006C10.9079 6.61239 10.9034 6.60396 10.9011 6.59857C10.8986 6.59256 10.8969 6.58586 10.8953 6.58002C10.8921 6.56833 10.8894 6.55494 10.8884 6.54291C10.888 6.53693 10.888 6.52989 10.8884 6.52338C10.8888 6.51771 10.8898 6.50709 10.8943 6.49701L10.9431 6.40228C10.9972 6.30891 11.0633 6.22105 11.1169 6.13959C11.1929 6.02428 11.2722 5.91162 11.3542 5.80072L11.3699 5.78705C11.3768 5.78296 11.3855 5.78004 11.3962 5.78021C11.4152 5.78067 11.4274 5.79096 11.4314 5.79486Z" fill="#262626" stroke="black" stroke-width="0.1"/>
<path d="M11.605 5.82861C11.6326 5.82913 11.6467 5.84898 11.6499 5.854C11.6578 5.86651 11.6612 5.88198 11.6626 5.89014C11.6643 5.90031 11.6646 5.91188 11.6646 5.92236C11.6645 5.92761 11.6645 5.93398 11.6636 5.93994C11.6628 5.94496 11.6612 5.95486 11.6558 5.96436C11.5939 6.07117 11.5205 6.17774 11.4546 6.28174C11.3878 6.38708 11.3267 6.49205 11.2827 6.60107C11.28 6.60782 11.2749 6.61921 11.2651 6.62842C11.2597 6.6335 11.2506 6.63939 11.2388 6.64209C11.2263 6.64482 11.2144 6.64273 11.2046 6.63818C11.188 6.63042 11.1798 6.61654 11.1772 6.61182C11.1737 6.60528 11.1711 6.5985 11.1694 6.59326C11.1661 6.58252 11.1638 6.57077 11.1626 6.56104C11.1616 6.55334 11.1606 6.53936 11.1626 6.52783L11.1919 6.43213C11.2047 6.40214 11.2196 6.37378 11.2358 6.34717L11.3354 6.19775C11.3722 6.13996 11.4095 6.0826 11.4468 6.02588C11.4842 5.96889 11.5221 5.91222 11.5581 5.85498C11.5617 5.84934 11.5761 5.82807 11.605 5.82861Z" fill="#262626" stroke="black" stroke-width="0.1"/>
<path d="M11.6252 6.19675C11.6529 6.19455 11.6693 6.21355 11.6741 6.22018C11.6795 6.22789 11.6823 6.23585 11.6838 6.24069C11.6856 6.24634 11.6869 6.25211 11.6877 6.25729C11.6895 6.26759 11.6909 6.27923 11.6907 6.28952C11.6906 6.2946 11.6896 6.30044 11.6887 6.30612C11.6879 6.31092 11.6861 6.32036 11.6809 6.32956C11.6055 6.4647 11.5206 6.58449 11.4651 6.71725C11.4618 6.72501 11.4569 6.7372 11.4465 6.74655C11.4409 6.75162 11.4321 6.75661 11.4211 6.75925C11.4095 6.76193 11.3976 6.76113 11.3879 6.75729C11.3709 6.75044 11.3621 6.73659 11.3586 6.73093C11.3542 6.7238 11.351 6.71649 11.3489 6.71042C11.3446 6.69807 11.3415 6.68422 11.3401 6.67233C11.3394 6.66629 11.3391 6.65989 11.3391 6.65378C11.3391 6.64847 11.3396 6.64007 11.342 6.63132C11.3643 6.5494 11.413 6.4863 11.4514 6.42917C11.4735 6.39625 11.4943 6.3624 11.5159 6.32761C11.5373 6.29295 11.5595 6.25699 11.5833 6.22214L11.5959 6.20847C11.6028 6.20298 11.6126 6.1978 11.6252 6.19675Z" fill="#262626" stroke="black" stroke-width="0.1"/>
<path d="M11.6292 6.55545C11.652 6.55401 11.6673 6.56631 11.6741 6.57303L11.6956 6.61111V6.61209C11.7019 6.63671 11.7039 6.67217 11.6868 6.70291C11.6599 6.75112 11.6333 6.79872 11.6086 6.84744L11.6028 6.85818L11.593 6.866L11.5833 6.87283L11.5686 6.8826L11.551 6.88162H11.5452C11.5244 6.88008 11.5095 6.8685 11.5012 6.85818C11.4936 6.84857 11.4897 6.8378 11.4875 6.83084C11.4833 6.81681 11.4825 6.80209 11.4827 6.79373C11.4836 6.74569 11.5015 6.70534 11.5217 6.67166C11.5402 6.64093 11.5672 6.60612 11.5833 6.58279V6.58182C11.59 6.5721 11.605 6.55697 11.6292 6.55545Z" fill="#262626" stroke="black" stroke-width="0.1"/>
</svg>
