<svg width="64" height="64" viewBox="0 0 64 64" fill="none" xmlns="http://www.w3.org/2000/svg">
<rect width="64" height="64" fill="white"/>
<g clip-path="url(#clip0_252_5)">
<path d="M4 2H20.0985H20.8955H21.4048H39.3107H40.8496H60V61.989H4V2Z" fill="black"/>
<path d="M4 2H20.0985L20.0982 2.05246C19.2422 2.19225 17.9148 2.30021 17.3613 3.06713C16.8487 3.77742 16.9853 6.85067 16.8464 7.88936C15.8214 7.85054 14.298 8.21308 13.2238 8.29659C12.0858 8.38507 10.1366 8.24879 9.3223 9.12711C9.25483 9.4936 9.26108 10.3299 9.37032 10.6723C9.35885 10.8279 9.37899 10.8602 9.43917 11.0064L9.41179 11.0807C9.39598 11.4486 9.57994 11.8282 9.48286 12.0223C9.41535 12.133 9.45106 12.5379 9.48129 12.6691C9.84464 18.2031 9.59421 24.0594 9.7512 29.6271L9.7568 30.3103L9.77862 30.4918L9.80129 31.1372L9.82573 31.3066L10.2079 44.1016C10.2665 46.6642 10.2364 49.2433 10.3773 51.8009C10.4034 52.2753 10.527 53.7992 10.834 54.1774C11.0331 54.4225 12.3046 54.4298 12.6938 54.4329C12.7015 55.2487 12.6597 57.5869 13.7466 57.7334C14.8019 57.8757 16.0001 57.8773 17.0724 57.8826C18.6906 57.8934 20.3088 57.8937 21.9271 57.8834C23.1976 57.8707 24.4792 57.8109 25.7498 57.7622C30.4391 57.5819 35.1323 57.6586 39.8202 57.5658C43.7048 57.511 47.586 57.3153 51.4565 56.9797C51.941 56.9379 52.4262 56.9038 52.9118 56.8773C53.369 56.8524 54.232 56.8999 54.53 56.5467C55.0563 55.9234 54.6942 54.7305 54.6827 53.9714C54.6666 52.9535 54.6808 51.9635 54.6597 50.9636C54.5841 46.4325 54.5434 41.9011 54.5377 37.3696C54.5434 35.3658 54.5231 33.3621 54.4763 31.3589C54.4779 31.1138 54.4821 30.9545 54.4453 30.7141C54.4399 30.399 54.4598 30.0566 54.4721 29.7397C54.4901 28.8654 54.4614 27.8692 54.4583 26.9841L54.438 21.1917C54.4291 19.6923 54.4123 18.193 54.3877 16.6938C54.3762 15.8475 54.3923 12.7539 54.0441 12.1535C54.0325 12.1274 53.9681 12.0591 53.9455 12.0331C53.8174 11.905 53.8853 11.8631 53.6517 11.7094C53.6218 11.6861 53.4649 11.6198 53.4204 11.6001C53.3068 11.5831 53.1933 11.5653 53.0798 11.5467C53.0015 11.5155 52.9099 11.5138 52.8232 11.505L52.7139 11.4565C52.6375 11.4616 52.5424 11.4607 52.4638 11.4618L52.333 11.432L52.1063 11.4271C51.9636 11.4274 51.9379 11.4173 51.8228 11.4887L51.6855 11.4587C51.5739 11.4086 51.4493 11.4227 51.3361 11.4574L51.2813 11.4741C51.2011 11.4755 51.073 11.4674 51.0097 11.5031L50.8885 11.5149L50.6403 11.521C50.5759 11.4199 50.5859 11.374 50.5805 11.2487L50.61 11.0247C50.5939 10.79 50.5383 10.4978 50.5157 10.2456C50.5368 10.1487 50.5368 10.1971 50.5057 10.0955C50.4305 9.50078 50.274 8.35481 49.5104 8.30955C47.4871 8.18969 45.4381 7.97969 43.4144 7.90313C43.4581 6.11938 43.775 2.76964 41.5641 2.18437C41.3444 2.12619 41.0357 2.0992 40.8496 2H60V61.989H4V2Z" fill="#FEFEFE"/>
<path d="M51.9178 12.7771C52.8127 12.8653 52.9059 13.1885 52.9128 14.0324C52.9692 17.5695 52.7969 21.1308 52.861 24.6638C52.9055 27.109 53.0528 29.5833 53.121 32.0324C53.2664 38.3777 53.3681 44.7238 53.426 51.0706C53.4306 52.4081 53.5338 53.7632 53.5173 55.0727C53.1437 55.6814 52.8621 55.6684 52.1867 55.6565C51.1346 55.6373 50.1285 55.8122 49.0833 55.9008C47.4313 56.0289 45.777 56.1218 44.1212 56.1804C39.0576 56.3458 33.9874 56.1816 28.9226 56.271C26.5927 56.312 24.2743 56.4796 21.9472 56.5671C20.5465 56.6196 15.1387 56.8735 14.231 55.9714C13.8751 55.6177 13.931 54.9446 13.9141 54.4862C13.9469 54.4897 13.9782 54.4928 14.0112 54.4939C17.7384 54.5948 21.4209 54.4264 25.141 54.2649L34.3944 53.9439L43.9436 53.6505C45.5864 53.6029 47.2276 53.5634 48.8677 53.4445C49.4078 53.4054 49.9689 53.3866 50.504 53.3091C50.7004 53.2807 50.9374 53.1917 51.0767 53.0448C51.3643 52.7422 51.0602 46.8614 51.0375 46.1898C50.7779 40.0926 50.5964 33.9923 50.4925 27.8905C50.4645 25.3179 50.5589 22.7078 50.5642 20.1284C50.5692 17.7097 50.5312 15.2699 50.6064 12.8566C50.9044 12.8586 51.2351 12.7956 51.5542 12.7897C51.7145 12.7995 51.7594 12.8004 51.9178 12.7771Z" fill="#FEFEFE"/>
<path d="M21.4043 2H39.3102C39.058 2.08033 38.7129 2.10171 38.445 2.12907C35.6049 2.41902 36.2044 5.56246 36.186 7.55873C35.6125 7.46295 34.9443 7.46407 34.3562 7.45172C33.5521 7.43373 32.7479 7.42042 31.9437 7.41179C29.3899 7.3803 26.5271 7.31402 23.981 7.44554C23.9874 6.70688 23.9368 6.00086 23.9021 5.26994C23.8199 3.5458 23.624 2.44806 21.6941 2.11589C21.5597 2.07889 21.5277 2.06526 21.4043 2Z" fill="#FEFEFE"/>
<path d="M9.4121 11.0806C9.55387 10.9896 9.64934 10.8587 9.78209 10.8242C9.85872 10.9244 9.83183 10.9177 9.83429 11.0763C9.84768 11.1577 9.85749 11.2016 9.85504 11.2858L9.76268 11.3373C9.79774 11.5365 9.85316 11.6941 9.76191 11.8692C9.66 11.9385 9.60012 11.9607 9.52218 12.0616L9.48318 12.0222C9.58026 11.8282 9.3963 11.4485 9.4121 11.0806Z" fill="black"/>
<path d="M50.5256 11.5125L50.6403 11.521C50.7358 11.6961 50.6883 12.0398 50.6507 12.2316C50.2211 12.1222 50.322 11.7938 50.5256 11.5125Z" fill="black"/>
<path d="M33.6841 9.42258C34.4905 9.41142 35.3891 9.44475 36.1735 9.41284C36.1187 9.8913 36.131 11.2441 36.1547 11.7518C35.0085 12.6097 34.212 14.1103 34.2801 15.5501C34.4128 18.3575 36.9971 20.1416 39.6446 20.0007C42.3746 19.8554 44.4884 17.5191 44.3032 14.7838C44.241 13.8581 43.8271 12.7428 43.1099 12.1195C43.2154 11.4593 43.3178 10.2206 43.3535 9.55361C44.203 9.54847 45.0545 9.61306 45.9038 9.63719C46.5339 9.6551 47.2796 9.58633 47.8918 9.73538C48.1414 9.79621 48.4836 9.92685 48.6128 10.1653C49.0501 10.9719 48.8733 17.7414 48.8859 19.2068C48.9093 21.899 49.0685 24.5869 49.1529 27.2775L49.553 40.3265C49.6788 43.6115 49.9534 46.899 49.8625 50.1869C49.8491 50.6717 49.851 51.2789 49.7313 51.7407C49.3313 51.8139 48.1867 51.8665 47.751 51.8868C45.8731 51.9758 43.9825 52.0088 42.1009 52.0732L26.2412 52.6754C24.4186 52.784 22.4848 52.8028 20.642 52.8933C18.757 52.9888 16.8706 53.0528 14.9834 53.0858C14.3198 53.0931 12.6749 53.1852 12.0148 52.9362C11.8921 52.8898 11.7578 52.5519 11.7414 52.3897C11.5715 50.7047 11.6411 49.002 11.6611 47.3109C11.6783 44.8247 11.6787 42.3388 11.6625 39.8528C11.6184 35.5473 11.5293 31.2424 11.3953 26.9388L10.935 16.7219L10.7914 12.6876C10.7584 11.879 10.6906 11.0619 10.6958 10.2534C10.6964 10.1629 10.6854 9.95758 10.7429 9.88616C11.1275 9.40889 15.9161 9.54406 16.8136 9.48994L16.8086 11.7757C15.6717 12.5137 14.8029 14.3343 14.9424 15.6538C15.0382 16.7776 15.5822 18.0185 16.4778 18.7418C18.6839 20.5237 21.9096 20.4613 23.831 18.2716C25.2671 16.6349 25.463 13.4852 23.6946 12.0421C23.8297 11.2239 23.8811 10.3487 23.9067 9.52089C27.0795 9.40686 30.5017 9.43586 33.6841 9.42258Z" fill="#FEFEFE"/>
<path d="M23.1895 23.532C24.5165 23.4032 25.9946 23.9065 27.054 24.707C28.8918 26.0955 29.8897 29.1597 30.1513 31.3576C30.4847 34.1594 30.0684 37.6088 28.2559 39.8819C27.1233 41.3021 25.9318 41.9776 24.1458 42.1828L24.0993 42.1886C22.6871 42.3596 21.0249 41.9362 19.9009 41.0471C18.1775 39.713 17.4691 37.5396 17.1686 35.4653C16.6076 31.593 18.5103 24.0974 23.1895 23.532Z" fill="black"/>
<path d="M21.0324 39.9936C19.5441 38.8689 18.8464 37.2146 18.6032 35.3907C18.2841 32.5847 18.7185 29.1389 20.3698 26.7837C21.0071 25.8748 22.328 24.9805 23.3941 24.8885C26.8955 24.5912 28.5864 27.9133 28.9151 30.9016C29.2292 33.757 28.7645 37.057 26.9975 39.407C25.4676 41.4416 23.3539 41.2927 21.3393 40.1746C21.2138 40.0845 21.1734 40.0539 21.0324 39.9936Z" fill="#FEFEFE"/>
<path d="M23.228 27.9018C25.0836 27.7184 26.2421 28.7741 26.8141 30.477C27.7598 33.2926 27.5547 37.7705 24.2292 38.9055C21.9511 39.575 20.521 37.2171 20.2704 35.2746C19.9457 32.7573 19.9545 28.406 23.228 27.9018Z" fill="black"/>
<path d="M23.6322 29.0143C25.4078 28.7194 26.2621 31.9187 26.2241 33.2706C26.1772 34.935 25.8865 37.8086 23.8144 38.1099C22.2828 38.0184 21.5177 36.9604 21.277 35.5224C20.9669 33.6702 21.1025 31.5617 22.1153 29.9307C22.4275 29.4279 23.0665 29.1081 23.6322 29.0143Z" fill="#FEFEFE"/>
<path d="M20.8114 40.231C21.0263 40.388 20.9342 40.5679 20.8154 40.7884C20.6556 40.5614 20.6384 40.4344 20.8114 40.231Z" fill="black"/>
<path d="M31.9768 29.6771C32.7689 27.1659 34.5734 24.0003 36.8632 22.5824C38.1417 21.7906 40.5003 22.0317 41.1413 23.4978C41.7574 24.9072 41.4581 27.2512 41.4603 28.8114C41.4716 31.0786 41.5587 33.3448 41.7213 35.6062C41.762 36.1989 41.773 37.2601 41.9754 37.831C42.1873 38.4289 43.0627 38.3019 43.6165 38.3593C44.3898 38.4394 45.5059 38.2899 45.8968 39.1911C46.4472 40.4604 45.8807 41.8305 44.4105 41.9268C42.8241 42.0549 41.283 42.0706 39.7116 42.1374L36.3442 42.2812C35.596 42.3119 34.8845 42.3314 34.1199 42.3345C32.759 42.3798 31.6058 41.6111 32.1131 40.1255C32.6126 38.6626 34.6254 38.8451 35.8792 38.7676C36.845 38.7079 36.9045 38.1267 36.9545 37.2668C37.0105 36.3031 36.8454 35.3037 36.7849 34.3417C36.6946 33.1931 36.8111 31.9749 36.4381 30.8693C36.3708 30.6698 36.1271 30.4948 35.9242 30.6357C35.6392 30.8439 35.4577 31.2616 35.272 31.5613C34.8113 32.3051 34.0167 32.5921 33.1723 32.406C32.478 32.253 32.1536 32.0258 31.8988 31.3703C31.7611 30.8905 31.8091 30.5819 31.8976 30.0996C31.9335 29.904 31.9914 29.9108 31.9768 29.6771Z" fill="black"/>
<path d="M43.396 39.6901C43.6898 39.7007 44.0423 39.6947 44.2851 39.8833C44.396 39.9691 44.4926 40.088 44.5076 40.2316C44.5195 40.3468 44.4727 40.4512 44.3937 40.5333C43.6503 41.3065 38.9419 41.0189 37.7177 41.045C36.9447 41.0618 36.1814 41.2049 35.4039 41.2118C34.7992 41.2172 33.96 41.2394 33.5091 40.7707C33.4283 40.6867 33.3455 40.5755 33.3549 40.452C33.4233 39.56 36.8601 39.7481 37.5375 39.5554C37.64 39.5263 37.7668 39.4251 37.841 39.3475C38.0117 39.1693 38.088 38.9344 38.1126 38.6938C38.1933 37.905 38.0749 36.6457 38.0489 35.8203C38.0056 34.0276 37.9474 32.2353 37.8743 30.4436C37.8394 29.7383 37.6172 28.6677 36.6492 28.7418C35.6693 28.8169 35.1942 30.0084 34.6482 30.6603C34.356 31.0091 33.693 31.4872 33.2737 31.0297C32.675 30.3687 33.2938 29.2985 33.6079 28.6473C34.4395 26.9239 35.2652 25.6527 36.69 24.3557C37.871 23.2806 39.4116 22.8132 40.1307 24.6805C40.4621 25.5409 40.3191 26.9188 40.2849 27.8645C40.2673 28.3965 40.2636 28.9288 40.2736 29.461C40.3227 31.9891 40.452 34.5151 40.6613 37.035C40.7138 37.7309 40.7395 38.4076 40.7652 39.1037C40.7867 39.6827 41.5136 39.6594 41.9438 39.6783C42.1245 39.6809 42.3545 39.6974 42.5223 39.6489C42.5027 39.56 42.4908 39.5469 42.5203 39.4607C42.8115 39.1987 43.3784 39.1194 43.439 39.6139L43.396 39.6901Z" fill="#FEFEFE"/>
<path d="M39.7639 3.28087C40.8076 3.16943 41.9736 3.8883 41.9478 5.04184C41.8794 8.09895 41.98 11.1885 41.5789 14.227C41.4156 15.4643 40.6763 15.7046 39.5471 15.6128C39.069 15.6031 38.2612 15.4315 37.8843 15.1286C37.5192 14.8464 37.4304 14.2274 37.3839 13.7922C37.1988 11.8734 37.3591 10.084 37.4078 8.14471C37.4353 7.04926 37.2345 5.08678 37.8882 4.16075C38.244 3.65666 39.1606 3.34035 39.7639 3.28087Z" fill="#FEFEFE"/>
<path d="M20.4283 3.28129C20.4406 3.27941 20.4529 3.27689 20.4654 3.27566C20.9913 3.22363 21.6057 3.20403 22.0361 3.55961C22.44 3.89325 22.544 4.29107 22.5881 4.79576C22.667 5.6991 22.5779 6.63882 22.5693 7.54629C22.558 8.73917 22.6574 14.0772 22.0445 14.7431C21.6925 15.1256 20.848 15.2268 20.349 15.2655C19.5669 15.346 18.2649 15.5002 18.1609 14.4318C18.0946 13.7512 18.0973 13.0726 18.0913 12.3891C18.0778 11.0571 18.0808 9.72504 18.1 8.39316C18.1095 7.23074 18.0882 6.08166 18.131 4.91819C18.1832 3.49483 19.2569 3.4164 20.4283 3.28129Z" fill="#FEFEFE"/>
<path d="M36.1219 13.0752C36.3026 13.3371 36.0857 15.5841 37.1116 16.2802C38.295 17.0832 40.396 17.275 41.6513 16.5891C42.5343 16.1067 42.5953 14.742 42.7856 13.8805C43.0207 14.9255 43.0663 15.501 42.7154 16.5174C41.6606 18.8333 38.8235 19.6405 36.7335 18.171C35.5553 17.3426 34.9533 15.5934 35.4225 14.2244C35.581 13.7621 35.8191 13.4461 36.1219 13.0752Z" fill="#FEFEFE"/>
<path d="M16.794 13.0769C16.9267 13.2454 16.7788 15.4944 17.2416 16.04C17.6252 16.4923 18.0609 16.7049 18.6783 16.7909C19.64 16.9248 21.819 16.9197 22.6078 16.4114C23.2035 16.0275 23.3088 14.6028 23.4101 13.9097C23.726 14.9137 23.6782 15.7198 23.2923 16.6856C22.2938 18.9223 19.1724 19.6184 17.2718 18.0653C16.4982 17.4252 16.0159 16.5 15.934 15.4993C15.8455 14.5038 16.1793 13.8112 16.794 13.0769Z" fill="#FEFEFE"/>
<path d="M54.2216 49.4351L54.2649 49.493C54.2392 49.7588 54.2323 49.9885 54.1813 50.2532C54.029 50.3257 53.9719 50.3522 53.8491 50.4768C53.8023 50.0591 54.0716 49.8086 54.2216 49.4351Z" fill="black"/>
</g>
<defs>
<clipPath id="clip0_252_5">
<rect width="56" height="59.989" fill="white" transform="translate(4 2)"/>
</clipPath>
</defs>
</svg>
