<svg width="10" height="6" viewBox="0 0 10 6" fill="none" xmlns="http://www.w3.org/2000/svg">
<path d="M4.4233 0H5.56344C5.60985 0.0267457 5.86668 0.0403652 5.93211 0.0463441C6.08649 0.0603467 6.2404 0.0792526 6.3936 0.103033C6.5522 0.127847 6.71313 0.147803 6.86972 0.180674C7.40994 0.292969 7.93423 0.471625 8.43057 0.712578C8.57912 0.785318 8.7302 0.858253 8.86447 0.955917C8.95285 1.0202 9.05474 1.0772 9.14018 1.14377C9.3522 1.31139 9.5403 1.50721 9.69927 1.72577C9.78728 1.84994 9.85499 1.98732 9.89985 2.13276C9.91918 2.19509 9.95259 2.34179 9.9825 2.38696V2.84359C9.95992 2.87634 9.93094 3.00078 9.91645 3.04742C9.89902 3.10293 9.87989 3.1579 9.85916 3.21227C9.65157 3.76267 9.00848 4.22653 8.50286 4.49035C8.30698 4.59256 8.07536 4.68541 7.86957 4.76862C7.7334 4.82366 7.58753 4.86136 7.44609 4.89931C7.06432 5.02215 6.69312 5.08807 6.29815 5.1417C5.61655 5.23793 4.92652 5.25927 4.2403 5.20549C3.73534 5.16888 3.23464 5.08728 2.74417 4.96171C2.66942 4.94201 2.59336 4.91563 2.51884 4.89391C2.4192 4.86487 2.30965 4.84127 2.21236 4.8062C2.03873 4.74361 1.85782 4.67136 1.69221 4.59017C1.63469 4.56197 1.56047 4.53283 1.50621 4.50311C1.38593 4.43722 1.2594 4.36403 1.14448 4.28954C1.07191 4.24251 0.947141 4.17454 0.881141 4.12086C0.74334 4.00879 0.569668 3.86002 0.455957 3.72613C0.35732 3.60999 0.243077 3.47111 0.178624 3.33783C0.113892 3.20354 0.0662212 3.06326 0.0327576 2.91807C0.0272276 2.89408 0.016748 2.85616 0 2.83833V2.38729C0.0299612 2.34495 0.0671328 2.17711 0.088589 2.1118C0.16765 1.86663 0.31895 1.6608 0.487472 1.4685C0.585838 1.35625 0.739066 1.23573 0.85322 1.13731C0.902251 1.09504 0.975635 1.05896 1.02735 1.01845C1.19109 0.890196 1.36122 0.806515 1.54602 0.71611C2.05094 0.468919 2.58545 0.287412 3.13648 0.176018C3.3696 0.129202 3.60839 0.105911 3.84087 0.0683255C3.94525 0.0514487 4.37698 0.0340272 4.4233 0ZM5.18224 4.96395C5.35544 4.95979 5.52631 4.9478 5.699 4.93466C6.2289 4.8943 6.73762 4.81963 7.2502 4.67595C7.37669 4.6405 7.50183 4.59707 7.62609 4.55464C7.6972 4.53037 7.77057 4.5128 7.8409 4.48646C8.00678 4.42437 8.16673 4.34584 8.32399 4.26491C8.38061 4.23576 8.43975 4.211 8.49575 4.18069C8.55669 4.14772 8.61542 4.10781 8.67415 4.071C8.82374 3.97722 9.03906 3.83293 9.15941 3.70662C9.22531 3.63742 9.29858 3.57146 9.35988 3.49844C9.57057 3.24751 9.72118 2.91983 9.7134 2.58759C9.70674 2.3032 9.53891 1.90058 9.33137 1.70332C9.27248 1.64739 9.22133 1.58513 9.16333 1.52913C9.06216 1.43144 8.89474 1.29893 8.77872 1.22089C8.67421 1.15062 8.56149 1.09558 8.45089 1.03604C8.29749 0.953453 8.14889 0.876506 7.98786 0.809191C7.9017 0.773185 7.8127 0.743433 7.72484 0.711913C7.47899 0.622014 7.22824 0.546088 6.97378 0.484489C6.88658 0.464197 6.78356 0.44946 6.69431 0.432507C6.08314 0.313058 5.46104 0.25856 4.83837 0.269922L4.80484 0.270938C4.28606 0.280096 3.76917 0.336048 3.26045 0.438114C3.17271 0.455105 3.06765 0.469609 2.98378 0.489621C2.7345 0.550651 2.48886 0.62569 2.24803 0.714373C1.97881 0.812341 1.72896 0.918555 1.48139 1.06533C1.42693 1.09761 1.36437 1.12253 1.31 1.1559C1.13868 1.26844 0.957969 1.39566 0.809222 1.53626C0.757092 1.58553 0.676423 1.67305 0.628954 1.72725C0.420772 1.96493 0.259406 2.33216 0.271511 2.64935C0.288177 3.08605 0.541112 3.45284 0.853927 3.73738C1.02485 3.89215 1.24967 4.03569 1.44613 4.15725C1.50343 4.1927 1.5747 4.2195 1.63386 4.25278C1.89386 4.39901 2.14402 4.48544 2.42461 4.57754C2.74188 4.68455 3.06629 4.76907 3.39544 4.83048C3.49175 4.84829 3.6053 4.85959 3.7044 4.87312C4.19383 4.94249 4.68799 4.97286 5.18224 4.96395Z" fill="black"/>
<path d="M4.81218 0.43541C5.07205 0.431032 5.33201 0.43617 5.59147 0.450812C5.70218 0.456557 5.81639 0.460496 5.92632 0.471432C6.38605 0.518047 6.84063 0.606317 7.28437 0.735161C7.37291 0.76003 7.48067 0.783671 7.56415 0.813712C7.95268 0.953529 8.34806 1.12059 8.68646 1.35966C8.73993 1.3954 8.79882 1.42564 8.85007 1.46457C9.02064 1.59421 9.14537 1.70975 9.27396 1.88116C9.44752 2.11249 9.5441 2.29914 9.54817 2.59578C9.55225 2.8954 9.45954 3.11933 9.27283 3.35162C9.17357 3.47748 9.11866 3.56162 8.98001 3.65458C8.91628 3.69733 8.84904 3.77409 8.77958 3.81748C8.72833 3.84952 8.67764 3.88581 8.62448 3.91573C8.4847 4.01297 8.33594 4.09429 8.18471 4.17234C8.13335 4.19884 8.04023 4.22941 7.98165 4.2542C7.75457 4.35213 7.52177 4.43627 7.28458 4.50616C7.21765 4.5255 7.14397 4.53778 7.07529 4.5551C6.45674 4.71316 5.8217 4.79772 5.1833 4.80701C4.42255 4.81739 3.67722 4.75217 2.93955 4.56188C2.86118 4.54166 2.77723 4.52846 2.70095 4.50656C2.47196 4.4408 2.24879 4.35781 2.02959 4.26476C1.96898 4.23903 1.87002 4.20571 1.81557 4.17827C1.6759 4.1079 1.53395 4.03202 1.40348 3.94583C1.33636 3.90148 1.26547 3.86343 1.19971 3.81508C1.13432 3.77538 1.06959 3.69903 1.00979 3.65774C0.87682 3.56591 0.816466 3.48744 0.719121 3.36437C0.540503 3.13855 0.437387 2.92431 0.434631 2.63322C0.431936 2.3485 0.518641 2.11226 0.699842 1.89373C0.740999 1.84445 0.777382 1.78372 0.823767 1.73925C0.929558 1.63786 1.04547 1.53573 1.1607 1.44493C1.20773 1.40788 1.27795 1.37177 1.32972 1.33758C1.60964 1.15522 1.90824 1.00328 2.22044 0.884342C2.28262 0.860649 2.34561 0.839127 2.40831 0.816842C2.48753 0.788683 2.57035 0.773411 2.65103 0.750156C3.12853 0.607431 3.619 0.512303 4.11523 0.466165C4.32947 0.446712 4.59691 0.440478 4.81218 0.43541ZM5.15701 4.69154C5.52594 4.68285 5.89409 4.6526 6.25952 4.60095C6.35109 4.58774 6.44839 4.56235 6.53883 4.55213C6.92808 4.50815 7.29149 4.38798 7.65861 4.25832C7.90137 4.17259 8.1185 4.07898 8.34006 3.94579C8.39689 3.91166 8.46418 3.88726 8.5211 3.8524C8.71307 3.72727 8.93113 3.56035 9.08839 3.39446C9.29443 3.17705 9.45067 2.88804 9.43891 2.58215C9.42736 2.28012 9.24246 1.97579 9.0261 1.77343C8.76783 1.53584 8.47691 1.3364 8.16217 1.18115C8.05828 1.12969 7.94762 1.09433 7.84125 1.04972C7.635 0.963258 7.42364 0.886033 7.20909 0.822529C7.09488 0.788714 6.95484 0.762557 6.83666 0.736956C6.19785 0.598645 5.48134 0.519986 4.82734 0.538626C4.62412 0.545231 4.38685 0.555095 4.18336 0.573745C3.83899 0.606642 3.49694 0.660334 3.15905 0.734522C2.83172 0.805245 2.53181 0.884976 2.22171 1.0162C2.08438 1.07471 1.93391 1.12166 1.80283 1.19306C1.42527 1.39873 1.05234 1.62113 0.787179 1.96482C0.185531 2.74464 0.796212 3.43415 1.47015 3.85583C1.52838 3.89227 1.59323 3.91781 1.6528 3.95195C2.09706 4.21207 2.601 4.3656 3.09665 4.49369C3.21919 4.52535 3.35747 4.53732 3.48284 4.55905C4.02379 4.65282 4.60821 4.7099 5.15701 4.69154Z" fill="black"/>
<path d="M4.29348 2.6524C4.50523 2.64189 4.8218 2.62488 4.8581 2.90431C4.88409 3.14231 4.81247 3.42269 4.67804 3.6216C4.57532 3.77358 4.45674 3.83385 4.28353 3.8613C4.26235 3.86404 4.24111 3.86626 4.21982 3.86796C3.52212 3.91916 3.68035 3.31048 3.90282 2.89366C3.97679 2.75506 4.13778 2.6615 4.29348 2.6524ZM4.24387 3.56842C4.30361 3.55911 4.34053 3.53268 4.37655 3.4837C4.44671 3.38827 4.54748 3.1302 4.53 3.01315C4.52722 2.99456 4.52071 2.97576 4.50504 2.96422C4.46419 2.93414 4.37133 2.93988 4.32268 2.9461C4.25708 2.96139 4.21447 2.983 4.17786 3.04147C4.11831 3.13654 4.00765 3.40683 4.03328 3.5128C4.03725 3.52922 4.04422 3.54401 4.05933 3.55293C4.10705 3.5811 4.19059 3.57348 4.24387 3.56842Z" fill="black"/>
<path d="M5.85693 1.2192C6.03838 1.21776 6.35255 1.19555 6.50713 1.27467C6.83208 1.44097 6.59897 2.01123 6.44289 2.22831C6.37905 2.31715 6.31712 2.34049 6.21689 2.37229C6.08406 2.41056 5.9253 2.40605 5.78706 2.40582C5.73442 2.40574 5.46614 2.41365 5.44634 2.39405C5.44453 2.35788 5.49434 2.22362 5.50857 2.18292L5.66579 1.74129C5.70719 1.62645 5.78722 1.41278 5.79861 1.29412C5.74148 1.21856 5.79645 1.21929 5.85693 1.2192ZM5.86961 2.11601C5.92293 2.11655 5.97954 2.11814 6.03255 2.11547C6.13748 2.10418 6.20817 2.0247 6.24715 1.93206C6.29207 1.8254 6.3427 1.70629 6.33718 1.58889C6.33326 1.50634 6.2519 1.50822 6.1892 1.50787C6.15991 1.50936 6.11428 1.51052 6.0869 1.51567C6.01755 1.69862 5.96026 1.88688 5.88704 2.06848C5.8807 2.08428 5.87487 2.09981 5.86961 2.11601Z" fill="black"/>
<path d="M7.2858 2.65784C7.42754 2.65336 7.58352 2.66081 7.72325 2.65935C8.11002 2.6553 8.11291 2.93365 7.99468 3.21828C7.93435 3.36362 7.86149 3.3886 7.72099 3.44268C7.72619 3.45269 7.73125 3.46279 7.73609 3.47298C7.76213 3.52807 7.87655 3.79848 7.86077 3.8425C7.83721 3.85658 7.59084 3.85541 7.54083 3.857C7.52773 3.81002 7.51422 3.76316 7.5003 3.71641C7.48318 3.64294 7.44085 3.52357 7.41615 3.44768L7.31818 3.4478C7.29544 3.51255 7.26883 3.58354 7.24553 3.64593C7.23357 3.67803 7.18809 3.84513 7.16695 3.84748C7.11879 3.85283 6.87979 3.8607 6.84839 3.84757C6.84762 3.75984 6.9426 3.57756 6.96534 3.48689C7.02845 3.23556 7.16081 2.97942 7.21366 2.72948C7.19788 2.71472 7.19051 2.70958 7.18329 2.68946C7.18633 2.64855 7.25249 2.65838 7.2858 2.65784ZM7.40161 3.17149C7.47544 3.17303 7.54856 3.17579 7.62235 3.17124C7.66277 3.16264 7.68742 3.13909 7.70938 3.10491C7.7281 3.07576 7.7561 3.01913 7.74821 2.98512C7.74553 2.97371 7.74187 2.96693 7.73187 2.9602C7.6884 2.93103 7.5779 2.94346 7.52809 2.94746C7.50726 2.95007 7.49803 2.95177 7.48457 2.96924C7.44064 3.02642 7.42785 3.10556 7.40161 3.17149Z" fill="black"/>
<path d="M2.91628 2.65776C3.04038 2.65415 3.45514 2.64421 3.55978 2.69522C3.61437 2.72193 3.65612 2.76924 3.67583 2.82674C3.71667 2.94483 3.67517 3.11304 3.62168 3.22067C3.55027 3.36435 3.49404 3.39014 3.35363 3.43969C3.40013 3.56313 3.47176 3.69876 3.49761 3.82717C3.50592 3.86847 3.20478 3.85219 3.17005 3.84463C3.15216 3.80567 3.13526 3.73538 3.12422 3.69309C3.11837 3.66299 3.07014 3.51214 3.05545 3.48805C2.92893 3.28059 2.84864 3.82921 2.79307 3.84868C2.76462 3.85864 2.50223 3.85309 2.48882 3.8483C2.46281 3.8115 2.58148 3.53657 2.59863 3.48218C2.62242 3.40676 2.64826 3.32241 2.67207 3.24699C2.72455 3.08079 2.80173 2.91877 2.83716 2.74772C2.84734 2.69944 2.79572 2.71476 2.80448 2.67617C2.82301 2.6566 2.88585 2.65912 2.91628 2.65776ZM3.03815 3.17316C3.11025 3.17432 3.18286 3.17629 3.25486 3.17176C3.28522 3.16832 3.30549 3.15237 3.3245 3.12898C3.35188 3.0953 3.38071 3.03859 3.37609 2.99376C3.37482 2.98142 3.3696 2.97031 3.35938 2.96296C3.31944 2.93421 3.2223 2.94316 3.1758 2.94639C3.15411 2.9467 3.13707 2.94452 3.12107 2.96099C3.07254 3.01091 3.0527 3.10683 3.03815 3.17316Z" fill="black"/>
<path d="M4.65384 1.21923C4.76624 1.2163 4.88587 1.21782 4.99888 1.21755C5.03399 1.40692 5.08168 1.66394 5.1319 1.84438C5.14143 1.80972 5.147 1.76737 5.15874 1.73296C5.20257 1.60538 5.24274 1.47439 5.29018 1.34827C5.30038 1.32112 5.3225 1.2356 5.33911 1.22954C5.39046 1.21086 5.59089 1.21296 5.63812 1.22372C5.64431 1.24642 5.63704 1.27917 5.6292 1.301C5.55155 1.51666 5.47333 1.72889 5.4115 1.94979C5.38768 2.03492 5.34576 2.12507 5.31967 2.21116C5.30699 2.25303 5.26903 2.36372 5.24532 2.39487C5.21314 2.41359 5.13268 2.40713 5.09187 2.4066C5.04186 2.40701 4.98845 2.40885 4.93913 2.40234C4.91229 2.28089 4.88813 2.15886 4.86666 2.03634C4.84508 1.91392 4.83864 1.79388 4.78824 1.67926C4.76582 1.72071 4.731 1.83911 4.71346 1.89189L4.60136 2.22132C4.58728 2.26411 4.55802 2.36531 4.53287 2.3968C4.50395 2.41216 4.26881 2.40826 4.24055 2.39982C4.22825 2.34049 4.58086 1.47422 4.59772 1.28922C4.576 1.27343 4.55948 1.26947 4.56534 1.24082C4.58784 1.21855 4.62304 1.22051 4.65384 1.21923Z" fill="black"/>
<path d="M3.62898 1.21839L4.10155 1.21718C4.11949 1.61425 4.14216 2.0111 4.16957 2.40763C4.08597 2.40246 3.93646 2.40545 3.85185 2.40894C3.8434 2.33209 3.84704 2.22931 3.84355 2.14794C3.73227 2.15114 3.63736 2.14595 3.52174 2.15318C3.51063 2.15391 3.49855 2.15452 3.4912 2.16392C3.43505 2.23574 3.39971 2.32344 3.34413 2.39612C3.29984 2.40616 3.02462 2.41639 3.0083 2.39386C3.0176 2.34964 3.10027 2.21496 3.12866 2.17045C3.21045 2.04219 3.28289 1.91435 3.35724 1.78175C3.44246 1.62977 3.57518 1.46384 3.63073 1.29959C3.61649 1.26616 3.60181 1.24775 3.62898 1.21839ZM3.65438 1.90818C3.7186 1.90556 3.77605 1.90863 3.83778 1.90715C3.83846 1.84424 3.84941 1.60237 3.81454 1.56573C3.78663 1.64037 3.63275 1.8672 3.63437 1.90436C3.6457 1.91039 3.64092 1.90894 3.65438 1.90818Z" fill="black"/>
<path d="M6.28243 2.65804C6.42211 2.6529 6.57969 2.65833 6.72128 2.65686C6.80254 2.65601 6.97847 2.65327 7.04994 2.66371C7.05628 2.69038 6.98017 2.91218 6.96068 2.93621C6.93882 2.94876 6.58721 2.94299 6.51714 2.94891C6.491 2.99207 6.46207 3.06534 6.44181 3.1134C6.56303 3.12622 6.73613 3.12197 6.86148 3.12214C6.82631 3.20805 6.81074 3.38201 6.70937 3.37716C6.60712 3.37226 6.48507 3.36482 6.38602 3.38205C6.34827 3.38863 6.31228 3.52956 6.29919 3.56528C6.38452 3.56676 6.46991 3.56752 6.55525 3.56754C6.61449 3.5678 6.6908 3.57021 6.74835 3.56278C6.72757 3.6584 6.69235 3.74896 6.67152 3.85191C6.59505 3.85295 5.88498 3.85623 5.8606 3.84528C5.86317 3.79168 5.93949 3.61168 5.95954 3.54956C5.99466 3.44023 6.0372 3.33328 6.07494 3.22505C6.09526 3.15166 6.11624 3.0844 6.14238 3.01267C6.16884 2.94002 6.20369 2.86289 6.21163 2.78551C6.21519 2.75101 6.19281 2.6929 6.20993 2.66464C6.22514 2.65435 6.26216 2.65786 6.28243 2.65804Z" fill="black"/>
<path d="M5.06559 2.65779C5.14265 2.65489 5.23269 2.65691 5.31106 2.65665C5.31204 2.95071 5.33416 3.23471 5.32292 3.5319C5.3485 3.4769 5.38309 3.42674 5.4096 3.37208C5.47745 3.23556 5.53861 3.09146 5.61569 2.96C5.67288 2.86239 5.71578 2.76108 5.76914 2.66234C5.80482 2.65499 6.06001 2.65459 6.09553 2.6613C6.116 2.70521 5.98483 2.9167 5.95549 2.96806C5.85634 3.11698 5.78286 3.28387 5.69494 3.43674C5.61177 3.58127 5.53634 3.70194 5.45899 3.8526C5.32581 3.8571 5.18561 3.84569 5.05117 3.85709C5.04829 3.83377 5.04763 3.80652 5.04686 3.78291C5.03947 3.5575 5.02573 3.33295 5.01276 3.10791C5.00568 2.98499 5.01062 2.85939 4.98406 2.73856C4.97439 2.73055 4.96486 2.72236 4.95548 2.71401C4.9399 2.69988 4.9394 2.69567 4.93848 2.67706L4.94728 2.66745C4.97983 2.6556 5.02937 2.65844 5.06559 2.65779Z" fill="black"/>
<path d="M2.46921 1.2188C2.51712 1.21859 2.80714 1.21206 2.83518 1.22171C2.84926 1.25817 2.8012 1.38015 2.78535 1.42065C2.69648 1.6477 2.6334 1.88969 2.54111 2.11425C2.66469 2.12252 2.87386 2.12087 2.99869 2.11577C2.99323 2.15814 2.98474 2.20006 2.97329 2.24121C2.96273 2.28035 2.93651 2.38652 2.90814 2.40288C2.84354 2.40896 2.1252 2.40902 2.10267 2.39804C2.0987 2.38925 2.09668 2.38074 2.10021 2.37105C2.19835 2.10152 2.29597 1.83113 2.38217 1.55749C2.41047 1.46767 2.44633 1.39174 2.45658 1.29819C2.4546 1.29463 2.45267 1.29103 2.4508 1.28741C2.44201 1.27037 2.43314 1.25105 2.43918 1.23207C2.4528 1.2181 2.44736 1.22212 2.46921 1.2188Z" fill="black"/>
<path d="M2.49473 2.81087C2.49711 2.81513 2.49861 2.81795 2.4995 2.82279C2.50563 2.85599 2.48772 2.88892 2.47044 2.91553C2.39195 2.95812 2.30342 2.97646 2.21819 3.00106C2.16258 3.01711 2.10795 3.03577 2.05297 3.05379C2.02351 3.06346 1.99029 3.07153 1.96226 3.08453C1.95084 3.08984 1.94581 3.09158 1.94114 3.10377L1.94839 3.11209C2.00614 3.13249 2.31115 3.12691 2.39072 3.11963C2.3705 3.20049 2.34764 3.28076 2.32609 3.36121C2.31165 3.41513 2.27196 3.41979 2.22366 3.41754C2.14177 3.41374 2.0595 3.41416 1.97751 3.414C1.84223 3.41431 1.63823 3.42012 1.50935 3.4106C1.49465 3.38306 1.58967 3.14956 1.61074 3.1146C1.72432 3.03934 1.94048 3.01073 2.07059 2.95993C2.17155 2.92052 2.41186 2.86588 2.49473 2.81087Z" fill="black"/>
<path d="M6.99455 1.6452C7.25633 1.6439 7.51816 1.64492 7.77995 1.64826C7.7439 1.71232 7.68945 1.9155 7.64676 1.9513C7.60386 1.98723 7.44742 2.01602 7.38395 2.03789C7.25329 2.08293 7.11732 2.12164 6.98624 2.16946C6.94814 2.18334 6.80248 2.23896 6.77113 2.23078L6.76685 2.22141C6.76772 2.06242 7.3114 2.0145 7.35651 1.94265C7.34058 1.91537 6.93566 1.95825 6.8875 1.92532C6.87961 1.88818 6.95649 1.67229 6.99455 1.6452Z" fill="black"/>
</svg>
