<svg width="16" height="14" viewBox="0 0 16 14" fill="none" xmlns="http://www.w3.org/2000/svg">
<rect width="16" height="14" fill="white"/>
<path d="M9.80078 4.8727C10.4341 4.87276 10.9492 5.38788 10.9492 6.02113V7.89711C10.949 8.53016 10.4339 9.04548 9.80078 9.04555C9.16762 9.04555 8.65258 8.5302 8.65234 7.89711V6.02113C8.65238 5.38783 9.1675 4.8727 9.80078 4.8727ZM9.80078 5.22914C9.36417 5.22914 9.00883 5.58448 9.00879 6.02113V7.89711C9.00902 8.33361 9.36428 8.6891 9.80078 8.6891C10.2373 8.68904 10.5925 8.33357 10.5928 7.89711V6.02113C10.5927 5.58452 10.2374 5.22921 9.80078 5.22914Z" fill="black" stroke="black" stroke-width="0.1"/>
<path d="M11.3975 7.47412C11.4958 7.47412 11.576 7.55353 11.5762 7.65186V7.88135C11.5762 8.85987 10.7795 9.65674 9.80078 9.65674C8.82216 9.65662 8.02637 8.8598 8.02637 7.88135V7.65186C8.02657 7.55363 8.10591 7.47427 8.2041 7.47412C8.3024 7.47412 8.38261 7.55351 8.38281 7.65186V7.88135C8.38281 8.66319 9.01886 9.2992 9.80078 9.29932C10.5828 9.29932 11.2197 8.66326 11.2197 7.88135V7.65186C11.2199 7.55359 11.2992 7.47421 11.3975 7.47412Z" fill="black" stroke="black" stroke-width="0.1"/>
<path d="M11.5713 7.47412C11.6695 7.47426 11.7488 7.55362 11.749 7.65186C11.749 7.75027 11.6696 7.83043 11.5713 7.83057H11.2236C11.1253 7.83042 11.0459 7.75026 11.0459 7.65186C11.0461 7.55363 11.1254 7.47427 11.2236 7.47412H11.5713Z" fill="black" stroke="black" stroke-width="0.1"/>
<path d="M8.37817 7.47412C8.47636 7.47428 8.55571 7.55364 8.55591 7.65186C8.55591 7.75025 8.47648 7.83041 8.37817 7.83057H8.03052C7.9322 7.83042 7.85278 7.75026 7.85278 7.65186C7.85298 7.55363 7.93232 7.47427 8.03052 7.47412H8.37817Z" fill="black" stroke="black" stroke-width="0.1"/>
<path d="M9.80078 9.2999C9.8991 9.2999 9.97929 9.37931 9.97949 9.47763V10.588C9.97949 10.6865 9.89922 10.7667 9.80078 10.7667C9.70246 10.7665 9.62305 10.6864 9.62305 10.588V9.47763C9.62325 9.3794 9.70259 9.30004 9.80078 9.2999Z" fill="black" stroke="black" stroke-width="0.1"/>
<path d="M10.3472 10.4101C10.4455 10.4101 10.5257 10.4896 10.5259 10.5878C10.5259 10.6863 10.4456 10.7666 10.3472 10.7666H9.25439C9.15613 10.7664 9.07666 10.6863 9.07666 10.5878C9.07688 10.4896 9.15625 10.4103 9.25439 10.4101H10.3472Z" fill="black" stroke="black" stroke-width="0.1"/>
<path d="M9.80103 4.01516C11.9344 4.01532 13.6702 5.75087 13.6702 7.8843C13.6701 8.59291 13.4764 9.28576 13.1106 9.88821C13.1052 9.8971 13.0985 9.92004 13.095 9.96243C13.0916 10.0028 13.0915 10.055 13.095 10.1177C13.102 10.2428 13.1222 10.405 13.1526 10.5894C13.2134 10.9584 13.3136 11.4124 13.4241 11.8257C13.4415 11.8914 13.4198 11.9608 13.3684 12.0054L13.3694 12.0064C13.3364 12.0352 13.2943 12.0502 13.2522 12.0503C13.2285 12.0503 13.2048 12.0448 13.1829 12.0357H13.1819C12.8674 11.9021 12.4344 11.74 12.0461 11.6245C11.8519 11.5668 11.6698 11.5212 11.5198 11.4966C11.445 11.4844 11.3793 11.4768 11.3245 11.4761C11.2687 11.4754 11.2278 11.4816 11.2014 11.4917C10.7549 11.6654 10.2837 11.7534 9.80103 11.7534C7.66759 11.7534 5.93196 10.0177 5.93188 7.8843C5.93188 5.75077 7.66754 4.01516 9.80103 4.01516ZM9.80103 4.3716C7.86424 4.3716 6.28833 5.94742 6.28833 7.8843C6.28841 9.82111 7.86429 11.397 9.80103 11.397C10.2396 11.397 10.6674 11.3171 11.0725 11.1597L11.1819 11.1314C11.2218 11.1255 11.2651 11.1236 11.3098 11.1236C11.5563 11.1236 11.8909 11.2026 12.2151 11.3013C12.4995 11.3879 12.78 11.4913 12.9934 11.5747C12.9248 11.2934 12.8412 10.9243 12.7903 10.5855C12.7619 10.397 12.7436 10.2164 12.7424 10.065C12.7419 9.98916 12.7454 9.91921 12.7551 9.85891C12.7647 9.7993 12.7805 9.74545 12.8059 9.70364C13.1378 9.15674 13.3137 8.5278 13.3137 7.8843C13.3137 5.94752 11.7377 4.37176 9.80103 4.3716Z" fill="black" stroke="black" stroke-width="0.1"/>
<path d="M6.81934 2.95013C7.51478 2.95019 8.19644 3.1371 8.79102 3.49017C8.87568 3.54034 8.90373 3.64975 8.85352 3.73431C8.80346 3.81812 8.69352 3.84735 8.6084 3.79584V3.79486C8.0692 3.47496 7.45035 3.30663 6.81934 3.30658C4.88255 3.30658 3.30664 4.88245 3.30664 6.81927C3.30668 7.46269 3.4817 8.0918 3.81348 8.63861C3.83891 8.68052 3.85562 8.73511 3.86523 8.79486C3.87487 8.85499 3.87849 8.92442 3.87793 8.99994C3.87679 9.15153 3.85747 9.33279 3.8291 9.52142C3.77808 9.86052 3.69367 10.2293 3.625 10.5107C3.88262 10.4099 4.23913 10.2791 4.58203 10.1845C4.77358 10.1317 4.9623 10.0897 5.12793 10.0703C5.2918 10.0511 5.44092 10.0528 5.54785 10.0947H5.54688C5.75973 10.1771 5.98215 10.2388 6.20703 10.2783L6.27246 10.3046C6.33082 10.3424 6.36431 10.4125 6.35156 10.4853C6.33415 10.5834 6.24033 10.6436 6.14648 10.6298H6.14551C5.89771 10.5861 5.65251 10.5177 5.41797 10.4267C5.39176 10.4166 5.35132 10.4114 5.2959 10.412C5.24115 10.4127 5.17539 10.4194 5.10059 10.4316C4.95059 10.4561 4.76763 10.5017 4.57324 10.5595C4.18483 10.675 3.75198 10.8371 3.4375 10.9706C3.41553 10.9799 3.39181 10.9853 3.36816 10.9853C3.34694 10.9853 3.32563 10.981 3.30566 10.9736L3.25098 10.9413C3.19945 10.8967 3.17777 10.8264 3.19531 10.7607C3.30571 10.3475 3.40602 9.89426 3.4668 9.52533C3.4972 9.3407 3.51741 9.17787 3.52441 9.05267C3.52791 8.99003 3.52877 8.93777 3.52539 8.8974C3.52185 8.85526 3.51417 8.83313 3.50879 8.82416C3.14288 8.22146 2.95023 7.52785 2.9502 6.81927C2.9502 4.68579 4.68581 2.95013 6.81934 2.95013Z" fill="black" stroke="black" stroke-width="0.1"/>
</svg>
