<svg width="11" height="10" viewBox="0 0 11 10" fill="none" xmlns="http://www.w3.org/2000/svg">
<path d="M6.90088 1.97276C7.53415 1.97283 8.04928 2.48794 8.04932 3.1212V4.99718C8.04908 5.63022 7.53403 6.14555 6.90088 6.14561C6.26772 6.14561 5.75267 5.63026 5.75244 4.99718V3.1212C5.75248 2.4879 6.2676 1.97276 6.90088 1.97276ZM6.90088 2.32921C6.46426 2.32921 6.10893 2.68454 6.10889 3.1212V4.99718C6.10912 5.43367 6.46438 5.78917 6.90088 5.78917C7.33737 5.78911 7.69264 5.43363 7.69287 4.99718V3.1212C7.69283 2.68459 7.33749 2.32927 6.90088 2.32921Z" fill="black" stroke="black" stroke-width="0.1"/>
<path d="M8.49756 4.57419C8.59588 4.57419 8.67607 4.6536 8.67627 4.75192V4.98141C8.67627 5.95994 7.87964 6.75681 6.90088 6.75681C5.92226 6.75669 5.12646 5.95986 5.12646 4.98141V4.75192C5.12666 4.65369 5.206 4.57433 5.3042 4.57419C5.4025 4.57419 5.48271 4.65358 5.48291 4.75192V4.98141C5.48291 5.76326 6.11896 6.39926 6.90088 6.39938C7.6829 6.39938 8.31982 5.76333 8.31982 4.98141V4.75192C8.32002 4.65366 8.39932 4.57428 8.49756 4.57419Z" fill="black" stroke="black" stroke-width="0.1"/>
<path d="M8.67139 4.57419C8.76959 4.57432 8.84892 4.65369 8.84912 4.75192C8.84913 4.85034 8.76971 4.9305 8.67139 4.93063H8.32373C8.22541 4.93049 8.146 4.85032 8.146 4.75192C8.14619 4.65369 8.22553 4.57433 8.32373 4.57419H8.67139Z" fill="black" stroke="black" stroke-width="0.1"/>
<path d="M5.47827 4.57419C5.57646 4.57435 5.65581 4.6537 5.65601 4.75192C5.65601 4.85032 5.57658 4.93047 5.47827 4.93063H5.13062C5.0323 4.93049 4.95288 4.85032 4.95288 4.75192C4.95308 4.65369 5.03242 4.57433 5.13062 4.57419H5.47827Z" fill="black" stroke="black" stroke-width="0.1"/>
<path d="M6.90088 6.39996C6.9992 6.39996 7.07939 6.47938 7.07959 6.5777V7.68805C7.07959 7.78654 6.99932 7.86676 6.90088 7.86676C6.80256 7.86661 6.72314 7.78645 6.72314 7.68805V6.5777C6.72334 6.47947 6.80268 6.40011 6.90088 6.39996Z" fill="black" stroke="black" stroke-width="0.1"/>
<path d="M7.44727 7.51018C7.54559 7.51018 7.62575 7.58964 7.62598 7.68791C7.62598 7.7864 7.54571 7.86662 7.44727 7.86662H6.35449C6.25623 7.86648 6.17676 7.78632 6.17676 7.68791C6.17698 7.58971 6.25635 7.51032 6.35449 7.51018H7.44727Z" fill="black" stroke="black" stroke-width="0.1"/>
<path d="M6.90112 1.11522C9.03452 1.11538 10.7703 2.85093 10.7703 4.98436C10.7702 5.69297 10.5765 6.38582 10.2107 6.98827C10.2053 6.99716 10.1986 7.0201 10.1951 7.06248C10.1917 7.10286 10.1916 7.1551 10.1951 7.21776C10.2021 7.34284 10.2223 7.50505 10.2527 7.68944C10.3135 8.05844 10.4137 8.51246 10.5242 8.92577C10.5416 8.99143 10.5199 9.06084 10.4685 9.10545L10.4695 9.10643C10.4365 9.13528 10.3944 9.15031 10.3523 9.15038C10.3286 9.15038 10.3049 9.14485 10.283 9.13573H10.282C9.96745 9.00215 9.53453 8.84006 9.14624 8.72459C8.952 8.66684 8.76985 8.62123 8.61987 8.59666C8.54509 8.58442 8.47937 8.57685 8.42456 8.57616C8.36882 8.57548 8.32785 8.58163 8.30151 8.59178C7.85504 8.76542 7.38379 8.85347 6.90112 8.8535C4.76769 8.8535 3.03206 7.11777 3.03198 4.98436C3.03198 2.85083 4.76764 1.11522 6.90112 1.11522ZM6.90112 1.47166C4.96434 1.47166 3.38843 3.04748 3.38843 4.98436C3.38851 6.92117 4.96438 8.49706 6.90112 8.49706C7.3397 8.49702 7.76747 8.41715 8.17261 8.25975L8.28198 8.23143C8.32189 8.22559 8.36515 8.22362 8.40991 8.22362C8.65644 8.22371 8.99097 8.30262 9.31519 8.40135C9.59964 8.48798 9.88012 8.59139 10.0935 8.67479C10.0249 8.39347 9.94133 8.02432 9.89038 7.68553C9.86204 7.49704 9.84367 7.3165 9.84253 7.16502C9.84196 7.08922 9.84553 7.01927 9.85522 6.95897C9.86484 6.89936 9.88062 6.84551 9.90601 6.8037C10.2379 6.25679 10.4138 5.62786 10.4138 4.98436C10.4138 3.04758 8.83778 1.47182 6.90112 1.47166Z" fill="black" stroke="black" stroke-width="0.1"/>
<path d="M3.91943 0.0502014C4.61488 0.0502532 5.29654 0.237167 5.89111 0.59024C5.97578 0.640409 6.00383 0.749813 5.95361 0.834381C5.90355 0.918189 5.79362 0.947422 5.7085 0.895905V0.894928C5.1693 0.575023 4.55044 0.406698 3.91943 0.406647C1.98265 0.406647 0.406738 1.98251 0.406738 3.91934C0.406774 4.56275 0.581797 5.19187 0.913574 5.73868C0.939004 5.78058 0.955722 5.83518 0.965332 5.89493C0.974963 5.95506 0.978585 6.02449 0.978027 6.10001C0.97689 6.2516 0.957569 6.43286 0.929199 6.62149C0.87818 6.96059 0.793763 7.32941 0.725098 7.61075C0.982714 7.51002 1.33923 7.37921 1.68213 7.28458C1.87367 7.23173 2.0624 7.18972 2.22803 7.17032C2.3919 7.15113 2.54102 7.15286 2.64795 7.19473H2.64697C2.85983 7.27716 3.08225 7.33885 3.30713 7.37833L3.37256 7.40469C3.43092 7.44242 3.46441 7.5126 3.45166 7.58536C3.43424 7.68343 3.34042 7.7437 3.24658 7.72989H3.24561C2.99781 7.68615 2.75261 7.61773 2.51807 7.52676C2.49186 7.51671 2.45142 7.51146 2.396 7.51212C2.34125 7.51277 2.27549 7.51942 2.20068 7.53165C2.05069 7.55619 1.86773 7.6018 1.67334 7.65958C1.28493 7.77504 0.852074 7.93719 0.537598 8.07071C0.515632 8.07994 0.491903 8.08532 0.468262 8.08536C0.447033 8.08536 0.425727 8.0811 0.405762 8.07364L0.351074 8.04141C0.299545 7.9968 0.277867 7.92651 0.29541 7.86075C0.405805 7.44758 0.506118 6.99433 0.566895 6.6254C0.597302 6.44077 0.617512 6.27794 0.624512 6.15274C0.628012 6.0901 0.628868 6.03784 0.625488 5.99747C0.621951 5.95533 0.614273 5.9332 0.608887 5.92422C0.24298 5.32152 0.0503286 4.62792 0.050293 3.91934C0.050293 1.78586 1.7859 0.0502014 3.91943 0.0502014Z" fill="black" stroke="black" stroke-width="0.1"/>
</svg>
