<svg width="16" height="14" viewBox="0 0 16 14" fill="none" xmlns="http://www.w3.org/2000/svg">
<rect width="16" height="14" fill="white"/>
<path d="M8.67077 3.36267C8.30173 3.22837 7.89139 3.20767 7.51563 3.32935C7.14552 3.44918 6.82031 3.69246 6.59166 4.00648C6.34115 4.35054 6.19704 4.75369 6.16697 5.17782C6.13984 5.56044 6.22592 5.94944 6.43624 6.27256C6.63049 6.57098 6.92623 6.80103 7.25702 6.92962C7.62128 7.07122 8.02361 7.10677 8.40742 7.03265C8.78456 6.95983 9.1245 6.76879 9.38911 6.49194C9.65547 6.21326 9.82628 5.84048 9.88074 5.46014C9.89554 5.35681 9.90316 5.25207 9.90345 5.1477C9.90222 4.75355 9.77905 4.36308 9.5509 4.04129C9.33415 3.73556 9.02354 3.49105 8.67077 3.36267ZM9.38174 6.13313C9.38045 6.13459 9.38671 6.12576 9.39228 6.11793C9.38903 6.12327 9.38568 6.12866 9.38174 6.13313ZM9.49219 5.94327C9.48991 5.94879 9.48753 5.95431 9.48455 5.95923C9.48361 5.96079 9.4881 5.95163 9.49219 5.94327ZM9.61288 5.08113C9.61367 5.08755 9.61471 5.09588 9.61499 5.09831C9.61749 5.12002 9.61959 5.14179 9.62129 5.16358C9.62485 5.20943 9.6265 5.25538 9.62664 5.30137C9.62652 5.34707 9.62507 5.39273 9.62187 5.43831C9.62172 5.44049 9.62125 5.44635 9.62081 5.4519C9.62016 5.45835 9.61925 5.46768 9.61893 5.47057C9.6164 5.49342 9.61345 5.51621 9.61007 5.53895C9.60341 5.58363 9.59509 5.62805 9.58505 5.6721C9.5807 5.69118 9.576 5.71018 9.571 5.72911C9.5675 5.739 9.56508 5.74954 9.56194 5.75951C9.54941 5.79935 9.5354 5.83872 9.51988 5.87749C9.51252 5.89589 9.50481 5.91417 9.49678 5.93229C9.4956 5.93494 9.49447 5.9377 9.49334 5.94048C9.49132 5.94459 9.48932 5.94871 9.48728 5.9528C9.46911 5.98917 9.44955 6.02484 9.42863 6.05969C9.41866 6.07631 9.40837 6.09274 9.39779 6.10898C9.39634 6.11121 9.39491 6.11355 9.39348 6.11591C9.39097 6.11946 9.38846 6.12302 9.38592 6.12654C9.36157 6.16035 9.33584 6.19316 9.30883 6.22488C9.2964 6.23949 9.28369 6.25386 9.27071 6.26799C9.26571 6.27345 9.26057 6.27879 9.25553 6.2842C9.25497 6.28477 9.25443 6.28535 9.25386 6.2859C9.19693 6.3424 9.13548 6.39315 9.07123 6.44104C9.06426 6.44575 9.05732 6.45051 9.05031 6.45515C9.03277 6.46674 9.01499 6.47799 8.997 6.48888C8.96075 6.51083 8.92364 6.53134 8.88578 6.55037C8.85077 6.56797 8.81143 6.59203 8.77333 6.60172C8.77316 6.60177 8.80098 6.59107 8.78541 6.59671C8.78072 6.59841 8.7761 6.60037 8.77144 6.60216C8.76209 6.60576 8.75271 6.60927 8.74329 6.61271C8.72277 6.62019 8.70211 6.62727 8.68133 6.63397C8.59959 6.66029 8.51592 6.68052 8.43126 6.69487C8.38774 6.70225 8.34401 6.70787 8.30012 6.7124C8.30046 6.71238 8.30073 6.71236 8.30109 6.71234C8.30068 6.71237 8.30027 6.7124 8.29985 6.71243C8.29981 6.71243 8.29978 6.71244 8.29974 6.71245C8.29772 6.71265 8.2938 6.71294 8.29099 6.71312C8.28897 6.71328 8.28694 6.71344 8.28491 6.71359C8.27409 6.71438 8.26325 6.71509 8.25242 6.7157C8.22872 6.71705 8.20501 6.71799 8.18128 6.7185C8.00131 6.72238 7.82063 6.70321 7.6459 6.65968C7.62563 6.65463 7.60544 6.64924 7.58534 6.64353C7.57426 6.64038 7.56326 6.63692 7.55219 6.63375C7.5468 6.63199 7.5414 6.63026 7.53601 6.62847C7.49543 6.61498 7.4553 6.60009 7.41575 6.58382C7.33793 6.55181 7.26233 6.51441 7.18983 6.47171C7.11715 6.42891 7.04759 6.38078 6.9821 6.32761C6.96681 6.3152 6.95175 6.30251 6.93692 6.28956C6.92951 6.28309 6.92227 6.27644 6.91488 6.26995C6.93291 6.2858 6.91205 6.26723 6.90564 6.26108C6.87612 6.23283 6.84767 6.20347 6.82041 6.17305C6.76587 6.11218 6.71605 6.04707 6.67168 5.97843C6.64936 5.94391 6.62843 5.9085 6.60894 5.87231C6.59874 5.85339 6.58894 5.83426 6.57955 5.81492C6.57661 5.80888 6.57326 5.80136 6.57246 5.79956C6.57288 5.8005 6.57415 5.80341 6.57675 5.80939C6.57211 5.7987 6.56723 5.78811 6.56265 5.7774C6.5294 5.69963 6.50255 5.61917 6.4822 5.53709C6.47176 5.49496 6.46303 5.45241 6.45599 5.40958C6.45461 5.4012 6.4552 5.38658 6.4514 5.37889C6.45119 5.3772 6.45097 5.3755 6.45077 5.3738C6.44802 5.3507 6.44576 5.32755 6.44396 5.30435C6.43671 5.21115 6.43715 5.11737 6.44375 5.02415C6.44403 5.02018 6.44435 5.0162 6.44465 5.01222C6.44536 5.00501 6.446 4.99778 6.44678 4.99059C6.44934 4.96718 6.45231 4.94383 6.4557 4.92053C6.46215 4.87609 6.47009 4.83186 6.47954 4.78796C6.48404 4.76705 6.48888 4.7462 6.49406 4.72545C6.49664 4.71511 6.49931 4.70479 6.50205 4.69449C6.50234 4.69341 6.50264 4.69232 6.50293 4.69123C6.51574 4.65009 6.5286 4.60907 6.54352 4.56862C6.55923 4.52605 6.57645 4.48403 6.59516 4.44269C6.59575 4.44139 6.59634 4.44009 6.59694 4.43879C6.59945 4.43357 6.60192 4.42834 6.6045 4.42318C6.61454 4.40309 6.62495 4.3832 6.63572 4.36349C6.6563 4.32579 6.67818 4.28879 6.70135 4.25263C6.70654 4.24452 6.71181 4.23646 6.71713 4.22844C6.72869 4.21289 6.73955 4.19678 6.75123 4.18132C6.77679 4.14745 6.80356 4.11449 6.83151 4.08255C6.84464 4.06754 6.85804 4.05277 6.87169 4.03823C6.88011 4.03029 6.888 4.02162 6.89629 4.01359C6.92655 3.98428 6.95791 3.9561 6.99029 3.92915C7.0215 3.90317 7.05805 3.88129 7.08806 3.85415C7.08823 3.85404 7.08838 3.85393 7.08855 3.85382C7.09693 3.84818 7.10538 3.84261 7.11387 3.83713C7.13228 3.82523 7.15094 3.81371 7.16982 3.80257C7.20625 3.78109 7.24352 3.76105 7.28155 3.74254C7.29988 3.73362 7.31838 3.72505 7.33704 3.71685C7.34585 3.71297 7.35583 3.70683 7.36523 3.70478C7.36517 3.70478 7.33816 3.71526 7.35374 3.70947C7.36014 3.70708 7.36647 3.70445 7.37285 3.70201C7.41463 3.68602 7.45709 3.67181 7.50008 3.65944C7.5846 3.63512 7.67114 3.6179 7.75852 3.60781C7.76106 3.60752 7.77051 3.60649 7.77693 3.60578C7.78166 3.60543 7.79701 3.6041 7.80039 3.60387C7.82405 3.60224 7.84776 3.60111 7.87148 3.60048C7.91754 3.59928 7.96364 3.59997 8.00964 3.60245C8.10177 3.60743 8.19348 3.61979 8.28364 3.63941C8.32719 3.64888 8.37017 3.66036 8.41296 3.67281C8.41413 3.67315 8.415 3.6734 8.41575 3.67361C8.41837 3.67446 8.421 3.67529 8.42362 3.67615C8.43371 3.67944 8.44377 3.68283 8.4538 3.68631C8.47548 3.69383 8.49702 3.70177 8.51839 3.71014C8.60013 3.74215 8.67947 3.78029 8.75559 3.82403C8.83284 3.86842 8.90676 3.91858 8.97664 3.97385C9.00884 3.99932 9.04023 4.02587 9.07059 4.05351C9.07273 4.05557 9.08027 4.06263 9.08376 4.06598C9.09132 4.07321 9.09882 4.08052 9.10626 4.08788C9.12238 4.10384 9.13819 4.12011 9.15371 4.13665C9.27465 4.26562 9.37694 4.41201 9.45613 4.57011C9.46086 4.57955 9.46545 4.58907 9.47007 4.59856C9.471 4.60047 9.47166 4.6018 9.47222 4.60293C9.47264 4.6039 9.47314 4.60501 9.47375 4.60638C9.48308 4.62735 9.4922 4.64839 9.50083 4.66965C9.51748 4.71069 9.53263 4.75234 9.54621 4.7945C9.57419 4.8814 9.5955 4.97045 9.60983 5.06061C9.6103 5.0635 9.61193 5.07477 9.61288 5.08113Z" fill="black"/>
<path d="M6.57253 5.7998C6.57218 5.799 6.57218 5.799 6.57253 5.7998Z" fill="black"/>
<path d="M8.29103 6.71312C8.29398 6.71288 8.29693 6.71265 8.29989 6.71243C8.29998 6.71243 8.30007 6.71241 8.30016 6.7124C8.2849 6.71344 8.28638 6.71342 8.29103 6.71312Z" fill="black"/>
<path d="M11.1405 4.59301C11.0155 3.97122 10.697 3.38244 10.2522 2.93137C9.79998 2.47284 9.22476 2.14391 8.58542 2.03764C7.95907 1.93352 7.30512 2.05032 6.7372 2.32752C6.13415 2.62189 5.629 3.11709 5.33928 3.72365C4.99316 4.4483 4.93126 5.26067 5.06623 6.0458C5.18432 6.73279 5.46219 7.38435 5.7953 7.99288C6.12662 8.59815 6.51929 9.16676 6.90411 9.73858C7.28622 10.3064 7.66458 10.8802 7.9667 11.4955C7.98508 11.533 8.00318 11.5706 8.02096 11.6083C8.0244 11.6156 8.0278 11.6229 8.03123 11.6302C8.03156 11.6309 8.03183 11.6315 8.0322 11.6323C8.04034 11.6502 8.04849 11.668 8.05653 11.6859C8.09066 11.7619 8.12337 11.8384 8.15478 11.9156C8.17003 11.953 8.18676 11.9816 8.22775 11.9945C8.26684 12.0067 8.30916 11.9977 8.34469 11.9768C8.44371 11.9185 8.50111 11.8162 8.52906 11.7078C8.53469 11.686 8.54038 11.6642 8.54627 11.6425C8.54767 11.6373 8.56018 11.583 8.5508 11.6254C8.54262 11.6624 8.55069 11.6259 8.55341 11.6165C8.56759 11.5677 8.58247 11.5191 8.59803 11.4706C8.62754 11.3787 8.65943 11.2876 8.69337 11.1972C8.76287 11.0122 8.84147 10.8309 8.9248 10.6517C8.92706 10.647 8.92934 10.6422 8.93162 10.6375C8.94165 10.6167 8.95176 10.5959 8.96194 10.5751C8.98489 10.5283 9.00822 10.4817 9.03188 10.4353C9.07801 10.3447 9.12543 10.2549 9.17385 10.1655C9.26946 9.98918 9.36898 9.81499 9.47055 9.64202C9.58449 9.44797 9.70104 9.25548 9.81766 9.06303C10.2311 8.38058 10.6326 7.68004 10.9015 6.92598C11.1671 6.18129 11.298 5.37639 11.1405 4.59301ZM8.91665 10.6687C8.9172 10.6676 8.91771 10.6665 8.91825 10.6654C8.91749 10.667 8.91692 10.6682 8.91665 10.6687ZM10.8156 5.74478C10.8139 5.77176 10.8134 5.79988 10.8095 5.82664C10.8188 5.76272 10.8069 5.84979 10.8052 5.86506C10.7992 5.91948 10.792 5.97377 10.7838 6.0279C10.7669 6.13922 10.7455 6.24984 10.7202 6.35955C10.7084 6.41063 10.6958 6.46151 10.6823 6.51219C10.6781 6.52823 10.6737 6.54422 10.6694 6.56024C10.6643 6.57899 10.6684 6.57658 10.6717 6.56778C10.6653 6.59249 10.6499 6.62605 10.6456 6.64037C10.6129 6.74707 10.577 6.85275 10.5384 6.95744C10.4995 7.06299 10.4578 7.1675 10.4139 7.27104C10.3917 7.32309 10.369 7.37489 10.3458 7.42646C10.3342 7.45231 10.3224 7.47809 10.3105 7.50382C10.3046 7.5167 10.2986 7.52956 10.2926 7.54241C10.2912 7.5453 10.2901 7.54771 10.2891 7.54992C10.0647 8.01461 9.80607 8.46095 9.53884 8.90206C9.10793 9.61321 8.67491 10.3313 8.37449 11.1096C8.36465 11.1351 8.35506 11.1606 8.34559 11.1862C8.04108 10.55 7.65546 9.95584 7.2621 9.37065C6.79009 8.66846 6.30217 7.97083 5.93167 7.20769C5.92097 7.18563 5.91036 7.16352 5.89986 7.14136C5.89566 7.1325 5.89152 7.12361 5.88732 7.11475C5.88628 7.11256 5.88542 7.11075 5.88465 7.10913C5.88397 7.10763 5.88323 7.106 5.88234 7.10406C5.85995 7.05506 5.8379 7.0059 5.81653 6.95645C5.77576 6.86208 5.73713 6.76681 5.70091 6.67061C5.62648 6.47295 5.56236 6.27135 5.51084 6.06649C5.48382 5.95904 5.46054 5.85066 5.44138 5.74153C5.43677 5.7153 5.4324 5.68902 5.42827 5.66271C5.42579 5.64691 5.42352 5.63109 5.42109 5.61529C5.42076 5.6132 5.42028 5.61011 5.4198 5.60706C5.41209 5.55348 5.40675 5.49939 5.40172 5.44554C5.39109 5.33148 5.38513 5.21697 5.38419 5.10242C5.38372 5.04661 5.38443 4.9908 5.38642 4.93503C5.38805 4.88922 5.38551 4.83708 5.39165 4.78978C5.39277 4.78749 5.39495 4.77941 5.39566 4.77256C5.39729 4.75678 5.39882 4.74099 5.40056 4.72522C5.40346 4.69897 5.40666 4.67275 5.41015 4.64656C5.41783 4.58908 5.42697 4.5318 5.43764 4.47479C5.44731 4.42309 5.45824 4.37164 5.47044 4.32048C5.47649 4.2951 5.48287 4.26981 5.48957 4.24461C5.48921 4.24542 5.48889 4.24617 5.48851 4.24702C5.48908 4.24573 5.48949 4.24433 5.49001 4.24301C5.49092 4.23981 5.49221 4.23612 5.49363 4.23245C5.49662 4.22227 5.49893 4.21164 5.50194 4.20176C5.53565 4.09136 5.57578 3.9829 5.62257 3.87737C5.62684 3.86776 5.63122 3.85821 5.63552 3.84862C5.63559 3.84849 5.63563 3.84839 5.63569 3.84826C5.64609 3.8273 5.65647 3.80634 5.66731 3.7856C5.69263 3.73718 5.71935 3.68948 5.74768 3.64275C5.77055 3.60506 5.79524 3.56865 5.81919 3.53167C5.76617 3.61355 5.81035 3.54489 5.82417 3.52596C5.83969 3.5047 5.85556 3.48369 5.87174 3.46292C5.89868 3.42835 5.92653 3.3945 5.95522 3.36138C5.97099 3.34317 5.98702 3.32519 6.00329 3.30744C6.01069 3.29936 6.01813 3.29134 6.02563 3.28336C6.03162 3.27698 6.03766 3.27063 6.04372 3.26431C6.03444 3.27381 6.02517 3.28332 6.0159 3.29283C6.08076 3.22232 6.15497 3.15835 6.22882 3.09754C6.26267 3.06966 6.29719 3.04261 6.33232 3.01637C6.34984 3.00328 6.36837 2.99115 6.38551 2.9776C6.32558 3.02495 6.3971 2.97011 6.41258 2.95985C6.56821 2.85664 6.73335 2.77105 6.90486 2.69762C6.91596 2.69329 6.92703 2.68888 6.93816 2.68462C6.95878 2.67673 6.97948 2.66908 7.00027 2.66164C7.04601 2.64529 7.09215 2.63003 7.13864 2.61592C7.22741 2.58896 7.31741 2.56608 7.40829 2.54745C7.49914 2.52882 7.59086 2.51441 7.68305 2.50438C7.69153 2.50346 7.70016 2.50224 7.70877 2.50137C7.71113 2.50129 7.7135 2.50119 7.71531 2.50106C7.73952 2.49927 7.76371 2.49743 7.78795 2.49607C7.83639 2.49335 7.8849 2.49185 7.93342 2.49159C8.12077 2.49059 8.30829 2.50815 8.49195 2.54534C8.57464 2.56209 8.65633 2.58306 8.73707 2.60745C9.13832 2.73742 9.50494 2.95667 9.81795 3.23848C10.0813 3.48412 10.304 3.77212 10.4743 4.08952C10.4957 4.12948 10.5163 4.1699 10.5361 4.21072C10.5407 4.22034 10.5453 4.23003 10.5499 4.23967C10.5502 4.24042 10.5505 4.24114 10.5509 4.24198C10.5619 4.26687 10.573 4.29167 10.5836 4.31674C10.6189 4.40022 10.6507 4.48521 10.6786 4.57142C10.7066 4.6576 10.7308 4.74499 10.751 4.83331C10.7611 4.87747 10.7703 4.92186 10.7784 4.96644C10.7824 4.98874 10.7863 5.01108 10.7898 5.03347C10.7912 5.04242 10.7925 5.0514 10.7939 5.06036C10.7943 5.0629 10.7946 5.06508 10.7949 5.06692C10.7953 5.07003 10.7957 5.07313 10.7961 5.07623C10.8241 5.2978 10.8298 5.52191 10.8156 5.74478Z" fill="black"/>
<path d="M5.49356 4.23244C5.49249 4.23606 5.49127 4.23957 5.48994 4.24301C5.48984 4.24337 5.48973 4.24374 5.48964 4.24409C5.48959 4.24427 5.48955 4.24444 5.4895 4.2446C5.51081 4.19594 5.50071 4.2139 5.49356 4.23244Z" fill="black"/>
</svg>
