<svg width="7" height="10" viewBox="0 0 7 10" fill="none" xmlns="http://www.w3.org/2000/svg">
<path d="M3.67077 1.36268C3.30173 1.22838 2.89139 1.20768 2.51563 1.32935C2.14552 1.44919 1.82031 1.69247 1.59166 2.00649C1.34115 2.35055 1.19704 2.75369 1.16697 3.17783C1.13984 3.56045 1.22592 3.94945 1.43624 4.27257C1.63049 4.57099 1.92623 4.80104 2.25702 4.92962C2.62128 5.07122 3.02361 5.10678 3.40742 5.03266C3.78456 4.95983 4.1245 4.76879 4.38911 4.49194C4.65547 4.21327 4.82628 3.84049 4.88074 3.46015C4.89554 3.35682 4.90316 3.25208 4.90345 3.14771C4.90222 2.75356 4.77905 2.36309 4.5509 2.0413C4.33415 1.73557 4.02354 1.49105 3.67077 1.36268ZM4.38174 4.13314C4.38045 4.1346 4.38671 4.12576 4.39228 4.11794C4.38903 4.12328 4.38568 4.12867 4.38174 4.13314ZM4.49219 3.94328C4.48991 3.9488 4.48753 3.95431 4.48455 3.95924C4.48361 3.9608 4.4881 3.95164 4.49219 3.94328ZM4.61288 3.08113C4.61367 3.08755 4.61471 3.09589 4.61499 3.09832C4.61749 3.12003 4.61959 3.14179 4.62129 3.16359C4.62485 3.20944 4.6265 3.25538 4.62664 3.30138C4.62652 3.34707 4.62507 3.39274 4.62187 3.43832C4.62172 3.4405 4.62125 3.44636 4.62081 3.45191C4.62016 3.45836 4.61925 3.46769 4.61893 3.47058C4.6164 3.49343 4.61345 3.51622 4.61007 3.53895C4.60341 3.58363 4.59509 3.62806 4.58505 3.67211C4.5807 3.69118 4.576 3.71019 4.571 3.72911C4.5675 3.73901 4.56508 3.74955 4.56194 3.75952C4.54941 3.79936 4.5354 3.83872 4.51988 3.8775C4.51252 3.8959 4.50481 3.91417 4.49678 3.93229C4.4956 3.93495 4.49447 3.93771 4.49334 3.94049C4.49132 3.9446 4.48932 3.94872 4.48728 3.95281C4.46911 3.98918 4.44955 4.02485 4.42863 4.0597C4.41866 4.07632 4.40837 4.09275 4.39779 4.10899C4.39634 4.11122 4.39491 4.11355 4.39348 4.11592C4.39097 4.11947 4.38846 4.12303 4.38592 4.12655C4.36157 4.16036 4.33584 4.19317 4.30883 4.22489C4.2964 4.2395 4.28369 4.25387 4.27071 4.268C4.26571 4.27345 4.26057 4.2788 4.25553 4.28421C4.25497 4.28478 4.25443 4.28536 4.25386 4.28591C4.19693 4.34241 4.13548 4.39316 4.07123 4.44105C4.06426 4.44576 4.05732 4.45051 4.05031 4.45515C4.03277 4.46675 4.01499 4.47799 3.997 4.48889C3.96075 4.51084 3.92364 4.53134 3.88578 4.55038C3.85077 4.56798 3.81143 4.59203 3.77333 4.60173C3.77316 4.60177 3.80098 4.59107 3.78541 4.59672C3.78072 4.59842 3.7761 4.60037 3.77144 4.60217C3.76209 4.60577 3.75271 4.60928 3.74329 4.61272C3.72277 4.6202 3.70211 4.62728 3.68133 4.63398C3.59959 4.6603 3.51592 4.68053 3.43126 4.69488C3.38774 4.70226 3.34401 4.70788 3.30012 4.71241C3.30046 4.71238 3.30073 4.71237 3.30109 4.71235C3.30068 4.71238 3.30027 4.71241 3.29985 4.71244C3.29981 4.71244 3.29978 4.71245 3.29974 4.71245C3.29772 4.71266 3.2938 4.71294 3.29099 4.71312C3.28897 4.71329 3.28694 4.71345 3.28491 4.7136C3.27409 4.71439 3.26325 4.7151 3.25242 4.71571C3.22872 4.71706 3.20501 4.71799 3.18128 4.71851C3.00131 4.72238 2.82063 4.70322 2.6459 4.65969C2.62563 4.65464 2.60544 4.64925 2.58534 4.64353C2.57426 4.64039 2.56326 4.63693 2.55219 4.63376C2.5468 4.63199 2.5414 4.63027 2.53601 4.62848C2.49543 4.61498 2.4553 4.6001 2.41575 4.58383C2.33793 4.55182 2.26233 4.51442 2.18983 4.47172C2.11715 4.42892 2.04759 4.38079 1.9821 4.32762C1.96681 4.31521 1.95175 4.30252 1.93692 4.28957C1.92951 4.2831 1.92227 4.27645 1.91488 4.26996C1.93291 4.28581 1.91205 4.26724 1.90563 4.26109C1.87612 4.23284 1.84767 4.20348 1.82041 4.17306C1.76587 4.11218 1.71605 4.04708 1.67168 3.97844C1.64936 3.94391 1.62843 3.90851 1.60894 3.87232C1.59874 3.8534 1.58894 3.83426 1.57955 3.81493C1.57661 3.80889 1.57326 3.80137 1.57246 3.79957C1.57288 3.80051 1.57415 3.80341 1.57675 3.8094C1.57211 3.79871 1.56723 3.78812 1.56265 3.7774C1.5294 3.69964 1.50255 3.61918 1.4822 3.5371C1.47176 3.49497 1.46303 3.45242 1.45599 3.40959C1.45461 3.40121 1.4552 3.38659 1.4514 3.3789C1.45119 3.37721 1.45097 3.37551 1.45077 3.37381C1.44802 3.35071 1.44576 3.32755 1.44396 3.30436C1.43671 3.21116 1.43715 3.11738 1.44375 3.02416C1.44403 3.02018 1.44435 3.01621 1.44465 3.01223C1.44536 3.00502 1.446 2.99779 1.44678 2.99059C1.44934 2.96719 1.45231 2.94384 1.4557 2.92053C1.46215 2.8761 1.47009 2.83187 1.47954 2.78797C1.48404 2.76705 1.48888 2.74621 1.49406 2.72546C1.49664 2.71512 1.49931 2.7048 1.50205 2.6945C1.50234 2.69341 1.50264 2.69233 1.50293 2.69124C1.51574 2.65009 1.5286 2.60908 1.54352 2.56863C1.55923 2.52605 1.57645 2.48404 1.59516 2.4427C1.59575 2.4414 1.59634 2.44009 1.59694 2.4388C1.59945 2.43358 1.60192 2.42835 1.6045 2.42319C1.61454 2.4031 1.62495 2.3832 1.63572 2.3635C1.6563 2.32579 1.67818 2.2888 1.70135 2.25263C1.70654 2.24453 1.71181 2.23647 1.71713 2.22845C1.72869 2.2129 1.73955 2.19679 1.75123 2.18133C1.77679 2.14746 1.80356 2.11449 1.83151 2.08256C1.84464 2.06755 1.85804 2.05278 1.87169 2.03823C1.88011 2.0303 1.888 2.02163 1.89629 2.01359C1.92655 1.98429 1.95791 1.95611 1.99029 1.92916C2.0215 1.90318 2.05805 1.88129 2.08806 1.85416C2.08823 1.85405 2.08838 1.85394 2.08855 1.85383C2.09693 1.84819 2.10538 1.84262 2.11387 1.83713C2.13228 1.82524 2.15094 1.81372 2.16982 1.80258C2.20625 1.7811 2.24352 1.76105 2.28155 1.74255C2.29988 1.73363 2.31838 1.72506 2.33704 1.71685C2.34585 1.71298 2.35583 1.70684 2.36523 1.70478C2.36517 1.70479 2.33816 1.71527 2.35374 1.70947C2.36014 1.70709 2.36647 1.70446 2.37285 1.70202C2.41463 1.68603 2.45709 1.67182 2.50008 1.65945C2.5846 1.63513 2.67114 1.61791 2.75852 1.60782C2.76106 1.60753 2.77051 1.6065 2.77693 1.60579C2.78166 1.60544 2.79701 1.60411 2.80039 1.60388C2.82405 1.60225 2.84776 1.60111 2.87148 1.60049C2.91754 1.59929 2.96364 1.59997 3.00964 1.60246C3.10177 1.60744 3.19348 1.6198 3.28364 1.63941C3.32719 1.64889 3.37017 1.66037 3.41296 1.67282C3.41413 1.67316 3.415 1.67341 3.41575 1.67362C3.41837 1.67447 3.421 1.6753 3.42362 1.67615C3.43371 1.67945 3.44377 1.68283 3.4538 1.68632C3.47548 1.69384 3.49702 1.70178 3.51839 1.71015C3.60013 1.74216 3.67947 1.7803 3.75559 1.82403C3.83284 1.86843 3.90676 1.91859 3.97664 1.97386C4.00884 1.99933 4.04023 2.02588 4.07059 2.05351C4.07273 2.05558 4.08027 2.06264 4.08376 2.06598C4.09132 2.07322 4.09882 2.08052 4.10626 2.08789C4.12238 2.10385 4.13819 2.12011 4.15371 2.13666C4.27465 2.26562 4.37694 2.41202 4.45613 2.57012C4.46086 2.57956 4.46545 2.58907 4.47007 2.59857C4.471 2.60047 4.47166 2.60181 4.47222 2.60294C4.47264 2.6039 4.47314 2.60502 4.47375 2.60639C4.48308 2.62736 4.4922 2.6484 4.50083 2.66966C4.51748 2.7107 4.53263 2.75235 4.54621 2.79451C4.57419 2.88141 4.5955 2.97045 4.60983 3.06062C4.6103 3.06351 4.61193 3.07478 4.61288 3.08113Z" fill="black"/>
<path d="M1.57253 3.79981C1.57218 3.79901 1.57218 3.79901 1.57253 3.79981V3.79981Z" fill="black"/>
<path d="M3.29103 4.71312C3.29398 4.71288 3.29693 4.71265 3.29989 4.71243C3.29998 4.71243 3.30007 4.71241 3.30016 4.7124C3.2849 4.71344 3.28638 4.71342 3.29103 4.71312Z" fill="black"/>
<path d="M6.14052 2.59301C6.01554 1.97122 5.69702 1.38244 5.25219 0.931374C4.79998 0.472838 4.22476 0.143911 3.58542 0.0376361C2.95907 -0.066483 2.30512 0.0503187 1.7372 0.327524C1.13415 0.621888 0.629003 1.11709 0.33928 1.72365C-0.00683702 2.4483 -0.0687393 3.26067 0.0662285 4.0458C0.18432 4.73279 0.462186 5.38435 0.795299 5.99288C1.12662 6.59815 1.51929 7.16676 1.90411 7.73858C2.28622 8.30636 2.66458 8.88017 2.9667 9.49555C2.98508 9.53299 3.00318 9.57057 3.02096 9.60831C3.0244 9.6156 3.0278 9.62291 3.03123 9.63021C3.03156 9.63093 3.03183 9.63154 3.0322 9.63234C3.04034 9.65018 3.04849 9.66801 3.05653 9.6859C3.09066 9.76186 3.12337 9.83844 3.15478 9.91558C3.17003 9.95305 3.18676 9.98164 3.22775 9.99447C3.26684 10.0067 3.30916 9.99768 3.34469 9.97678C3.44371 9.91854 3.50111 9.81617 3.52906 9.7078C3.53469 9.68599 3.54038 9.66421 3.54627 9.64248C3.54767 9.63729 3.56018 9.583 3.5508 9.6254C3.54262 9.66237 3.55069 9.62589 3.55341 9.61654C3.56759 9.5677 3.58247 9.51906 3.59803 9.47063C3.62754 9.37872 3.65943 9.28759 3.69337 9.19723C3.76287 9.01218 3.84147 8.83094 3.9248 8.65174C3.92706 8.64698 3.92934 8.64223 3.93162 8.6375C3.94165 8.61667 3.95176 8.59586 3.96194 8.5751C3.98489 8.52831 4.00822 8.4817 4.03188 8.43526C4.07801 8.34473 4.12543 8.25486 4.17385 8.16553C4.26946 7.98918 4.36898 7.81499 4.47055 7.64202C4.58449 7.44797 4.70104 7.25548 4.81766 7.06303C5.23108 6.38058 5.63265 5.68004 5.90153 4.92598C6.16707 4.18129 6.29797 3.37639 6.14052 2.59301ZM3.91665 8.66875C3.9172 8.66764 3.91771 8.66651 3.91825 8.6654C3.91749 8.66701 3.91692 8.66821 3.91665 8.66875ZM5.81564 3.74478C5.81392 3.77176 5.81343 3.79988 5.80952 3.82664C5.81885 3.76272 5.80693 3.84979 5.80524 3.86506C5.7992 3.91948 5.79204 3.97377 5.78381 4.0279C5.7669 4.13922 5.74549 4.24984 5.72017 4.35955C5.70839 4.41063 5.69576 4.46151 5.68234 4.51219C5.67809 4.52823 5.67365 4.54422 5.66936 4.56024C5.66432 4.57899 5.66841 4.57658 5.67168 4.56778C5.66531 4.59249 5.64994 4.62605 5.64556 4.64037C5.61291 4.74707 5.57704 4.85275 5.53845 4.95744C5.49954 5.06299 5.45784 5.1675 5.41386 5.27104C5.39174 5.32309 5.36904 5.37489 5.34584 5.42646C5.3342 5.4523 5.32243 5.4781 5.31053 5.50382C5.30458 5.5167 5.29859 5.52956 5.29257 5.54241C5.29122 5.5453 5.29009 5.54772 5.28906 5.54992C5.06469 6.01461 4.80607 6.46095 4.53885 6.90206C4.10793 7.61321 3.67491 8.33129 3.37449 9.10961C3.36465 9.13507 3.35506 9.16063 3.34559 9.18622C3.04108 8.55 2.65546 7.95584 2.2621 7.37065C1.79009 6.66846 1.30217 5.97083 0.931675 5.20769C0.920967 5.18563 0.910362 5.16352 0.899859 5.14136C0.895657 5.1325 0.891519 5.12361 0.887318 5.11475C0.886279 5.11256 0.885422 5.11075 0.884651 5.10913C0.883966 5.10763 0.883226 5.106 0.882337 5.10406C0.859946 5.05506 0.837901 5.0059 0.816533 4.95645C0.775763 4.86208 0.737134 4.76681 0.700912 4.67061C0.626477 4.47295 0.562356 4.27135 0.510839 4.06649C0.483822 3.95904 0.460542 3.85066 0.441377 3.74153C0.436774 3.7153 0.4324 3.68902 0.428269 3.66271C0.425791 3.64691 0.423518 3.63109 0.421087 3.61529C0.420764 3.6132 0.420284 3.61011 0.419796 3.60706C0.412086 3.55348 0.406751 3.49939 0.401724 3.44554C0.391087 3.33148 0.385131 3.21697 0.384187 3.10242C0.383723 3.04661 0.384432 2.9908 0.386422 2.93503C0.388051 2.88922 0.38551 2.83708 0.391654 2.78978C0.392772 2.78749 0.39495 2.77941 0.395658 2.77256C0.397287 2.75678 0.398821 2.74099 0.40056 2.72522C0.403455 2.69897 0.406657 2.67275 0.410151 2.64656C0.417829 2.58908 0.426972 2.5318 0.43764 2.47479C0.447309 2.42309 0.458245 2.37164 0.470439 2.32048C0.476489 2.2951 0.48287 2.26981 0.489566 2.24461C0.489212 2.24542 0.488889 2.24617 0.488511 2.24702C0.489078 2.24573 0.489487 2.24433 0.490006 2.24301C0.490919 2.23981 0.492209 2.23612 0.493625 2.23245C0.496623 2.22227 0.498928 2.21164 0.501941 2.20176C0.535646 2.09136 0.575778 1.9829 0.622574 1.87737C0.626839 1.86776 0.631221 1.85821 0.635524 1.84862C0.635587 1.84849 0.635627 1.84839 0.63569 1.84826C0.646091 1.8273 0.656468 1.80634 0.66731 1.7856C0.692627 1.73718 0.719353 1.68948 0.747684 1.64275C0.770547 1.60506 0.795243 1.56865 0.819192 1.53167C0.766173 1.61355 0.81035 1.54489 0.824165 1.52596C0.839688 1.5047 0.855557 1.48369 0.87174 1.46292C0.898679 1.42835 0.926529 1.3945 0.955222 1.36138C0.970989 1.34317 0.987023 1.32519 1.00329 1.30744C1.01069 1.29936 1.01813 1.29134 1.02563 1.28336C1.03162 1.27698 1.03766 1.27063 1.04372 1.26431C1.03444 1.27381 1.02517 1.28332 1.0159 1.29283C1.08076 1.22232 1.15497 1.15835 1.22882 1.09754C1.26267 1.06966 1.29719 1.04261 1.33232 1.01637C1.34984 1.00328 1.36837 0.991152 1.38551 0.977604C1.32558 1.02495 1.3971 0.970114 1.41258 0.959847C1.56821 0.85664 1.73335 0.771049 1.90486 0.697622C1.91596 0.693287 1.92703 0.68888 1.93816 0.684624C1.95878 0.676733 1.97948 0.669078 2.00027 0.661643C2.04601 0.645286 2.09215 0.630031 2.13864 0.615917C2.22741 0.588963 2.31741 0.566084 2.40829 0.547446C2.49914 0.528815 2.59086 0.51441 2.68305 0.504379C2.69153 0.503458 2.70016 0.502239 2.70877 0.501365C2.71113 0.501295 2.7135 0.501192 2.71531 0.501059C2.73952 0.499273 2.76371 0.497431 2.78795 0.49607C2.83639 0.493348 2.8849 0.491854 2.93342 0.491594C3.12077 0.490595 3.30829 0.508147 3.49195 0.545345C3.57464 0.562087 3.65633 0.583062 3.73707 0.607451C4.13832 0.737415 4.50494 0.956668 4.81795 1.23848C5.08126 1.48412 5.30399 1.77212 5.47427 2.08952C5.49571 2.12948 5.51632 2.1699 5.53607 2.21072C5.54073 2.22034 5.54525 2.23003 5.54989 2.23967C5.55022 2.24042 5.55054 2.24114 5.55091 2.24198C5.56192 2.26687 5.57304 2.29167 5.58363 2.31674C5.61891 2.40022 5.65066 2.48521 5.67862 2.57142C5.70657 2.6576 5.73079 2.74499 5.75103 2.83331C5.76115 2.87747 5.77029 2.92186 5.77839 2.96644C5.78244 2.98874 5.78625 3.01108 5.78979 3.03347C5.7912 3.04242 5.79248 3.0514 5.79392 3.06036C5.79429 3.0629 5.7946 3.06508 5.79487 3.06692C5.79527 3.07003 5.79569 3.07313 5.79608 3.07623C5.82411 3.2978 5.82983 3.52191 5.81564 3.74478Z" fill="black"/>
<path d="M0.493562 2.23244C0.492492 2.23606 0.491271 2.23957 0.489942 2.24301C0.48984 2.24337 0.48973 2.24374 0.489635 2.24409C0.489588 2.24427 0.489549 2.24444 0.489502 2.2446C0.510807 2.19594 0.500705 2.2139 0.493562 2.23244Z" fill="black"/>
</svg>
