<svg width="10" height="5" viewBox="0 0 10 5" fill="none" xmlns="http://www.w3.org/2000/svg">
<path d="M6.23927 0.793512C6.06283 0.860166 5.7853 1.03272 5.61767 1.13236C4.65591 1.71317 3.74723 2.37762 2.90214 3.118C2.59064 3.386 2.23533 3.70856 1.91098 3.9617C1.8386 4.01821 1.63041 3.92972 1.55834 3.89534C0.98655 3.61206 0.306443 3.22228 0.0686375 2.59595C-0.0323811 2.32388 -0.0215412 2.02286 0.0988316 1.75878C0.404521 1.09491 1.25124 0.735815 1.89895 0.504064C3.00091 0.109753 4.46003 -0.0567088 5.63027 0.0170179C5.90575 0.0343732 6.18194 0.0805004 6.4556 0.116499C7.21144 0.215922 7.94179 0.373216 8.63554 0.701892C9.16844 0.954362 9.7321 1.31202 9.94065 1.89784C10.0546 2.21782 9.9936 2.51936 9.8502 2.8169C9.49948 3.54464 8.80819 4.00654 8.06066 4.26368C7.04173 4.61421 5.95885 4.64419 4.8921 4.59662C4.79668 4.59238 4.48522 4.60118 4.4228 4.56831C4.40717 4.56007 4.40542 4.5597 4.40033 4.54123C4.35547 4.37877 5.34897 2.88678 5.53283 2.62359C5.78313 2.26528 6.05447 1.91375 6.32603 1.57122C6.44842 1.41683 6.58591 1.26536 6.70098 1.10625C6.76954 1.05142 7.10104 0.627953 7.16848 0.540389C7.06652 0.598605 6.84759 0.780481 6.77406 0.869814C6.63875 0.964471 6.4217 1.19795 6.29579 1.32021C5.6277 1.96897 5.03037 2.65986 4.4878 3.417C4.30575 3.67106 3.94015 4.31659 3.73815 4.48455C3.37335 4.45073 2.89193 4.31869 2.50377 4.24913C2.66166 4.07543 2.75463 3.9139 2.937 3.72378C3.89028 2.73009 4.97334 1.80441 6.1036 1.02123C6.22758 0.915134 6.74131 0.612847 6.78957 0.528799C6.64705 0.551017 6.37304 0.715576 6.23927 0.793512ZM2.38978 2.27185C2.98394 1.98969 3.55662 1.62638 4.15612 1.3579C4.6933 1.11909 5.23441 0.889303 5.77926 0.668622C6.09433 0.544636 6.46076 0.428415 6.75983 0.290399C5.96049 0.230087 5.50023 0.178867 4.68209 0.202353C3.53817 0.246828 2.12516 0.413846 1.26264 1.29405C0.77719 1.78944 0.521549 2.57917 1.55428 2.72611C1.70348 2.74735 2.22595 2.30393 2.38978 2.27185ZM7.39333 3.34412C7.88378 3.26851 8.76141 2.84765 9.07336 2.45196C9.44521 1.98033 8.88367 1.19968 8.48142 0.927742C8.16637 0.71475 7.88701 0.604736 7.51897 0.52828C7.3138 0.993723 5.84434 3.27006 5.92514 3.52457C6.13339 3.63977 7.12164 3.40543 7.39333 3.34412Z" fill="black"/>
</svg>
