<svg width="10" height="10" viewBox="0 0 10 10" fill="none" xmlns="http://www.w3.org/2000/svg">
<path d="M9.92838 0.0151062C9.93616 0.0175066 9.9508 0.0218845 9.95131 0.0316181C9.96313 0.25541 9.96043 0.632052 9.95971 0.840655C9.95686 1.2235 9.98875 1.58219 9.87313 1.95401C9.67477 2.59188 9.23188 3.02921 8.77538 3.48537L7.88225 4.37673C7.74802 4.51025 7.61242 4.64274 7.48054 4.77852C7.43773 4.8226 7.40856 4.90157 7.44957 4.95554C7.49815 5.02018 7.62427 4.93359 7.66488 4.89384C7.96861 4.59661 8.2635 4.28808 8.5671 3.99063C9.03228 3.53485 9.48234 3.05891 9.957 2.61328L9.96089 3.58556C9.96193 3.87618 9.98504 4.25178 9.9102 4.52772C9.78859 4.97625 9.36159 5.31727 9.04477 5.63257L7.99101 6.68735C7.83807 6.83828 7.67871 6.98524 7.53448 7.14433C7.47689 7.20788 7.40404 7.34281 7.52115 7.38984C7.56387 7.407 7.61967 7.41741 7.65606 7.38088C7.82523 7.21105 7.99485 7.04159 8.16437 6.87208L9.22762 5.8092C9.44393 5.59306 9.68799 5.33803 9.91566 5.13933L9.93189 5.13421L9.94717 5.14819C9.93236 5.27723 9.94504 5.45619 9.94448 5.59035C9.94874 5.8153 9.94057 6.04844 9.94631 6.27253C9.95653 6.6708 9.98984 7.07152 9.76724 7.42471C9.63428 7.6357 9.4523 7.79672 9.27456 7.97316L8.75042 8.49627C8.31463 8.93256 7.82717 9.44477 7.38162 9.86181C7.26186 9.87991 7.12039 9.86958 6.9976 9.8713C6.77834 9.87437 6.55832 9.8763 6.33904 9.87246C5.93077 9.86531 5.52607 9.87612 5.1176 9.86699C5.11536 9.83785 5.11366 9.80868 5.11252 9.77947C5.10358 9.5186 5.11004 9.22019 5.10996 8.95722L5.10975 7.43034L5.10994 6.15185C5.11009 5.64775 5.03636 5.04924 5.41512 4.65287C5.88987 4.15603 6.36767 3.66065 6.84975 3.17052L8.29933 1.66898L9.29587 0.649108C9.50492 0.438249 9.72568 0.231049 9.92838 0.0151062Z" fill="black"/>
<path d="M0.0666338 0C0.104712 0.0338212 0.217004 0.169673 0.281427 0.229682C0.592247 0.519215 0.876861 0.848789 1.17355 1.14792L4.49074 4.55143C4.94675 5.02197 4.8915 5.36416 4.89084 5.97119V6.88007C4.89115 7.86832 4.90386 8.88777 4.88824 9.87233C4.5909 9.88308 4.25065 9.86471 3.94767 9.86921C3.52531 9.87549 3.03491 9.89134 2.6141 9.86032L2.60812 9.8553C2.51918 9.77937 2.36152 9.61181 2.27422 9.52428L1.61479 8.86352L0.803817 8.05402C0.422873 7.67346 0.0653255 7.39225 0.0515266 6.81518C0.0459491 6.61137 0.0539229 6.34569 0.0583711 6.14775C0.0612906 6.01741 0.0413495 5.17283 0.0777336 5.13026C0.626924 5.64055 1.15978 6.2215 1.70105 6.74386C1.89925 6.93513 2.18154 7.24794 2.38363 7.41384C2.5458 7.38091 2.61283 7.29998 2.4839 7.16014C2.30818 6.96956 2.11425 6.78765 1.93026 6.60393L0.915834 5.5865C0.783395 5.45563 0.64283 5.33326 0.511946 5.20071C0.342819 5.02944 0.197338 4.842 0.117547 4.61269C-0.0125655 4.23884 0.0434153 3.05038 0.0469958 2.60054C0.151039 2.74192 2.34542 4.92146 2.41153 4.95854C2.44698 4.97842 2.47627 4.98547 2.51654 4.97452C2.59173 4.92133 2.58138 4.85869 2.52712 4.79511C2.38216 4.62525 2.21228 4.47228 2.05345 4.31452L1.33544 3.59583C0.833591 3.09518 0.12311 2.4129 0.0614145 1.66516C0.0427955 1.43953 0.0147982 0.140317 0.0666338 0Z" fill="black"/>
<path d="M0.0111924 7.56247C0.108129 7.62543 2.26077 9.79717 2.2694 9.81792L2.25705 9.83935L1.35655 9.84164C0.983757 9.84578 0.369125 9.90431 0.140258 9.50856C-0.0519358 9.13394 0.0147454 8.65931 0.00465094 8.24873C-0.00040317 8.04364 -0.00482371 7.76097 0.0111924 7.56247Z" fill="black"/>
<path d="M9.99189 7.56129C9.99773 7.5733 10.0016 8.22751 9.99921 8.30602C9.98901 8.63763 10.0295 9.07596 9.91457 9.38718C9.72423 9.9027 9.11654 9.84594 8.67961 9.84231L7.7683 9.83613C7.75208 9.83257 7.75825 9.83303 7.74292 9.81778C7.76042 9.75439 9.82477 7.71155 9.99189 7.56129Z" fill="black"/>
</svg>
