<svg width="16" height="14" viewBox="0 0 16 14" fill="none" xmlns="http://www.w3.org/2000/svg">
<rect width="16" height="14" fill="white"/>
<path d="M6.90894 7.3925L7.08862 7.57317L7.12476 7.60832L7.08862 7.64348L6.73511 7.99699L7.00269 8.26457L7.3562 7.91106L7.39136 7.87492L7.42651 7.91106L7.60718 8.09074L7.64233 8.12688L7.60718 8.16203L7.25366 8.51457L7.55933 8.82024L4.86206 11.5175C4.48162 11.8976 3.86249 11.8978 3.48218 11.5175C3.29799 11.3333 3.19702 11.0876 3.19702 10.8271C3.1971 10.5668 3.2982 10.3217 3.48218 10.1376L6.17944 7.44035L6.48413 7.74504L6.83765 7.3925L6.8728 7.35735L6.90894 7.3925ZM3.73413 10.3886C3.61697 10.5058 3.55255 10.6614 3.55249 10.8271C3.55249 10.9928 3.61693 11.1483 3.73413 11.2655C3.97593 11.5073 4.36928 11.5073 4.61108 11.2655L7.0564 8.82024L6.17944 7.94328L3.73413 10.3886Z" fill="black" stroke="black" stroke-width="0.1"/>
<path d="M10.3464 1.9502C10.4632 1.9502 10.5734 1.99566 10.656 2.07812C10.8267 2.24884 10.8267 2.52655 10.656 2.69727L9.03198 4.32129L9.54468 4.83496L11.1697 3.21094C11.2522 3.12839 11.3625 3.08307 11.4792 3.08301C11.596 3.08301 11.7062 3.12837 11.7888 3.21094C11.9595 3.38165 11.9595 3.65936 11.7888 3.83008L10.1638 5.4541L10.6775 5.96777L12.2986 4.34766C12.3826 4.26369 12.4988 4.21576 12.6179 4.2168C12.736 4.21793 12.8463 4.26536 12.9275 4.34961C13.0073 4.43254 13.0506 4.54204 13.0496 4.65723C13.0485 4.77248 13.0032 4.88138 12.9216 4.96289L11.1072 6.77734C10.7859 7.09864 10.358 7.28334 9.90405 7.29688C9.50826 7.30861 9.12576 7.18898 8.80933 6.95898L8.43042 7.33887L8.39526 7.375L8.35913 7.33887L8.17944 7.1582L8.14331 7.12305L8.17944 7.08789L8.5437 6.72168L8.2771 6.45508L7.91187 6.82129L7.87671 6.85645L7.62573 6.60547L7.66089 6.56934L8.04077 6.18848C7.81145 5.87229 7.69112 5.49094 7.70288 5.0957C7.71642 4.64178 7.90122 4.21483 8.22241 3.89355L10.0369 2.07812C10.1194 1.99561 10.2298 1.95031 10.3464 1.9502ZM10.3464 2.30566C10.3246 2.30576 10.3043 2.31377 10.2888 2.3291L8.47339 4.14453C7.94638 4.67168 7.91775 5.52167 8.40698 6.08203L8.91577 6.59082C9.4761 7.0819 10.3274 7.05401 10.8552 6.52637L12.6707 4.71094C12.7018 4.6795 12.7023 4.62752 12.6716 4.5957C12.6577 4.58133 12.638 4.5725 12.615 4.57227C12.5904 4.57203 12.5663 4.58194 12.5496 4.59863L10.7136 6.43555L10.6775 6.4707L9.69702 5.49023L9.66187 5.4541L9.69702 5.41895L11.5378 3.5791C11.5699 3.54698 11.5699 3.49401 11.5378 3.46191C11.5222 3.44632 11.5013 3.43848 11.4792 3.43848C11.4574 3.43853 11.4372 3.44654 11.4216 3.46191L9.54565 5.33789L9.50952 5.30273L8.52905 4.32227L8.56421 4.28613L10.405 2.44629C10.4371 2.4142 10.4371 2.36122 10.405 2.3291C10.3894 2.31362 10.3684 2.30566 10.3464 2.30566Z" fill="black" stroke="black" stroke-width="0.1"/>
<path d="M5.05664 2.69351C5.66405 2.75623 6.25717 3.05127 6.72656 3.52066C7.13611 3.93037 7.41903 4.44768 7.52148 4.97867C7.61399 5.45829 7.55523 5.9286 7.35742 6.31949L8.7832 7.74527L9.05371 7.47574L9.08887 7.44058L9.12402 7.47574L11.7852 10.1378C11.9694 10.322 12.0713 10.5668 12.0713 10.8273C12.0713 11.0878 11.9694 11.3326 11.7852 11.5168C11.601 11.7009 11.3562 11.8029 11.0957 11.8029C10.8352 11.8029 10.5904 11.701 10.4062 11.5168L7.74414 8.85562L7.70898 8.82047L7.74414 8.78531L8.01367 8.5148L6.58789 7.08902C6.197 7.28683 5.72669 7.34559 5.24707 7.25308C4.71609 7.15062 4.19877 6.86771 3.78906 6.45816C3.31967 5.98877 3.02463 5.39563 2.96191 4.78824C2.93111 4.48954 2.95879 4.20253 3.04297 3.9357C3.13098 3.6568 3.27772 3.41287 3.47949 3.21109C3.68128 3.00932 3.9252 2.86258 4.2041 2.77457C4.47093 2.69039 4.75794 2.66271 5.05664 2.69351ZM8.90918 8.12222L8.39062 8.64078L8.21094 8.81949L10.6572 11.2658C10.7744 11.383 10.93 11.4474 11.0957 11.4474C11.2615 11.4474 11.417 11.383 11.5342 11.2658C11.6514 11.1486 11.7158 10.9931 11.7158 10.8273C11.7158 10.6615 11.6514 10.506 11.5342 10.3888L9.08789 7.94254L8.90918 8.12222ZM6.87109 6.86929L8.26465 8.26285L8.53125 7.99625L7.1377 6.60269L6.87109 6.86929ZM6.47461 3.77164C5.62506 2.92212 4.39488 2.79765 3.73047 3.46207C3.06607 4.12651 3.19053 5.35665 4.04004 6.20621C4.76996 6.93612 5.80497 7.14533 6.50879 6.72867L6.99707 6.24039C7.41375 5.53658 7.20453 4.50156 6.47461 3.77164Z" fill="black" stroke="black" stroke-width="0.1"/>
</svg>
