<svg width="11" height="10" viewBox="0 0 11 10" fill="none" xmlns="http://www.w3.org/2000/svg">
<path d="M4.00903 5.49251L4.18872 5.67317L4.22485 5.70833L4.18872 5.74348L3.83521 6.097L4.10278 6.36458L4.4563 6.01106L4.49146 5.97493L4.52661 6.01106L4.70728 6.19075L4.74243 6.22688L4.70728 6.26204L4.35376 6.61458L4.65942 6.92024L1.96216 9.61751C1.58172 9.99763 0.962583 9.99782 0.582275 9.61751C0.398089 9.43331 0.297119 9.18756 0.297119 8.92708C0.297199 8.6668 0.398301 8.42174 0.582275 8.23763L3.27954 5.54036L3.58423 5.84505L3.93774 5.49251L3.9729 5.45735L4.00903 5.49251ZM0.834229 8.4886C0.717063 8.60577 0.652649 8.7614 0.652588 8.92708C0.652588 9.09283 0.717032 9.24834 0.834229 9.36555C1.07603 9.60736 1.46938 9.60736 1.71118 9.36555L4.15649 6.92024L3.27954 6.04329L0.834229 8.4886Z" fill="black" stroke="black" stroke-width="0.1"/>
<path d="M7.44653 0.0502014C7.56325 0.0502014 7.67352 0.0956703 7.7561 0.178131C7.9268 0.348845 7.9268 0.626557 7.7561 0.797272L6.13208 2.4213L6.64478 2.93497L8.26978 1.31094C8.35234 1.22839 8.46261 1.18308 8.57935 1.18301C8.69614 1.18301 8.80631 1.22837 8.88892 1.31094C9.05961 1.48166 9.05961 1.75937 8.88892 1.93008L7.26392 3.55411L7.77759 4.06778L9.39868 2.44766C9.48268 2.3637 9.59887 2.31577 9.71802 2.3168C9.8361 2.31793 9.94638 2.36536 10.0276 2.44962C10.1074 2.53255 10.1506 2.64205 10.1497 2.75723C10.1486 2.87248 10.1033 2.98139 10.0217 3.0629L8.20728 4.87735C7.88598 5.19864 7.45813 5.38334 7.00415 5.39688C6.60836 5.40862 6.22586 5.28898 5.90942 5.05899L5.53052 5.43887L5.49536 5.47501L5.45923 5.43887L5.27954 5.25821L5.24341 5.22305L5.27954 5.1879L5.6438 4.82169L5.3772 4.55508L5.01196 4.9213L4.97681 4.95645L4.72583 4.70547L4.76099 4.66934L5.14087 4.28848C4.91154 3.97229 4.79122 3.59094 4.80298 3.19571C4.81651 2.74179 5.00132 2.31483 5.32251 1.99356L7.13696 0.178131C7.21947 0.0956204 7.32986 0.0503122 7.44653 0.0502014ZM7.44653 0.40567C7.42474 0.40577 7.40441 0.413775 7.38892 0.429108L5.57349 2.24454C5.04648 2.77169 5.01785 3.62168 5.50708 4.18204L6.01587 4.69083C6.5762 5.1819 7.42753 5.15401 7.95532 4.62637L9.77075 2.81094C9.80186 2.7795 9.80235 2.72753 9.77173 2.69571C9.75782 2.68133 9.73807 2.67251 9.71509 2.67227C9.69049 2.67204 9.66638 2.68195 9.64966 2.69864L7.81372 4.53555L7.77759 4.57071L6.79712 3.59024L6.76196 3.55411L6.79712 3.51895L8.63794 1.67911C8.67005 1.64699 8.67003 1.59401 8.63794 1.56192C8.62233 1.54632 8.60143 1.53848 8.57935 1.53848C8.55749 1.53854 8.53729 1.54655 8.52173 1.56192L6.64575 3.4379L6.60962 3.40274L5.62915 2.42227L5.66431 2.38614L7.50513 0.546295C7.53722 0.514202 7.53724 0.461227 7.50513 0.429108C7.48953 0.413627 7.46854 0.40567 7.44653 0.40567Z" fill="black" stroke="black" stroke-width="0.1"/>
<path d="M2.15674 0.793518C2.76415 0.856233 3.35727 1.15127 3.82666 1.62067C4.23621 2.03038 4.51912 2.54769 4.62158 3.07867C4.71409 3.5583 4.65533 4.0286 4.45752 4.41949L5.8833 5.84528L6.15381 5.57574L6.18896 5.54059L6.22412 5.57574L8.88525 8.23785C9.06946 8.42204 9.17138 8.66684 9.17139 8.92731C9.17139 9.1878 9.06945 9.43256 8.88525 9.61676C8.70105 9.80094 8.4563 9.90289 8.1958 9.90289C7.93531 9.90289 7.69055 9.80096 7.50635 9.61676L4.84424 6.95563L4.80908 6.92047L4.84424 6.88531L5.11377 6.61481L3.68799 5.18903C3.2971 5.38684 2.82679 5.4456 2.34717 5.35309C1.81618 5.25063 1.29887 4.96771 0.88916 4.55817C0.419768 4.08877 0.124726 3.49563 0.0620117 2.88824C0.0312081 2.58955 0.0588887 2.30254 0.143066 2.03571C0.231076 1.7568 0.377814 1.51287 0.57959 1.3111C0.781382 1.10932 1.02529 0.962583 1.3042 0.874573C1.57103 0.790395 1.85804 0.762714 2.15674 0.793518ZM6.00928 6.22223L5.49072 6.74078L5.31104 6.91949L7.75732 9.36578C7.87454 9.48298 8.03005 9.54741 8.1958 9.54742C8.36156 9.54742 8.51706 9.483 8.63428 9.36578C8.7515 9.24856 8.81593 9.09307 8.81592 8.92731C8.81591 8.76155 8.75149 8.60605 8.63428 8.48883L6.18799 6.04254L6.00928 6.22223ZM3.97119 4.9693L5.36475 6.36285L5.63135 6.09625L4.23779 4.7027L3.97119 4.9693ZM3.57471 1.87164C2.72516 1.02213 1.49498 0.897657 0.830566 1.56207C0.16617 2.22651 0.290629 3.45666 1.14014 4.30621C1.87005 5.03613 2.90506 5.24534 3.60889 4.82867L4.09717 4.34039C4.51385 3.63659 4.30463 2.60157 3.57471 1.87164Z" fill="black" stroke="black" stroke-width="0.1"/>
</svg>
