<svg width="64" height="64" viewBox="0 0 64 64" fill="none" xmlns="http://www.w3.org/2000/svg">
<rect width="64" height="64" fill="white"/>
<path d="M19.4326 31C24.3583 31.0737 25.1241 34.5817 28.876 36.7479C29.6095 36.4627 30.5252 36.1147 31.299 35.9109C37.0989 34.4688 44.1965 34.4861 49.6459 37.0363C51.7215 38.0066 54.0985 40.5036 52.4468 42.6902C50.5522 45.1982 46.9673 46.0399 43.9235 46.6528C40.2397 50.7314 34.2662 51.0308 28.9421 50.9979C25.1301 50.7721 17.8745 49.7752 16.6145 45.8095C15.2787 41.604 22.6232 39.9033 25.4861 39.3045C25.9013 38.853 26.3726 38.3938 26.8073 37.9549C24.957 36.5175 23.6663 34.7855 21.5177 33.4468C17.0036 30.6348 12.9713 40.198 10.1054 38.6352L10 38.2527C10.2578 36.9157 12.2124 35.5363 13.2232 34.5174C15.1643 32.5596 16.4955 31.3229 19.4326 31Z" fill="#353535"/>
<path d="M28.3662 38.3653C32.7169 35.6219 40.0537 35.6185 44.9432 36.5843C46.5926 36.9108 49.9556 37.9577 50.7267 39.3819C52.5858 42.807 44.4164 44.1347 42.6492 44.4561C38.6832 50.4319 24.9809 49.8466 19.3363 46.5281C18.8981 46.2693 18.0074 45.4202 18.0003 44.9297C17.9495 41.4403 25.0292 41.1528 26.7738 40.2716C26.9753 39.4157 27.6514 38.8339 28.3662 38.3653Z" fill="white"/>
<path d="M26.2253 46.6884C24.7451 46.3703 21.1181 45.046 22.1976 43.1883C23.7301 42.4336 24.2978 44.1615 26.1472 44.6045L26.3907 44.6615C27.2293 44.7422 29.714 44.8941 30.3714 45.1124C30.6304 45.5428 30.5524 45.5855 30.9528 45.7801C31.0098 46.4083 31.0777 46.1219 30.743 46.6741C29.6864 47.2881 27.4848 46.8814 26.2253 46.6884Z" fill="#353535"/>
<path d="M45.322 38C45.6794 38.0358 45.965 38.098 46.3153 38.164C47.0266 38.7805 47.2753 39.8967 46.6166 40.6376C44.9156 42.555 41.7219 42.7794 39.4252 43C38.4617 42.8775 37.6752 42.3307 38.1348 41.2127C39.2272 40.3114 42.3 40.3039 44.404 39.5441L45.322 38Z" fill="#353535"/>
<path d="M23.7427 14.0284C30.7628 13.5539 31.4668 19.1138 35.1558 23.6899C37.5658 21.3521 40.5418 19.1122 44.329 20.9506C45.7494 21.6391 52.6542 26.5702 53 27.5989C52.8583 31.347 45.7612 31.0434 43.2612 30.9555C39.1686 30.8128 36.1516 27.8528 33.5389 25.1334C31.5866 22.8055 30.4227 19.9882 28.6477 17.8976C25.2476 14.1777 21.5117 16.6101 19.7619 20.3483C18.74 22.5318 13.0706 31.0318 10.6077 30.8377C10.0324 30.466 10.2335 30.7132 10 30.0579C10.1118 28.9844 11.0118 28.1813 11.8509 27.5392C16.6357 23.8807 17.6819 15.7142 23.7427 14.0284Z" fill="#353535"/>
<path d="M27.4001 22C28.4014 22.071 28.7632 22.1974 29 23.0906C28.7293 24.3162 24.5453 30.0098 23.5437 31C22.592 30.8511 22.3284 30.8304 22 29.9475C22.1909 28.7271 26.3932 23.0802 27.4001 22Z" fill="#353535"/>
<path d="M30.4205 24.0081C31.0128 23.9881 30.9798 23.9918 31.5469 24.177C31.8136 24.453 31.9279 24.4657 31.9867 24.807C32.216 26.1362 29.4114 29.9601 28.572 30.9878C28.0813 31.0241 28.0274 30.9787 27.5401 30.8589C27.2513 30.5956 26.9453 30.3922 27.0083 29.9038C27.2003 28.4185 29.5731 25.1066 30.4205 24.0081Z" fill="#353535"/>
</svg>
