<svg width="15" height="9" viewBox="0 0 15 9" fill="none" xmlns="http://www.w3.org/2000/svg">
<path d="M8.08519 3.60611C8.04877 3.50951 7.98993 3.39402 7.89633 3.28976C8.3858 3.29669 8.90411 3.29964 8.99997 3.29089C8.99727 3.24519 8.99354 3.13136 8.97494 3.02537C8.81996 3.01487 7.84395 3.00565 7.29778 3.00445C7.22981 2.99846 7.15592 2.99856 7.07672 3.00449C7.04814 3.00461 7.02305 3.00477 7.0021 3.00499C6.99695 3.05473 7.00169 3.22348 7.01173 3.26971C7.05796 3.27213 7.13656 3.2747 7.2364 3.27727C7.39881 3.32934 7.62028 3.42921 7.72376 3.60432C7.35066 3.60244 7.03271 3.6005 7.00213 3.59651C6.99698 3.64626 7.00172 3.81504 7.01176 3.86124C7.12615 3.86717 7.43786 3.87426 7.78229 3.87959C7.77351 4.22057 7.57261 4.35672 7.37526 4.4098C7.37526 4.4098 7.24954 4.43548 7.00621 4.44144L8.22285 6.12644L8.56204 5.97109L7.55282 4.64341C7.83128 4.54476 8.11511 4.33373 8.13986 3.88439C8.54592 3.88887 8.92005 3.88972 9 3.88244C8.9973 3.83671 8.99357 3.72285 8.97497 3.6169C8.88915 3.6111 8.49746 3.60831 8.08519 3.60611Z" fill="#1F1E21"/>
<path d="M14.9347 7.24982C14.9462 7.23517 14.9543 7.21698 14.9532 7.19249C14.8573 5.15375 14.7263 3.09556 14.4169 1.07638C14.4279 1.07528 14.4392 1.07517 14.4501 1.07397C14.4995 1.06859 14.5189 0.99409 14.4627 0.980831C13.7912 0.822385 13.0432 0.86117 12.3549 0.822041C11.5885 0.778466 10.8182 0.709841 10.0502 0.722756C10.0449 0.722843 10.0414 0.726316 10.0371 0.728571C10.0101 0.592114 9.9787 0.456757 9.94258 0.322619C10.031 0.308628 10.0608 0.169861 9.96041 0.155581C9.1705 0.0432303 8.37663 -0.0157514 7.57841 0.00365083C7.07903 0.0158024 6.19253 -0.0414354 5.72653 0.236485C5.71661 0.231351 5.70121 0.238313 5.69997 0.251782C5.69994 0.252086 5.69993 0.252391 5.69991 0.252699C5.69193 0.257861 5.68301 0.262272 5.67532 0.267652C5.66429 0.275377 5.65339 0.2883 5.65505 0.30303C5.65787 0.328421 5.66071 0.353805 5.66355 0.379188C5.66494 0.391545 5.67834 0.40052 5.68883 0.39664C5.68053 0.511534 5.67448 0.626991 5.67084 0.743016C5.65904 0.7213 5.63884 0.7039 5.60795 0.701297C3.99691 0.565655 2.34737 0.477528 0.736027 0.649268C0.718266 0.651163 0.717439 0.67697 0.736027 0.677551C2.36354 0.728606 3.98355 0.715881 5.60795 0.857697C5.63694 0.860229 5.65649 0.8482 5.66866 0.830621C5.66711 0.899911 5.66626 0.969348 5.66608 1.03894C5.63657 1.0313 5.60711 1.02327 5.57697 1.0183C5.57565 1.0167 5.57425 1.01513 5.57295 1.01352C5.53517 0.966935 5.49587 0.921671 5.45866 0.874595C5.4488 0.862092 5.42872 0.878187 5.43681 0.891458C5.4616 0.932094 5.48717 0.972532 5.51449 1.01165C5.39991 0.999521 5.28324 1.00299 5.1704 1.02017C5.1632 1.02128 5.16481 1.03367 5.17214 1.03299C5.25989 1.02481 5.34512 1.02472 5.43006 1.02974C5.42149 1.03079 5.41429 1.03959 5.41956 1.04924C5.42937 1.06715 5.44098 1.08405 5.45203 1.10126C5.3582 1.10004 5.2634 1.1028 5.17169 1.09961C5.16254 1.09929 5.16023 1.11407 5.1695 1.11585C5.26731 1.13462 5.37728 1.14984 5.4833 1.14877C5.4994 1.17142 5.51582 1.19386 5.5327 1.2158C5.56228 1.25425 5.5894 1.31303 5.63812 1.32676C5.64815 1.32957 5.65945 1.32157 5.65904 1.31082C5.65706 1.25965 5.60706 1.22033 5.57629 1.18216C5.56634 1.16982 5.5558 1.15786 5.5456 1.14565C5.56986 1.14362 5.59394 1.14116 5.61715 1.13664C5.62386 1.14205 5.63044 1.14765 5.63795 1.15205C5.64824 1.15806 5.66453 1.14784 5.65967 1.13535C5.64661 1.10186 5.62393 1.07386 5.60064 1.04648C5.62233 1.04929 5.64421 1.05248 5.66603 1.05557C5.66592 1.15898 5.66671 1.26259 5.66915 1.36652C5.63522 1.36436 5.60121 1.36312 5.56727 1.36119C5.56074 1.3468 5.55241 1.33354 5.54219 1.32145C5.55569 1.32228 5.56898 1.32414 5.58273 1.32371C5.59181 1.32343 5.59425 1.30977 5.58493 1.30748C5.56167 1.30177 5.53832 1.29668 5.51498 1.2917C5.51181 1.2884 5.50864 1.28511 5.50553 1.28178C5.47117 1.24482 5.43668 1.20796 5.40225 1.17106C5.3909 1.15888 5.37469 1.17648 5.38442 1.18889C5.40798 1.21891 5.43153 1.24894 5.45508 1.27896C5.39972 1.26719 5.3446 1.25458 5.29063 1.23583C5.28372 1.23343 5.27886 1.24463 5.2856 1.24774C5.34934 1.27731 5.41469 1.30196 5.48264 1.31457C5.49416 1.32991 5.50623 1.34508 5.51954 1.3587C4.97293 1.32945 4.42362 1.32695 3.87682 1.30977C3.32006 1.29227 2.71939 1.20929 2.16731 1.29152C2.15337 1.2936 2.15824 1.31351 2.17044 1.31458C2.75194 1.36583 3.34713 1.35666 3.93106 1.3813C4.51059 1.40577 5.09175 1.44861 5.67187 1.45429C5.67206 1.46059 5.67225 1.4669 5.67244 1.4732C5.66915 1.47277 5.66554 1.47496 5.66755 1.47896C5.66937 1.48258 5.67115 1.48622 5.67296 1.48985C5.67497 1.55313 5.67727 1.61645 5.67997 1.67984C5.63717 1.60909 5.58936 1.54019 5.54707 1.472C5.54294 1.46535 5.53261 1.47132 5.53655 1.47815C5.58493 1.56183 5.62936 1.65293 5.68244 1.73592C5.68468 1.78506 5.68701 1.83419 5.68959 1.88338C5.64584 1.80609 5.59213 1.73174 5.54525 1.6639C5.54148 1.65844 5.53261 1.6634 5.53623 1.66916C5.57357 1.72872 5.60928 1.78921 5.64254 1.85115C5.6602 1.88403 5.67627 1.91863 5.69335 1.9526C5.6978 2.03316 5.70254 2.11373 5.70763 2.19431C5.69531 2.17428 5.6829 2.15444 5.67148 2.13492L5.5493 1.92616C5.54305 1.91548 5.52712 1.92492 5.53278 1.93582C5.56993 2.0075 5.60708 2.07917 5.64423 2.15085C5.66638 2.19356 5.68687 2.24049 5.71314 2.28237C5.71637 2.3319 5.71974 2.38141 5.7231 2.4309C5.66803 2.32812 5.58963 2.23071 5.5271 2.13626C5.52158 2.12792 5.50845 2.13537 5.51358 2.14416C5.58047 2.25869 5.64078 2.39571 5.72758 2.49747C5.73179 2.55885 5.73609 2.62015 5.74036 2.68144C5.69179 2.58343 5.62714 2.48803 5.57694 2.39724C5.57145 2.38731 5.55719 2.39603 5.56191 2.40602C5.61964 2.52824 5.66974 2.67331 5.74767 2.78665C5.75147 2.84114 5.75528 2.89562 5.759 2.94997C5.70481 2.83595 5.6354 2.72499 5.57818 2.61728C5.57497 2.61124 5.56648 2.61654 5.56917 2.62255C5.63121 2.7615 5.68611 2.91785 5.76566 3.05019C5.78349 3.31672 5.79943 3.58156 5.80865 3.84297C5.81001 3.88106 5.81098 3.91916 5.81231 3.95724C5.79031 3.91858 5.76482 3.88138 5.74181 3.84439C5.69732 3.77285 5.65285 3.70132 5.60836 3.62978C5.60067 3.61742 5.58189 3.62836 5.58883 3.64119C5.62893 3.7153 5.66902 3.7894 5.7091 3.8635C5.74153 3.92344 5.77097 3.9891 5.81501 4.04168C5.81664 4.0894 5.81796 4.13712 5.81958 4.18485C5.79747 4.14438 5.76813 4.10611 5.7446 4.06823C5.70644 4.00682 5.67069 3.94404 5.63661 3.88029C5.6307 3.86924 5.61512 3.87895 5.6201 3.88995C5.64986 3.95605 5.68136 4.02128 5.71536 4.08532C5.74471 4.1406 5.77395 4.207 5.82148 4.24866C5.82152 4.24869 5.82159 4.24869 5.82162 4.24872C5.82382 4.3138 5.82572 4.3789 5.82787 4.44398C5.77217 4.31417 5.67853 4.19048 5.60664 4.07144C5.60027 4.06088 5.58428 4.07025 5.59012 4.0811C5.66297 4.21623 5.7256 4.37882 5.82406 4.49685C5.8256 4.49869 5.82765 4.4992 5.82963 4.49974C5.83608 4.69609 5.84245 4.89244 5.84847 5.0888C5.82584 5.0433 5.79387 5.0021 5.76534 4.96031C5.72691 4.90402 5.68848 4.84772 5.65005 4.79143C5.64442 4.7832 5.63109 4.79072 5.63654 4.79933C5.67288 4.85684 5.70921 4.91437 5.74555 4.97188C5.77747 5.02239 5.80599 5.07812 5.84866 5.12039C5.84888 5.1206 5.84923 5.12029 5.84947 5.12047C5.85175 5.19485 5.85439 5.26921 5.85659 5.34359C5.83589 5.30771 5.81064 5.27345 5.78863 5.24018C5.7478 5.17846 5.7066 5.11698 5.66559 5.05538C5.65974 5.04659 5.64596 5.05441 5.65133 5.06372C5.68815 5.12775 5.72481 5.1919 5.76184 5.25584C5.79094 5.30607 5.81857 5.36379 5.85863 5.40682C5.86885 5.75347 5.87787 6.10017 5.88693 6.44687C5.35417 6.35174 4.78799 6.35668 4.24909 6.3387C3.66429 6.31918 3.06794 6.27889 2.4832 6.30816C2.48286 6.30763 2.48322 6.30718 2.48284 6.30665C2.39066 6.17904 2.27335 6.06801 2.16658 5.95255C2.11026 5.89163 2.05382 5.83086 1.99663 5.77074C1.96546 5.73797 1.82969 5.62148 1.79708 5.55656C1.85983 4.98283 1.7911 4.36659 1.7484 3.79277C1.70708 3.23757 1.6522 2.67968 1.54721 2.13247C1.54676 2.13013 1.54485 2.12925 1.54371 2.12754C1.75613 1.87645 1.99596 1.6133 2.15817 1.32866C2.16851 1.31052 2.14454 1.29216 2.12948 1.30652C1.88592 1.53896 1.68168 1.84945 1.4843 2.12162C1.47082 2.14018 1.49317 2.1614 1.51175 2.15707C1.57057 2.72022 1.64241 3.2812 1.68156 3.84636C1.72104 4.41636 1.68807 4.9979 1.74509 5.56467C1.74607 5.57449 1.75104 5.58043 1.75711 5.5844C1.78599 5.68094 1.91347 5.77645 1.97057 5.84077C2.11962 6.00872 2.26581 6.19627 2.43572 6.34301C2.45018 6.3555 2.47059 6.34951 2.48102 6.33702C3.04582 6.40673 3.62771 6.38839 4.19583 6.40797C4.68266 6.42475 5.16969 6.47652 5.65595 6.50117C5.66509 6.51836 5.67451 6.53541 5.6835 6.55268C5.6465 6.5493 5.60908 6.54842 5.57153 6.5499C5.57107 6.54939 5.57066 6.54884 5.57019 6.54833C5.56403 6.54164 5.55474 6.54494 5.54997 6.55102C5.47919 6.55531 5.4089 6.56624 5.34328 6.58041C5.33228 6.58279 5.3347 6.60045 5.34593 6.60007C5.42268 6.59744 5.49998 6.60087 5.57717 6.60407C5.6012 6.63619 5.62393 6.66922 5.6471 6.70193C5.61189 6.70447 5.57685 6.7082 5.54286 6.71211C5.51878 6.68597 5.49402 6.66044 5.46903 6.63535C5.4574 6.62367 5.44086 6.64095 5.45119 6.65318C5.46848 6.67363 5.48307 6.69597 5.49932 6.71708C5.48258 6.71893 5.46625 6.72062 5.45054 6.72196C5.43323 6.72344 5.4332 6.74745 5.45054 6.74892C5.47552 6.75105 5.50226 6.75411 5.52958 6.75725C5.54487 6.77818 5.56178 6.79786 5.5764 6.8194C5.57966 6.82421 5.58303 6.83014 5.58633 6.83555C5.56056 6.83112 5.53476 6.82747 5.50927 6.82461C5.49136 6.8226 5.49189 6.85011 5.50927 6.85244C5.54365 6.85705 5.57678 6.86479 5.60961 6.87339C5.62773 6.9029 5.64821 6.93153 5.67597 6.94347C5.6841 6.94697 5.69329 6.94297 5.69364 6.93333C5.69411 6.92035 5.69119 6.90747 5.68614 6.89483C5.71449 6.90328 5.7429 6.91177 5.77186 6.91948C5.78285 6.92241 5.78929 6.9071 5.77956 6.90121C5.74305 6.87905 5.70285 6.86399 5.66149 6.8525C5.64546 6.83041 5.62665 6.8097 5.61213 6.79182C5.60429 6.78217 5.59572 6.7731 5.58762 6.76362C5.62342 6.76739 5.6597 6.77026 5.69564 6.77126C5.72854 6.82351 5.75938 6.88826 5.81058 6.92214C5.82416 6.93111 5.83772 6.91633 5.8355 6.90298C5.82756 6.85515 5.79349 6.81065 5.7602 6.77048C5.78259 6.76909 5.80432 6.76629 5.8253 6.76197C5.83118 6.76629 5.83654 6.77114 5.84314 6.77477C5.85222 6.77977 5.86411 6.77147 5.86102 6.76102C5.86024 6.75838 5.85881 6.7561 5.85793 6.75352C5.86062 6.75268 5.86356 6.75229 5.86621 6.75137C5.88187 6.74601 5.8819 6.72488 5.86621 6.71951C5.85744 6.71651 5.84801 6.71468 5.83882 6.71241C5.8198 6.68002 5.79491 6.65094 5.77281 6.62011C5.7698 6.61592 5.76748 6.6113 5.76452 6.60709C5.78686 6.60676 5.80925 6.60707 5.83148 6.6057C5.84393 6.60494 5.84597 6.58855 5.83436 6.58435C5.80208 6.57266 5.76834 6.56484 5.734 6.55913C5.72192 6.54057 5.71028 6.52172 5.69834 6.50307C5.76176 6.50606 5.82521 6.5098 5.88861 6.51159C5.8928 6.67392 5.89723 6.83625 5.90119 6.99859C5.10957 6.91574 4.29863 6.92317 3.50332 6.90766C2.73478 6.89268 1.95001 6.85472 1.18413 6.93894C1.18418 6.93854 1.1844 6.93822 1.18445 6.93781C1.24742 6.39829 1.13882 5.81626 1.0974 5.27475C1.06029 4.7896 1.02204 4.30456 0.982825 3.81958C0.898792 2.78043 0.833105 1.73772 0.719801 0.701344C0.713551 0.644205 0.625879 0.641298 0.628284 0.701344C0.647227 1.17544 0.676701 1.64936 0.709204 2.12315C0.666167 1.99245 0.599068 1.86598 0.529971 1.74635L0.490562 1.17338C0.531993 1.02426 0.574132 0.875213 0.617275 0.725841C0.623363 0.70477 0.592941 0.697602 0.585195 0.716993C0.329782 1.35635 0.169299 2.03095 0.0549389 2.70879C0.048701 2.6594 0.0432265 2.6099 0.0364031 2.56061C0.0345281 2.54704 0.0141884 2.55129 0.0135357 2.56371C-0.0367716 3.51704 0.0630638 4.4893 0.150305 5.43819C0.232245 6.32932 0.299589 7.2463 0.479921 8.12375C0.496135 8.20261 0.629439 8.18629 0.622101 8.10451C0.599503 7.85301 0.570655 7.60198 0.538966 7.35116C0.5734 7.40366 0.617481 7.4518 0.656005 7.50089C0.673085 7.52264 0.689869 7.54572 0.706921 7.56871C0.725971 7.67251 0.743285 7.74532 0.758518 7.78278C0.722953 7.9453 0.697001 8.10749 0.688904 8.26476C0.687503 8.29212 0.704706 8.30726 0.725184 8.31122C0.725346 8.32099 0.728744 8.33038 0.74111 8.33607C1.36344 8.62266 2.1632 8.50888 2.82957 8.51165C3.70256 8.51528 4.57587 8.52611 5.44884 8.52344C5.48663 8.52333 5.51112 8.50396 5.52511 8.47859C5.48451 8.57192 5.4507 8.66723 5.43798 8.76634C5.41997 8.80447 5.43959 8.86072 5.49571 8.86609C6.96189 9.00635 8.46403 8.99805 9.93614 8.99533C9.94875 8.9953 9.95923 8.9922 9.96924 8.98857C9.9728 8.9993 9.98777 9.00433 9.99615 8.99539C10.0812 8.90466 10.1089 8.76298 10.1481 8.64771C10.1514 8.63814 10.1459 8.63054 10.1386 8.6263C10.1402 8.62411 10.1421 8.62216 10.1437 8.61994C10.1484 8.6228 10.1519 8.62686 10.1583 8.6277C10.2897 8.64489 10.4221 8.65898 10.5546 8.67308C10.5557 8.67389 10.5565 8.67505 10.5577 8.67584C10.5616 8.67866 10.5669 8.6777 10.5708 8.67494C10.6497 8.68326 10.7287 8.691 10.8079 8.69821C10.8227 8.71341 10.8371 8.72934 10.8528 8.74322C10.8643 8.75337 10.8793 8.74081 10.8733 8.72741C10.8694 8.7189 10.8644 8.71091 10.8603 8.70252C12.0472 8.80689 13.2642 8.78847 14.4355 8.63339C14.4989 8.62499 14.5226 8.5753 14.5139 8.53205C14.5698 8.46416 14.6109 8.38521 14.6432 8.30053C14.6875 8.29531 14.7322 8.29168 14.7762 8.28547C14.8043 8.28151 14.7969 8.23663 14.7697 8.23678C14.7351 8.23697 14.7005 8.23827 14.6659 8.2387C14.6783 8.20168 14.6897 8.16417 14.7006 8.12645C14.7307 8.1228 14.761 8.11965 14.7909 8.11544C14.819 8.11151 14.8116 8.06659 14.7844 8.06676C14.7619 8.06689 14.7394 8.06789 14.7169 8.06822C14.7291 8.02469 14.7412 7.98145 14.7538 7.93926C14.771 7.93704 14.7884 7.9355 14.8057 7.9331C14.8337 7.92918 14.8264 7.88422 14.7991 7.88441C14.7898 7.88448 14.7806 7.88489 14.7713 7.88498C14.7766 7.8686 14.7817 7.85181 14.7874 7.83595C14.7952 7.81457 14.8053 7.79086 14.8166 7.76559C14.8178 7.76542 14.8191 7.76533 14.8204 7.76515C14.8388 7.76258 14.8408 7.74276 14.833 7.72919C14.9008 7.58062 14.9915 7.38908 14.9347 7.24982ZM5.5087 1.10218C5.48707 1.07805 5.46463 1.05465 5.44073 1.0329C5.43839 1.03077 5.43575 1.03016 5.43315 1.02983C5.46649 1.03185 5.49985 1.03526 5.53324 1.03878C5.53408 1.03991 5.5348 1.04115 5.53566 1.04229C5.55217 1.06414 5.56855 1.08718 5.58698 1.10798C5.56102 1.10566 5.5351 1.10317 5.5087 1.10218ZM5.71317 6.60816C5.72152 6.62285 5.72821 6.63843 5.73707 6.65286C5.74704 6.66909 5.75723 6.68514 5.76791 6.7007C5.74585 6.69903 5.72316 6.69892 5.70027 6.69943C5.67364 6.66783 5.64675 6.63641 5.61935 6.60543C5.65066 6.60662 5.68197 6.6078 5.71317 6.60816ZM12.1454 0.961318C12.852 1.0075 13.6183 1.13738 14.3286 1.08279C14.4881 3.10707 14.6811 5.12277 14.7617 7.15288C14.0408 7.228 13.3283 7.30549 12.6013 7.29956C11.8674 7.29356 11.1408 7.20237 10.4099 7.14832C10.4129 6.96772 10.4134 6.78675 10.4103 6.60526C11.3509 6.71374 12.3178 6.69361 13.2608 6.64603C13.2914 6.64449 13.3074 6.62206 13.3106 6.59827C13.4448 6.58286 13.5833 6.50745 13.694 6.43998C13.7624 6.39831 13.8614 6.34028 13.9276 6.26896C13.9511 6.27407 13.9795 6.26155 13.9803 6.2303C13.9806 6.21766 13.9805 6.20503 13.9808 6.19239C13.9866 6.17959 13.9918 6.16663 13.9945 6.15318C13.9961 6.14493 13.9898 6.13817 13.9816 6.13839C13.9946 5.49999 13.9867 4.86168 13.9555 4.22384C13.9247 3.59646 13.9042 2.94474 13.7723 2.32908C13.7698 2.31749 13.7516 2.32019 13.7518 2.33186C13.7609 2.98016 13.8497 3.62961 13.8778 4.27802C13.9052 4.91008 13.9097 5.54287 13.8975 6.17537C13.8119 6.22967 13.7362 6.31998 13.6539 6.37129C13.5361 6.4447 13.4036 6.48107 13.2823 6.54303C13.2761 6.5407 13.269 6.53943 13.2608 6.53993C12.3066 6.5975 11.3624 6.56094 10.409 6.53659C10.3895 5.59963 10.3026 4.65402 10.2583 3.72674C10.2216 2.95905 10.2253 2.16487 10.138 1.38949C10.2443 1.3823 10.4598 1.38179 10.4817 1.38403C10.6174 1.39791 10.7522 1.42571 10.8861 1.45079C11.1006 1.49097 11.3152 1.5288 11.5316 1.5575C11.9987 1.61942 12.4795 1.66229 12.9507 1.63861C12.9587 1.63821 12.9639 1.63429 12.9687 1.63031C12.9702 1.64072 12.9807 1.6487 12.9921 1.64236C13.0476 1.61148 13.3352 1.95488 13.3736 1.99769C13.4807 2.11701 13.5728 2.26461 13.6937 2.36888C13.7124 2.38504 13.7357 2.36515 13.7265 2.34359C13.6511 2.16724 13.4836 2.00849 13.3515 1.87355C13.2788 1.79938 13.2036 1.72879 13.1244 1.66167C13.0816 1.6254 13.0534 1.59354 12.9975 1.59175C12.9908 1.59155 12.9832 1.59563 12.9795 1.60152C12.9774 1.58815 12.9687 1.57578 12.9507 1.57513C12.3321 1.55279 11.7259 1.5313 11.1138 1.42538C10.9633 1.39935 10.3702 1.2284 10.1293 1.31045C10.1083 1.13652 10.0816 0.963802 10.0494 0.792458C10.7436 0.888468 11.4466 0.915631 12.1454 0.961318ZM0.83786 3.92352C0.87342 4.44332 0.910694 4.96298 0.948525 5.48263C0.983695 5.96582 0.968256 6.47964 1.09583 6.94816C1.09372 6.94842 1.09159 6.94857 1.08947 6.94882C1.09993 6.89509 1.02314 6.87373 1.00602 6.92665C0.957006 7.07819 0.904947 7.23793 0.857266 7.40085L0.838853 7.1775C0.847602 7.1861 0.855771 7.19557 0.865134 7.20321C0.876656 7.21261 0.892119 7.20117 0.885624 7.1874C0.871344 7.15714 0.852563 7.12855 0.832508 7.10051L0.816962 6.9119C0.829395 6.93063 0.841855 6.94933 0.854956 6.96744C0.872863 7.09823 0.890244 7.18795 0.906782 7.22456L0.892352 7.01461C0.899919 7.02389 0.906865 7.03377 0.914828 7.04268C0.924772 7.05385 0.939012 7.03962 0.933933 7.02793C0.920168 6.99623 0.904092 6.96493 0.886779 6.93388L0.870311 6.69438C0.892498 6.72104 0.913483 6.74898 0.93654 6.77471C0.950646 6.79044 0.970024 6.77083 0.962426 6.75421C0.962932 6.75399 0.963418 6.75379 0.963909 6.75358C0.931841 6.70788 0.898329 6.66318 0.865066 6.61831L0.851135 6.41579C0.865284 6.43436 0.878543 6.45369 0.893005 6.47199C0.910805 6.49453 0.94775 6.46537 0.932612 6.44143C0.904338 6.3967 0.873816 6.35322 0.843813 6.30944L0.829517 6.10161C0.853567 6.1317 0.876099 6.16345 0.901359 6.19218C0.914773 6.20744 0.937818 6.18796 0.928672 6.1711C0.896074 6.111 0.859861 6.05221 0.822124 5.99405L0.806092 5.76081C0.825142 5.78018 0.84479 5.79376 0.86471 5.79578C0.878231 5.79715 0.883464 5.7812 0.878816 5.77121C0.878191 5.76985 0.877554 5.76848 0.876913 5.76712C0.875529 5.76412 0.872839 5.76274 0.870011 5.76196C0.870663 5.76122 0.8713 5.76049 0.871941 5.75975C0.861479 5.74301 0.850988 5.72626 0.840498 5.70952C0.829027 5.68637 0.813782 5.66365 0.797857 5.64129L0.774835 5.30655C0.817979 5.39549 0.873871 5.49829 0.921157 5.49382C0.943308 5.49173 0.950796 5.46563 0.932316 5.45264C0.931133 5.45181 0.929966 5.45098 0.928767 5.45016C0.925397 5.44778 0.920888 5.44764 0.916659 5.44852C0.907625 5.41561 0.886316 5.36913 0.885639 5.36786C0.862155 5.32453 0.837128 5.28187 0.811144 5.23999C0.796551 5.21648 0.780788 5.19371 0.765488 5.17065L0.750105 4.94691C0.783941 4.99645 0.817722 5.04604 0.851273 5.09599C0.863951 5.11486 0.894172 5.09776 0.882052 5.07799C0.838797 5.00737 0.792691 4.93852 0.744859 4.87084L0.726707 4.607C0.757308 4.65801 0.788114 4.70886 0.817912 4.76049C0.82968 4.78086 0.860854 4.76265 0.849465 4.74205C0.808782 4.6685 0.76565 4.59652 0.721106 4.52549L0.693603 4.12555C0.727573 4.17265 0.760539 4.22072 0.796607 4.26575C0.804526 4.27564 0.817615 4.26304 0.812995 4.2531C0.775788 4.17302 0.732656 4.09448 0.686143 4.01712L0.666182 3.72685C0.703824 3.79179 0.742672 3.85574 0.787228 3.91483C0.795626 3.92596 0.817231 3.92023 0.811879 3.90444C0.774443 3.79408 0.719587 3.68624 0.656155 3.58112L0.627916 3.17071C0.671685 3.24024 0.716106 3.30929 0.76247 3.37697C0.771738 3.39049 0.791005 3.37894 0.784241 3.36424C0.736952 3.2613 0.680992 3.16093 0.620495 3.06254L0.591908 2.64677C0.645352 2.75253 0.697111 2.85935 0.747984 2.96772C0.752142 2.97658 0.762118 2.97678 0.76959 2.97274C0.792908 3.28974 0.816171 3.60668 0.83786 3.92352ZM5.31082 7.72032C5.37547 7.71896 5.44001 7.71681 5.50451 7.71445C5.52775 7.75804 5.55275 7.79999 5.57902 7.84088C5.51161 7.83573 5.44433 7.82974 5.37666 7.82602C5.35471 7.79079 5.33311 7.7554 5.31082 7.72032ZM5.46255 8.05738C5.36493 8.052 5.26716 8.04766 5.16913 8.04489C5.14961 8.01329 5.13045 7.98153 5.11039 7.95019C5.19874 7.94783 5.2869 7.9442 5.37496 7.93994C5.40286 7.98037 5.43188 8.01972 5.46255 8.05738ZM5.22901 7.58976C5.20929 7.55836 5.18933 7.52712 5.17007 7.49546C5.24501 7.49623 5.31976 7.49531 5.39456 7.49482C5.41179 7.53096 5.42948 7.56718 5.44716 7.60344C5.37453 7.59841 5.30188 7.59349 5.22901 7.58976ZM5.24041 7.72104C5.25944 7.75541 5.2792 7.78929 5.29949 7.82279C5.20644 7.81836 5.11332 7.81427 5.01997 7.81183C5.00058 7.78258 4.98175 7.75305 4.96218 7.7239C5.05508 7.72426 5.14772 7.72244 5.24041 7.72104ZM0.781931 7.31564L0.759266 7.08258C0.772474 7.10144 0.786441 7.11943 0.800898 7.13695C0.820372 7.271 0.838813 7.36349 0.855771 7.40577C0.85384 7.41239 0.85191 7.41898 0.850007 7.42561C0.833552 7.38695 0.809245 7.35053 0.781931 7.31564ZM0.843378 7.44954C0.831092 7.49253 0.81896 7.53562 0.807544 7.57892L0.791144 7.41026C0.805206 7.4243 0.81983 7.43744 0.835712 7.44808C0.83805 7.44965 0.840739 7.44994 0.843378 7.44954ZM0.783779 6.50928L0.766738 6.30252C0.773886 6.3125 0.781496 6.3221 0.788711 6.33201C0.794973 6.40441 0.801239 6.47474 0.807461 6.54023C0.799621 6.52987 0.791658 6.51961 0.783779 6.50928ZM0.816064 6.62861C0.824407 6.71192 0.83267 6.78866 0.84085 6.85712C0.830605 6.84126 0.819434 6.8257 0.808564 6.81004L0.791116 6.59834C0.799134 6.60874 0.807951 6.61831 0.816064 6.62861ZM0.75709 6.18543L0.740975 5.98999C0.747933 5.99958 0.755868 6.00813 0.762905 6.01762C0.768178 6.08514 0.773439 6.15131 0.778696 6.21479C0.771631 6.20492 0.76421 6.19526 0.75709 6.18543ZM0.730145 5.85853L0.710102 5.61524C0.718499 5.63114 0.727304 5.64704 0.736517 5.66306C0.742087 5.74086 0.74766 5.81758 0.753245 5.89172C0.745512 5.88066 0.737984 5.86953 0.730145 5.85853ZM0.700984 5.50469L0.669034 5.11698C0.680233 5.134 0.691756 5.15079 0.702653 5.168C0.711023 5.29586 0.719476 5.42131 0.727969 5.54295C0.719069 5.53012 0.709935 5.51747 0.700984 5.50469ZM0.521055 3.87261C0.529944 4.00315 0.539061 4.13529 0.548369 4.268C0.524928 4.23519 0.500237 4.20327 0.476076 4.17096L0.43383 3.73656C0.462421 3.78235 0.491962 3.82724 0.521055 3.87261ZM0.423664 3.63209L0.389057 3.27617C0.423558 3.32648 0.458248 3.37665 0.491297 3.42794C0.49839 3.53515 0.505593 3.64374 0.513065 3.75448C0.483742 3.71333 0.453873 3.67252 0.423664 3.63209ZM0.552554 4.32767C0.560054 4.43414 0.567664 4.54083 0.575382 4.64724C0.555572 4.62249 0.535474 4.59799 0.515241 4.57359L0.480997 4.22146C0.50494 4.25679 0.529224 4.29194 0.552554 4.32767ZM0.579472 4.70339C0.585291 4.78326 0.591145 4.86298 0.597042 4.94216C0.58014 4.92107 0.56253 4.90064 0.545054 4.88007L0.520106 4.62358C0.539876 4.65019 0.560054 4.67654 0.579472 4.70339ZM0.602778 5.01868C0.612671 5.15021 0.622659 5.28043 0.632698 5.40789C0.623134 5.39459 0.613977 5.38101 0.60438 5.36775C0.599922 5.3616 0.595195 5.35565 0.590709 5.34952L0.551767 4.9491C0.568887 4.97221 0.5862 4.99517 0.602778 5.01868ZM0.639209 5.48987C0.64663 5.58295 0.654062 5.6749 0.661507 5.76448C0.649877 5.74886 0.638299 5.73324 0.626532 5.7177L0.598482 5.42943C0.61188 5.4497 0.625879 5.46957 0.639209 5.48987ZM0.67197 5.88867C0.677895 5.95837 0.683793 6.02716 0.689702 6.09389C0.679378 6.08007 0.669458 6.06602 0.659062 6.05225L0.638339 5.83921C0.649387 5.85584 0.660748 5.87219 0.67197 5.88867ZM0.66121 5.02216L0.642239 4.79201C0.655625 4.81098 0.669034 4.82995 0.682325 4.84902C0.686973 4.92339 0.691649 4.9974 0.696348 5.07046C0.684703 5.05431 0.673113 5.03812 0.66121 5.02216ZM0.636721 4.72504L0.611639 4.42075C0.628027 4.44662 0.644767 4.47226 0.660882 4.49832C0.666535 4.59299 0.67227 4.68733 0.678057 4.78078C0.664225 4.76223 0.650839 4.74339 0.636721 4.72504ZM0.60597 4.35195L0.573044 3.95251C0.593427 3.98342 0.613486 4.01457 0.634383 4.04497C0.64167 4.17253 0.649086 4.30031 0.656642 4.42752C0.639929 4.40221 0.623134 4.37695 0.60597 4.35195ZM0.562637 3.82615L0.535841 3.50111C0.561426 3.5441 0.586635 3.58744 0.611243 3.63136C0.616556 3.72822 0.621991 3.82575 0.627509 3.92364C0.606366 3.89092 0.584812 3.85841 0.562637 3.82615ZM0.526273 3.38505L0.49021 2.9474C0.520782 2.9977 0.551644 3.04778 0.582573 3.09781C0.58946 3.22864 0.59658 3.36219 0.603945 3.49771C0.578918 3.4597 0.553096 3.42212 0.526273 3.38505ZM0.482354 2.85217L0.442406 2.3674C0.481852 2.43569 0.519303 2.50485 0.5556 2.57463C0.562407 2.7093 0.569567 2.849 0.577094 2.99319C0.546439 2.94564 0.514738 2.89869 0.482354 2.85217ZM0.484775 3.32893C0.450788 3.28372 0.416287 3.23915 0.381217 3.1956L0.33212 2.69079C0.374192 2.75768 0.415461 2.82507 0.456536 2.89258C0.465463 3.03231 0.474854 3.17786 0.484775 3.32893ZM0.385169 3.58131C0.345462 3.5289 0.305637 3.47698 0.265943 3.42569L0.222637 3.04412C0.268387 3.10512 0.3136 3.1665 0.357274 3.229C0.366146 3.34215 0.375454 3.45974 0.385169 3.58131ZM0.392237 3.66988C0.403621 3.81147 0.415445 3.95732 0.427687 4.106C0.395469 4.0641 0.362341 4.0229 0.32905 3.98179L0.27203 3.47939C0.312172 3.54266 0.352487 3.60594 0.392237 3.66988ZM0.431235 4.14891C0.441006 4.26733 0.451006 4.38728 0.461199 4.50795C0.433925 4.47597 0.405852 4.44482 0.378037 4.41338L0.332405 4.0113C0.365929 4.05679 0.398978 4.10262 0.431235 4.14891ZM0.464664 4.54904C0.472041 4.63611 0.479502 4.72346 0.487045 4.8108C0.463493 4.78468 0.438803 4.75955 0.41444 4.73416L0.381514 4.44404C0.409424 4.47891 0.437596 4.51363 0.464664 4.54904ZM0.492168 4.86989C0.503623 5.00199 0.515213 5.13388 0.526925 5.26435C0.506325 5.23695 0.486175 5.20921 0.465262 5.18203L0.419669 4.78033C0.444214 4.80988 0.468509 4.83962 0.492168 4.86989ZM0.533029 5.33228C0.542119 5.43303 0.551264 5.5329 0.560421 5.63121C0.543207 5.60894 0.525933 5.58681 0.50869 5.56465L0.472053 5.24178C0.492369 5.27195 0.512847 5.30201 0.533029 5.33228ZM0.570326 5.73658C0.577597 5.81364 0.584867 5.89002 0.592126 5.96469C0.577257 5.94535 0.562419 5.92599 0.547499 5.90669L0.518935 5.65494C0.536031 5.6822 0.553001 5.70943 0.570326 5.73658ZM0.601785 6.06291C0.609843 6.14463 0.617889 6.22516 0.625879 6.30293C0.612738 6.28585 0.599705 6.26869 0.586635 6.25157L0.557502 5.99493C0.572284 6.01758 0.586881 6.04034 0.601785 6.06291ZM0.634087 6.3816C0.642496 6.46228 0.650867 6.54127 0.659142 6.61638C0.647255 6.60223 0.635254 6.58841 0.623268 6.57448L0.594558 6.32148C0.607845 6.34147 0.620566 6.36177 0.634087 6.3816ZM0.667322 6.68903C0.67655 6.77114 0.685696 6.8505 0.694651 6.92407C0.681661 6.90666 0.669703 6.88852 0.656915 6.87096L0.630499 6.63818C0.642607 6.65525 0.655285 6.6719 0.667322 6.68903ZM0.691823 6.38918L0.669826 6.16302C0.679825 6.17776 0.689825 6.19249 0.699908 6.20714C0.706743 6.28237 0.713551 6.35614 0.720319 6.42639C0.710778 6.41401 0.701364 6.40155 0.691823 6.38918ZM0.728906 6.51373C0.736406 6.5895 0.743882 6.66306 0.751248 6.73138C0.741272 6.71835 0.731545 6.70522 0.721312 6.69235L0.700046 6.47361C0.709611 6.48703 0.719203 6.50042 0.728906 6.51373ZM0.7619 6.82732C0.770622 6.90429 0.779238 6.97709 0.787663 7.04123C0.775436 7.02606 0.763123 7.01091 0.75084 6.99594L0.729682 6.77842C0.740429 6.79469 0.751327 6.81081 0.7619 6.82732ZM0.890204 7.92974C0.89026 7.92974 0.890287 7.92977 0.890339 7.92977C0.890422 7.92977 0.890501 7.92978 0.890584 7.92978C0.916675 7.98383 0.948296 8.0404 0.984767 8.09479C0.93798 8.0961 0.891181 8.0973 0.844438 8.09893C0.860759 8.04324 0.875936 7.98678 0.890204 7.92974ZM1.14814 7.64461C1.18625 7.69759 1.22435 7.75068 1.26253 7.80374C1.18668 7.80461 1.11079 7.80448 1.03499 7.80601C1.0063 7.76377 0.976982 7.72215 0.946516 7.68177C0.949696 7.66652 0.95309 7.65137 0.956192 7.63609C0.958949 7.63656 0.961029 7.63787 0.964016 7.63801C1.02533 7.64097 1.08679 7.64215 1.14814 7.64461ZM0.979834 7.51632C0.984917 7.49005 0.990134 7.46383 0.995107 7.43759C1.01459 7.46392 1.03427 7.49001 1.0537 7.51641C1.02908 7.51658 1.00446 7.51625 0.979834 7.51632ZM2.19335 7.80592C2.09209 7.80522 1.99083 7.80424 1.88956 7.80385C1.85255 7.75651 1.8153 7.7094 1.77917 7.66137C1.88341 7.66356 1.9877 7.66455 2.09198 7.66622C2.1256 7.7129 2.15995 7.75908 2.19335 7.80592ZM2.14527 7.66705C2.23757 7.66846 2.32973 7.66981 2.42202 7.67107C2.44933 7.71667 2.47686 7.76236 2.50462 7.80802C2.42177 7.80737 2.33905 7.80695 2.25618 7.80635C2.22007 7.75923 2.18254 7.71325 2.14527 7.66705ZM1.82295 7.80351C1.7485 7.80331 1.67405 7.80223 1.59961 7.80236C1.56056 7.75318 1.52145 7.70403 1.4828 7.65468C1.5658 7.65704 1.64887 7.65847 1.73191 7.6603C1.76151 7.70792 1.79169 7.75577 1.82295 7.80351ZM1.53975 7.80251C1.47256 7.80273 1.40532 7.8024 1.33814 7.803C1.2951 7.75017 1.25108 7.69823 1.20679 7.64672C1.28528 7.64968 1.36385 7.65119 1.44239 7.65351C1.47438 7.70322 1.50677 7.75296 1.53975 7.80251ZM0.981764 7.80676C0.960974 7.80723 0.940156 7.8074 0.919337 7.80764C0.924855 7.78325 0.9301 7.75876 0.935385 7.73424C0.950401 7.75861 0.965214 7.78308 0.981764 7.80676ZM0.919772 7.93038C0.971761 7.93168 1.02381 7.9323 1.0758 7.93358C1.09221 7.95494 1.10877 7.97643 1.1245 7.99722C1.14708 8.02706 1.16994 8.05784 1.19334 8.08863C1.14119 8.09 1.08906 8.09188 1.03691 8.09325C0.994933 8.04098 0.956271 7.98648 0.919772 7.93038ZM1.15456 7.97404C1.14455 7.96134 1.13533 7.94771 1.12565 7.93461C1.20418 7.93639 1.28278 7.9367 1.36135 7.93784C1.39725 7.98652 1.4328 8.03555 1.46978 8.08312C1.39684 8.08443 1.32385 8.08516 1.25093 8.08693C1.2178 8.04973 1.18488 8.01248 1.15456 7.97404ZM1.44497 7.93899C1.50773 7.93975 1.57053 7.93904 1.63331 7.9395C1.66666 7.98709 1.70089 8.0339 1.73577 8.08006C1.67309 8.08081 1.61036 8.08078 1.54769 8.08177C1.51466 8.03361 1.48057 7.98593 1.44497 7.93899ZM1.70721 7.9397C1.77675 7.9401 1.84632 7.93969 1.9159 7.93986C1.94935 7.98707 1.98414 8.03294 2.01978 8.07776C1.95139 8.07833 1.88299 8.07861 1.8146 8.07934C1.7792 8.03257 1.74349 7.98596 1.70721 7.9397ZM1.99763 7.9417C1.99716 7.94111 1.99672 7.94051 1.99623 7.93992C2.09323 7.94006 2.1901 7.93994 2.28709 7.93988C2.31701 7.98469 2.34704 8.02986 2.37771 8.07494C2.28945 8.07553 2.20133 8.07638 2.11307 8.07705C2.07384 8.03211 2.03466 7.98728 1.99763 7.9417ZM2.36085 7.93987C2.43615 7.9398 2.51138 7.93992 2.58669 7.93983C2.61528 7.98476 2.64459 8.029 2.6746 8.07257C2.60335 8.07304 2.53216 8.0738 2.4609 8.07428C2.42911 8.02842 2.39521 7.98368 2.36085 7.93987ZM2.57992 7.80853C2.54592 7.7627 2.51172 7.71715 2.47738 7.67188C2.58169 7.67329 2.68588 7.67502 2.79018 7.67643C2.81835 7.72127 2.84681 7.76588 2.87528 7.81051C2.77681 7.80976 2.6784 7.80929 2.57992 7.80853ZM3.52436 7.81294C3.45119 7.81328 3.37801 7.81367 3.30512 7.8134C3.29154 7.81336 3.27794 7.8132 3.26435 7.81314C3.23454 7.7697 3.2046 7.72634 3.17612 7.68204C3.2434 7.68302 3.31074 7.68375 3.37795 7.68497C3.39831 7.68534 3.41881 7.68601 3.43919 7.68643C3.4666 7.72937 3.49484 7.77174 3.52436 7.81294ZM3.50946 7.6881C3.59893 7.69019 3.68862 7.69276 3.77841 7.69549C3.80307 7.73404 3.82841 7.77233 3.85443 7.8105C3.77135 7.81138 3.68834 7.81221 3.6055 7.81277C3.57611 7.77602 3.54691 7.73933 3.51942 7.70225C3.51598 7.69762 3.51289 7.69274 3.50946 7.6881ZM3.2091 7.81276C3.11932 7.81222 3.02952 7.8116 2.93972 7.81094C2.91035 7.76634 2.88085 7.7218 2.85122 7.67731C2.9451 7.67859 3.03892 7.68009 3.13277 7.68141C3.15738 7.72509 3.18276 7.76898 3.2091 7.81276ZM2.95671 7.93978C2.98351 7.98295 3.0105 8.02628 3.03775 8.06968C2.94648 8.07039 2.85525 8.07123 2.76398 8.07186C2.73543 8.02739 2.70548 7.98345 2.67485 7.93982C2.76883 7.93972 2.86274 7.93985 2.95671 7.93978ZM3.02601 7.93977C3.114 7.93974 3.20206 7.93955 3.28998 7.93973C3.31906 7.98306 3.34917 8.02529 3.38094 8.06551C3.33061 8.0664 3.28014 8.06756 3.22994 8.06814C3.19092 8.0686 3.15178 8.06873 3.11273 8.06908C3.08431 8.02555 3.05517 7.98257 3.02601 7.93977ZM3.35522 7.94016C3.44532 7.9406 3.53572 7.94164 3.62622 7.94286C3.66135 7.98382 3.69824 8.02226 3.737 8.05764C3.64133 8.06009 3.54576 8.0624 3.4504 8.0643C3.41888 8.02267 3.38688 7.98141 3.35522 7.94016ZM3.70652 7.94402C3.78855 7.94526 3.87068 7.94668 3.9529 7.9481C3.97919 7.98293 4.00615 8.01687 4.03371 8.04995C3.94919 8.0521 3.86472 8.05432 3.78037 8.05651C3.75838 8.01775 3.73305 7.98057 3.70652 7.94402ZM3.93682 7.80963C3.93463 7.80677 3.93226 7.80394 3.93011 7.80108C3.90409 7.76669 3.87809 7.73224 3.85215 7.69778C3.96022 7.70118 4.06852 7.70472 4.17689 7.70817C4.19424 7.74118 4.21221 7.77415 4.23091 7.80694C4.13284 7.80778 4.03474 7.80855 3.93682 7.80963ZM4.32066 7.95342C4.34032 7.98363 4.36027 8.01355 4.38104 8.04273C4.29526 8.04427 4.20948 8.0457 4.12375 8.04778C4.09861 8.01477 4.07328 7.98202 4.0473 7.94965C4.13834 7.95119 4.22952 7.95224 4.32066 7.95342ZM4.29051 7.80639C4.26988 7.77422 4.24887 7.74226 4.22873 7.70978C4.32481 7.71278 4.42096 7.71517 4.51711 7.71754C4.53468 7.74699 4.55258 7.77642 4.5706 7.80579C4.47724 7.80568 4.38388 7.8057 4.29051 7.80639ZM4.66629 7.95579C4.68486 7.98376 4.7036 8.01158 4.72291 8.0389C4.6326 8.03917 4.54222 8.03993 4.45183 8.04133C4.43065 8.0125 4.40991 7.98342 4.38919 7.95436C4.48158 7.95538 4.57395 7.95572 4.66629 7.95579ZM4.62609 7.80568C4.60506 7.77674 4.58395 7.74785 4.56316 7.71879C4.67411 7.72135 4.78505 7.72306 4.89588 7.72393C4.91335 7.7528 4.93118 7.78128 4.94904 7.80987C4.8415 7.80758 4.73385 7.80605 4.62609 7.80568ZM5.04168 7.952C5.06225 7.98275 5.08248 8.0137 5.10376 8.04386C5.00028 8.04151 4.8968 8.03909 4.79304 8.03898C4.77355 8.01122 4.75396 7.98352 4.73409 7.95596C4.83676 7.95569 4.93927 7.9542 5.04168 7.952ZM4.86199 7.57524C4.84239 7.54623 4.82283 7.51717 4.80334 7.48813C4.91024 7.4915 5.01705 7.49368 5.12379 7.49511C5.13865 7.5257 5.15398 7.55623 5.16947 7.58679C5.06712 7.58203 4.96464 7.57801 4.86199 7.57524ZM4.80682 7.57342C4.69118 7.57064 4.57543 7.56878 4.45968 7.56757C4.44408 7.54425 4.42743 7.52148 4.41238 7.49786C4.4049 7.48611 4.38642 7.49673 4.39362 7.50883C4.40509 7.52813 4.41665 7.5478 4.42819 7.56732C4.33133 7.5664 4.23447 7.56543 4.13772 7.56496C4.11753 7.5326 4.09778 7.49995 4.07699 7.46795C4.072 7.46026 4.06146 7.4669 4.06498 7.47497C4.07785 7.50455 4.09179 7.53467 4.10589 7.56481C3.98686 7.56426 3.8679 7.56377 3.74927 7.56293C3.71712 7.52102 3.68475 7.47929 3.65176 7.43806C4.01803 7.45309 4.38729 7.4744 4.75616 7.48682C4.77277 7.51583 4.79 7.54445 4.80682 7.57342ZM3.69549 7.5625C3.60308 7.56174 3.5108 7.56076 3.4188 7.55918C3.38745 7.51518 3.35606 7.47122 3.32558 7.42663C3.36743 7.42794 3.40935 7.42881 3.45119 7.43021C3.50745 7.43209 3.56398 7.43458 3.6204 7.43683C3.64455 7.4779 3.6697 7.51997 3.69549 7.5625ZM3.36007 7.55822C3.27212 7.55648 3.18408 7.55435 3.09607 7.55236C3.08457 7.53342 3.07248 7.51487 3.06117 7.4958C3.05203 7.4804 3.02837 7.49418 3.03714 7.50985C3.04473 7.52344 3.05261 7.53768 3.0603 7.55157C2.96046 7.54929 2.86066 7.54723 2.76081 7.54492C2.72929 7.49896 2.69784 7.45294 2.66529 7.40779C2.87099 7.41316 3.07651 7.41911 3.28202 7.42539C3.30743 7.46906 3.33338 7.51341 3.36007 7.55822ZM2.70945 7.54379C2.59798 7.5412 2.48662 7.53892 2.37515 7.53637C2.34403 7.49477 2.31334 7.45324 2.2837 7.41177C2.2773 7.40282 2.26256 7.41096 2.26868 7.42055C2.29279 7.45831 2.3166 7.49674 2.34032 7.53559C2.2376 7.53326 2.135 7.53084 2.03227 7.52876C1.99237 7.48107 1.95244 7.43341 1.91198 7.3862C2.15022 7.39422 2.38859 7.40045 2.62691 7.40669C2.65347 7.45289 2.68174 7.49819 2.70945 7.54379ZM1.9916 7.52792C1.88663 7.52586 1.78164 7.52289 1.67667 7.52147C1.65343 7.48947 1.62942 7.45801 1.60656 7.42576C1.60083 7.41769 1.58768 7.42493 1.59303 7.43367C1.61046 7.46214 1.62842 7.49167 1.64634 7.52109C1.55734 7.51995 1.46832 7.51832 1.37934 7.51784C1.34987 7.4788 1.31937 7.44028 1.29096 7.40068C1.28775 7.39622 1.28037 7.40029 1.28346 7.40507C1.30735 7.44223 1.33134 7.47992 1.35546 7.51773C1.26819 7.51734 1.18085 7.51597 1.0936 7.51644C1.06221 7.48071 1.03125 7.44549 1.00026 7.4102C1.00468 7.38673 1.00908 7.36332 1.01346 7.33991C1.02045 7.34327 1.0284 7.34565 1.03769 7.34624C1.32072 7.36424 1.60438 7.3757 1.88818 7.3854C1.92334 7.43241 1.95694 7.48055 1.9916 7.52792ZM0.712981 2.18735C0.713076 2.18754 0.713306 2.18733 0.713416 2.1875C0.73058 2.43535 0.748324 2.68315 0.766548 2.93092C0.714868 2.80451 0.653952 2.68167 0.586105 2.56249L0.550244 2.04102C0.596501 2.13458 0.644656 2.22702 0.698915 2.31464C0.705576 2.32541 0.720185 2.31603 0.715426 2.30499C0.666289 2.19051 0.606635 2.07924 0.545284 1.96899L0.534374 1.81044C0.59624 1.93513 0.648762 2.06336 0.712981 2.18735ZM0.488525 1.18057C0.493445 1.289 0.502005 1.47529 0.513556 1.71788C0.506681 1.70609 0.499802 1.69387 0.492982 1.68222C0.485344 1.66918 0.465151 1.68093 0.472706 1.69407C0.488267 1.72114 0.502156 1.74882 0.51634 1.7764C0.518706 1.8259 0.521166 1.87697 0.523745 1.93047C0.483101 1.85797 0.442216 1.78572 0.403297 1.71344C0.399832 1.707 0.390291 1.71268 0.393539 1.71915C0.438791 1.80924 0.482136 1.90176 0.526819 1.99363C0.534425 2.15063 0.542879 2.32183 0.552091 2.50493C0.51562 2.44328 0.477924 2.38243 0.438708 2.32263L0.378551 1.59268C0.414278 1.45521 0.450436 1.31773 0.488525 1.18057ZM0.376988 1.59859C0.384164 1.72084 0.398812 1.9676 0.41891 2.29329C0.390319 2.25031 0.361906 2.20715 0.332393 2.1651C0.327947 2.15877 0.317524 2.16461 0.321875 2.17124C0.356795 2.22446 0.389326 2.27856 0.421354 2.33288C0.43031 2.47782 0.440258 2.6367 0.451101 2.8073C0.410362 2.74992 0.368796 2.69346 0.326958 2.63763L0.268906 2.04079C0.303232 1.89299 0.338888 1.74544 0.376988 1.59859ZM0.267276 2.04772C0.275333 2.15713 0.290036 2.35517 0.309795 2.61476C0.274641 2.56807 0.239432 2.52171 0.204496 2.47607C0.200529 2.47088 0.191613 2.47567 0.195486 2.48133C0.236157 2.54069 0.274859 2.60134 0.313394 2.6621C0.324782 2.81124 0.337678 2.97846 0.351823 3.1593C0.306547 3.10383 0.261485 3.04998 0.217376 2.99766L0.1646 2.53261C0.196031 2.37009 0.230042 2.20834 0.267276 2.04772ZM0.571307 7.24028C0.579365 7.23727 0.579108 7.22324 0.569104 7.22405C0.548001 7.22577 0.534046 7.23261 0.524766 7.24218C0.438518 6.57671 0.334592 5.91244 0.269558 5.24461C0.191123 4.43919 0.163691 3.62495 0.0689617 2.82095C0.0874146 2.82791 0.109321 2.82246 0.113521 2.79759C0.127896 2.71257 0.146064 2.62891 0.16229 2.54456C0.171503 2.64663 0.184983 2.79527 0.201941 2.97932C0.198464 2.97519 0.194821 2.97084 0.191356 2.96673C0.183812 2.95779 0.167725 2.96994 0.174952 2.97938C0.185525 2.99314 0.195351 3.00743 0.205814 3.02127C0.216237 3.13408 0.227771 3.2583 0.24037 3.39257C0.212214 3.35621 0.184248 3.32008 0.156772 3.28423C0.153129 3.27949 0.144976 3.28386 0.148509 3.28906C0.181368 3.33737 0.212744 3.38747 0.244555 3.43704C0.259218 3.59297 0.275076 3.76029 0.292006 3.93631C0.271081 3.91092 0.250955 3.88491 0.229662 3.8598C0.225991 3.85547 0.220121 3.86164 0.223519 3.86595C0.247897 3.89698 0.27063 3.92901 0.294316 3.96046C0.306859 4.09078 0.319917 4.22524 0.333398 4.36261C0.326713 4.3552 0.320297 4.34751 0.313612 4.34012C0.308284 4.33425 0.300036 4.34281 0.304996 4.34873C0.31557 4.36133 0.325352 4.37441 0.335787 4.38709C0.345423 4.48506 0.355248 4.58425 0.365236 4.68434C0.337041 4.65605 0.310119 4.62662 0.281069 4.59909C0.274139 4.59253 0.264123 4.60257 0.270618 4.60954C0.30417 4.64567 0.336578 4.68281 0.368808 4.72009C0.381692 4.84894 0.394844 4.97894 0.408174 5.10894C0.376881 5.06889 0.345708 5.02874 0.31413 4.98893C0.310487 4.98432 0.302552 4.99039 0.305934 4.99524C0.342365 5.04755 0.376909 5.10114 0.412783 5.15383C0.424195 5.26477 0.435705 5.37562 0.447295 5.48558C0.405038 5.4312 0.3631 5.37697 0.322674 5.32278C0.318437 5.3171 0.308857 5.32225 0.312904 5.32849C0.360505 5.40163 0.40732 5.47674 0.454336 5.55233C0.463996 5.6435 0.473687 5.73405 0.483386 5.8234C0.438273 5.76521 0.393214 5.7071 0.348943 5.6488C0.343682 5.64187 0.331875 5.64817 0.33693 5.65583C0.388582 5.73418 0.4397 5.81342 0.490941 5.8927C0.501052 5.98523 0.511162 6.07664 0.521233 6.16598C0.472271 6.10082 0.4241 6.03507 0.377479 5.96818C0.374651 5.9641 0.368021 5.9678 0.370727 5.97213C0.421968 6.05402 0.474173 6.13666 0.527254 6.21908C0.538203 6.31561 0.549089 6.41016 0.55988 6.50146C0.529303 6.46666 0.499015 6.43234 0.470127 6.39913C0.466306 6.39472 0.458316 6.40072 0.461947 6.40545C0.497725 6.45221 0.530921 6.5008 0.565465 6.5484C0.57503 6.62864 0.584515 6.70724 0.593862 6.78225C0.569377 6.7474 0.543749 6.71337 0.519861 6.6781C0.513651 6.66893 0.499015 6.67716 0.504829 6.68688C0.535624 6.73815 0.56878 6.78795 0.600848 6.83842C0.613798 6.94113 0.626504 7.03817 0.638869 7.12817C0.598811 7.0726 0.558262 7.01737 0.520213 6.96037C0.509137 6.94375 0.482643 6.95877 0.493184 6.97617C0.543776 7.05966 0.596987 7.14145 0.652049 7.22204C0.66708 7.32729 0.681566 7.42235 0.695248 7.50253C0.659454 7.45891 0.486867 7.2719 0.571307 7.24028ZM0.695126 7.2077L0.664648 6.93913C0.670692 6.94825 0.676103 6.95776 0.682191 6.96683C0.689362 6.9775 0.69666 6.98883 0.703875 6.9999C0.716161 7.09761 0.728131 7.18611 0.73967 7.26362C0.724789 7.24562 0.710181 7.22782 0.696811 7.21008C0.696214 7.20931 0.695695 7.20848 0.695126 7.2077ZM0.705889 7.30258C0.721731 7.32591 0.738732 7.34886 0.756544 7.37095C0.773992 7.47519 0.790218 7.54862 0.805004 7.58827C0.801361 7.60218 0.798319 7.61615 0.794783 7.63007C0.776208 7.60215 0.755678 7.57522 0.733879 7.54928L0.705889 7.30258ZM0.759713 7.77687L0.741054 7.61249C0.755488 7.63026 0.7708 7.64688 0.786864 7.6625C0.777446 7.70063 0.768122 7.73871 0.759713 7.77687ZM0.787366 8.27675C0.794079 8.25793 0.799771 8.23838 0.806144 8.2193C0.809731 8.21994 0.812666 8.22147 0.816661 8.22154C0.90681 8.22312 0.997065 8.22269 1.08728 8.22295C1.12463 8.26134 1.16475 8.29488 1.20801 8.31883C1.2175 8.32409 1.23143 8.31277 1.22408 8.30277C1.20318 8.27434 1.17857 8.2488 1.15388 8.2233C1.20474 8.22334 1.25556 8.22419 1.30644 8.22409C1.34026 8.26048 1.37541 8.29513 1.41435 8.32396C1.42326 8.33057 1.43472 8.31784 1.42921 8.30909C1.41084 8.27988 1.39031 8.25185 1.36873 8.22442C1.44084 8.22414 1.513 8.22299 1.58512 8.22229C1.6082 8.2497 1.62994 8.27848 1.65375 8.30512C1.66516 8.31789 1.68503 8.30155 1.67697 8.2872C1.66459 8.26513 1.65084 8.24356 1.63769 8.22178C1.70707 8.22102 1.77645 8.21932 1.84585 8.2183C1.88962 8.27068 1.93498 8.32105 1.98168 8.36962C1.58156 8.36735 1.18263 8.34697 0.787366 8.27675ZM2.02003 8.36956C1.98608 8.31809 1.95052 8.26752 1.91459 8.21715C1.98865 8.21598 2.06271 8.21447 2.13677 8.21315C2.18837 8.26838 2.24158 8.32084 2.29815 8.36647C2.29974 8.36775 2.30165 8.36765 2.30343 8.3683C2.20892 8.36947 2.11446 8.36983 2.02003 8.36956ZM5.44884 8.33709C4.67653 8.33804 3.9041 8.351 3.13179 8.35561C2.86041 8.35724 2.58848 8.36458 2.31675 8.3681C2.32486 8.36458 2.33034 8.35641 2.3241 8.34645C2.29479 8.29961 2.26113 8.2552 2.22618 8.21154C2.30944 8.21002 2.39259 8.20885 2.47584 8.2073C2.50306 8.24021 2.53157 8.27169 2.56261 8.30011C2.56963 8.30656 2.58403 8.30036 2.58004 8.28996C2.56909 8.26142 2.55573 8.23365 2.54144 8.20619C2.6173 8.20479 2.6931 8.20373 2.76897 8.20233C2.80425 8.24811 2.84039 8.29293 2.87865 8.33527C2.89119 8.34913 2.91067 8.33151 2.90325 8.3163C2.8843 8.27746 2.86381 8.2391 2.84227 8.20109C2.9357 8.1994 3.02911 8.19784 3.12251 8.19634C3.15314 8.23889 3.18508 8.28029 3.2207 8.31828C3.22936 8.32751 3.2486 8.31791 3.24323 8.30516C3.22739 8.26755 3.20899 8.23107 3.18922 8.1952C3.2033 8.195 3.2174 8.19467 3.23148 8.19449C3.31911 8.19338 3.40709 8.19296 3.49514 8.19267C3.51087 8.20813 3.52631 8.22413 3.54278 8.23836C3.55153 8.24594 3.56515 8.23648 3.55917 8.22572C3.55284 8.21432 3.54509 8.2036 3.53827 8.19243C3.74634 8.192 3.95538 8.19294 4.16457 8.19283C4.18638 8.2144 4.20813 8.23608 4.23065 8.25591C4.2423 8.26616 4.26039 8.25331 4.25251 8.23904C4.24375 8.22321 4.23303 8.20824 4.22349 8.19275C4.31461 8.19258 4.40573 8.19174 4.49682 8.1908C4.53545 8.23616 4.57503 8.27988 4.61651 8.31936C4.62533 8.32775 4.63999 8.31705 4.63359 8.3062C4.61027 8.26666 4.58499 8.22828 4.55888 8.19036C4.65082 8.18917 4.74271 8.18741 4.83449 8.18487C4.87104 8.22938 4.90857 8.27277 4.94853 8.31325C4.95651 8.32133 4.96999 8.31099 4.96423 8.30113C4.94072 8.26086 4.91428 8.22213 4.88887 8.18285C4.99228 8.17962 5.09539 8.17449 5.19837 8.16886C5.22187 8.19934 5.24359 8.23143 5.26808 8.26096C5.27779 8.27264 5.29556 8.2577 5.28858 8.24515C5.27384 8.21866 5.25719 8.19312 5.2419 8.1669C5.34097 8.16108 5.43949 8.1523 5.53799 8.14353C5.53848 8.14404 5.53892 8.14462 5.53941 8.14514C5.54459 8.15058 5.5513 8.14752 5.55402 8.14226C5.58458 8.13948 5.61543 8.13817 5.6459 8.13501C5.68831 8.13062 5.68767 8.07229 5.6451 8.06892C5.6014 8.06547 5.5575 8.06329 5.51367 8.06061C5.49095 8.01898 5.46853 7.97721 5.44423 7.93637C5.50832 7.93282 5.57213 7.92786 5.63598 7.92305C5.64274 7.92743 5.65116 7.92673 5.65619 7.92164C5.67716 7.92001 5.69826 7.91912 5.7192 7.91727C5.76166 7.91352 5.76192 7.85521 5.7194 7.85119C5.69108 7.84851 5.66251 7.84729 5.63412 7.84492C5.61662 7.79997 5.59757 7.75548 5.57583 7.71168C5.6482 7.70849 5.72046 7.70475 5.79251 7.69952C5.83502 7.69643 5.83617 7.63813 5.79373 7.63345C5.70379 7.62355 5.61349 7.61547 5.52297 7.60851C5.50199 7.57027 5.48038 7.53239 5.4588 7.49464C5.59485 7.49298 5.73066 7.48953 5.86581 7.48177C5.90837 7.47933 5.91041 7.42104 5.86804 7.41572C5.70937 7.39579 5.54944 7.3818 5.38908 7.37003C5.38276 7.35855 5.37594 7.34698 5.3698 7.33552C5.35521 7.30828 5.31455 7.33234 5.32849 7.35965C5.3296 7.36181 5.33063 7.36413 5.33173 7.36629C5.25024 7.36069 5.16885 7.35451 5.0871 7.35031C5.07487 7.32834 5.06136 7.30705 5.04965 7.28479C5.04254 7.27127 5.02304 7.28314 5.02937 7.29664C5.0374 7.31373 5.04565 7.33119 5.05378 7.34847C4.93678 7.34272 4.81966 7.33778 4.70238 7.33412C4.68227 7.30327 4.66145 7.27271 4.64177 7.24168C4.63431 7.2299 4.61605 7.24042 4.62299 7.25265C4.6381 7.2792 4.65349 7.30618 4.66862 7.33288C4.26307 7.32071 3.85679 7.31768 3.45546 7.30393C2.65169 7.27636 1.846 7.22789 1.0418 7.22456C1.03923 7.22454 1.03742 7.22562 1.03502 7.22585C1.04924 7.15044 1.06377 7.07585 1.07883 7.00229C1.87964 7.09246 2.69822 7.05883 3.50332 7.07687C4.30263 7.09477 5.10626 7.1614 5.90521 7.15437C5.90747 7.24854 5.91034 7.34269 5.91253 7.43687C5.91508 7.54801 6.08757 7.54849 6.08556 7.43687C6.06336 6.20332 6.02586 4.96988 5.9721 3.73731C5.92364 2.62609 5.96661 1.42626 5.75049 0.330696C5.94375 0.185521 6.49915 0.213915 6.67903 0.20043C7.01241 0.175446 7.34699 0.16208 7.6813 0.160439C8.40845 0.156871 9.13153 0.212103 9.85088 0.315839C10.2279 2.69429 9.94349 5.13112 10.2423 7.51476C10.2539 7.60704 10.3769 7.61681 10.3965 7.53202C11.1497 7.6203 11.9059 7.66883 12.6642 7.67973C12.9771 7.68423 13.2951 7.68881 13.6134 7.68498C13.6262 7.70841 13.6401 7.73062 13.6532 7.75368C13.3037 7.76784 12.9539 7.77979 12.6033 7.77585C12.527 7.775 12.4508 7.77225 12.3745 7.7706C12.3612 7.74685 12.3464 7.72411 12.3337 7.69996C12.33 7.69295 12.3199 7.6991 12.3231 7.70611C12.333 7.7272 12.3433 7.74876 12.3533 7.77012C12.2458 7.7677 12.1384 7.76611 12.031 7.76272C12.0135 7.73491 11.9962 7.70706 11.9796 7.67901C11.9707 7.66404 11.9481 7.67731 11.9563 7.69262C11.9683 7.71525 11.9804 7.73835 11.9925 7.76138C11.8743 7.75753 11.7561 7.75367 11.638 7.74903C11.6168 7.71997 11.5955 7.69092 11.5749 7.66184C11.5647 7.64744 11.5409 7.66075 11.5509 7.67589C11.5664 7.69944 11.5816 7.72353 11.597 7.74744C11.5063 7.7438 11.4155 7.7409 11.3248 7.73687C11.3167 7.72261 11.308 7.70877 11.3 7.69444C11.2934 7.68265 11.2759 7.69306 11.282 7.70498C11.2871 7.71498 11.2924 7.72555 11.2976 7.73569C11.1775 7.7303 11.0574 7.72615 10.9374 7.72003C10.9329 7.71335 10.9283 7.7066 10.9239 7.69992C10.9211 7.69573 10.9146 7.69944 10.9171 7.70387C10.92 7.70901 10.9228 7.71432 10.9257 7.71949C10.7444 7.71021 10.5632 7.70016 10.382 7.68969C10.3707 7.63324 10.2828 7.62326 10.2666 7.68524C10.2659 7.6877 10.2654 7.69019 10.2648 7.69265C9.54108 7.62776 8.81634 7.57495 8.09017 7.5476C7.43132 7.52278 6.69216 7.42763 6.0447 7.57233C6.02733 7.50736 5.92258 7.49464 5.89247 7.5727C5.80999 7.78659 5.73273 8.0026 5.64461 8.21429C5.61098 8.29506 5.57079 8.3759 5.53424 8.45801C5.54903 8.40424 5.52117 8.33701 5.44884 8.33709ZM13.9931 8.18186C14.0696 8.17886 14.146 8.1749 14.2223 8.17029C14.2396 8.19674 14.2577 8.22245 14.2773 8.2464C14.2001 8.24866 14.1229 8.25076 14.0456 8.25341C14.028 8.22964 14.0106 8.20573 13.9931 8.18186ZM14.0002 8.25503C13.8902 8.25891 13.7802 8.26253 13.6701 8.26678C13.6536 8.24174 13.6369 8.2168 13.62 8.19202C13.7276 8.19059 13.8352 8.18792 13.9426 8.18417C13.9616 8.20785 13.9802 8.23196 14.0002 8.25503ZM14.221 8.07898C14.2109 8.06303 14.2008 8.04711 14.1913 8.03082C14.1839 8.01808 14.1775 8.00487 14.1703 7.99202C14.224 7.98907 14.2774 7.98433 14.3309 7.98051C14.3428 8.01257 14.3555 8.04426 14.3685 8.07578C14.3194 8.07717 14.2702 8.0774 14.221 8.07898ZM14.1208 7.90055C14.109 7.87728 14.0983 7.85349 14.0871 7.8299C14.1491 7.82696 14.2107 7.82177 14.2725 7.81774C14.2815 7.84353 14.2909 7.86921 14.3001 7.89506C14.2403 7.89689 14.1806 7.89849 14.1208 7.90055ZM14.1251 7.99475C14.1389 8.02385 14.1536 8.05248 14.1689 8.08073C14.0879 8.08344 14.0068 8.08586 13.9258 8.08889C13.9058 8.06108 13.886 8.03315 13.8664 8.0051C13.9528 8.00262 14.039 7.9991 14.1251 7.99475ZM13.8026 7.91174C13.7868 7.88839 13.7707 7.86522 13.7553 7.84163C13.8549 7.83955 13.9544 7.83612 14.0537 7.83171C14.0633 7.85487 14.0731 7.87828 14.0832 7.90187C13.9897 7.90517 13.8961 7.90818 13.8026 7.91174ZM13.8108 8.00687C13.8301 8.03513 13.8495 8.06344 13.8697 8.09097C13.7662 8.0949 13.6627 8.09857 13.5592 8.10252C13.5388 8.07258 13.519 8.04209 13.4991 8.01175C13.603 8.01104 13.707 8.00944 13.8108 8.00687ZM10.4121 7.73739C10.5937 7.75204 10.7755 7.76549 10.9575 7.77718C10.9827 7.82335 11.008 7.86992 11.0332 7.91694C10.9172 7.91409 10.801 7.91148 10.685 7.90866C10.6627 7.88025 10.6406 7.8519 10.6189 7.82362C10.6143 7.81758 10.6039 7.82313 10.6084 7.82976C10.6258 7.85537 10.6425 7.88202 10.6596 7.90806C10.5627 7.90571 10.4657 7.9033 10.3688 7.9011C10.3699 7.89333 10.3714 7.88561 10.3723 7.87783C10.4339 7.86435 10.4473 7.78618 10.4121 7.73739ZM13.1301 7.93523C13.1105 7.90496 13.0913 7.87469 13.072 7.84443C13.1699 7.84521 13.2681 7.84551 13.3664 7.84547C13.3795 7.87215 13.393 7.89907 13.4067 7.92628C13.3145 7.92945 13.2223 7.93282 13.1301 7.93523ZM13.4516 8.01188C13.4684 8.04303 13.4858 8.07392 13.504 8.10453C13.4176 8.10778 13.3313 8.11113 13.2449 8.11395C13.2233 8.08004 13.2015 8.04631 13.1797 8.01259C13.2702 8.01294 13.3609 8.01231 13.4516 8.01188ZM13.0979 7.93599C13.0132 7.93808 12.9285 7.94101 12.8437 7.94201C12.8299 7.91938 12.8156 7.8967 12.8023 7.87407C12.7918 7.85622 12.7643 7.87224 12.7745 7.89031C12.7841 7.90734 12.7934 7.92523 12.8029 7.94252C12.7342 7.94316 12.6655 7.94552 12.5967 7.94514C12.5561 7.94492 12.5155 7.94389 12.475 7.94336C12.4528 7.90787 12.4329 7.87088 12.4117 7.83476C12.4934 7.83661 12.575 7.83982 12.6567 7.84056C12.7853 7.84175 12.9149 7.84311 13.0449 7.84421C13.0626 7.8747 13.0803 7.90524 13.0979 7.93599ZM12.4364 7.9428C12.3394 7.9414 12.2424 7.94012 12.1454 7.93856C12.1206 7.90133 12.0961 7.86405 12.0719 7.82671C12.1757 7.83027 12.2797 7.83161 12.3836 7.83409C12.4008 7.87019 12.4184 7.90647 12.4364 7.9428ZM12.0854 7.93768C11.9817 7.9359 11.8779 7.93528 11.7742 7.93314C11.7439 7.89264 11.7139 7.85221 11.684 7.81188C11.7979 7.8169 11.9119 7.82088 12.0258 7.82495C12.0454 7.8624 12.0653 7.89997 12.0854 7.93768ZM11.1109 7.97505C11.2161 7.97884 11.3213 7.98131 11.4265 7.98465C11.452 8.03222 11.4784 8.07956 11.5059 8.12662C11.4084 8.12639 11.3108 8.12614 11.2133 8.12603C11.1794 8.07537 11.1452 8.02505 11.1109 7.97505ZM11.1462 8.12595C11.049 8.1259 10.9517 8.12535 10.8544 8.12559C10.8121 8.07052 10.7693 8.01605 10.7268 7.96193C10.839 7.96659 10.9513 7.96932 11.0636 7.97344C11.0908 8.02426 11.1184 8.07513 11.1462 8.12595ZM11.475 7.98613C11.5673 7.989 11.6596 7.99101 11.7519 7.99353C11.7798 8.03821 11.8079 8.08278 11.8363 8.12729C11.7463 8.12704 11.6563 8.12697 11.5663 8.12674C11.5348 8.08052 11.5049 8.03331 11.475 7.98613ZM11.7135 7.93188C11.621 7.92993 11.5285 7.92825 11.436 7.92611C11.4099 7.88387 11.3855 7.84062 11.3605 7.79772C11.4526 7.80251 11.5448 7.80565 11.637 7.80982C11.6625 7.85027 11.688 7.89098 11.7135 7.93188ZM11.3947 7.92518C11.2871 7.92267 11.1793 7.9205 11.0717 7.91786C11.0395 7.87107 11.0078 7.82457 10.9765 7.77824C11.0936 7.7857 11.211 7.78988 11.3283 7.79609C11.3499 7.83854 11.3719 7.88156 11.3947 7.92518ZM10.6939 7.96052C10.7294 8.01543 10.7652 8.07017 10.8006 8.12564C10.6997 8.12598 10.5988 8.12498 10.4979 8.1259C10.4671 8.07251 10.4366 8.01895 10.4077 7.96444C10.4031 7.95585 10.3912 7.9634 10.3949 7.9719C10.4163 8.02135 10.4388 8.07342 10.462 8.12615C10.4208 8.12656 10.3795 8.12645 10.3383 8.12698C10.3318 8.12706 10.3272 8.12989 10.3237 8.13342C10.3394 8.07168 10.3519 8.00918 10.3621 7.94635C10.4726 7.95145 10.5833 7.95587 10.6939 7.96052ZM10.3383 8.1722C10.3865 8.17274 10.4348 8.17338 10.4831 8.17395C10.5069 8.22678 10.5325 8.27989 10.5592 8.33246C10.4974 8.33486 10.4355 8.33627 10.3737 8.33912C10.35 8.29659 10.3262 8.2542 10.3017 8.21219C10.3072 8.19291 10.3131 8.1738 10.3182 8.15438C10.3201 8.16364 10.326 8.17207 10.3383 8.1722ZM10.5258 8.17447C10.6286 8.1757 10.7315 8.17688 10.8343 8.17817C10.8653 8.22645 10.8974 8.27376 10.9294 8.32127C10.8265 8.32406 10.7237 8.3265 10.6208 8.33026C10.5884 8.27871 10.5567 8.22684 10.5258 8.17447ZM10.8949 8.1789C10.989 8.18008 11.0831 8.18098 11.1772 8.18213C11.202 8.22676 11.2273 8.27108 11.2532 8.31495C11.1678 8.3166 11.0824 8.31714 10.9971 8.3193C10.964 8.27193 10.9299 8.22518 10.8949 8.1789ZM11.2512 8.18298C11.3478 8.18414 11.4444 8.18495 11.541 8.18601C11.567 8.22853 11.5942 8.26997 11.6223 8.31049C11.5263 8.31183 11.4303 8.31188 11.3343 8.31357C11.3073 8.26977 11.2796 8.22621 11.2512 8.18298ZM11.6089 8.18673C11.6977 8.18767 11.7867 8.18752 11.8755 8.18833C11.9014 8.22821 11.9277 8.26778 11.9544 8.30693C11.8699 8.308 11.7853 8.30855 11.7008 8.30965C11.6694 8.26884 11.6388 8.22787 11.6089 8.18673ZM11.9177 8.12746C11.8856 8.08316 11.8532 8.03918 11.8206 7.99536C11.9203 7.99796 12.0201 8.00004 12.1199 8.00215C12.1431 8.04451 12.1671 8.08644 12.1916 8.12801C12.1003 8.12777 12.0089 8.1277 11.9177 8.12746ZM12.2292 8.19045C12.2531 8.22879 12.2776 8.26655 12.3033 8.30319C12.2161 8.30421 12.1288 8.30492 12.0416 8.30599C12.0154 8.26666 11.9886 8.2276 11.9611 8.18884C12.0505 8.18958 12.1399 8.18973 12.2292 8.19045ZM12.2704 8.12817C12.2435 8.08651 12.2162 8.04504 12.1887 8.0037C12.2822 8.00551 12.3757 8.00619 12.4692 8.00726C12.4901 8.048 12.5116 8.08843 12.5337 8.1287C12.4459 8.1286 12.3582 8.12838 12.2704 8.12817ZM12.5689 8.19249C12.5897 8.22859 12.6114 8.26408 12.6335 8.29917C12.6168 8.29931 12.6001 8.30009 12.5834 8.30018C12.5147 8.30056 12.446 8.30166 12.3773 8.30239C12.3557 8.26496 12.3334 8.22778 12.3103 8.19094C12.3965 8.19155 12.4827 8.19217 12.5689 8.19249ZM12.595 8.12874C12.5685 8.0887 12.5427 8.04827 12.5167 8.00787C12.5609 8.00829 12.6051 8.00937 12.6493 8.00955C12.7126 8.00981 12.7763 8.01027 12.84 8.01069C12.8603 8.0483 12.8809 8.08563 12.9012 8.12363C12.7991 8.12559 12.6971 8.12871 12.595 8.12874ZM12.6418 8.19293C12.7404 8.19282 12.8394 8.19315 12.9388 8.19354C12.9565 8.22625 12.9749 8.25827 12.9932 8.29059C12.8973 8.29314 12.8015 8.29646 12.7056 8.29771C12.6826 8.26279 12.6599 8.22775 12.6368 8.1929C12.6385 8.1929 12.6402 8.19293 12.6418 8.19293ZM12.9543 8.12274C12.9312 8.08542 12.9086 8.04804 12.8857 8.01096C12.9709 8.01155 13.0563 8.0121 13.142 8.0125C13.1615 8.0468 13.1812 8.08106 13.201 8.11528C13.1188 8.11786 13.0366 8.12094 12.9543 8.12274ZM13.2476 8.19441C13.2647 8.22337 13.2822 8.25202 13.2998 8.28065C13.2177 8.28355 13.1355 8.28673 13.0534 8.28909C13.035 8.25725 13.0172 8.22525 12.9981 8.19375C13.0811 8.19408 13.1643 8.19433 13.2476 8.19441ZM13.2947 8.19434C13.3828 8.19433 13.4711 8.19335 13.5593 8.19245C13.5768 8.21864 13.595 8.24418 13.614 8.26891C13.5248 8.27234 13.4356 8.27583 13.3464 8.27905C13.3295 8.25066 13.3122 8.22248 13.2947 8.19434ZM13.4446 7.92505C13.4288 7.89894 13.4135 7.87233 13.3987 7.84541C13.5006 7.84523 13.6026 7.84397 13.7045 7.84217C13.719 7.86626 13.734 7.89009 13.7489 7.91373C13.6475 7.91759 13.5461 7.92148 13.4446 7.92505ZM5.60618 8.73094C5.65027 8.66802 5.68577 8.59813 5.71696 8.52599C5.72033 8.52671 5.72416 8.52663 5.72698 8.52281C5.76465 8.47198 5.78952 8.41041 5.81868 8.35268C5.83631 8.39911 5.85616 8.44735 5.87832 8.4951C5.82818 8.55871 5.77713 8.62312 5.73965 8.69265C5.73354 8.704 5.74791 8.71519 5.7574 8.70635C5.80933 8.65801 5.85661 8.60161 5.90103 8.54165C5.92205 8.58323 5.9459 8.62284 5.9712 8.66078C5.95487 8.68316 5.94038 8.70623 5.92776 8.72985C5.82053 8.72979 5.71334 8.73012 5.60618 8.73094ZM5.93821 8.41738C5.92834 8.43071 5.91784 8.444 5.90752 8.45729C5.8829 8.41084 5.85983 8.36362 5.83877 8.31533C5.84008 8.31304 5.84118 8.31055 5.84254 8.30829C5.87994 8.24591 5.92119 8.18604 5.96152 8.12557C5.98529 8.17638 6.01044 8.22911 6.03729 8.28189C6.00428 8.32706 5.97145 8.37239 5.93821 8.41738ZM6.05218 8.31022C6.07852 8.36076 6.1073 8.41028 6.13739 8.45869C6.12281 8.47626 6.10796 8.49361 6.0935 8.51128C6.06583 8.5451 6.03485 8.5798 6.00544 8.61569C5.99259 8.59842 5.97982 8.58112 5.96832 8.56317C5.95505 8.54243 5.94383 8.5207 5.93171 8.49941C5.97441 8.4382 6.01425 8.37409 6.05218 8.31022ZM5.97069 8.7297C5.97998 8.72013 5.98915 8.71037 5.998 8.70016C6.00591 8.71071 6.01498 8.71955 6.0233 8.72952C6.00576 8.72947 5.98823 8.72973 5.97069 8.7297ZM6.08858 8.72978C6.0711 8.70472 6.05415 8.67938 6.03519 8.65504C6.06178 8.62014 6.08695 8.584 6.11225 8.55073C6.12755 8.5306 6.14217 8.50991 6.15726 8.4896C6.18514 8.53237 6.21463 8.57345 6.24607 8.61163C6.21278 8.65012 6.1821 8.69021 6.15149 8.73035C6.13054 8.73023 6.10955 8.72987 6.08858 8.72978ZM6.19147 8.44316C6.22843 8.39283 6.26564 8.3427 6.30252 8.29234C6.32907 8.34804 6.3574 8.40307 6.38685 8.45716C6.35217 8.49346 6.31821 8.53032 6.28469 8.56769C6.25413 8.52584 6.22204 8.48476 6.19147 8.44316ZM6.2037 8.73082C6.22838 8.703 6.2538 8.67594 6.27784 8.64742C6.30154 8.67348 6.32597 8.69839 6.35217 8.72032C6.36332 8.72965 6.37987 8.71814 6.37266 8.70451C6.35483 8.67078 6.3338 8.6385 6.31181 8.60665C6.34337 8.5685 6.37489 8.53036 6.40606 8.49186C6.42873 8.53182 6.45278 8.5704 6.47778 8.60783C6.43628 8.64648 6.39652 8.68754 6.36623 8.73229C6.31206 8.73175 6.25787 8.73118 6.2037 8.73082ZM6.44993 8.4378C6.4817 8.39879 6.51385 8.36027 6.54635 8.32218C6.57114 8.37191 6.5972 8.42097 6.623 8.47017C6.59777 8.4943 6.57231 8.51819 6.54729 8.54255C6.53961 8.55003 6.53119 8.55769 6.5231 8.56523C6.49985 8.52243 6.47549 8.47993 6.44993 8.4378ZM6.41348 8.73271C6.44555 8.70641 6.47621 8.67707 6.50499 8.6455C6.52701 8.67618 6.54937 8.7065 6.57377 8.73415C6.52032 8.73343 6.46691 8.73329 6.41348 8.73271ZM6.54297 8.60401C6.55347 8.59237 6.56399 8.58056 6.57436 8.56962C6.596 8.54677 6.61723 8.52351 6.6387 8.50046C6.65891 8.53832 6.67979 8.57562 6.70111 8.61257C6.66892 8.64529 6.62846 8.68265 6.60003 8.72382C6.59993 8.72356 6.60014 8.72336 6.60003 8.7231C6.58318 8.68281 6.5633 8.64335 6.54297 8.60401ZM6.68015 8.4559C6.70719 8.4267 6.73441 8.39769 6.76146 8.36851C6.78351 8.40971 6.80679 8.45019 6.82948 8.49107C6.801 8.51731 6.77241 8.54343 6.74502 8.57082C6.72398 8.5323 6.70251 8.49393 6.68015 8.4559ZM6.6593 8.73543C6.68215 8.70809 6.70308 8.67748 6.72358 8.65029C6.74134 8.67994 6.7598 8.70898 6.77874 8.73759C6.73893 8.73692 6.69911 8.73602 6.6593 8.73543ZM6.82739 8.73847C6.82704 8.73704 6.82779 8.7359 6.82713 8.73443C6.80757 8.69028 6.78568 8.64681 6.76285 8.60366C6.78883 8.57382 6.81663 8.54566 6.84383 8.51695C6.86875 8.56123 6.8943 8.605 6.92069 8.64799C6.89298 8.67688 6.86431 8.70676 6.83983 8.73869C6.83568 8.73862 6.83155 8.73854 6.82739 8.73847ZM6.90679 8.73991C6.92031 8.72246 6.93345 8.70468 6.94619 8.68714C6.95796 8.70553 6.97034 8.72334 6.98262 8.74127C6.95732 8.74078 6.93206 8.74037 6.90679 8.73991ZM6.98185 8.63955C7.01059 8.60224 7.03948 8.56502 7.06829 8.52777C7.08952 8.55861 7.11143 8.58877 7.13345 8.61882C7.09715 8.65582 7.06288 8.69402 7.0303 8.73324C7.01462 8.70187 6.99902 8.67046 6.98185 8.63955ZM7.22002 8.74592C7.17798 8.74499 7.13594 8.74417 7.09389 8.74329C7.11914 8.71784 7.14484 8.69306 7.16879 8.66564C7.18735 8.68976 7.20662 8.71313 7.22606 8.73631C7.2242 8.73956 7.22217 8.74276 7.22002 8.74592ZM7.20844 8.62063C7.23024 8.59472 7.25166 8.56858 7.27302 8.5425C7.29038 8.56712 7.30842 8.59098 7.32641 8.6149C7.30063 8.63994 7.2753 8.66577 7.25382 8.69321C7.23891 8.66892 7.22434 8.64451 7.20844 8.62063ZM7.38037 8.39642C7.40135 8.43067 7.42358 8.4638 7.44573 8.49699C7.43088 8.51202 7.4161 8.52713 7.40125 8.54216C7.39194 8.55158 7.38145 8.56144 7.37132 8.57115C7.35307 8.54442 7.33484 8.51768 7.3156 8.49137C7.3371 8.46534 7.35856 8.43919 7.38022 8.41431C7.38546 8.40829 7.38409 8.40135 7.38037 8.39642ZM7.38575 8.74987C7.3505 8.74903 7.31525 8.74815 7.28 8.74735C7.28128 8.74249 7.28095 8.73716 7.27804 8.73199C7.30552 8.70868 7.33099 8.68132 7.35536 8.65287C7.3705 8.672 7.38659 8.68998 7.40241 8.70828C7.39496 8.72208 7.38966 8.73598 7.38575 8.74987ZM7.39526 8.60609C7.40605 8.59315 7.41685 8.58005 7.42733 8.56823C7.43975 8.55419 7.45226 8.54022 7.4647 8.52618C7.47731 8.54442 7.49189 8.56044 7.50503 8.5781C7.48052 8.60454 7.45342 8.63405 7.43045 8.66508C7.41874 8.64541 7.40788 8.62543 7.39526 8.60609ZM7.44717 8.75134C7.48429 8.71839 7.51565 8.67252 7.5453 8.62996C7.55541 8.64223 7.56414 8.65609 7.57471 8.66781C7.5925 8.68753 7.61994 8.66247 7.60955 8.64094C7.60028 8.62173 7.58939 8.60301 7.57881 8.58418C7.58036 8.5822 7.58194 8.57971 7.58349 8.57778C7.60666 8.54898 7.63185 8.52204 7.65556 8.4938C7.67885 8.53133 7.70757 8.6061 7.74759 8.65156C7.71587 8.68425 7.68612 8.71864 7.66584 8.75655C7.59293 8.7547 7.52006 8.75309 7.44717 8.75134ZM7.51137 8.47363C7.5374 8.44427 7.56344 8.41492 7.58956 8.38563C7.6023 8.40656 7.61511 8.42743 7.62784 8.44835C7.60057 8.47551 7.574 8.50331 7.54814 8.53172C7.53609 8.51229 7.52413 8.49283 7.51137 8.47363ZM7.69467 8.44821C7.71638 8.42307 7.73717 8.39714 7.7596 8.37255C7.76547 8.38281 7.77138 8.39306 7.77726 8.40332C7.80248 8.44728 7.8264 8.49632 7.85379 8.54257C7.84665 8.55026 7.83912 8.55762 7.83202 8.56536C7.82053 8.57789 7.80762 8.59058 7.79485 8.6033C7.78593 8.58923 7.77699 8.57517 7.76799 8.56115C7.74375 8.52338 7.71916 8.48583 7.69467 8.44821ZM8.08139 8.76735C7.96734 8.76433 7.8533 8.76129 7.73924 8.75836C7.76207 8.73696 7.78351 8.71237 7.80398 8.68698C7.80832 8.68773 7.81239 8.68957 7.81694 8.68943C7.82485 8.68918 7.83128 8.68417 7.83366 8.6767C7.83498 8.67255 7.83631 8.6684 7.83762 8.66425C7.83906 8.65978 7.83688 8.654 7.83313 8.65056C7.84988 8.62896 7.86616 8.6079 7.8821 8.58917C7.88261 8.58857 7.88309 8.58793 7.88361 8.58733C7.90327 8.61548 7.92435 8.64211 7.94967 8.66348C7.95535 8.66826 7.96249 8.66841 7.96784 8.66553C7.95253 8.6851 7.93806 8.70504 7.92477 8.72542C7.91068 8.74707 7.94069 8.76563 7.95823 8.75124C7.99658 8.71978 8.03193 8.68283 8.0661 8.64461C8.07953 8.66923 8.09425 8.69293 8.10812 8.71725C8.09696 8.73339 8.08825 8.75019 8.08139 8.76735ZM7.92634 8.53542C7.94318 8.5151 7.95997 8.49474 7.97667 8.47428C7.99596 8.51222 8.01607 8.54962 8.03595 8.58718C8.01437 8.61013 7.99362 8.63348 7.97438 8.65756C7.97531 8.65493 7.9759 8.65204 7.97511 8.64867C7.96598 8.60928 7.94747 8.5719 7.92634 8.53542ZM8.11431 8.58962C8.13296 8.56816 8.15152 8.54689 8.17025 8.52654C8.17771 8.51845 8.18582 8.51102 8.19332 8.50299C8.20661 8.52893 8.22079 8.55388 8.23585 8.57776C8.23525 8.57839 8.2346 8.57897 8.234 8.5796C8.20971 8.60526 8.17959 8.63346 8.15163 8.66378C8.13913 8.63908 8.12728 8.61415 8.11431 8.58962ZM8.33423 8.77394C8.29219 8.77284 8.25015 8.7718 8.2081 8.77068C8.20625 8.76589 8.20443 8.7611 8.20259 8.75632C8.20144 8.75333 8.19824 8.75293 8.19574 8.7514C8.19341 8.74649 8.19074 8.7417 8.1884 8.7368C8.21731 8.70023 8.24316 8.65955 8.26912 8.62473C8.29738 8.66137 8.33091 8.69173 8.36922 8.71631C8.35619 8.735 8.34464 8.75429 8.33423 8.77394ZM8.24795 8.44725C8.28749 8.4063 8.32669 8.36504 8.36747 8.32529C8.38517 8.35016 8.40269 8.37521 8.42033 8.40014C8.3782 8.43824 8.33719 8.47746 8.29684 8.5174C8.28019 8.4942 8.26363 8.47093 8.24795 8.44725ZM8.32499 8.5571C8.36214 8.51289 8.40033 8.46963 8.43946 8.42724C8.44683 8.43776 8.45437 8.44812 8.46167 8.45869C8.48016 8.4855 8.498 8.51376 8.51588 8.54241C8.47745 8.58571 8.43594 8.63071 8.39859 8.67806C8.37752 8.63643 8.35269 8.59627 8.32499 8.5571ZM8.40349 8.77569C8.45525 8.71917 8.50058 8.65446 8.54851 8.59421C8.5681 8.62528 8.58839 8.65587 8.60981 8.68515C8.58081 8.71411 8.55581 8.74599 8.54541 8.77929C8.49811 8.77809 8.45079 8.77692 8.40349 8.77569ZM8.59511 8.53881C8.63408 8.493 8.67449 8.44847 8.71478 8.40386C8.71751 8.40836 8.72015 8.41291 8.72289 8.4174C8.74258 8.44972 8.76187 8.4835 8.78138 8.51751C8.75307 8.54642 8.72431 8.57489 8.69626 8.60403C8.68655 8.6141 8.67408 8.62542 8.6609 8.63728C8.64084 8.60371 8.61852 8.57083 8.59511 8.53881ZM8.8194 8.78623C8.74806 8.78453 8.67672 8.78261 8.60538 8.78081C8.61456 8.76425 8.62791 8.74551 8.64402 8.72568C8.65888 8.74339 8.67294 8.76209 8.68955 8.7776C8.70171 8.78895 8.72406 8.77791 8.71863 8.76067C8.7099 8.73305 8.69759 8.70617 8.68398 8.67961C8.72659 8.63322 8.77363 8.5877 8.80464 8.55707C8.83416 8.60743 8.8668 8.65529 8.9021 8.70032C8.873 8.72783 8.84443 8.75632 8.8194 8.78623ZM8.99592 8.52981C9.0066 8.54645 9.01646 8.56409 9.02644 8.58161C9.01812 8.5899 9.00946 8.59784 9.00119 8.60616C8.98358 8.62389 8.96401 8.64196 8.94422 8.66029C8.91733 8.60775 8.885 8.55697 8.85128 8.50739C8.87582 8.47968 8.90032 8.45194 8.92485 8.42422C8.94871 8.4593 8.97299 8.49409 8.99592 8.52981ZM8.95993 8.38455C8.98361 8.35778 9.00729 8.33103 9.03095 8.30426C9.06204 8.36431 9.09552 8.42307 9.12908 8.48178C9.11011 8.50018 9.09109 8.51853 9.07225 8.53706C9.05473 8.51217 9.03717 8.48783 9.0208 8.46437C9.00162 8.43687 8.98031 8.41109 8.95993 8.38455ZM9.0583 8.79131C9.01353 8.79034 8.96878 8.7895 8.92401 8.78847C8.93316 8.7784 8.94232 8.76833 8.95124 8.75801C8.9548 8.76158 8.95746 8.76615 8.96111 8.76961C8.9711 8.77905 8.98964 8.76981 8.9851 8.75564C8.98234 8.74702 8.9784 8.73872 8.97521 8.73021C8.99882 8.70216 9.02197 8.67449 9.04467 8.64964C9.04887 8.64503 9.05285 8.64023 9.05704 8.63562C9.07432 8.66711 9.09174 8.69864 9.11082 8.72867C9.09081 8.74869 9.07345 8.76971 9.0583 8.79131ZM9.14794 8.7932C9.15028 8.79103 9.15275 8.78928 9.15506 8.78708C9.15675 8.78914 9.15833 8.79128 9.1599 8.79346C9.15591 8.79337 9.15193 8.79328 9.14794 8.7932ZM9.16165 8.68078C9.14441 8.64751 9.12435 8.61496 9.10321 8.5833C9.12014 8.56437 9.13683 8.54522 9.15364 8.52618C9.1574 8.53252 9.16053 8.5392 9.16433 8.54552C9.18126 8.57363 9.19858 8.60296 9.21639 8.6324C9.19866 8.64795 9.18072 8.66408 9.16165 8.68078ZM9.19893 8.49801C9.19602 8.49351 9.19355 8.48874 9.19067 8.48422C9.226 8.44387 9.26194 8.40405 9.29715 8.36356C9.32424 8.40498 9.35134 8.44639 9.37835 8.48786C9.33993 8.52196 9.30122 8.5558 9.26345 8.59066C9.24104 8.55979 9.21896 8.529 9.19893 8.49801ZM9.39994 8.52147C9.41056 8.53815 9.42105 8.55543 9.43158 8.57263C9.42806 8.5757 9.42434 8.57852 9.42083 8.58162C9.38875 8.60995 9.35248 8.63807 9.31761 8.66747C9.31022 8.65688 9.30341 8.64605 9.29586 8.63554C9.33122 8.59808 9.36539 8.5596 9.39994 8.52147ZM9.2944 8.7963C9.30082 8.79012 9.30788 8.78326 9.316 8.77533C9.32251 8.78314 9.32999 8.78966 9.33675 8.79719C9.32263 8.79693 9.30851 8.79657 9.2944 8.7963ZM9.39609 8.79833C9.38517 8.77584 9.37347 8.75358 9.36017 8.73184C9.40352 8.6889 9.44795 8.64448 9.45486 8.63789C9.45863 8.63429 9.46211 8.63039 9.46586 8.62678C9.47891 8.64723 9.49323 8.66659 9.50743 8.68605C9.50077 8.69416 9.49379 8.70213 9.48793 8.71059C9.47155 8.73426 9.46192 8.80291 9.51126 8.78497C9.52057 8.78159 9.52147 8.77079 9.51386 8.7651C9.51425 8.76539 9.52636 8.75233 9.54507 8.73172C9.56139 8.75018 9.57744 8.76897 9.59663 8.78432C9.60319 8.78956 9.61479 8.78496 9.61189 8.77543C9.60344 8.74774 9.59115 8.72152 9.57737 8.69594C9.59748 8.67359 9.62069 8.64766 9.64481 8.62068C9.65874 8.64357 9.67426 8.66454 9.68918 8.68626C9.65842 8.72309 9.62996 8.76151 9.6035 8.80114C9.53436 8.80013 9.46524 8.79955 9.39609 8.79833ZM9.50625 8.58598C9.53161 8.56072 9.55687 8.53536 9.5818 8.50968C9.59304 8.53123 9.60498 8.55224 9.61689 8.57327C9.59383 8.59623 9.56946 8.61931 9.54595 8.64315C9.53324 8.62382 9.52003 8.60472 9.50625 8.58598ZM9.68787 8.57245C9.71261 8.54472 9.73654 8.51788 9.75741 8.49444C9.76935 8.51802 9.78218 8.54091 9.79446 8.56425C9.77318 8.58886 9.75182 8.61359 9.7303 8.63837C9.71627 8.6163 9.70203 8.59436 9.68787 8.57245ZM9.66718 8.802C9.6866 8.78066 9.70535 8.75861 9.72356 8.73606C9.74227 8.76038 9.7629 8.78189 9.7834 8.80357C9.74466 8.80312 9.70592 8.80253 9.66718 8.802ZM10.1375 8.21108C10.1124 8.29248 10.0733 8.37483 10.0438 8.4585C10.0283 8.39602 9.98226 8.33767 9.94676 8.28659C9.89884 8.2176 9.84632 8.15218 9.7905 8.08945C9.77241 8.06911 9.74423 8.09852 9.76098 8.11896C9.81463 8.18438 9.86444 8.25253 9.90937 8.32425C9.94484 8.38084 9.97141 8.4569 10.0239 8.49902C10.0255 8.50031 10.0275 8.5008 10.0295 8.50144C10.0123 8.55839 10.0015 8.61601 10.0049 8.67445C10.0063 8.69931 10.036 8.72379 10.06 8.70606C10.0683 8.69993 10.0752 8.69268 10.0828 8.68598C10.056 8.73464 10.0276 8.78505 10.0055 8.8369C9.99028 8.8185 9.96728 8.80592 9.93614 8.80564C9.89719 8.80531 9.85822 8.80448 9.81928 8.80406C9.80304 8.76414 9.78329 8.72567 9.76112 8.6883C9.78077 8.6628 9.80041 8.63745 9.81985 8.61201C9.85262 8.67186 9.8867 8.73057 9.92468 8.78547C9.93374 8.79857 9.95937 8.79084 9.9525 8.77374C9.92375 8.70217 9.8882 8.63239 9.85088 8.56318C9.85197 8.55195 9.84624 8.54262 9.83717 8.53818C9.82207 8.51068 9.80756 8.48298 9.79196 8.45569C9.80653 8.43936 9.81751 8.42704 9.82194 8.42214C9.83988 8.40231 9.81126 8.3732 9.79242 8.39263C9.78475 8.40055 9.77707 8.40848 9.76938 8.41641C9.73005 8.34824 9.6905 8.28041 9.65371 8.21273C9.643 8.19303 9.61316 8.21053 9.62368 8.23028C9.66181 8.30194 9.69845 8.3766 9.73572 8.45115L9.66051 8.52879C9.65486 8.5197 9.64885 8.5107 9.64341 8.50155C9.63667 8.49021 9.63053 8.47856 9.62387 8.46717C9.63018 8.46067 9.63667 8.45435 9.643 8.44785C9.66129 8.42906 9.63426 8.40346 9.61471 8.41957C9.61064 8.42292 9.60664 8.42637 9.60258 8.42971C9.54799 8.33445 9.49557 8.23803 9.44619 8.13991C9.43605 8.11977 9.40675 8.13742 9.41616 8.15747C9.46109 8.25336 9.50745 8.36068 9.55971 8.46554C9.53019 8.48974 9.50098 8.51432 9.47184 8.53898C9.45866 8.52146 9.4454 8.50398 9.43298 8.48652C9.43282 8.48629 9.43265 8.48605 9.43249 8.48582C9.45706 8.45852 9.48225 8.43181 9.50677 8.40442C9.5169 8.39311 9.50152 8.37785 9.49016 8.38782C9.46399 8.41078 9.43847 8.43441 9.41238 8.45742C9.34517 8.36281 9.27829 8.26799 9.21124 8.17327C9.19946 8.15662 9.17199 8.17196 9.18347 8.18951C9.21534 8.23831 9.24718 8.28713 9.2791 8.33591C9.24146 8.37196 9.20455 8.40871 9.16705 8.44486C9.13074 8.3864 9.09478 8.32773 9.06092 8.26784C9.06435 8.2594 9.05872 8.2504 9.05073 8.24971C9.03645 8.22421 9.02165 8.19902 9.00777 8.17326C8.99571 8.15091 8.963 8.17058 8.97397 8.19302C8.9879 8.2215 9.0029 8.24941 9.01732 8.27765C8.99119 8.3041 8.96526 8.33077 8.93907 8.35719C8.8884 8.29308 8.83582 8.23049 8.78022 8.17039C8.76581 8.1548 8.74503 8.1773 8.75746 8.19314C8.8085 8.25812 8.85681 8.32512 8.90384 8.39301C8.87813 8.41898 8.85261 8.44512 8.82698 8.47115C8.80801 8.44357 8.78912 8.41621 8.77147 8.389C8.76536 8.37957 8.75905 8.37027 8.75292 8.36086C8.76259 8.35044 8.7714 8.3393 8.78119 8.32899C8.79781 8.31147 8.77241 8.2862 8.75475 8.30254C8.74639 8.31027 8.73834 8.31835 8.73001 8.32613C8.65588 8.21286 8.58099 8.10005 8.50648 7.98705C8.49394 7.96803 8.46379 7.98518 8.47569 8.00504C8.54733 8.12457 8.61855 8.24439 8.69066 8.36365C8.6465 8.40576 8.60361 8.44909 8.56195 8.49364C8.53896 8.46353 8.51601 8.43408 8.4945 8.40553C8.48939 8.39875 8.48376 8.39233 8.47861 8.38557C8.49172 8.37189 8.50412 8.35761 8.51752 8.34416C8.5283 8.33334 8.5122 8.31769 8.50091 8.32756C8.48746 8.33934 8.47441 8.35161 8.46103 8.36349C8.37685 8.25482 8.28817 8.14945 8.19715 8.04661C8.1843 8.03207 8.16478 8.05292 8.17625 8.06751C8.23694 8.14477 8.29492 8.22373 8.35198 8.30337C8.31121 8.33823 8.26857 8.37385 8.22561 8.41044C8.21859 8.39869 8.21052 8.38739 8.20427 8.3753C8.14779 8.266 8.09053 8.16202 7.99851 8.07863C7.98237 8.06399 7.95946 8.08666 7.97453 8.10261C8.06061 8.19372 8.11081 8.33111 8.17088 8.4579C8.14179 8.48353 8.11317 8.50971 8.08551 8.53661C8.06436 8.4976 8.04329 8.45855 8.0215 8.41982C8.04602 8.3897 8.07072 8.35974 8.09553 8.32988C8.1068 8.31634 8.08838 8.29699 8.07586 8.3102C8.05164 8.33574 8.02737 8.36128 8.00286 8.38659C7.9413 8.27795 7.87833 8.17014 7.81808 8.0621C7.80464 8.03803 7.76884 8.0593 7.78128 8.08362C7.84053 8.19935 7.89771 8.31761 7.95667 8.43492C7.93802 8.45422 7.91956 8.47372 7.90104 8.49313C7.87491 8.45331 7.84665 8.41468 7.82213 8.37709C7.75799 8.27879 7.69391 8.18046 7.62988 8.08208C7.61866 8.06482 7.5917 8.08023 7.60211 8.09832C7.64847 8.17892 7.69475 8.25956 7.74101 8.3402C7.71671 8.3626 7.69269 8.38539 7.6688 8.40835C7.66391 8.40095 7.65922 8.39341 7.6543 8.38603C7.64502 8.3721 7.63553 8.3583 7.62621 8.34439C7.62909 8.34116 7.63193 8.33792 7.63483 8.3347C7.64374 8.32475 7.62951 8.31024 7.62007 8.31993C7.61803 8.32203 7.61596 8.32408 7.61393 8.32617C7.55398 8.23691 7.49367 8.1479 7.43352 8.05877C7.42113 8.0404 7.39184 8.05691 7.40349 8.07632C7.46111 8.17228 7.51844 8.26846 7.57648 8.3642C7.54899 8.39222 7.52142 8.42019 7.49383 8.44813C7.41725 8.33626 7.33086 8.22831 7.25527 8.12136C7.24223 8.10291 7.21195 8.11973 7.22448 8.13935C7.27663 8.22114 7.32665 8.30865 7.37917 8.39445C7.37436 8.38979 7.36675 8.38828 7.36054 8.39463C7.33885 8.41679 7.31597 8.43882 7.2933 8.46087C7.20697 8.34566 7.11368 8.23401 7.02981 8.12281C7.01962 8.10932 6.99662 8.12174 7.00652 8.13642C7.08674 8.25553 7.16401 8.38368 7.2475 8.50582C7.22396 8.52851 7.20041 8.55136 7.177 8.5744C7.15425 8.54179 7.13131 8.50925 7.10743 8.47717C7.12388 8.45594 7.14023 8.43464 7.15671 8.41345C7.16338 8.40486 7.15206 8.39261 7.14441 8.40115C7.1274 8.42011 7.11028 8.43897 7.09327 8.45791C7.00372 8.33903 6.90862 8.22326 6.82125 8.10708C6.81208 8.09487 6.7913 8.10612 6.80024 8.11937C6.88444 8.24437 6.96546 8.37652 7.05182 8.50389C7.02184 8.53716 6.99192 8.57049 6.96187 8.6037C6.93679 8.56013 6.91088 8.51682 6.884 8.47395C6.89604 8.4617 6.90691 8.44837 6.91916 8.43631C6.92924 8.42637 6.91426 8.41187 6.90378 8.42094C6.89232 8.43085 6.88207 8.44206 6.87074 8.45212C6.80032 8.34095 6.72621 8.2317 6.6584 8.12251C6.64926 8.1078 6.62655 8.12094 6.63511 8.13611C6.67419 8.20529 6.71227 8.27665 6.75053 8.34824C6.72203 8.37542 6.69367 8.40276 6.66512 8.4299C6.59144 8.3063 6.51303 8.18487 6.44063 8.06389C6.43342 8.05183 6.41541 8.06248 6.42187 8.07486C6.46055 8.14925 6.4983 8.22567 6.53635 8.30224C6.50194 8.33774 6.46718 8.37331 6.43234 8.40924C6.35065 8.27669 6.26273 8.1463 6.19072 8.01289C6.18561 8.00343 6.17195 8.01175 6.17646 8.02123C6.21452 8.10117 6.25266 8.18657 6.29303 8.27212C6.25281 8.32023 6.2127 8.36847 6.17249 8.4166C6.16496 8.40599 6.15695 8.39556 6.14977 8.38482C6.12432 8.34675 6.10055 8.30779 6.07657 8.26894C6.10084 8.22751 6.12456 8.18646 6.14772 8.14706C6.15091 8.14164 6.14302 8.13734 6.13946 8.14223C6.11404 8.17729 6.08829 8.2121 6.06276 8.24708C6.02341 8.18231 5.98541 8.11673 5.94992 8.04948C5.94332 8.03695 5.92534 8.04795 5.93115 8.06045C5.9384 8.07604 5.94609 8.09243 5.95358 8.10851C5.9029 8.1595 5.85964 8.216 5.82159 8.27707C5.8208 8.27514 5.81991 8.27327 5.81904 8.27138C5.90543 8.05607 5.98411 7.83879 6.04489 7.61471C6.04541 7.6128 6.0449 7.61132 6.04531 7.60946C6.69652 7.75843 7.4239 7.69106 8.09017 7.72471C8.80187 7.76066 9.51266 7.80843 10.2225 7.87058C10.1969 7.9847 10.172 8.09898 10.1375 8.21108ZM10.1831 8.55418C10.2266 8.4702 10.2532 8.37432 10.2806 8.28574C10.2841 8.27462 10.2869 8.26322 10.2903 8.25205C10.3013 8.28215 10.3135 8.31185 10.3274 8.34083C10.3264 8.34088 10.3254 8.3409 10.3243 8.34095C10.2954 8.34233 10.2951 8.38687 10.3243 8.38617C10.333 8.38597 10.3416 8.3859 10.3502 8.3857C10.3643 8.41209 10.3789 8.43818 10.3943 8.46367C10.4113 8.49187 10.4292 8.52185 10.4483 8.55127C10.36 8.55171 10.2716 8.55267 10.1831 8.55418ZM10.5098 8.55122C10.4835 8.51456 10.4555 8.47872 10.4324 8.44136C10.421 8.42283 10.4107 8.40366 10.3999 8.38479C10.4614 8.38342 10.5228 8.38277 10.5842 8.38163C10.6159 8.44056 10.6505 8.49724 10.6876 8.55109C10.6284 8.55087 10.5691 8.55107 10.5098 8.55122ZM10.7716 8.55171C10.7327 8.4941 10.6912 8.43777 10.6532 8.38044C10.7579 8.37861 10.8626 8.3783 10.9673 8.37696C11.0097 8.43799 11.0538 8.49729 11.0994 8.55512C10.9902 8.55358 10.881 8.55241 10.7716 8.55171ZM11.145 8.55575C11.1111 8.49486 11.0749 8.43488 11.0358 8.3762C11.1202 8.37519 11.2047 8.3751 11.2892 8.37426C11.328 8.43794 11.3689 8.4997 11.4112 8.56003C11.3225 8.55847 11.2338 8.55706 11.145 8.55575ZM11.473 8.56109C11.441 8.49803 11.4071 8.43542 11.3704 8.37364C11.469 8.37273 11.5676 8.37222 11.6661 8.37138C11.7199 8.44318 11.7779 8.50919 11.8404 8.56744C11.718 8.56543 11.5956 8.56328 11.473 8.56109ZM11.8788 8.56803C11.841 8.49954 11.7949 8.43467 11.7469 8.37077C11.8306 8.37008 11.9142 8.36953 11.9979 8.36885C12.0476 8.43898 12.0999 8.50637 12.1542 8.57174C12.0624 8.57072 11.9706 8.5695 11.8788 8.56803ZM12.2026 8.57228C12.1655 8.5032 12.1258 8.43504 12.0829 8.36821C12.172 8.36749 12.2611 8.36687 12.3502 8.36617C12.3805 8.40577 12.4117 8.44441 12.4451 8.48054C12.455 8.49124 12.4699 8.47766 12.4642 8.46578C12.4482 8.43205 12.4311 8.39872 12.4132 8.36569C12.487 8.36512 12.5607 8.36447 12.6344 8.364C12.6483 8.36391 12.6625 8.36397 12.6764 8.36391C12.7262 8.43774 12.7808 8.50676 12.8384 8.57208C12.6265 8.57491 12.4146 8.5744 12.2026 8.57228ZM12.8768 8.57136C12.8358 8.50117 12.7931 8.432 12.749 8.36374C12.8442 8.36351 12.94 8.36364 13.0359 8.36378C13.0774 8.43331 13.1209 8.50106 13.1686 8.56446C13.0713 8.56752 12.974 8.56988 12.8768 8.57136ZM14.4033 8.46789C13.9987 8.52241 13.5957 8.55036 13.1932 8.56361C13.165 8.49575 13.1316 8.42941 13.096 8.36384C13.1811 8.36396 13.2665 8.36391 13.3519 8.36366C13.3842 8.41371 13.4168 8.46342 13.4516 8.51135C13.4594 8.52212 13.4758 8.51301 13.4696 8.50081C13.4463 8.45436 13.4206 8.40892 13.3949 8.36345C13.4938 8.36303 13.5928 8.36176 13.6918 8.36001C13.7081 8.37715 13.7245 8.3941 13.7419 8.40975C13.7484 8.41556 13.7588 8.4082 13.7542 8.40027C13.7461 8.38638 13.737 8.37328 13.7286 8.35959C13.8481 8.35721 13.9674 8.35271 14.0865 8.34695C14.1052 8.36628 14.1221 8.3867 14.1416 8.40554C14.147 8.41079 14.1574 8.40366 14.1525 8.39711C14.1397 8.37995 14.1269 8.36268 14.1141 8.34551C14.2247 8.33986 14.335 8.33257 14.4447 8.32292C14.4287 8.37149 14.4145 8.41988 14.4033 8.46789ZM14.4726 8.24227C14.4227 8.2434 14.3729 8.24365 14.323 8.24503C14.3085 8.2184 14.2932 8.19222 14.2768 8.16656C14.3196 8.16372 14.3621 8.15962 14.4048 8.15619C14.4161 8.18031 14.4266 8.20483 14.4392 8.22822C14.4442 8.2376 14.4581 8.23102 14.4558 8.22119C14.4506 8.19845 14.4432 8.17612 14.4369 8.15359C14.4607 8.15158 14.4844 8.14907 14.5082 8.1469C14.496 8.17863 14.4841 8.21042 14.4726 8.24227ZM14.5371 8.07212C14.496 8.07322 14.4549 8.0737 14.4138 8.07479C14.4029 8.04204 14.3911 8.0095 14.3789 7.97707C14.4462 7.9719 14.5134 7.96606 14.5804 7.95945C14.5665 7.99667 14.5519 8.03429 14.5371 8.07212ZM14.6136 7.86716C14.6112 7.87416 14.6085 7.88131 14.606 7.88835C14.5196 7.89006 14.4331 7.8911 14.3467 7.89363C14.3363 7.86737 14.3261 7.84106 14.3156 7.81491C14.4258 7.80723 14.5354 7.79721 14.6445 7.78553C14.6336 7.81235 14.623 7.83938 14.6136 7.86716ZM14.6725 7.71979C14.5422 7.7221 14.4119 7.72448 14.2817 7.72899C14.2774 7.71804 14.2729 7.70705 14.2687 7.69611C14.2602 7.67391 14.2242 7.68334 14.2326 7.70605C14.2356 7.71402 14.2383 7.72219 14.2412 7.73019C14.0606 7.73667 13.88 7.74447 13.6993 7.75188C13.6853 7.72938 13.6708 7.70719 13.6572 7.68443C14.013 7.67921 14.3684 7.66122 14.7171 7.61915C14.7022 7.65267 14.6873 7.68622 14.6725 7.71979ZM14.7651 7.50535C14.7582 7.52324 14.7506 7.54063 14.7432 7.55818C14.0317 7.56862 13.3232 7.62665 12.6099 7.61472C11.8723 7.60238 11.1355 7.55536 10.4011 7.48688C10.4052 7.38797 10.407 7.28865 10.4089 7.18936C11.793 7.57258 13.3994 7.57868 14.8094 7.33078C14.7995 7.38879 14.7879 7.44653 14.7651 7.50535Z" fill="black"/>
<path d="M1.92599 6.47639C1.94567 6.37851 1.87979 6.2727 1.77405 6.27586C1.69449 6.27823 1.58261 6.36971 1.59292 6.45725C1.59261 6.45372 1.5909 6.45106 1.59079 6.44741C1.59033 6.43067 1.56475 6.43057 1.5647 6.44741C1.56435 6.53801 1.63131 6.62203 1.72339 6.63425C1.81976 6.64704 1.90757 6.56797 1.92599 6.47639ZM1.59476 6.46571C1.59707 6.47656 1.60034 6.48738 1.6069 6.49783C1.61346 6.5083 1.62914 6.51432 1.64023 6.50657C1.68214 6.47728 1.68962 6.42131 1.72992 6.3891C1.79946 6.33355 1.88474 6.38979 1.87546 6.47448C1.85615 6.65048 1.61767 6.62286 1.59476 6.46571Z" fill="black"/>
<path d="M1.41062 1.03659C1.34504 1.0283 1.23117 1.07573 1.26454 1.16041C1.26954 1.17307 1.28874 1.18344 1.29944 1.16961C1.35447 1.09844 1.45243 1.09228 1.47614 1.19894C1.48826 1.25356 1.47622 1.33101 1.43326 1.37036C1.39091 1.40912 1.33425 1.38877 1.30497 1.34528C1.27973 1.3078 1.28085 1.26255 1.28812 1.22019C1.29017 1.20825 1.27324 1.20307 1.26966 1.21509C1.24364 1.30258 1.26301 1.42214 1.37208 1.43666C1.47486 1.45035 1.53289 1.33281 1.54326 1.24753C1.55444 1.15546 1.51246 1.04947 1.41062 1.03659Z" fill="black"/>
<path d="M13.8028 1.9648C13.8516 1.95876 13.8759 1.90641 13.893 1.86661C13.9274 1.78668 13.925 1.67109 13.8307 1.63286C13.7804 1.61243 13.7092 1.64544 13.6955 1.69403C13.6927 1.65185 13.6924 1.60934 13.6906 1.56849C13.6902 1.55948 13.6763 1.55373 13.6719 1.56344C13.628 1.66234 13.6352 1.81592 13.6991 1.906C13.7225 1.93901 13.7597 1.97014 13.8028 1.9648ZM13.7063 1.75062C13.7141 1.76179 13.7339 1.76181 13.7374 1.74656C13.746 1.70826 13.7712 1.66307 13.8275 1.69995C13.8509 1.7153 13.854 1.74963 13.8544 1.77381C13.8548 1.80055 13.8491 1.8366 13.8327 1.85923C13.8283 1.88211 13.8139 1.8904 13.7895 1.8841C13.7628 1.89644 13.7453 1.88821 13.7369 1.85942C13.7154 1.82122 13.7057 1.77933 13.7001 1.73655C13.7021 1.74124 13.7031 1.74586 13.7063 1.75062Z" fill="black"/>
<path d="M14.1439 6.4787C14.1336 6.48234 14.1224 6.49034 14.1205 6.50209C14.1198 6.50648 14.1191 6.51088 14.1184 6.51528C14.1166 6.52587 14.121 6.53843 14.1329 6.54095C14.1439 6.54327 14.1512 6.54217 14.1617 6.54327C14.1803 6.53447 14.1966 6.53792 14.2105 6.55364C14.2324 6.56054 14.2448 6.57564 14.2478 6.59894C14.2535 6.61962 14.2536 6.64397 14.2522 6.66518C14.2521 6.68138 14.2496 6.69731 14.2448 6.71298C14.2323 6.76142 14.2095 6.77225 14.1764 6.74546C14.1368 6.72882 14.1333 6.71339 14.1224 6.67503C14.1159 6.652 14.1116 6.62873 14.108 6.60507C14.1002 6.55318 14.0986 6.49908 14.0968 6.44664C14.0966 6.4384 14.0837 6.43317 14.0798 6.44204C14.0391 6.53597 14.0439 6.6406 14.0819 6.7356C14.1089 6.803 14.1672 6.85178 14.2401 6.81072C14.371 6.73704 14.3211 6.41608 14.1439 6.4787Z" fill="black"/>
<path d="M4.35776 4.66143C4.83486 4.56824 4.93949 3.96127 4.79412 3.57533C4.6865 3.28958 4.15948 2.71957 3.88621 3.10569C3.56022 3.15489 3.36968 3.54311 3.41711 3.86489C3.47757 4.27527 3.90755 4.74936 4.35776 4.66143ZM3.87336 3.25121C3.8833 3.25767 3.89504 3.26193 3.90859 3.26238C4.23547 3.27312 4.48646 3.37459 4.59089 3.71446C4.67221 3.97916 4.61703 4.4429 4.24627 4.45172C3.96394 4.45845 3.69336 4.16038 3.61728 3.90802C3.53348 3.63009 3.6592 3.39684 3.87336 3.25121Z" fill="black"/>
<path d="M12.1847 3.43166C11.7344 3.34373 11.3045 3.81782 11.244 4.2282C11.1966 4.54998 11.3871 4.93819 11.7131 4.9874C11.9864 5.37352 12.5134 4.8035 12.621 4.51776C12.7664 4.13182 12.6618 3.52485 12.1847 3.43166ZM12.4178 4.37863C12.3134 4.7185 12.0624 4.81997 11.7355 4.83071C11.7219 4.83116 11.7102 4.83542 11.7003 4.84188C11.4861 4.69625 11.3604 4.463 11.4442 4.18507C11.5203 3.93271 11.7908 3.63464 12.0732 3.64137C12.4439 3.65019 12.4991 4.11393 12.4178 4.37863Z" fill="black"/>
<path d="M4.40601 4.27651C4.57912 4.06815 4.48341 3.65893 4.3355 3.46589C4.23187 3.33067 3.92108 3.21158 3.86957 3.44265C3.47219 3.66552 4.07627 4.6734 4.40601 4.27651ZM3.98225 3.43428C3.98315 3.4338 3.98313 3.43297 3.98385 3.43241C4.28552 3.29765 4.52646 3.90422 4.37934 4.14742C4.21247 4.42324 3.9868 4.15899 3.89781 3.97734C3.80579 3.78946 3.76344 3.55352 3.98225 3.43428Z" fill="black"/>
<path d="M12.1045 3.7606C12.0307 3.74817 11.9555 3.7459 11.9001 3.78813C11.6886 3.88488 11.5506 4.16751 11.5579 4.38736C11.5656 4.62114 11.8292 4.79405 12.0519 4.68318C12.2702 4.57448 12.3467 4.17682 12.31 3.96245C12.2884 3.83706 12.2284 3.7815 12.1045 3.7606ZM12.244 4.20794C12.2066 4.38067 12.1098 4.6225 11.9026 4.63222C11.592 4.6468 11.596 4.31389 11.6868 4.11741C11.735 4.01302 11.8062 3.94462 11.8835 3.8749C11.892 3.87805 11.9011 3.87881 11.9098 3.8727C11.9694 3.83055 12.0823 3.81093 12.1542 3.84035C12.2902 3.89594 12.2676 4.09857 12.244 4.20794Z" fill="black"/>
<path d="M1.48364 4.4403C1.48512 4.45349 1.50357 4.45393 1.50451 4.4403C1.52979 4.07636 1.49849 3.70347 1.47956 3.33955C1.47897 3.32845 1.46227 3.32828 1.46217 3.33955C1.45859 3.70387 1.44315 4.07778 1.48364 4.4403Z" fill="black"/>
<path d="M12.9089 1.43197C12.898 1.40485 12.8796 1.38349 12.865 1.35825C12.8452 1.32389 12.832 1.28738 12.8228 1.24894C12.8201 1.23783 12.8044 1.24277 12.806 1.25357C12.816 1.3173 12.8384 1.40411 12.8948 1.44277C12.9013 1.44724 12.912 1.43968 12.9089 1.43197Z" fill="black"/>
<path d="M13.0369 1.45991C13.0296 1.40619 13.0022 1.35455 12.9823 1.30438C12.9759 1.28807 12.9494 1.29469 12.9555 1.31177C12.9741 1.3637 12.9878 1.42142 13.0186 1.46762C13.0253 1.47757 13.0384 1.47086 13.0369 1.45991Z" fill="black"/>
<path d="M5.85966 6.43025C5.86547 6.43492 5.87792 6.43083 5.8742 6.42179C5.8308 6.3168 5.74046 6.22301 5.66835 6.1362C5.65737 6.12299 5.63477 6.14035 5.64444 6.15464C5.70707 6.24712 5.7715 6.35986 5.85966 6.43025Z" fill="black"/>
<path d="M5.83208 6.19406C5.83783 6.19864 5.8474 6.19461 5.84517 6.18645C5.82808 6.12428 5.7824 6.07026 5.74608 6.01774C5.70395 5.95682 5.65985 5.89721 5.61669 5.83704C5.60965 5.82722 5.59364 5.83596 5.60016 5.84669C5.63846 5.90972 5.67583 5.97343 5.71523 6.03576C5.74937 6.08973 5.78163 6.15386 5.83208 6.19406Z" fill="black"/>
<path d="M5.6329 5.58017C5.66973 5.64162 5.70655 5.70306 5.74338 5.76451C5.77545 5.81801 5.80404 5.88148 5.85174 5.92255C5.86049 5.93007 5.87573 5.92309 5.87209 5.9107C5.85432 5.85027 5.80869 5.79841 5.7731 5.74713C5.73213 5.68812 5.69115 5.6291 5.65016 5.57008C5.64293 5.55964 5.62619 5.56897 5.6329 5.58017Z" fill="black"/>
<path d="M5.86176 5.65771C5.84596 5.59739 5.80608 5.54245 5.77443 5.48915C5.73804 5.42788 5.70166 5.36663 5.66529 5.30536C5.6604 5.29713 5.64822 5.30438 5.65251 5.31282C5.68483 5.37646 5.71714 5.4401 5.74947 5.50374C5.77754 5.55901 5.80257 5.62179 5.84504 5.66744C5.85201 5.67493 5.86422 5.66709 5.86176 5.65771Z" fill="black"/>
<path d="M5.80988 4.89291C5.81817 4.90147 5.83396 4.89274 5.83023 4.88106C5.8114 4.82198 5.76976 4.77034 5.73643 4.71849C5.69837 4.6593 5.66032 4.60011 5.62227 4.54092C5.61684 4.53246 5.60385 4.53995 5.60875 4.54882C5.64287 4.61031 5.67698 4.6718 5.7111 4.7333C5.74098 4.78717 5.76676 4.84838 5.80988 4.89291Z" fill="black"/>
<path d="M5.57736 4.26243C5.56931 4.25045 5.55045 4.26112 5.55783 4.27384C5.59777 4.34279 5.63772 4.41174 5.67767 4.48069C5.71213 4.54016 5.74207 4.6137 5.79546 4.65809C5.80555 4.66649 5.8213 4.65876 5.81798 4.64497C5.80165 4.57747 5.74901 4.51848 5.71071 4.46137C5.66627 4.39505 5.62182 4.32874 5.57736 4.26243Z" fill="black"/>
<path d="M5.77984 3.71829C5.78791 3.72767 5.80514 3.71773 5.8009 3.70602C5.77635 3.63791 5.73139 3.57723 5.69318 3.51605C5.64977 3.4465 5.60634 3.37696 5.56291 3.30742C5.55758 3.29888 5.54455 3.30645 5.5494 3.31532C5.58867 3.38728 5.62794 3.45926 5.66722 3.53123C5.70176 3.59453 5.73255 3.66347 5.77984 3.71829Z" fill="black"/>
<path d="M5.5315 3.08223C5.56911 3.15104 5.6067 3.21986 5.6443 3.28867C5.67742 3.34924 5.7061 3.41654 5.75253 3.46807C5.76229 3.47891 5.78187 3.46757 5.77723 3.45369C5.75525 3.38789 5.7108 3.32975 5.67437 3.27109L5.55028 3.07126C5.54289 3.05937 5.52477 3.06992 5.5315 3.08223Z" fill="black"/>
<path d="M5.74497 3.28048C5.75327 3.28978 5.76839 3.27994 5.76531 3.26864C5.74804 3.20517 5.70553 3.14835 5.67274 3.09176C5.63524 3.02705 5.59776 2.96236 5.56026 2.89766C5.5546 2.88791 5.5402 2.8965 5.54524 2.90643C5.57914 2.97323 5.61306 3.04002 5.64698 3.10682C5.6766 3.16518 5.70114 3.23138 5.74497 3.28048Z" fill="black"/>
<path d="M0.93661 1.02438C0.959303 0.937431 0.941028 0.831584 0.938295 0.742523C0.937832 0.727421 0.915277 0.727393 0.914814 0.742523C0.912069 0.831667 0.893822 0.937494 0.916487 1.02438C0.919082 1.03431 0.934031 1.03433 0.93661 1.02438Z" fill="black"/>
<path d="M1.03993 0.995106C1.05061 0.936785 1.04537 0.875121 1.04553 0.815953C1.04558 0.795253 1.01329 0.795218 1.01335 0.815953C1.01353 0.875172 1.00826 0.936698 1.01896 0.995106C1.02087 1.00548 1.03803 1.00549 1.03993 0.995106Z" fill="black"/>
<path d="M14.1787 2.92716C14.1871 2.93423 14.2032 2.93039 14.2024 2.91733C14.1974 2.8349 14.1235 2.76904 14.0676 2.71615C14.0583 2.70738 14.0412 2.71903 14.0492 2.73037C14.0925 2.79226 14.12 2.87825 14.1787 2.92716Z" fill="black"/>
<path d="M14.2469 2.81321C14.251 2.75047 14.2191 2.68901 14.1988 2.6309C14.1891 2.6032 14.1452 2.61465 14.1543 2.64315C14.1736 2.70334 14.1854 2.77237 14.2276 2.8212C14.2344 2.82918 14.2463 2.8222 14.2469 2.81321Z" fill="black"/>
<path d="M13.6175 6.97655C13.6253 6.97655 13.6253 6.96437 13.6175 6.96437C13.6096 6.96437 13.6096 6.97655 13.6175 6.97655Z" fill="black"/>
<path d="M13.5775 6.80025C13.6129 6.85687 13.646 6.93893 13.6998 6.97924C13.7069 6.98459 13.7156 6.9758 13.7138 6.96844C13.6989 6.90504 13.636 6.8409 13.5993 6.78752C13.5902 6.77432 13.5688 6.78632 13.5775 6.80025Z" fill="black"/>
<path d="M13.7532 6.79839C13.7441 6.77734 13.7076 6.79246 13.7158 6.81413C13.7389 6.87504 13.7702 6.9657 13.8307 6.99784C13.8423 7.00398 13.8566 6.99382 13.8531 6.98065C13.8444 6.9484 13.8223 6.925 13.8045 6.89719C13.7845 6.86571 13.7679 6.8326 13.7532 6.79839Z" fill="black"/>
</svg>
