<svg width="16" height="14" viewBox="0 0 16 14" fill="none" xmlns="http://www.w3.org/2000/svg">
<rect width="16" height="14" fill="white"/>
<path d="M14.9347 9.24982C14.9462 9.23517 14.9543 9.21698 14.9532 9.19249C14.8573 7.15375 14.7263 5.09556 14.4169 3.07638C14.4279 3.07528 14.4392 3.07517 14.4501 3.07397C14.4995 3.06859 14.5189 2.99409 14.4627 2.98083C13.7912 2.82239 13.0432 2.86117 12.3549 2.82204C11.5885 2.77847 10.8182 2.70984 10.0502 2.72276C10.0449 2.72284 10.0414 2.72632 10.0371 2.72857C10.0101 2.59211 9.9787 2.45676 9.94258 2.32262C10.031 2.30863 10.0608 2.16986 9.96041 2.15558C9.1705 2.04323 8.37663 1.98425 7.57841 2.00365C7.07903 2.0158 6.19253 1.95856 5.72653 2.23649C5.71661 2.23135 5.70121 2.23831 5.69997 2.25178C5.69994 2.25209 5.69993 2.25239 5.69991 2.2527C5.69193 2.25786 5.68301 2.26227 5.67532 2.26765C5.66429 2.27538 5.65339 2.2883 5.65505 2.30303C5.65787 2.32842 5.66071 2.3538 5.66355 2.37919C5.66494 2.39155 5.67834 2.40052 5.68883 2.39664C5.68053 2.51153 5.67448 2.62699 5.67084 2.74302C5.65904 2.7213 5.63884 2.7039 5.60795 2.7013C3.99691 2.56566 2.34737 2.47753 0.736027 2.64927C0.718266 2.65116 0.717439 2.67697 0.736027 2.67755C2.36354 2.72861 3.98355 2.71588 5.60795 2.8577C5.63694 2.86023 5.65649 2.8482 5.66866 2.83062C5.66711 2.89991 5.66626 2.96935 5.66608 3.03894C5.63657 3.0313 5.60711 3.02327 5.57697 3.0183C5.57565 3.0167 5.57425 3.01513 5.57295 3.01352C5.53517 2.96693 5.49587 2.92167 5.45866 2.8746C5.4488 2.86209 5.42872 2.87819 5.43681 2.89146C5.4616 2.93209 5.48717 2.97253 5.51449 3.01165C5.39991 2.99952 5.28324 3.00299 5.1704 3.02017C5.1632 3.02128 5.16481 3.03367 5.17214 3.03299C5.25989 3.02481 5.34512 3.02472 5.43006 3.02974C5.42149 3.03079 5.41429 3.03959 5.41956 3.04924C5.42937 3.06715 5.44098 3.08405 5.45204 3.10126C5.3582 3.10004 5.2634 3.1028 5.17169 3.09961C5.16254 3.09929 5.16023 3.11407 5.1695 3.11585C5.26731 3.13462 5.37728 3.14984 5.4833 3.14877C5.4994 3.17142 5.51582 3.19386 5.5327 3.2158C5.56228 3.25425 5.5894 3.31303 5.63812 3.32676C5.64815 3.32957 5.65945 3.32157 5.65904 3.31082C5.65706 3.25965 5.60706 3.22033 5.57629 3.18216C5.56634 3.16982 5.5558 3.15786 5.5456 3.14565C5.56986 3.14362 5.59394 3.14116 5.61715 3.13664C5.62386 3.14205 5.63044 3.14765 5.63795 3.15205C5.64824 3.15806 5.66453 3.14784 5.65967 3.13535C5.64661 3.10186 5.62393 3.07386 5.60064 3.04648C5.62233 3.04929 5.64421 3.05248 5.66603 3.05557C5.66592 3.15898 5.66671 3.26259 5.66915 3.36652C5.63522 3.36436 5.60121 3.36312 5.56727 3.36119C5.56074 3.3468 5.55241 3.33354 5.54219 3.32145C5.55569 3.32228 5.56898 3.32414 5.58273 3.32371C5.59181 3.32343 5.59425 3.30977 5.58493 3.30748C5.56167 3.30177 5.53832 3.29668 5.51498 3.2917C5.51181 3.2884 5.50864 3.28511 5.50553 3.28178C5.47117 3.24482 5.43668 3.20796 5.40225 3.17106C5.3909 3.15888 5.37469 3.17648 5.38442 3.18889C5.40798 3.21891 5.43153 3.24894 5.45508 3.27896C5.39972 3.26719 5.3446 3.25458 5.29063 3.23583C5.28372 3.23343 5.27886 3.24463 5.2856 3.24774C5.34934 3.27731 5.41469 3.30196 5.48264 3.31457C5.49416 3.32991 5.50623 3.34508 5.51954 3.3587C4.97293 3.32945 4.42362 3.32695 3.87682 3.30977C3.32006 3.29227 2.71939 3.20929 2.16731 3.29152C2.15337 3.2936 2.15824 3.31351 2.17044 3.31458C2.75194 3.36583 3.34713 3.35666 3.93106 3.3813C4.51059 3.40577 5.09175 3.44861 5.67187 3.45429C5.67206 3.46059 5.67225 3.4669 5.67244 3.4732C5.66915 3.47277 5.66554 3.47496 5.66755 3.47896C5.66937 3.48258 5.67115 3.48622 5.67296 3.48985C5.67497 3.55313 5.67727 3.61645 5.67997 3.67984C5.63716 3.60909 5.58936 3.54019 5.54707 3.472C5.54294 3.46535 5.53261 3.47132 5.53655 3.47815C5.58493 3.56183 5.62936 3.65293 5.68244 3.73592C5.68468 3.78506 5.68701 3.83419 5.68959 3.88338C5.64584 3.80609 5.59213 3.73174 5.54525 3.6639C5.54148 3.65844 5.53261 3.6634 5.53623 3.66916C5.57357 3.72872 5.60928 3.78921 5.64254 3.85115C5.6602 3.88403 5.67627 3.91863 5.69335 3.9526C5.6978 4.03316 5.70254 4.11373 5.70763 4.19431C5.69531 4.17428 5.6829 4.15444 5.67148 4.13492L5.5493 3.92616C5.54305 3.91548 5.52712 3.92492 5.53278 3.93582C5.56993 4.0075 5.60708 4.07917 5.64423 4.15085C5.66638 4.19356 5.68687 4.24049 5.71314 4.28237C5.71637 4.3319 5.71974 4.38141 5.7231 4.4309C5.66803 4.32812 5.58963 4.23071 5.5271 4.13626C5.52158 4.12792 5.50845 4.13537 5.51358 4.14416C5.58047 4.25869 5.64078 4.39571 5.72758 4.49747C5.73179 4.55885 5.73609 4.62015 5.74036 4.68144C5.69179 4.58343 5.62714 4.48803 5.57694 4.39724C5.57145 4.38731 5.55719 4.39603 5.56191 4.40602C5.61964 4.52824 5.66974 4.67331 5.74767 4.78665C5.75147 4.84114 5.75528 4.89562 5.759 4.94997C5.70481 4.83595 5.6354 4.72499 5.57818 4.61728C5.57497 4.61124 5.56648 4.61654 5.56917 4.62255C5.63121 4.7615 5.68611 4.91785 5.76566 5.05019C5.78349 5.31672 5.79943 5.58156 5.80865 5.84297C5.81001 5.88106 5.81098 5.91916 5.81231 5.95724C5.79031 5.91858 5.76482 5.88138 5.74181 5.84439C5.69732 5.77285 5.65285 5.70132 5.60836 5.62978C5.60067 5.61742 5.58189 5.62836 5.58883 5.64119C5.62893 5.7153 5.66902 5.7894 5.7091 5.8635C5.74153 5.92344 5.77097 5.9891 5.81501 6.04168C5.81664 6.0894 5.81796 6.13712 5.81958 6.18485C5.79747 6.14438 5.76813 6.10611 5.7446 6.06823C5.70644 6.00682 5.67069 5.94404 5.63661 5.88029C5.6307 5.86924 5.61512 5.87895 5.6201 5.88995C5.64986 5.95605 5.68136 6.02128 5.71536 6.08532C5.74471 6.1406 5.77395 6.207 5.82148 6.24866C5.82152 6.24869 5.82159 6.24869 5.82162 6.24872C5.82382 6.3138 5.82572 6.3789 5.82787 6.44398C5.77217 6.31417 5.67853 6.19048 5.60664 6.07144C5.60027 6.06089 5.58428 6.07025 5.59012 6.0811C5.66297 6.21623 5.7256 6.37882 5.82406 6.49685C5.8256 6.49869 5.82765 6.4992 5.82963 6.49974C5.83608 6.69609 5.84245 6.89244 5.84847 7.0888C5.82584 7.0433 5.79387 7.0021 5.76533 6.96031C5.72691 6.90402 5.68848 6.84772 5.65005 6.79143C5.64442 6.7832 5.63109 6.79072 5.63654 6.79933C5.67288 6.85684 5.70921 6.91437 5.74555 6.97188C5.77747 7.02239 5.80599 7.07812 5.84866 7.12039C5.84888 7.1206 5.84923 7.12029 5.84947 7.12047C5.85175 7.19485 5.85439 7.26921 5.85659 7.34359C5.83589 7.30771 5.81064 7.27345 5.78863 7.24018C5.7478 7.17846 5.7066 7.11698 5.66559 7.05538C5.65974 7.04659 5.64596 7.05441 5.65133 7.06372C5.68815 7.12775 5.72481 7.1919 5.76184 7.25584C5.79094 7.30607 5.81857 7.36379 5.85863 7.40682C5.86885 7.75347 5.87787 8.10017 5.88693 8.44687C5.35417 8.35174 4.78799 8.35668 4.24909 8.3387C3.66429 8.31918 3.06794 8.27889 2.4832 8.30816C2.48286 8.30763 2.48322 8.30718 2.48284 8.30665C2.39066 8.17904 2.27335 8.06801 2.16658 7.95255C2.11026 7.89163 2.05382 7.83086 1.99663 7.77074C1.96546 7.73797 1.82969 7.62148 1.79708 7.55656C1.85983 6.98283 1.7911 6.36659 1.7484 5.79277C1.70708 5.23757 1.6522 4.67968 1.54721 4.13247C1.54676 4.13013 1.54485 4.12925 1.54371 4.12754C1.75613 3.87645 1.99596 3.6133 2.15817 3.32866C2.16851 3.31052 2.14454 3.29216 2.12948 3.30652C1.88592 3.53896 1.68168 3.84945 1.4843 4.12162C1.47082 4.14018 1.49317 4.1614 1.51175 4.15707C1.57057 4.72022 1.64241 5.2812 1.68156 5.84636C1.72104 6.41636 1.68807 6.9979 1.74509 7.56467C1.74607 7.57449 1.75104 7.58043 1.75711 7.5844C1.78599 7.68094 1.91347 7.77645 1.97057 7.84077C2.11962 8.00872 2.2658 8.19627 2.43572 8.34301C2.45018 8.3555 2.47059 8.34951 2.48102 8.33702C3.04582 8.40673 3.62771 8.38839 4.19583 8.40797C4.68266 8.42475 5.16969 8.47652 5.65595 8.50117C5.66509 8.51836 5.67451 8.53541 5.6835 8.55268C5.6465 8.5493 5.60908 8.54842 5.57153 8.5499C5.57107 8.54939 5.57066 8.54884 5.57019 8.54833C5.56403 8.54164 5.55474 8.54494 5.54997 8.55102C5.47919 8.55531 5.4089 8.56624 5.34328 8.58041C5.33228 8.58279 5.3347 8.60045 5.34593 8.60007C5.42268 8.59744 5.49998 8.60087 5.57717 8.60407C5.6012 8.63619 5.62393 8.66922 5.6471 8.70193C5.61189 8.70447 5.57685 8.7082 5.54286 8.71211C5.51878 8.68597 5.49402 8.66044 5.46903 8.63535C5.4574 8.62367 5.44086 8.64095 5.45119 8.65318C5.46848 8.67363 5.48307 8.69597 5.49932 8.71708C5.48258 8.71893 5.46625 8.72062 5.45054 8.72196C5.43323 8.72344 5.4332 8.74745 5.45054 8.74892C5.47552 8.75105 5.50226 8.75411 5.52958 8.75725C5.54487 8.77818 5.56178 8.79786 5.5764 8.8194C5.57966 8.82421 5.58303 8.83014 5.58633 8.83555C5.56056 8.83112 5.53476 8.82747 5.50927 8.82461C5.49136 8.8226 5.49189 8.85011 5.50927 8.85244C5.54365 8.85705 5.57678 8.86479 5.60961 8.87339C5.62773 8.9029 5.64821 8.93153 5.67597 8.94347C5.6841 8.94697 5.69329 8.94297 5.69364 8.93333C5.69411 8.92035 5.69119 8.90747 5.68614 8.89483C5.71449 8.90328 5.7429 8.91177 5.77186 8.91948C5.78285 8.92241 5.78929 8.9071 5.77956 8.90121C5.74305 8.87905 5.70285 8.86399 5.66149 8.8525C5.64546 8.83041 5.62665 8.8097 5.61213 8.79182C5.60429 8.78217 5.59572 8.7731 5.58762 8.76362C5.62342 8.76739 5.6597 8.77026 5.69564 8.77126C5.72854 8.82351 5.75938 8.88826 5.81058 8.92214C5.82416 8.93111 5.83772 8.91633 5.8355 8.90298C5.82756 8.85515 5.79349 8.81065 5.7602 8.77048C5.78259 8.76909 5.80432 8.76629 5.8253 8.76197C5.83118 8.76629 5.83654 8.77114 5.84314 8.77477C5.85222 8.77977 5.86411 8.77147 5.86102 8.76102C5.86024 8.75838 5.85881 8.7561 5.85793 8.75352C5.86062 8.75268 5.86356 8.75229 5.86621 8.75137C5.88187 8.74601 5.8819 8.72488 5.86621 8.71951C5.85744 8.71651 5.84801 8.71468 5.83882 8.71241C5.8198 8.68002 5.79491 8.65094 5.77281 8.62011C5.7698 8.61592 5.76748 8.6113 5.76452 8.60709C5.78686 8.60676 5.80925 8.60707 5.83148 8.6057C5.84393 8.60494 5.84597 8.58855 5.83436 8.58435C5.80208 8.57266 5.76834 8.56484 5.734 8.55913C5.72192 8.54057 5.71028 8.52172 5.69834 8.50307C5.76176 8.50606 5.82521 8.5098 5.88861 8.51159C5.8928 8.67392 5.89723 8.83625 5.90119 8.99859C5.10957 8.91574 4.29863 8.92317 3.50332 8.90766C2.73478 8.89268 1.95001 8.85472 1.18413 8.93894C1.18418 8.93854 1.1844 8.93822 1.18445 8.93781C1.24742 8.39829 1.13882 7.81626 1.0974 7.27475C1.06029 6.7896 1.02204 6.30456 0.982825 5.81958C0.898792 4.78043 0.833105 3.73772 0.719801 2.70134C0.713551 2.64421 0.625879 2.6413 0.628284 2.70134C0.647227 3.17544 0.676701 3.64936 0.709204 4.12315C0.666167 3.99245 0.599068 3.86598 0.529971 3.74635L0.490562 3.17338C0.531993 3.02426 0.574132 2.87521 0.617275 2.72584C0.623363 2.70477 0.592941 2.6976 0.585195 2.71699C0.329782 3.35635 0.169299 4.03095 0.0549389 4.70879C0.048701 4.6594 0.0432265 4.6099 0.0364031 4.56061C0.0345281 4.54704 0.0141884 4.55129 0.0135357 4.56371C-0.0367716 5.51704 0.0630638 6.4893 0.150305 7.43819C0.232245 8.32932 0.299589 9.2463 0.479921 10.1237C0.496135 10.2026 0.629439 10.1863 0.622101 10.1045C0.599503 9.85301 0.570655 9.60198 0.538966 9.35116C0.5734 9.40365 0.617481 9.4518 0.656005 9.50089C0.673085 9.52264 0.689869 9.54572 0.706921 9.56871C0.725971 9.67251 0.743285 9.74532 0.758518 9.78278C0.722953 9.9453 0.697001 10.1075 0.688904 10.2648C0.687503 10.2921 0.704706 10.3073 0.725184 10.3112C0.725346 10.321 0.728744 10.3304 0.74111 10.3361C1.36344 10.6227 2.1632 10.5089 2.82957 10.5117C3.70256 10.5153 4.57587 10.5261 5.44884 10.5234C5.48663 10.5233 5.51112 10.504 5.52511 10.4786C5.48451 10.5719 5.4507 10.6672 5.43798 10.7663C5.41997 10.8045 5.43959 10.8607 5.49571 10.8661C6.96189 11.0064 8.46403 10.998 9.93614 10.9953C9.94875 10.9953 9.95923 10.9922 9.96924 10.9886C9.9728 10.9993 9.98778 11.0043 9.99615 10.9954C10.0812 10.9047 10.1089 10.763 10.1481 10.6477C10.1514 10.6381 10.1459 10.6305 10.1386 10.6263C10.1402 10.6241 10.1421 10.6222 10.1437 10.6199C10.1484 10.6228 10.1519 10.6269 10.1583 10.6277C10.2897 10.6449 10.4221 10.659 10.5546 10.6731C10.5557 10.6739 10.5565 10.6751 10.5577 10.6758C10.5616 10.6787 10.5669 10.6777 10.5708 10.6749C10.6497 10.6833 10.7287 10.691 10.8079 10.6982C10.8227 10.7134 10.8371 10.7293 10.8528 10.7432C10.8643 10.7534 10.8793 10.7408 10.8733 10.7274C10.8694 10.7189 10.8644 10.7109 10.8603 10.7025C12.0472 10.8069 13.2642 10.7885 14.4355 10.6334C14.4989 10.625 14.5226 10.5753 14.5139 10.532C14.5698 10.4642 14.6109 10.3852 14.6432 10.3005C14.6875 10.2953 14.7322 10.2917 14.7762 10.2855C14.8043 10.2815 14.7969 10.2366 14.7697 10.2368C14.7351 10.237 14.7005 10.2383 14.6659 10.2387C14.6783 10.2017 14.6897 10.1642 14.7006 10.1264C14.7307 10.1228 14.761 10.1197 14.7909 10.1154C14.819 10.1115 14.8116 10.0666 14.7844 10.0668C14.7619 10.0669 14.7394 10.0679 14.7169 10.0682C14.7291 10.0247 14.7412 9.98145 14.7538 9.93926C14.771 9.93704 14.7884 9.93551 14.8057 9.9331C14.8337 9.92918 14.8264 9.88422 14.7991 9.88441C14.7898 9.88448 14.7806 9.88489 14.7713 9.88498C14.7766 9.8686 14.7817 9.85181 14.7874 9.83595C14.7952 9.81457 14.8053 9.79086 14.8166 9.76559C14.8178 9.76542 14.8191 9.76533 14.8204 9.76515C14.8388 9.76258 14.8408 9.74276 14.833 9.72919C14.9008 9.58062 14.9915 9.38908 14.9347 9.24982ZM5.5087 3.10218C5.48707 3.07805 5.46463 3.05465 5.44073 3.0329C5.43839 3.03077 5.43575 3.03016 5.43315 3.02983C5.46649 3.03185 5.49985 3.03526 5.53324 3.03878C5.53408 3.03991 5.5348 3.04115 5.53566 3.04229C5.55217 3.06414 5.56856 3.08718 5.58698 3.10798C5.56102 3.10566 5.5351 3.10317 5.5087 3.10218ZM5.71317 8.60816C5.72152 8.62285 5.72821 8.63843 5.73707 8.65286C5.74704 8.66909 5.75723 8.68514 5.76791 8.7007C5.74585 8.69903 5.72316 8.69892 5.70027 8.69943C5.67364 8.66783 5.64675 8.63641 5.61935 8.60543C5.65066 8.60662 5.68197 8.6078 5.71317 8.60816ZM12.1454 2.96132C12.852 3.0075 13.6183 3.13738 14.3286 3.08279C14.4881 5.10707 14.6811 7.12277 14.7617 9.15288C14.0408 9.228 13.3283 9.30549 12.6013 9.29956C11.8674 9.29356 11.1408 9.20237 10.4099 9.14832C10.4129 8.96772 10.4134 8.78675 10.4103 8.60526C11.3509 8.71374 12.3178 8.69361 13.2608 8.64603C13.2914 8.64449 13.3074 8.62206 13.3106 8.59827C13.4448 8.58286 13.5833 8.50745 13.694 8.43998C13.7624 8.39831 13.8614 8.34028 13.9276 8.26896C13.9511 8.27407 13.9795 8.26155 13.9803 8.2303C13.9806 8.21766 13.9805 8.20503 13.9808 8.19239C13.9866 8.17959 13.9918 8.16663 13.9945 8.15318C13.9961 8.14493 13.9898 8.13817 13.9816 8.13839C13.9946 7.49999 13.9867 6.86168 13.9555 6.22384C13.9247 5.59646 13.9042 4.94474 13.7723 4.32908C13.7698 4.31749 13.7516 4.32019 13.7518 4.33186C13.7609 4.98016 13.8497 5.62961 13.8778 6.27802C13.9052 6.91008 13.9097 7.54287 13.8975 8.17537C13.8119 8.22967 13.7362 8.31998 13.6539 8.37129C13.5361 8.4447 13.4036 8.48107 13.2823 8.54303C13.2761 8.5407 13.269 8.53943 13.2608 8.53993C12.3066 8.5975 11.3624 8.56094 10.409 8.53659C10.3895 7.59963 10.3026 6.65402 10.2583 5.72674C10.2216 4.95905 10.2253 4.16487 10.138 3.38949C10.2443 3.3823 10.4598 3.38179 10.4817 3.38403C10.6174 3.39791 10.7522 3.42571 10.8861 3.45079C11.1006 3.49097 11.3152 3.5288 11.5316 3.5575C11.9987 3.61942 12.4795 3.66229 12.9507 3.63861C12.9587 3.63821 12.9639 3.63429 12.9687 3.63031C12.9702 3.64072 12.9807 3.6487 12.9921 3.64236C13.0476 3.61148 13.3352 3.95488 13.3736 3.99769C13.4807 4.11701 13.5728 4.26461 13.6937 4.36888C13.7124 4.38504 13.7357 4.36515 13.7265 4.34359C13.6511 4.16724 13.4836 4.00849 13.3515 3.87355C13.2788 3.79938 13.2036 3.72879 13.1244 3.66167C13.0816 3.6254 13.0534 3.59354 12.9975 3.59175C12.9908 3.59155 12.9832 3.59563 12.9795 3.60152C12.9774 3.58815 12.9687 3.57578 12.9507 3.57513C12.3321 3.55279 11.7259 3.5313 11.1138 3.42538C10.9633 3.39935 10.3702 3.2284 10.1293 3.31045C10.1083 3.13652 10.0816 2.9638 10.0494 2.79246C10.7436 2.88847 11.4466 2.91563 12.1454 2.96132ZM0.83786 5.92352C0.87342 6.44332 0.910694 6.96298 0.948525 7.48263C0.983695 7.96582 0.968256 8.47964 1.09583 8.94816C1.09372 8.94842 1.09159 8.94857 1.08947 8.94882C1.09993 8.89509 1.02314 8.87373 1.00602 8.92665C0.957006 9.07819 0.904947 9.23793 0.857266 9.40085L0.838853 9.1775C0.847602 9.1861 0.855771 9.19557 0.865134 9.20321C0.876656 9.21261 0.892119 9.20117 0.885624 9.1874C0.871344 9.15714 0.852563 9.12855 0.832508 9.10051L0.816962 8.9119C0.829395 8.93063 0.841855 8.94933 0.854956 8.96744C0.872863 9.09823 0.890244 9.18795 0.906782 9.22456L0.892352 9.01461C0.899919 9.02389 0.906865 9.03377 0.914828 9.04268C0.924772 9.05385 0.939012 9.03962 0.933933 9.02793C0.920168 8.99623 0.904092 8.96493 0.886779 8.93388L0.870312 8.69438C0.892498 8.72104 0.913483 8.74898 0.93654 8.77471C0.950646 8.79044 0.970024 8.77083 0.962426 8.75421C0.962932 8.75399 0.963418 8.75379 0.963909 8.75358C0.931841 8.70788 0.898329 8.66318 0.865066 8.61831L0.851135 8.41579C0.865284 8.43436 0.878543 8.45369 0.893005 8.47199C0.910805 8.49453 0.94775 8.46537 0.932612 8.44143C0.904338 8.3967 0.873816 8.35322 0.843813 8.30944L0.829517 8.10161C0.853567 8.1317 0.876099 8.16345 0.901359 8.19218C0.914772 8.20744 0.937818 8.18796 0.928672 8.1711C0.896074 8.111 0.859861 8.05221 0.822124 7.99405L0.806092 7.76081C0.825142 7.78018 0.84479 7.79376 0.86471 7.79578C0.878231 7.79715 0.883464 7.7812 0.878816 7.77121C0.878191 7.76985 0.877554 7.76848 0.876913 7.76712C0.875529 7.76412 0.872839 7.76274 0.870011 7.76196C0.870663 7.76122 0.8713 7.76049 0.871941 7.75975C0.861479 7.74301 0.850988 7.72626 0.840498 7.70952C0.829027 7.68637 0.813782 7.66365 0.797857 7.64129L0.774835 7.30655C0.817979 7.39549 0.873871 7.49829 0.921157 7.49382C0.943308 7.49173 0.950796 7.46563 0.932316 7.45264C0.931133 7.45181 0.929966 7.45098 0.928767 7.45016C0.925397 7.44778 0.920888 7.44764 0.916659 7.44852C0.907625 7.41561 0.886316 7.36913 0.885639 7.36786C0.862155 7.32453 0.837128 7.28187 0.811144 7.23999C0.796551 7.21648 0.780788 7.19371 0.765488 7.17065L0.750105 6.94691C0.783941 6.99645 0.817722 7.04604 0.851273 7.09599C0.863951 7.11486 0.894172 7.09776 0.882052 7.07799C0.838797 7.00737 0.792691 6.93852 0.744859 6.87084L0.726707 6.607C0.757308 6.65801 0.788114 6.70886 0.817912 6.76049C0.82968 6.78086 0.860854 6.76265 0.849465 6.74205C0.808782 6.6685 0.76565 6.59652 0.721106 6.52549L0.693603 6.12555C0.727573 6.17265 0.760539 6.22072 0.796607 6.26575C0.804526 6.27564 0.817615 6.26304 0.812995 6.2531C0.775788 6.17302 0.732656 6.09448 0.686143 6.01712L0.666182 5.72685C0.703824 5.79179 0.742672 5.85574 0.787228 5.91483C0.795626 5.92596 0.817231 5.92023 0.811879 5.90444C0.774443 5.79408 0.719587 5.68624 0.656155 5.58112L0.627916 5.17071C0.671685 5.24024 0.716106 5.30929 0.76247 5.37697C0.771738 5.39049 0.791005 5.37894 0.784241 5.36424C0.736952 5.2613 0.680992 5.16093 0.620495 5.06254L0.591908 4.64677C0.645352 4.75253 0.697111 4.85935 0.747984 4.96772C0.752142 4.97658 0.762118 4.97678 0.76959 4.97274C0.792908 5.28974 0.816171 5.60668 0.83786 5.92352ZM5.31082 9.72032C5.37547 9.71896 5.44001 9.71681 5.50451 9.71445C5.52775 9.75804 5.55275 9.79999 5.57902 9.84088C5.51161 9.83573 5.44433 9.82974 5.37666 9.82602C5.35471 9.79079 5.33311 9.7554 5.31082 9.72032ZM5.46255 10.0574C5.36493 10.052 5.26716 10.0477 5.16913 10.0449C5.14961 10.0133 5.13045 9.98153 5.11039 9.95019C5.19874 9.94783 5.2869 9.9442 5.37496 9.93994C5.40286 9.98037 5.43188 10.0197 5.46255 10.0574ZM5.22901 9.58976C5.20929 9.55836 5.18933 9.52712 5.17007 9.49546C5.24501 9.49623 5.31976 9.49531 5.39456 9.49482C5.41179 9.53096 5.42948 9.56718 5.44716 9.60344C5.37452 9.59841 5.30188 9.59349 5.22901 9.58976ZM5.24041 9.72104C5.25944 9.75542 5.2792 9.78929 5.29949 9.82279C5.20644 9.81836 5.11332 9.81427 5.01997 9.81183C5.00058 9.78258 4.98175 9.75305 4.96218 9.7239C5.05508 9.72426 5.14772 9.72244 5.24041 9.72104ZM0.781931 9.31564L0.759266 9.08258C0.772474 9.10144 0.786441 9.11943 0.800898 9.13695C0.820372 9.271 0.838813 9.36349 0.855771 9.40577C0.85384 9.41239 0.85191 9.41898 0.850007 9.42561C0.833552 9.38695 0.809245 9.35053 0.781931 9.31564ZM0.843378 9.44954C0.831092 9.49253 0.81896 9.53562 0.807544 9.57892L0.791144 9.41026C0.805206 9.4243 0.81983 9.43744 0.835712 9.44808C0.83805 9.44965 0.840739 9.44994 0.843378 9.44954ZM0.783779 8.50928L0.766738 8.30252C0.773886 8.3125 0.781496 8.3221 0.788711 8.33201C0.794973 8.40441 0.801239 8.47474 0.807461 8.54023C0.799621 8.52987 0.791658 8.51961 0.783779 8.50928ZM0.816064 8.62861C0.824407 8.71192 0.83267 8.78866 0.84085 8.85712C0.830605 8.84126 0.819434 8.8257 0.808564 8.81004L0.791116 8.59834C0.799134 8.60874 0.807951 8.61831 0.816064 8.62861ZM0.75709 8.18543L0.740975 7.98999C0.747933 7.99958 0.755868 8.00813 0.762905 8.01762C0.768178 8.08514 0.773439 8.15131 0.778696 8.21479C0.771631 8.20492 0.76421 8.19526 0.75709 8.18543ZM0.730144 7.85853L0.710102 7.61524C0.718499 7.63114 0.727304 7.64704 0.736517 7.66306C0.742087 7.74086 0.74766 7.81758 0.753245 7.89172C0.745512 7.88066 0.737984 7.86953 0.730144 7.85853ZM0.700984 7.50469L0.669034 7.11698C0.680233 7.134 0.691756 7.15079 0.702653 7.168C0.711023 7.29586 0.719476 7.42131 0.727969 7.54295C0.719069 7.53012 0.709936 7.51747 0.700984 7.50469ZM0.521055 5.87261C0.529944 6.00315 0.539061 6.13529 0.548369 6.268C0.524928 6.23519 0.500237 6.20327 0.476076 6.17096L0.43383 5.73656C0.462421 5.78235 0.491962 5.82724 0.521055 5.87261ZM0.423664 5.63209L0.389057 5.27617C0.423558 5.32648 0.458248 5.37665 0.491297 5.42794C0.49839 5.53515 0.505593 5.64374 0.513065 5.75448C0.483742 5.71333 0.453873 5.67252 0.423664 5.63209ZM0.552554 6.32768C0.560054 6.43414 0.567664 6.54083 0.575382 6.64724C0.555572 6.62249 0.535474 6.59799 0.515241 6.57359L0.480997 6.22146C0.50494 6.25679 0.529224 6.29194 0.552554 6.32768ZM0.579472 6.70339C0.585291 6.78326 0.591145 6.86298 0.597042 6.94216C0.58014 6.92107 0.56253 6.90064 0.545054 6.88007L0.520106 6.62358C0.539876 6.65019 0.560054 6.67654 0.579472 6.70339ZM0.602778 7.01868C0.612671 7.15021 0.622659 7.28043 0.632698 7.40789C0.623134 7.39459 0.613977 7.38101 0.60438 7.36775C0.599922 7.3616 0.595195 7.35565 0.590709 7.34952L0.551767 6.9491C0.568887 6.97221 0.5862 6.99517 0.602778 7.01868ZM0.639209 7.48987C0.64663 7.58295 0.654062 7.6749 0.661507 7.76448C0.649877 7.74886 0.638299 7.73324 0.626532 7.7177L0.598482 7.42943C0.61188 7.4497 0.625879 7.46957 0.639209 7.48987ZM0.67197 7.88867C0.677895 7.95837 0.683793 8.02716 0.689702 8.09389C0.679378 8.08007 0.669458 8.06602 0.659062 8.05225L0.638339 7.83921C0.649387 7.85584 0.660748 7.87219 0.67197 7.88867ZM0.66121 7.02216L0.642239 6.79201C0.655625 6.81098 0.669034 6.82995 0.682325 6.84902C0.686973 6.92339 0.691649 6.9974 0.696348 7.07046C0.684703 7.05431 0.673113 7.03812 0.66121 7.02216ZM0.636721 6.72504L0.611639 6.42075C0.628027 6.44662 0.644767 6.47226 0.660882 6.49832C0.666535 6.59299 0.67227 6.68733 0.678057 6.78078C0.664224 6.76223 0.650839 6.74339 0.636721 6.72504ZM0.60597 6.35195L0.573044 5.95251C0.593427 5.98342 0.613486 6.01457 0.634383 6.04497C0.64167 6.17253 0.649086 6.30031 0.656642 6.42752C0.639929 6.40221 0.623134 6.37695 0.60597 6.35195ZM0.562637 5.82615L0.535841 5.50111C0.561426 5.5441 0.586635 5.58744 0.611243 5.63136C0.616556 5.72822 0.621991 5.82575 0.627509 5.92364C0.606366 5.89092 0.584812 5.85841 0.562637 5.82615ZM0.526273 5.38505L0.49021 4.9474C0.520782 4.9977 0.551644 5.04778 0.582573 5.09781C0.58946 5.22864 0.59658 5.36219 0.603945 5.49771C0.578918 5.4597 0.553096 5.42212 0.526273 5.38505ZM0.482354 4.85217L0.442406 4.3674C0.481852 4.43569 0.519303 4.50485 0.5556 4.57463C0.562407 4.7093 0.569567 4.849 0.577094 4.99319C0.546439 4.94564 0.514738 4.89869 0.482354 4.85217ZM0.484775 5.32893C0.450788 5.28372 0.416287 5.23915 0.381217 5.1956L0.33212 4.69079C0.374192 4.75768 0.415461 4.82507 0.456536 4.89258C0.465463 5.03231 0.474854 5.17786 0.484775 5.32893ZM0.385169 5.58131C0.345462 5.5289 0.305637 5.47698 0.265943 5.42569L0.222637 5.04412C0.268387 5.10512 0.3136 5.1665 0.357274 5.229C0.366146 5.34215 0.375454 5.45974 0.385169 5.58131ZM0.392237 5.66988C0.403621 5.81147 0.415445 5.95732 0.427687 6.106C0.395469 6.0641 0.362341 6.0229 0.32905 5.98179L0.27203 5.47939C0.312172 5.54266 0.352487 5.60594 0.392237 5.66988ZM0.431235 6.14891C0.441006 6.26733 0.451006 6.38728 0.461199 6.50795C0.433925 6.47597 0.405852 6.44482 0.378037 6.41338L0.332405 6.0113C0.365929 6.05679 0.398978 6.10262 0.431235 6.14891ZM0.464664 6.54904C0.472041 6.63611 0.479502 6.72346 0.487045 6.8108C0.463493 6.78468 0.438803 6.75955 0.41444 6.73416L0.381514 6.44404C0.409424 6.47891 0.437596 6.51363 0.464664 6.54904ZM0.492168 6.86989C0.503623 7.00199 0.515213 7.13388 0.526925 7.26435C0.506325 7.23695 0.486175 7.20921 0.465262 7.18203L0.419669 6.78033C0.444214 6.80988 0.468509 6.83962 0.492168 6.86989ZM0.533029 7.33228C0.542119 7.43303 0.551264 7.5329 0.560421 7.63121C0.543207 7.60894 0.525933 7.58681 0.50869 7.56465L0.472053 7.24177C0.492369 7.27195 0.512847 7.30201 0.533029 7.33228ZM0.570326 7.73658C0.577597 7.81364 0.584867 7.89002 0.592126 7.96469C0.577257 7.94535 0.562419 7.92599 0.547499 7.90669L0.518935 7.65494C0.536031 7.6822 0.553001 7.70943 0.570326 7.73658ZM0.601785 8.06291C0.609843 8.14463 0.617889 8.22516 0.625879 8.30293C0.612738 8.28585 0.599705 8.26869 0.586635 8.25157L0.557502 7.99493C0.572284 8.01758 0.586881 8.04034 0.601785 8.06291ZM0.634087 8.3816C0.642496 8.46228 0.650866 8.54127 0.659142 8.61638C0.647255 8.60223 0.635254 8.58841 0.623268 8.57448L0.594558 8.32148C0.607845 8.34147 0.620566 8.36177 0.634087 8.3816ZM0.667322 8.68903C0.67655 8.77114 0.685696 8.8505 0.694651 8.92407C0.681661 8.90666 0.669703 8.88852 0.656915 8.87096L0.630499 8.63818C0.642607 8.65525 0.655285 8.6719 0.667322 8.68903ZM0.691823 8.38918L0.669826 8.16302C0.679825 8.17776 0.689825 8.19249 0.699908 8.20714C0.706743 8.28237 0.713551 8.35614 0.720319 8.42639C0.710778 8.41401 0.701364 8.40155 0.691823 8.38918ZM0.728906 8.51373C0.736406 8.5895 0.743882 8.66306 0.751248 8.73138C0.741272 8.71835 0.731545 8.70522 0.721312 8.69235L0.700047 8.47361C0.709611 8.48703 0.719203 8.50042 0.728906 8.51373ZM0.7619 8.82732C0.770622 8.90429 0.779238 8.97709 0.787663 9.04123C0.775436 9.02606 0.763123 9.01091 0.75084 8.99594L0.729682 8.77842C0.740429 8.79469 0.751327 8.81081 0.7619 8.82732ZM0.890204 9.92974C0.89026 9.92974 0.890287 9.92977 0.890339 9.92977C0.890422 9.92977 0.890501 9.92978 0.890584 9.92978C0.916675 9.98383 0.948296 10.0404 0.984767 10.0948C0.93798 10.0961 0.891181 10.0973 0.844438 10.0989C0.860759 10.0432 0.875936 9.98678 0.890204 9.92974ZM1.14814 9.64461C1.18625 9.69759 1.22435 9.75068 1.26253 9.80374C1.18668 9.80461 1.11079 9.80448 1.03499 9.80601C1.0063 9.76377 0.976982 9.72215 0.946516 9.68177C0.949696 9.66652 0.95309 9.65137 0.956192 9.63609C0.958949 9.63656 0.961029 9.63787 0.964016 9.63801C1.02533 9.64097 1.08679 9.64215 1.14814 9.64461ZM0.979834 9.51632C0.984917 9.49004 0.990134 9.46383 0.995107 9.43759C1.01459 9.46392 1.03427 9.49001 1.0537 9.5164C1.02908 9.51658 1.00446 9.51625 0.979834 9.51632ZM2.19335 9.80592C2.09209 9.80522 1.99083 9.80424 1.88956 9.80385C1.85255 9.75651 1.8153 9.7094 1.77917 9.66137C1.88341 9.66356 1.9877 9.66455 2.09198 9.66622C2.1256 9.7129 2.15995 9.75908 2.19335 9.80592ZM2.14527 9.66705C2.23757 9.66846 2.32973 9.66981 2.42202 9.67107C2.44933 9.71667 2.47686 9.76236 2.50462 9.80802C2.42177 9.80737 2.33905 9.80695 2.25618 9.80635C2.22007 9.75923 2.18254 9.71325 2.14527 9.66705ZM1.82295 9.80351C1.7485 9.80331 1.67405 9.80223 1.59961 9.80236C1.56056 9.75318 1.52145 9.70403 1.4828 9.65468C1.5658 9.65704 1.64887 9.65848 1.73191 9.6603C1.76151 9.70792 1.79169 9.75577 1.82295 9.80351ZM1.53975 9.80251C1.47256 9.80273 1.40532 9.8024 1.33814 9.803C1.2951 9.75017 1.25108 9.69823 1.20679 9.64672C1.28528 9.64968 1.36385 9.65119 1.44239 9.65351C1.47438 9.70322 1.50677 9.75296 1.53975 9.80251ZM0.981764 9.80676C0.960974 9.80723 0.940156 9.8074 0.919337 9.80764C0.924855 9.78325 0.9301 9.75876 0.935385 9.73424C0.950401 9.75861 0.965214 9.78308 0.981764 9.80676ZM0.919772 9.93037C0.971761 9.93168 1.02381 9.9323 1.0758 9.93358C1.09221 9.95494 1.10877 9.97643 1.1245 9.99722C1.14708 10.0271 1.16994 10.0578 1.19334 10.0886C1.14119 10.09 1.08906 10.0919 1.03691 10.0932C0.994933 10.041 0.956271 9.98648 0.919772 9.93037ZM1.15456 9.97404C1.14455 9.96134 1.13533 9.94771 1.12565 9.93461C1.20418 9.93639 1.28278 9.9367 1.36135 9.93784C1.39725 9.98652 1.4328 10.0356 1.46978 10.0831C1.39684 10.0844 1.32385 10.0852 1.25093 10.0869C1.2178 10.0497 1.18488 10.0125 1.15456 9.97404ZM1.44497 9.93899C1.50773 9.93975 1.57053 9.93905 1.63331 9.9395C1.66666 9.98709 1.70089 10.0339 1.73577 10.0801C1.67309 10.0808 1.61036 10.0808 1.54769 10.0818C1.51466 10.0336 1.48057 9.98593 1.44497 9.93899ZM1.70721 9.9397C1.77675 9.9401 1.84632 9.93969 1.9159 9.93986C1.94935 9.98707 1.98414 10.0329 2.01978 10.0778C1.95139 10.0783 1.88299 10.0786 1.8146 10.0793C1.7792 10.0326 1.74349 9.98596 1.70721 9.9397ZM1.99763 9.9417C1.99716 9.94111 1.99672 9.94051 1.99623 9.93992C2.09323 9.94006 2.1901 9.93994 2.28709 9.93988C2.31701 9.98469 2.34704 10.0299 2.37771 10.0749C2.28945 10.0755 2.20133 10.0764 2.11307 10.0771C2.07384 10.0321 2.03466 9.98728 1.99763 9.9417ZM2.36085 9.93987C2.43615 9.9398 2.51138 9.93992 2.58669 9.93983C2.61528 9.98476 2.64459 10.029 2.6746 10.0726C2.60335 10.073 2.53216 10.0738 2.4609 10.0743C2.42911 10.0284 2.39521 9.98368 2.36085 9.93987ZM2.57992 9.80853C2.54592 9.7627 2.51172 9.71715 2.47738 9.67188C2.58169 9.67329 2.68588 9.67503 2.79018 9.67643C2.81835 9.72127 2.84681 9.76589 2.87528 9.81051C2.77681 9.80976 2.6784 9.80929 2.57992 9.80853ZM3.52436 9.81294C3.45119 9.81328 3.37801 9.81367 3.30512 9.8134C3.29154 9.81336 3.27794 9.8132 3.26435 9.81314C3.23454 9.7697 3.2046 9.72634 3.17612 9.68204C3.2434 9.68302 3.31074 9.68375 3.37795 9.68497C3.39831 9.68534 3.41881 9.68601 3.43919 9.68643C3.4666 9.72937 3.49484 9.77174 3.52436 9.81294ZM3.50946 9.6881C3.59893 9.69019 3.68862 9.69276 3.77841 9.69549C3.80307 9.73404 3.82841 9.77233 3.85443 9.8105C3.77135 9.81138 3.68834 9.81221 3.6055 9.81277C3.57611 9.77602 3.54691 9.73933 3.51942 9.70225C3.51598 9.69762 3.51289 9.69274 3.50946 9.6881ZM3.2091 9.81276C3.11932 9.81222 3.02952 9.8116 2.93972 9.81094C2.91035 9.76634 2.88085 9.7218 2.85122 9.67731C2.9451 9.67859 3.03892 9.68009 3.13277 9.68141C3.15738 9.72509 3.18276 9.76898 3.2091 9.81276ZM2.95671 9.93978C2.98351 9.98295 3.0105 10.0263 3.03775 10.0697C2.94648 10.0704 2.85525 10.0712 2.76398 10.0719C2.73543 10.0274 2.70548 9.98345 2.67485 9.93982C2.76883 9.93972 2.86274 9.93985 2.95671 9.93978ZM3.02601 9.93977C3.114 9.93974 3.20206 9.93955 3.28998 9.93973C3.31906 9.98306 3.34917 10.0253 3.38094 10.0655C3.33061 10.0664 3.28014 10.0676 3.22994 10.0681C3.19092 10.0686 3.15178 10.0687 3.11273 10.0691C3.08431 10.0256 3.05517 9.98257 3.02601 9.93977ZM3.35522 9.94016C3.44532 9.9406 3.53572 9.94164 3.62622 9.94286C3.66135 9.98382 3.69824 10.0223 3.737 10.0576C3.64133 10.0601 3.54576 10.0624 3.4504 10.0643C3.41888 10.0227 3.38688 9.98141 3.35522 9.94016ZM3.70652 9.94402C3.78855 9.94526 3.87068 9.94668 3.9529 9.9481C3.97919 9.98293 4.00615 10.0169 4.03371 10.0499C3.94919 10.0521 3.86472 10.0543 3.78037 10.0565C3.75838 10.0177 3.73305 9.98057 3.70652 9.94402ZM3.93682 9.80963C3.93463 9.80677 3.93226 9.80394 3.93011 9.80108C3.90409 9.76669 3.87809 9.73224 3.85215 9.69778C3.96022 9.70118 4.06852 9.70472 4.17689 9.70817C4.19424 9.74118 4.21221 9.77415 4.23091 9.80694C4.13284 9.80778 4.03474 9.80855 3.93682 9.80963ZM4.32066 9.95342C4.34032 9.98363 4.36027 10.0135 4.38104 10.0427C4.29526 10.0443 4.20948 10.0457 4.12375 10.0478C4.09861 10.0148 4.07328 9.98202 4.0473 9.94965C4.13834 9.95119 4.22952 9.95224 4.32066 9.95342ZM4.29051 9.80639C4.26988 9.77422 4.24887 9.74226 4.22873 9.70978C4.32481 9.71278 4.42096 9.71517 4.51711 9.71754C4.53468 9.74699 4.55258 9.77642 4.5706 9.80579C4.47724 9.80568 4.38388 9.8057 4.29051 9.80639ZM4.66629 9.95579C4.68486 9.98376 4.7036 10.0116 4.72291 10.0389C4.6326 10.0392 4.54222 10.0399 4.45183 10.0413C4.43065 10.0125 4.40991 9.98342 4.38919 9.95436C4.48158 9.95538 4.57395 9.95572 4.66629 9.95579ZM4.62609 9.80567C4.60506 9.77674 4.58395 9.74785 4.56316 9.71879C4.67411 9.72135 4.78505 9.72306 4.89588 9.72393C4.91335 9.7528 4.93118 9.78128 4.94904 9.80987C4.8415 9.80758 4.73385 9.80605 4.62609 9.80567ZM5.04168 9.952C5.06225 9.98275 5.08248 10.0137 5.10376 10.0439C5.00028 10.0415 4.8968 10.0391 4.79304 10.039C4.77355 10.0112 4.75396 9.98352 4.73409 9.95596C4.83676 9.95569 4.93927 9.9542 5.04168 9.952ZM4.86199 9.57524C4.84239 9.54623 4.82283 9.51717 4.80334 9.48813C4.91024 9.4915 5.01705 9.49368 5.12379 9.49511C5.13865 9.5257 5.15398 9.55623 5.16947 9.58679C5.06712 9.58203 4.96464 9.57801 4.86199 9.57524ZM4.80682 9.57342C4.69118 9.57064 4.57543 9.56878 4.45968 9.56757C4.44408 9.54425 4.42743 9.52148 4.41238 9.49786C4.4049 9.48611 4.38642 9.49673 4.39362 9.50883C4.40509 9.52813 4.41665 9.5478 4.42819 9.56732C4.33133 9.5664 4.23447 9.56543 4.13772 9.56496C4.11753 9.5326 4.09778 9.49995 4.07699 9.46795C4.072 9.46026 4.06146 9.4669 4.06498 9.47497C4.07785 9.50455 4.09179 9.53467 4.10589 9.56481C3.98686 9.56426 3.8679 9.56377 3.74927 9.56293C3.71712 9.52102 3.68475 9.47929 3.65176 9.43806C4.01803 9.45309 4.38729 9.4744 4.75616 9.48682C4.77277 9.51583 4.79 9.54445 4.80682 9.57342ZM3.69549 9.5625C3.60308 9.56174 3.5108 9.56076 3.4188 9.55918C3.38745 9.51518 3.35606 9.47122 3.32558 9.42663C3.36743 9.42794 3.40935 9.42881 3.45119 9.43021C3.50745 9.43209 3.56398 9.43458 3.6204 9.43683C3.64455 9.4779 3.6697 9.51997 3.69549 9.5625ZM3.36007 9.55822C3.27212 9.55648 3.18408 9.55435 3.09607 9.55236C3.08457 9.53342 3.07248 9.51487 3.06117 9.4958C3.05203 9.4804 3.02837 9.49418 3.03714 9.50985C3.04473 9.52344 3.05261 9.53768 3.0603 9.55157C2.96046 9.54929 2.86066 9.54723 2.76081 9.54492C2.72929 9.49896 2.69784 9.45294 2.66529 9.40779C2.87099 9.41316 3.07651 9.4191 3.28202 9.42539C3.30743 9.46906 3.33338 9.51341 3.36007 9.55822ZM2.70945 9.54379C2.59798 9.5412 2.48662 9.53892 2.37515 9.53637C2.34403 9.49477 2.31334 9.45324 2.2837 9.41177C2.2773 9.40282 2.26256 9.41096 2.26868 9.42055C2.29279 9.45831 2.3166 9.49674 2.34032 9.53559C2.2376 9.53326 2.135 9.53084 2.03227 9.52876C1.99237 9.48107 1.95244 9.43341 1.91198 9.3862C2.15022 9.39422 2.38859 9.40046 2.62691 9.40669C2.65347 9.45289 2.68174 9.49819 2.70945 9.54379ZM1.9916 9.52792C1.88663 9.52586 1.78164 9.52289 1.67667 9.52147C1.65343 9.48947 1.62942 9.45801 1.60656 9.42576C1.60083 9.41769 1.58768 9.42493 1.59303 9.43367C1.61046 9.46214 1.62842 9.49167 1.64634 9.52109C1.55734 9.51995 1.46832 9.51832 1.37934 9.51784C1.34987 9.4788 1.31937 9.44028 1.29096 9.40068C1.28775 9.39622 1.28037 9.40029 1.28346 9.40507C1.30735 9.44223 1.33134 9.47992 1.35546 9.51773C1.26819 9.51734 1.18085 9.51597 1.0936 9.51644C1.06221 9.48071 1.03125 9.44549 1.00026 9.4102C1.00468 9.38673 1.00908 9.36332 1.01346 9.33991C1.02045 9.34327 1.0284 9.34565 1.03769 9.34624C1.32072 9.36424 1.60438 9.3757 1.88818 9.3854C1.92334 9.43241 1.95694 9.48055 1.9916 9.52792ZM0.712981 4.18735C0.713076 4.18754 0.713306 4.18733 0.713416 4.1875C0.73058 4.43535 0.748324 4.68315 0.766548 4.93092C0.714868 4.80451 0.653952 4.68167 0.586105 4.56249L0.550244 4.04102C0.596501 4.13458 0.644656 4.22702 0.698915 4.31464C0.705576 4.32541 0.720184 4.31603 0.715426 4.30499C0.666289 4.19051 0.606635 4.07924 0.545284 3.96899L0.534374 3.81044C0.59624 3.93513 0.648762 4.06337 0.712981 4.18735ZM0.488525 3.18057C0.493445 3.289 0.502005 3.47529 0.513556 3.71788C0.506681 3.70609 0.499802 3.69387 0.492982 3.68222C0.485344 3.66918 0.465151 3.68093 0.472706 3.69407C0.488267 3.72114 0.502156 3.74882 0.51634 3.7764C0.518706 3.8259 0.521166 3.87697 0.523745 3.93047C0.483101 3.85797 0.442216 3.78573 0.403297 3.71344C0.399832 3.707 0.390291 3.71268 0.393539 3.71915C0.438791 3.80925 0.482136 3.90176 0.526819 3.99363C0.534425 4.15063 0.542879 4.32183 0.552091 4.50493C0.51562 4.44328 0.477924 4.38243 0.438708 4.32263L0.378551 3.59268C0.414278 3.45521 0.450436 3.31773 0.488525 3.18057ZM0.376988 3.59859C0.384164 3.72084 0.398812 3.9676 0.41891 4.29329C0.390319 4.25031 0.361906 4.20715 0.332393 4.1651C0.327947 4.15877 0.317524 4.16461 0.321875 4.17124C0.356795 4.22446 0.389326 4.27856 0.421354 4.33288C0.43031 4.47782 0.440258 4.6367 0.451101 4.8073C0.410362 4.74992 0.368796 4.69346 0.326958 4.63763L0.268906 4.04079C0.303232 3.89299 0.338888 3.74544 0.376988 3.59859ZM0.267276 4.04772C0.275333 4.15713 0.290036 4.35517 0.309795 4.61476C0.274641 4.56807 0.239432 4.52171 0.204496 4.47607C0.200529 4.47088 0.191613 4.47567 0.195486 4.48133C0.236157 4.54069 0.274859 4.60134 0.313394 4.6621C0.324782 4.81124 0.337678 4.97846 0.351823 5.1593C0.306547 5.10383 0.261485 5.04998 0.217376 4.99766L0.1646 4.53261C0.196031 4.37009 0.230042 4.20834 0.267276 4.04772ZM0.571307 9.24028C0.579365 9.23727 0.579108 9.22324 0.569104 9.22405C0.548001 9.22577 0.534046 9.23261 0.524766 9.24218C0.438518 8.57671 0.334592 7.91244 0.269558 7.24461C0.191123 6.43919 0.163691 5.62495 0.0689617 4.82095C0.0874146 4.82791 0.109321 4.82246 0.113521 4.79759C0.127896 4.71257 0.146064 4.62891 0.16229 4.54456C0.171503 4.64663 0.184983 4.79527 0.201941 4.97932C0.198464 4.97519 0.194821 4.97084 0.191356 4.96673C0.183812 4.95779 0.167725 4.96994 0.174952 4.97938C0.185525 4.99314 0.195351 5.00743 0.205814 5.02127C0.216237 5.13408 0.227771 5.2583 0.24037 5.39257C0.212214 5.35621 0.184248 5.32008 0.156772 5.28423C0.153129 5.27949 0.144977 5.28386 0.148509 5.28906C0.181368 5.33737 0.212744 5.38747 0.244555 5.43704C0.259218 5.59297 0.275076 5.76029 0.292006 5.93631C0.271081 5.91092 0.250955 5.88491 0.229662 5.8598C0.225991 5.85547 0.220121 5.86164 0.223519 5.86595C0.247897 5.89698 0.27063 5.92901 0.294316 5.96046C0.306859 6.09078 0.319917 6.22524 0.333398 6.36261C0.326713 6.3552 0.320297 6.34751 0.313612 6.34012C0.308284 6.33425 0.300036 6.34281 0.304996 6.34873C0.31557 6.36133 0.325352 6.37441 0.335787 6.38709C0.345423 6.48506 0.355248 6.58425 0.365236 6.68434C0.337041 6.65605 0.310119 6.62662 0.281069 6.59909C0.274139 6.59253 0.264123 6.60257 0.270618 6.60954C0.30417 6.64567 0.336578 6.68281 0.368808 6.72009C0.381692 6.84894 0.394844 6.97894 0.408174 7.10894C0.376881 7.06889 0.345708 7.02874 0.31413 6.98893C0.310487 6.98432 0.302552 6.99039 0.305934 6.99524C0.342365 7.04755 0.376909 7.10114 0.412783 7.15383C0.424195 7.26477 0.435705 7.37562 0.447295 7.48558C0.405038 7.4312 0.3631 7.37697 0.322674 7.32278C0.318437 7.3171 0.308857 7.32225 0.312904 7.32849C0.360505 7.40163 0.40732 7.47674 0.454336 7.55233C0.463996 7.6435 0.473687 7.73405 0.483386 7.8234C0.438273 7.76521 0.393214 7.7071 0.348943 7.6488C0.343682 7.64187 0.331875 7.64817 0.33693 7.65583C0.388582 7.73418 0.4397 7.81342 0.490941 7.8927C0.501052 7.98523 0.511162 8.07664 0.521233 8.16598C0.472271 8.10082 0.4241 8.03507 0.377479 7.96818C0.374651 7.9641 0.368021 7.9678 0.370727 7.97213C0.421968 8.05402 0.474173 8.13666 0.527254 8.21908C0.538203 8.31561 0.549089 8.41016 0.55988 8.50146C0.529303 8.46666 0.499015 8.43234 0.470127 8.39913C0.466306 8.39472 0.458316 8.40072 0.461947 8.40545C0.497725 8.45221 0.530921 8.5008 0.565465 8.5484C0.57503 8.62864 0.584515 8.70724 0.593862 8.78225C0.569377 8.7474 0.543749 8.71337 0.519861 8.6781C0.513651 8.66893 0.499015 8.67716 0.504829 8.68688C0.535624 8.73815 0.56878 8.78795 0.600848 8.83841C0.613799 8.94113 0.626504 9.03817 0.638869 9.12817C0.598811 9.0726 0.558262 9.01737 0.520213 8.96037C0.509137 8.94375 0.482643 8.95877 0.493184 8.97617C0.543776 9.05966 0.596987 9.14145 0.652049 9.22204C0.66708 9.32729 0.681566 9.42235 0.695248 9.50253C0.659454 9.45891 0.486867 9.2719 0.571307 9.24028ZM0.695126 9.2077L0.664648 8.93913C0.670692 8.94825 0.676103 8.95775 0.682191 8.96683C0.689362 8.9775 0.69666 8.98883 0.703875 8.9999C0.716161 9.09761 0.728131 9.18611 0.73967 9.26362C0.724789 9.24562 0.710181 9.22782 0.696811 9.21008C0.696214 9.20931 0.695695 9.20848 0.695126 9.2077ZM0.705889 9.30258C0.721731 9.32591 0.738732 9.34886 0.756544 9.37095C0.773992 9.47519 0.790218 9.54862 0.805004 9.58827C0.801361 9.60218 0.798319 9.61615 0.794783 9.63007C0.776207 9.60215 0.755678 9.57522 0.733879 9.54928L0.705889 9.30258ZM0.759713 9.77687L0.741054 9.61249C0.755488 9.63026 0.7708 9.64688 0.786864 9.6625C0.777446 9.70063 0.768122 9.73871 0.759713 9.77687ZM0.787366 10.2768C0.794079 10.2579 0.799771 10.2384 0.806144 10.2193C0.809731 10.2199 0.812666 10.2215 0.816661 10.2215C0.90681 10.2231 0.997065 10.2227 1.08728 10.223C1.12463 10.2613 1.16475 10.2949 1.20801 10.3188C1.2175 10.3241 1.23143 10.3128 1.22408 10.3028C1.20318 10.2743 1.17857 10.2488 1.15388 10.2233C1.20474 10.2233 1.25556 10.2242 1.30644 10.2241C1.34026 10.2605 1.37541 10.2951 1.41435 10.324C1.42326 10.3306 1.43472 10.3178 1.42921 10.3091C1.41084 10.2799 1.39031 10.2518 1.36873 10.2244C1.44084 10.2241 1.513 10.223 1.58512 10.2223C1.6082 10.2497 1.62994 10.2785 1.65375 10.3051C1.66516 10.3179 1.68503 10.3015 1.67697 10.2872C1.66459 10.2651 1.65084 10.2436 1.63769 10.2218C1.70707 10.221 1.77645 10.2193 1.84585 10.2183C1.88962 10.2707 1.93498 10.321 1.98168 10.3696C1.58156 10.3674 1.18263 10.347 0.787366 10.2768ZM2.02003 10.3696C1.98608 10.3181 1.95052 10.2675 1.91459 10.2171C1.98865 10.216 2.06271 10.2145 2.13677 10.2131C2.18837 10.2684 2.24158 10.3208 2.29815 10.3665C2.29974 10.3678 2.30165 10.3677 2.30343 10.3683C2.20892 10.3695 2.11446 10.3698 2.02003 10.3696ZM5.44884 10.3371C4.67653 10.338 3.9041 10.351 3.13179 10.3556C2.86041 10.3572 2.58848 10.3646 2.31675 10.3681C2.32486 10.3646 2.33034 10.3564 2.3241 10.3464C2.29479 10.2996 2.26113 10.2552 2.22618 10.2115C2.30944 10.21 2.39259 10.2089 2.47584 10.2073C2.50306 10.2402 2.53157 10.2717 2.56261 10.3001C2.56963 10.3066 2.58403 10.3004 2.58004 10.29C2.56909 10.2614 2.55573 10.2336 2.54144 10.2062C2.6173 10.2048 2.6931 10.2037 2.76897 10.2023C2.80425 10.2481 2.84039 10.2929 2.87865 10.3353C2.89119 10.3491 2.91067 10.3315 2.90325 10.3163C2.8843 10.2775 2.86381 10.2391 2.84227 10.2011C2.9357 10.1994 3.02911 10.1978 3.12251 10.1963C3.15314 10.2389 3.18508 10.2803 3.2207 10.3183C3.22936 10.3275 3.2486 10.3179 3.24323 10.3052C3.22739 10.2676 3.20899 10.2311 3.18922 10.1952C3.2033 10.195 3.2174 10.1947 3.23148 10.1945C3.31911 10.1934 3.40709 10.193 3.49514 10.1927C3.51087 10.2081 3.52631 10.2241 3.54278 10.2384C3.55153 10.2459 3.56515 10.2365 3.55917 10.2257C3.55284 10.2143 3.54509 10.2036 3.53827 10.1924C3.74634 10.192 3.95539 10.1929 4.16457 10.1928C4.18638 10.2144 4.20813 10.2361 4.23065 10.2559C4.2423 10.2662 4.26039 10.2533 4.25251 10.239C4.24375 10.2232 4.23303 10.2082 4.22349 10.1927C4.31461 10.1926 4.40573 10.1917 4.49682 10.1908C4.53545 10.2362 4.57503 10.2799 4.61651 10.3194C4.62533 10.3278 4.63999 10.317 4.63359 10.3062C4.61027 10.2667 4.58499 10.2283 4.55888 10.1904C4.65082 10.1892 4.74271 10.1874 4.83449 10.1849C4.87104 10.2294 4.90857 10.2728 4.94853 10.3133C4.95651 10.3213 4.96999 10.311 4.96423 10.3011C4.94072 10.2609 4.91428 10.2221 4.88887 10.1829C4.99228 10.1796 5.09539 10.1745 5.19837 10.1689C5.22187 10.1993 5.24359 10.2314 5.26808 10.261C5.27779 10.2726 5.29556 10.2577 5.28858 10.2451C5.27384 10.2187 5.25719 10.1931 5.2419 10.1669C5.34097 10.1611 5.43949 10.1523 5.53799 10.1435C5.53848 10.144 5.53892 10.1446 5.53941 10.1451C5.54459 10.1506 5.5513 10.1475 5.55402 10.1423C5.58458 10.1395 5.61543 10.1382 5.6459 10.135C5.68831 10.1306 5.68767 10.0723 5.6451 10.0689C5.6014 10.0655 5.5575 10.0633 5.51367 10.0606C5.49095 10.019 5.46853 9.97721 5.44423 9.93637C5.50832 9.93282 5.57213 9.92786 5.63598 9.92305C5.64274 9.92743 5.65116 9.92673 5.65619 9.92164C5.67716 9.92001 5.69826 9.91912 5.7192 9.91727C5.76166 9.91352 5.76192 9.85521 5.7194 9.85119C5.69108 9.84851 5.66251 9.84729 5.63412 9.84492C5.61662 9.79997 5.59757 9.75548 5.57583 9.71168C5.6482 9.70849 5.72046 9.70475 5.79251 9.69952C5.83502 9.69643 5.83617 9.63813 5.79373 9.63345C5.70379 9.62355 5.61349 9.61547 5.52297 9.60851C5.50199 9.57027 5.48038 9.53239 5.4588 9.49464C5.59485 9.49298 5.73066 9.48953 5.86581 9.48177C5.90837 9.47933 5.91041 9.42104 5.86804 9.41572C5.70937 9.39579 5.54944 9.3818 5.38908 9.37003C5.38276 9.35855 5.37594 9.34698 5.3698 9.33552C5.35521 9.30828 5.31455 9.33234 5.32849 9.35965C5.3296 9.36181 5.33063 9.36413 5.33173 9.36629C5.25024 9.36069 5.16885 9.35451 5.0871 9.35031C5.07487 9.32834 5.06136 9.30705 5.04965 9.28479C5.04254 9.27127 5.02304 9.28314 5.02937 9.29664C5.0374 9.31373 5.04565 9.33119 5.05378 9.34847C4.93678 9.34272 4.81966 9.33778 4.70238 9.33412C4.68227 9.30327 4.66145 9.27271 4.64177 9.24168C4.63431 9.2299 4.61605 9.24042 4.62299 9.25265C4.6381 9.2792 4.65349 9.30618 4.66862 9.33288C4.26307 9.32071 3.85679 9.31768 3.45546 9.30393C2.65169 9.27636 1.846 9.22789 1.0418 9.22456C1.03923 9.22454 1.03742 9.22562 1.03502 9.22585C1.04924 9.15044 1.06377 9.07585 1.07883 9.00229C1.87964 9.09246 2.69822 9.05883 3.50332 9.07687C4.30263 9.09477 5.10626 9.1614 5.90521 9.15437C5.90747 9.24854 5.91034 9.34269 5.91253 9.43687C5.91508 9.54801 6.08757 9.54849 6.08556 9.43687C6.06336 8.20332 6.02585 6.96988 5.9721 5.73731C5.92364 4.62609 5.96661 3.42626 5.75049 2.3307C5.94375 2.18552 6.49915 2.21391 6.67903 2.20043C7.01241 2.17545 7.34699 2.16208 7.6813 2.16044C8.40845 2.15687 9.13153 2.2121 9.85088 2.31584C10.2279 4.69429 9.94349 7.13112 10.2423 9.51476C10.2539 9.60704 10.3769 9.61681 10.3965 9.53202C11.1497 9.6203 11.9059 9.66883 12.6642 9.67973C12.9771 9.68423 13.2951 9.68881 13.6134 9.68498C13.6262 9.70841 13.6401 9.73062 13.6532 9.75368C13.3037 9.76784 12.9539 9.77979 12.6033 9.77585C12.527 9.775 12.4508 9.77225 12.3745 9.7706C12.3612 9.74685 12.3464 9.72411 12.3337 9.69996C12.33 9.69295 12.3199 9.6991 12.3231 9.70611C12.333 9.7272 12.3432 9.74876 12.3533 9.77012C12.2458 9.7677 12.1384 9.76611 12.031 9.76272C12.0135 9.73491 11.9962 9.70706 11.9796 9.67901C11.9707 9.66404 11.9481 9.67731 11.9563 9.69262C11.9683 9.71525 11.9804 9.73835 11.9925 9.76138C11.8743 9.75754 11.7561 9.75367 11.638 9.74903C11.6168 9.71997 11.5955 9.69092 11.5749 9.66184C11.5647 9.64744 11.5409 9.66075 11.5509 9.67589C11.5664 9.69944 11.5816 9.72353 11.597 9.74744C11.5063 9.7438 11.4155 9.7409 11.3248 9.73687C11.3167 9.72261 11.308 9.70877 11.3 9.69444C11.2934 9.68265 11.2759 9.69306 11.282 9.70498C11.2871 9.71498 11.2924 9.72555 11.2976 9.73569C11.1775 9.7303 11.0574 9.72615 10.9374 9.72003C10.9329 9.71335 10.9283 9.7066 10.9239 9.69992C10.9211 9.69573 10.9146 9.69944 10.9171 9.70387C10.92 9.70901 10.9228 9.71432 10.9257 9.71949C10.7444 9.71021 10.5632 9.70016 10.382 9.68969C10.3707 9.63324 10.2828 9.62326 10.2666 9.68524C10.2659 9.68769 10.2654 9.69019 10.2648 9.69265C9.54108 9.62776 8.81634 9.57495 8.09017 9.5476C7.43132 9.52278 6.69216 9.42763 6.0447 9.57233C6.02733 9.50736 5.92258 9.49464 5.89247 9.5727C5.80999 9.78659 5.73273 10.0026 5.64461 10.2143C5.61098 10.2951 5.57079 10.3759 5.53424 10.458C5.54903 10.4042 5.52117 10.337 5.44884 10.3371ZM13.9931 10.1819C14.0696 10.1789 14.146 10.1749 14.2223 10.1703C14.2396 10.1967 14.2577 10.2224 14.2773 10.2464C14.2001 10.2487 14.1229 10.2508 14.0456 10.2534C14.028 10.2296 14.0106 10.2057 13.9931 10.1819ZM14.0002 10.255C13.8902 10.2589 13.7802 10.2625 13.6701 10.2668C13.6536 10.2417 13.6369 10.2168 13.62 10.192C13.7276 10.1906 13.8352 10.1879 13.9426 10.1842C13.9616 10.2078 13.9802 10.232 14.0002 10.255ZM14.221 10.079C14.2109 10.063 14.2008 10.0471 14.1913 10.0308C14.1839 10.0181 14.1775 10.0049 14.1703 9.99202C14.224 9.98907 14.2774 9.98433 14.3309 9.98051C14.3428 10.0126 14.3555 10.0443 14.3685 10.0758C14.3194 10.0772 14.2702 10.0774 14.221 10.079ZM14.1208 9.90055C14.109 9.87728 14.0983 9.85349 14.0871 9.8299C14.1491 9.82696 14.2107 9.82177 14.2725 9.81774C14.2815 9.84353 14.2909 9.86921 14.3001 9.89506C14.2403 9.89689 14.1806 9.89849 14.1208 9.90055ZM14.1251 9.99475C14.1389 10.0238 14.1536 10.0525 14.1689 10.0807C14.0879 10.0834 14.0068 10.0859 13.9258 10.0889C13.9058 10.0611 13.886 10.0332 13.8664 10.0051C13.9528 10.0026 14.039 9.9991 14.1251 9.99475ZM13.8026 9.91174C13.7868 9.88839 13.7707 9.86522 13.7553 9.84163C13.8549 9.83955 13.9544 9.83613 14.0537 9.83171C14.0633 9.85487 14.0731 9.87828 14.0832 9.90187C13.9897 9.90517 13.8961 9.90818 13.8026 9.91174ZM13.8108 10.0069C13.8301 10.0351 13.8495 10.0634 13.8697 10.091C13.7662 10.0949 13.6627 10.0986 13.5592 10.1025C13.5388 10.0726 13.519 10.0421 13.4991 10.0117C13.603 10.011 13.707 10.0094 13.8108 10.0069ZM10.4121 9.73739C10.5937 9.75204 10.7755 9.76549 10.9575 9.77718C10.9827 9.82335 11.008 9.86992 11.0332 9.91694C10.9172 9.91409 10.801 9.91148 10.685 9.90866C10.6627 9.88025 10.6406 9.8519 10.6189 9.82362C10.6143 9.81758 10.6039 9.82313 10.6084 9.82976C10.6258 9.85537 10.6425 9.88202 10.6596 9.90806C10.5627 9.90571 10.4657 9.9033 10.3688 9.9011C10.3699 9.89333 10.3714 9.88561 10.3723 9.87783C10.4339 9.86435 10.4473 9.78618 10.4121 9.73739ZM13.1301 9.93523C13.1105 9.90496 13.0913 9.87469 13.072 9.84443C13.1699 9.84521 13.2681 9.84551 13.3664 9.84547C13.3795 9.87215 13.393 9.89907 13.4067 9.92628C13.3145 9.92945 13.2223 9.93282 13.1301 9.93523ZM13.4516 10.0119C13.4684 10.043 13.4858 10.0739 13.504 10.1045C13.4176 10.1078 13.3313 10.1111 13.2449 10.114C13.2233 10.08 13.2015 10.0463 13.1797 10.0126C13.2702 10.0129 13.3609 10.0123 13.4516 10.0119ZM13.0979 9.93599C13.0132 9.93808 12.9285 9.94101 12.8437 9.94201C12.8299 9.91938 12.8156 9.8967 12.8023 9.87407C12.7918 9.85622 12.7643 9.87224 12.7745 9.89031C12.7841 9.90734 12.7934 9.92523 12.8029 9.94252C12.7342 9.94316 12.6655 9.94552 12.5967 9.94514C12.5561 9.94492 12.5155 9.94389 12.475 9.94336C12.4528 9.90787 12.4329 9.87088 12.4117 9.83476C12.4934 9.83661 12.575 9.83981 12.6567 9.84056C12.7853 9.84175 12.9149 9.84311 13.0449 9.84421C13.0626 9.8747 13.0803 9.90524 13.0979 9.93599ZM12.4364 9.9428C12.3394 9.9414 12.2424 9.94012 12.1454 9.93856C12.1206 9.90133 12.0961 9.86405 12.0719 9.82671C12.1757 9.83027 12.2797 9.83161 12.3836 9.83409C12.4008 9.87019 12.4184 9.90647 12.4364 9.9428ZM12.0854 9.93768C11.9817 9.9359 11.8779 9.93528 11.7742 9.93314C11.7439 9.89264 11.7139 9.85221 11.684 9.81188C11.7979 9.8169 11.9119 9.82088 12.0258 9.82495C12.0454 9.8624 12.0653 9.89997 12.0854 9.93768ZM11.1109 9.97505C11.2161 9.97884 11.3213 9.98131 11.4265 9.98465C11.452 10.0322 11.4784 10.0796 11.5059 10.1266C11.4084 10.1264 11.3108 10.1261 11.2133 10.126C11.1794 10.0754 11.1452 10.025 11.1109 9.97505ZM11.1462 10.1259C11.049 10.1259 10.9517 10.1253 10.8544 10.1256C10.8121 10.0705 10.7693 10.016 10.7268 9.96193C10.839 9.96659 10.9513 9.96932 11.0636 9.97344C11.0908 10.0243 11.1184 10.0751 11.1462 10.1259ZM11.475 9.98613C11.5673 9.989 11.6596 9.99101 11.7519 9.99353C11.7798 10.0382 11.8079 10.0828 11.8363 10.1273C11.7463 10.127 11.6563 10.127 11.5663 10.1267C11.5348 10.0805 11.5049 10.0333 11.475 9.98613ZM11.7135 9.93188C11.621 9.92993 11.5285 9.92825 11.436 9.92611C11.4099 9.88387 11.3855 9.84062 11.3605 9.79772C11.4526 9.80251 11.5448 9.80565 11.637 9.80982C11.6625 9.85027 11.688 9.89098 11.7135 9.93188ZM11.3947 9.92518C11.2871 9.92267 11.1793 9.9205 11.0717 9.91786C11.0395 9.87107 11.0078 9.82457 10.9765 9.77824C11.0936 9.7857 11.211 9.78988 11.3283 9.79609C11.3499 9.83854 11.3719 9.88156 11.3947 9.92518ZM10.6939 9.96052C10.7294 10.0154 10.7652 10.0702 10.8006 10.1256C10.6997 10.126 10.5988 10.125 10.4979 10.1259C10.4671 10.0725 10.4366 10.019 10.4077 9.96444C10.4031 9.95585 10.3912 9.9634 10.3949 9.9719C10.4163 10.0213 10.4388 10.0734 10.462 10.1261C10.4208 10.1266 10.3795 10.1264 10.3383 10.127C10.3318 10.1271 10.3272 10.1299 10.3237 10.1334C10.3394 10.0717 10.3519 10.0092 10.3621 9.94635C10.4726 9.95145 10.5833 9.95587 10.6939 9.96052ZM10.3383 10.1722C10.3865 10.1727 10.4348 10.1734 10.4831 10.174C10.5069 10.2268 10.5325 10.2799 10.5592 10.3325C10.4974 10.3349 10.4355 10.3363 10.3737 10.3391C10.35 10.2966 10.3262 10.2542 10.3017 10.2122C10.3072 10.1929 10.3131 10.1738 10.3182 10.1544C10.3201 10.1636 10.326 10.1721 10.3383 10.1722ZM10.5258 10.1745C10.6286 10.1757 10.7315 10.1769 10.8343 10.1782C10.8653 10.2265 10.8974 10.2738 10.9294 10.3213C10.8265 10.3241 10.7237 10.3265 10.6208 10.3303C10.5884 10.2787 10.5567 10.2268 10.5258 10.1745ZM10.8949 10.1789C10.989 10.1801 11.0831 10.181 11.1772 10.1821C11.202 10.2268 11.2273 10.2711 11.2532 10.315C11.1678 10.3166 11.0824 10.3171 10.9971 10.3193C10.964 10.2719 10.9299 10.2252 10.8949 10.1789ZM11.2512 10.183C11.3478 10.1841 11.4444 10.1849 11.541 10.186C11.567 10.2285 11.5942 10.27 11.6223 10.3105C11.5263 10.3118 11.4303 10.3119 11.3343 10.3136C11.3073 10.2698 11.2796 10.2262 11.2512 10.183ZM11.6089 10.1867C11.6977 10.1877 11.7867 10.1875 11.8755 10.1883C11.9014 10.2282 11.9277 10.2678 11.9544 10.3069C11.8699 10.308 11.7853 10.3085 11.7008 10.3096C11.6694 10.2688 11.6388 10.2279 11.6089 10.1867ZM11.9177 10.1275C11.8856 10.0832 11.8532 10.0392 11.8206 9.99536C11.9203 9.99796 12.0201 10 12.1199 10.0021C12.1431 10.0445 12.1671 10.0864 12.1916 10.128C12.1003 10.1278 12.0089 10.1277 11.9177 10.1275ZM12.2292 10.1904C12.2531 10.2288 12.2776 10.2665 12.3033 10.3032C12.2161 10.3042 12.1288 10.3049 12.0416 10.306C12.0154 10.2667 11.9886 10.2276 11.9611 10.1888C12.0505 10.1896 12.1399 10.1897 12.2292 10.1904ZM12.2704 10.1282C12.2435 10.0865 12.2162 10.045 12.1887 10.0037C12.2822 10.0055 12.3757 10.0062 12.4692 10.0073C12.4901 10.048 12.5116 10.0884 12.5337 10.1287C12.4459 10.1286 12.3582 10.1284 12.2704 10.1282ZM12.5689 10.1925C12.5897 10.2286 12.6114 10.2641 12.6335 10.2992C12.6168 10.2993 12.6001 10.3001 12.5834 10.3002C12.5147 10.3006 12.446 10.3017 12.3773 10.3024C12.3557 10.265 12.3334 10.2278 12.3103 10.1909C12.3965 10.1915 12.4827 10.1922 12.5689 10.1925ZM12.595 10.1287C12.5685 10.0887 12.5427 10.0483 12.5167 10.0079C12.5609 10.0083 12.6051 10.0094 12.6493 10.0096C12.7126 10.0098 12.7763 10.0103 12.84 10.0107C12.8603 10.0483 12.8809 10.0856 12.9012 10.1236C12.7991 10.1256 12.6971 10.1287 12.595 10.1287ZM12.6418 10.1929C12.7404 10.1928 12.8394 10.1931 12.9388 10.1935C12.9565 10.2262 12.9749 10.2583 12.9932 10.2906C12.8973 10.2931 12.8015 10.2965 12.7056 10.2977C12.6826 10.2628 12.6599 10.2277 12.6368 10.1929C12.6385 10.1929 12.6402 10.1929 12.6418 10.1929ZM12.9543 10.1227C12.9312 10.0854 12.9086 10.048 12.8857 10.011C12.9709 10.0115 13.0563 10.0121 13.142 10.0125C13.1615 10.0468 13.1812 10.0811 13.201 10.1153C13.1188 10.1179 13.0366 10.1209 12.9543 10.1227ZM13.2476 10.1944C13.2647 10.2234 13.2822 10.252 13.2998 10.2806C13.2177 10.2836 13.1355 10.2867 13.0534 10.2891C13.035 10.2573 13.0172 10.2253 12.9981 10.1938C13.0811 10.1941 13.1643 10.1943 13.2476 10.1944ZM13.2947 10.1943C13.3828 10.1943 13.4711 10.1933 13.5593 10.1925C13.5768 10.2186 13.595 10.2442 13.614 10.2689C13.5248 10.2723 13.4356 10.2758 13.3464 10.2791C13.3295 10.2507 13.3122 10.2225 13.2947 10.1943ZM13.4446 9.92505C13.4288 9.89894 13.4135 9.87233 13.3987 9.84541C13.5006 9.84523 13.6026 9.84397 13.7045 9.84217C13.719 9.86626 13.734 9.89009 13.7489 9.91373C13.6475 9.91759 13.5461 9.92148 13.4446 9.92505ZM5.60618 10.7309C5.65027 10.668 5.68577 10.5981 5.71696 10.526C5.72033 10.5267 5.72416 10.5266 5.72699 10.5228C5.76465 10.472 5.78952 10.4104 5.81868 10.3527C5.83631 10.3991 5.85616 10.4473 5.87832 10.4951C5.82818 10.5587 5.77713 10.6231 5.73965 10.6926C5.73354 10.704 5.74791 10.7152 5.7574 10.7064C5.80933 10.658 5.85661 10.6016 5.90103 10.5416C5.92205 10.5832 5.9459 10.6228 5.9712 10.6608C5.95487 10.6832 5.94038 10.7062 5.92776 10.7298C5.82053 10.7298 5.71334 10.7301 5.60618 10.7309ZM5.93821 10.4174C5.92834 10.4307 5.91784 10.444 5.90752 10.4573C5.8829 10.4108 5.85983 10.3636 5.83877 10.3153C5.84008 10.313 5.84118 10.3106 5.84254 10.3083C5.87994 10.2459 5.92119 10.186 5.96152 10.1256C5.98529 10.1764 6.01044 10.2291 6.03729 10.2819C6.00428 10.3271 5.97145 10.3724 5.93821 10.4174ZM6.05218 10.3102C6.07852 10.3608 6.1073 10.4103 6.13739 10.4587C6.12281 10.4763 6.10796 10.4936 6.0935 10.5113C6.06583 10.5451 6.03485 10.5798 6.00544 10.6157C5.99259 10.5984 5.97982 10.5811 5.96832 10.5632C5.95505 10.5424 5.94383 10.5207 5.93171 10.4994C5.97441 10.4382 6.01425 10.3741 6.05218 10.3102ZM5.97069 10.7297C5.97998 10.7201 5.98915 10.7104 5.998 10.7002C6.00591 10.7107 6.01498 10.7195 6.0233 10.7295C6.00576 10.7295 5.98823 10.7297 5.97069 10.7297ZM6.08858 10.7298C6.0711 10.7047 6.05415 10.6794 6.03519 10.655C6.06178 10.6201 6.08695 10.584 6.11225 10.5507C6.12755 10.5306 6.14217 10.5099 6.15726 10.4896C6.18514 10.5324 6.21463 10.5734 6.24607 10.6116C6.21278 10.6501 6.1821 10.6902 6.15149 10.7304C6.13054 10.7302 6.10955 10.7299 6.08858 10.7298ZM6.19147 10.4432C6.22843 10.3928 6.26564 10.3427 6.30252 10.2923C6.32907 10.348 6.3574 10.4031 6.38685 10.4572C6.35217 10.4935 6.31821 10.5303 6.28469 10.5677C6.25413 10.5258 6.22204 10.4848 6.19147 10.4432ZM6.2037 10.7308C6.22838 10.703 6.2538 10.6759 6.27784 10.6474C6.30154 10.6735 6.32597 10.6984 6.35217 10.7203C6.36332 10.7297 6.37987 10.7181 6.37266 10.7045C6.35483 10.6708 6.3338 10.6385 6.31181 10.6067C6.34337 10.5685 6.37489 10.5304 6.40606 10.4919C6.42873 10.5318 6.45278 10.5704 6.47778 10.6078C6.43628 10.6465 6.39652 10.6875 6.36623 10.7323C6.31206 10.7317 6.25787 10.7312 6.2037 10.7308ZM6.44993 10.4378C6.4817 10.3988 6.51385 10.3603 6.54635 10.3222C6.57114 10.3719 6.5972 10.421 6.623 10.4702C6.59777 10.4943 6.57231 10.5182 6.54729 10.5425C6.53961 10.55 6.53119 10.5577 6.5231 10.5652C6.49985 10.5224 6.47549 10.4799 6.44993 10.4378ZM6.41348 10.7327C6.44555 10.7064 6.47621 10.6771 6.50499 10.6455C6.52701 10.6762 6.54937 10.7065 6.57377 10.7342C6.52032 10.7334 6.46691 10.7333 6.41348 10.7327ZM6.54297 10.604C6.55347 10.5924 6.56399 10.5806 6.57436 10.5696C6.596 10.5468 6.61723 10.5235 6.6387 10.5005C6.65891 10.5383 6.67979 10.5756 6.70111 10.6126C6.66892 10.6453 6.62846 10.6826 6.60003 10.7238C6.59993 10.7236 6.60014 10.7234 6.60003 10.7231C6.58318 10.6828 6.5633 10.6433 6.54297 10.604ZM6.68015 10.4559C6.70719 10.4267 6.73441 10.3977 6.76146 10.3685C6.78351 10.4097 6.80679 10.4502 6.82948 10.4911C6.801 10.5173 6.77241 10.5434 6.74502 10.5708C6.72398 10.5323 6.70251 10.4939 6.68015 10.4559ZM6.6593 10.7354C6.68214 10.7081 6.70308 10.6775 6.72358 10.6503C6.74134 10.6799 6.7598 10.709 6.77874 10.7376C6.73893 10.7369 6.69911 10.736 6.6593 10.7354ZM6.82739 10.7385C6.82704 10.737 6.82779 10.7359 6.82713 10.7344C6.80757 10.6903 6.78567 10.6468 6.76285 10.6037C6.78883 10.5738 6.81663 10.5457 6.84383 10.5169C6.86875 10.5612 6.8943 10.605 6.92069 10.648C6.89298 10.6769 6.86431 10.7068 6.83983 10.7387C6.83568 10.7386 6.83155 10.7385 6.82739 10.7385ZM6.90679 10.7399C6.92031 10.7225 6.93345 10.7047 6.94618 10.6871C6.95796 10.7055 6.97034 10.7233 6.98262 10.7413C6.95732 10.7408 6.93206 10.7404 6.90679 10.7399ZM6.98185 10.6396C7.01059 10.6022 7.03948 10.565 7.06829 10.5278C7.08952 10.5586 7.11143 10.5888 7.13345 10.6188C7.09715 10.6558 7.06288 10.694 7.0303 10.7332C7.01462 10.7019 6.99902 10.6705 6.98185 10.6396ZM7.22002 10.7459C7.17798 10.745 7.13594 10.7442 7.09389 10.7433C7.11914 10.7178 7.14484 10.6931 7.16879 10.6656C7.18735 10.6898 7.20662 10.7131 7.22606 10.7363C7.2242 10.7396 7.22217 10.7428 7.22002 10.7459ZM7.20844 10.6206C7.23024 10.5947 7.25166 10.5686 7.27302 10.5425C7.29038 10.5671 7.30842 10.591 7.32641 10.6149C7.30063 10.6399 7.2753 10.6658 7.25382 10.6932C7.23891 10.6689 7.22434 10.6445 7.20844 10.6206ZM7.38037 10.3964C7.40135 10.4307 7.42358 10.4638 7.44573 10.497C7.43088 10.512 7.4161 10.5271 7.40125 10.5422C7.39194 10.5516 7.38145 10.5614 7.37132 10.5711C7.35307 10.5444 7.33484 10.5177 7.3156 10.4914C7.3371 10.4653 7.35856 10.4392 7.38022 10.4143C7.38546 10.4083 7.38409 10.4013 7.38037 10.3964ZM7.38575 10.7499C7.3505 10.749 7.31525 10.7482 7.28 10.7473C7.28128 10.7425 7.28095 10.7372 7.27804 10.732C7.30552 10.7087 7.33099 10.6813 7.35536 10.6529C7.3705 10.672 7.38659 10.69 7.40241 10.7083C7.39496 10.7221 7.38966 10.736 7.38575 10.7499ZM7.39526 10.6061C7.40605 10.5932 7.41685 10.5801 7.42733 10.5682C7.43975 10.5542 7.45226 10.5402 7.4647 10.5262C7.47731 10.5444 7.49189 10.5604 7.50503 10.5781C7.48052 10.6045 7.45342 10.6341 7.43045 10.6651C7.41874 10.6454 7.40788 10.6254 7.39526 10.6061ZM7.44717 10.7513C7.48429 10.7184 7.51565 10.6725 7.5453 10.63C7.55541 10.6422 7.56414 10.6561 7.57471 10.6678C7.5925 10.6875 7.61994 10.6625 7.60955 10.6409C7.60028 10.6217 7.58939 10.603 7.57881 10.5842C7.58036 10.5822 7.58194 10.5797 7.58349 10.5778C7.60666 10.549 7.63185 10.522 7.65556 10.4938C7.67885 10.5313 7.70757 10.6061 7.74759 10.6516C7.71587 10.6842 7.68612 10.7186 7.66584 10.7566C7.59293 10.7547 7.52006 10.7531 7.44717 10.7513ZM7.51137 10.4736C7.5374 10.4443 7.56344 10.4149 7.58956 10.3856C7.6023 10.4066 7.61511 10.4274 7.62784 10.4483C7.60057 10.4755 7.574 10.5033 7.54814 10.5317C7.53609 10.5123 7.52413 10.4928 7.51137 10.4736ZM7.69467 10.4482C7.71638 10.4231 7.73718 10.3971 7.7596 10.3725C7.76547 10.3828 7.77138 10.3931 7.77726 10.4033C7.80248 10.4473 7.8264 10.4963 7.85379 10.5426C7.84665 10.5503 7.83912 10.5576 7.83202 10.5654C7.82053 10.5779 7.80762 10.5906 7.79485 10.6033C7.78593 10.5892 7.77699 10.5752 7.76799 10.5612C7.74375 10.5234 7.71916 10.4858 7.69467 10.4482ZM8.08139 10.7674C7.96734 10.7643 7.8533 10.7613 7.73924 10.7584C7.76207 10.737 7.78351 10.7124 7.80398 10.687C7.80832 10.6877 7.81239 10.6896 7.81694 10.6894C7.82485 10.6892 7.83128 10.6842 7.83366 10.6767C7.83498 10.6726 7.83631 10.6684 7.83762 10.6643C7.83906 10.6598 7.83688 10.654 7.83313 10.6506C7.84988 10.629 7.86616 10.6079 7.8821 10.5892C7.88261 10.5886 7.88309 10.5879 7.88361 10.5873C7.90327 10.6155 7.92435 10.6421 7.94967 10.6635C7.95535 10.6683 7.96249 10.6684 7.96784 10.6655C7.95253 10.6851 7.93806 10.705 7.92477 10.7254C7.91068 10.7471 7.94069 10.7656 7.95823 10.7512C7.99658 10.7198 8.03193 10.6828 8.0661 10.6446C8.07953 10.6692 8.09425 10.6929 8.10812 10.7173C8.09696 10.7334 8.08825 10.7502 8.08139 10.7674ZM7.92634 10.5354C7.94318 10.5151 7.95997 10.4947 7.97667 10.4743C7.99596 10.5122 8.01607 10.5496 8.03595 10.5872C8.01437 10.6101 7.99362 10.6335 7.97438 10.6576C7.97531 10.6549 7.9759 10.652 7.97511 10.6487C7.96598 10.6093 7.94747 10.5719 7.92634 10.5354ZM8.11431 10.5896C8.13296 10.5682 8.15152 10.5469 8.17025 10.5265C8.17771 10.5185 8.18582 10.511 8.19332 10.503C8.20661 10.5289 8.22079 10.5539 8.23585 10.5778C8.23525 10.5784 8.2346 10.579 8.234 10.5796C8.20971 10.6053 8.17959 10.6335 8.15163 10.6638C8.13913 10.6391 8.12728 10.6141 8.11431 10.5896ZM8.33423 10.7739C8.29219 10.7728 8.25015 10.7718 8.2081 10.7707C8.20625 10.7659 8.20443 10.7611 8.20259 10.7563C8.20144 10.7533 8.19824 10.7529 8.19574 10.7514C8.19341 10.7465 8.19074 10.7417 8.1884 10.7368C8.21731 10.7002 8.24316 10.6595 8.26912 10.6247C8.29738 10.6614 8.33091 10.6917 8.36922 10.7163C8.35619 10.735 8.34464 10.7543 8.33423 10.7739ZM8.24795 10.4472C8.28749 10.4063 8.32669 10.365 8.36747 10.3253C8.38517 10.3502 8.40269 10.3752 8.42033 10.4001C8.3782 10.4382 8.33719 10.4775 8.29684 10.5174C8.28019 10.4942 8.26363 10.4709 8.24795 10.4472ZM8.32499 10.5571C8.36214 10.5129 8.40033 10.4696 8.43946 10.4272C8.44683 10.4378 8.45437 10.4481 8.46167 10.4587C8.48016 10.4855 8.498 10.5138 8.51588 10.5424C8.47745 10.5857 8.43594 10.6307 8.39859 10.6781C8.37752 10.6364 8.35269 10.5963 8.32499 10.5571ZM8.40349 10.7757C8.45525 10.7192 8.50058 10.6545 8.54851 10.5942C8.5681 10.6253 8.58839 10.6559 8.60981 10.6852C8.58081 10.7141 8.55581 10.746 8.54541 10.7793C8.49811 10.7781 8.45079 10.7769 8.40349 10.7757ZM8.59511 10.5388C8.63408 10.493 8.67449 10.4485 8.71478 10.4039C8.71751 10.4084 8.72015 10.4129 8.72289 10.4174C8.74258 10.4497 8.76187 10.4835 8.78138 10.5175C8.75307 10.5464 8.72431 10.5749 8.69626 10.604C8.68656 10.6141 8.67408 10.6254 8.6609 10.6373C8.64084 10.6037 8.61852 10.5708 8.59511 10.5388ZM8.8194 10.7862C8.74806 10.7845 8.67672 10.7826 8.60538 10.7808C8.61456 10.7642 8.62791 10.7455 8.64403 10.7257C8.65888 10.7434 8.67294 10.7621 8.68955 10.7776C8.70171 10.789 8.72406 10.7779 8.71863 10.7607C8.7099 10.7331 8.69759 10.7062 8.68398 10.6796C8.72659 10.6332 8.77363 10.5877 8.80464 10.5571C8.83416 10.6074 8.8668 10.6553 8.9021 10.7003C8.87299 10.7278 8.84443 10.7563 8.8194 10.7862ZM8.99592 10.5298C9.0066 10.5464 9.01646 10.5641 9.02644 10.5816C9.01812 10.5899 9.00946 10.5978 9.00119 10.6062C8.98358 10.6239 8.96401 10.642 8.94422 10.6603C8.91733 10.6077 8.885 10.557 8.85128 10.5074C8.87582 10.4797 8.90032 10.4519 8.92485 10.4242C8.94871 10.4593 8.97299 10.4941 8.99592 10.5298ZM8.95993 10.3845C8.9836 10.3578 9.00729 10.331 9.03095 10.3043C9.06204 10.3643 9.09552 10.4231 9.12908 10.4818C9.11011 10.5002 9.09109 10.5185 9.07225 10.5371C9.05473 10.5122 9.03717 10.4878 9.0208 10.4644C9.00162 10.4369 8.98031 10.4111 8.95993 10.3845ZM9.0583 10.7913C9.01353 10.7903 8.96878 10.7895 8.92401 10.7885C8.93316 10.7784 8.94232 10.7683 8.95124 10.758C8.9548 10.7616 8.95746 10.7662 8.96111 10.7696C8.9711 10.779 8.98964 10.7698 8.9851 10.7556C8.98234 10.747 8.9784 10.7387 8.97521 10.7302C8.99882 10.7022 9.02197 10.6745 9.04467 10.6496C9.04887 10.645 9.05285 10.6402 9.05704 10.6356C9.07432 10.6671 9.09174 10.6986 9.11082 10.7287C9.09081 10.7487 9.07345 10.7697 9.0583 10.7913ZM9.14794 10.7932C9.15028 10.791 9.15275 10.7893 9.15506 10.7871C9.15675 10.7891 9.15833 10.7913 9.1599 10.7935C9.15591 10.7934 9.15193 10.7933 9.14794 10.7932ZM9.16165 10.6808C9.14441 10.6475 9.12435 10.615 9.10321 10.5833C9.12014 10.5644 9.13683 10.5452 9.15364 10.5262C9.1574 10.5325 9.16053 10.5392 9.16433 10.5455C9.18126 10.5736 9.19858 10.603 9.21639 10.6324C9.19866 10.6479 9.18072 10.6641 9.16165 10.6808ZM9.19893 10.498C9.19602 10.4935 9.19355 10.4887 9.19067 10.4842C9.226 10.4439 9.26194 10.4041 9.29715 10.3636C9.32424 10.405 9.35134 10.4464 9.37835 10.4879C9.33993 10.522 9.30122 10.5558 9.26345 10.5907C9.24104 10.5598 9.21896 10.529 9.19893 10.498ZM9.39994 10.5215C9.41056 10.5381 9.42105 10.5554 9.43158 10.5726C9.42806 10.5757 9.42434 10.5785 9.42083 10.5816C9.38875 10.6099 9.35248 10.6381 9.31761 10.6675C9.31022 10.6569 9.30341 10.646 9.29586 10.6355C9.33122 10.5981 9.36539 10.5596 9.39994 10.5215ZM9.2944 10.7963C9.30082 10.7901 9.30788 10.7833 9.31599 10.7753C9.32251 10.7831 9.32999 10.7897 9.33675 10.7972C9.32263 10.7969 9.30851 10.7966 9.2944 10.7963ZM9.39609 10.7983C9.38517 10.7758 9.37347 10.7536 9.36017 10.7318C9.40352 10.6889 9.44795 10.6445 9.45486 10.6379C9.45863 10.6343 9.46211 10.6304 9.46586 10.6268C9.47891 10.6472 9.49323 10.6666 9.50743 10.686C9.50077 10.6942 9.49379 10.7021 9.48793 10.7106C9.47155 10.7343 9.46192 10.8029 9.51126 10.785C9.52057 10.7816 9.52147 10.7708 9.51386 10.7651C9.51425 10.7654 9.52636 10.7523 9.54507 10.7317C9.56139 10.7502 9.57744 10.769 9.59663 10.7843C9.60319 10.7896 9.61479 10.785 9.61189 10.7754C9.60344 10.7477 9.59115 10.7215 9.57737 10.6959C9.59748 10.6736 9.62069 10.6477 9.64481 10.6207C9.65874 10.6436 9.67426 10.6645 9.68918 10.6863C9.65842 10.7231 9.62996 10.7615 9.6035 10.8011C9.53436 10.8001 9.46524 10.7996 9.39609 10.7983ZM9.50625 10.586C9.53161 10.5607 9.55687 10.5354 9.5818 10.5097C9.59304 10.5312 9.60498 10.5522 9.61689 10.5733C9.59383 10.5962 9.56946 10.6193 9.54595 10.6432C9.53324 10.6238 9.52003 10.6047 9.50625 10.586ZM9.68787 10.5725C9.71261 10.5447 9.73653 10.5179 9.75741 10.4944C9.76935 10.518 9.78218 10.5409 9.79446 10.5642C9.77318 10.5889 9.75182 10.6136 9.7303 10.6384C9.71627 10.6163 9.70203 10.5944 9.68787 10.5725ZM9.66718 10.802C9.6866 10.7807 9.70535 10.7586 9.72356 10.7361C9.74227 10.7604 9.7629 10.7819 9.7834 10.8036C9.74466 10.8031 9.70592 10.8025 9.66718 10.802ZM10.1375 10.2111C10.1124 10.2925 10.0733 10.3748 10.0438 10.4585C10.0283 10.396 9.98226 10.3377 9.94676 10.2866C9.89884 10.2176 9.84632 10.1522 9.7905 10.0894C9.77241 10.0691 9.74423 10.0985 9.76098 10.119C9.81463 10.1844 9.86444 10.2525 9.90937 10.3242C9.94484 10.3808 9.97141 10.4569 10.0239 10.499C10.0255 10.5003 10.0275 10.5008 10.0295 10.5014C10.0123 10.5584 10.0015 10.616 10.0049 10.6745C10.0063 10.6993 10.036 10.7238 10.06 10.7061C10.0683 10.6999 10.0752 10.6927 10.0828 10.686C10.056 10.7346 10.0276 10.785 10.0055 10.8369C9.99028 10.8185 9.96728 10.8059 9.93614 10.8056C9.89719 10.8053 9.85822 10.8045 9.81928 10.8041C9.80304 10.7641 9.78329 10.7257 9.76112 10.6883C9.78077 10.6628 9.80041 10.6375 9.81985 10.612C9.85262 10.6719 9.8867 10.7306 9.92468 10.7855C9.93374 10.7986 9.95937 10.7908 9.9525 10.7737C9.92375 10.7022 9.8882 10.6324 9.85088 10.5632C9.85197 10.5519 9.84623 10.5426 9.83717 10.5382C9.82207 10.5107 9.80756 10.483 9.79196 10.4557C9.80653 10.4394 9.81751 10.427 9.82194 10.4221C9.83987 10.4023 9.81126 10.3732 9.79242 10.3926C9.78475 10.4006 9.77707 10.4085 9.76938 10.4164C9.73006 10.3482 9.6905 10.2804 9.65371 10.2127C9.643 10.193 9.61316 10.2105 9.62368 10.2303C9.66181 10.3019 9.69845 10.3766 9.73572 10.4512L9.66051 10.5288C9.65486 10.5197 9.64885 10.5107 9.64341 10.5016C9.63667 10.4902 9.63053 10.4786 9.62387 10.4672C9.63018 10.4607 9.63667 10.4544 9.643 10.4479C9.66129 10.4291 9.63426 10.4035 9.61471 10.4196C9.61064 10.4229 9.60664 10.4264 9.60258 10.4297C9.54799 10.3345 9.49557 10.238 9.44619 10.1399C9.43605 10.1198 9.40675 10.1374 9.41616 10.1575C9.46109 10.2534 9.50745 10.3607 9.55971 10.4655C9.53019 10.4897 9.50098 10.5143 9.47184 10.539C9.45866 10.5215 9.4454 10.504 9.43298 10.4865C9.43282 10.4863 9.43265 10.4861 9.43249 10.4858C9.45706 10.4585 9.48225 10.4318 9.50677 10.4044C9.5169 10.3931 9.50152 10.3778 9.49016 10.3878C9.46399 10.4108 9.43847 10.4344 9.41238 10.4574C9.34517 10.3628 9.27829 10.268 9.21124 10.1733C9.19946 10.1566 9.17199 10.172 9.18347 10.1895C9.21534 10.2383 9.24718 10.2871 9.2791 10.3359C9.24146 10.372 9.20455 10.4087 9.16705 10.4449C9.13074 10.3864 9.09479 10.3277 9.06092 10.2678C9.06435 10.2594 9.05872 10.2504 9.05073 10.2497C9.03645 10.2242 9.02165 10.199 9.00777 10.1733C8.99571 10.1509 8.963 10.1706 8.97397 10.193C8.9879 10.2215 9.0029 10.2494 9.01732 10.2776C8.99119 10.3041 8.96526 10.3308 8.93907 10.3572C8.8884 10.2931 8.83582 10.2305 8.78022 10.1704C8.76581 10.1548 8.74503 10.1773 8.75746 10.1931C8.8085 10.2581 8.85681 10.3251 8.90384 10.393C8.87813 10.419 8.85261 10.4451 8.82698 10.4712C8.80801 10.4436 8.78912 10.4162 8.77147 10.389C8.76536 10.3796 8.75905 10.3703 8.75292 10.3609C8.76259 10.3504 8.7714 10.3393 8.78119 10.329C8.79781 10.3115 8.77241 10.2862 8.75475 10.3025C8.74639 10.3103 8.73834 10.3184 8.73002 10.3261C8.65588 10.2129 8.58099 10.1001 8.50648 9.98705C8.49394 9.96803 8.46379 9.98518 8.47569 10.005C8.54733 10.1246 8.61855 10.2444 8.69066 10.3636C8.6465 10.4058 8.60361 10.4491 8.56195 10.4936C8.53896 10.4635 8.51601 10.4341 8.4945 10.4055C8.48939 10.3987 8.48376 10.3923 8.47861 10.3856C8.49172 10.3719 8.50411 10.3576 8.51752 10.3442C8.5283 10.3333 8.5122 10.3177 8.50091 10.3276C8.48746 10.3393 8.47441 10.3516 8.46103 10.3635C8.37685 10.2548 8.28817 10.1495 8.19715 10.0466C8.1843 10.0321 8.16478 10.0529 8.17625 10.0675C8.23694 10.1448 8.29492 10.2237 8.35198 10.3034C8.31121 10.3382 8.26857 10.3738 8.22561 10.4104C8.21859 10.3987 8.21052 10.3874 8.20427 10.3753C8.14779 10.266 8.09053 10.162 7.99851 10.0786C7.98237 10.064 7.95946 10.0867 7.97453 10.1026C8.06061 10.1937 8.11081 10.3311 8.17088 10.4579C8.14179 10.4835 8.11317 10.5097 8.08551 10.5366C8.06436 10.4976 8.04329 10.4586 8.0215 10.4198C8.04602 10.3897 8.07072 10.3597 8.09553 10.3299C8.1068 10.3163 8.08838 10.297 8.07586 10.3102C8.05164 10.3357 8.02737 10.3613 8.00286 10.3866C7.9413 10.2779 7.87833 10.1701 7.81808 10.0621C7.80464 10.038 7.76884 10.0593 7.78128 10.0836C7.84053 10.1993 7.89771 10.3176 7.95667 10.4349C7.93802 10.4542 7.91956 10.4737 7.90104 10.4931C7.87491 10.4533 7.84665 10.4147 7.82213 10.3771C7.75799 10.2788 7.69391 10.1805 7.62988 10.0821C7.61866 10.0648 7.5917 10.0802 7.60211 10.0983C7.64847 10.1789 7.69475 10.2596 7.74101 10.3402C7.71671 10.3626 7.69269 10.3854 7.6688 10.4083C7.6639 10.4009 7.65922 10.3934 7.6543 10.386C7.64502 10.3721 7.63553 10.3583 7.62621 10.3444C7.62909 10.3412 7.63193 10.3379 7.63483 10.3347C7.64374 10.3248 7.62951 10.3102 7.62007 10.3199C7.61803 10.322 7.61596 10.3241 7.61393 10.3262C7.55398 10.2369 7.49367 10.1479 7.43352 10.0588C7.42113 10.0404 7.39184 10.0569 7.40349 10.0763C7.46111 10.1723 7.51844 10.2685 7.57648 10.3642C7.54899 10.3922 7.52142 10.4202 7.49383 10.4481C7.41725 10.3363 7.33086 10.2283 7.25527 10.1214C7.24223 10.1029 7.21195 10.1197 7.22448 10.1394C7.27663 10.2211 7.32665 10.3086 7.37917 10.3944C7.37436 10.3898 7.36675 10.3883 7.36054 10.3946C7.33885 10.4168 7.31597 10.4388 7.2933 10.4609C7.20697 10.3457 7.11368 10.234 7.02981 10.1228C7.01962 10.1093 6.99662 10.1217 7.00652 10.1364C7.08674 10.2555 7.16401 10.3837 7.2475 10.5058C7.22396 10.5285 7.20041 10.5514 7.177 10.5744C7.15425 10.5418 7.13131 10.5092 7.10743 10.4772C7.12388 10.4559 7.14023 10.4346 7.15671 10.4134C7.16338 10.4049 7.15206 10.3926 7.14441 10.4011C7.1274 10.4201 7.11028 10.439 7.09327 10.4579C7.00372 10.339 6.90862 10.2233 6.82125 10.1071C6.81208 10.0949 6.7913 10.1061 6.80024 10.1194C6.88444 10.2444 6.96546 10.3765 7.05182 10.5039C7.02184 10.5372 6.99192 10.5705 6.96187 10.6037C6.93679 10.5601 6.91088 10.5168 6.884 10.4739C6.89604 10.4617 6.90691 10.4484 6.91916 10.4363C6.92924 10.4264 6.91426 10.4119 6.90378 10.4209C6.89232 10.4308 6.88207 10.4421 6.87074 10.4521C6.80032 10.341 6.72621 10.2317 6.6584 10.1225C6.64926 10.1078 6.62655 10.1209 6.63511 10.1361C6.67419 10.2053 6.71227 10.2766 6.75053 10.3482C6.72203 10.3754 6.69367 10.4028 6.66512 10.4299C6.59144 10.3063 6.51303 10.1849 6.44063 10.0639C6.43342 10.0518 6.41541 10.0625 6.42187 10.0749C6.46055 10.1492 6.4983 10.2257 6.53635 10.3022C6.50194 10.3377 6.46718 10.3733 6.43234 10.4092C6.35065 10.2767 6.26273 10.1463 6.19072 10.0129C6.18561 10.0034 6.17195 10.0117 6.17646 10.0212C6.21452 10.1012 6.25266 10.1866 6.29303 10.2721C6.25281 10.3202 6.2127 10.3685 6.17249 10.4166C6.16496 10.406 6.15695 10.3956 6.14977 10.3848C6.12432 10.3467 6.10055 10.3078 6.07657 10.2689C6.10084 10.2275 6.12456 10.1865 6.14772 10.1471C6.15091 10.1416 6.14302 10.1373 6.13946 10.1422C6.11404 10.1773 6.08829 10.2121 6.06276 10.2471C6.02341 10.1823 5.98541 10.1167 5.94992 10.0495C5.94332 10.037 5.92534 10.048 5.93115 10.0605C5.9384 10.076 5.94609 10.0924 5.95358 10.1085C5.9029 10.1595 5.85964 10.216 5.82159 10.2771C5.8208 10.2751 5.81991 10.2733 5.81904 10.2714C5.90543 10.0561 5.98411 9.83879 6.04489 9.61471C6.04541 9.6128 6.0449 9.61132 6.04531 9.60946C6.69652 9.75843 7.4239 9.69106 8.09017 9.72471C8.80187 9.76066 9.51266 9.80843 10.2225 9.87058C10.1969 9.9847 10.172 10.099 10.1375 10.2111ZM10.1831 10.5542C10.2266 10.4702 10.2532 10.3743 10.2806 10.2857C10.2841 10.2746 10.2869 10.2632 10.2903 10.2521C10.3013 10.2822 10.3135 10.3119 10.3274 10.3408C10.3264 10.3409 10.3254 10.3409 10.3243 10.3409C10.2954 10.3423 10.2951 10.3869 10.3243 10.3862C10.333 10.386 10.3416 10.3859 10.3502 10.3857C10.3643 10.4121 10.3789 10.4382 10.3943 10.4637C10.4113 10.4919 10.4292 10.5219 10.4483 10.5513C10.36 10.5517 10.2716 10.5527 10.1831 10.5542ZM10.5098 10.5512C10.4835 10.5146 10.4555 10.4787 10.4324 10.4414C10.421 10.4228 10.4107 10.4037 10.3999 10.3848C10.4614 10.3834 10.5228 10.3828 10.5842 10.3816C10.6159 10.4406 10.6505 10.4972 10.6876 10.5511C10.6284 10.5509 10.5691 10.5511 10.5098 10.5512ZM10.7716 10.5517C10.7327 10.4941 10.6912 10.4378 10.6532 10.3804C10.7579 10.3786 10.8626 10.3783 10.9673 10.377C11.0097 10.438 11.0538 10.4973 11.0994 10.5551C10.9902 10.5536 10.881 10.5524 10.7716 10.5517ZM11.145 10.5558C11.1111 10.4949 11.0749 10.4349 11.0358 10.3762C11.1202 10.3752 11.2047 10.3751 11.2892 10.3743C11.328 10.4379 11.3689 10.4997 11.4112 10.56C11.3225 10.5585 11.2338 10.5571 11.145 10.5558ZM11.473 10.5611C11.441 10.498 11.4071 10.4354 11.3704 10.3736C11.469 10.3727 11.5676 10.3722 11.6661 10.3714C11.7199 10.4432 11.7779 10.5092 11.8404 10.5674C11.718 10.5654 11.5956 10.5633 11.473 10.5611ZM11.8788 10.568C11.841 10.4995 11.7949 10.4347 11.7469 10.3708C11.8306 10.3701 11.9142 10.3695 11.9979 10.3689C12.0476 10.439 12.0999 10.5064 12.1542 10.5717C12.0624 10.5707 11.9706 10.5695 11.8788 10.568ZM12.2026 10.5723C12.1655 10.5032 12.1258 10.435 12.0829 10.3682C12.172 10.3675 12.2611 10.3669 12.3502 10.3662C12.3805 10.4058 12.4117 10.4444 12.4451 10.4805C12.455 10.4912 12.4699 10.4777 12.4642 10.4658C12.4482 10.432 12.4311 10.3987 12.4132 10.3657C12.487 10.3651 12.5607 10.3645 12.6344 10.364C12.6483 10.3639 12.6625 10.364 12.6764 10.3639C12.7262 10.4377 12.7808 10.5068 12.8384 10.5721C12.6265 10.5749 12.4146 10.5744 12.2026 10.5723ZM12.8768 10.5714C12.8358 10.5012 12.7931 10.432 12.749 10.3637C12.8442 10.3635 12.94 10.3636 13.0359 10.3638C13.0774 10.4333 13.1209 10.5011 13.1686 10.5645C13.0713 10.5675 12.974 10.5699 12.8768 10.5714ZM14.4033 10.4679C13.9987 10.5224 13.5957 10.5504 13.1932 10.5636C13.165 10.4957 13.1316 10.4294 13.096 10.3638C13.1811 10.364 13.2665 10.3639 13.3519 10.3637C13.3842 10.4137 13.4168 10.4634 13.4516 10.5114C13.4594 10.5221 13.4758 10.513 13.4696 10.5008C13.4463 10.4544 13.4206 10.4089 13.3949 10.3634C13.4938 10.363 13.5928 10.3618 13.6918 10.36C13.7081 10.3771 13.7245 10.3941 13.7419 10.4098C13.7484 10.4156 13.7588 10.4082 13.7542 10.4003C13.7461 10.3864 13.737 10.3733 13.7286 10.3596C13.8481 10.3572 13.9674 10.3527 14.0865 10.3469C14.1052 10.3663 14.1221 10.3867 14.1416 10.4055C14.147 10.4108 14.1574 10.4037 14.1525 10.3971C14.1397 10.3799 14.1269 10.3627 14.1141 10.3455C14.2247 10.3399 14.335 10.3326 14.4447 10.3229C14.4287 10.3715 14.4145 10.4199 14.4033 10.4679ZM14.4726 10.2423C14.4227 10.2434 14.3729 10.2436 14.323 10.245C14.3085 10.2184 14.2932 10.1922 14.2768 10.1666C14.3196 10.1637 14.3621 10.1596 14.4048 10.1562C14.4161 10.1803 14.4266 10.2048 14.4392 10.2282C14.4442 10.2376 14.4581 10.231 14.4558 10.2212C14.4506 10.1985 14.4432 10.1761 14.4369 10.1536C14.4607 10.1516 14.4844 10.1491 14.5082 10.1469C14.496 10.1786 14.4841 10.2104 14.4726 10.2423ZM14.5371 10.0721C14.496 10.0732 14.4549 10.0737 14.4138 10.0748C14.4029 10.042 14.3911 10.0095 14.3789 9.97707C14.4462 9.9719 14.5134 9.96606 14.5804 9.95945C14.5665 9.99667 14.5519 10.0343 14.5371 10.0721ZM14.6136 9.86716C14.6112 9.87416 14.6085 9.88131 14.606 9.88835C14.5196 9.89006 14.4331 9.8911 14.3467 9.89363C14.3363 9.86737 14.3261 9.84106 14.3156 9.81491C14.4258 9.80723 14.5354 9.79721 14.6445 9.78553C14.6336 9.81235 14.623 9.83938 14.6136 9.86716ZM14.6725 9.71979C14.5422 9.7221 14.4119 9.72448 14.2817 9.72899C14.2774 9.71804 14.2729 9.70705 14.2687 9.69611C14.2602 9.67391 14.2242 9.68334 14.2326 9.70605C14.2356 9.71402 14.2383 9.72219 14.2412 9.73019C14.0606 9.73667 13.88 9.74447 13.6993 9.75188C13.6853 9.72938 13.6708 9.70719 13.6572 9.68444C14.013 9.67921 14.3684 9.66122 14.7171 9.61915C14.7022 9.65267 14.6873 9.68622 14.6725 9.71979ZM14.7651 9.50535C14.7582 9.52324 14.7506 9.54063 14.7432 9.55818C14.0317 9.56862 13.3232 9.62665 12.6099 9.61472C11.8723 9.60238 11.1355 9.55536 10.4011 9.48688C10.4052 9.38797 10.407 9.28865 10.4089 9.18936C11.793 9.57258 13.3994 9.57868 14.8094 9.33078C14.7995 9.38879 14.7879 9.44653 14.7651 9.50535Z" fill="black"/>
<path d="M1.92599 8.47639C1.94567 8.37851 1.87979 8.2727 1.77405 8.27586C1.69449 8.27823 1.58261 8.36971 1.59292 8.45725C1.59261 8.45372 1.5909 8.45106 1.59079 8.44741C1.59033 8.43067 1.56475 8.43057 1.5647 8.44741C1.56435 8.53801 1.63131 8.62203 1.72339 8.63425C1.81976 8.64704 1.90757 8.56797 1.92599 8.47639ZM1.59476 8.46571C1.59707 8.47656 1.60034 8.48738 1.6069 8.49783C1.61346 8.5083 1.62914 8.51432 1.64023 8.50657C1.68214 8.47728 1.68962 8.42131 1.72992 8.3891C1.79946 8.33355 1.88474 8.38979 1.87546 8.47448C1.85615 8.65048 1.61767 8.62286 1.59476 8.46571Z" fill="black"/>
<path d="M1.41062 3.03659C1.34504 3.0283 1.23117 3.07573 1.26454 3.16041C1.26954 3.17307 1.28874 3.18344 1.29944 3.16961C1.35447 3.09844 1.45243 3.09228 1.47614 3.19894C1.48826 3.25356 1.47622 3.33101 1.43326 3.37036C1.39091 3.40912 1.33425 3.38877 1.30497 3.34528C1.27973 3.3078 1.28085 3.26255 1.28812 3.22019C1.29017 3.20825 1.27324 3.20307 1.26966 3.21509C1.24364 3.30258 1.26301 3.42214 1.37208 3.43666C1.47486 3.45035 1.53289 3.33281 1.54326 3.24753C1.55444 3.15546 1.51246 3.04947 1.41062 3.03659Z" fill="black"/>
<path d="M13.8028 3.9648C13.8516 3.95876 13.8759 3.90641 13.893 3.86661C13.9274 3.78668 13.925 3.67109 13.8307 3.63286C13.7804 3.61243 13.7092 3.64544 13.6955 3.69403C13.6927 3.65185 13.6924 3.60934 13.6906 3.56849C13.6902 3.55948 13.6763 3.55373 13.6719 3.56344C13.628 3.66234 13.6352 3.81592 13.6991 3.906C13.7225 3.93901 13.7597 3.97014 13.8028 3.9648ZM13.7063 3.75062C13.7141 3.76179 13.7339 3.76181 13.7374 3.74656C13.746 3.70826 13.7712 3.66307 13.8275 3.69995C13.8509 3.7153 13.854 3.74963 13.8544 3.77381C13.8548 3.80055 13.8491 3.8366 13.8327 3.85923C13.8283 3.88211 13.8139 3.8904 13.7895 3.8841C13.7628 3.89644 13.7453 3.88821 13.7369 3.85942C13.7154 3.82122 13.7057 3.77933 13.7001 3.73655C13.7021 3.74124 13.7031 3.74586 13.7063 3.75062Z" fill="black"/>
<path d="M14.1439 8.4787C14.1336 8.48234 14.1224 8.49034 14.1205 8.50209C14.1198 8.50648 14.1191 8.51088 14.1184 8.51528C14.1166 8.52587 14.121 8.53843 14.1329 8.54095C14.1439 8.54327 14.1512 8.54217 14.1617 8.54327C14.1803 8.53447 14.1966 8.53792 14.2105 8.55364C14.2324 8.56054 14.2448 8.57564 14.2478 8.59894C14.2535 8.61962 14.2536 8.64397 14.2522 8.66518C14.2521 8.68138 14.2496 8.69731 14.2448 8.71298C14.2323 8.76142 14.2095 8.77225 14.1764 8.74546C14.1368 8.72882 14.1333 8.71339 14.1224 8.67503C14.1159 8.652 14.1116 8.62873 14.108 8.60507C14.1002 8.55318 14.0986 8.49908 14.0968 8.44664C14.0966 8.4384 14.0837 8.43317 14.0798 8.44204C14.0391 8.53597 14.0439 8.6406 14.0819 8.7356C14.1089 8.803 14.1672 8.85178 14.2401 8.81072C14.371 8.73704 14.3211 8.41608 14.1439 8.4787Z" fill="black"/>
<path d="M4.35776 6.66144C4.83486 6.56825 4.93949 5.96128 4.79412 5.57534C4.6865 5.28959 4.15948 4.71958 3.88621 5.1057C3.56022 5.1549 3.36968 5.54312 3.41711 5.8649C3.47757 6.27528 3.90755 6.74937 4.35776 6.66144ZM3.87336 5.25122C3.8833 5.25767 3.89504 5.26194 3.90859 5.26239C4.23547 5.27313 4.48646 5.3746 4.59089 5.71447C4.67221 5.97917 4.61703 6.44291 4.24627 6.45173C3.96394 6.45846 3.69336 6.16038 3.61728 5.90803C3.53348 5.6301 3.6592 5.39685 3.87336 5.25122Z" fill="black"/>
<path d="M12.1847 5.43166C11.7344 5.34373 11.3045 5.81782 11.244 6.2282C11.1966 6.54998 11.3871 6.93819 11.7131 6.9874C11.9864 7.37352 12.5134 6.8035 12.621 6.51776C12.7664 6.13182 12.6618 5.52485 12.1847 5.43166ZM12.4178 6.37863C12.3134 6.7185 12.0624 6.81997 11.7355 6.83071C11.7219 6.83116 11.7102 6.83542 11.7003 6.84188C11.4861 6.69625 11.3604 6.463 11.4442 6.18507C11.5203 5.93271 11.7908 5.63464 12.0732 5.64137C12.4439 5.65019 12.4991 6.11393 12.4178 6.37863Z" fill="black"/>
<path d="M4.40601 6.27651C4.57912 6.06815 4.48341 5.65893 4.3355 5.46589C4.23187 5.33067 3.92108 5.21158 3.86957 5.44265C3.47219 5.66552 4.07627 6.6734 4.40601 6.27651ZM3.98225 5.43428C3.98315 5.4338 3.98313 5.43297 3.98385 5.43241C4.28552 5.29765 4.52646 5.90422 4.37934 6.14742C4.21247 6.42324 3.9868 6.15899 3.89781 5.97734C3.80579 5.78946 3.76344 5.55352 3.98225 5.43428Z" fill="black"/>
<path d="M12.1045 5.76061C12.0307 5.74818 11.9555 5.74591 11.9001 5.78813C11.6886 5.88488 11.5506 6.16752 11.5579 6.38736C11.5656 6.62115 11.8292 6.79406 12.0519 6.68319C12.2702 6.57449 12.3467 6.17682 12.31 5.96246C12.2884 5.83706 12.2284 5.7815 12.1045 5.76061ZM12.244 6.20795C12.2066 6.38068 12.1098 6.62251 11.9026 6.63223C11.592 6.6468 11.596 6.3139 11.6868 6.11742C11.735 6.01303 11.8062 5.94463 11.8835 5.87491C11.892 5.87806 11.9011 5.87882 11.9098 5.87271C11.9694 5.83056 12.0823 5.81093 12.1542 5.84036C12.2902 5.89595 12.2676 6.09857 12.244 6.20795Z" fill="black"/>
<path d="M1.48364 6.4403C1.48512 6.45349 1.50357 6.45393 1.50451 6.4403C1.52979 6.07636 1.49849 5.70347 1.47956 5.33955C1.47897 5.32845 1.46227 5.32828 1.46217 5.33955C1.45859 5.70387 1.44315 6.07778 1.48364 6.4403Z" fill="black"/>
<path d="M12.9089 3.43197C12.898 3.40486 12.8796 3.3835 12.865 3.35826C12.8452 3.32389 12.832 3.28738 12.8228 3.24895C12.8201 3.23784 12.8044 3.24278 12.806 3.25358C12.816 3.31731 12.8384 3.40412 12.8948 3.44278C12.9013 3.44725 12.912 3.43969 12.9089 3.43197Z" fill="black"/>
<path d="M13.0369 3.45991C13.0296 3.40619 13.0022 3.35455 12.9823 3.30438C12.9759 3.28807 12.9494 3.29469 12.9555 3.31177C12.9741 3.3637 12.9878 3.42142 13.0186 3.46762C13.0253 3.47757 13.0384 3.47086 13.0369 3.45991Z" fill="black"/>
<path d="M5.85966 8.43025C5.86547 8.43492 5.87792 8.43083 5.8742 8.42179C5.8308 8.3168 5.74046 8.22301 5.66835 8.1362C5.65737 8.12299 5.63477 8.14035 5.64444 8.15464C5.70707 8.24712 5.7715 8.35986 5.85966 8.43025Z" fill="black"/>
<path d="M5.83208 8.19406C5.83783 8.19864 5.8474 8.19461 5.84517 8.18645C5.82808 8.12428 5.7824 8.07026 5.74608 8.01774C5.70395 7.95682 5.65985 7.89721 5.61669 7.83704C5.60965 7.82722 5.59364 7.83596 5.60016 7.84669C5.63846 7.90972 5.67583 7.97343 5.71523 8.03576C5.74937 8.08973 5.78163 8.15386 5.83208 8.19406Z" fill="black"/>
<path d="M5.6329 7.58017C5.66973 7.64162 5.70655 7.70306 5.74338 7.76451C5.77545 7.81801 5.80404 7.88148 5.85174 7.92255C5.86049 7.93007 5.87573 7.92309 5.87209 7.9107C5.85432 7.85027 5.80869 7.79841 5.7731 7.74713C5.73213 7.68812 5.69115 7.6291 5.65016 7.57008C5.64293 7.55964 5.62619 7.56897 5.6329 7.58017Z" fill="black"/>
<path d="M5.86176 7.65771C5.84596 7.59739 5.80608 7.54245 5.77443 7.48915C5.73804 7.42788 5.70166 7.36663 5.66529 7.30536C5.6604 7.29713 5.64822 7.30438 5.65251 7.31282C5.68483 7.37646 5.71714 7.4401 5.74947 7.50374C5.77754 7.55901 5.80257 7.62179 5.84504 7.66744C5.85201 7.67493 5.86422 7.66709 5.86176 7.65771Z" fill="black"/>
<path d="M5.80988 6.89291C5.81817 6.90147 5.83396 6.89274 5.83023 6.88106C5.8114 6.82198 5.76976 6.77034 5.73643 6.71849C5.69837 6.6593 5.66032 6.60011 5.62227 6.54092C5.61684 6.53246 5.60385 6.53995 5.60875 6.54882C5.64287 6.61031 5.67698 6.6718 5.7111 6.7333C5.74098 6.78717 5.76676 6.84838 5.80988 6.89291Z" fill="black"/>
<path d="M5.57736 6.26243C5.56931 6.25045 5.55045 6.26112 5.55783 6.27384C5.59777 6.34279 5.63772 6.41174 5.67767 6.48069C5.71213 6.54016 5.74207 6.6137 5.79546 6.65809C5.80555 6.66649 5.8213 6.65876 5.81798 6.64497C5.80165 6.57747 5.74901 6.51848 5.71071 6.46137C5.66627 6.39505 5.62182 6.32874 5.57736 6.26243Z" fill="black"/>
<path d="M5.77984 5.71828C5.78791 5.72766 5.80514 5.71772 5.8009 5.70601C5.77635 5.6379 5.73139 5.57723 5.69318 5.51604C5.64977 5.4465 5.60634 5.37695 5.56291 5.30741C5.55758 5.29887 5.54455 5.30644 5.5494 5.31531C5.58867 5.38728 5.62794 5.45925 5.66722 5.53122C5.70176 5.59453 5.73255 5.66346 5.77984 5.71828Z" fill="black"/>
<path d="M5.5315 5.08223C5.56911 5.15104 5.6067 5.21986 5.6443 5.28867C5.67742 5.34924 5.7061 5.41654 5.75253 5.46807C5.76229 5.47891 5.78187 5.46757 5.77723 5.45369C5.75525 5.38789 5.7108 5.32975 5.67437 5.27109L5.55028 5.07126C5.54289 5.05937 5.52477 5.06992 5.5315 5.08223Z" fill="black"/>
<path d="M5.74497 5.28048C5.75327 5.28978 5.76839 5.27994 5.76531 5.26864C5.74804 5.20517 5.70553 5.14835 5.67274 5.09176C5.63524 5.02705 5.59776 4.96236 5.56026 4.89766C5.5546 4.88791 5.5402 4.8965 5.54524 4.90643C5.57914 4.97323 5.61306 5.04002 5.64698 5.10682C5.6766 5.16518 5.70114 5.23138 5.74497 5.28048Z" fill="black"/>
<path d="M0.93661 3.02438C0.959303 2.93743 0.941028 2.83158 0.938295 2.74252C0.937832 2.72742 0.915277 2.72739 0.914814 2.74252C0.912069 2.83167 0.893822 2.93749 0.916487 3.02438C0.919082 3.03431 0.934031 3.03433 0.93661 3.02438Z" fill="black"/>
<path d="M1.03993 2.99511C1.05061 2.93679 1.04537 2.87513 1.04553 2.81596C1.04558 2.79526 1.01329 2.79523 1.01335 2.81596C1.01353 2.87518 1.00826 2.93671 1.01896 2.99511C1.02087 3.00549 1.03803 3.0055 1.03993 2.99511Z" fill="black"/>
<path d="M14.1787 4.92716C14.1871 4.93423 14.2032 4.93039 14.2024 4.91733C14.1974 4.8349 14.1235 4.76904 14.0676 4.71615C14.0583 4.70738 14.0412 4.71903 14.0492 4.73037C14.0925 4.79226 14.12 4.87825 14.1787 4.92716Z" fill="black"/>
<path d="M14.2469 4.8132C14.251 4.75046 14.2191 4.68901 14.1988 4.6309C14.1891 4.60319 14.1452 4.61464 14.1543 4.64315C14.1736 4.70333 14.1854 4.77236 14.2276 4.82119C14.2344 4.82917 14.2463 4.8222 14.2469 4.8132Z" fill="black"/>
<path d="M13.6175 8.97655C13.6253 8.97655 13.6253 8.96437 13.6175 8.96437C13.6096 8.96437 13.6096 8.97655 13.6175 8.97655Z" fill="black"/>
<path d="M13.5775 8.80025C13.6129 8.85687 13.646 8.93893 13.6998 8.97924C13.7069 8.98459 13.7156 8.9758 13.7138 8.96844C13.6989 8.90504 13.636 8.8409 13.5993 8.78752C13.5902 8.77432 13.5688 8.78632 13.5775 8.80025Z" fill="black"/>
<path d="M13.7532 8.79839C13.7441 8.77734 13.7076 8.79246 13.7158 8.81413C13.7389 8.87504 13.7702 8.9657 13.8307 8.99784C13.8423 9.00398 13.8566 8.99382 13.8531 8.98065C13.8444 8.9484 13.8223 8.925 13.8045 8.89719C13.7845 8.86571 13.7679 8.8326 13.7532 8.79839Z" fill="black"/>
<path d="M8.08519 5.60611C8.04877 5.50951 7.98993 5.39402 7.89633 5.28976C8.3858 5.29669 8.90411 5.29964 8.99997 5.29089C8.99727 5.24519 8.99354 5.13136 8.97494 5.02537C8.81996 5.01487 7.84395 5.00565 7.29778 5.00445C7.22981 4.99846 7.15592 4.99856 7.07672 5.00449C7.04814 5.00461 7.02305 5.00477 7.0021 5.00499C6.99695 5.05473 7.00169 5.22348 7.01173 5.26971C7.05796 5.27213 7.13656 5.2747 7.2364 5.27727C7.39881 5.32934 7.62028 5.42921 7.72376 5.60432C7.35066 5.60244 7.03271 5.6005 7.00213 5.59651C6.99698 5.64626 7.00172 5.81504 7.01176 5.86124C7.12615 5.86717 7.43786 5.87426 7.78229 5.87959C7.77351 6.22057 7.57261 6.35672 7.37526 6.4098C7.37526 6.4098 7.24954 6.43548 7.00621 6.44144L8.22285 8.12644L8.56204 7.97109L7.55282 6.64341C7.83128 6.54476 8.11511 6.33373 8.13986 5.88439C8.54592 5.88887 8.92005 5.88972 9 5.88244C8.9973 5.83671 8.99357 5.72285 8.97497 5.6169C8.88915 5.6111 8.49746 5.60831 8.08519 5.60611Z" fill="#1F1E21"/>
</svg>
