<svg width="16" height="14" viewBox="0 0 16 14" fill="none" xmlns="http://www.w3.org/2000/svg">
<rect width="16" height="14" fill="white"/>
<path d="M7.95183 2.00006C7.96617 2.00024 7.98052 1.99958 7.99474 2.00053C8.06872 2.00543 8.1179 2.02515 8.17438 2.07386C8.37541 2.24717 8.54567 2.49326 8.7188 2.69686C8.97141 2.99346 9.23011 3.28461 9.49497 3.57033C9.5071 3.3075 9.46401 2.36167 9.60911 2.20354C9.65495 2.15352 9.70126 2.13864 9.76658 2.13637C9.84122 2.13368 9.91246 2.16039 9.96403 2.21436C10.0011 2.25314 10.0173 2.31242 10.021 2.36519C10.0326 2.52792 10.0127 2.70535 10.0109 2.86933C10.0065 3.29417 9.99983 3.71913 10.0167 4.14385C10.6504 5.0304 11.4368 5.85115 12.1633 6.66438C12.3892 6.91723 12.6337 7.16595 12.8439 7.4314C12.903 7.50605 12.9605 7.59138 12.9875 7.68383C13.0148 7.77694 12.995 7.82852 12.9519 7.91188C12.9058 7.94105 12.8841 7.968 12.8268 7.96489C12.5602 7.95072 12.1951 7.43517 12.0243 7.24214C12.0154 7.98395 12.0102 8.72582 12.0088 9.46775C12.0084 9.87699 12.035 10.308 11.9981 10.7148C11.9856 10.8528 11.9707 10.9877 11.8979 11.1083C11.6641 11.1966 10.19 11.1301 9.80656 11.1286L6.14126 11.1317C5.49937 11.1337 4.84057 11.1673 4.20137 11.1273C4.09165 11.1204 3.93633 11.1182 3.84776 11.0532L3.88517 11.0374L3.84436 11.0625C3.73828 10.7249 3.80629 7.92652 3.80719 7.34667C3.69059 7.49188 3.5333 7.73092 3.37016 7.82063C3.2994 7.85959 3.20498 7.88081 3.12926 7.84423C3.05008 7.80593 3.02922 7.74264 3 7.6671C3.00604 7.5324 3.05868 7.44551 3.14038 7.33985C3.32683 7.0989 3.56755 6.89057 3.77276 6.66456C4.17226 6.22454 4.56304 5.77137 4.95668 5.32556L6.76594 3.28419C7.15163 2.85015 7.52681 2.39603 7.95183 2.00006Z" fill="black"/>
<path d="M8.30464 5.57582C8.55275 5.56762 8.77851 5.57593 8.97372 5.75373C9.1349 5.9005 9.1868 6.09334 9.20005 6.30416C9.21178 6.49122 9.23771 6.8526 9.09656 6.99375C9.01358 7.07673 8.77578 7.05228 8.66439 7.05317C8.4287 7.0518 8.06731 7.11212 7.8546 7.01936C7.81505 6.97592 7.78934 6.94095 7.77093 6.88436C7.68742 6.62789 7.69978 6.14114 7.82935 5.90423C7.94242 5.69751 8.08498 5.6343 8.30464 5.57582Z" fill="black"/>
<path d="M7.98942 3.42707C8.10674 3.47403 10.8293 6.64596 11.0964 6.97711C11.1467 8.09213 11.0955 9.32657 11.0902 10.4507L7.864 10.4572L4.72046 10.459L4.73055 7.07897C5.11339 6.605 5.54787 6.17388 5.95064 5.7169C6.62818 4.94812 7.2808 4.16808 7.98942 3.42707Z" fill="black"/>
<path d="M7.90481 4.12599C8.31274 4.43382 8.66187 4.81748 9.02657 5.15711C9.72731 5.80958 10.4491 6.45807 11.0998 7.14007L11.1183 11.169L9.47738 11.1688C9.48205 10.3642 9.65428 9.37229 9.04575 8.66474C8.77148 8.3458 8.43756 8.20121 7.96 8.12199C7.94026 8.12151 7.92052 8.12081 7.9007 8.12043C7.87381 8.11973 7.84692 8.11956 7.82004 8.11994C7.79322 8.12032 7.76633 8.12118 7.73951 8.12258C7.71269 8.12398 7.68588 8.12592 7.6592 8.12835C7.63252 8.13077 7.60592 8.13374 7.57945 8.13724C7.55292 8.14074 7.52659 8.14473 7.50034 8.14921C7.47409 8.15368 7.44805 8.15869 7.42215 8.16419C7.39625 8.16968 7.37057 8.17567 7.34502 8.18219C7.31955 8.18871 7.29429 8.19571 7.26924 8.2032C7.24426 8.2107 7.2195 8.21862 7.19494 8.22708C7.17046 8.23554 7.14626 8.24443 7.12234 8.25381C7.0985 8.26319 7.07493 8.27305 7.05165 8.28334C7.02837 8.29364 7.00552 8.30442 6.98302 8.31557C6.96044 8.32673 6.93829 8.33837 6.91657 8.35039C6.89485 8.3624 6.87348 8.37491 6.8526 8.38779C6.83173 8.40067 6.81121 8.41392 6.79118 8.42756C6.77116 8.44125 6.75163 8.45531 6.73252 8.4697C5.94036 9.07475 6.12278 10.3678 6.11903 11.1652L4.73178 11.1653L4.72046 7.08322C5.29638 6.50636 5.92536 5.95617 6.53178 5.39758C6.99002 4.97549 7.4271 4.53503 7.90481 4.12599Z" fill="#FCFCFC"/>
</svg>
