<svg width="10" height="10" viewBox="0 0 10 10" fill="none" xmlns="http://www.w3.org/2000/svg">
<path d="M4.95183 5.5945e-05C4.96617 0.000235227 4.98052 -0.000422403 4.99474 0.000533768C5.06872 0.00543415 5.1179 0.0251546 5.17438 0.0738595C5.37541 0.247166 5.54567 0.493259 5.7188 0.696864C5.97141 0.993456 6.23011 1.28461 6.49497 1.57033C6.5071 1.3075 6.46401 0.361666 6.60911 0.203539C6.65495 0.15352 6.70126 0.138638 6.76658 0.136367C6.84122 0.133678 6.91246 0.160394 6.96403 0.214358C7.00108 0.253142 7.01734 0.312424 7.02104 0.365193C7.03264 0.527921 7.01268 0.705349 7.01094 0.869333C7.00652 1.29417 6.99983 1.71913 7.01674 2.14385C7.65039 3.0304 8.43684 3.85115 9.16335 4.66438C9.38918 4.91723 9.63372 5.16595 9.8439 5.4314C9.903 5.50604 9.96049 5.59138 9.98751 5.68383C10.0148 5.77694 9.99498 5.82852 9.95189 5.91188C9.90581 5.94105 9.88406 5.968 9.82675 5.96489C9.56022 5.95072 9.19514 5.43517 9.02434 5.24214C9.01544 5.98395 9.01024 6.72582 9.0088 7.46775C9.00839 7.87699 9.03504 8.30804 8.99811 8.71484C8.98556 8.85276 8.97073 8.98771 8.89795 9.1083C8.6641 9.19657 7.19005 9.13005 6.80656 9.12856L3.14126 9.13167C2.49937 9.1337 1.84057 9.16729 1.20137 9.12731C1.09165 9.12043 0.936329 9.11822 0.847764 9.0532L0.885172 9.03742L0.844357 9.06253C0.738282 8.72494 0.806289 5.92652 0.807185 5.34667C0.690592 5.49188 0.533303 5.73092 0.370156 5.82063C0.299399 5.85959 0.204977 5.88081 0.12926 5.84423C0.0500773 5.80593 0.029223 5.74264 0 5.6671C0.00603583 5.5324 0.0586849 5.44551 0.140378 5.33985C0.326831 5.0989 0.567545 4.89057 0.772764 4.66456C1.17226 4.22454 1.56304 3.77137 1.95668 3.32556L3.76594 1.28419C4.15163 0.85015 4.52681 0.39603 4.95183 5.5945e-05Z" fill="black"/>
<path d="M5.30464 3.57582C5.55275 3.56762 5.77851 3.57593 5.97372 3.75373C6.1349 3.9005 6.1868 4.09334 6.20005 4.30416C6.21178 4.49122 6.23771 4.8526 6.09656 4.99375C6.01358 5.07673 5.77578 5.05228 5.66439 5.05317C5.4287 5.0518 5.06731 5.11212 4.8546 5.01936C4.81505 4.97592 4.78934 4.94095 4.77093 4.88436C4.68742 4.62789 4.69978 4.14114 4.82935 3.90423C4.94242 3.69751 5.08498 3.6343 5.30464 3.57582Z" fill="black"/>
<path d="M4.98942 1.42706C5.10674 1.47402 7.82926 4.64596 8.09635 4.9771C8.14668 6.09212 8.09546 7.32657 8.0902 8.45068L4.864 8.4572L1.72046 8.45899L1.73055 5.07896C2.11339 4.60499 2.54787 4.17388 2.95064 3.71689C3.62818 2.94811 4.2808 2.16808 4.98942 1.42706Z" fill="black"/>
<path d="M4.90481 2.12599C5.31274 2.43382 5.66187 2.81748 6.02657 3.15711C6.7273 3.80958 7.44913 4.45807 8.09984 5.14007L8.11831 9.169L6.47738 9.16884C6.48205 8.36418 6.65428 7.37229 6.04574 6.66474C5.77148 6.3458 5.43756 6.20121 4.96 6.12199C4.94026 6.12151 4.92052 6.12081 4.9007 6.12043C4.87381 6.11973 4.84693 6.11957 4.82004 6.11994C4.79322 6.12032 4.76633 6.12118 4.73951 6.12258C4.71269 6.12398 4.68588 6.12592 4.6592 6.12835C4.63252 6.13077 4.60592 6.13374 4.57945 6.13724C4.55292 6.14074 4.52659 6.14473 4.50034 6.14921C4.47409 6.15368 4.44805 6.15869 4.42215 6.16419C4.39625 6.16968 4.37057 6.17567 4.34502 6.18219C4.31955 6.18871 4.29429 6.19571 4.26924 6.2032C4.24426 6.2107 4.2195 6.21862 4.19494 6.22708C4.17046 6.23554 4.14626 6.24443 4.12234 6.25381C4.0985 6.26319 4.07493 6.27305 4.05165 6.28334C4.02837 6.29364 4.00552 6.30442 3.98302 6.31557C3.96044 6.32673 3.93829 6.33837 3.91657 6.35039C3.89485 6.3624 3.87348 6.37491 3.8526 6.38779C3.83173 6.40067 3.81121 6.41392 3.79118 6.42756C3.77116 6.44125 3.75163 6.45531 3.73252 6.4697C2.94036 7.07475 3.12278 8.36778 3.11903 9.16517L1.73178 9.16528L1.72046 5.08322C2.29638 4.50636 2.92536 3.95617 3.53178 3.39758C3.99002 2.97549 4.4271 2.53503 4.90481 2.12599Z" fill="#FCFCFC"/>
</svg>
