<svg width="64" height="64" viewBox="0 0 64 64" fill="none" xmlns="http://www.w3.org/2000/svg">
<g clip-path="url(#clip0_238_2357)">
<rect width="64" height="64" fill="white"/>
<path d="M5 59L18.9394 17.8788L39.8485 47.8485L60.7576 13" stroke="black" stroke-width="6.9697" stroke-linecap="round"/>
<path d="M3.39476 49.2805L3.22039 49.2135C3.07611 49.2121 2.93264 49.1388 2.78846 49.1374C2.71637 49.1367 2.64428 49.136 2.50071 49.0627C2.35653 49.0613 2.21296 48.9879 2.06878 48.9865C1.9246 48.9851 1.78033 48.9837 1.70894 48.9111L1.59584 48.9238C1.56673 48.6609 1.56163 48.3997 1.58097 48.1463C1.66188 48.2726 2.29629 48.3418 2.36359 48.3424C2.57925 48.4163 2.86629 48.563 3.08247 48.5651L3.21484 48.5501C3.218 48.5794 3.22202 48.6091 3.22604 48.6384C3.26236 48.8593 3.31942 49.074 3.39476 49.2805Z" fill="#FF004A"/>
<path d="M7.7481 44.1652L7.74176 44.226C7.53493 44.6279 7.32919 44.9672 7.1816 45.3621C7.09741 45.3646 7.01086 45.3738 6.92223 45.3902C6.86802 45.3825 6.81235 45.3772 6.75704 45.3733C6.82117 45.152 6.8932 44.973 7.01512 44.794C7.08933 44.579 7.23633 44.2929 7.23845 44.0772L7.25896 44.007C7.41994 44.0527 7.58619 44.107 7.7481 44.1652Z" fill="#FF004A"/>
<path d="M3.21561 48.5502L3.08324 48.5652C2.86697 48.5631 2.58002 48.4164 2.36436 48.3425C2.29706 48.3419 1.66275 48.2728 1.58174 48.1464C1.595 47.9667 1.62076 47.7907 1.65843 47.6205C1.94264 47.7632 2.2287 47.7665 2.51348 47.8407C2.78872 47.9125 2.93157 48.0486 3.19575 48.1249C3.19189 48.2647 3.19873 48.4066 3.21561 48.5502Z" fill="#FF004A"/>
<path d="M7.18103 45.3623C7.17111 45.3885 7.16175 45.4153 7.15229 45.4425C7.08139 45.4183 7.00266 45.4017 6.92157 45.3904C7.0103 45.374 7.09685 45.3648 7.18103 45.3623Z" fill="#FF004A"/>
<path d="M6.75525 45.3733C6.81055 45.3772 6.86622 45.3826 6.92043 45.3902C6.86068 45.4012 6.8005 45.4154 6.73867 45.4325C6.74433 45.4125 6.74989 45.3925 6.75525 45.3733Z" fill="#FF004A"/>
<path d="M3.19662 48.1249C3.21542 47.3904 3.51131 46.7237 4.04475 46.2027C4.48162 45.7756 5.06267 45.35 5.64029 45.2838C5.92935 45.2148 6.2171 45.2895 6.43266 45.3635C6.53079 45.3645 6.64329 45.3656 6.75715 45.3734C6.75169 45.3925 6.74623 45.4126 6.74058 45.4326C6.80241 45.4154 6.86258 45.4012 6.92233 45.3903C7.00342 45.4016 7.08215 45.4182 7.15305 45.4423C7.16251 45.4151 7.17187 45.3884 7.1818 45.3622C7.69583 45.3456 8.12955 45.5799 8.51749 46.0309C9.16014 46.6837 9.36794 47.5485 9.28658 48.4823C9.27952 49.2011 9.05479 50.0616 8.54441 50.6318C8.10684 51.1307 7.38302 51.4111 6.66123 51.4759C5.16019 51.5858 3.8866 50.6181 3.39639 49.2805C3.32096 49.0741 3.264 48.8594 3.22768 48.6385C3.22365 48.6091 3.21964 48.5795 3.21648 48.5502C3.1996 48.4066 3.19276 48.2647 3.19662 48.1249Z" fill="white"/>
<path d="M6.23077 43.78C6.44704 43.7821 6.73479 43.8568 6.95045 43.9308C7.04829 43.9514 7.15192 43.9774 7.2579 44.0072L7.23739 44.0775C7.23528 44.2931 7.08837 44.5792 7.01406 44.7942C6.89215 44.9732 6.82011 45.1523 6.75599 45.3736C6.64213 45.3658 6.52964 45.3647 6.43151 45.3637C6.21594 45.2897 5.92819 45.215 5.63913 45.284C5.06161 45.3503 4.48047 45.7758 4.04359 46.2029C3.51015 46.7239 3.21417 47.3905 3.19546 48.1251C2.93128 48.0488 2.78843 47.9126 2.51319 47.8409C2.22841 47.7667 1.94235 47.7634 1.65814 47.6207C1.70806 47.3929 1.7799 47.1751 1.87266 46.972C2.24238 46.0415 2.75496 45.2558 3.5544 44.6166C3.91706 44.4044 4.28043 44.1205 4.71447 43.981C5.00424 43.8401 5.2927 43.8429 5.58186 43.7739C5.84581 43.7765 6.0323 43.7783 6.22617 43.809L6.23077 43.78Z" fill="#FF004A"/>
<path d="M1.59654 48.9239L1.70964 48.9112C1.78103 48.9838 1.9253 48.9852 2.06948 48.9866C2.21366 48.988 2.35723 49.0614 2.50141 49.0628C2.64488 49.1361 2.71707 49.1368 2.78916 49.1375C2.93334 49.1389 3.07681 49.2122 3.22109 49.2136L3.39545 49.2807C3.88566 50.6183 5.15925 51.586 6.66028 51.476C7.38198 51.4112 8.1058 51.1308 8.54347 50.6319C9.05394 50.0618 9.27858 49.2013 9.28564 48.4824C9.36691 47.5486 9.1592 46.6839 8.51655 46.0311C8.12871 45.5801 7.69498 45.3459 7.18085 45.3623C7.32845 44.9673 7.53418 44.6281 7.74102 44.2262L7.74736 44.1653C7.58545 44.1073 7.41919 44.0528 7.25812 44.0073C7.15213 43.9775 7.0485 43.9515 6.95066 43.9308C6.7351 43.8568 6.44735 43.7821 6.23098 43.78L6.22639 43.8087C6.03252 43.7781 5.84603 43.7762 5.58208 43.7736C5.29292 43.8427 5.00456 43.8398 4.71469 43.9808C4.28065 44.1202 3.91728 44.4043 3.55462 44.6163C2.75518 45.2556 2.2426 46.0412 1.87288 46.9717C1.78012 47.175 1.70827 47.3927 1.65836 47.6204C1.62069 47.7906 1.59492 47.9667 1.58167 48.1463C1.56233 48.3998 1.56743 48.661 1.59654 48.9239ZM5.8537 60.1663C4.9969 59.2952 4.35788 58.2823 3.79094 57.2704C2.9405 55.7524 2.23432 54.2362 1.52805 52.7197C1.10437 51.8527 0.680909 50.914 0.473814 49.9775C0.336693 49.2572 0.415842 48.539 0.495696 47.749C0.577667 46.7434 0.804615 45.6677 1.38942 44.8108C1.97541 43.8819 2.84774 43.1716 3.79004 42.6776C4.44186 42.3965 5.09218 42.2592 5.74108 42.2655C5.93725 42.2675 6.13331 42.2694 6.3173 42.2832L6.31789 42.2712C6.82262 42.2762 7.39802 42.4256 7.90133 42.5743C9.48266 43.0931 11.0557 44.4025 11.6171 45.9896C12.2505 47.5769 12.0859 49.6602 11.4214 51.2352C11.0517 52.1661 10.5397 52.9519 10.0986 53.8102C9.58468 54.7397 9.14358 55.5976 8.63039 56.4552C8.0443 57.3841 7.5304 58.3135 7.01721 59.1711C6.72461 59.5997 6.43193 60.0281 5.9265 60.095C5.92625 60.1195 5.92602 60.1435 5.92579 60.167L5.8537 60.1663Z" fill="#FF004A"/>
<path d="M6.77648 42.2461C5.87577 41.9068 4.77089 42.06 3.88758 42.3674C3.0354 42.6641 2.24737 43.3223 1.65689 43.986C0.394046 45.4053 0.13004 47.3395 0.109277 49.1713C0.0978419 50.1798 0.488814 51.1508 0.887092 52.0602C1.3173 53.0426 1.78757 54.012 2.25615 54.9768C2.73356 55.9601 3.24159 56.9251 3.79946 57.8655C4.33859 58.774 4.97544 59.5499 5.71729 60.2998C5.89107 60.4754 6.15964 60.2119 5.99068 60.0326C4.70785 58.6697 3.86167 56.8346 3.03673 55.176C2.63703 54.3723 2.25811 53.5585 1.87592 52.7466C1.48266 51.9113 1.0837 51.0907 0.829046 50.2001C0.578371 49.3238 0.717845 48.3905 0.80749 47.5005C0.893307 46.6492 1.1109 45.8149 1.55197 45.0762C1.96044 44.3923 2.53314 43.8323 3.17216 43.3628C4.22299 42.5908 5.481 42.3757 6.75014 42.4516C6.8776 42.4591 6.88007 42.2851 6.77648 42.2461Z" fill="black"/>
<path d="M6.31168 42.2898C7.96562 42.8146 9.497 43.368 10.6302 44.7611C11.788 46.1847 11.9441 48.1392 11.5829 49.8752C11.2046 51.6935 10.0643 53.3387 9.193 54.9535C8.717 55.8357 8.19077 56.6852 7.68564 57.5504C7.45415 57.947 7.22639 58.3455 6.99481 58.7421C6.73587 59.1855 6.42703 59.7571 5.88766 59.8864C5.62316 59.9497 5.69066 60.3497 5.96256 60.3033C6.83253 60.1548 7.23774 59.2662 7.63961 58.5807C8.23868 57.5586 8.87164 56.5559 9.44652 55.5202C9.98505 54.5499 10.5117 53.5728 11.0443 52.5993C11.5467 51.6808 11.9401 50.7214 12.1354 49.691C12.485 47.8463 12.1779 45.8595 10.9709 44.3796C9.95467 43.1335 8.00101 41.8524 6.3109 42.2523C6.29084 42.2572 6.29469 42.2843 6.31168 42.2898Z" fill="black"/>
<path d="M5.76386 57.8168C5.88612 58.1002 5.80385 58.5806 5.82698 58.8865C5.85885 59.3081 5.82597 59.7407 5.79618 60.1613C5.78429 60.3282 6.0614 60.3359 6.05325 60.172C6.0315 59.7344 6.04337 59.2956 6.01042 58.8587C5.98568 58.5304 6.02956 58.0598 5.8437 57.7695C5.8106 57.718 5.74083 57.7634 5.76386 57.8168Z" fill="black"/>
<path d="M5.71446 57.2994C5.756 57.3399 5.79885 57.3931 5.84707 57.4253C5.96151 57.5015 6.09168 57.3692 6.01476 57.2562C5.98522 57.2128 5.94183 57.1754 5.90601 57.1373C5.8592 57.0875 5.7829 57.077 5.72883 57.1229C5.68036 57.1639 5.66543 57.2517 5.71446 57.2994Z" fill="black"/>
<path d="M5.87409 56.9484C5.9884 56.9495 6.0135 56.7721 5.89785 56.771C5.78364 56.7698 5.75844 56.9473 5.87409 56.9484Z" fill="black"/>
<path d="M5.7684 53.5543C5.73547 54.0898 5.8008 54.6136 5.79059 55.1455C5.78272 55.5575 5.75966 56.0239 5.94736 56.4007C5.99909 56.5046 6.13994 56.4457 6.13044 56.3402C6.04669 55.4109 5.96451 54.4879 5.92401 53.5518C5.91964 53.4505 5.77444 53.4556 5.7684 53.5543Z" fill="black"/>
<path d="M5.72864 56.8238C5.76091 56.901 5.80005 56.9718 5.84888 57.0399C5.90394 57.1169 5.97369 57.2098 6.06704 57.2393C6.13061 57.2594 6.21215 57.2047 6.19285 57.1324C6.16994 57.0465 6.10396 56.9892 6.04155 56.929C5.98588 56.8753 5.93868 56.8166 5.89873 56.7502C5.8391 56.6507 5.6812 56.7106 5.72864 56.8238Z" fill="black"/>
<path d="M6.45692 43.8301C5.43885 43.3431 4.3333 43.9636 3.47308 44.4744C2.68895 44.94 2.14156 45.9552 1.78388 46.7521C0.958976 48.5902 1.43207 50.8415 3.08042 52.0713C3.22908 52.1823 3.45245 52.0165 3.33546 51.8498C2.88223 51.2035 2.3211 50.6825 2.00993 49.9412C1.59257 48.9469 1.73214 47.7404 2.12974 46.778C2.44222 46.0219 2.93382 45.3644 3.55023 44.8283C3.85954 44.5592 4.26361 44.3528 4.62725 44.1678C5.22559 43.8636 5.80616 43.8764 6.44783 43.8783C6.47387 43.8783 6.47874 43.8405 6.45692 43.8301Z" fill="black"/>
<path d="M3.8886 52.0904C3.88352 52.1588 3.87883 52.2273 3.87375 52.2958C3.8678 52.3752 3.86269 52.4664 3.92783 52.5217C3.95224 52.5425 4.00614 52.5524 4.0311 52.5257C4.13492 52.4152 4.08968 52.216 4.08117 52.0784C4.07404 51.9659 3.89654 51.984 3.8886 52.0904Z" fill="black"/>
<path d="M4.27425 52.2956C4.32355 52.3651 4.34672 52.4527 4.3836 52.529C4.42601 52.6166 4.58521 52.6977 4.6498 52.5844C4.68838 52.5166 4.63765 52.4275 4.55865 52.4285C4.61042 52.4512 4.62542 52.4542 4.60375 52.4374C4.61237 52.447 4.61219 52.4459 4.60321 52.4342C4.5915 52.4173 4.58055 52.4021 4.5673 52.3863C4.50852 52.3167 4.46622 52.237 4.39953 52.1739C4.32497 52.1033 4.21881 52.2174 4.27425 52.2956Z" fill="black"/>
<path d="M4.95443 52.5917C5.34564 52.8563 5.7705 52.7361 6.1876 52.8986C6.5098 53.0242 7.04604 52.8907 7.37388 52.8212C8.15651 52.6556 9.08155 52.2128 9.542 51.5394C9.65167 51.379 9.45491 51.1552 9.29273 51.29C9.03325 51.5057 8.8056 51.7458 8.52283 51.9345C8.19977 52.1501 7.77836 52.2708 7.41559 52.4057C7.03985 52.5453 6.53457 52.5978 6.13874 52.5597C5.75229 52.5226 5.39075 52.6406 5.01426 52.4759C4.94467 52.4455 4.89356 52.5504 4.95443 52.5917Z" fill="black"/>
<path d="M9.61399 51.1715C9.62527 51.173 9.63656 51.1742 9.64784 51.1757C9.65234 51.1762 9.65674 51.1767 9.66123 51.1772C9.63295 51.1711 9.63571 51.1731 9.66951 51.183C9.69692 51.1898 9.72758 51.1872 9.75583 51.1875C9.81786 51.1881 9.86465 51.1228 9.85995 51.0654C9.85456 50.9997 9.7994 50.9622 9.73746 50.9616C9.68978 50.9611 9.64659 50.9722 9.59915 50.9769C9.55554 50.9812 9.52272 51.0274 9.52051 51.0681C9.51765 51.1244 9.56063 51.1651 9.61399 51.1715Z" fill="black"/>
<path d="M9.99704 50.7615C10.0131 50.7601 10.0379 50.7669 10.0556 50.7652C10.0873 50.7625 10.1117 50.7501 10.1378 50.7331C10.1836 50.7032 10.2041 50.6522 10.2253 50.6045C10.2629 50.5198 10.1537 50.4534 10.0834 50.4865C10.0548 50.5 10.0272 50.5107 10.0004 50.528C10.0241 50.5125 10.0024 50.5247 9.99685 50.5275C9.97587 50.5381 10.0273 50.5212 10.0009 50.5263C9.99138 50.5283 9.98161 50.5289 9.97202 50.5302C9.82229 50.548 9.84717 50.7742 9.99704 50.7615Z" fill="black"/>
<path d="M6.21892 43.8276C6.6023 43.885 6.97853 44.0466 7.34524 44.1735C7.82597 44.3397 8.33154 44.5805 8.69777 44.941C9.01488 45.2531 9.34223 45.6827 9.55864 46.0705C9.77928 46.4658 9.86524 46.9169 10.0225 47.337C10.076 47.4796 10.324 47.4315 10.3176 47.2784C10.2744 46.229 9.67414 45.3851 8.96515 44.6525C8.33474 44.0012 7.10579 43.7236 6.22955 43.7306C6.17439 43.7309 6.1628 43.8192 6.21892 43.8276Z" fill="black"/>
<path d="M10.309 47.9508C10.4051 48.1293 10.3249 48.4942 10.3224 48.694C10.32 48.893 10.3297 49.0905 10.3494 49.2885C10.3581 49.3751 10.4975 49.3971 10.5091 49.3021C10.5424 49.0294 10.5537 48.7556 10.5486 48.4809C10.5447 48.2723 10.5624 48.0415 10.423 47.8709C10.3723 47.8087 10.2721 47.882 10.309 47.9508Z" fill="black"/>
<path d="M7.16347 45.4054C6.97172 45.3153 6.775 45.2721 6.56337 45.2563C6.23223 45.2315 5.97521 45.0897 5.62969 45.116C5.1186 45.1549 4.67971 45.4167 4.28214 45.7229C3.49808 46.3265 3.0201 47.1672 2.98183 48.1587C2.91745 49.8299 4.23753 51.3189 5.82831 51.6636C6.63689 51.8388 7.59059 51.6567 8.26916 51.1864C9.06795 50.6328 9.41937 49.7135 9.51349 48.7769C9.60932 47.8225 9.48164 46.8915 8.89907 46.1065C8.37188 45.396 7.56032 44.9301 6.67156 45.2267C6.41143 45.3135 6.48497 45.7029 6.76517 45.649C7.59984 45.4884 8.13398 45.8714 8.61549 46.5242C9.08765 47.1644 9.07978 47.985 9.0292 48.7383C8.97805 49.5008 8.66565 50.26 8.05877 50.7416C7.4795 51.2013 6.6102 51.3103 5.90112 51.2018C4.59452 51.002 3.66931 49.8336 3.43635 48.5961C3.28875 47.8121 3.58188 47.0267 4.09385 46.4399C4.38619 46.1049 4.7669 45.8297 5.15901 45.6219C5.72292 45.3231 5.78939 45.5059 6.44351 45.479C6.6799 45.4693 6.91236 45.4616 7.14809 45.4807C7.19506 45.4847 7.20131 45.4233 7.16347 45.4054Z" fill="black"/>
<path d="M7.1673 44.0736C7.11919 44.5948 6.69845 44.9887 6.64856 45.5063C6.64216 45.5729 6.74795 45.6123 6.77827 45.5473C6.89075 45.3063 6.94336 45.0579 7.08739 44.8301C7.20858 44.6384 7.2936 44.3065 7.30779 44.0807C7.31347 43.9899 7.17555 43.9841 7.1673 44.0736Z" fill="black"/>
<path d="M7.67455 44.172C7.52301 44.4027 7.38501 44.6404 7.25261 44.8824C7.16233 45.0473 7.05845 45.232 7.04137 45.4214C7.03266 45.5186 7.16573 45.6177 7.23614 45.516C7.37775 45.3113 7.44597 45.0627 7.55311 44.8378C7.64433 44.6462 7.73914 44.4587 7.81805 44.2615C7.85192 44.1765 7.73005 44.0877 7.67455 44.172Z" fill="black"/>
<path d="M8.14023 44.4436C8.1216 44.6826 7.98692 44.914 7.91193 45.1396C7.87326 45.2563 8.07104 45.3277 8.11573 45.2128C8.21199 44.965 8.33962 44.7209 8.34354 44.449C8.3455 44.3175 8.1504 44.3139 8.14023 44.4436Z" fill="black"/>
<path d="M1.61501 47.6938C1.85477 47.8292 2.1019 47.8777 2.36851 47.9397C2.65892 48.0073 2.9282 48.2659 3.23046 48.2381C3.30828 48.2309 3.3835 48.1269 3.30571 48.0634C2.83858 47.6813 2.227 47.7256 1.68604 47.5392C1.58241 47.5035 1.51865 47.6394 1.61501 47.6938Z" fill="black"/>
<path d="M1.47053 48.1177C1.44137 48.4257 2.02864 48.5068 2.22881 48.5494C2.56236 48.6207 2.87403 48.9606 3.21219 48.7281C3.29712 48.6698 3.3246 48.513 3.24722 48.437C3.10355 48.2959 2.96967 48.289 2.77818 48.2306C2.64071 48.1886 2.48484 48.1103 2.33974 48.1155C2.13783 48.123 1.8043 48.138 1.62593 48.0302C1.55511 47.9874 1.47758 48.0434 1.47053 48.1177Z" fill="black"/>
<path d="M1.5442 49.0237C1.7834 49.3034 2.14157 49.2569 2.44997 49.4221C2.59055 49.4974 2.76892 49.4982 2.92067 49.5376C3.10413 49.5852 3.21601 49.5608 3.38283 49.4802C3.55695 49.3962 3.58619 49.11 3.43811 48.9891C3.2187 48.8099 2.98558 48.7873 2.71064 48.7741C2.59981 48.7688 2.44017 48.724 2.3249 48.7032C2.13881 48.6696 1.92218 48.763 1.74925 48.7152C1.58721 48.6701 1.43089 48.8913 1.5442 49.0237Z" fill="black"/>
<path d="M2.0311 50.0199C2.06884 50.1551 2.18116 50.2124 2.31448 50.2176C2.46321 50.2236 2.58129 50.1436 2.72003 50.1134C2.83872 50.0876 2.8683 49.9031 2.72782 49.8857C2.62397 49.8729 2.52891 49.9007 2.42965 49.9262C2.37782 49.9396 2.25625 50.0048 2.22346 49.9418C2.1682 49.8358 1.99947 49.9068 2.0311 50.0199Z" fill="black"/>
<path d="M2.83463 50.4454C2.8753 50.4478 2.90687 50.4705 2.93784 50.4953C3.00728 50.5506 3.12064 50.4634 3.06049 50.3881C3.01272 50.3283 2.93985 50.281 2.86226 50.2746C2.81519 50.2708 2.77079 50.297 2.76284 50.3462C2.75581 50.3892 2.78736 50.4427 2.83463 50.4454Z" fill="black"/>
<path d="M17.1966 11.0014L17.0342 10.9465C16.8999 10.9452 16.7661 10.885 16.6319 10.8837C16.5648 10.8831 16.4976 10.8824 16.3639 10.8223C16.2296 10.821 16.0958 10.7609 15.9613 10.7596C15.8269 10.7582 15.6928 10.7569 15.6262 10.6975L15.5209 10.7078C15.4935 10.4927 15.4884 10.2791 15.5062 10.0719C15.5816 10.1752 16.1726 10.2324 16.2353 10.233C16.4363 10.2938 16.7037 10.414 16.9051 10.416L17.0283 10.4039C17.0312 10.4278 17.035 10.4522 17.0388 10.4761C17.0729 10.6568 17.1262 10.8325 17.1966 11.0014Z" fill="#FFC44A"/>
<path d="M21.2458 6.82177L21.2398 6.87153C21.0477 7.20013 20.8566 7.47733 20.7195 7.80019C20.641 7.80225 20.5602 7.80958 20.4778 7.82291C20.4274 7.81651 20.3753 7.81207 20.324 7.80886C20.3833 7.6279 20.4502 7.48158 20.5636 7.33534C20.6327 7.15952 20.7691 6.9257 20.7708 6.74934L20.79 6.69197C20.9399 6.72935 21.0948 6.77405 21.2458 6.82177Z" fill="#FFC44A"/>
<path d="M17.0267 10.4044L16.9035 10.4165C16.7021 10.4145 16.4346 10.2943 16.2336 10.2336C16.171 10.2329 15.58 10.1757 15.5046 10.0724C15.5167 9.92543 15.5404 9.78139 15.5755 9.64226C15.8404 9.75937 16.1068 9.76235 16.3721 9.82338C16.6283 9.88235 16.7618 9.99374 17.0079 10.0565C17.0044 10.1709 17.0108 10.2871 17.0267 10.4044Z" fill="#FFC44A"/>
<path d="M20.7159 7.80022C20.7067 7.82165 20.6978 7.84358 20.6893 7.86588C20.6232 7.84605 20.5499 7.83241 20.4744 7.82294C20.5567 7.8096 20.6374 7.80216 20.7159 7.80022Z" fill="#FFC44A"/>
<path d="M20.3235 7.80898C20.3749 7.81219 20.4268 7.81664 20.4773 7.82304C20.4217 7.83184 20.3657 7.84347 20.3081 7.85741C20.3132 7.84098 20.3183 7.82455 20.3235 7.80898Z" fill="#FFC44A"/>
<path d="M17.0074 10.056C17.024 9.45525 17.299 8.91015 17.7954 8.48446C18.2018 8.13552 18.7425 7.78801 19.2806 7.7345C19.5498 7.67821 19.8179 7.73977 20.0191 7.80055C20.1103 7.80144 20.2151 7.80247 20.3212 7.80905C20.3162 7.82463 20.3111 7.84106 20.3057 7.85749C20.3633 7.84354 20.4195 7.83191 20.475 7.82311C20.5505 7.83246 20.6238 7.8461 20.6899 7.86606C20.6985 7.84376 20.7074 7.82195 20.7166 7.80039C21.1953 7.7875 21.5996 7.97968 21.9613 8.34896C22.5608 8.8837 22.7554 9.59136 22.6807 10.3552C22.675 10.9433 22.4664 11.647 21.9917 12.1129C21.5847 12.5205 20.9107 12.7492 20.2384 12.8014C18.8402 12.8896 17.6526 12.0966 17.1944 11.0016C17.124 10.8327 17.0706 10.657 17.0366 10.4762C17.0327 10.4523 17.0291 10.4279 17.0261 10.404C17.0105 10.2867 17.004 10.1705 17.0074 10.056Z" fill="white"/>
<path d="M19.8316 6.50535C20.0334 6.50733 20.3014 6.56876 20.5022 6.62954C20.5934 6.64655 20.6901 6.66779 20.7888 6.69238L20.7697 6.74977C20.768 6.92615 20.6315 7.16015 20.5624 7.33588C20.449 7.48214 20.3821 7.62861 20.3227 7.80948C20.2165 7.8029 20.1117 7.80187 20.0206 7.80097C19.8194 7.74019 19.5513 7.67876 19.2821 7.73492C18.7441 7.78844 18.2034 8.13594 17.7968 8.48489C17.3005 8.91057 17.0255 9.45567 17.0089 10.0564C16.7628 9.99363 16.6292 9.88222 16.373 9.82324C16.1076 9.7622 15.8412 9.75921 15.5762 9.64208C15.6223 9.45579 15.689 9.27783 15.7752 9.11162C16.1186 8.35093 16.5951 7.70854 17.3392 7.1865C17.6768 7.01341 18.0151 6.78152 18.4192 6.66788C18.689 6.55293 18.9577 6.55557 19.2268 6.49941C19.4727 6.50182 19.6463 6.50353 19.8271 6.5288L19.8316 6.50535Z" fill="#FFC44A"/>
<path d="M15.52 10.7079L15.6254 10.6976C15.6919 10.757 15.8261 10.7584 15.9606 10.7597C16.095 10.761 16.2288 10.8211 16.3632 10.8224C16.497 10.8826 16.5641 10.8832 16.6313 10.8839C16.7656 10.8852 16.8993 10.9453 17.0337 10.9466L17.1961 11.0016C17.6541 12.0964 18.8418 12.8896 20.24 12.8013C20.9122 12.7491 21.5864 12.5204 21.9934 12.1128C22.4682 11.6469 22.6766 10.9432 22.6824 10.3551C22.7572 9.59133 22.5625 8.88366 21.963 8.34892C21.6012 7.97952 21.197 7.78733 20.7183 7.80035C20.8552 7.47742 21.0465 7.20017 21.2387 6.87151L21.2447 6.82175C21.0937 6.77401 20.9387 6.72931 20.7887 6.69179C20.6901 6.66733 20.5933 6.64596 20.5021 6.62895C20.3012 6.5683 20.0332 6.50674 19.8316 6.50476L19.8274 6.52821C19.6467 6.50294 19.473 6.50124 19.2272 6.49882C18.9581 6.55498 18.6893 6.55234 18.4195 6.6673C18.0154 6.78094 17.6772 7.01282 17.3395 7.18592C16.5954 7.70795 16.119 8.35035 15.7755 9.11103C15.6892 9.27724 15.6227 9.45533 15.5766 9.6415C15.5416 9.78078 15.5177 9.92484 15.5056 10.0717C15.4876 10.279 15.4926 10.4928 15.52 10.7079ZM19.4982 19.91C18.6992 19.1964 18.1027 18.3671 17.5734 17.5385C16.7795 16.2956 16.12 15.0544 15.4604 13.813C15.0648 13.1032 14.6693 12.3348 14.4751 11.5683C14.3466 10.9789 14.4195 10.3915 14.4931 9.74526C14.5683 8.92265 14.7786 8.04292 15.3223 7.34251C15.8671 6.58331 16.6791 6.00314 17.5562 5.60001C18.163 5.37076 18.7686 5.2591 19.3732 5.26504C19.556 5.26683 19.7386 5.26863 19.9101 5.28015L19.9106 5.27032C20.3807 5.27493 20.9169 5.3978 21.386 5.52001C22.8596 5.94622 24.3266 7.01919 24.8513 8.31824C25.4431 9.61745 25.2921 11.3216 24.6748 12.6094C24.3315 13.3706 23.8555 14.0129 23.4453 14.7145C22.9675 15.4745 22.5577 16.1757 22.0806 16.8769C21.5359 17.6361 21.0581 18.396 20.5809 19.097C20.3088 19.4473 20.0366 19.7974 19.5658 19.8516C19.5656 19.8717 19.5654 19.8912 19.5652 19.9105L19.4982 19.91Z" fill="#FFC44A"/>
<path d="M20.3421 5.23591C18.7167 4.69147 16.9439 5.41819 15.7841 6.40521C14.4839 7.51178 14.1569 9.07618 14.0943 10.6028C14.0243 12.311 15.1217 13.9051 15.9406 15.4028C16.8648 17.0935 17.8403 18.6937 19.348 20.0394C19.5391 20.21 19.8333 19.956 19.6485 19.7814C18.564 18.7558 17.8351 17.3941 17.1172 16.1597C16.3513 14.8425 15.5324 13.4851 14.9752 12.0888C14.4461 10.7628 14.7044 8.85766 15.4753 7.63863C16.4559 6.08815 18.3569 5.40513 20.3132 5.43455C20.4532 5.43654 20.4581 5.27469 20.3421 5.23591Z" fill="black"/>
<path d="M19.9048 5.28903C21.31 5.74175 22.5979 6.12812 23.6679 7.10259C24.9231 8.24582 25.1213 9.93138 24.7994 11.4209C24.4629 12.9773 23.3165 14.4141 22.4695 15.7906C22.0547 16.4646 21.5932 17.113 21.1541 17.7748C20.7705 18.3525 20.3297 19.4456 19.524 19.6505C19.2414 19.7224 19.3058 20.1071 19.607 20.0537C20.3478 19.9221 20.6943 19.3795 21.0538 18.8454C21.6391 17.9758 22.2492 17.1169 22.8112 16.2357C23.7977 14.6892 24.9989 13.103 25.384 11.3394C25.7055 9.86687 25.4206 8.28711 24.3744 7.07755C23.4267 5.982 21.5385 4.89862 19.9038 5.25261C19.8814 5.25768 19.8868 5.28319 19.9048 5.28903Z" fill="black"/>
<path d="M20.0422 6.5439C19.0856 6.13888 18.0613 6.62274 17.2475 7.04998C16.5325 7.42542 16.0369 8.22509 15.6967 8.85947C14.8992 10.3464 15.2715 12.3279 16.8849 13.3044C17.052 13.4056 17.2908 13.2577 17.1654 13.0907C16.7006 12.4711 16.0851 12.004 15.8424 11.2704C15.6237 10.6099 15.6553 9.82438 15.9362 9.18794C16.2407 8.4981 16.6713 7.92008 17.2951 7.4211C18.0612 6.80837 19.0255 6.61769 20.0323 6.5903C20.0605 6.58959 20.0666 6.55422 20.0422 6.5439Z" fill="black"/>
<path d="M22.9916 12.5698C23.0358 12.5752 23.0738 12.5846 23.1195 12.585C23.1702 12.5855 23.2299 12.5405 23.2325 12.4951C23.2334 12.4845 23.2334 12.4736 23.2325 12.4628C23.2297 12.4469 23.2225 12.4326 23.211 12.42C23.168 12.383 23.1201 12.3651 23.0671 12.3663C23.0375 12.3661 23.005 12.3785 22.9752 12.3816C22.8446 12.3952 22.8773 12.5555 22.9916 12.5698Z" fill="black"/>
<path d="M23.3511 12.2374C23.3756 12.2416 23.4004 12.2422 23.4251 12.2394C23.4497 12.2353 23.4782 12.2231 23.4975 12.2092C23.5375 12.1805 23.5554 12.147 23.5724 12.1054C23.6029 12.0305 23.498 11.9583 23.4199 11.982C23.4047 11.9867 23.3895 11.9913 23.3743 11.9959C23.3644 12.0012 23.3544 12.0064 23.3445 12.0117C23.3535 12.0062 23.3523 12.0061 23.3408 12.0115C23.3525 12.0098 23.3512 12.01 23.337 12.0121C23.3097 12.0163 23.2852 12.0196 23.2619 12.0342C23.1614 12.0978 23.2212 12.2561 23.3511 12.2374Z" fill="black"/>
<path d="M19.8172 6.55104C20.6827 6.69975 21.7103 7.05435 22.2799 7.65634C22.8069 8.21339 23.0539 8.76413 23.3422 9.42879C23.4019 9.56652 23.6732 9.5206 23.6668 9.37257C23.5907 7.60944 21.7156 6.47055 19.8287 6.45731C19.7673 6.45683 19.7567 6.54061 19.8172 6.55104Z" fill="black"/>
<path d="M23.624 9.92555C23.7089 10.0694 23.6308 10.3694 23.6287 10.5301C23.6265 10.6928 23.6374 10.8542 23.66 11.0155C23.6715 11.0984 23.8209 11.1215 23.8356 11.0288C23.8712 10.8051 23.8833 10.5797 23.8768 10.3537C23.8718 10.1793 23.8852 9.98925 23.7493 9.84856C23.692 9.78908 23.5845 9.8585 23.624 9.92555Z" fill="black"/>
<path d="M20.7021 7.83037C19.7347 7.45465 18.8336 7.51494 17.9972 8.06781C17.3094 8.52224 16.8928 9.15046 16.7826 9.89548C16.5697 11.3366 17.895 12.6513 19.4167 12.9813C21.4133 13.4141 22.8773 12.0107 22.9451 10.3754C22.9978 9.10289 22.0768 7.14686 20.2336 7.65785C19.9427 7.73853 20.0301 8.10954 20.3373 8.0663C21.8234 7.85701 22.491 9.23803 22.4132 10.3358C22.3671 10.987 22.2 11.5891 21.6626 12.0677C21.1315 12.5406 20.2066 12.6323 19.4981 12.5364C18.1964 12.3602 17.2869 11.2143 17.2385 10.1181C17.2129 9.53705 17.5247 9.02123 17.9651 8.60988C18.6853 7.9374 19.6804 7.87693 20.6852 7.9034C20.7354 7.90451 20.7459 7.84741 20.7021 7.83037Z" fill="black"/>
<path d="M20.6922 6.74625C20.6467 7.17186 20.243 7.49334 20.2106 7.91747C20.2056 7.98187 20.3178 8.01975 20.3534 7.95725C20.4513 7.7854 20.4923 7.59824 20.6009 7.4292C20.7237 7.23805 20.8315 6.97799 20.8467 6.7533C20.8526 6.66554 20.7013 6.65975 20.6922 6.74625Z" fill="black"/>
<path d="M21.1643 6.81865C21.0193 7.00541 20.89 7.19933 20.7651 7.39686C20.6719 7.54428 20.5728 7.70209 20.5664 7.87225C20.563 7.96508 20.721 8.00907 20.7827 7.93637C20.9206 7.77401 20.9842 7.56137 21.0823 7.37759C21.1658 7.22073 21.2526 7.0676 21.3222 6.90531C21.3573 6.82337 21.2273 6.73736 21.1643 6.81865Z" fill="black"/>
<path d="M21.595 7.05008C21.5768 7.24362 21.4505 7.43278 21.3824 7.61623C21.3405 7.7291 21.557 7.79801 21.6067 7.68719C21.6985 7.48232 21.8169 7.28116 21.8189 7.0556C21.8198 6.92819 21.6068 6.92475 21.595 7.05008Z" fill="black"/>
<path d="M16.6977 11.9681C16.8211 11.9693 16.8008 11.8028 16.679 11.8016C16.5558 11.8005 16.5761 11.9669 16.6977 11.9681Z" fill="black"/>
<path d="M19.5733 14.7923C19.5499 15.6284 19.5556 16.4635 19.5215 17.2998C19.486 18.1709 19.4075 19.0487 19.4455 19.9183C19.453 20.0873 19.7481 20.0818 19.7451 19.9123C19.7141 18.2077 19.6929 16.5006 19.6194 14.7909C19.6182 14.7647 19.5739 14.7666 19.5733 14.7923Z" fill="black"/>
<path d="M19.5146 14.405C19.5245 14.4863 19.5844 14.5085 19.6565 14.5465C19.7327 14.5865 19.8054 14.5056 19.7539 14.4466C19.7385 14.4288 19.7237 14.4139 19.7043 14.3996C19.675 14.378 19.6819 14.3799 19.6859 14.4029C19.67 14.3094 19.5028 14.3075 19.5146 14.405Z" fill="black"/>
<path d="M19.7014 14.4843C19.7214 14.4856 19.7227 14.4845 19.7053 14.4807C19.7082 14.4816 19.7348 14.5051 19.7351 14.5053C19.8172 14.5743 19.9291 14.4642 19.8531 14.3929C19.8035 14.3466 19.7632 14.3287 19.6909 14.326C19.5755 14.3217 19.5839 14.4855 19.7014 14.4843Z" fill="black"/>
<path d="M17.9806 13.4916C18.3329 13.7385 18.7313 14.0694 19.2109 14.084C19.8675 14.1041 20.4909 14.0014 21.1174 13.8399C22.036 13.6031 23.3353 12.8632 23.6571 12.0453C23.7122 11.9049 23.4845 11.7559 23.3834 11.8996C22.3225 13.4053 19.8729 14.3501 17.9917 13.4773C17.9806 13.4721 17.9706 13.4845 17.9806 13.4916Z" fill="black"/>
<path d="M23.6364 11.7533C23.7 11.7636 23.7522 11.7652 23.8072 11.7323C23.8754 11.6914 23.891 11.6087 23.8146 11.5645C23.7563 11.5309 23.7097 11.5263 23.6478 11.5363C23.5136 11.5577 23.4886 11.7292 23.6364 11.7533Z" fill="black"/>
<path d="M17.4828 13.475C17.4881 13.5538 17.5414 13.6075 17.6332 13.6172C17.7718 13.6319 17.7813 13.4492 17.6471 13.4303C17.6416 13.4295 17.636 13.4287 17.6305 13.4279C17.6479 13.433 17.6653 13.4381 17.6826 13.4432C17.6958 13.449 17.6997 13.4751 17.6999 13.4854C17.6978 13.3618 17.4745 13.3542 17.4828 13.475Z" fill="black"/>
<path d="M19.4396 12.9387C19.5217 13.0533 19.4576 13.2952 19.4552 13.4259C19.4519 13.6066 19.4156 13.8155 19.4744 13.9898C19.4975 14.0579 19.6048 14.0614 19.6303 13.9929C19.7089 13.7826 19.661 13.5139 19.6612 13.294C19.6614 13.1415 19.7102 12.9844 19.5888 12.8547C19.518 12.7788 19.3773 12.8516 19.4396 12.9387Z" fill="black"/>
<path d="M19.7354 13.0256C19.8164 13.1782 19.7572 13.3316 19.7905 13.4869C19.8212 13.6304 19.8015 13.8245 19.9205 13.9382C19.973 13.9883 20.074 13.9829 20.0897 13.9053C20.1232 13.7401 20.0237 13.5819 20.0187 13.4185C20.0136 13.2515 19.9895 13.0878 19.8833 12.9448C19.8202 12.8598 19.6892 12.9387 19.7354 13.0256Z" fill="black"/>
<path d="M20.264 12.9496C20.2775 13.2077 20.3371 13.542 20.4931 13.7653C20.5516 13.8489 20.7341 13.8155 20.6945 13.707C20.6399 13.5574 20.5839 13.4112 20.5448 13.2576C20.5158 13.1442 20.464 13.0373 20.4348 12.9257C20.4125 12.84 20.2596 12.8643 20.264 12.9496Z" fill="black"/>
<path d="M21.2788 13.0462C21.322 13.0895 21.3392 13.1387 21.3925 13.176C21.4403 13.2095 21.5272 13.1604 21.4936 13.1088C21.4591 13.0558 21.4387 13.0012 21.3921 12.9542C21.3266 12.8882 21.2132 12.9801 21.2788 13.0462Z" fill="black"/>
<path d="M21.9974 12.7609C22.0084 12.7706 22.0203 12.7792 22.0333 12.7868C22.0428 12.7951 22.0541 12.799 22.0674 12.7987C22.1583 12.9012 22.3262 12.8186 22.29 12.6982C22.2704 12.6335 22.2063 12.6066 22.154 12.565C22.0987 12.5211 22.0024 12.5458 21.9637 12.5942C21.917 12.6526 21.9422 12.7169 21.9974 12.7609Z" fill="black"/>
<path d="M61.2841 9.9644L61.4258 9.9133C61.5422 9.91444 61.6588 9.85765 61.775 9.85879C61.8329 9.85936 61.8912 9.85994 62.0078 9.80315C62.1242 9.80429 62.2408 9.7475 62.357 9.74864C62.4733 9.74978 62.5892 9.75092 62.6481 9.69356L62.7391 9.70554C62.767 9.49416 62.7751 9.28383 62.7637 9.07938C62.6964 9.17974 62.1843 9.22532 62.1299 9.22479C61.9548 9.28101 61.7215 9.39458 61.5474 9.39287L61.4409 9.37865C61.4378 9.40226 61.4342 9.42606 61.4304 9.44966C61.3976 9.62732 61.3483 9.79939 61.2841 9.9644Z" fill="#00C84A"/>
<path d="M57.8582 5.77423L57.8621 5.82342C58.0223 6.15043 58.1828 6.42703 58.2955 6.74751C58.3632 6.75089 58.4328 6.75974 58.5042 6.77424C58.5476 6.76902 58.5928 6.7657 58.6373 6.76321C58.5893 6.58391 58.5339 6.43843 58.4384 6.29234C58.3822 6.11799 58.2683 5.88513 58.27 5.71135L58.2546 5.65452C58.1244 5.68879 57.9895 5.72993 57.8582 5.77423Z" fill="#00C84A"/>
<path d="M61.44 9.37861L61.5465 9.39283C61.7206 9.39454 61.9542 9.28096 62.129 9.22475C62.1834 9.22528 62.6953 9.17969 62.7628 9.07933C62.7548 8.93453 62.7369 8.79213 62.7093 8.65424C62.4778 8.7647 62.2475 8.76285 62.0168 8.81811C61.7939 8.87176 61.6768 8.97895 61.4627 9.03645C61.4635 9.14919 61.4558 9.26331 61.44 9.37861Z" fill="#00C84A"/>
<path d="M58.2998 6.74707C58.3071 6.76848 58.3143 6.79009 58.3216 6.81212C58.3791 6.79365 58.4427 6.78173 58.5085 6.7738C58.4371 6.7593 58.3675 6.75045 58.2998 6.74707Z" fill="#00C84A"/>
<path d="M58.6418 6.76278C58.5973 6.76506 58.5521 6.76838 58.5087 6.77381C58.5564 6.78348 58.6047 6.79609 58.6541 6.81079C58.6501 6.79444 58.6458 6.77809 58.6418 6.76278Z" fill="#00C84A"/>
<path d="M61.4641 9.03591C61.4607 8.44378 61.2327 7.90193 60.811 7.47385C60.466 7.12286 60.0043 6.77072 59.54 6.70822C59.3082 6.64801 59.0752 6.70366 58.9003 6.75988C58.8212 6.7591 58.7306 6.75821 58.6387 6.76275C58.6429 6.77827 58.6469 6.79441 58.6512 6.81076C58.6018 6.79606 58.5533 6.78345 58.5057 6.77378C58.44 6.78171 58.3765 6.79385 58.3189 6.8121C58.3115 6.79007 58.3044 6.76846 58.2971 6.74705C57.8829 6.72563 57.5299 6.90747 57.2103 7.26469C56.6822 7.78029 56.5013 8.47393 56.5518 9.22736C56.5461 9.80665 56.7136 10.5035 57.116 10.9709C57.4604 11.3796 58.0394 11.6171 58.6197 11.6809C59.8277 11.7932 60.8688 11.0335 61.2848 9.96361C61.349 9.79859 61.3981 9.62632 61.4311 9.44908C61.4349 9.42548 61.4385 9.40167 61.4416 9.37807C61.4572 9.26277 61.4649 9.14865 61.4641 9.03591Z" fill="white"/>
<path d="M59.0882 5.48739C58.9139 5.48568 58.6807 5.54133 58.5058 5.59754C58.4266 5.61266 58.3429 5.63191 58.2571 5.65429L58.2725 5.71112C58.2707 5.88491 58.3847 6.11776 58.4409 6.29211C58.5364 6.4382 58.5916 6.58368 58.6398 6.76298C58.7319 6.75845 58.8223 6.75933 58.9014 6.76011C59.0763 6.70389 59.3091 6.64825 59.5411 6.70846C60.0054 6.77095 60.4671 7.12309 60.8121 7.47408C61.2336 7.90217 61.4618 8.44401 61.4652 9.03614C61.6791 8.97864 61.7964 8.87145 62.0193 8.8178C62.25 8.76254 62.4803 8.76439 62.7117 8.65393C62.6752 8.46973 62.6207 8.29309 62.5491 8.128C62.2659 7.37249 61.8654 6.73128 61.2316 6.20365C60.9425 6.0268 60.6543 5.79244 60.3068 5.67316C60.0757 5.55502 59.8433 5.55274 59.6114 5.49253C59.3985 5.49044 59.2483 5.48896 59.0916 5.51064L59.0882 5.48739Z" fill="#00C84A"/>
<path d="M62.7655 9.07935C62.7575 8.93454 62.7396 8.79214 62.712 8.65425C62.6754 8.47005 62.6209 8.29341 62.5493 8.12831C62.2662 7.37281 61.8657 6.7316 61.2318 6.20397C60.9428 6.02712 60.6545 5.79276 60.307 5.67348C60.076 5.55534 59.8435 5.55306 59.6117 5.49285C59.3987 5.49076 59.2485 5.48928 59.0918 5.51096L59.0885 5.48771C58.9142 5.486 58.681 5.54164 58.5061 5.59786C58.4268 5.61298 58.3431 5.63223 58.2573 5.65461C58.1269 5.68888 57.992 5.73002 57.8607 5.77432L57.8646 5.82351C58.0248 6.15052 58.1853 6.42712 58.298 6.7476C57.8839 6.72617 57.5309 6.90801 57.2112 7.26524C56.6831 7.78083 56.5022 8.47448 56.5527 9.22791C56.547 9.80719 56.7145 10.504 57.1169 10.9715C57.4614 11.3802 58.0404 11.6176 58.6207 11.6815C59.8286 11.7937 60.8697 11.0341 61.2858 9.96416L61.4275 9.91305C61.5439 9.91419 61.6604 9.8574 61.7767 9.85855C61.8346 9.85911 61.8929 9.85969 62.0094 9.8029C62.1259 9.80404 62.2424 9.74725 62.3587 9.74839C62.4749 9.74953 62.5909 9.75067 62.6498 9.69332L62.7407 9.70529C62.7688 9.49412 62.7771 9.28359 62.7655 9.07935ZM59.0752 18.6953C59.0754 18.6765 59.0756 18.6571 59.0758 18.6374C58.6698 18.5755 58.4406 18.2256 58.2118 17.8758C57.8119 17.1766 57.4123 16.4198 56.9551 15.6621C56.5551 14.963 56.2133 14.2651 55.814 13.5078C55.4719 12.8092 55.0719 12.168 54.7887 11.4123C54.2785 10.1327 54.1788 8.45187 54.7142 7.18278C55.1916 5.91292 56.4798 4.88275 57.7619 4.4898C58.1696 4.37794 58.6358 4.26665 59.0425 4.27064L59.0429 4.28026C59.1915 4.2721 59.3494 4.27365 59.5074 4.27521C60.0304 4.28034 60.5522 4.40133 61.0729 4.63818C61.8245 5.0511 62.5159 5.63723 62.9735 6.39487C63.4312 7.09457 63.5967 7.9648 63.6471 8.77637C63.6987 9.41416 63.7514 9.99401 63.6295 10.5722C63.4475 11.3235 63.0917 12.0732 62.7365 12.7649C62.1437 13.9757 61.5506 15.1861 60.8414 16.3955C60.3688 17.202 59.8379 18.0078 59.1338 18.6961L59.0752 18.6953Z" fill="#00C84A"/>
<path d="M58.6927 4.43854C60.1992 4.4642 61.3474 4.93289 62.37 6.07296C63.3958 7.21599 63.6302 9.39386 63.2261 10.823C62.8584 12.1247 62.0754 13.3671 61.46 14.5691C60.7655 15.9261 60.0371 17.425 58.9857 18.5456C58.8017 18.7418 59.0868 19.0356 59.2794 18.8442C60.6315 17.5005 61.5125 15.9487 62.3713 14.258C63.3031 12.4239 64.1329 10.8392 63.9612 8.75314C63.845 7.33878 63.3893 6.17102 62.3522 5.17554C61.4072 4.2688 59.9388 3.78233 58.6632 4.21341C58.542 4.25447 58.558 4.43617 58.6927 4.43854Z" fill="black"/>
<path d="M59.0494 4.25019C55.739 3.5231 53.6465 7.44334 54.1752 10.2158C54.4958 11.8976 55.4412 13.3862 56.2262 14.8861C56.6673 15.7285 57.1652 16.5407 57.6299 17.3704C57.9792 17.9946 58.2708 18.6339 58.9974 18.8554C59.2836 18.9425 59.4387 18.5291 59.1578 18.4196C58.4432 18.1416 58.1023 17.1435 57.7572 16.52C57.4082 15.8889 57.0398 15.271 56.7045 14.6323C56.0894 13.4599 55.4002 12.2829 54.9467 11.0376C54.4409 9.64888 54.5391 8.04023 55.2385 6.7441C56.0003 5.33188 57.6269 4.76726 59.0504 4.29099C59.0698 4.28469 59.0707 4.25479 59.0494 4.25019Z" fill="black"/>
<path d="M59.1644 16.7601C59.0459 16.9262 59.0573 17.1552 59.0348 17.349C58.983 17.7959 58.9734 18.2419 58.9325 18.6895C58.9158 18.873 59.2264 18.8802 59.2143 18.7013C59.1973 18.4505 59.1886 18.2009 59.1869 17.9497C59.1858 17.8063 59.1998 17.6635 59.2127 17.5206C59.2306 17.3225 59.1776 16.9892 59.2524 16.8103C59.2775 16.7505 59.2029 16.7059 59.1644 16.7601Z" fill="black"/>
<path d="M59.1267 16.2163C59.0625 16.2828 59.0024 16.3336 58.9903 16.4299C58.9812 16.5051 59.0559 16.5473 59.1204 16.5412C59.2004 16.5338 59.2507 16.4756 59.3049 16.4257C59.4365 16.3042 59.2479 16.0905 59.1267 16.2163Z" fill="black"/>
<path d="M59.1458 16.1279C59.271 16.1291 59.2987 15.9347 59.1718 15.9334C59.0468 15.9324 59.0191 16.1266 59.1458 16.1279Z" fill="black"/>
<path d="M59.1607 13.3684C59.0971 14.1173 58.993 14.8705 58.943 15.6173C58.9364 15.7187 59.0845 15.7785 59.1383 15.6828C59.2929 15.4082 59.2891 15.0928 59.2972 14.7833C59.3092 14.3074 59.3603 13.8426 59.3312 13.3656C59.3242 13.2541 59.1697 13.2607 59.1607 13.3684Z" fill="black"/>
<path d="M59.1346 15.9154C59.0733 16.0073 58.9914 16.0755 58.9151 16.154C58.8017 16.2702 58.9914 16.4237 59.1053 16.3148C59.1968 16.2277 59.263 16.1263 59.3122 16.0104C59.3571 15.9049 59.1985 15.8198 59.1346 15.9154Z" fill="black"/>
<path d="M58.9084 5.57121C60.6088 5.70085 61.7716 6.59885 62.3739 8.18405C62.9615 9.73103 62.1012 10.8106 61.2664 11.9908C61.1519 12.1526 61.3249 12.4023 61.51 12.2692C62.998 11.1982 63.2815 9.38322 62.5921 7.76162C62.053 6.49348 60.4426 4.82665 58.9041 5.51763C58.882 5.52787 58.8784 5.56883 58.9084 5.57121Z" fill="black"/>
<path d="M60.6603 12.2169C60.6482 12.3427 60.6082 12.4862 60.7043 12.5854C60.7421 12.6245 60.8034 12.6054 60.836 12.5729C60.9239 12.4847 60.8799 12.3146 60.8713 12.2039C60.8614 12.0794 60.6713 12.1015 60.6603 12.2169Z" fill="black"/>
<path d="M60.417 12.2594C60.3435 12.3258 60.295 12.4193 60.2215 12.4836C60.1276 12.5659 60.2396 12.7118 60.3465 12.6789C60.326 12.6798 60.3058 12.6808 60.2855 12.6819C60.3062 12.6861 60.3263 12.6852 60.3465 12.6789C60.3754 12.6662 60.4015 12.6548 60.4265 12.6354C60.502 12.5759 60.5157 12.456 60.5637 12.3746C60.6119 12.2927 60.486 12.1969 60.417 12.2594Z" fill="black"/>
<path d="M59.9353 12.4916C59.5239 12.6187 58.8673 12.5357 58.4515 12.4635C57.684 12.3296 57.1032 11.9497 56.5322 11.4472C56.3598 11.2955 56.1344 11.5456 56.2581 11.7195C56.9712 12.7231 58.8722 13.3147 59.9783 12.6278C60.0407 12.5891 60.0197 12.4657 59.9353 12.4916Z" fill="black"/>
<path d="M56.2743 11.2072C56.1813 11.1894 56.1104 11.1632 56.0422 11.2497C56.0138 11.2858 56.0193 11.3373 56.0456 11.3725C56.1076 11.4545 56.1775 11.4278 56.263 11.4156C56.3663 11.401 56.3819 11.2277 56.2743 11.2072Z" fill="black"/>
<path d="M59.0857 5.43349C57.4705 5.38856 55.7506 6.4787 55.694 8.226C55.6876 8.424 55.9503 8.46527 56.0254 8.29158C56.2805 7.70136 56.4853 7.22442 56.8793 6.70771C57.3839 6.04611 58.3029 5.6931 59.1025 5.53907C59.1653 5.52693 59.1438 5.4349 59.0857 5.43349Z" fill="black"/>
<path d="M58.3152 6.85405C59.5395 6.88009 60.5229 7.08906 61.1013 8.32475C61.592 9.37322 60.8506 10.5669 60.0049 11.1262C58.8306 11.9029 57.2905 11.2242 56.907 9.95884C56.5341 8.72957 57.0678 6.80499 58.6544 7.05168C58.9227 7.09343 58.996 6.65953 58.7397 6.58946C56.9729 6.10613 56.2522 8.0569 56.2943 9.4607C56.3428 11.0787 57.6318 12.0568 59.1927 11.9283C60.7626 11.7991 61.7366 10.2248 61.6802 8.78219C61.6494 7.99486 61.0727 7.36698 60.4925 6.90764C59.817 6.37311 59.0551 6.49719 58.299 6.77337C58.2588 6.78845 58.2747 6.85324 58.3152 6.85405Z" fill="black"/>
<path d="M58.1976 5.70679C58.2047 5.90033 58.2756 6.0765 58.338 6.25761C58.3749 6.36359 58.4361 6.45579 58.4794 6.55996C58.5271 6.67525 58.5454 6.79715 58.6016 6.90876C58.6347 6.97476 58.748 6.95496 58.7469 6.87735C58.7404 6.45251 58.3838 6.11939 58.35 5.6949C58.3429 5.60804 58.1945 5.62038 58.1976 5.70679Z" fill="black"/>
<path d="M57.3447 5.99123C57.341 6.21185 57.4346 6.40853 57.5102 6.61005C57.5642 6.75322 57.7832 6.68866 57.7392 6.54015C57.6866 6.36332 57.5813 6.182 57.5674 5.99697C57.5568 5.85716 57.3472 5.84506 57.3447 5.99123Z" fill="black"/>
<path d="M62.6842 8.5631C62.2655 8.68741 61.684 8.61749 61.3548 8.96291C61.2973 9.02321 61.3175 9.13049 61.4035 9.15225C61.6399 9.21251 61.8366 9.03269 62.0547 8.9587C62.3012 8.87516 62.5394 8.86035 62.7694 8.72687C62.8648 8.67175 62.7803 8.53456 62.6842 8.5631Z" fill="black"/>
<path d="M62.7445 8.94675C62.5865 8.99331 62.3999 8.98185 62.2363 8.97857C61.9913 8.97387 61.7555 9.0594 61.5193 9.11878C61.2 9.19888 61.3235 9.70581 61.6402 9.6719C61.5541 9.63174 61.4681 9.59179 61.382 9.55162C61.4368 9.63331 61.5425 9.68224 61.6402 9.6719C61.8273 9.65178 61.9946 9.57269 62.1602 9.48585C62.2319 9.44807 62.4054 9.42426 62.506 9.39115C62.6557 9.34159 62.9468 9.23569 62.8815 9.02904C62.8636 8.9724 62.8062 8.92854 62.7445 8.94675Z" fill="black"/>
<path d="M61.6996 10.748C61.6322 10.7584 61.5677 10.7856 61.5238 10.84C61.4611 10.9176 61.5552 11.0323 61.6416 10.9739C61.6657 10.9574 61.6875 10.9405 61.7177 10.9366C61.8402 10.9217 61.8202 10.7293 61.6996 10.748Z" fill="black"/>
</g>
<defs>
<clipPath id="clip0_238_2357">
<rect width="64" height="64" fill="white"/>
</clipPath>
</defs>
</svg>
