<svg width="16" height="14" viewBox="0 0 16 14" fill="none" xmlns="http://www.w3.org/2000/svg">
<rect width="16" height="14" fill="white"/>
<path d="M9.02144 2.01067C8.82925 1.96417 8.63382 2.07357 8.57339 2.26175C8.30578 3.09637 7.95678 4.05628 7.39772 4.8482C6.8224 5.66299 6.07403 6.21333 5.29055 6.39785C5.13536 6.43437 5.01999 6.56451 5.00233 6.72294C4.98467 6.88136 5.0686 7.03374 5.2119 7.10353C5.87909 7.42847 6.48487 8.18057 6.71934 8.97495C6.9688 9.81977 6.8943 10.7437 6.82226 11.6374C6.80594 11.8394 6.95241 12.0182 7.15368 12.042C7.16873 12.0437 7.1835 12.0446 7.19828 12.0446C7.38154 12.0446 7.54137 11.911 7.57021 11.7255C7.86497 9.83019 9.18339 8.13168 10.9292 7.39857C11.092 7.33026 11.1855 7.15805 11.1541 6.98428C11.1229 6.81052 10.9752 6.68178 10.7987 6.67454C10.0138 6.64225 9.40949 5.87291 9.21828 5.1296C8.99591 4.26522 9.15947 3.29539 9.30389 2.43966C9.33675 2.24466 9.21342 2.05739 9.02144 2.01067ZM9.7969 7.1387C8.88715 7.70473 8.12266 8.51107 7.58773 9.44932C7.55607 9.21822 7.50908 8.98825 7.44211 8.76144C7.22663 8.03143 6.77126 7.34595 6.20699 6.8661C6.88628 6.53862 7.51077 5.99468 8.01341 5.28289C8.14623 5.09471 8.26786 4.89942 8.37979 4.70012C8.40068 4.90631 8.43565 5.11244 8.48834 5.31722C8.66555 6.00629 9.12289 6.74341 9.7969 7.1387Z" fill="#020202"/>
<path d="M5.01964 8.00536C4.92312 7.98201 4.82497 8.03695 4.79462 8.13146C4.66022 8.55062 4.48495 9.0327 4.20418 9.43042C3.91524 9.83962 3.5394 10.116 3.14592 10.2087C3.06798 10.227 3.01004 10.2924 3.00117 10.3719C2.9923 10.4515 3.03445 10.528 3.10642 10.5631C3.44149 10.7263 3.74573 11.104 3.86348 11.5029C3.98877 11.9272 3.95135 12.3913 3.91517 12.8401C3.90698 12.9415 3.98053 13.0313 4.08162 13.0433C4.08918 13.0441 4.0966 13.0446 4.10401 13.0446C4.19605 13.0446 4.27632 12.9775 4.29081 12.8843C4.43884 11.9325 5.10097 11.0794 5.97777 10.7113C6.05953 10.677 6.10645 10.5905 6.09072 10.5032C6.07504 10.4159 6.00084 10.3513 5.91223 10.3476C5.51802 10.3314 5.21453 9.94505 5.1185 9.57174C5.00682 9.13764 5.08896 8.65057 5.16149 8.22081C5.17799 8.12287 5.11606 8.02882 5.01964 8.00536ZM5.40909 10.5807C4.9522 10.865 4.56826 11.27 4.2996 11.7412C4.28371 11.6251 4.26011 11.5096 4.22647 11.3957C4.11825 11.0291 3.88956 10.6848 3.60617 10.4438C3.94732 10.2794 4.26095 10.0062 4.51339 9.64873C4.58009 9.55422 4.64118 9.45614 4.69739 9.35605C4.70788 9.4596 4.72544 9.56312 4.75191 9.66597C4.8409 10.012 5.07059 10.3822 5.40909 10.5807Z" fill="#020202"/>
<path d="M12.0196 1.00536C11.9231 0.982007 11.825 1.03695 11.7946 1.13146C11.6602 1.55062 11.4849 2.0327 11.2042 2.43042C10.9152 2.83962 10.5394 3.11601 10.1459 3.20868C10.068 3.22702 10.01 3.29238 10.0012 3.37195C9.9923 3.45151 10.0345 3.52804 10.1064 3.56308C10.4415 3.72628 10.7457 4.10399 10.8635 4.50295C10.9888 4.92723 10.9514 5.39127 10.9152 5.84007C10.907 5.94154 10.9805 6.03131 11.0816 6.04326C11.0892 6.04414 11.0966 6.04456 11.104 6.04456C11.1961 6.04456 11.2763 5.97747 11.2908 5.88434C11.4388 4.93246 12.101 4.07944 12.9778 3.71126C13.0595 3.67695 13.1064 3.59046 13.0907 3.5032C13.075 3.41593 13.0008 3.35128 12.9122 3.34764C12.518 3.33142 12.2145 2.94505 12.1185 2.57174C12.0068 2.13764 12.089 1.65057 12.1615 1.22081C12.178 1.12287 12.1161 1.02882 12.0196 1.00536ZM12.4091 3.58075C11.9522 3.86502 11.5683 4.26998 11.2996 4.74118C11.2837 4.62512 11.2601 4.50963 11.2265 4.39572C11.1183 4.02909 10.8896 3.68483 10.6062 3.44384C10.9473 3.27938 11.261 3.0062 11.5134 2.64873C11.5801 2.55422 11.6412 2.45614 11.6974 2.35605C11.7079 2.4596 11.7254 2.56312 11.7519 2.66597C11.8409 3.01203 12.0706 3.38223 12.4091 3.58075Z" fill="#020202"/>
</svg>
