<svg width="16" height="14" viewBox="0 0 16 14" fill="none" xmlns="http://www.w3.org/2000/svg">
<rect width="16" height="14" fill="white"/>
<path d="M11.9753 7.50268C11.9753 7.77381 11.9761 8.0229 11.9747 8.27199C11.9744 8.33251 11.973 8.39413 11.9617 8.45322C11.9421 8.55516 11.8895 8.63272 11.7797 8.65743C11.7561 8.66273 11.7343 8.67538 11.7109 8.68155C11.3312 8.78154 11.113 9.03447 11.0216 9.4079C11.0158 9.43151 11.01 9.45517 11.003 9.47844C10.968 9.59498 10.9653 9.60067 10.8377 9.59825C10.6371 9.59445 10.4367 9.58055 10.2361 9.5785C9.25091 9.56844 8.26592 9.55951 7.28066 9.58633C6.22936 9.61496 5.17842 9.6907 4.1259 9.63079C3.83461 9.6142 3.5439 9.58752 3.25262 9.57049C3.1546 9.56476 3.09685 9.52128 3.06038 9.43238C3.02949 9.35708 3.02207 9.28052 3.01912 9.20096C2.98578 8.30106 3.00876 7.40086 3.00463 6.50082C3.00296 6.1359 2.99277 5.77039 3.00932 5.40619C3.0296 4.95993 2.97709 5.02529 3.40204 5.01958C4.29584 5.00757 5.18998 5.02435 6.08398 5.02322C6.57654 5.02259 7.06907 5.00866 7.56163 5.00244C8.05412 4.99621 8.5459 5.00138 9.03862 5.02415C9.60923 5.05054 10.1817 5.03586 10.7534 5.03891C10.796 5.03913 10.8387 5.04087 10.8811 5.03777C10.9539 5.03243 10.994 5.06301 11.008 5.13546C11.0172 5.18286 11.0334 5.22918 11.0495 5.27491C11.1548 5.57391 11.3598 5.7735 11.6503 5.89772C11.9824 6.03971 11.9799 6.04478 11.9799 6.40734C11.9799 6.59588 11.98 6.78444 11.9825 6.97295C11.9831 7.01924 11.9672 7.07075 12.0174 7.11758C12.0843 7.11881 12.1344 7.07146 12.1813 7.0274C12.2653 6.94837 12.3432 6.86281 12.4245 6.7809C12.4673 6.73791 12.5083 6.69189 12.5565 6.65594C12.6854 6.55986 12.8073 6.55879 12.9057 6.64644C13.0034 6.73348 13.0303 6.91453 12.9621 7.03319C12.9283 7.09197 12.8819 7.13954 12.8267 7.17909C12.6764 7.28672 12.5119 7.36727 12.3309 7.40038C12.2101 7.42254 12.1016 7.47365 11.9753 7.50268ZM11.6939 7.08133C11.7235 7.03245 11.7144 6.98289 11.715 6.93573C11.7174 6.74721 11.7182 6.55866 11.7189 6.37012C11.7195 6.20996 11.7386 6.21665 11.5655 6.15382C11.2158 6.02691 10.9659 5.7926 10.8264 5.44405C10.7703 5.30382 10.7679 5.30663 10.6197 5.30442C10.3097 5.29979 10.0002 5.3265 9.68967 5.31026C9.21615 5.28549 8.74218 5.25932 8.26822 5.2554C7.48387 5.24891 6.6992 5.22965 5.91495 5.26705C5.73278 5.27574 5.55038 5.2842 5.36809 5.28454C4.72337 5.28578 4.07865 5.28315 3.43394 5.28306C3.38751 5.28305 3.33611 5.26758 3.29789 5.30915C3.25415 5.63792 3.26759 8.95534 3.31369 9.11338C3.33023 9.11678 3.34759 9.12272 3.36522 9.12362C3.99649 9.15606 4.62726 9.20025 5.26001 9.1969C5.55795 9.19532 5.85782 9.18129 6.15351 9.20866C6.76582 9.26535 7.37962 9.27508 7.99302 9.29666C8.74663 9.32318 9.50131 9.29424 10.2549 9.33378C10.4178 9.34232 10.5815 9.33503 10.7525 9.33503C10.7847 9.24851 10.8159 9.16387 10.8478 9.0795C10.9476 8.81519 11.1341 8.63157 11.3853 8.51143C11.4505 8.48024 11.5209 8.45724 11.5913 8.44008C11.6765 8.41928 11.7122 8.37129 11.7108 8.28472C11.7083 8.13272 11.7131 7.98058 11.7098 7.82862C11.7086 7.77084 11.7269 7.70679 11.6759 7.65262C11.5573 7.67836 11.4384 7.66187 11.3252 7.63713C11.1196 7.92266 10.7742 7.96422 10.558 7.86911C10.2965 7.75412 10.1594 7.51202 10.1883 7.20156C10.2155 6.90875 10.4793 6.66841 10.7814 6.66126C11.0686 6.65445 11.3217 6.88589 11.3554 7.19346C11.4297 7.20186 11.5056 7.21043 11.5966 7.22073C11.5506 7.17701 11.5092 7.16623 11.4674 7.15948C11.4062 7.1496 11.3919 7.10721 11.3871 7.05502C11.3826 7.00589 11.4028 6.97701 11.449 6.95753C11.5021 6.93514 11.5397 6.94444 11.5773 6.98799C11.6067 7.02207 11.6123 7.08396 11.6939 7.08133ZM11.0477 7.54313C10.9642 7.48957 10.8815 7.46186 10.8238 7.39714C10.7214 7.28229 10.7565 7.14557 10.9023 7.0976C10.9487 7.08233 10.9981 7.07646 11.0575 7.0639C10.8821 6.92497 10.6808 6.93611 10.5616 7.07736C10.4479 7.21211 10.4611 7.40587 10.5931 7.53723C10.7263 7.66985 10.9021 7.67574 11.0477 7.54313ZM12.2526 7.23415C12.4549 7.18716 12.6102 7.12977 12.7402 7.01627C12.8273 6.94026 12.847 6.84941 12.7909 6.79964C12.7459 6.75967 12.6862 6.77631 12.606 6.85901C12.4972 6.97119 12.3914 7.08642 12.2526 7.23415ZM3.35111 9.35751C3.58155 9.42941 4.63539 9.46892 5.05593 9.4346C4.51988 9.35561 3.93394 9.39804 3.35111 9.35751Z" fill="black"/>
</svg>
