<svg width="10" height="5" viewBox="0 0 10 5" fill="none" xmlns="http://www.w3.org/2000/svg">
<path d="M8.97531 2.50268C8.97531 2.77381 8.97609 3.0229 8.97475 3.27199C8.97442 3.33251 8.97303 3.39413 8.96168 3.45322C8.94209 3.55516 8.88952 3.63272 8.77966 3.65743C8.75612 3.66273 8.73431 3.67538 8.71091 3.68155C8.33121 3.78154 8.11303 4.03447 8.02159 4.4079C8.01581 4.43151 8.01003 4.45517 8.00304 4.47844C7.96803 4.59498 7.96525 4.60067 7.83774 4.59825C7.63712 4.59445 7.43666 4.58055 7.23606 4.5785C6.25091 4.56844 5.26592 4.55951 4.28066 4.58633C3.22936 4.61496 2.17842 4.6907 1.1259 4.63079C0.834612 4.6142 0.543901 4.58752 0.252621 4.57049C0.154599 4.56476 0.0968485 4.52128 0.0603812 4.43238C0.029492 4.35708 0.0220732 4.28052 0.0191207 4.20096C-0.0142165 3.30106 0.00875862 2.40086 0.00462885 1.50082C0.00295638 1.1359 -0.00722607 0.770392 0.00932107 0.406186C0.0295962 -0.0400723 -0.0229138 0.0252853 0.402042 0.0195765C1.29584 0.00757026 2.18998 0.02435 3.08398 0.0232194C3.57654 0.0225934 4.06907 0.00866358 4.56163 0.00244089C5.05412 -0.00379115 5.5459 0.00137551 6.03862 0.0241547C6.60923 0.0505404 7.18172 0.0358629 7.75342 0.0389088C7.79598 0.0391331 7.83873 0.0408703 7.8811 0.0377683C7.9539 0.0324332 7.99397 0.0630053 8.00801 0.135463C8.01718 0.182862 8.0334 0.229176 8.04951 0.274911C8.15485 0.573909 8.35982 0.773495 8.65034 0.897725C8.98238 1.03971 8.97993 1.04478 8.97993 1.40734C8.97993 1.59588 8.98004 1.78444 8.98249 1.97295C8.9831 2.01924 8.96716 2.07075 9.01735 2.11758C9.08432 2.11881 9.13439 2.07146 9.18125 2.0274C9.2653 1.94837 9.34317 1.86281 9.42455 1.7809C9.46727 1.73791 9.50826 1.69189 9.55651 1.65594C9.68543 1.55986 9.80733 1.55879 9.90572 1.64644C10.0034 1.73348 10.0303 1.91453 9.96207 2.03319C9.92826 2.09197 9.88192 2.13954 9.82668 2.17909C9.6764 2.28672 9.5119 2.36727 9.33093 2.40038C9.21007 2.42254 9.10163 2.47365 8.97531 2.50268ZM8.6939 2.08133C8.72346 2.03245 8.71439 1.98289 8.71499 1.93573C8.71735 1.74721 8.71823 1.55866 8.71894 1.37012C8.71953 1.20996 8.73857 1.21665 8.56546 1.15382C8.21582 1.02691 7.96592 0.792601 7.82642 0.444046C7.7703 0.30382 7.76787 0.306634 7.61971 0.30442C7.30968 0.299785 7.00021 0.326498 6.68967 0.310259C6.21615 0.28549 5.74218 0.259318 5.26822 0.255403C4.48387 0.24891 3.6992 0.229654 2.91495 0.267046C2.73278 0.275736 2.55038 0.284199 2.36809 0.284544C1.72337 0.285778 1.07865 0.283153 0.433939 0.28306C0.387511 0.28305 0.336106 0.267577 0.297892 0.309146C0.254146 0.637921 0.26759 3.95534 0.313691 4.11338C0.330228 4.11678 0.347587 4.12272 0.365218 4.12362C0.996495 4.15606 1.62726 4.20025 2.26001 4.1969C2.55795 4.19532 2.85782 4.18129 3.15351 4.20866C3.76582 4.26535 4.37962 4.27508 4.99302 4.29666C5.74663 4.32318 6.50131 4.29424 7.25493 4.33378C7.41778 4.34232 7.58145 4.33503 7.75247 4.33503C7.78472 4.24851 7.8159 4.16387 7.84777 4.0795C7.94762 3.81519 8.13408 3.63157 8.38525 3.51143C8.45048 3.48024 8.52089 3.45724 8.59126 3.44008C8.67649 3.41928 8.71216 3.37129 8.71075 3.28472C8.70827 3.13272 8.71312 2.98058 8.70982 2.82862C8.70855 2.77084 8.72689 2.70679 8.67585 2.65262C8.55731 2.67836 8.43835 2.66187 8.32523 2.63713C8.11959 2.92266 7.77421 2.96422 7.55796 2.86911C7.29653 2.75412 7.15943 2.51202 7.1883 2.20156C7.21553 1.90875 7.47935 1.66841 7.78141 1.66126C8.06863 1.65445 8.32167 1.88589 8.35543 2.19346C8.42966 2.20185 8.50555 2.21043 8.59658 2.22073C8.55061 2.17701 8.50918 2.16623 8.46739 2.15948C8.40618 2.1496 8.39189 2.10721 8.38709 2.05502C8.38258 2.00589 8.40285 1.97701 8.44903 1.95753C8.50211 1.93514 8.53967 1.94444 8.5773 1.98799C8.60672 2.02207 8.61225 2.08396 8.6939 2.08133ZM8.04773 2.54313C7.96416 2.48957 7.88148 2.46186 7.82379 2.39714C7.72144 2.28229 7.75654 2.14557 7.90228 2.0976C7.94867 2.08233 7.99814 2.07646 8.05751 2.0639C7.8821 1.92497 7.68081 1.93611 7.56159 2.07736C7.44785 2.21211 7.46112 2.40587 7.59307 2.53723C7.7263 2.66985 7.9021 2.67574 8.04773 2.54313ZM9.25261 2.23415C9.45489 2.18716 9.61018 2.12977 9.74022 2.01627C9.8273 1.94026 9.84699 1.84941 9.79095 1.79964C9.74593 1.75967 9.68621 1.77631 9.60599 1.85901C9.49715 1.97119 9.39144 2.08642 9.25261 2.23415ZM0.35111 4.35751C0.581546 4.42941 1.63539 4.46892 2.05593 4.4346C1.51988 4.35561 0.933941 4.39804 0.35111 4.35751Z" fill="black"/>
</svg>
