<svg width="16" height="14" viewBox="0 0 16 14" fill="none" xmlns="http://www.w3.org/2000/svg">
<rect width="16" height="14" fill="white"/>
<path d="M8.34626 2.01629C8.43424 2.01629 8.5227 2.0104 8.61011 2.01746C8.82554 2.03484 9.04043 2.05884 9.25565 2.07892C9.5337 2.10486 9.79773 2.19038 10.0578 2.28253C10.2489 2.35025 10.4333 2.43554 10.6098 2.54342C10.7261 2.61454 10.8508 2.67602 10.9653 2.75332C11.17 2.89155 11.3657 3.03788 11.5377 3.21947C11.636 3.32325 11.7441 3.41937 11.8351 3.53071C11.989 3.71909 12.1435 3.90747 12.2587 4.12365C12.3687 4.32998 12.4892 4.53157 12.5851 4.74427C12.7089 5.01894 12.8061 5.30382 12.876 5.59904C12.9398 5.86862 12.969 6.14144 12.9903 6.41536C13.0152 6.73485 12.9905 7.05174 12.9359 7.36908C12.8953 7.60502 12.8423 7.8353 12.772 8.06368C12.7199 8.23309 12.6708 8.40161 12.5937 8.56284C12.5044 8.74945 12.4445 8.95065 12.3494 9.13387C12.1929 9.43557 12.0301 9.73517 11.8165 10.0028C11.7347 10.1055 11.6646 10.2189 11.5744 10.3132C11.4121 10.483 11.2471 10.6522 11.0675 10.8029C10.8733 10.9658 10.671 11.1239 10.4543 11.2541C10.2033 11.4048 9.94224 11.5406 9.66584 11.6461C9.47872 11.7176 9.2902 11.7825 9.09737 11.8327C8.92097 11.8786 8.74119 11.9156 8.56069 11.9406C8.35275 11.9694 8.14271 11.989 7.93299 11.9968C7.77043 12.0029 7.60634 11.9914 7.44409 11.9757C7.25837 11.9577 7.07171 11.9369 6.88952 11.8982C6.6829 11.8543 6.47829 11.7968 6.27727 11.7315C5.9832 11.636 5.71161 11.4919 5.44129 11.341C5.15511 11.1812 4.89867 10.9871 4.64973 10.7774C4.46257 10.6197 4.29074 10.4476 4.13591 10.2601C3.91115 9.98781 3.70684 9.70064 3.55308 9.38021C3.44597 9.15699 3.32592 8.9393 3.26008 8.6988C3.20415 8.49443 3.15244 8.2893 3.10629 8.08199C3.02983 7.73848 2.99765 7.39365 3.00013 7.04558C3.00271 6.68473 3.04431 6.3266 3.12667 5.97348C3.19589 5.67673 3.29472 5.39029 3.41165 5.1102C3.53163 4.82282 3.68248 4.5515 3.85614 4.29223C4.04775 4.00616 4.26017 3.73783 4.50768 3.49854C4.81474 3.20168 5.15751 2.95043 5.5261 2.73661C5.88148 2.53045 6.26009 2.37587 6.65394 2.25696C6.98479 2.15708 7.32453 2.10111 7.66435 2.05016C7.88898 2.01648 8.11854 2.01558 8.34589 2C8.34602 2.00543 8.34614 2.01087 8.34626 2.01629ZM7.63818 2.42799C7.60252 2.37391 7.56082 2.4135 7.5212 2.43119C7.561 2.42915 7.60079 2.42711 7.64059 2.42507C7.64626 2.43048 7.65183 2.44051 7.65759 2.44062C7.83147 2.44399 8.00592 2.43862 8.1791 2.45108C8.35377 2.46366 8.5294 2.48317 8.70054 2.51902C8.89762 2.56029 9.08845 2.63109 9.28533 2.67361C9.45883 2.71109 9.62156 2.77496 9.7793 2.84954C10.1409 3.02052 10.4869 3.22124 10.8305 3.4257C10.8831 3.45702 10.9361 3.48812 10.9864 3.52291C11.1265 3.61978 11.2655 3.7183 11.4046 3.81665C11.4801 3.87002 11.5549 3.92436 11.63 3.97827C11.6396 3.95019 11.6354 3.93647 11.6273 3.92578C11.3955 3.62077 11.0239 3.27408 10.6894 3.04469C10.5658 2.95996 10.4463 2.86811 10.3045 2.81041C10.1578 2.75071 10.0173 2.67587 9.87161 2.61359C9.77311 2.5715 9.67217 2.5323 9.56881 2.50517C9.44288 2.4721 9.31348 2.45189 9.18517 2.42831C9.09108 2.41101 8.99515 2.3795 8.90214 2.38569C8.72234 2.39766 8.5451 2.3274 8.36582 2.37622C8.35848 2.37822 8.34979 2.37693 8.34203 2.37551C8.12753 2.33621 7.9161 2.37941 7.70398 2.40033C7.68139 2.40255 7.66014 2.41837 7.63818 2.42799ZM12.5853 6.86676C12.5595 6.62636 12.5413 6.38635 12.5065 6.14875C12.4617 5.84253 12.3691 5.54747 12.2744 5.25327C12.164 4.90979 11.9437 4.64164 11.6848 4.40427C11.5287 4.2611 11.3539 4.13817 11.187 4.00686C10.9917 3.85326 10.7748 3.73281 10.5583 3.61394C10.3384 3.4932 10.1093 3.38921 9.88436 3.27769C9.7392 3.20573 9.59842 3.12257 9.44802 3.06413C9.28081 2.99916 9.10343 2.9609 8.93317 2.90308C8.73875 2.83704 8.53595 2.81669 8.33551 2.78752C8.03041 2.74313 7.72337 2.75982 7.41749 2.79067C7.30075 2.80244 7.18195 2.80718 7.06837 2.83356C6.93352 2.86489 6.79582 2.87695 6.66041 2.90484C6.48376 2.94123 6.32359 3.01949 6.15162 3.06519C6.06675 3.08774 5.98817 3.13546 5.90829 3.17492C5.80569 3.22562 5.70171 3.27457 5.60367 3.3332C5.48191 3.40602 5.36002 3.48083 5.24853 3.568C5.13674 3.65539 5.03452 3.7559 4.93403 3.85658C4.85253 3.93824 4.77287 4.02363 4.70532 4.11675C4.647 4.19715 4.61381 4.29552 4.55734 4.37757C4.43268 4.55871 4.33946 4.75423 4.27202 4.96216C4.20577 5.16643 4.12893 5.36913 4.08563 5.5785C4.03196 5.83806 3.99654 6.10276 3.98506 6.36842C3.9762 6.5735 3.96742 6.78047 3.98492 6.98435C4.00992 7.27578 4.03889 7.5682 4.12786 7.85042C4.17814 8.00994 4.2005 8.18047 4.2671 8.33213C4.38026 8.5898 4.51375 8.83901 4.64737 9.08711C4.79371 9.35883 4.98227 9.6025 5.19819 9.82139C5.32224 9.94714 5.44613 10.076 5.59796 10.1731C5.77549 10.2867 5.93871 10.4262 6.12492 10.5217C6.38985 10.6577 6.66178 10.7846 6.95871 10.8439C7.07846 10.8678 7.19392 10.9209 7.31414 10.9331C7.54407 10.9565 7.7726 11.0019 8.00564 10.9913C8.24084 10.9805 8.47743 10.9841 8.71101 10.959C8.91595 10.9369 9.11791 10.8856 9.32046 10.8436C9.39819 10.8275 9.47666 10.8084 9.54999 10.7788C9.74879 10.6985 9.95271 10.6305 10.1414 10.5254C10.3425 10.4134 10.5481 10.3089 10.7283 10.1638C10.8969 10.0282 11.0631 9.88958 11.23 9.75186C11.2731 9.71625 11.3197 9.68329 11.3565 9.64183C11.4495 9.5371 11.5439 9.43274 11.6265 9.31995C11.7471 9.15507 11.8558 8.98143 11.9735 8.8143C12.1196 8.60678 12.2204 8.37576 12.3185 8.14452C12.4235 7.89698 12.5073 7.64148 12.5334 7.37086C12.5496 7.20321 12.5678 7.03576 12.5853 6.86676ZM10.1284 11.0961C10.1259 11.0867 10.1234 11.0773 10.1209 11.0679C10.0941 11.0756 10.0658 11.0803 10.0406 11.0917C9.96845 11.1243 9.90052 11.1779 9.82548 11.1903C9.6485 11.2196 9.4851 11.297 9.30725 11.3214C9.19043 11.3375 9.07641 11.3748 8.95948 11.3889C8.74642 11.4145 8.53215 11.43 8.31832 11.4491C8.29848 11.4509 8.27819 11.448 8.25813 11.4469C8.13184 11.4403 8.00381 11.4174 7.87967 11.4308C7.69581 11.4505 7.52226 11.393 7.34251 11.3849C7.20511 11.3787 7.06953 11.3316 6.93321 11.3025C6.84754 11.2841 6.76001 11.2715 6.67684 11.2451C6.54292 11.2027 6.40925 11.1573 6.28033 11.1018C6.10633 11.027 5.93417 10.9467 5.7666 10.8585C5.66278 10.8039 5.5643 10.7367 5.46662 10.672C5.28428 10.5513 5.10587 10.4212 4.94235 10.2763C4.67608 10.0404 4.44151 9.77402 4.24617 9.47447C4.09709 9.24587 3.98334 8.99951 3.86662 8.75398C3.78943 8.59161 3.74769 8.41733 3.68822 8.24956C3.62356 8.06712 3.59537 7.87112 3.55879 7.67959C3.53495 7.55479 3.52368 7.42753 3.50829 7.30118C3.49267 7.17284 3.52168 7.04188 3.48566 6.91431C3.48061 6.89643 3.48873 6.87499 3.48999 6.85515C3.49427 6.78754 3.50229 6.71987 3.50159 6.6523C3.49833 6.33894 3.52871 6.02915 3.59112 5.72214C3.6183 5.58846 3.64179 5.45402 3.67155 5.29548C3.63625 5.36892 3.60287 5.41699 3.58934 5.47012C3.52101 5.73845 3.44412 6.00382 3.3909 6.27709C3.33766 6.55042 3.31838 6.82476 3.31987 7.09707C3.32169 7.43063 3.34493 7.76683 3.43094 8.0943C3.48564 8.30258 3.54366 8.50918 3.61879 8.71118C3.72467 8.99588 3.84994 9.27095 4.01596 9.52591C4.11124 9.67223 4.20197 9.82305 4.31181 9.95796C4.44564 10.1223 4.59362 10.2758 4.74268 10.4269C4.84899 10.5347 4.96102 10.6388 5.08157 10.73C5.2436 10.8524 5.41438 10.9637 5.58487 11.0745C5.82507 11.2306 6.08904 11.3398 6.35802 11.4321C6.64519 11.5306 6.93836 11.6127 7.24298 11.6411C7.42884 11.6585 7.6148 11.6869 7.80081 11.6877C8.09574 11.6888 8.3891 11.6701 8.68225 11.617C8.92352 11.5733 9.15628 11.5071 9.38836 11.4348C9.649 11.3535 9.89212 11.2316 10.1284 11.0961ZM10.2055 11.0276C10.2085 11.0328 10.2115 11.038 10.2144 11.0432C10.2336 11.0315 10.2528 11.0199 10.272 11.0082C10.2693 11.0035 10.2665 10.9988 10.2637 10.9941C10.2443 11.0053 10.2249 11.0164 10.2055 11.0276Z" fill="black"/>
<path d="M8.16178 6.6899C8.25524 6.59007 8.34406 6.49319 8.43505 6.39841C8.67078 6.15285 8.90782 5.90855 9.14364 5.66308C9.28182 5.51925 9.41694 5.37243 9.5568 5.23026C9.63837 5.14736 9.72552 5.06982 9.81222 4.99216C9.85974 4.94959 9.94592 4.95653 10.0021 5.00251C10.0366 5.03082 10.0416 5.10383 10.0115 5.1566C9.99759 5.181 9.98354 5.20582 9.96597 5.22757C9.85861 5.36044 9.76331 5.50676 9.63869 5.62099C9.50088 5.74729 9.40547 5.90888 9.25363 6.02516C9.1172 6.12963 9.01664 6.28017 8.8964 6.40672C8.74106 6.57022 8.58325 6.73145 8.42334 6.8905C8.47594 6.99927 8.32795 7.15607 8.27992 7.18767C8.16946 7.26035 8.02246 7.26465 7.87162 7.1587C7.77334 7.08966 7.67616 7.01906 7.57796 6.94989C7.45491 6.86322 7.32881 6.78067 7.20846 6.69042C7.01029 6.54181 6.81542 6.38876 6.61976 6.23681C6.57959 6.20562 6.54638 6.16285 6.50245 6.13963C6.38854 6.0794 6.34877 5.97464 6.31597 5.8619C6.28701 5.76238 6.33518 5.66836 6.4321 5.63756C6.45787 5.62937 6.48267 5.61592 6.50549 5.60115C6.57181 5.55821 6.6412 5.55395 6.70493 5.59765C6.87907 5.71706 7.05133 5.83931 7.2222 5.96336C7.32846 6.04051 7.43256 6.12089 7.53456 6.2036C7.66093 6.30606 7.78195 6.41517 7.90949 6.5161C7.98738 6.57774 8.07317 6.6294 8.16178 6.6899Z" fill="black"/>
<path d="M7.85986 10.4631C7.85988 10.344 7.86667 10.2235 7.861 10.1063C7.85654 10.0143 7.89962 9.94785 7.95609 9.88536C7.97674 9.86252 8.10257 9.85877 8.13045 9.88078C8.18221 9.92164 8.23382 9.95713 8.23379 10.0402C8.23378 10.1212 8.26608 10.2018 8.27283 10.2835C8.27793 10.3453 8.27096 10.4097 8.25886 10.4709C8.24354 10.5484 8.21605 10.6234 8.19656 10.7001C8.1716 10.7984 8.02717 10.8668 7.93899 10.8162C7.91435 10.8021 7.88862 10.7722 7.88311 10.7455C7.86423 10.6541 7.85985 10.5591 7.85986 10.4631Z" fill="black"/>
<path d="M11.2437 7.14722C11.2412 7.11347 11.2355 7.0814 11.2375 7.04979C11.2411 6.99059 11.2661 6.94126 11.3252 6.92046C11.3701 6.90464 11.4169 6.89226 11.4639 6.88466C11.6145 6.8603 11.7671 6.86093 11.9174 6.87654C12.0751 6.89292 12.1213 6.97688 12.1286 7.1165C12.1299 7.14225 12.106 7.17963 12.0827 7.19431C12.0267 7.22973 11.9669 7.26977 11.9037 7.28129C11.7412 7.31092 11.574 7.35813 11.4149 7.26759C11.3572 7.23477 11.3056 7.19124 11.2437 7.14722Z" fill="black"/>
<path d="M4.94739 6.44458C4.97751 6.45021 5.0287 6.44881 5.0683 6.46954C5.14449 6.50944 5.17202 6.58021 5.15172 6.64579C5.11764 6.75588 5.0648 6.79873 4.97059 6.80487C4.89956 6.8095 4.81859 6.80461 4.76078 6.83719C4.66074 6.89357 4.56654 6.85048 4.47075 6.84982C4.41606 6.84944 4.35511 6.76212 4.34415 6.69176C4.33271 6.61831 4.34645 6.58665 4.41929 6.54762C4.45713 6.52735 4.4995 6.51283 4.54156 6.50361C4.64266 6.48145 4.74461 6.46288 4.84663 6.44529C4.87396 6.44058 4.9028 6.44458 4.94739 6.44458Z" fill="black"/>
<path d="M10.1316 4.73714C10.03 4.7087 10.0434 4.5711 10.0726 4.48509C10.1269 4.32532 10.2269 4.19033 10.3524 4.0769C10.4044 4.02991 10.5408 4.02528 10.5999 4.06141C10.6402 4.08603 10.667 4.22758 10.6332 4.27661C10.5724 4.3648 10.5017 4.44623 10.4414 4.53476C10.3684 4.64188 10.2688 4.77554 10.1316 4.73714Z" fill="black"/>
<path d="M5.55961 4.87707C5.46708 4.78162 5.38001 4.69501 5.29674 4.6049C5.22963 4.53229 5.17936 4.44744 5.20123 4.34504C5.21222 4.29354 5.24448 4.24435 5.27621 4.20073C5.28723 4.18556 5.32662 4.18341 5.35129 4.1871C5.45964 4.20327 5.52267 4.28349 5.58346 4.36312C5.64594 4.44495 5.70435 4.52988 5.76463 4.61339C5.83535 4.71136 5.79217 4.83547 5.67725 4.86059C5.63837 4.86907 5.59824 4.87182 5.55961 4.87707Z" fill="black"/>
<path d="M8.11284 3.25852C8.10459 3.33538 8.07923 3.41249 8.05286 3.47268C8.02166 3.54387 7.95364 3.5782 7.87773 3.58025C7.8037 3.58224 7.76826 3.52301 7.73413 3.46776C7.66172 3.35052 7.68216 3.22777 7.72534 3.11051C7.77896 2.9649 7.93839 2.91781 8.04146 3.01331C8.10808 3.07506 8.1227 3.1666 8.11284 3.25852Z" fill="black"/>
<path d="M10.2777 9.18048C10.3111 9.16632 10.3465 9.18342 10.3758 9.19284C10.4434 9.21454 10.5077 9.23823 10.5433 9.31206C10.5919 9.41282 10.68 9.4932 10.6989 9.60999C10.7069 9.65929 10.7468 9.71412 10.723 9.75682C10.6619 9.86612 10.514 9.74663 10.4233 9.72218C10.3732 9.70869 10.339 9.63313 10.2999 9.58376C10.2803 9.559 10.2665 9.52966 10.2488 9.50332C10.1625 9.37539 10.1017 9.25491 10.2777 9.18048Z" fill="black"/>
<path d="M8.19165 5.03634C8.28259 4.83196 9.19066 4.12 9.42307 4.05871C9.39724 4.0919 9.38198 4.11841 9.36046 4.13808C9.18608 4.29748 9.01139 4.45656 8.83505 4.61377C8.71568 4.7202 8.59513 4.82545 8.47171 4.9271C8.42593 4.96481 8.37262 4.99551 8.31855 5.0202C8.28755 5.03436 8.24812 5.03002 8.19165 5.03634Z" fill="black"/>
<path d="M6.22411 9.30994C6.32096 9.36481 6.22237 9.49715 6.18957 9.56641C6.12034 9.71256 6.0149 9.81982 5.83866 9.82862C5.75644 9.83273 5.71841 9.799 5.70045 9.71538C5.68252 9.63191 5.70573 9.57208 5.76952 9.51454C5.89734 9.39926 6.06986 9.22253 6.22411 9.30994Z" fill="black"/>
<path d="M9.79611 8.13093C9.79061 8.21171 9.75057 8.25998 9.69501 8.30544C9.51352 8.45399 9.33635 8.60782 9.15608 8.75789C9.12275 8.78562 9.08519 8.81179 9.04515 8.82705C8.99257 8.84708 8.95535 8.80774 8.97743 8.75535C8.99418 8.71564 9.01992 8.67677 9.05044 8.64635C9.18371 8.5135 9.31969 8.38336 9.45583 8.25343C9.49346 8.21752 9.53476 8.1854 9.57484 8.15211C9.66613 8.07629 9.66885 8.07613 9.79611 8.13093Z" fill="black"/>
<path d="M6.17809 7.47059C5.96735 7.7285 5.69492 7.91925 5.44058 8.1295C5.41851 8.14774 5.38455 8.15161 5.33276 8.17082C5.34497 8.12527 5.34382 8.09483 5.35846 8.08011C5.57323 7.86425 5.79389 7.65494 6.05274 7.491C6.07288 7.47824 6.09527 7.46862 6.11748 7.45968C6.13151 7.45403 6.14714 7.45236 6.16206 7.4489C6.1674 7.45613 6.17275 7.46336 6.17809 7.47059Z" fill="black"/>
<path d="M8.76248 4.26618C8.73761 4.29617 8.71611 4.32997 8.6873 4.35552C8.54058 4.4856 8.39259 4.61429 8.24349 4.74164C8.21332 4.7674 8.17714 4.78651 8.14242 4.80643C8.10953 4.8253 8.07563 4.83225 8.03979 4.79703C8.04623 4.73476 8.09692 4.70594 8.13862 4.67223C8.33153 4.51633 8.49988 4.32449 8.7428 4.24126C8.74936 4.24956 8.75592 4.25787 8.76248 4.26618Z" fill="black"/>
<path d="M6.08037 7.88051C5.98786 8.0476 5.86807 8.14536 5.72578 8.21874C5.68537 8.23958 5.64263 8.27335 5.59468 8.2275C5.5842 8.17623 5.62548 8.15845 5.65571 8.13632C5.78188 8.04398 5.8957 7.93033 6.08037 7.88051Z" fill="black"/>
<path d="M9.39855 8.04439C9.37677 8.07664 9.36209 8.11637 9.33359 8.13707C9.25994 8.19056 9.182 8.23903 9.1017 8.28186C9.07976 8.29357 9.04341 8.27824 9.01367 8.27532C9.01883 8.24682 9.01398 8.20764 9.03095 8.19173C9.09452 8.13213 9.16301 8.07704 9.23401 8.02636C9.28313 7.99132 9.33754 7.99058 9.39855 8.04439Z" fill="black"/>
</svg>
