<svg width="10" height="10" viewBox="0 0 10 10" fill="none" xmlns="http://www.w3.org/2000/svg">
<path d="M5.34626 0.0162922C5.43424 0.0162922 5.5227 0.0104047 5.61011 0.0174553C5.82554 0.0348356 6.04043 0.0588383 6.25565 0.078916C6.5337 0.104856 6.79773 0.19038 7.05781 0.282534C7.24891 0.350246 7.43331 0.435539 7.60978 0.543417C7.72613 0.61454 7.85084 0.676023 7.9653 0.753322C8.16999 0.891555 8.36568 1.03788 8.5377 1.21947C8.63602 1.32325 8.74408 1.41937 8.83507 1.53071C8.98902 1.71909 9.14352 1.90747 9.25872 2.12365C9.36867 2.32998 9.48922 2.53157 9.58507 2.74427C9.70886 3.01894 9.80613 3.30382 9.876 3.59904C9.93981 3.86862 9.96899 4.14144 9.9903 4.41536C10.0152 4.73485 9.99049 5.05174 9.93587 5.36908C9.89527 5.60502 9.84229 5.8353 9.77202 6.06368C9.7199 6.23309 9.67082 6.40161 9.59368 6.56284C9.5044 6.74945 9.44454 6.95065 9.34945 7.13387C9.19286 7.43557 9.03013 7.73517 8.81654 8.00285C8.73465 8.10548 8.6646 8.21888 8.57437 8.31324C8.41206 8.48299 8.24705 8.65215 8.06748 8.80287C7.87329 8.96585 7.67103 9.12389 7.45426 9.25406C7.20326 9.40478 6.94224 9.54057 6.66584 9.64615C6.47872 9.71762 6.2902 9.78248 6.09737 9.83267C5.92097 9.87859 5.74119 9.91563 5.56069 9.94061C5.35275 9.96939 5.14271 9.98897 4.93299 9.99682C4.77043 10.0029 4.60634 9.99143 4.44409 9.97572C4.25837 9.95774 4.07171 9.9369 3.88952 9.89819C3.6829 9.85429 3.47829 9.79683 3.27727 9.73153C2.9832 9.63601 2.71161 9.49192 2.44129 9.34101C2.15511 9.18124 1.89867 8.98711 1.64973 8.77738C1.46257 8.61971 1.29074 8.44762 1.13591 8.26007C0.911148 7.98781 0.706838 7.70064 0.553077 7.38021C0.445966 7.15699 0.325916 6.9393 0.260085 6.6988C0.204147 6.49443 0.152438 6.2893 0.106292 6.08199C0.0298305 5.73848 -0.00235041 5.39365 0.000132998 5.04558C0.00270918 4.68473 0.0443134 4.3266 0.126673 3.97348C0.195887 3.67673 0.294717 3.39029 0.411647 3.1102C0.531625 2.82282 0.682478 2.5515 0.856138 2.29223C1.04775 2.00616 1.26017 1.73783 1.50768 1.49854C1.81474 1.20168 2.15751 0.950432 2.5261 0.736613C2.88148 0.530454 3.26009 0.375869 3.65394 0.256961C3.98479 0.157079 4.32453 0.10111 4.66435 0.0501642C4.88898 0.0164848 5.11854 0.0155784 5.34589 0C5.34602 0.00543424 5.34614 0.0108651 5.34626 0.0162922ZM4.63818 0.427988C4.60252 0.37391 4.56082 0.413498 4.5212 0.431193C4.561 0.429152 4.60079 0.427111 4.64059 0.42507C4.64626 0.430479 4.65183 0.440509 4.65759 0.44062C4.83147 0.443988 5.00592 0.438618 5.1791 0.451085C5.35377 0.463659 5.5294 0.483169 5.70054 0.519018C5.89762 0.560294 6.08845 0.631086 6.28533 0.673614C6.45883 0.711093 6.62156 0.774956 6.7793 0.84954C7.1409 1.02052 7.48689 1.22124 7.83051 1.4257C7.88314 1.45702 7.93611 1.48812 7.98644 1.52291C8.12655 1.61978 8.26552 1.7183 8.40461 1.81665C8.4801 1.87002 8.55491 1.92436 8.63002 1.97827C8.63959 1.95019 8.63544 1.93647 8.62731 1.92578C8.39551 1.62077 8.02389 1.27408 7.68939 1.04469C7.56584 0.959955 7.44631 0.868109 7.30453 0.810412C7.15783 0.75071 7.01735 0.675873 6.87161 0.613591C6.77311 0.571502 6.67217 0.532302 6.56881 0.505167C6.44288 0.472101 6.31348 0.451891 6.18517 0.42831C6.09108 0.411015 5.99515 0.379498 5.90214 0.385692C5.72234 0.397663 5.5451 0.327396 5.36582 0.376222C5.35848 0.37822 5.34979 0.376929 5.34203 0.375509C5.12753 0.336209 4.9161 0.379412 4.70398 0.400332C4.68139 0.402555 4.66014 0.418372 4.63818 0.427988ZM9.58527 4.86676C9.55952 4.62636 9.54125 4.38635 9.5065 4.14875C9.46172 3.84253 9.36906 3.54747 9.27443 3.25327C9.16396 2.90979 8.94367 2.64164 8.6848 2.40427C8.52867 2.2611 8.35392 2.13816 8.18697 2.00686C7.99167 1.85326 7.77479 1.73281 7.55832 1.61394C7.33843 1.4932 7.10933 1.38921 6.88436 1.27769C6.7392 1.20573 6.59842 1.12257 6.44802 1.06413C6.28081 0.999158 6.10343 0.960901 5.93317 0.903076C5.73875 0.837044 5.53595 0.816688 5.33551 0.787522C5.03041 0.743128 4.72337 0.759823 4.41749 0.790666C4.30075 0.802441 4.18195 0.807176 4.06837 0.833558C3.93352 0.864887 3.79582 0.876954 3.66041 0.904842C3.48376 0.941226 3.32359 1.01949 3.15162 1.06519C3.06675 1.08774 2.98817 1.13546 2.90829 1.17492C2.80569 1.22562 2.70171 1.27457 2.60367 1.3332C2.48191 1.40602 2.36002 1.48083 2.24853 1.568C2.13674 1.65539 2.03452 1.7559 1.93403 1.85658C1.85253 1.93824 1.77287 2.02363 1.70532 2.11675C1.647 2.19715 1.61381 2.29552 1.55734 2.37757C1.43268 2.55871 1.33946 2.75423 1.27202 2.96216C1.20577 3.16643 1.12893 3.36913 1.08563 3.5785C1.03196 3.83806 0.996544 4.10276 0.985065 4.36842C0.976202 4.5735 0.967424 4.78047 0.984915 4.98435C1.00992 5.27578 1.03889 5.5682 1.12786 5.85042C1.17814 6.00994 1.2005 6.18047 1.2671 6.33213C1.38026 6.5898 1.51375 6.83901 1.64737 7.08711C1.79371 7.35883 1.98227 7.6025 2.19819 7.82139C2.32224 7.94714 2.44613 8.076 2.59796 8.17312C2.77549 8.28668 2.93871 8.42618 3.12492 8.52174C3.38985 8.6577 3.66178 8.78459 3.95871 8.84385C4.07846 8.86775 4.19392 8.92093 4.31414 8.93314C4.54407 8.95649 4.7726 9.00192 5.00564 8.99127C5.24084 8.98052 5.47743 8.98409 5.71101 8.95897C5.91595 8.93694 6.11791 8.88559 6.32046 8.84364C6.39819 8.82754 6.47666 8.80844 6.54999 8.77881C6.74879 8.69848 6.95271 8.63052 7.1414 8.52539C7.34248 8.41336 7.54805 8.30889 7.72834 8.16383C7.8969 8.02819 8.06307 7.88958 8.22995 7.75186C8.2731 7.71625 8.31968 7.68329 8.35648 7.64183C8.44945 7.5371 8.54393 7.43274 8.62647 7.31995C8.74714 7.15507 8.85575 6.98143 8.97346 6.8143C9.11962 6.60678 9.22042 6.37576 9.31851 6.14452C9.42352 5.89698 9.50731 5.64148 9.53341 5.37086C9.54958 5.20321 9.56781 5.03576 9.58527 4.86676ZM7.12844 9.09607C7.12593 9.08668 7.12341 9.07729 7.1209 9.0679C7.09405 9.07564 7.06581 9.0803 7.04062 9.09169C6.96845 9.12431 6.90052 9.17787 6.82548 9.19029C6.6485 9.21958 6.4851 9.29698 6.30725 9.32142C6.19043 9.33747 6.07641 9.37484 5.95948 9.38888C5.74642 9.41447 5.53215 9.43003 5.31832 9.44909C5.29848 9.45086 5.27819 9.44799 5.25813 9.44694C5.13184 9.44033 5.00381 9.41744 4.87967 9.43077C4.69581 9.45052 4.52226 9.39296 4.34251 9.38486C4.20511 9.37868 4.06953 9.33164 3.93321 9.30247C3.84754 9.28413 3.76001 9.27147 3.67684 9.24512C3.54292 9.2027 3.40925 9.15727 3.28033 9.10182C3.10633 9.02698 2.93417 8.9467 2.7666 8.85853C2.66278 8.80391 2.5643 8.7367 2.46662 8.67203C2.28428 8.55133 2.10587 8.42119 1.94235 8.27632C1.67608 8.04043 1.44151 7.77402 1.24617 7.47447C1.09709 7.24587 0.983342 6.99951 0.866618 6.75398C0.789429 6.59161 0.747689 6.41733 0.688223 6.24956C0.623558 6.06712 0.595373 5.87112 0.558789 5.67959C0.534951 5.55479 0.523676 5.42753 0.50829 5.30118C0.492665 5.17284 0.521681 5.04188 0.485657 4.91431C0.480608 4.89643 0.488733 4.87499 0.489989 4.85515C0.494274 4.78754 0.502292 4.71987 0.501592 4.6523C0.498335 4.33894 0.528707 4.02915 0.59112 3.72214C0.618298 3.58846 0.641791 3.45402 0.671545 3.29548C0.636253 3.36892 0.60287 3.41699 0.58934 3.47012C0.52101 3.73845 0.444117 4.00382 0.390895 4.27709C0.337659 4.55042 0.318384 4.82476 0.319872 5.09707C0.321692 5.43063 0.344927 5.76683 0.430937 6.0943C0.485643 6.30258 0.54366 6.50918 0.618787 6.71118C0.724675 6.99588 0.84994 7.27095 1.01596 7.52591C1.11124 7.67223 1.20197 7.82305 1.31181 7.95796C1.44564 8.12233 1.59362 8.27582 1.74268 8.42692C1.84899 8.53467 1.96102 8.63884 2.08157 8.72996C2.2436 8.85243 2.41438 8.96373 2.58487 9.0745C2.82507 9.23056 3.08904 9.3398 3.35802 9.43208C3.64519 9.5306 3.93836 9.61269 4.24298 9.64113C4.42884 9.65848 4.6148 9.68694 4.80081 9.68766C5.09574 9.68879 5.3891 9.67006 5.68225 9.61697C5.92352 9.57327 6.15628 9.50706 6.38836 9.43476C6.649 9.35355 6.89212 9.23162 7.12844 9.09607ZM7.20554 9.02758C7.2085 9.03279 7.21147 9.038 7.21443 9.04321C7.23362 9.03153 7.25281 9.01986 7.27201 9.00818C7.26925 9.00348 7.26649 8.99879 7.26374 8.9941C7.24434 9.00526 7.22494 9.01642 7.20554 9.02758Z" fill="black"/>
<path d="M5.16178 4.6899C5.25524 4.59008 5.34406 4.4932 5.43505 4.39842C5.67078 4.15286 5.90782 3.90856 6.14364 3.66309C6.28182 3.51926 6.41694 3.37243 6.5568 3.23027C6.63837 3.14737 6.72552 3.06982 6.81222 2.99217C6.85974 2.9496 6.94592 2.95654 7.00206 3.00252C7.03662 3.03082 7.04164 3.10384 7.01152 3.15661C6.99759 3.18101 6.98354 3.20583 6.96597 3.22758C6.85861 3.36045 6.76331 3.50676 6.63869 3.62099C6.50088 3.7473 6.40547 3.90889 6.25363 4.02517C6.1172 4.12964 6.01664 4.28018 5.8964 4.40673C5.74106 4.57023 5.58325 4.73146 5.42334 4.89051C5.47594 4.99928 5.32795 5.15608 5.27992 5.18768C5.16946 5.26036 5.02246 5.26465 4.87162 5.15871C4.77334 5.08967 4.67616 5.01906 4.57796 4.9499C4.45491 4.86323 4.32881 4.78068 4.20846 4.69043C4.01029 4.54182 3.81542 4.38877 3.61976 4.23682C3.57959 4.20563 3.54638 4.16286 3.50245 4.13963C3.38854 4.07941 3.34877 3.97464 3.31597 3.86191C3.28701 3.76238 3.33518 3.66836 3.4321 3.63757C3.45787 3.62938 3.48267 3.61593 3.50549 3.60115C3.57181 3.55822 3.6412 3.55396 3.70493 3.59766C3.87907 3.71707 4.05133 3.83932 4.2222 3.96337C4.32846 4.04052 4.43256 4.1209 4.53456 4.20361C4.66093 4.30607 4.78195 4.41518 4.90949 4.51611C4.98738 4.57775 5.07317 4.62941 5.16178 4.6899Z" fill="black"/>
<path d="M4.85986 8.4631C4.85988 8.34405 4.86667 8.22347 4.861 8.10632C4.85654 8.01428 4.89962 7.94785 4.95609 7.88536C4.97674 7.86252 5.10257 7.85877 5.13045 7.88078C5.18221 7.92164 5.23382 7.95713 5.23379 8.04022C5.23378 8.12124 5.26608 8.20177 5.27283 8.28346C5.27793 8.34528 5.27096 8.40972 5.25886 8.47092C5.24354 8.54839 5.21605 8.62337 5.19656 8.70013C5.1716 8.79839 5.02717 8.8668 4.93899 8.81621C4.91435 8.80207 4.88862 8.77224 4.88311 8.74554C4.86423 8.65411 4.85985 8.5591 4.85986 8.4631Z" fill="black"/>
<path d="M8.24365 5.14722C8.24125 5.11347 8.23551 5.0814 8.23746 5.04979C8.24111 4.99059 8.26608 4.94126 8.32517 4.92046C8.3701 4.90464 8.41694 4.89226 8.46395 4.88466C8.6145 4.8603 8.76705 4.86093 8.91739 4.87654C9.07512 4.89292 9.12131 4.97688 9.12858 5.1165C9.12992 5.14225 9.10596 5.17963 9.08273 5.19431C9.0267 5.22973 8.96689 5.26977 8.90375 5.28129C8.74119 5.31092 8.57402 5.35813 8.41489 5.26759C8.3572 5.23477 8.3056 5.19124 8.24365 5.14722Z" fill="black"/>
<path d="M1.94739 4.44458C1.97751 4.45021 2.0287 4.44881 2.0683 4.46954C2.14449 4.50944 2.17202 4.58021 2.15172 4.64579C2.11764 4.75588 2.0648 4.79873 1.97059 4.80487C1.89956 4.8095 1.81859 4.80461 1.76078 4.83719C1.66074 4.89357 1.56654 4.85048 1.47075 4.84982C1.41606 4.84944 1.35511 4.76212 1.34415 4.69176C1.33271 4.61831 1.34645 4.58665 1.41929 4.54762C1.45713 4.52735 1.4995 4.51283 1.54156 4.50361C1.64266 4.48145 1.74461 4.46288 1.84663 4.44529C1.87396 4.44058 1.9028 4.44458 1.94739 4.44458Z" fill="black"/>
<path d="M7.13164 2.73715C7.03004 2.70871 7.04342 2.57111 7.07262 2.4851C7.12686 2.32533 7.22688 2.19034 7.35237 2.07691C7.40436 2.02992 7.54078 2.02529 7.59991 2.06142C7.64021 2.08604 7.66705 2.22759 7.63322 2.27662C7.57238 2.36481 7.50168 2.44624 7.44138 2.53477C7.36843 2.64188 7.26882 2.77555 7.13164 2.73715Z" fill="black"/>
<path d="M2.55961 2.87707C2.46708 2.78162 2.38001 2.69501 2.29674 2.6049C2.22963 2.53229 2.17936 2.44744 2.20123 2.34504C2.21222 2.29354 2.24448 2.24435 2.27621 2.20073C2.28723 2.18556 2.32662 2.18341 2.35129 2.1871C2.45964 2.20327 2.52267 2.28349 2.58346 2.36312C2.64594 2.44495 2.70435 2.52988 2.76463 2.61339C2.83535 2.71136 2.79217 2.83547 2.67725 2.86059C2.63837 2.86907 2.59824 2.87182 2.55961 2.87707Z" fill="black"/>
<path d="M5.11284 1.25853C5.10459 1.33538 5.07923 1.4125 5.05286 1.47269C5.02166 1.54387 4.95364 1.57821 4.87773 1.58025C4.8037 1.58225 4.76826 1.52302 4.73413 1.46777C4.66172 1.35053 4.68216 1.22778 4.72534 1.11051C4.77896 0.964907 4.93839 0.917815 5.04146 1.01332C5.10808 1.07507 5.1227 1.16661 5.11284 1.25853Z" fill="black"/>
<path d="M7.27765 7.18048C7.31112 7.16632 7.34651 7.18342 7.37585 7.19284C7.44339 7.21454 7.50765 7.23823 7.54329 7.31206C7.59194 7.41282 7.68004 7.4932 7.69893 7.60999C7.7069 7.65929 7.74683 7.71412 7.72297 7.75682C7.6619 7.86612 7.51404 7.74663 7.42331 7.72218C7.37325 7.70869 7.339 7.63313 7.2999 7.58376C7.28028 7.559 7.26655 7.52966 7.24879 7.50332C7.16253 7.37539 7.10175 7.25491 7.27765 7.18048Z" fill="black"/>
<path d="M5.19165 3.03634C5.28259 2.83195 6.19066 2.11999 6.42307 2.0587C6.39724 2.09189 6.38198 2.1184 6.36046 2.13807C6.18608 2.29747 6.01139 2.45655 5.83505 2.61377C5.71568 2.72019 5.59513 2.82545 5.47171 2.92709C5.42593 2.9648 5.37262 2.99551 5.31855 3.0202C5.28755 3.03435 5.24812 3.03001 5.19165 3.03634Z" fill="black"/>
<path d="M3.22411 7.30994C3.32096 7.36481 3.22237 7.49715 3.18957 7.56641C3.12034 7.71256 3.0149 7.81982 2.83866 7.82862C2.75644 7.83273 2.71841 7.799 2.70045 7.71538C2.68252 7.63191 2.70573 7.57208 2.76952 7.51454C2.89734 7.39926 3.06986 7.22253 3.22411 7.30994Z" fill="black"/>
<path d="M6.79611 6.13093C6.79061 6.21171 6.75057 6.25998 6.69501 6.30544C6.51351 6.45399 6.33635 6.60782 6.15608 6.75789C6.12275 6.78562 6.08519 6.81179 6.04515 6.82705C5.99257 6.84708 5.95535 6.80774 5.97743 6.75535C5.99418 6.71564 6.01992 6.67677 6.05044 6.64635C6.18371 6.5135 6.31969 6.38336 6.45583 6.25343C6.49346 6.21752 6.53476 6.1854 6.57484 6.15211C6.66613 6.07629 6.66885 6.07613 6.79611 6.13093Z" fill="black"/>
<path d="M3.17809 5.47059C2.96735 5.7285 2.69492 5.91925 2.44058 6.1295C2.41851 6.14774 2.38455 6.15161 2.33276 6.17082C2.34497 6.12527 2.34382 6.09483 2.35846 6.08011C2.57323 5.86425 2.79389 5.65494 3.05274 5.491C3.07288 5.47824 3.09527 5.46862 3.11748 5.45968C3.13151 5.45403 3.14714 5.45236 3.16206 5.4489C3.1674 5.45613 3.17275 5.46336 3.17809 5.47059Z" fill="black"/>
<path d="M5.76248 2.26618C5.73761 2.29617 5.71611 2.32997 5.6873 2.35552C5.54058 2.4856 5.39259 2.61429 5.24349 2.74164C5.21332 2.7674 5.17714 2.78651 5.14242 2.80643C5.10953 2.8253 5.07563 2.83225 5.03979 2.79703C5.04623 2.73476 5.09692 2.70594 5.13862 2.67223C5.33153 2.51633 5.49988 2.32449 5.7428 2.24126C5.74936 2.24956 5.75592 2.25787 5.76248 2.26618Z" fill="black"/>
<path d="M3.08037 5.88051C2.98786 6.0476 2.86807 6.14536 2.72578 6.21874C2.68537 6.23958 2.64263 6.27335 2.59468 6.2275C2.5842 6.17623 2.62548 6.15845 2.65571 6.13632C2.78188 6.04398 2.8957 5.93033 3.08037 5.88051Z" fill="black"/>
<path d="M6.39855 6.04439C6.37677 6.07664 6.36209 6.11637 6.33359 6.13707C6.25994 6.19056 6.182 6.23903 6.1017 6.28186C6.07976 6.29357 6.04341 6.27824 6.01367 6.27532C6.01883 6.24682 6.01398 6.20764 6.03095 6.19173C6.09452 6.13213 6.16301 6.07704 6.23401 6.02636C6.28313 5.99132 6.33754 5.99058 6.39855 6.04439Z" fill="black"/>
</svg>
