<svg width="10" height="13" viewBox="0 0 10 13" fill="none" xmlns="http://www.w3.org/2000/svg">
<path d="M4.86421 12.3025H5.03788C5.207 12.3025 5.34995 12.1887 5.39452 12.0337H4.50757C4.55214 12.1887 4.69509 12.3025 4.86421 12.3025Z" fill="black"/>
<path d="M4.3908 11.8289H5.51156C5.79598 11.8289 6.03435 11.6244 6.08704 11.3548L3.85596 11.4829C3.94893 11.689 4.15735 11.8289 4.3908 11.8289Z" fill="black"/>
<path d="M6.34377 10.7542C6.3116 10.7637 6.27832 10.7695 6.24428 10.7715L3.74454 10.9149C3.73628 10.9153 3.72801 10.9155 3.71977 10.9155C3.67635 10.9155 3.63326 10.909 3.59202 10.8966C3.54779 10.9418 3.52356 11.0042 3.52722 11.0685C3.53427 11.1937 3.64184 11.2895 3.7671 11.2828L6.19743 11.1433C6.3227 11.1363 6.4188 11.0287 6.41178 10.9034C6.40857 10.8467 6.38373 10.7936 6.34377 10.7542Z" fill="black"/>
<path d="M6.37467 10.1521C6.34802 10.1585 6.32061 10.1627 6.29263 10.1642L3.69706 10.3133C3.68845 10.3137 3.67989 10.314 3.67137 10.314C3.63275 10.314 3.59514 10.309 3.55914 10.2998C3.50756 10.3472 3.479 10.4158 3.48304 10.4872C3.48792 10.5735 3.5394 10.6502 3.6174 10.6876C3.65304 10.7047 3.69285 10.7127 3.73274 10.7103L6.23236 10.5669C6.26256 10.5652 6.29158 10.5579 6.31857 10.5453C6.40733 10.5042 6.461 10.4146 6.4555 10.3171C6.45186 10.2528 6.42234 10.1936 6.37467 10.1521Z" fill="black"/>
<path d="M6.49429 9.60638C6.4325 9.6282 6.36628 9.64016 6.29764 9.64016H3.70227C3.6603 9.64016 3.61925 9.6356 3.57954 9.62718C3.48114 9.6662 3.41595 9.76601 3.42202 9.87343C3.42983 10.0109 3.54819 10.1168 3.68559 10.1088L6.28114 9.95974C6.34786 9.95599 6.40903 9.92653 6.45349 9.87675C6.49795 9.82698 6.52038 9.76287 6.5166 9.69625C6.51483 9.66458 6.50712 9.63436 6.49429 9.60638Z" fill="black"/>
<path d="M5.0066 1.58246H4.99368C3.12102 1.58246 1.59171 3.10343 1.58257 4.97609C1.57815 5.8356 1.89485 6.65841 2.4739 7.2926C2.93808 7.8009 3.23084 8.42753 3.32065 9.10475C3.34082 9.25774 3.45285 9.38017 3.59733 9.42083C3.59765 9.42098 3.5978 9.42098 3.59797 9.42098C3.63138 9.43027 3.66636 9.43532 3.70228 9.43532H6.29768C6.49038 9.43532 6.65441 9.29319 6.67946 9.10475C6.76911 8.4277 7.06188 7.80106 7.52605 7.2926C8.10495 6.65856 8.42165 5.83592 8.41756 4.97609C8.40811 3.10343 6.87863 1.58246 5.0066 1.58246ZM4.13117 3.02403C3.37722 3.35617 2.84717 4.10902 2.84308 4.98241C2.84087 5.41145 2.96535 5.82584 3.19839 6.17801C3.30569 6.34029 3.28017 6.55631 3.13646 6.68758C2.95747 6.85097 2.67528 6.8152 2.54151 6.61305C2.22275 6.13138 2.05228 5.56478 2.05527 4.97848C2.0611 3.78776 2.78179 2.76108 3.80802 2.30586C4.01553 2.21369 4.25756 2.31783 4.33664 2.53055C4.3376 2.53339 4.33853 2.53607 4.33964 2.53891C4.41053 2.73033 4.31789 2.94177 4.13117 3.02403Z" fill="black"/>
<path d="M5.00672 0.916873C5.06327 0.916873 5.10913 0.871012 5.10913 0.814454V0.102419C5.10913 0.0458611 5.06327 0 5.00672 0C4.95016 0 4.9043 0.0458611 4.9043 0.102419V0.814454C4.9043 0.871012 4.95014 0.916873 5.00672 0.916873Z" fill="black"/>
<path d="M2.82435 1.42307C2.84332 1.45593 2.87775 1.47429 2.91315 1.47429C2.93053 1.47429 2.94815 1.46987 2.96426 1.46056C3.01325 1.43228 3.03003 1.36964 3.00175 1.32065L2.64572 0.703997C2.61743 0.65501 2.55478 0.638263 2.50582 0.666509C2.45683 0.694787 2.44005 0.757429 2.46833 0.806415L2.82435 1.42307Z" fill="black"/>
<path d="M1.4297 2.81274L0.813068 2.45673C0.764098 2.42848 0.701457 2.44524 0.673161 2.49421C0.644882 2.5432 0.661662 2.60584 0.710649 2.63412L1.32729 2.99013C1.34341 2.99944 1.36103 3.00387 1.37839 3.00387C1.41379 3.00387 1.44821 2.9855 1.46719 2.95264C1.49547 2.90366 1.47869 2.84101 1.4297 2.81274Z" fill="black"/>
<path d="M0.916873 4.9933C0.916873 4.93675 0.871012 4.89088 0.814454 4.89088H0.102419C0.0458613 4.89088 0 4.93675 0 4.9933C0 5.04986 0.0458613 5.09572 0.102419 5.09572H0.814454C0.871012 5.09572 0.916873 5.04986 0.916873 4.9933Z" fill="black"/>
<path d="M1.32069 6.9983L0.704057 7.35431C0.65507 7.38259 0.63829 7.44522 0.666569 7.49422C0.685539 7.52708 0.719968 7.54545 0.755367 7.54545C0.772749 7.54545 0.790365 7.54102 0.806476 7.53171L1.42311 7.1757C1.4721 7.14742 1.48888 7.08479 1.4606 7.03579C1.43232 6.9868 1.36966 6.97004 1.32069 6.9983Z" fill="black"/>
<path d="M7.03561 1.46056C7.05174 1.46987 7.06934 1.4743 7.08672 1.4743C7.12212 1.4743 7.15653 1.45593 7.1755 1.42307L7.53153 0.806419C7.5598 0.757432 7.54304 0.694807 7.49404 0.666512C7.44507 0.638233 7.38243 0.654997 7.35413 0.704L6.9981 1.32065C6.96984 1.36964 6.98661 1.43228 7.03561 1.46056Z" fill="black"/>
<path d="M8.62157 3.00386C8.63894 3.00386 8.65657 2.99943 8.67268 2.99012L9.28934 2.63411C9.33831 2.60583 9.3551 2.54319 9.32682 2.4942C9.29853 2.44522 9.23589 2.42844 9.18692 2.45672L8.57026 2.81272C8.52129 2.841 8.5045 2.90364 8.53278 2.95263C8.55176 2.98549 8.58618 3.00386 8.62157 3.00386Z" fill="black"/>
<path d="M9.89748 4.89088H9.18543C9.12887 4.89088 9.08301 4.93675 9.08301 4.9933C9.08301 5.04986 9.12887 5.09572 9.18543 5.09572H9.89746C9.95402 5.09572 9.99988 5.04986 9.99988 4.9933C9.99988 4.93675 9.95404 4.89088 9.89748 4.89088Z" fill="black"/>
<path d="M9.29592 7.35431L8.67928 6.9983C8.63035 6.96999 8.56765 6.98678 8.53938 7.03579C8.5111 7.08477 8.52786 7.1474 8.57686 7.17569L9.1935 7.5317C9.20963 7.54103 9.22723 7.54544 9.24461 7.54544C9.28001 7.54544 9.31444 7.52707 9.33339 7.49421C9.36169 7.44521 9.34489 7.38259 9.29592 7.35431Z" fill="black"/>
</svg>
