<svg width="10" height="7" viewBox="0 0 10 7" fill="none" xmlns="http://www.w3.org/2000/svg">
<path d="M4.87767 0.00148408C4.89489 0.000505654 4.91212 1.07275e-05 4.92937 0C6.40557 0.0025164 8.02168 0.419708 9.10453 1.47411C10.1574 2.49931 10.1334 3.95422 9.07647 4.9623C8.02581 5.96434 6.43782 6.40405 5.01416 6.39954C4.87511 6.39986 4.70681 6.4043 4.56999 6.39688C3.2543 6.32553 1.85476 5.92526 0.866942 5.01779C0.794985 4.9559 0.733901 4.88231 0.669663 4.81348C-0.243508 3.83506 -0.217245 2.50583 0.714661 1.5391C1.52415 0.699354 2.64124 0.280754 3.77694 0.0920404C4.14952 0.0301298 4.50211 0.0182889 4.87767 0.00148408ZM4.06047 5.97724C4.24567 6.00905 4.37917 6.01893 4.5625 6.02779C3.92824 5.53099 3.74928 4.2536 3.72146 3.50077C3.71748 3.393 3.72468 3.27685 3.71931 3.16856C3.14134 3.08232 2.52831 2.92133 2.01824 2.63787C1.67811 2.44886 1.31887 2.15762 1.27416 1.75418C1.2695 1.7121 1.27755 1.65388 1.26318 1.61571C1.16103 1.75126 1.08201 1.85678 0.998224 2.0049C0.76119 2.42309 0.667213 2.90725 0.730581 3.38375C0.828926 4.08631 1.28138 4.67551 1.83523 5.09426C2.46065 5.56711 3.28518 5.87389 4.06047 5.97724ZM6.16292 3.17034C6.15722 3.45502 6.16054 3.69892 6.12898 3.98837C6.06042 4.6173 5.86785 5.51186 5.39379 5.96715C5.3721 5.98787 5.34961 6.00772 5.32637 6.02668C5.4579 6.03099 5.71595 5.99564 5.85193 5.97366C6.92538 5.8085 8.04574 5.32431 8.71085 4.43002C9.0766 3.93817 9.24031 3.35191 9.14566 2.74418C9.09101 2.39338 8.93517 2.04667 8.72824 1.75937C8.71079 1.73518 8.63461 1.63157 8.61671 1.61538C8.61075 1.68904 8.61125 1.76623 8.59646 1.83769C8.55406 2.04315 8.39416 2.25158 8.23617 2.38366C7.68456 2.84491 6.85651 3.0626 6.16292 3.17034ZM4.90535 1.21238C4.52869 1.28764 4.3646 1.83977 4.28547 2.16745C4.26546 2.25026 4.25535 2.33972 4.23453 2.42137C4.50082 2.44651 4.72333 2.44806 4.98877 2.4474C5.20807 2.44764 5.43051 2.44565 5.64881 2.4208C5.62252 2.30574 5.60474 2.18561 5.57531 2.07122C5.504 1.79403 5.28121 1.16435 4.90535 1.21238ZM4.61156 0.433054C3.89155 0.476552 2.78266 0.593503 2.22243 1.13351C2.00631 1.34181 2.0715 1.6418 2.29728 1.82475C2.61093 2.07891 3.02275 2.2067 3.41257 2.29607C3.53982 2.32559 3.66972 2.34459 3.79693 2.3711C3.79527 2.29645 3.82494 2.1539 3.84182 2.07772C3.94698 1.60302 4.10305 1.08992 4.43564 0.722422C4.64597 0.49003 4.91635 0.392965 5.20737 0.535364C5.64033 0.783664 5.85239 1.35686 5.97828 1.81538C6.01017 1.93154 6.08689 2.25815 6.08652 2.37142C6.51748 2.28687 7.84922 2.05431 7.7879 1.36953C7.7547 1.19872 7.59017 1.04195 7.44849 0.956771C6.80998 0.572821 6.0068 0.478914 5.27617 0.432656C5.07574 0.419966 4.81554 0.430607 4.61156 0.433054ZM4.18072 3.22346C4.19745 3.75299 4.29681 4.50453 4.67772 4.90774C4.74297 4.9768 4.85872 5.03132 4.95401 5.02637C5.14553 5.01645 5.29195 4.83066 5.37852 4.67773C5.62628 4.21245 5.66569 3.73553 5.70331 3.22303C5.52794 3.23672 5.36587 3.25017 5.18946 3.25252C5.01865 3.25481 4.85683 3.27254 4.68465 3.25196C4.5077 3.24984 4.35647 3.23682 4.18072 3.22346Z" fill="black"/>
</svg>
