<svg width="10" height="10" viewBox="0 0 10 10" fill="none" xmlns="http://www.w3.org/2000/svg">
<path d="M10 4.78539C10 5.29401 9.36313 5.69577 9.21413 6.15471C9.05968 6.63038 9.33341 7.32872 9.04527 7.72464C8.75425 8.12452 8.00356 8.07857 7.60367 8.36959C7.20775 8.65773 7.02109 9.38747 6.54543 9.54191C6.08649 9.69093 5.50862 9.21514 5.00001 9.21514C4.49139 9.21514 3.91353 9.69093 3.45458 9.54191C2.97892 9.38747 2.79225 8.65773 2.39633 8.36959C1.99645 8.07857 1.24575 8.12453 0.954729 7.72465C0.666587 7.32873 0.940319 6.63039 0.785885 6.15472C0.636869 5.69578 0 5.29402 0 4.78541C0 4.27679 0.636869 3.87503 0.785885 3.41609C0.940332 2.94042 0.666599 2.24208 0.954742 1.84616C1.24576 1.44628 1.99645 1.49223 2.39634 1.20122C2.79226 0.913079 2.97893 0.183345 3.45458 0.0288982C3.91353 -0.120118 4.49139 0.355673 5.00001 0.355673C5.50862 0.355673 6.08649 -0.120118 6.54543 0.0288982C7.0211 0.183345 7.20776 0.913079 7.60369 1.20122C8.00356 1.49224 8.75426 1.44629 9.04528 1.84617C9.33343 2.2421 9.05969 2.94043 9.21413 3.4161C9.36314 3.87502 10 4.27678 10 4.78539Z" fill="#2A77F2"/>
<path d="M4.25302 7.13766L2.46704 5.51464L3.11577 4.80076L4.14866 5.73939L6.57626 2.76283L7.3238 3.37251L4.25302 7.13766Z" fill="white"/>
</svg>
