<svg width="16" height="14" viewBox="0 0 16 14" fill="none" xmlns="http://www.w3.org/2000/svg">
<rect width="16" height="14" fill="white"/>
<path d="M13 6.78539C13 7.29401 12.3631 7.69577 12.2141 8.15471C12.0597 8.63038 12.3334 9.32872 12.0453 9.72464C11.7542 10.1245 11.0036 10.0786 10.6037 10.3696C10.2077 10.6577 10.0211 11.3875 9.54543 11.5419C9.08649 11.6909 8.50862 11.2151 8.00001 11.2151C7.49139 11.2151 6.91353 11.6909 6.45458 11.5419C5.97892 11.3875 5.79225 10.6577 5.39633 10.3696C4.99645 10.0786 4.24575 10.1245 3.95473 9.72465C3.66659 9.32873 3.94032 8.63039 3.78588 8.15472C3.63687 7.69578 3 7.29402 3 6.78541C3 6.27679 3.63687 5.87503 3.78588 5.41609C3.94033 4.94042 3.6666 4.24208 3.95474 3.84616C4.24576 3.44628 4.99645 3.49223 5.39634 3.20122C5.79226 2.91308 5.97893 2.18334 6.45458 2.0289C6.91353 1.87988 7.49139 2.35567 8.00001 2.35567C8.50862 2.35567 9.08649 1.87988 9.54543 2.0289C10.0211 2.18334 10.2078 2.91308 10.6037 3.20122C11.0036 3.49224 11.7543 3.44629 12.0453 3.84617C12.3334 4.2421 12.0597 4.94043 12.2141 5.4161C12.3631 5.87502 13 6.27678 13 6.78539Z" fill="#2A77F2"/>
<path d="M7.25302 9.13766L5.46704 7.51464L6.11577 6.80075L7.14866 7.73938L9.57626 4.76283L10.3238 5.3725L7.25302 9.13766Z" fill="white"/>
</svg>
