<svg width="64" height="64" viewBox="0 0 64 64" fill="none" xmlns="http://www.w3.org/2000/svg">
<rect width="64" height="64" fill="white"/>
<path d="M42.9112 14.4984C41.9225 13.5633 40.5451 12.377 38.6535 11.4985C36.824 10.6488 34.9952 10.2136 32.5385 10.0432C32.1261 10.0144 31.7108 10 31.304 10C26.2202 10 22.6909 12.1847 20.6254 14.0174C18.3162 16.0661 15.6459 19.5295 16.0387 24.3953C16.3289 27.9888 18.6489 30.8134 20.513 33.083L20.5928 33.1802C20.9251 33.5848 21.2713 33.9817 21.6378 34.4015C22.7901 35.722 23.9817 37.0873 24.8376 38.8219L24.936 39.0205C25.2856 39.7244 25.7207 40.6005 25.6683 41.0514C25.6306 41.3737 25.474 41.5312 25.2924 41.7135C25.0404 41.9666 24.7267 42.2818 24.9283 42.957C25.19 43.8332 26.4342 43.8332 27.8749 43.8332L35.3866 43.8333C35.3865 43.8333 35.3866 43.8333 35.3866 43.8333C36.575 43.8333 37.8041 43.8333 38.066 42.9569C38.263 42.2972 37.9199 41.9275 37.6442 41.6305C37.4883 41.4626 37.3537 41.3175 37.3245 41.1355C37.1839 40.2551 38.2557 38.2561 39.311 36.7713C39.977 35.8341 40.6926 35.0202 41.3846 34.2329C41.7044 33.8692 42.0066 33.5254 42.293 33.1818C42.4448 32.9997 42.5976 32.818 42.7504 32.6362C44.668 30.3556 46.6509 27.9975 46.9553 24.4917C47.386 19.5332 44.6064 16.1022 42.9112 14.4984ZM40.0498 31.4106C39.9123 31.5713 39.7751 31.7316 39.6389 31.8921C39.4006 32.1731 39.1607 32.4514 38.9215 32.7288C36.7697 35.2246 34.7345 37.5853 34.258 41.1756H28.7302C28.1375 37.3795 26.0632 34.9586 23.8698 32.399C23.699 32.1997 23.5273 31.9992 23.3552 31.797L23.0622 31.4536C21.3537 29.4537 19.4173 27.1871 19.1392 24.5385C18.6999 20.3551 20.8813 17.5024 22.7886 15.8461C25.2258 13.7295 28.1666 12.6562 31.5291 12.6562C31.9132 12.6562 32.3076 12.6706 32.7015 12.6992C38.6348 13.1293 43.4297 17.4231 43.8546 22.6869C44.1701 26.5937 42.0754 29.0424 40.0498 31.4106Z" fill="black"/>
<path d="M34.587 28.022L34.557 28.0215C33.8091 28.0215 33.0113 28.8009 32.3702 29.4272C32.2257 29.5685 32.0891 29.702 31.9776 29.8008C31.8193 29.9413 31.6829 30.0934 31.5734 30.2156C31.5576 30.2334 31.5401 30.2528 31.5224 30.2723C31.4278 30.1839 31.3141 30.0672 31.2461 29.9975C31.1628 29.9121 31.097 29.8446 31.0476 29.8008C30.9659 29.7283 30.8544 29.6225 30.7251 29.4998C29.8726 28.6911 29.1231 28.0218 28.5858 28.0218C28.5838 28.0218 28.576 28.0218 28.5739 28.0218C28.1823 28.0284 27.7254 28.2447 27.61 28.6453C27.408 29.3467 28.312 30.0288 28.8522 30.4366C28.9493 30.5098 29.0332 30.573 29.078 30.6129C29.3299 30.8364 29.5187 31.0004 29.6921 31.151C29.9728 31.3948 30.2178 31.6076 30.6315 31.9881V34.6798C30.6315 34.8119 30.6234 34.9722 30.6147 35.142C30.5705 36.0129 30.5099 37.2058 31.465 37.2447C31.4786 37.2452 31.4962 37.2444 31.5054 37.2454C31.7209 37.2454 31.9127 37.1731 32.06 37.0362C32.4609 36.6631 32.455 35.9167 32.4086 35.0517C32.4006 34.904 32.3938 34.7765 32.3938 34.6799C32.3938 34.4454 32.3721 34.1591 32.3492 33.8562C32.302 33.233 32.2431 32.4576 32.3824 32.0071C32.4178 31.8922 32.677 31.6939 32.8663 31.549C32.9399 31.4926 33.0129 31.4367 33.0808 31.3815C33.6779 30.8952 34.1116 30.5257 34.7381 29.9697L34.7636 29.9473C35.1398 29.6139 35.4786 29.2875 35.4911 28.9595C35.5006 28.71 35.3971 28.4641 35.2073 28.2843C35.0376 28.1238 34.8117 28.0281 34.587 28.022Z" fill="black"/>
<path d="M36.0132 44.9387C35.5306 44.848 34.8331 44.8075 33.7516 44.8075C33.1916 44.8075 32.5837 44.8183 31.9958 44.8288C31.4144 44.8393 30.8133 44.8501 30.266 44.8501C30.0252 44.8501 29.775 44.8462 29.5102 44.8423C29.239 44.8382 28.9585 44.834 28.6818 44.834C27.7001 44.834 25.6574 44.834 25.5595 45.976C25.5326 46.289 25.6468 46.5519 25.8989 46.7569C26.4604 47.214 27.5893 47.2757 28.6196 47.2757C29.0978 47.2757 29.6011 47.2599 30.0878 47.2446C30.5673 47.2296 31.02 47.2154 31.4429 47.2154C31.7475 47.2154 32.092 47.2162 32.455 47.2172C33.2454 47.2191 34.1231 47.2214 34.8697 47.2154C36.1402 47.2052 37.3403 47.1956 37.4332 46.1719C37.5196 45.222 36.6489 45.0582 36.0132 44.9387Z" fill="black"/>
<path d="M36.0132 48.1797C35.5306 48.0891 34.8331 48.0486 33.7516 48.0486C33.1916 48.0486 32.5837 48.0594 31.9958 48.07C31.4144 48.0803 30.8133 48.0911 30.266 48.0911C30.0252 48.0911 29.775 48.0873 29.5102 48.0833C29.239 48.0792 28.9585 48.075 28.6818 48.075C27.7001 48.075 25.6574 48.075 25.5595 49.2169C25.5326 49.53 25.6468 49.7929 25.8989 49.998C26.4604 50.455 27.5893 50.5167 28.6196 50.5167C29.0978 50.5167 29.6011 50.5009 30.0878 50.4856C30.5673 50.4705 31.02 50.4563 31.4429 50.4563C31.7475 50.4563 32.092 50.4573 32.455 50.4582C33.2454 50.4601 34.1231 50.4624 34.8697 50.4563C36.1402 50.4462 37.3403 50.4366 37.4332 49.413C37.5196 48.463 36.6489 48.2993 36.0132 48.1797Z" fill="black"/>
<path d="M34.3314 51.1719L34.321 51.1694C34.0007 51.0928 33.4357 51.0602 32.4318 51.0602C32.0587 51.0602 31.6588 51.0646 31.2721 51.0687C30.9656 51.0721 30.6613 51.0755 30.3718 51.0766C29.1299 51.0817 27.5843 51.088 27.4859 52.1192C27.454 52.4529 27.5628 52.7247 27.8092 52.9266C28.2584 53.2949 29.0518 53.3689 30.1863 53.3689C30.3851 53.3689 30.59 53.3669 30.7982 53.3647C31.0107 53.3627 31.2266 53.3604 31.4435 53.3604C31.6898 53.3604 31.9484 53.3652 32.1986 53.3699C32.4521 53.3746 32.7157 53.3795 32.9654 53.3794C33.767 53.3794 35.4248 53.3773 35.5082 52.3148C35.5747 51.4689 34.8852 51.3042 34.3314 51.1719Z" fill="black"/>
</svg>
